<?xml version="1.0" encoding="UTF-8"?>
<svg id="Layer_1" xmlns="http://www.w3.org/2000/svg" xmlns:svgjs="http://svgjs.dev/svgjs" version="1.1" viewBox="0 0 300 300">
  <!-- Generator: Adobe Illustrator 29.1.0, SVG Export Plug-In . SVG Version: 2.1.0 Build 142)  -->
  <defs>
    <style>
      .st0 {
        fill: #0051b1;
      }
    </style>
  </defs>
  <g id="g303">
    <g id="g305">
      <g id="path307">
        <path class="st0" d="M191.7,114.4c.7,0,1.4-.2,2-.6l14.6-10.1c1.6-1.1,2-3.2.9-4.8-1.1-1.6-3.2-2-4.8-.9l-14.6,10.1c-1.6,1.1-2,3.2-.9,4.8.7,1,1.8,1.5,2.9,1.5Z"/>
      </g>
    </g>
    <g id="g309">
      <g id="path311">
        <path class="st0" d="M179.9,107.9c1,0,2-.4,2.6-1.2l8.1-9.5c1.2-1.5,1.1-3.6-.4-4.9-1.5-1.2-3.6-1.1-4.9.4l-8.1,9.5c-1.2,1.5-1.1,3.6.4,4.9.7.6,1.5.8,2.2.8Z"/>
      </g>
    </g>
    <g id="g313">
      <g id="path315">
        <path class="st0" d="M204.6,207.5c1.1,0,2.2-.5,2.9-1.5,1.1-1.6.7-3.7-.9-4.8l-12.9-8.9c-1.6-1.1-3.7-.7-4.8.9-1.1,1.6-.7,3.7.9,4.8l12.9,8.9c.6.4,1.3.6,2,.6Z"/>
      </g>
    </g>
    <g id="g317">
      <g id="path319">
        <path class="st0" d="M184.5,210.4c.8,0,1.6-.3,2.2-.8,1.5-1.2,1.6-3.4.4-4.9l-4.2-4.9c-1.2-1.5-3.4-1.6-4.9-.4-1.5,1.2-1.6,3.4-.4,4.9l4.2,4.9c.7.8,1.7,1.2,2.6,1.2Z"/>
      </g>
    </g>
    <g>
      <g id="path331">
        <path class="st0" d="M101.6,220.9c4.6,0,8.7-1.4,11.7-4.4,3.9-3.9,5.3-9.8,3.9-16.6-.4-1.9-2.2-3.1-4.1-2.7-1.9.4-3.1,2.2-2.7,4.1.9,4.5.2,8.1-2,10.3-1.4,1.4-4.8,3.5-11.6,1.7-5.7-1.5-11.7-5.1-16.9-10.3-6.8-6.8-11-15.1-11-21.7,0-1.9-1.6-3.5-3.5-3.5h0c-1.9,0-3.5,1.6-3.5,3.5,0,8.5,4.9,18.5,13,26.6,8.5,8.5,18.4,13,26.7,13Z"/>
      </g>
      <g id="path335">
        <path class="st0" d="M196,131.3c.6,0,1.2-.1,1.7-.4,5.1-2.9,9.8-5.7,13.9-8.5,1.6-1.1,2-3.2.9-4.8-1.1-1.6-3.2-2-4.8-.9-3.9,2.7-8.4,5.4-13.4,8.2-1.7.9-2.3,3-1.3,4.7.6,1.1,1.8,1.8,3,1.8Z"/>
      </g>
      <g id="path339">
        <path class="st0" d="M82.3,119c1.2,0,2.4-.7,3.1-1.8,2.7-4.9,13.4-21.6,39.6-28.3,28.4-7.2,85.2-3.4,98,6.6.7.5,1.9,1.6,1.9,2.6,0,2.6-2.3,6.3-6.6,10.3-1.4,1.3-1.4,3.5-.1,4.9,1.3,1.4,3.5,1.4,4.9.1,5.9-5.6,8.8-10.6,8.8-15.3s-1.5-5.7-4.6-8.1c-15.7-12.2-75.4-15.1-104-7.8-28.9,7.4-41,26.1-44,31.7-.9,1.7-.3,3.8,1.4,4.7.5.3,1.1.4,1.6.4Z"/>
      </g>
      <g id="path343">
        <path class="st0" d="M179.9,221.8c4.2,0,8.5-.1,12.9-.4,8-.5,27.4-2.4,35.2-8.5,3.1-2.4,3.7-4.9,3.7-6.7,0-5.5-5-11.5-15.8-18.9-7.8-5.3-16.4-9.8-19.7-11.5-1.7-.9-3.8-.2-4.7,1.5-.9,1.7-.2,3.8,1.5,4.7,3.2,1.6,11.5,5.9,18.9,11,11.8,8.1,12.7,12.1,12.7,13.2s-.2.5-1,1.2c-4.3,3.3-16.3,6-31.4,7-15.2,1-30.5.1-40.1-2.3-9.3-2.4-17-6.7-23-12.8-1.3-1.4-3.5-1.4-4.9,0-1.4,1.3-1.4,3.5,0,4.9,6.8,7,15.8,12.1,26.2,14.7,7.6,1.9,18.1,3,29.4,3Z"/>
      </g>
      <g id="path347">
        <path class="st0" d="M245.4,188c2.9,0,5.9-1,8.2-3,6.8-5.8,14.8-16,14.8-32s-8.1-26.2-14.8-32c-4.4-3.8-10.8-4-15.6-.7l-26.1,18.5c-1.6,1.1-1.9,3.3-.8,4.8,1.1,1.6,3.3,1.9,4.8.8l26.1-18.5c2.2-1.5,5.1-1.4,7.1.3,5.7,4.8,12.4,13.4,12.4,26.7,0,13.3-6.7,21.9-12.4,26.7-2,1.7-4.9,1.8-7.1.3l-26.2-18.5c-1.6-1.1-3.7-.7-4.8.8-1.1,1.6-.7,3.7.8,4.8l26.2,18.5c2.2,1.6,4.8,2.3,7.4,2.3Z"/>
      </g>
      <g id="path351">
        <path class="st0" d="M128.4,205.1c18.4,0,37.6-5.5,57-16.4,15.7-8.8,28.2-19.2,35.8-26.4,2.5-2.4,4-5.8,4-9.3,0-3.5-1.5-6.9-4-9.3-7.6-7.2-20.1-17.6-35.8-26.4-19.4-10.9-38.6-16.4-57-16.4-18.4,0-37.6,5.5-57,16.4-15.7,8.8-28.2,19.2-35.8,26.4-2.5,2.4-4,5.8-4,9.3,0,3.5,1.5,6.9,4,9.3,9.3,8.7,28.5,24.9,52.8,34.6,1.8.7,3.8-.2,4.5-1.9s-.2-3.8-1.9-4.5c-23.2-9.3-41.7-24.8-50.6-33.2-1.2-1.1-1.8-2.6-1.8-4.2,0-1.6.6-3.1,1.8-4.2,13.1-12.3,47.9-40.9,88.1-40.9s75,28.6,88.1,40.9c1.2,1.1,1.8,2.6,1.8,4.2s-.6,3.1-1.8,4.2c-13.1,12.3-47.9,40.9-88.1,40.9-8,0-16.3-1.1-24.6-3.4-1.9-.5-3.8.6-4.3,2.4-.5,1.9.6,3.8,2.4,4.3,8.9,2.4,17.8,3.6,26.5,3.6Z"/>
      </g>
      <g id="path355">
        <path class="st0" d="M92.5,183.8l-16.4-16.3c-2-2-3.1-4.6-3.1-7.5,0-2.8,1.1-5.5,3.1-7.5l16.4-16.3c3.2-3.1,7.6-4.4,11.9-3.4,12.7,2.9,21.6,14.1,21.6,27.2s-8.9,24.3-21.6,27.2c-.9.2-1.9.3-2.8.3-3.3,0-6.6-1.3-9-3.8ZM97.4,141.1l-16.4,16.3c-.7.7-1.1,1.6-1.1,2.5s.4,1.9,1.1,2.5l16.4,16.3c1.5,1.4,3.5,2,5.4,1.6,9.5-2.2,16.2-10.6,16.2-20.5,0-9.9-6.6-18.3-16.2-20.5-.4,0-.9-.1-1.3-.1-1.5,0-3,.6-4.2,1.7Z"/>
      </g>
      <g id="path359">
        <path class="st0" d="M62.1,152.3c1.9,0,3.5-1.6,3.5-3.5v-5.6c0-1.9-1.6-3.5-3.5-3.5s-3.5,1.6-3.5,3.5v5.6c0,1.9,1.6,3.5,3.5,3.5Z"/>
      </g>
      <g id="path363">
        <path class="st0" d="M160.6,100.6c1.6,0,3.1-1.2,3.4-2.8l.9-5c.3-1.9-.9-3.7-2.8-4-1.9-.3-3.7.9-4,2.8l-.9,5c-.3,1.9.9,3.7,2.8,4,.2,0,.4,0,.6,0Z"/>
      </g>
      <g id="path367">
        <path class="st0" d="M235.1,145.5c.3,0,.6,0,.9-.1l6.7-1.8c1.9-.5,3-2.4,2.5-4.3-.5-1.9-2.4-2.9-4.3-2.5l-6.7,1.8c-1.9.5-3,2.4-2.5,4.3.4,1.6,1.8,2.6,3.4,2.6Z"/>
      </g>
      <g id="path371">
        <path class="st0" d="M238.2,156.5h11.6c1.9,0,3.5-1.6,3.5-3.5,0-1.9-1.6-3.5-3.5-3.5h-11.6c-1.9,0-3.5,1.6-3.5,3.5,0,1.9,1.6,3.5,3.5,3.5Z"/>
      </g>
      <g id="path375">
        <path class="st0" d="M241.8,169.3c1.5,0,2.9-1,3.4-2.6.5-1.9-.6-3.8-2.5-4.3l-6.7-1.8c-1.9-.5-3.8.6-4.3,2.5-.5,1.9.6,3.8,2.5,4.3l6.7,1.8c.3,0,.6.1.9.1Z"/>
      </g>
      <g id="path379">
        <path class="st0" d="M99.8,157.1c.3,0,.6,0,.9-.1l6.7-1.8c1.9-.5,3-2.4,2.5-4.3-.5-1.9-2.4-2.9-4.3-2.5l-6.7,1.8c-1.9.5-3,2.4-2.5,4.3.4,1.6,1.8,2.6,3.4,2.6Z"/>
      </g>
      <g id="path383">
        <path class="st0" d="M106.5,171.6c1.5,0,2.9-1,3.4-2.6.5-1.9-.6-3.8-2.5-4.3l-6.7-1.8c-1.9-.5-3.8.6-4.3,2.5-.5,1.9.6,3.8,2.5,4.3l6.7,1.8c.3,0,.6.1.9.1Z"/>
      </g>
    </g>
  </g>
</svg>