<?xml version="1.0" encoding="UTF-8"?>
<svg id="Layer_1" xmlns="http://www.w3.org/2000/svg" xmlns:svgjs="http://svgjs.dev/svgjs" version="1.1" viewBox="0 0 300 300">
  <!-- Generator: Adobe Illustrator 29.1.0, SVG Export Plug-In . SVG Version: 2.1.0 Build 142)  -->
  <defs>
    <style>
      .st0 {
        fill: #0051b1;
      }
    </style>
  </defs>
  <path class="st0" d="M77,124.7c7.7,0,13.9-6.3,13.9-13.9s-6.3-13.9-13.9-13.9-13.9,6.3-13.9,13.9,6.3,13.9,13.9,13.9ZM77,105.5c2.9,0,5.3,2.4,5.3,5.3s-2.4,5.3-5.3,5.3-5.3-2.4-5.3-5.3,2.4-5.3,5.3-5.3Z"/>
  <path class="st0" d="M279.5,78.1c0-1,0-1.9,0-2.9-.1-1.3-.4-2.6-.6-3.9-.1-.9-.2-1.8-.4-2.7,0,0,0,0,0,0,0,0,0-.1,0-.2,0-.1,0-.2-.1-.4,0-.3-.2-.5-.3-.8,0,0,0,0,0,0-.6-1.1-1.6-1.9-2.9-2.1-.9-.2-1.9-.4-2.8-.5-8.8-1.4-17.7-.6-26,2.2-.2,0-.3,0-.5.1-.3.1-.7.3-1,.4-4.7,1.7-9.1,4-13.1,7,0,0,0,0,0,0,0,0,0,0,0,0,0,0,0,0-.2.1-2.2,1.6-4.2,3.4-6,5.2-.1.1-.2.3-.3.4-.5.6-1,1.1-1.6,1.7-.3.3-.6.7-.9,1-.6.8-1.2,1.5-1.8,2.3-.2.3-.4.5-.6.8-1.6,2.2-3,4.4-4.2,6.8,0,0,0,0,0,0s0,0,0,0c-1.2,2.2-2.2,4.5-3.1,6.9-.4-.5-.9-.9-1.4-1.3-1-1-2-2-3-3-.6-.6-1.3-1.1-1.9-1.7-.9-.8-1.8-1.6-2.7-2.4-.9-.8-1.8-1.5-2.7-2.2-.7-.5-1.4-1.1-2.1-1.6-1.1-.8-2.3-1.7-3.4-2.5-.5-.4-1-.8-1.5-1.1-1.2-.8-2.5-1.6-3.8-2.4-.4-.3-.9-.6-1.3-.9-.9-.5-1.8-1-2.6-1.5,12.7-15.4,12.5-37.3,12.5-38.3,0-2-1.5-3.8-3.5-4.2-59.9-11.5-88.8,20.9-94.6,28.4-1.3.3-2.6.5-3.9.8-31.3,7.3-58.1,26.2-75.6,53.4-.9,1.4-.9,3.3,0,4.7,8.4,13,19.3,24.5,31.9,33.6-14,11.6-22.2,28.7-22.2,47.1,0,33.8,27.5,61.3,61.3,61.3s59.6-26,61.1-58.4c5.7,1,11.6,1.5,17.7,1.5s16-.8,24.3-2.4c2-.4,3.5-2.1,3.5-4.2,0-1,.2-22.9-12.5-38.3,9-5.1,17.2-11.4,24.6-18.6.7-.6,1.4-1.2,2-1.9.8,2.4,1.9,4.7,3.1,6.9.6,1.2,1.3,2.3,2,3.5.2.4.5.7.7,1,.5.8,1,1.5,1.5,2.3.3.4.7.9,1,1.3.5.6,1,1.2,1.5,1.8.4.5.8.9,1.2,1.3.4.5.9,1,1.3,1.4.1.1.2.3.4.4,1.9,1.9,4,3.7,6.2,5.3,11.5,8.5,26.3,12,40.6,9.7,0,0,0,0,.1,0,0,0,0,0,0,0h.2c.8-.2,1.6-.3,2.4-.5,1.2-.2,2.2-1,2.8-2.1,0,0,0,0,0-.1.1-.2.2-.4.2-.6,0-.2.2-.3.2-.5,0,0,0,0,0,0,0,0,0,0,0,0,.1-.6.2-1.2.3-1.8.3-1.6.6-3.3.7-4.9,0-1,0-1.9,0-2.9,0-1.3.1-2.5,0-3.8,0-1.1-.2-2.1-.3-3.2-.1-1.2-.2-2.3-.3-3.5-.2-1.1-.5-2.1-.7-3.1-.3-1.1-.4-2.2-.8-3.3-.3-1-.7-2-1.1-3-.4-1.1-.7-2.2-1.2-3.3-.4-.9-.9-1.8-1.4-2.7-.5-1.1-1-2.2-1.6-3.2-.5-.9-1.1-1.7-1.7-2.5-.7-1-1.3-2.1-2.1-3.1-.6-.8-1.3-1.5-2-2.3-.8-.9-1.5-1.8-2.3-2.7-.1-.1-.2-.3-.3-.4-1.2-1.2-2.5-2.4-3.8-3.5,1.3-1.1,2.6-2.2,3.8-3.5s.2-.2.3-.4c.8-.8,1.4-1.6,2.1-2.4.7-.8,1.5-1.7,2.2-2.5.7-.9,1.3-2,2-2.9.6-.9,1.2-1.7,1.7-2.6.6-1.1,1.1-2.2,1.7-3.3.4-.9.9-1.7,1.3-2.6.5-1.2.9-2.4,1.3-3.5.3-.9.7-1.8,1-2.7.4-1.2.6-2.5.9-3.7.2-.9.5-1.8.6-2.8.2-1.3.3-2.5.4-3.8,0-.9.2-1.9.3-2.8,0-1.3,0-2.6,0-3.9ZM267.2,97.9c-.1.3-.2.6-.4.9-.2.4-.5.9-.7,1.3-2.2,4.3-5,8.3-8.5,11.8-2.3,2.3-4.8,4.3-7.4,5.9-.6.4-1,.9-1.4,1.5,0,0,0,0,0,.1-.1.3-.3.5-.4.8,0,0,0,0,0,.1,0,0,0,.2,0,.3,0,.3-.1.6-.1.9s0,.6.1.9c0,0,0,.2,0,.3,0,0,0,0,0,0,.3,1,.9,1.9,1.8,2.5,2.6,1.6,5,3.6,7.4,5.9,10.3,10.3,15,24.6,12.8,38.9-11.9,1.8-24.2-1.2-33.7-8.2,0,0,0,0,0,0-1.4-1.1-2.8-2.2-4-3.4-.4-.4-.8-.7-1.2-1.1-3.2-3.2-5.9-6.9-8.1-11-1.5-3-2.8-6.1-3.6-9.2-.3-1-.5-2.1-.7-3.1-.3-1.6-1.5-3-3.1-3.4-.4,0-.8-.2-1.1-.2s0,0,0,0c-.5,0-1.1.1-1.6.3-.1,0-.2,0-.3.2-.5.3-1,.6-1.3,1-9.7,11.3-21.2,20.4-34.3,27.1-10.7,5.6-22.2,9.4-34.3,11.3-.3-.4-.6-.7-.8-1.1-.5-.7-1-1.3-1.5-2-.6-.8-1.2-1.5-1.8-2.3-.5-.6-1.1-1.2-1.6-1.8-.7-.7-1.3-1.4-2-2.1-.6-.6-1.1-1.1-1.7-1.7-.7-.7-1.5-1.3-2.2-1.9-.6-.5-1.2-1-1.8-1.5-.8-.6-1.6-1.2-2.5-1.8-.6-.4-1.2-.9-1.9-1.3-.9-.6-1.8-1.1-2.7-1.6-.6-.4-1.2-.7-1.9-1.1-1-.5-2.1-1-3.2-1.5-.6-.3-1.1-.5-1.7-.8-.3-.1-.7-.3-1-.4,2.5-8.5,3.8-17.2,3.8-26.1,0-17.3-4.7-33.9-13.6-48.6,6.6-1.2,13.3-1.8,20-1.8,18.6,0,36.6,4.5,52.7,12.9h.1c12.8,6.7,24.4,15.8,34,27,1.1,1.3,2.8,1.8,4.4,1.4,1.6-.4,2.8-1.8,3.1-3.4.2-1,.5-2.1.7-3.2.9-3.1,2.1-6.2,3.6-9.2,2.1-4,4.8-7.7,8.1-11,1.5-1.5,3.3-3,5.2-4.5,9.6-7,21.8-10,33.7-8.2.3,1.8.4,3.6.5,5.4.2,6.8-1.1,13.4-3.8,19.6h0ZM189.9,44.4c-.5,6.5-2.7,20.7-11.6,30.4,0,0-.1,0-.2,0-5.4-2.6-11-4.8-16.8-6.6,0,0-.1,0-.2,0-5.5-1.7-11.1-3-16.8-3.9-.4,0-.7-.1-1.1-.2-1.5-.2-3-.4-4.4-.6-.6,0-1.1-.2-1.7-.2-1,0-2-.2-3-.2-3.1-.2-6.2-.4-9.4-.4s-7,.2-10.4.5c11.3-10.1,35.6-25.1,75.6-18.6h0ZM29.9,121.5c2-3,4.1-5.8,6.4-8.5.7-.9,1.5-1.7,2.3-2.5,1.6-1.8,3.1-3.6,4.8-5.3.9-1,2-1.8,3-2.8,1.6-1.5,3.1-3,4.7-4.4,1.1-.9,2.3-1.8,3.4-2.7,1.6-1.3,3.2-2.5,4.9-3.7,1.2-.9,2.5-1.6,3.8-2.4,1.7-1.1,3.3-2.2,5-3.1,1.3-.8,2.7-1.4,4.1-2.1,1.7-.9,3.4-1.8,5.2-2.6,1.4-.7,2.9-1.2,4.4-1.8,1.8-.7,3.5-1.4,5.3-2.1,1.6-.5,3.1-1,4.7-1.5,1.3-.4,2.7-.8,4-1.1,9.1,13.9,13.9,29.9,13.9,46.5s-1.1,15.9-3.3,23.5c-.4-.1-.9-.2-1.3-.2-.4,0-.7-.2-1.1-.3-.5,0-.9-.1-1.4-.2-1.3-.2-2.6-.4-3.9-.6-.5,0-.9-.1-1.4-.2-.4,0-.8,0-1.2,0-1.3,0-2.5-.1-3.8-.1-.6,0-1.1,0-1.7,0-.3,0-.6,0-1,0-1.2,0-2.4.2-3.6.3-.7,0-1.4.1-2.1.2,0,0,0,0-.1,0-.2,0-.4,0-.6,0-1.1.2-2.3.4-3.4.6-.7.1-1.4.3-2,.4-1.4.3-2.7.7-4.1,1.1-.7.2-1.3.4-2,.6-.4.2-.9.3-1.3.5-.5.2-1,.4-1.5.6-.4.2-.9.4-1.3.6-.6.2-1.2.5-1.7.7-.5.2-.9.5-1.3.7-.7.3-1.3.7-2,1.1-.7.4-1.5.8-2.2,1.2-12-8.2-22.4-18.7-30.5-30.6h0ZM92,257.2c-29,0-52.6-23.6-52.6-52.6s8.7-33.9,23.4-43.7c1.5-1,3.1-1.9,4.7-2.8.2-.1.5-.3.7-.4,10.2-5.2,22.1-6.9,33.5-4.8.3,0,.7.1,1,.2,1.8.4,3.5.8,5.3,1.3,12.1,3.8,22.5,12,29.1,22.9,4.6,7.5,7.1,16.1,7.5,25.3,0,.6,0,1.3,0,1.9,0,29-23.6,52.6-52.6,52.6h0ZM152.9,198.5c-.7-7-2.6-13.9-5.6-20.2,10.8-2,21.1-5.4,30.8-10.1,8.9,9.7,11.2,23.9,11.7,30.5-13.1,2.1-25.5,2-36.9-.1h0Z"/>
  <path class="st0" d="M121.5,190.7h-15.6v-15.6c0-2.4-1.9-4.3-4.3-4.3h-19.2c-2.4,0-4.3,1.9-4.3,4.3v15.6h-15.6c-2.4,0-4.3,1.9-4.3,4.3v19.2c0,2.4,1.9,4.3,4.3,4.3h15.6v15.6c0,2.4,1.9,4.3,4.3,4.3h19.2c2.4,0,4.3-1.9,4.3-4.3v-15.6h15.6c2.4,0,4.3-1.9,4.3-4.3v-19.2c0-2.4-1.9-4.3-4.3-4.3ZM117.2,209.8h-15.6c-2.4,0-4.3,1.9-4.3,4.3v15.6h-10.5v-15.6c0-2.4-1.9-4.3-4.3-4.3h-15.6v-10.5h15.6c2.4,0,4.3-1.9,4.3-4.3v-15.6h10.5v15.6c0,2.4,1.9,4.3,4.3,4.3h15.6v10.5Z"/>
</svg>