<?xml version="1.0" encoding="UTF-8"?>
<svg id="Layer_1" data-name="Layer 1" xmlns="http://www.w3.org/2000/svg" viewBox="0 0 300 300">
  <defs>
    <style>
      .cls-1 {
        fill: #0051b1;
      }
    </style>
  </defs>
  <path class="cls-1" d="M114.71852,266.07466h-17.0722c-21.95705,0-39.82008-17.86302-39.82008-39.82008V73.74586c0-21.95705,17.86302-39.82052,39.82008-39.82052h71.15541c1.87831,0,3.40062,1.52231,3.40062,3.40062s-1.52231,3.40062-3.40062,3.40062h-71.15541c-18.20663,0-33.01883,14.8122-33.01883,33.01927v152.50872c0,18.20663,14.8122,33.01883,33.01883,33.01883h17.0722c1.87831,0,3.40062,1.52231,3.40062,3.40062s-1.52231,3.40062-3.40062,3.40062Z"/>
  <path class="cls-1" d="M202.35368,266.07466h-71.70182c-1.87831,0-3.40062-1.52231-3.40062-3.40062s1.52231-3.40062,3.40062-3.40062h71.70182c18.20663,0,33.01883-14.8122,33.01883-33.01883V73.74586c0-18.20707-14.8122-33.01927-33.01883-33.01927h-17.61816c-1.87831,0-3.40062-1.52231-3.40062-3.40062s1.52231-3.40062,3.40062-3.40062h17.61816c21.95705,0,39.82008,17.86346,39.82008,39.82052v152.50872c0,21.95705-17.86302,39.82008-39.82008,39.82008Z"/>
  <path class="cls-1" d="M161.87872,126.50602c-13.13934.00089-26.29728-4.79585-38.21186-14.3517-2.1772-1.74105-4.27691-3.61671-6.23714-5.57118-4.16311-4.14982-4.19499-10.94133-.06996-15.13942,1.93853-1.97706,4.00813-3.86688,6.14769-5.61369.03675-.03011.0735-.05889.11114-.08679,10.95993-8.92265,23.49442-13.84736,36.25562-14.24277,12.82452-.39143,25.60431,3.77921,36.98888,12.07576,4.87069,3.54675,7.80815,9.2574,7.85775,15.2758.05491,6.14016-2.86441,11.96551-7.8086,15.57955-11.01174,8.05921-23.01532,12.07399-35.03352,12.07443ZM127.70598,91.18248c-1.90975,1.56526-3.75707,3.25583-5.49236,5.02566-1.51788,1.54445-1.50858,4.03691.01815,5.55878,1.78533,1.78046,3.69862,3.48918,5.6863,5.0788,10.42903,8.36385,21.57758,12.69611,33.14015,12.88031,10.96082.16029,21.96148-3.55472,31.83879-10.78414,3.181-2.32509,5.05799-6.07463,5.02256-10.0314-.03144-3.87618-1.92348-7.55222-5.06109-9.83702-20.7106-15.09337-45.02551-14.33576-65.04403,2.02399-.03587.02922-.07173.05712-.10848.08502Z"/>
  <path class="cls-1" d="M105.63203,120.27199c-3.18986.00044-6.24688-1.48733-8.266-4.20385-2.83075-3.80843-2.76256-8.87439.16959-12.60622,2.06163-2.61999,2.06074-6.28363-.00133-8.91026-2.93038-3.71988-3.00344-8.78185-.17712-12.59117,2.82898-3.8133,7.69967-5.21296,12.11827-3.48254l17.34496,6.78929c1.30623.47467,2.24052,1.72688,2.24052,3.19694,0,1.87831-1.5201,3.40062-3.39841,3.40062h-.00443c-.42419,0-.8444-.07926-1.23937-.23379l-17.42245-6.81985c-2.36405-.9272-3.79471.68544-4.17728,1.20173-.38124.51408-1.5046,2.34679.06155,4.33447,4.00902,5.10758,4.00769,12.22719.00177,17.31839-1.56748,1.99477-.44058,3.83013-.05756,4.3451.38213.51364,1.81145,2.11831,4.16975,1.19376l17.56104-6.87032c1.74813-.685,3.7212.17889,4.40576,1.92791.68411,1.74902-.17889,3.72165-1.92791,4.40576l-17.55882,6.86944c-1.26284.49504-2.56375.73459-3.84253.73459Z"/>
  <path class="cls-1" d="M176.77062,124.28809c-1.31996,0-2.57526-.77267-3.12787-2.06296-6.126-14.30432-6.13131-32.08587-.01461-46.40524.73769-1.72644,2.736-2.52877,4.46332-1.79153,1.72732.73813,2.52921,2.736,1.79153,4.46332-5.41222,12.66954-5.40779,28.40142.01196,41.05634.73946,1.72644-.0611,3.72519-1.78754,4.46465-.43615.18686-.89045.27542-1.33678.27542Z"/>
  <path class="cls-1" d="M200.26858,194.37328h-100.53672c-11.81097,0-21.41951-9.60854-21.41951-21.41951v-97.12281c0-11.81053,9.60854-21.41906,21.41951-21.41906h100.53672c11.81097,0,21.41951,9.60854,21.41951,21.41906v97.12281c0,11.81097-9.60854,21.41951-21.41951,21.41951ZM99.73186,61.21314c-8.06054,0-14.61826,6.55772-14.61826,14.61782v97.12281c0,8.06054,6.55772,14.61826,14.61826,14.61826h100.53672c8.06054,0,14.61826-6.55772,14.61826-14.61826v-97.12281c0-8.0601-6.55772-14.61782-14.61826-14.61782h-100.53672Z"/>
  <path class="cls-1" d="M105.61344,163.64412h-23.90046c-1.87831,0-3.40062-1.52231-3.40062-3.40062s1.52231-3.40062,3.40062-3.40062h23.90046c14.46815,0,28.9456-3.41789,41.86798-9.88395,13.86862-6.9363,29.39858-10.6026,44.91127-10.6026h25.89478c1.87831,0,3.40062,1.52231,3.40062,3.40062s-1.52231,3.40062-3.40062,3.40062h-25.89478c-14.46195,0-28.93985,3.41789-41.86842,9.88395-13.86153,6.9363-29.39194,10.6026-44.91083,10.6026Z"/>
  <path class="cls-1" d="M150.01727,249.00733c-1.17649,0-2.3676-.09387-3.56534-.28826-12.07222-1.9589-20.29969-13.37446-18.34079-25.44668,1.9589-12.07177,13.37446-20.29792,25.44668-18.34079,12.07222,1.95979,20.29969,13.3749,18.34079,25.44668-1.76496,10.87403-11.20302,18.62905-21.88134,18.62905ZM149.99601,211.44504c-7.40477,0-13.94787,5.37679-15.1713,12.91662-.65799,4.05507.30243,8.12342,2.70412,11.45585s5.95774,5.53,10.01236,6.18799c8.37138,1.35715,16.28536-4.34642,17.64384-12.71692,1.35848-8.36961-4.34642-16.28492-12.71692-17.6434-.82979-.13461-1.65648-.20014-2.47209-.20014Z"/>
  <path class="cls-1" d="M207.39794,249.00334h-8.95011c-7.87944,0-14.29015-6.41071-14.29015-14.29059v-15.77881c0-7.87944,6.41071-14.29015,14.29015-14.29015h8.95011c7.87944,0,14.29015,6.41071,14.29015,14.29015v15.77881c0,7.87988-6.41071,14.29059-14.29015,14.29059ZM198.44783,211.44504c-4.12946,0-7.4889,3.35945-7.4889,7.4889v15.77881c0,4.12946,3.35945,7.48934,7.4889,7.48934h8.95011c4.12946,0,7.4889-3.35989,7.4889-7.48934v-15.77881c0-4.12946-3.35945-7.4889-7.4889-7.4889h-8.95011Z"/>
  <path class="cls-1" d="M101.55261,249.00334h-8.95011c-7.87944,0-14.29015-6.41071-14.29015-14.29059v-15.77881c0-7.87944,6.41071-14.29015,14.29015-14.29015h8.95011c7.87988,0,14.29059,6.41071,14.29059,14.29015v15.77881c0,7.87988-6.41071,14.29059-14.29059,14.29059ZM92.6025,211.44504c-4.12946,0-7.4889,3.35945-7.4889,7.4889v15.77881c0,4.12946,3.35945,7.48934,7.4889,7.48934h8.95011c4.12946,0,7.48934-3.35989,7.48934-7.48934v-15.77881c0-4.12946-3.35989-7.4889-7.48934-7.4889h-8.95011Z"/>
  <path class="cls-1" d="M187.23905,102.41384c-.89311,0-1.77293-.36264-2.40302-.99761-.15896-.15409-.29933-.32634-.42641-.51674-.12221-.18154-.22671-.3808-.30818-.58493-.08634-.20413-.15409-.41711-.19483-.63496-.04561-.22184-.06819-.44412-.06819-.6664s.02258-.44412.06819-.66197c.04074-.21785.10848-.43083.19483-.63496.08147-.20855.18597-.40338.30818-.58935.12708-.18597.26744-.35822.42641-.51674.78861-.78905,1.96333-1.1517,3.06942-.92942.21298.04516.43083.10848.63496.19483.20413.08147.40338.1904.58493.31305.18597.12221.36264.26257.51674.42154.63496.63452.99761,1.50991.99761,2.40302s-.36264,1.77293-.99761,2.40302c-.15409.15896-.33076.29933-.51674.42641-.18154.12221-.3808.22671-.58493.31261-.20413.08192-.42198.14966-.63496.1904-.22228.04561-.44412.06819-.6664.06819Z"/>
</svg>