<?xml version="1.0" encoding="UTF-8"?>
<svg id="Layer_1" data-name="Layer 1" xmlns="http://www.w3.org/2000/svg" viewBox="0 0 300 300">
  <defs>
    <style>
      .cls-1 {
        fill: #0051b1;
      }
    </style>
  </defs>
  <path class="cls-1" d="M32.18903,90.56096c4.3433,0,7.85406-3.51862,7.85406-7.85406v-35.09196l73.90675,76.37292c1.5394,1.59438,3.58931,2.39549,5.64707,2.39549,1.97137,0,3.93489-.73043,5.45857-2.20699,3.11021-3.01596,3.1966-7.98759.18064-11.10564L54.65951,40.13001h32.50797c4.34329,0,7.85406-3.51862,7.85406-7.85406s-3.51076-7.85406-7.85406-7.85406h-50.39953c-.47124-.04712-.92678-.03927-1.39802,0h-3.1809c-4.3433,0-7.85406,3.51862-7.85406,7.85406v50.43095c0,4.33545,3.51077,7.85406,7.85406,7.85406Z"/>
  <path class="cls-1" d="M267.81097,24.42189h-3.16519c-.4791-.03927-.93463-.04712-1.41373,0h-50.39953c-4.34329,0-7.85406,3.51862-7.85406,7.85406s3.51077,7.85407,7.85406,7.85407h32.50797l-70.58447,72.94069c-3.01597,3.11807-2.92956,8.08968.18065,11.10565,1.53154,1.47656,3.49506,2.20699,5.46642,2.20699,2.05776,0,4.09982-.80112,5.64707-2.39549l73.90675-76.37292v35.09196c0,4.33544,3.51077,7.85406,7.85406,7.85406s7.85406-3.51862,7.85406-7.85406v-50.43095c0-4.33544-3.51077-7.85406-7.85406-7.85406Z"/>
  <path class="cls-1" d="M267.81097,209.33012c-4.34329,0-7.85406,3.51862-7.85406,7.85406v35.09196l-73.90675-76.37292c-3.01597-3.11021-7.98759-3.1966-11.10564-.18065-3.11021,3.01597-3.1966,7.98759-.18065,11.10564l70.58447,72.9407h-32.51582c-4.34329-.00785-7.85406,3.51077-7.85406,7.84621s3.51077,7.85406,7.85406,7.85406h50.47807c.23563.02356.45554.14137.69902.14137s.4791-.11781.72257-.14137h3.07879c4.34329,0,7.85406-3.51862,7.85406-7.85406v-50.43096c0-4.33544-3.51077-7.85406-7.85406-7.85406Z"/>
  <path class="cls-1" d="M113.9577,175.89537l-73.9146,76.38078v-35.09196c0-4.33544-3.51077-7.85406-7.85406-7.85406s-7.85406,3.51862-7.85406,7.85406v50.43094c0,4.34329,3.51077,7.85406,7.85406,7.85406h3.07879c.24348.02356.4791.14137.72257.14137.23562,0,.45554-.11781.69116-.14137h50.48593c4.34329,0,7.85406-3.51862,7.85406-7.85406s-3.51076-7.85406-7.85406-7.85406h-32.50797l70.58448-72.9407c3.01596-3.11806,2.92957-8.08969-.18064-11.10564s-8.08969-2.92956-11.10565.18065Z"/>
</svg>