<?xml version="1.0" encoding="UTF-8"?>
<svg id="Layer_1" xmlns="http://www.w3.org/2000/svg" xmlns:svgjs="http://svgjs.dev/svgjs" version="1.1" viewBox="0 0 300 300">
  <!-- Generator: Adobe Illustrator 29.1.0, SVG Export Plug-In . SVG Version: 2.1.0 Build 142)  -->
  <defs>
    <style>
      .st0 {
        fill: #0051b1;
      }
    </style>
  </defs>
  <path class="st0" d="M245.6,95.6c-2.3-34.4-29.9-62-64.3-64.3-2.2-.1-3.8-2-3.7-4.2.1-2.2,2-3.8,4.2-3.7,38.3,2.5,69.2,33.3,71.7,71.7.1,2.2-1.5,4.1-3.7,4.2,0,0-.2,0-.3,0-2.1,0-3.8-1.6-3.9-3.7h0ZM230.1,99.3c.1,0,.2,0,.4,0,2.2-.2,3.8-2.1,3.6-4.3-2.5-27.8-24.4-49.7-52.2-52.2-2.2-.2-4.1,1.4-4.3,3.6-.2,2.2,1.4,4.1,3.6,4.3,23.9,2.1,42.9,21.1,45,45,.2,2.1,1.9,3.6,3.9,3.6ZM182.1,62.3c-2.2-.3-4.2,1.2-4.5,3.4-.3,2.2,1.2,4.2,3.4,4.5,13.3,1.9,23.9,12.5,25.8,25.8.3,2,2,3.4,3.9,3.4s.4,0,.6,0c2.2-.3,3.7-2.3,3.4-4.5-2.4-16.8-15.7-30.1-32.5-32.5ZM81.5,248.2l22.9-56.4c-3.7-2.6-7.2-5.5-10.5-8.8-30.6-30.6-30.6-80.3,0-110.8,6.9-6.9,18.1-9.1,31.5-6.2,12.3,2.7,26.3,9.8,39.4,20,1.7,1.3,2,3.8.7,5.6-1.3,1.7-3.8,2-5.6.7-24.4-19-49.8-25.1-60.4-14.5-10.5,10.5-4.5,34.7,12.7,58l59.5-39.8s0,0,0,0l4.7-3.2c0,0,0-.2,0-.3,0-4.4,3.6-8,8-8s8,3.6,8,8-3.6,8-8,8-.2,0-.3,0l-3.2,4.7s0,0,0,0l-39.8,59.6c9.2,6.9,18.8,12,27.9,15,13.5,4.4,24.2,3.6,30.1-2.4,10.6-10.6,4.5-36-14.5-60.4-1.3-1.7-1-4.2.7-5.6,1.7-1.3,4.2-1,5.6.7,10.1,13,17.2,27,20,39.4,3,13.3.8,24.5-6.2,31.4,0,0,0,0,0,0-15.3,15.3-35.4,22.9-55.4,22.9s-6.5-.2-9.7-.6l4.7,42.9h26.7c7.8,0,14.2,6.4,14.2,14.2v10.3c0,2.2-1.8,4-4,4H50.5c-2.2,0-4-1.8-4-4v-10.3c0-7.8,6.4-14.2,14.2-14.2h20.8ZM170.9,256.1H60.7c-3.5,0-6.3,2.8-6.3,6.3v6.3h122.8v-6.3c0-3.5-2.8-6.3-6.3-6.3ZM117,142c2.6,3.2,5.5,6.3,8.5,9.3,3,3,6.1,5.9,9.3,8.5l36.1-53.9-53.9,36.1ZM99.4,177.4c13.7,13.7,31.8,20.6,49.8,20.6,11,0,22-2.6,32-7.6-4.6-.3-9.5-1.3-14.8-3.1-15.5-5.1-32.1-15.9-46.5-30.4-14.5-14.5-25.3-31-30.4-46.5-1.7-5.2-2.7-10.2-3.1-14.8-13.4,26.5-9.1,59.7,13,81.8ZM90,248.2h46.2l-4.8-44.3c-7-1.6-13.8-4.2-20.2-7.8l-21.1,52.1Z"/>
  <path class="st0" d="M181.2,277.6H50.5c-2.7,0-5-2.2-5-5v-10.3c0-8.4,6.8-15.2,15.2-15.2h20.1l22.3-55c-3.6-2.5-6.9-5.4-10-8.5-30.9-30.9-30.9-81.3,0-112.3,7.2-7.2,18.7-9.5,32.4-6.4,12.5,2.8,26.6,9.9,39.8,20.2,1,.8,1.7,2,1.9,3.3s-.2,2.6-1,3.7c-1.7,2.2-4.8,2.6-7,.9-24-18.7-48.8-24.8-59.1-14.5-9.7,9.7-4.7,32.7,12.2,55.9l63-42.2c.1-4.9,4.1-8.8,9-8.8s9,4,9,9-3.9,8.9-8.8,9l-42.2,63.1c8.9,6.5,18.2,11.5,26.8,14.3,13.1,4.3,23.4,3.6,29.1-2.1,10.2-10.2,4.1-35.1-14.5-59.1-.8-1-1.2-2.3-1-3.7.2-1.3.8-2.5,1.9-3.3,1-.8,2.3-1.2,3.7-1,1.3.2,2.5.8,3.3,1.9,10.2,13.2,17.4,27.3,20.2,39.8,3,13.7.8,25.1-6.4,32.3h0c-15,15-34.9,23.3-56.1,23.3s-5.7-.2-8.6-.5l4.4,40.7h25.8c8.4,0,15.2,6.8,15.2,15.2v10.2c0,2.7-2.2,5-5,5ZM60.7,249.2c-7.3,0-13.2,5.9-13.2,13.2v10.3c0,1.6,1.3,3,3,3h130.7c1.6,0,3-1.3,3-3v-10.2c0-7.3-5.9-13.2-13.2-13.2h-27.6l-4.9-45,1.3.2c3.2.4,6.4.6,9.6.6,20.7,0,40.1-8,54.7-22.6h0c6.7-6.8,8.8-17.6,5.9-30.6-2.7-12.2-9.7-26.1-19.8-39-.5-.6-1.2-1-2-1.1-.8-.1-1.6.1-2.2.6-.6.5-1,1.2-1.1,2,0,.8.1,1.6.6,2.2,19.3,24.8,25.3,50.8,14.4,61.7-6.3,6.3-17.3,7.2-31.2,2.6-9.1-3-18.8-8.2-28.2-15.2l-.8-.6,43.9-65.6h.8c3.9,0,7-3.1,7-7s-3.2-7-7-7-7,3.2-7,7v.8s-5.2,3.5-5.2,3.5l-60.3,40.4-.6-.8c-18-24.3-23.1-48.7-12.6-59.3,10.9-10.9,36.9-4.9,61.7,14.4,1.3,1,3.2.8,4.1-.5.5-.6.7-1.4.6-2.2s-.5-1.5-1.1-2c-12.9-10.1-26.8-17.1-39-19.8-13-2.9-23.8-.8-30.5,5.9-30.2,30.2-30.2,79.3,0,109.4s6.7,6.1,10.4,8.7l.7.5-23.4,57.7h-21.4ZM178.2,269.7H53.4v-7.3c0-4,3.3-7.3,7.3-7.3h110.2c4,0,7.3,3.3,7.3,7.3v7.3ZM55.4,267.7h120.8v-5.3c0-2.9-2.4-5.3-5.3-5.3H60.7c-2.9,0-5.3,2.4-5.3,5.3v5.3ZM137.4,249.2h-48.8l22.1-54.5,1,.5c6.3,3.5,13,6.1,20,7.7l.7.2,5,46.1ZM91.5,247.2h43.6l-4.6-42.5c-6.6-1.6-12.9-4-18.8-7.2l-20.2,49.7ZM149.3,199h0c-19.1,0-37.1-7.4-50.5-20.9-21.9-21.9-27.2-55.3-13.2-83l1.6-3.2.3,3.6c.3,4.5,1.3,9.4,3,14.5,5.1,15.4,15.8,31.8,30.2,46.1s30.8,25.1,46.1,30.2c5.1,1.7,10,2.7,14.5,3l3.6.3-3.2,1.6c-10,5.1-21.2,7.8-32.4,7.8ZM85.9,99.2c-11.7,26.2-6.2,57,14.3,77.5s30.5,20.3,49.1,20.3h0c9.8,0,19.5-2.1,28.4-6-3.7-.5-7.5-1.4-11.5-2.7-15.7-5.2-32.3-16.1-46.9-30.6s-25.5-31.3-30.6-46.9c-1.3-4-2.2-7.8-2.7-11.5ZM135.1,161.3l-.9-.7c-3.2-2.7-6.4-5.6-9.4-8.6s-5.9-6.2-8.6-9.4l-.7-.9,59-39.5-39.5,59.1ZM118.5,142.2c2.5,2.9,5.1,5.7,7.7,8.4s5.5,5.3,8.4,7.8l32.7-48.8-48.8,32.7ZM249.5,100.3c-2.6,0-4.8-2-4.9-4.6h0c-2.2-33.9-29.5-61.1-63.4-63.4-2.7-.2-4.8-2.5-4.6-5.3.2-2.7,2.6-4.8,5.3-4.6,38.8,2.5,70.1,33.8,72.6,72.6.2,2.7-1.9,5.1-4.6,5.3-.1,0-.2,0-.3,0ZM181.5,24.4c-1.5,0-2.8,1.2-2.9,2.8-.1,1.6,1.1,3,2.8,3.1,34.9,2.3,62.9,30.3,65.2,65.2h0c.1,1.6,1.5,2.9,3.1,2.8,1.6-.1,2.9-1.5,2.8-3.1-2.5-37.9-32.9-68.3-70.7-70.7,0,0-.1,0-.2,0ZM230.1,100.3c-2.6,0-4.7-1.9-4.9-4.5-2.1-23.5-20.6-42-44.1-44.1-2.7-.2-4.7-2.7-4.5-5.4.2-2.7,2.7-4.7,5.4-4.5,28.2,2.5,50.6,24.9,53.1,53.1.1,1.3-.3,2.6-1.1,3.6-.8,1-2,1.6-3.4,1.8-.2,0-.3,0-.4,0ZM181.5,43.8c-1.5,0-2.8,1.2-2.9,2.7,0,.8.2,1.6.7,2.2.5.6,1.2,1,2,1,24.4,2.2,43.7,21.5,45.9,45.9.1,1.6,1.5,2.8,3.2,2.7.8,0,1.5-.4,2-1,.5-.6.7-1.4.7-2.2-2.4-27.3-24-48.8-51.3-51.3,0,0-.2,0-.3,0ZM210.7,100.3c-2.5,0-4.6-1.8-4.9-4.3-1.8-12.9-12.1-23.1-24.9-24.9-2.7-.4-4.6-2.9-4.2-5.6.4-2.7,2.9-4.6,5.6-4.2h0c17.2,2.4,30.9,16.1,33.4,33.4.2,1.3-.2,2.6-.9,3.7-.8,1.1-2,1.7-3.3,1.9-.2,0-.5,0-.7,0ZM181.5,63.2c-1.4,0-2.7,1.1-2.9,2.5-.2,1.6.9,3.1,2.5,3.3,13.7,1.9,24.7,12.9,26.6,26.6.2,1.6,1.7,2.7,3.3,2.5.8-.1,1.5-.5,1.9-1.2.5-.6.7-1.4.6-2.2-2.3-16.3-15.3-29.3-31.7-31.7-.1,0-.3,0-.4,0Z"/>
</svg>