<?xml version="1.0" encoding="UTF-8"?>
<svg id="Layer_1" xmlns="http://www.w3.org/2000/svg" xmlns:svgjs="http://svgjs.dev/svgjs" version="1.1" viewBox="0 0 300 300">
  <!-- Generator: Adobe Illustrator 29.1.0, SVG Export Plug-In . SVG Version: 2.1.0 Build 142)  -->
  <defs>
    <style>
      .st0 {
        fill: #0051b1;
      }
    </style>
  </defs>
  <path class="st0" d="M134.8,194.2v-69.7c0-5.5-4.4-9.9-9.9-9.9h0c-5.5,0-9.9,4.4-9.9,9.9v69.7c-11.5,4.1-19.8,15-19.8,27.9s13.3,29.6,29.6,29.6,29.6-13.3,29.6-29.6-8.2-23.9-19.8-27.9Z"/>
  <path class="st0" d="M124.9,278.5c-31.1,0-56.4-25.3-56.4-56.4s7.3-32.2,19.8-42.9V58.1c0-20.2,16.4-36.6,36.6-36.6s36.6,16.4,36.6,36.6v121.1c12.4,10.7,19.8,26.4,19.8,42.9,0,31.1-25.3,56.4-56.4,56.4ZM124.9,35.5c-12.5,0-22.6,10.2-22.6,22.6v124.5c0,2.2-1,4.3-2.8,5.6-10.6,8-17,20.7-17,33.9,0,23.4,19,42.4,42.4,42.4s42.4-19,42.4-42.4-6.3-25.9-17-33.9c-1.8-1.3-2.8-3.4-2.8-5.6V58.1c0-12.5-10.2-22.6-22.6-22.6Z"/>
  <path class="st0" d="M74.9,59.2h-19.8c-3.9,0-7-3.1-7-7s3.1-7,7-7h19.8c3.9,0,7,3.1,7,7s-3.1,7-7,7Z"/>
  <path class="st0" d="M74.9,86.5h-19.8c-3.9,0-7-3.1-7-7s3.1-7,7-7h19.8c3.9,0,7,3.1,7,7s-3.1,7-7,7Z"/>
  <path class="st0" d="M74.9,113.8h-19.8c-3.9,0-7-3.1-7-7s3.1-7,7-7h19.8c3.9,0,7,3.1,7,7s-3.1,7-7,7Z"/>
  <path class="st0" d="M74.9,141.2h-19.8c-3.9,0-7-3.1-7-7s3.1-7,7-7h19.8c3.9,0,7,3.1,7,7s-3.1,7-7,7Z"/>
  <path class="st0" d="M74.9,168.5h-19.8c-3.9,0-7-3.1-7-7s3.1-7,7-7h19.8c3.9,0,7,3.1,7,7s-3.1,7-7,7Z"/>
  <path class="st0" d="M182.7,55.3c-9.3,0-16.9-7.6-16.9-16.9s7.6-16.9,16.9-16.9,16.9,7.6,16.9,16.9-7.6,16.9-16.9,16.9ZM182.7,35.5c-1.6,0-2.9,1.3-2.9,2.9s1.3,2.9,2.9,2.9,2.9-1.3,2.9-2.9-1.3-2.9-2.9-2.9Z"/>
  <path class="st0" d="M231,96.6c-17.7,0-32.2-14.4-32.2-32.2s14.4-32.2,32.2-32.2,12.4,1.8,17.7,5.3c3.2,2.1,4.1,6.5,2,9.7-2.1,3.2-6.5,4.1-9.7,2-3-1.9-6.4-3-10-3-10,0-18.2,8.1-18.2,18.2s8.1,18.2,18.2,18.2,6.8-1.1,9.2-3.2c2.9-2.6,7.3-2.3,9.9.6,2.6,2.9,2.3,7.3-.6,9.9-5,4.4-11.4,6.8-18.5,6.8Z"/>
</svg>