<?xml version="1.0" encoding="UTF-8"?>
<svg id="Layer_1" data-name="Layer 1" xmlns="http://www.w3.org/2000/svg" viewBox="0 0 300 300">
  <defs>
    <style>
      .cls-1 {
        fill: #0051b1;
      }
    </style>
  </defs>
  <path class="cls-1" d="M276.37686,134.89648h-52.8789c10.27022-2.03045,22.11595-3.47115,24.72213-14.90967,2.49103-10.7982-.2359-13.92673-3.50205-16.41776-1.4744-1.12335-2.02765-1.5446-1.36768-4.84164.50832-2.54439,1.98833-3.13134,5.28818-4.21537,4.96239-1.62886,11.75304-3.86152,11.67441-17.41473.24713-8.46163-3.92612-13.74419-11.02569-12.22766,5.14494-10.42469,5.99027-22.86017-3.47396-27.14575-9.31819-4.52429-17.93709,4.13393-22.15808,14.98549-3.44306-6.35816-10.15508-6.26548-16.23521-.41283-9.93604,8.82391-7.11641,15.54154-5.0607,20.44497,1.40419,3.34758,1.96024,4.91466.42126,7.00409-.82004,1.10931-1.39296,1.69907-1.92373,1.99676,1.59797-3.87837,2.8168-9.30695-4.23785-16.23802-4.60293-4.87815-10.13823-5.63641-13.44369-.84251-3.03586-9.22551-10.53983-16.01055-17.86407-12.46919-7.53206,2.99935-8.09935,13.72172-4.14517,22.41645-5.82176-.91553-9.00646,3.55821-9.08509,10.47243-.49989,11.66318,5.38365,13.87057,9.27607,15.33373,2.62583.98574,3.54979,1.42104,3.84186,3.27737.39598,2.54158.05056,2.79433-1.08965,3.62842-2.84489,2.08382-5.25166,4.72649-3.50485,14.06153,1.81702,9.92199,11.49748,11.48064,19.98159,13.51109h-70.23746c10.27023-2.03045,22.11595-3.47115,24.72213-14.90967,2.49103-10.7982-.2359-13.92673-3.50205-16.41776-1.4744-1.12335-2.02765-1.5446-1.36768-4.84164.50832-2.54439,1.98833-3.13134,5.28817-4.21537,4.96239-1.62886,11.75305-3.86152,11.67442-17.41473.24714-8.46163-3.9261-13.74419-11.02568-12.22766,5.14494-10.42469,5.99026-22.86017-3.47396-27.14575-9.321-4.52429-17.93709,4.13393-22.15808,14.98549-3.44307-6.35816-10.15509-6.26267-16.23522-.41283-9.93603,8.82391-7.11642,15.54154-5.06069,20.44497,1.40419,3.34758,1.96025,4.91466.42126,7.00409-.82004,1.10931-1.39295,1.69626-1.92374,1.99676,1.59797-3.87837,2.8168-9.30695-4.24065-16.23802-4.60012-4.87815-10.13823-5.63641-13.44369-.84251-3.03024-9.23113-10.57353-16.01335-17.89496-12.46638-7.52364,3.00777-8.06284,13.72172-4.11427,22.41364-5.81895-.91553-9.00646,3.55821-9.08509,10.47243-.49989,11.66037,5.37523,13.86775,9.26483,15.33092,2.61741.98293,3.53574,1.41823,3.82501,3.28579.4016,2.54158.05898,2.79433-1.0728,3.62561-2.83927,2.08382-5.24043,4.72931-3.49362,14.05873,1.81702,9.92199,11.49468,11.47782,19.97316,13.51109H23.62312c-1.55303,0-2.80837,1.25816-2.80837,2.80837v17.81632c0,1.55022,1.25534,2.80837,2.80837,2.80837h4.93993v79.90668c0,13.93515,11.33741,25.27537,25.27537,25.27537h192.32314c13.93796,0,25.27537-11.34022,25.27537-25.27537v-79.90669h4.93994c1.55304,0,2.80837-1.25816,2.80837-2.80837v-17.81632c0-1.55022-1.25534-2.80837-2.80837-2.80837l-.00002.00562ZM207.30487,83.08196c7.38602-11.31494-9.04858-15.80272,3.84185-26.58127,3.33636-2.96003,4.97364-3.10606,5.51564-3.0162,2.78871,1.01382,3.16504,6.50701,7.24561,6.17842,2.48542-.17131,3.97947-2.50226,5.72347-6.46207,3.151-7.40568,8.37458-13.04209,13.98291-10.30674,5.2966,2.78029,4.68156,10.44996,1.35084,17.70118-1.74401,3.95419-2.45733,6.63057-.94361,8.60767,1.47721,1.92935,3.85029,1.56707,5.58305,1.30028,4.18728-.71613,4.74616.09549,5.09159,6.63057.05335,9.4558-3.4178,10.596-7.81009,12.04231-3.51047,1.15143-7.87749,2.58651-9.04297,8.45321-1.24411,6.21493.92958,8.47006,3.46834,10.40503,1.70469,1.30028,3.31669,2.53035,1.43789,10.68587-1.56426,6.72606-7.89714,8.26786-18.09997,10.23091-5.52127,1.06156-11.67721,2.25231-17.21533,4.97082,1.38452-2.93475,2.83085-6.10541,4.29962-9.41648,2.07538-3.03866,8.40546-10.30392,14.21037-9.46422,1.54181.21905,2.96003-.84532,3.17909-2.3815.0337-5.78245-9.00085-2.76064-11.82887-1.01102,2.58651-6.11664,5.10001-12.22205,7.3467-17.76016,1.99956-2.92633,6.55755-10.02871,12.14902-9.92199,1.49966.05898,2.86453-1.12616,2.93475-2.67638-.30892-4.87253-6.9423-2.65953-9.5906-1.13458,1.96024-4.9624,3.17907-8.1162,3.22402-8.23415.55605-1.44631-.16569-3.07236-1.612-3.62842-1.4407-.55325-3.07237.16008-3.63123,1.61201-.04212.10672-1.06998,2.76906-2.74939,7.03217-.92677-2.61179-3.92892-7.55172-7.05464-4.59731-1.05314,1.13739-.98293,2.91509.15727,3.96823,3.17626,2.93475,2.65391,9.44175,1.9125,13.13196-2.36185,5.85546-5.08034,12.49446-7.89714,19.16435-.72738-3.16223-4.12831-11.1015-8.30156-7.49836-1.02786,1.16267-.91835,2.93756.24152,3.96542,4.43162,3.92049,3.13695,13.46897,2.21301,17.07491-1.81983,4.10303-3.60033,7.9814-5.27132,11.45255-1.29185-7.22595-4.94836-13.72172-8.25944-19.55191-5.28817-9.30695-8.32964-15.30003-4.42319-20.95047,4.65348-6.73729,6.46207-6.31884,8.57396-5.83861,3.01619.69647,6.2683.95204,10.05118-4.17605h-.00285ZM166.12849,120.35752c-1.24411-6.63619-.00842-7.5433,1.30028-8.50095,2.1456-1.57269,4.16763-3.56383,3.3195-9.03173-.82285-5.18988-4.63101-6.61934-7.41691-7.66406-3.46273-1.30028-5.96499-2.23828-5.63921-9.83212.17131-3.98227,1.08404-4.8978,1.26658-5.04103,2.19053-.68244,5.29378,1.65975,7.48432-.99978,1.46878-1.76085.96609-4.14797-.39878-7.66967-4.51868-11.76428,1.12054-14.1177,1.3087-14.19353.16851-.05617.32858-.12918.48304-.21624,3.90364-1.18514,6.88613,1.62605,9.87144,8.89693,1.13177,2.94879,2.36184,5.61675,4.895,5.88074,3.59472.38194,4.07776-3.81097,6.18965-4.97925.1011-.01685,1.28062-.05055,3.89241,2.50788,5.43981,5.35557,3.92892,7.92243,2.20458,11.88785-2.86173.19378-6.04643,1.89284-10.16912,7.577l-3.53855-9.39401c-1.35645-3.42903-6.50138-1.49687-5.25446,1.9799l3.12291,8.29313c-3.65932-1.85915-6.45926-1.76647-6.63338-1.75804-3.57506.19939-3.44025,5.63079.22186,5.61394.07021-.04212,4.25469.02808,8.67788,5.03541.0674,6.69797,4.47374,13.71891,8.06565,20.12762-3.30827-2.05573-6.64462-3.00777-8.94468-3.2212-3.65089-.25275-4.1901,5.14775-.53359,5.59148.45215.04774,10.64374,1.26377,14.1514,12.46357-4.47936-2.46294-9.46703-3.65089-13.96885-4.70122-8.2482-1.92655-12.96064-3.27737-13.96043-8.65261h.00277ZM94.15546,83.08196c7.38602-11.31494-9.04858-15.80272,3.84186-26.58127,3.33635-2.96003,4.97364-3.10606,5.51564-3.0162,2.80557,1.01944,3.13696,6.5042,7.24561,6.17842,2.48541-.17131,3.97947-2.50226,5.72347-6.46207,3.151-7.40568,8.37457-13.04209,13.9829-10.30674,5.2966,2.78029,4.68156,10.44996,1.35083,17.70118-1.744,3.95419-2.45733,6.63057-.94361,8.60767,1.47721,1.92935,3.85028,1.56707,5.58305,1.30028,4.18729-.71613,4.74615.09549,5.09158,6.63057.05336,9.4558-3.41779,10.596-7.81009,12.04231-3.51047,1.15143-7.87749,2.58651-9.04297,8.45321-1.24411,6.21493.92958,8.47006,3.46834,10.40503,1.70468,1.30028,3.31669,2.53035,1.43789,10.68587-1.56426,6.72606-7.89715,8.26786-18.09997,10.23091-5.52126,1.06156-11.67723,2.25231-17.21534,4.97082,1.38734-2.94037,2.83646-6.11664,4.31085-9.43614,2.0782-3.04708,8.32402-10.25899,14.19914-9.44456,1.54741.21905,2.96003-.84532,3.17908-2.3815.0337-5.77682-8.99242-2.77186-11.82045-1.02506,2.58652-6.11384,5.10001-12.21643,7.3439-17.75173,1.98552-2.92633,6.63057-10.04556,12.14622-9.91637,1.57831.05898,2.86454-1.12616,2.93475-2.67638-.30049-4.85568-6.95072-2.682-9.56814-1.17952,1.94901-4.93712,3.16223-8.07408,3.20716-8.18922.55606-1.44631-.16569-3.07236-1.61201-3.62842-1.4407-.55325-3.07237.16008-3.63123,1.61201-.04212.10672-1.06999,2.77186-2.7494,7.03498-.92677-2.61179-3.9261-7.55453-7.05745-4.60012-1.05314,1.13739-.98293,2.91509.15727,3.96823,3.17908,2.94037,2.65391,9.4558,1.9097,13.14319-2.36184,5.85265-5.08036,12.48884-7.89434,19.15593-.72737-3.16504-4.12831-11.10712-8.30437-7.50398-1.02786,1.16267-.91834,2.93756.24152,3.96542,4.43443,3.9233,3.13414,13.49143,2.21019,17.08896-1.81983,4.09742-3.59753,7.97017-5.2657,11.43852-1.29185-7.22594-4.94835-13.72172-8.25943-19.5519-5.28817-9.30695-8.32964-15.30003-4.42319-20.95047,4.65348-6.73729,6.46207-6.31884,8.57397-5.83861,3.01339.69647,6.26829.95204,10.05117-4.17605l-.00842.0028ZM52.97907,120.35752c-1.24411-6.63619-.01123-7.54049,1.29466-8.50095,2.14279-1.57269,4.1592-3.56664,3.29703-9.0205-.80601-5.19549-4.61697-6.62777-7.39726-7.67248-3.45711-1.30028-5.95656-2.24108-5.63079-9.83212.17131-3.98227,1.08403-4.8978,1.26658-5.04103,2.19334-.68244,5.29098,1.65975,7.48432-.99978,1.46878-1.76085.96608-4.14797-.39879-7.66967-4.51868-11.76709,1.09807-14.12051,1.28062-14.19353.16569-.05617.32296-.12638.47742-.21344,3.91487-1.19075,6.92264,1.62043,9.90233,8.89412,1.13177,2.94879,2.36184,5.61675,4.895,5.88074,3.59753.38194,4.07495-3.81097,6.18966-4.97925.10391-.01685,1.28062-.05055,3.89241,2.50788,5.43702,5.35557,3.92892,7.92243,2.20457,11.88785-2.86174.19378-6.04643,1.89284-10.17193,7.5798l-3.53855-9.39682c-1.35083-3.42903-6.50139-1.49686-5.25447,1.9799l3.12291,8.29032c-3.6537-1.85633-6.45083-1.76366-6.63057-1.75804-3.63685.26399-3.39252,5.55777.22186,5.61394.13761-.04212,4.26311.02808,8.68069,5.03823.0674,6.52666,4.23784,13.33416,7.7792,19.61931-3.79411-1.73558-10.86279-5.04946-11.71373-.17131-.13761,1.5418.99978,2.90386,2.54158,3.04989.50832.04774,12.27259,1.31713,15.55559,13.32012-4.82479-3.06394-10.41345-4.3951-15.40113-5.56058-8.24258-1.92935-12.95222-3.28018-13.95201-8.65261l.0028.00002ZM265.82019,238.23623c0,10.84033-8.8211,19.65862-19.65862,19.65862H53.83844c-10.83752,0-19.65862-8.8183-19.65862-19.65862v-79.90669h6.66989v19.55472c-.01123.03651-.01123.07021,0,.10953v56.0327c0,9.39121,6.09417,17.0328,13.58411,17.0328h191.13517c7.48994,0,13.5841-7.64159,13.5841-17.0328v-44.79919c.01123-.03651.01123-.07021,0-.10953v-30.78822h6.66989v79.90668h-.00279ZM225.55372,190.61742h-28.9712l-5.47071-32.28789h39.91542l-5.47071,32.28789h-.00281ZM216.13725,205.37262c-4.76581-.22748-6.42276-5.25167-6.44241-9.14125h7.74551c.03932,2.29725-.15446,5.83862-1.3031,9.14125ZM91.31341,205.37262c-4.763-.22748-6.42276-5.25167-6.44241-9.14125h7.74269c.03932,2.29725-.15446,5.83862-1.30309,9.14125h.00281ZM74.44631,190.61742l-5.47071-32.28789h39.91543l-5.47072,32.28789h-28.974ZM114.58641,158.32953h70.82721l4.01317,23.68583c-10.3629,6.29357-28.50501,5.4679-38.14335-.94643-9.56814-6.35255-28.46288-8.23696-40.12887-2.4826l3.43185-20.2568ZM63.2774,158.32953l3.94296,23.25895c-5.8021-3.00777-10.61847-5.82457-20.75108-6.36377v-16.89518h16.81093-.00281ZM46.46647,180.84146c10.60723.60941,14.32552,4.13112,21.90532,7.54891l.93238,5.50442c.23029,1.35084,1.39857,2.33938,2.76906,2.33938h7.1754c.00843.34263.03089.71051.05617,1.08965-.18255.37914-.30611.78915-.30611,1.23288.00562.74422-.27803,4.51306-6.29918,5.57463-9.0879,1.60358-10.96389,10.21126-10.68587,14.53896.30611,3.68177,5.77964,3.32511,5.60552-.36227-.01966-.30612-.41002-7.50397,6.05486-8.64419,3.8222-.674,6.39186-2.24671,8.0797-4.07777,1.49687,2.39553,3.76884,4.09742,6.49858,4.86973-1.42946,1.41822-3.28861,2.48261-5.77402,2.85892-8.81549,1.10088-10.01186,9.995-8.79583,14.06996.96608,3.56101,6.24864,2.2102,5.45106-1.35364-.64592-2.58651-.04494-6.83558,4.18728-7.16417,4.52429-.68806,7.75112-2.8168,10.03432-5.63359,1.73838,2.06416,3.65089,5.17023,4.96801,8.03757.47462,1.02786,1.49124,1.63728,2.55562,1.63728,1.98833.03932,3.42622-2.1793,2.55001-3.97947-.95204-2.07538-3.61157-7.41411-7.13889-10.7645,1.56707-3.94296,2.05292-8.30437,1.9771-11.92717h7.52083c1.37048,0,2.53877-.98854,2.76906-2.33938l1.4407-8.50376c10.43311-6.53789,28.71282-5.93972,38.65728.64592,10.19721,6.77099,30.05523,8.22572,41.74649,1.75804l1.03347,6.09979c.23029,1.35084,1.39857,2.33938,2.76906,2.33938h9.86302c.01123.34263.0309.71051.05616,1.08965-.18255.37914-.30612.78915-.30612,1.23288.00561.74422-.27803,4.51306-6.2992,5.57463-9.0879,1.60358-10.96389,10.21126-10.68587,14.53896.30612,3.68177,5.77963,3.32511,5.60552-.36227-.01967-.30612-.41003-7.50397,6.05485-8.64419,3.8222-.674,6.39186-2.24671,8.07969-4.07777,1.49686,2.39553,3.76885,4.09742,6.49859,4.86973-1.42947,1.41822-3.2886,2.48261-5.77402,2.85892-8.81549,1.10088-10.01186,9.995-8.79582,14.06996.96609,3.56101,6.24863,2.2102,5.45106-1.35364-.64594-2.58651-.04493-6.83558,4.18728-7.16417,4.52429-.68806,7.75112-2.8168,10.03432-5.63359,1.73839,2.06416,3.6509,5.17023,4.96801,8.03757.47461,1.02786,1.49124,1.63728,2.55563,1.63728,1.98833.03932,3.42622-2.1793,2.55-3.97947-.95203-2.07538-3.61158-7.41411-7.13889-10.7645,1.56707-3.94296,2.05293-8.30437,1.9771-11.92717h4.83321c1.37048,0,2.53877-.98854,2.76906-2.33938l1.47159-8.6863c6.2037,3.19593,10.86561,6.09979,21.36612,6.67551v42.14246c0,6.18966-3.64809,11.41605-7.96735,11.41605H54.43383c-4.31928,0-7.96736-5.22639-7.96736-11.41605v-53.19063ZM253.53357,186.27005c-9.87144-.58976-13.7105-3.58349-20.386-6.84962l3.57507-21.09371h16.81093v27.94333ZM273.56852,152.71277h-16.78565c-.89868-.17131-212.63328-.17131-213.56847,0h-16.78566v-12.19957h247.13699v12.19959h.00279Z"/>
  <path class="cls-1" d="M88.93188,163.67952c-1.55303,0-2.80837,1.25816-2.80837,2.80837v14.32833c0,1.55022,1.25534,2.80837,2.80837,2.80837s2.80837-1.25816,2.80837-2.80837v-14.32833c0-1.55022-1.25534-2.80837-2.80837-2.80837Z"/>
  <path class="cls-1" d="M101.08372,163.72164c-1.55865-.26961-2.9853.75546-3.2521,2.2804l-2.51068,14.32833c-.26679,1.52775.75545,2.98249,2.2804,3.24929,1.49405.27241,2.99092-.74422,3.2521-2.28321l2.51069-14.32833c.2668-1.52775-.75546-2.98249-2.2804-3.24929v.00281Z"/>
  <path class="cls-1" d="M76.78004,163.72164c-1.52776.2668-2.54719,1.72153-2.2804,3.24929l2.51068,14.32833c.26118,1.53618,1.76085,2.55281,3.2521,2.2804,1.52776-.2668,2.54719-1.72153,2.2804-3.24929l-2.51068-14.32833c-.26961-1.52495-1.69907-2.55001-3.2521-2.2804Z"/>
  <path class="cls-1" d="M211.06811,183.62179c1.55304,0,2.80837-1.25816,2.80837-2.80837v-14.32833c0-1.55022-1.25534-2.80837-2.80837-2.80837s-2.80837,1.25816-2.80837,2.80837v14.32833c0,1.55022,1.25534,2.80837,2.80837,2.80837Z"/>
  <path class="cls-1" d="M201.90719,183.62179c1.72153.01685,3.08359-1.59516,2.76906-3.29142l-2.51068-14.32833c-.68242-3.61718-6.11103-2.68762-5.53531.96889l2.51068,14.32833c.23871,1.36487,1.42666,2.32533,2.76344,2.32533l.00281-.00281Z"/>
  <path class="cls-1" d="M219.74036,183.57967c1.49405.27241,2.99093-.74422,3.25209-2.28321l2.51068-14.32833c.2668-1.52775-.75544-2.98249-2.28039-3.24929-1.55023-.26961-2.98531.75546-3.25209,2.2804l-2.51068,14.32833c-.2668,1.52775.75544,2.98249,2.28039,3.24929v.00281Z"/>
</svg>