<?xml version="1.0" encoding="UTF-8"?>
<svg id="Layer_1" xmlns="http://www.w3.org/2000/svg" xmlns:svgjs="http://svgjs.dev/svgjs" version="1.1" viewBox="0 0 300 300">
  <!-- Generator: Adobe Illustrator 29.1.0, SVG Export Plug-In . SVG Version: 2.1.0 Build 142)  -->
  <defs>
    <style>
      .st0 {
        fill: #0051b1;
      }
    </style>
  </defs>
  <path class="st0" d="M280.9,189.1h-15.7v-24.4c0-8.7-7.1-15.8-15.9-15.8h-6.4c-2.2,0-4,1.8-4,4v9.2c0,.2-.2.3-.3.3h-14.9v-19.9l13.7-9.3c5.6,2.1,10.9,3.1,15.8,3.1s10-1.2,14.1-3.7c8.1-5,13.1-14.5,14.3-27.6.2-2.1.6-4.3-.8-6.1-1.2-1.6-3.2-2-5.1-2.6-12.7-3.8-23.4-2.8-31.1,3-7.3,5.5-11.3,14.9-11.6,27.4l-9.3,6.3v-29.1c12.3-8.8,15.3-17.9,15.6-24,.4-9.2-4.5-18.3-14.4-26.3-1.6-1.3-3.1-2.8-5.3-2.7-2,0-3.5,1.5-4.9,2.7-9.9,8-14.8,17.1-14.4,26.3.3,6.2,3.3,15.2,15.6,24v29.1l-9.3-6.3c-.4-15.7-6.5-23.5-11.6-27.4-7.7-5.7-18.4-6.8-31.1-3-1.8.5-3.9.9-5.1,2.6-1.4,1.8-1,4-.8,6.1,1.2,13.1,6.1,22.7,14.3,27.6,4.1,2.5,8.8,3.7,14.1,3.7s10.1-1,15.8-3.1l13.7,9.3v19.9h-15c-.2,0-.3-.2-.3-.3v-9.2c0-2.2-1.8-4-4-4h-35.6c-2.2,0-4,1.8-4,4s1.8,4,4,4h31.7v5.2c0,4.5,3.7,8.2,8.2,8.2h15v12c-5.9-1.4-23.5-4.8-44.5.5,0,0-.1,0-.2,0,0,0-8.6,2.6-21.1,2.6-12.5,0-21-2.5-21.1-2.6,0,0-.1,0-.2,0-21-5.3-38.6-1.9-44.5-.5v-12h15c4.5,0,8.2-3.7,8.2-8.2v-5.2h35.2c2.2,0,4-1.8,4-4s-1.8-4-4-4h-39.1c-2.2,0-4,1.8-4,4v9.2c0,.2-.2.3-.3.3h-15v-20l13.7-9.3c5.6,2.1,10.9,3.1,15.8,3.1s10-1.2,14.1-3.7c8.1-5,13.1-14.5,14.3-27.6.2-2.1.6-4.3-.8-6.1-1.2-1.6-3.2-2-5.1-2.6-12.7-3.8-23.4-2.8-31.1,3-7.3,5.5-11.3,14.9-11.6,27.4l-9.3,6.3v-29.1c12.3-8.8,15.3-17.9,15.6-24,.4-9.2-4.5-18.3-14.4-26.3-1.6-1.3-3.1-2.7-5.2-2.7-2.1,0-3.5,1.5-5,2.7-9.9,8-14.8,17.1-14.4,26.3.3,6.2,3.3,15.2,15.6,24v29.1l-9.3-6.3c-.4-15.7-6.5-23.5-11.6-27.4-7.7-5.7-18.4-6.8-31.1-3-1.8.5-3.8.9-5,2.5-1.4,1.8-1.1,4-.9,6.2,1.2,13.1,6.1,22.7,14.3,27.6,4.1,2.5,8.8,3.7,14.1,3.7,4.8,0,10.1-1,15.8-3.1l13.7,9.3v19.9h-14.9c-.2,0-.3-.1-.3-.3v-9.2c0-2.2-1.8-4-4-4h-6.4c-8.7,0-15.8,7.1-15.8,15.8v24.4h-15.7c-2.2,0-4,1.8-4,4v21.2c0,2.2,1.8,4,4,4h15.7v15.3c0,8.7,7.1,15.8,15.8,15.8h89.8c2.2,0,4-1.8,4-4s-1.8-4-4-4H50.7c-4.4,0-7.9-3.6-7.9-7.9v-42c6.7,1.3,13,1.8,18.6,1.8s11.1-.5,15-1.2v10.4c-1.3,1.2-2.3,1.2-4.3,1.1-2.9-.1-6.8-.3-11.1,3.8-1.6,1.5-1.7,4-.2,5.6.8.8,1.8,1.3,2.9,1.3s1.9-.3,2.7-1c2-1.8,3.2-1.8,5.5-1.7,1.3,0,2.9.1,4.6-.3v8.7c-2.9,1.8-4.8,1.7-7.3,1.6-3.3-.1-7.4-.2-13.6,3.2-1.9,1.1-2.6,3.5-1.5,5.4.7,1.3,2.1,2,3.4,2s1.3-.2,1.9-.5c4.2-2.4,6.6-2.3,9.4-2.2,3.1.1,6.6.2,11.5-2.7,4.9,2.9,8.4,2.8,11.5,2.7,2.8,0,5.2-.2,9.4,2.2.6.3,1.3.5,1.9.5,1.4,0,2.7-.7,3.4-2,1.1-1.9.4-4.3-1.5-5.4-6.2-3.5-10.3-3.3-13.6-3.2-2.6,0-4.4.1-7.3-1.6v-8.7c1.7.4,3.3.3,4.6.3,2.3,0,3.5-.1,5.5,1.7.8.7,1.7,1,2.7,1s2.1-.4,2.9-1.3c1.5-1.6,1.4-4.1-.2-5.6-4.4-4-8.3-3.9-11.2-3.8-2,0-3,.1-4.3-1.1v-12.1c.1,0,.2,0,.2,0,.2,0,19.2-5.7,42.3,0,1.2.3,10.1,2.9,23.1,2.9h.2c13.1,0,22.1-2.5,23.3-2.9,23.1-5.7,42.1,0,42.3,0,0,0,.1,0,.2,0v12.1c-1.3,1.2-2.3,1.2-4.3,1.1-2.9-.1-6.8-.3-11.1,3.8-1.6,1.5-1.7,4-.2,5.6.8.8,1.8,1.3,2.9,1.3s1.9-.3,2.7-1c2-1.8,3.2-1.8,5.5-1.7,1.3,0,2.9.1,4.6-.3v8.7c-2.9,1.8-4.8,1.7-7.3,1.6-3.3-.1-7.4-.2-13.6,3.2-1.9,1.1-2.6,3.5-1.5,5.4.7,1.3,2.1,2,3.4,2s1.3-.2,1.9-.5c4.2-2.4,6.6-2.3,9.4-2.2,3.1.1,6.6.2,11.5-2.7,4.9,2.9,8.4,2.8,11.5,2.7,2.8,0,5.2-.2,9.4,2.2.6.3,1.3.5,1.9.5,1.4,0,2.7-.7,3.4-2,1.1-1.9.4-4.3-1.5-5.4-6.2-3.5-10.3-3.3-13.6-3.2-2.6,0-4.4.1-7.3-1.6v-8.7c1.7.4,3.3.3,4.6.3,2.3,0,3.5-.1,5.5,1.7.8.7,1.7,1,2.7,1s2.1-.4,2.9-1.3c1.5-1.6,1.4-4.1-.2-5.6-4.4-4-8.3-3.9-11.2-3.8-2,0-3,.1-4.3-1.1v-10.4c7.5,1.2,19.6,2.1,33.6-.6v42c0,4.4-3.6,7.9-8,7.9h-90.6c-2.2,0-4,1.8-4,4s1.8,4,4,4h90.6c8.7,0,15.9-7.1,15.9-15.8v-15.3h15.7c2.2,0,4-1.8,4-4v-21.2c0-2.2-1.8-4-4-4h0ZM249.4,105.5c5.6-4.2,13.9-4.8,24.1-1.7,0,0,.2,0,.3,0,0,0,0,.2,0,.3-1,10.5-4.6,18-10.5,21.6-4.5,2.7-10.4,3.3-17.3,1.7l12.9-8.7c1.8-1.2,2.3-3.7,1.1-5.5-1.2-1.8-3.7-2.3-5.5-1.1l-12.9,8.7c1.1-7,3.8-12.3,8-15.4h0ZM208.1,79.3c-.3-6.6,3.7-13.4,11.5-19.8,0,0,0,0,.1-.1,0,0,0,0,.1.1,7.8,6.4,11.8,13.2,11.5,19.8-.2,4.9-2.9,9.7-7.7,14.2v-15c0-2.2-1.8-4-4-4s-4,1.8-4,4v15c-4.8-4.5-7.5-9.4-7.7-14.2h0ZM176.3,125.8c-5.9-3.6-9.6-11.1-10.5-21.6,0-.1,0-.2,0-.3,0,0,.2,0,.3,0,10.2-3,18.5-2.4,24.1,1.7,4.2,3.1,6.9,8.4,8,15.4l-12.9-8.7c-1.8-1.2-4.3-.7-5.5,1.1-1.2,1.8-.7,4.3,1.1,5.5l12.9,8.7c-6.9,1.6-12.8,1.1-17.3-1.7h0ZM109.9,105.5c5.6-4.2,13.9-4.8,24.1-1.7,0,0,.2,0,.3,0,0,0,0,.2,0,.3-1,10.5-4.6,18-10.5,21.6-4.5,2.7-10.4,3.3-17.3,1.7l12.9-8.7c1.8-1.2,2.3-3.7,1.1-5.5-1.2-1.8-3.7-2.3-5.5-1.1l-12.9,8.7c1.1-7,3.8-12.2,8-15.4ZM68.6,79.3c-.3-6.6,3.7-13.4,11.5-19.8,0,0,0,0,.1-.1,0,0,0,0,.1.1,7.8,6.4,11.8,13.2,11.5,19.8-.2,4.9-2.9,9.7-7.7,14.2v-15c0-2.2-1.8-4-4-4s-4,1.8-4,4v15c-4.8-4.5-7.5-9.4-7.7-14.2ZM36.8,125.8c-5.9-3.6-9.6-11.1-10.5-21.6,0-.1,0-.2,0-.3,0,0,.2,0,.3,0,10.2-3,18.5-2.4,24.1,1.7,4.2,3.1,6.9,8.4,8,15.4l-12.9-8.7c-1.8-1.2-4.3-.7-5.5,1.1-1.2,1.8-.7,4.3,1.1,5.5l12.9,8.7c-6.9,1.6-12.9,1.1-17.3-1.7ZM23.1,210.3v-13.3h11.7v13.3h-11.7ZM42.7,183.4v-18.7c0-4.4,3.6-7.9,7.9-7.9h2.5v5.2c0,4.5,3.7,8.2,8.2,8.2h14.9v13.8c-6.9,1.2-19.3,2.4-33.6-.6ZM223.7,184.1v-13.8h14.9c4.5,0,8.2-3.7,8.2-8.2v-5.2h2.5c4.4,0,8,3.6,8,7.9v18.7c-14.3,3-26.7,1.8-33.6.6ZM276.9,210.3h-11.7v-13.3h11.7v13.3Z"/>
</svg>