<?xml version="1.0" encoding="UTF-8"?>
<svg id="Layer_1" xmlns="http://www.w3.org/2000/svg" xmlns:svgjs="http://svgjs.dev/svgjs" version="1.1" viewBox="0 0 300 300">
  <!-- Generator: Adobe Illustrator 29.1.0, SVG Export Plug-In . SVG Version: 2.1.0 Build 142)  -->
  <defs>
    <style>
      .st0 {
        fill: #0051b1;
      }
    </style>
  </defs>
  <g id="path2421">
    <path class="st0" d="M233.7,178.6c-6.6,0-12.1-.9-16.4-2-7.9-2.1-13.2-5.2-15.8-6.9-15.9,4.3-35.1,6.4-58.7,6.5h0c-2.1,0-3.8-1.7-3.8-3.8,0-2.1,1.7-3.8,3.8-3.8,23.8,0,42.9-2.2,58.4-6.7,1.2-.3,2.5,0,3.5.8,0,0,5.3,4.3,14.9,6.7,8.2,2.1,21.4,3.2,38.5-2.6l-8.3-12.6c-1.1-1.7-.7-4,1-5.2,9.3-6.5,14.9-10.5,18.4-12.9-1.9-.8-3.5-1.4-5.1-1.9-2-.6-3.1-2.8-2.5-4.8.6-2,2.8-3.2,4.8-2.5,2.4.7,4.5,1.6,7.4,2.9.9.4,3.6,1.9,4.7,2.5,1.3.7,2,2.1,2,3.5,0,1.2-.7,2.3-1.7,3-.6.4-14.3,10-20.6,14.4l8.9,13.6c.6,1,.8,2.2.4,3.3-.4,1.1-1.2,2-2.2,2.4-12.3,4.8-22.9,6.4-31.7,6.4Z"/>
  </g>
  <g id="path2425">
    <path class="st0" d="M125.7,175.8s0,0-.1,0c-3.7-.1-7.4-.3-11.4-.5-23.4-1.3-48.5-3-73.8-7.2-3.7-.6-7-1.6-10.2-2.5-1.6-.5-3-.9-4.5-1.3-2.4-.6-4.3-2.3-5.4-4.5-1.1-2.3-1.1-5,0-7.4,5.2-11.3,14.9-20.7,27.2-26.5,11.3-5.3,24.5-7.8,41.5-7.8,30.9,0,54.9,7.8,82.7,16.7,4.3,1.4,8.8,2.8,13.4,4.3,1.6.5,3.2,1.1,4.5,1.6,5.8,2.2,12.1,2.3,17.9.3,4.3-1.5,8.8-3.5,13.8-6,2.1-1.1,4-2.4,6-3.8,3.5-2.4,7.2-4.9,11.9-6.2,3-.9,5.8-1.3,8.6-1.4,2.1,0,3.9,1.6,3.9,3.7,0,2.1-1.6,3.9-3.7,3.9-2.1,0-4.3.4-6.7,1.1-3.6,1-6.6,3-9.7,5.2-2.1,1.4-4.3,2.9-6.8,4.2-5.3,2.7-10.2,4.8-14.8,6.4-7.4,2.6-15.6,2.5-23.1-.3-1.2-.5-2.7-1-4.1-1.4-4.6-1.4-9.1-2.9-13.5-4.3-27.2-8.7-50.6-16.3-80.4-16.4-15.8,0-27.9,2.2-38.2,7-10.5,5-19.1,13.3-23.5,22.8-.2.4,0,.8,0,.9,0,.1.2.4.4.4,1.6.4,3.2.9,4.8,1.4,3.1.9,6,1.8,9.2,2.3,24.9,4.1,49.8,5.8,73,7.1,3.9.2,7.6.4,11.3.5,2.1,0,3.8,1.8,3.7,3.9,0,2.1-1.8,3.7-3.8,3.7Z"/>
  </g>
  <g id="path2429">
    <path class="st0" d="M108.6,199.4c-.3,0-.6,0-.9-.1-6.5-1.5-16.1-4.7-23.7-14.6-2.8-3.7-6.7-10.3-8.5-13.9-.6-1.2-.5-2.7.2-3.9.8-1.2,2.1-1.8,3.5-1.7,5.9.5,12.3,1,19.6,1.5,1.9.1,3.5,1.7,3.6,3.6,0,1.1,2.2,10.3,9.5,23.4.7,1.3.6,3-.3,4.2-.7,1-1.9,1.5-3,1.5ZM85.8,173.4c1.5,2.5,3.1,5,4.3,6.5,3.4,4.4,7.1,7.1,10.9,8.9-2.9-6.2-4.6-11.4-5.4-14.7-3.4-.2-6.6-.5-9.7-.7Z"/>
  </g>
  <g id="path2433">
    <path class="st0" d="M132.9,131.3c-.3,0-.6,0-.9-.1l-3.2-.7c-14-3.2-26.7-4.6-40-4.7-.6,0-1.2,0-1.7,0,0,0,0,0,0,0-1.1,0-2.1-.5-2.8-1.3-.7-.8-1.1-1.9-.9-3,1.4-11.4,8.1-21,20.1-28.6,1.4-.9,3.3-.8,4.6.3,6.6,5.7,23.5,11.5,33.6,15,1.8.6,3.4,1.2,4.8,1.7,1.9.7,3,2.7,2.4,4.7-3.1,10.8-9.1,14.4-14.5,16.4-.4.2-.9.3-1.4.3ZM91.7,118.2c12.8.2,25.3,1.8,38.9,4.8l2,.5c3.3-1.4,5.8-3.4,7.6-7.6-.4-.1-.8-.3-1.2-.4-10.3-3.5-25.4-8.7-33.8-14.7-7.1,5-11.6,10.8-13.5,17.4Z"/>
  </g>
  <g id="path2437">
    <path class="st0" d="M213.6,175.2c-.4,0-.9,0-1.3-.2-5.2-1.9-8.8-4-10.8-5.4-.4,0-.7.2-1.1.3-1.2.3-2.5,0-3.4-.8-.9-.8-1.4-2-1.4-3.2.5-6.6.5-13.2,0-19.4,0-1.1.3-2.1,1-2.9s1.7-1.2,2.8-1.3c2.7,0,5.4-.5,8-1.4,1.5-.5,3.1-1.1,4.8-1.8,1.1-.5,2.4-.4,3.4.2,1,.6,1.7,1.7,1.9,2.8,1.1,9.4,1.1,19.3,0,29.6-.1,1.2-.8,2.2-1.8,2.8-.6.4-1.3.6-2,.6ZM203.6,161.9c.4.2.8.4,1.2.7,0,0,1.9,1.6,5.5,3.3.4-6.1.4-12.1,0-17.8-.2,0-.3.1-.5.2-2.1.7-4.2,1.2-6.4,1.5.2,4,.2,8,0,12.1Z"/>
  </g>
  <g id="path2441">
    <path class="st0" d="M233.8,178.6c-2.4,0-4.8-.1-7.2-.4-1-.1-2-.6-2.6-1.4-.6-.8-.9-1.8-.8-2.9,1.7-13,1.5-25.4-.5-36.9-.3-1.5.4-3.1,1.7-3.9.9-.6,1.9-1.3,2.8-1.9,3.3-2.2,6.7-4.5,11-5.9,1-.3,2.1-.2,3,.3.9.5,1.6,1.4,1.9,2.4,3.8,14.3,4.5,30.1,2.3,46.9-.2,1.7-1.6,3.1-3.4,3.3-2.8.3-5.5.5-8.2.5ZM241.6,174.4h0,0ZM231.3,170.9c2.3,0,4.6,0,6.9,0,1.4-13,.9-25.3-1.5-36.6-1.8,1-3.5,2.1-5.2,3.3-.3.2-.6.4-.9.6,1.6,10.4,1.9,21.4.7,32.8Z"/>
  </g>
  <g id="path2445">
    <path class="st0" d="M48,203.7c-1.1,0-2.2-.5-3-1.4-4.2-5.3-8.4-15.2-9.9-23.1-1-5.4-1.6-9.8-1.7-15,0-2.1,1.6-3.8,3.8-3.9,2.1,0,3.8,1.6,3.9,3.8,0,4.7.7,8.8,1.6,13.8,1.2,6.6,4.9,15.5,8.3,19.7,1.3,1.6,1,4.1-.6,5.4-.7.6-1.5.8-2.4.8Z"/>
  </g>
  <g id="path2449">
    <path class="st0" d="M79,207.7c-.7,0-1.5-.2-2.2-.7-22-15.3-27.3-24.8-34.6-40.2-.9-1.9,0-4.2,1.8-5.1,1.9-.9,4.2,0,5.1,1.8,7.2,15.1,11.6,23,32.1,37.2,1.7,1.2,2.2,3.6,1,5.3-.7,1.1-1.9,1.6-3.1,1.6Z"/>
  </g>
  <g id="path2477">
    <path class="st0" d="M65.4,140.3c0,3.4-2.8,6.2-6.2,6.2s-6.2-2.8-6.2-6.2,2.8-6.2,6.2-6.2,6.2,2.8,6.2,6.2"/>
  </g>
</svg>