<?xml version="1.0" encoding="UTF-8"?>
<svg id="Layer_1" xmlns="http://www.w3.org/2000/svg" xmlns:svgjs="http://svgjs.dev/svgjs" version="1.1" viewBox="0 0 300 300">
  <!-- Generator: Adobe Illustrator 29.1.0, SVG Export Plug-In . SVG Version: 2.1.0 Build 142)  -->
  <defs>
    <style>
      .st0 {
        fill: #0051b1;
      }
    </style>
  </defs>
  <g id="Layer_25">
    <path class="st0" d="M277.1,150c0-6.4-5.2-11.5-11.6-11.6h-50.1V53.7h11.6c14.9,0,26.9-12.1,27-27,0-2.1-1.7-3.8-3.8-3.9,0,0,0,0,0,0h-15.4c-14.9,0-26.9,12.1-27,27v33.5c-7.9-11.3-20.8-18.1-34.7-18.1h-23.1c-2.1,0-3.9,1.7-3.9,3.8h0c0,23.4,19,42.3,42.4,42.4h19.3v27h-115.5V53.7h11.6c14.9,0,26.9-12.1,27-27,0-2.1-1.7-3.9-3.8-3.9h-15.4c-14.9,0-26.9,12.1-27,27v33.5c-7.9-11.3-20.8-18.1-34.7-18.1h-23.1c-2.1,0-3.9,1.7-3.9,3.8h0c0,23.4,19,42.3,42.4,42.4h19.3v27h-50.1c-6.4,0-11.5,5.1-11.6,11.5,0,4.9,3.1,9.3,7.7,10.9v97c0,10.6,8.6,19.2,19.3,19.3h200.3c10.6,0,19.2-8.6,19.3-19.3v-97c4.6-1.6,7.7-6,7.7-10.8h0ZM234.7,30.6h11.2c-1.8,9-9.7,15.4-18.9,15.4h-11.2c1.8-9,9.7-15.4,18.9-15.4ZM188.5,103.8c-17.6,0-32.5-13.3-34.4-30.8h19c17.6,0,32.5,13.3,34.4,30.8h-19ZM111.5,30.6h11.2c-1.8,9-9.7,15.4-18.9,15.4h-11.2c1.8-9,9.7-15.4,18.9-15.4ZM65.3,103.8c-17.6,0-32.5-13.3-34.4-30.8h19c17.6,0,32.5,13.3,34.4,30.8h-19ZM261.7,257.8c0,6.4-5.2,11.5-11.6,11.6H49.9c-6.4,0-11.5-5.2-11.6-11.6v-96.3h46.2v13.3l-21.4,14.3c-1.1.7-1.7,1.9-1.7,3.2v42.4c0,2.1,1.7,3.9,3.9,3.9s3.9-1.7,3.9-3.9v-21.5l7.7,7.7v33.1c0,2.1,1.7,3.9,3.9,3.9s3.9-1.7,3.9-3.9v-34.7c0-1-.4-2-1.1-2.7l-14.3-14.3v-7.9l18.8-12.5,15.9,15.9v44.6c0,2.1,1.7,3.9,3.9,3.9s3.9-1.7,3.9-3.9v-46.2c0-1-.4-2-1.1-2.7l-18.1-18.1v-13.8h115.5v13.3l-21.4,14.3c-1.1.7-1.7,1.9-1.7,3.2v42.4c0,2.1,1.7,3.9,3.9,3.9s3.9-1.7,3.9-3.9v-21.5l7.7,7.7v33.1c0,2.1,1.7,3.9,3.9,3.9s3.9-1.7,3.9-3.9v-34.7c0-1-.4-2-1.1-2.7l-14.3-14.3v-7.9l18.8-12.5,15.9,15.9v44.6c0,2.1,1.7,3.9,3.9,3.9s3.9-1.7,3.9-3.9v-46.2c0-1-.4-2-1.1-2.7l-18.1-18.1v-13.8h46.2v96.3ZM265.5,153.9H34.5c-2.1,0-3.9-1.7-3.9-3.9s1.7-3.9,3.9-3.9h231.1c2.1,0,3.9,1.7,3.9,3.9s-1.7,3.9-3.9,3.9Z"/>
    <path class="st0" d="M123,177h42.4c2.1,0,3.9-1.7,3.9-3.9s-1.7-3.9-3.9-3.9h-42.4c-2.1,0-3.9,1.7-3.9,3.9s1.7,3.9,3.9,3.9Z"/>
    <path class="st0" d="M153.9,192.4c-2.1,0-3.9,1.7-3.9,3.9s1.7,3.9,3.9,3.9h15.4c2.1,0,3.9-1.7,3.9-3.9s-1.7-3.9-3.9-3.9h-15.4Z"/>
    <path class="st0" d="M134.6,188.5c0-2.1-1.7-3.9-3.8-3.9h-3.9c-2.1,0-3.9,1.7-3.9,3.9s1.7,3.9,3.9,3.9h3.9c2.1,0,3.9-1.7,3.9-3.8h0Z"/>
    <path class="st0" d="M130.7,219.3h11.6c2.1,0,3.9-1.7,3.9-3.9s-1.7-3.9-3.9-3.9h-11.6c-2.1,0-3.9,1.7-3.9,3.9s1.7,3.9,3.9,3.9Z"/>
    <path class="st0" d="M150,227c-2.1,0-3.9,1.7-3.9,3.9s1.7,3.9,3.9,3.9h23.1c2.1,0,3.9-1.7,3.9-3.9s-1.7-3.9-3.9-3.9h-23.1Z"/>
    <path class="st0" d="M169.3,215.5c2.1,0,3.9-1.7,3.9-3.9s-1.7-3.9-3.9-3.9h-3.9c-2.1,0-3.9,1.7-3.9,3.9s1.7,3.9,3.9,3.9h3.9Z"/>
    <path class="st0" d="M150,254h-27c-2.1,0-3.9,1.7-3.9,3.9s1.7,3.9,3.9,3.9h27c2.1,0,3.9-1.7,3.9-3.9s-1.7-3.9-3.9-3.9Z"/>
    <path class="st0" d="M184.7,246.3h-15.4c-2.1,0-3.9,1.7-3.9,3.9s1.7,3.9,3.9,3.9h15.4c2.1,0,3.9-1.7,3.9-3.9s-1.7-3.9-3.9-3.9Z"/>
    <path class="st0" d="M242.4,254h-11.6c-2.1,0-3.9,1.7-3.9,3.9s1.7,3.9,3.9,3.9h11.6c2.1,0,3.9-1.7,3.9-3.9s-1.7-3.9-3.9-3.9Z"/>
    <path class="st0" d="M234.7,177h15.4c2.1,0,3.9-1.7,3.9-3.9s-1.7-3.9-3.9-3.9h-15.4c-2.1,0-3.9,1.7-3.9,3.9s1.7,3.9,3.9,3.9Z"/>
    <path class="st0" d="M49.9,173.1h11.6c2.1,0,3.9-1.7,3.9-3.9s-1.7-3.9-3.9-3.9h-11.6c-2.1,0-3.9,1.7-3.9,3.9s1.7,3.9,3.9,3.9Z"/>
    <path class="st0" d="M49.9,207.8c2.1,0,3.9-1.7,3.9-3.9s-1.7-3.9-3.9-3.9h-3.9c-2.1,0-3.9,1.7-3.9,3.9s1.7,3.9,3.9,3.9h3.9Z"/>
    <path class="st0" d="M57.6,250.1h-7.7c-2.1,0-3.9,1.7-3.9,3.9s1.7,3.9,3.9,3.9h7.7c2.1,0,3.9-1.7,3.9-3.9s-1.7-3.9-3.9-3.9Z"/>
    <path class="st0" d="M99.9,257.8h-3.9c-2.1,0-3.9,1.7-3.9,3.9s1.7,3.9,3.9,3.9h3.9c2.1,0,3.9-1.7,3.9-3.9s-1.7-3.9-3.9-3.9Z"/>
    <path class="st0" d="M250.1,211.6h-3.9c-2.1,0-3.9,1.7-3.9,3.9s1.7,3.9,3.9,3.9h3.9c2.1,0,3.9-1.7,3.9-3.9s-1.7-3.9-3.9-3.9Z"/>
  </g>
</svg>