<?xml version="1.0" encoding="UTF-8"?>
<svg id="Layer_1" xmlns="http://www.w3.org/2000/svg" xmlns:svgjs="http://svgjs.dev/svgjs" version="1.1" viewBox="0 0 300 300">
  <!-- Generator: Adobe Illustrator 29.1.0, SVG Export Plug-In . SVG Version: 2.1.0 Build 142)  -->
  <defs>
    <style>
      .st0 {
        fill: #0051b1;
      }
    </style>
  </defs>
  <path class="st0" d="M234.3,38.6h-34.1v-4.9c0-8.7-7.1-15.9-15.9-15.9h-68.5c-8.7,0-15.9,7.1-15.9,15.9v4.9h-34.1c-9.9,0-17.9,8-17.9,17.9v207.9c0,9.9,8,17.9,17.9,17.9h168.5c9.9,0,17.9-8,17.9-17.9V56.5c0-9.9-8-17.9-17.9-17.9h0ZM108.8,33.6c0-3.9,3.1-7,7-7h68.5c3.9,0,7,3.1,7,7v18.3c0,3.9-3.1,7-7,7h-68.5c-3.9,0-7-3.1-7-7v-18.3ZM243.3,264.3c0,4.9-4.1,9-9,9H65.7c-4.9,0-9-4.1-9-9V56.5c0-4.9,4.1-9,9-9h34.1v4.5c0,8.7,7.1,15.9,15.9,15.9h68.5c8.7,0,15.9-7.1,15.9-15.9v-4.5h34.1c4.9,0,9,4.1,9,9v207.9h0Z"/>
  <path class="st0" d="M105.8,145.5h88.3c2.5,0,4.4-2,4.4-4.4s-2-4.4-4.4-4.4h-88.3c-2.5,0-4.4,2-4.4,4.4s2,4.4,4.4,4.4Z"/>
  <path class="st0" d="M105.8,167.2h88.3c2.5,0,4.4-2,4.4-4.4s-2-4.4-4.4-4.4h-88.3c-2.5,0-4.4,2-4.4,4.4s2,4.4,4.4,4.4Z"/>
  <path class="st0" d="M198.6,184.5c0-2.5-2-4.4-4.4-4.4h-88.3c-2.5,0-4.4,2-4.4,4.4s2,4.4,4.4,4.4h88.3c2.5,0,4.4-2,4.4-4.4Z"/>
  <path class="st0" d="M184.1,201.7h-68.2c-2.5,0-4.4,2-4.4,4.4s2,4.4,4.4,4.4h68.2c2.5,0,4.4-2,4.4-4.4s-2-4.4-4.4-4.4h0Z"/>
  <path class="st0" d="M213.1,89.6h-126.2c-6.9,0-12.5,6.3-12.5,14.1v137.8c0,7.8,5.6,14.1,12.5,14.1h111c.6,0,1.2-.1,1.8-.4,0,0,.1,0,.2-.1.5-.2.9-.5,1.3-.9,0,0,0,0,0,0l23.3-26.4c0,0,0-.2.1-.2.4-.5.7-1.1.8-1.7,0-.2,0-.4.1-.6,0-.1,0-.3,0-.4v-121c0-7.8-5.6-14.1-12.5-14.1ZM83.2,241.4V103.7c0-2.8,1.7-5.2,3.6-5.2h126.2c2,0,3.6,2.4,3.6,5.2v116.6h-18.9c-2.5,0-4.4,2-4.4,4.4v22h-106.5c-2,0-3.6-2.4-3.6-5.2h0ZM202.3,239.4v-10.2h9.1l-9.1,10.2Z"/>
</svg>