<?xml version="1.0" encoding="UTF-8"?>
<svg id="Layer_1" data-name="Layer 1" xmlns="http://www.w3.org/2000/svg" viewBox="0 0 300 300">
  <defs>
    <style>
      .cls-1 {
        fill: #0051b1;
      }
    </style>
  </defs>
  <path class="cls-1" d="M52.1186,103.71856c-.10182-.9351-.94701-1.61699-1.89972-1.51463-.93512.10182-1.61699.94701-1.51234,1.8861.39385,3.61203,1.46779,7.11784,3.11987,10.3321-3.84164,1.84075-7.29973,4.60798-10.02368,8.23811-2.72396,3.63013-4.44336,7.74473-5.17064,11.98084-4.12717-.31302-8.31086.22983-12.22846,1.62684-.88776.32002-1.35003,1.29679-1.03401,2.18738.05201.1489.12675.28763.21742.41501.43351.60906,1.23223.88019,1.96994.619,3.42656-1.22742,7.09156-1.70696,10.70591-1.44875-.28906,6.10727,1.43024,12.27243,5.11081,17.44344.68002.95539,1.42541,1.87623,2.24016,2.7597l7.26361,7.86251c12.50534,13.54165,28.01985,23.4241,45.15181,29.0066,2.33214,5.50105,5.23111,10.6946,8.65385,15.50336,5.40045,7.58733,12.08276,14.22027,19.81853,19.61161,1.47398,1.026,3.32257,1.1796,4.95061.41664s2.68481-2.29481,2.83207-4.08492c.27999-3.38995,1.95803-6.55151,4.617-8.67199,5.13136-4.09018,7.66767-10.66345,6.62482-17.14215l-.18331-1.117c16.48723-1.88727,32.40996-7.24712,46.86643-15.86353,7.15431-4.26459,13.98416-9.11988,20.4138-14.46999.25266.06006.5253.06392.79578-.00265l26.72491-6.63123c4.93573-1.22208,8.30595-5.79799,8.01507-10.87474-.1629-2.79883-1.45804-5.46948-3.56339-7.32355l-4.43528-3.91413c-.10322-.09446-.22067-.16679-.33644-.22833.99799-1.37007,1.97271-2.74756,2.92247-4.14327l9.93604-14.60504,9.49586-3.3763c6.18299-2.1998,11.17013-6.66113,14.03874-12.5653,3.22994-6.63517,3.35064-14.3019.33667-21.03892l-4.06031-9.07497c-.59984-1.34831-1.993-2.12596-3.4582-1.93471-1.4652.19125-2.60534,1.30264-2.84008,2.75918l-1.13187,7.05501c-.79662,4.93918-3.31135,9.46995-7.0844,12.75525l-1.97441,1.7172c-.28385.25002-.59508.22564-.75349.18846s-.44791-.149-.59557-.4997c-2.55908-6.00524-2.26383-12.75265.81527-18.51277l2.82782-5.2874c.65296-1.21444.49012-2.68187-.40957-3.7268-.90251-1.0489-2.32531-1.42161-3.62625-.95745l-4.76102,1.70347c-6.38648,2.28467-11.62422,7.15226-14.3712,13.35371-3.23275,7.29689-3.18192,15.6512.13677,22.90902l3.73012,8.16448c-2.67858,2.98608-5.53182,5.80261-8.54663,8.43427l-.59649-.97285c-1.80195-2.92766-4.91431-4.81465-8.33443-5.06119-3.71771-.26862-7.24664,1.37954-9.43054,4.40336l-7.80423,10.80863c-.44236.60873-.42325,1.41079-.00957,1.99198.10484.14729.23639.28156.39298.39201.76532.55281,1.83516.37908,2.38797-.38624l7.80423-10.80863c1.48536-2.05881,3.88478-3.1789,6.41493-2.99462.39813.02849.78141.10354,1.16239.19222-.75864.55197-1.4459,1.22107-2.01295,2.00852l-10.18455,14.10421c-9.58593,4.59793-20.33331,6.72992-30.96069,6.04764-4.61341-.29681-9.20219-.71909-13.76067-1.25891-.35766-5.22114-2.18006-10.19137-5.30955-14.41119-1.45306-1.98249-1.60545-4.61488-.36594-6.73261l.78837-1.35281c.74337-1.2728.72382-2.84223-.04543-4.09994-.77607-1.25885-2.16761-1.98367-3.64003-1.89525l-.27608.01658c-15.41719.92174-30.30273,6.94675-42.03683,16.97805-12.46464-4.23253-24.63168-9.46256-36.44662-15.68088-6.76866-3.56075-14.37688-4.02896-21.1592-1.78642-1.54808-2.91644-2.55038-6.11939-2.90896-9.42067v-.00002ZM154.8784,119.23792c-.77184,1.31706-1.19516,2.76987-1.28451,4.23688-.29638-.07093-.60876-.08849-.92977-.03392-9.88491,1.65006-19.28998,5.42355-27.57291,11.04322-2.8966-.81708-5.77039-1.68637-8.63217-2.6062,10.90437-8.74501,24.42822-13.98674,38.40937-14.82795l.27608-.01658c.29085-.0211.44561.16263.5153.26896s.15509.32742.00698.58278l-.78837,1.35281h.00001ZM240.96569,78.77471c-3.55249,10.67315-2.25435,22.7937,4.50704,32.76494-1.94243-.42867-3.96864-.00605-5.61277,1.20618l-.17232.12865-3.32152-7.2618c-2.91063-6.37276-2.95579-13.69954-.11872-20.10304,1.12605-2.54676,2.74299-4.82518,4.71828-6.73493h0ZM235.76463,143.08127c.01424-.02213.03529-.04311.04953-.06524l.00567.00796-.05519.05728ZM215.98371,164.63364c2.07238-1.88289,4.09828-3.82267,6.06974-5.81364l16.75002-4.15544c1.52459-.37746,2.86919-1.14259,3.94955-2.16945-.04627,3.2296-2.26053,6.05912-5.43075,6.8462l-21.33855,5.29233h0ZM126.45915,227.42509c-11.31686-7.8863-20.27299-18.55644-26.09306-30.99694,2.95792.82741,5.96207,1.52595,9.00166,2.09731,4.52942,7.74549,10.33026,14.68198,17.17354,20.50465,1.18602,1.00905,2.68094,1.3904,4.10641,1.18545-.98407,1.86994-1.59754,3.93191-1.77207,6.0713-.06495.80191-.63582,1.15426-.87911,1.26746-.24046.11718-.87926.33196-1.53738-.12923h.00001ZM44.54731,124.71305c2.44388-3.25685,5.56689-5.71961,9.04009-7.3281.15355.23257.30823.45833.46974.68523.83585,1.17432,1.75813,2.29313,2.76346,3.33482l2.63269,2.73819c.65946.68214,1.73806.7061,2.4202.04664s.7061-1.73806.04664-2.4202l-2.63269-2.73819c-.87095-.90345-1.66795-1.87152-2.39445-2.88377,5.726-1.67062,12.04592-1.16706,17.70114,1.80679,31.95011,16.81224,66.42265,26.50931,102.4576,28.82094,13.8959.89278,27.99421-2.76668,39.70029-10.30107l2.06749-1.33364c7.93389-5.10735,15.11639-11.2872,21.34786-18.37347l1.72374-1.26889c1.01968-.74977,2.32182-.90891,3.48655-.41849,1.16871.48759,1.96787,1.5261,2.14982,2.77602l.26894,1.8777-9.87112,14.51085c-12.80353,18.81713-29.90518,34.92395-49.45603,46.57864-8.74688,5.2122-18.04779,9.19943-27.69022,11.90638l.63243-4.23456c.40153-2.69679,2.2604-4.95548,4.83157-5.86796l10.16536-3.60694c6.32395-2.24615,12.08947-5.81611,16.91733-10.47593l10.77764-10.40607c1.75399-1.69825,1.11478-4.64386-1.18372-5.45482-5.00288-1.77086-10.45338-1.8197-15.48757-.13771l-.71267.23738c-3.81288,1.2745-7.86621,1.6466-11.84359,1.08901l-7.32839-1.02724c-3.49526-.48693-7.05677-.08105-10.35048,1.18976l-5.9497,2.29165c-1.78752.69055-2.74899,2.63437-2.21415,4.47276l.4315,1.47412c.2485.8547.42427,1.72517.54039,2.59612.06509.48745.49106.84998.98296.84171,8.12216-.14948,16.02841-1.28481,23.58922-3.38576.93707-.25915,1.91194.31843,2.12846,1.27986.20241.89949-.40741,1.79535-1.30016,2.04095-.13014.04465-.25632.08648-.38362.13511-13.65593,3.71642-28.74501,4.41661-43.4397,1.9213-1.8631-.31721-3.69657-.68549-5.50954-1.09236l1.50496-1.55099c1.75588-1.81355,2.58265-4.39319,2.10306-6.99659-.46443-2.50624-2.17744-4.60958-4.46519-5.73407l-26.10349-12.81112c-2.0125-.99055-4.35254-1.07624-6.43679-.24645l-.99923.39935c-1.9342.77097-4.096.75032-6.01337-.05603l-7.15299-3.00531c-2.36238-.99341-5.05678-.78489-7.24186.56048l-2.27948,1.40656c-3.57302,2.20131-4.81382,6.80293-2.83651,10.49939l1.96031,3.67258c.46884.87778.76659,1.83537.88365,2.82559l.69381,5.97146c.36622,3.15191,2.57252,5.77977,5.60756,6.69022l5.00675,1.49822c1.42442.42554,2.70504,1.24731,3.68696,2.36564l10.52447,11.98882c2.19004,2.49549,5.70114,3.36698,8.80215,2.17934l11.58277-4.42988c2.54231-.9699,4.41075-3.18143,4.94742-5.84846l.28696-1.43373c.08133-.39974.19274-.79091.33026-1.17068.19515-.53473-.11288-1.11915-.66245-1.26775-10.75253-2.95621-20.58004-7.45245-28.33989-13.05455-.15659-.11045-.28814-.24472-.39297-.39201-.43067-.60507-.43211-1.4497.06821-2.0697.58282-.71471,1.65024-.79075,2.40023-.25103.07719.04102.14472.07692.2219.11795,13.57846,9.70712,34.00048,16.20449,55.58247,16.16662-.02342.07665-.04285.15045-.06627.22709-1.22457,3.71442-1.30848,7.70849-.08437,11.42529l3.43156,10.41612c-9.68548,1.96392-19.64266,2.66983-29.6766,2.06295-26.70322-1.61276-51.40102-13.3253-69.54899-32.97445l-7.26361-7.86251c-4.50125-4.87474-6.67987-11.16278-6.46157-17.41161.94143.19356,1.87085.43765,2.79109.73625l3.60714,1.17496c.89697.29119,1.86622-.20079,2.15741-1.09776s-.2008-1.86624-1.09776-2.15741l-3.60714-1.17496c-1.1422-.37452-2.30782-.6724-3.48491-.90213.64967-3.67107,2.14322-7.23508,4.50909-10.38243v-.00002Z"/>
</svg>