<?xml version="1.0" encoding="UTF-8"?>
<svg id="Layer_1" data-name="Layer 1" xmlns="http://www.w3.org/2000/svg" viewBox="0 0 300 300">
  <defs>
    <style>
      .cls-1 {
        fill: #0051b1;
      }
    </style>
  </defs>
  <g id="_84x84" data-name="84x84">
    <path class="cls-1" d="M27.16327,162.12495c-.57602,0-1.15809-.15985-1.67682-.4976-3.17871-2.06133-8.56502-6.06488-8.95105-9.72008-.14175-1.34508.29857-2.60419,1.24252-3.54665,2.82586-2.82737,25.01043-17.57335,35.34275-22.48166,10.84197-5.14956,46.11536-19.3346,66.79201-17.84175,37.86399-13.63917,41.17839-11.59294,42.43904-10.82236,1.33903.82634,3.36268,2.35839,5.92616,4.29759,4.12869,3.12745,9.27071,7.01939,12.62132,8.69469l40.147,20.07349c1.52602.76301,2.14429,2.61777,1.38128,4.14379-.76603,1.52753-2.61776,2.14428-4.14378,1.38127l-40.14698-20.07349c-3.86029-1.93165-9.25564-6.0151-13.58942-9.29634-2.00856-1.52-3.91457-2.96458-5.07266-3.7291-.03316-.00151-.07239-.00151-.11157-.00151-4.02919,0-22.50427,5.77836-37.98461,11.36823-.42525.1553-.87761.2096-1.32998.17189-19.51557-1.76427-55.67256,13.12498-64.2798,17.21296-9.55724,4.54035-27.76692,16.73795-32.56214,20.3977,1.07365,1.22143,3.3868,3.12893,5.63963,4.59013,1.43254.92736,1.83966,2.84093.91078,4.27195-.59112.91075-1.58334,1.40687-2.59365,1.40687h-.00004Z"/>
    <path class="cls-1" d="M274.47799,165.46951c-.69668,0-1.39634-.23524-1.97237-.71477-1.68284-1.40085-3.36267-2.94799-5.16316-4.60671-1.52602-1.40691-3.1395-2.89522-4.92187-4.43933-4.63838-4.02165-7.75375-12.43735-7.75375-17.77541,0-2.64942,1.90901-5.98344,5.0244-11.2054,1.62554-2.72784,4.70772-7.89098,5.42853-10.62935-1.86382.475-4.25235,1.96633-6.07694,3.10632-.59714.37247-1.1611.7253-1.68284,1.03292-4.75599,2.80625-9.23755,5.84624-12.99529,8.45042-4.58711,3.18171-8.40821,5.92313-12.13877,8.9646-4.18904,3.41546-8.81834,6.55344-14.5424,6.19305-5.99551-.35135-18.41779-5.10281-30.4269-9.69896-6.29106-2.40666-12.23529-4.6791-15.51354-5.5914-9.26469-2.57404-36.28367-10.03524-36.28367-10.03524l1.64664-5.95327s27.02504,7.46421,36.28972,10.03825c3.56172.98919,9.35518,3.20586,16.06543,5.77234,10.4891,4.0126,23.54172,9.00682,28.58422,9.30391,3.75775.19151,7.27727-2.36895,10.27799-4.81631,3.88743-3.16664,7.81708-5.98946,12.5248-9.25261,3.84822-2.66752,8.4444-5.7874,13.37527-8.69469.47952-.2835.99825-.60771,1.54713-.95,2.93444-1.83514,6.58661-4.11815,10.22071-4.19657,2.57252-.10253,4.09552.71477,4.87359,2.45039,2.00856,4.46194-1.81856,10.87817-5.87186,17.67138-1.61949,2.71879-4.0714,6.82789-4.14981,8.05836,0,3.78941,2.45792,10.34436,5.62456,13.08879,1.83062,1.58935,3.49235,3.11988,5.06361,4.56601,1.71599,1.58482,3.32047,3.06562,4.92488,4.40162,1.31187,1.09175,1.48983,3.03999.39809,4.35036-.61222.73284-1.48983,1.11131-2.37649,1.11131h.00007Z"/>
    <path class="cls-1" d="M230.2204,167.52935c-.11764,0-.23825-.00602-.35889-.02112-1.69491-.19604-2.91029-1.72959-2.71125-3.42451,1.18523-10.18603-3.39283-22.90688-3.43807-23.03356-.58206-1.6014.24124-3.37472,1.84268-3.9583,1.61044-.58961,3.37172.24126,3.95981,1.83966.20809.57453,5.12694,14.20617,3.76981,25.86695-.18399,1.5728-1.517,2.73089-3.0641,2.73089Z"/>
    <path class="cls-1" d="M147.28755,203.36517c-2.44584,0-8.45947-2.08094-25.14011-17.36679-8.04931-.39958-52.05053-2.75801-66.20994-5.39686-15.40193-2.87261-35.51767-12.35743-36.36813-12.75856-1.54109-.73136-2.19555-2.57253-1.4657-4.11362.72984-1.5396,2.56647-2.19706,4.11361-1.46873.19904.095,20.24538,9.54516,34.85416,12.26997,14.80781,2.75949,64.34916,5.30789,66.38187,5.35162.75396.01659,1.5049.30762,2.05981.81881,8.03724,7.4175,18.25795,15.53765,21.36125,16.41977,1.41445-1.31491,2.97665-7.93319,3.26012-11.9548-1.95729-.7585-6.97263-1.60897-11.75275-1.94673-1.70094-.12062-2.98267-1.59689-2.86205-3.29783.11763-1.69942,1.55316-2.98418,3.29631-2.86356,17.54019,1.23199,17.54019,5.08774,17.54019,6.94098,0,.16738-.58207,16.89781-7.82916,19.16121-.27442.086-.65439.20512-1.23948.20512Z"/>
    <path class="cls-1" d="M219.7916,191.98336c-8.6012,0-34.10322-6.22622-38.96778-7.43408-5.97137.5157-25.80663,1.21839-26.6752,1.25008-1.58333.0377-3.13647-1.27118-3.19378-2.97816-.06032-1.70397,1.27269-3.13499,2.97665-3.1953.21713-.0075,21.83474-.77354,26.82297-1.27266.35889-.03468.71174-.01208,1.05556.07689,7.26518,1.81554,25.49296,6.08298,34.58577,7.1385-.62727-3.27974-1.42951-7.58485-1.59538-8.90883-.21111-1.69189.9892-3.23601,2.68411-3.4456,1.66475-.21865,3.23601.98919,3.44408,2.68259.19905,1.60291,1.71599,9.49541,2.283,12.40116.17492.88817-.05127,1.80951-.61827,2.51673-.56396.70872-1.41142,1.13245-2.31617,1.1611-.15378.00457-.31666.00756-.48555.00759Z"/>
    <path class="cls-1" d="M193.93069,179.1117c-1.29983,0-2.50616-.82634-2.93443-2.12767-.5308-1.6195.34984-3.36419,1.97235-3.89648,32.63754-10.70628,33.55436-10.70628,34.16055-10.70628,3.67632.00151,7.38883.90173,10.98068,1.77181,1.2365.30009,2.45191.59563,3.62203.83839l.47349.09802c12.47657,2.59063,25.37835,5.26266,37.75843,3.49989,1.68284-.2473,3.2541.93191,3.49539,2.61925.24124,1.68889-.9319,3.25258-2.62077,3.49387-13.44767,1.92563-26.89233-.86706-39.88764-3.56625l-.47349-.09802c-1.2365-.25636-2.51823-.56548-3.82106-.88212-3.13347-.75998-6.36947-1.54411-9.23755-1.59538-2.66601.67555-21.15317,6.66501-32.52593,10.39563-.31966.10407-.64235.15534-.96206.15533Z"/>
    <path class="cls-1" d="M84.29551,172.41802c-.46444,0-.9349-.10405-1.37824-.32571-1.42951-.71477-2.06285-2.39007-1.50792-3.85427.09049-.33927.71477-2.97514,1.3511-13.7583.56697-9.6311-11.04706-23.47839-15.57082-28.00215-1.20632-1.20633-1.20632-3.16062,0-4.36694s3.16062-1.20633,4.36694,0c.74491.7434,18.21271,18.38763,17.36826,32.731-.53683,9.12896-1.16411,14.46854-1.86381,15.86939-.54282,1.08274-1.63154,1.70698-2.76552,1.70698Z"/>
    <path class="cls-1" d="M104.88474,176.79404c-1.52299,0-2.84697-1.12492-3.05806-2.67354-.2292-1.69037.95602-3.24656,2.64792-3.47577,3.38078-.4569,6.81885-1.97085,9.73216-3.63108h-18.84301c-1.70696,0-3.08823-1.38276-3.08823-3.08823s1.38127-3.08823,3.08823-3.08823h28.56612c1.28174,0,2.43077.79167,2.88617,1.98894.45539,1.1958.12668,2.55141-.82935,3.40339-.41919.37247-10.34739,9.13801-20.6857,10.53738-.13879.0181-.28053.02714-.41625.02714Z"/>
    <circle class="cls-1" cx="46.17744" cy="149.04784" r="4.63234"/>
    <path class="cls-1" d="M53.62433,169.29212c-.9681,0-1.91807-.45237-2.52126-1.29983-.98619-1.39032-.66048-3.31895.72984-4.30663,4.4544-3.16361,5.81757-9.96285,6.45693-14.80179.81128-6.13273-1.31188-11.41348-6.87915-17.12099-1.19125-1.22143-1.16713-3.17569.05429-4.36694,1.22142-1.18826,3.17266-1.16865,4.36694.05429,4.3549,4.46496,9.98245,11.62762,8.58009,22.24189-.78713,5.98344-2.57855,14.46703-9.00231,19.03001-.54282.38452-1.1671.57-1.78538.57Z"/>
    <path class="cls-1" d="M70.29595,169.86661c-1.0676,0-2.10506-.55341-2.67808-1.54562-.85047-1.47778-.34381-3.36568,1.13094-4.21765,2.96155-1.70847,11.15864-6.95454,13.48988-10.65801.91078-1.44159,2.81378-1.88039,4.26139-.9681,1.44159.90778,1.87585,2.8153.9681,4.25839-3.56475,5.65924-14.40974,12.01213-15.63416,12.71782-.48553.28047-1.01631.41317-1.53807.41317Z"/>
    <path class="cls-1" d="M229.5207,150.13092c-1.13396,0-2.22268-.62428-2.76553-1.70696-.76301-1.52602-.14478-3.38078,1.38128-4.14379,7.08725-3.5421,26.23487-13.26521,29.69707-15.67486,1.39634-.97261,3.32347-.62879,4.3006.77055.97412,1.40085.62727,3.32497-.77206,4.29909-4.53885,3.15759-29.40755,15.601-30.46309,16.13026-.44331.22168-.9138.32571-1.37827.32571Z"/>
    <path class="cls-1" d="M266.69107,159.32924c-.16889,0-.3378-.01356-.50968-.04222-7.67234-1.27871-34.41383-.72984-34.68227-.7253h-.06633c-1.67681,0-3.05204-1.34053-3.08823-3.02338-.03619-1.70547,1.31793-3.11689,3.0219-3.15308,1.1279-.02412,27.59502-.56548,35.82829.80977,1.68284.28047,2.81984,1.87135,2.53937,3.55418-.25036,1.51092-1.55922,2.58004-3.04302,2.58004h-.00005Z"/>
    <path class="cls-1" d="M140.22746,119.09328c-1.28776,0-2.49109-.81276-2.92539-2.10055-.54588-1.61499.31969-3.36718,1.93616-3.91457,10.21167-3.45464,25.89107-8.7912,27.23914-9.33103,1.5803-.63182,3.38078.13422,4.01711,1.71751.63333,1.58333-.13572,3.38078-1.71903,4.01559-1.93919.77657-24.94106,8.5635-27.55884,9.44866-.32868.11161-.66041.16439-.98915.16439Z"/>
    <path class="cls-1" d="M159.96618,124.45698c-1.12792,0-2.21365-.61826-2.75649-1.6934-.77206-1.52151-.16284-3.37926,1.35712-4.14981,6.05883-3.06861,15.07923-7.71606,16.16194-8.43683,1.42349-.95151,3.33853-.56548,4.28251.858.94698,1.41895.56095,3.33553-.85649,4.28251-1.7884,1.18974-14.30418,7.54415-16.79528,8.80627-.44934.22618-.92585.33325-1.39331.33326Z"/>
    <path class="cls-1" d="M179.31889,129.05465c-1.01331,0-2.00553-.4976-2.59665-1.4099-.92585-1.43254-.5157-3.34459.91683-4.27043,10.53738-6.81885,10.97165-6.81885,12.02418-6.81885,1.70696,0,3.08824,1.38276,3.08824,3.08823,0,1.37522-.89875,2.54084-2.14125,2.94045-1.09777.55644-5.75121,3.47275-9.61755,5.9744-.5187.33624-1.09775.4961-1.6738.4961Z"/>
    <path class="cls-1" d="M191.0053,134.61136c-1.1008,0-2.1684-.59112-2.72632-1.63005-.80522-1.50341-.23825-3.37472,1.26364-4.17998l10.73039-5.74822c1.50792-.80522,3.37474-.23825,4.18298,1.26364.80523,1.50341.23825,3.37472-1.26364,4.17998l-10.73039,5.74822c-.46444.24878-.96507.36641-1.45667.36641Z"/>
    <path class="cls-1" d="M204.60981,139.21051c-.98015,0-1.94522-.46595-2.54538-1.33451-.96809-1.40237-.61523-3.32648.78714-4.29456l8.04932-5.55671c1.40237-.97412,3.32648-.61826,4.29759.78562.96809,1.40388.61523,3.328-.78714,4.29607l-8.04932,5.55671c-.53682.37098-1.14904.54739-1.75221.54739Z"/>
    <path class="cls-1" d="M28.71344,179.62441c-1.14904.00151-2.24984-.64239-2.78364-1.74467-3.35965-6.95002-1.43553-10.74849-1.01634-11.43912.88363-1.45817,2.78364-1.91958,4.24029-1.03746,1.40236.85198,1.8849,2.64038,1.13397,4.07292-.07239.21865-.58207,2.02362,1.20333,5.71653.74188,1.53507.09953,3.38226-1.43553,4.12417-.43433.2096-.89274.30762-1.34209.30763Z"/>
    <path class="cls-1" d="M94.13924,138.70536c-1.51999,0-2.84698-1.1219-3.05806-2.67055-.22921-1.69037.953-3.24656,2.64491-3.47729.20808-.03468,2.37649-.43881,2.65093-2.26642.23223-1.5396-2.79269-2.74744-2.82282-2.75801-1.61045-.55792-2.46697-2.31617-1.90902-3.92813.55792-1.61045,2.31314-2.46696,3.92965-1.90754,2.94346,1.01785,7.71153,4.1679,6.91233,9.51048-.77509,5.14804-5.34711,7.11742-7.92866,7.46876-.14178.01964-.28051.02869-.41926.02869Z"/>
    <path class="cls-1" d="M105.72011,150.86527c-1.52,0-2.84697-1.1219-3.05806-2.67055-.2292-1.69037.953-3.24656,2.64491-3.47729.20808-.03468,2.37649-.43881,2.65093-2.26642.23223-1.5396-2.79269-2.74744-2.82282-2.75801-1.61045-.55792-2.46696-2.31617-1.90902-3.92813.56095-1.61348,2.31617-2.46696,3.92965-1.90754,2.94346,1.01785,7.71153,4.1679,6.91233,9.51048-.77509,5.14804-5.34711,7.11742-7.92866,7.46876-.14178.01964-.28051.02869-.41926.02869Z"/>
    <path class="cls-1" d="M119.53873,157.04173c-1.52,0-2.84697-1.1219-3.05806-2.67055-.2292-1.69037.953-3.24656,2.64491-3.47729.20808-.03468,2.37952-.43881,2.65093-2.26339.23223-1.54261-2.79269-2.75044-2.82282-2.761-1.61045-.55792-2.46696-2.31617-1.90902-3.92813s2.31314-2.46696,3.92965-1.90754c2.94346,1.01785,7.71153,4.1679,6.91233,9.51048-.77206,5.14804-5.34711,7.11742-7.92866,7.46876-.14178.01961-.28053.02866-.41926.02865Z"/>
    <path class="cls-1" d="M151.88672,163.21819c-1.52,0-2.84697-1.1219-3.05806-2.67055-.2292-1.69037.953-3.24656,2.64491-3.47729.20808-.03468,2.37952-.43881,2.65093-2.26339.23223-1.54261-2.78966-2.75044-2.81983-2.761-1.61045-.55792-2.46696-2.31617-1.90902-3.92813s2.31314-2.473,3.92965-1.90754c2.94346,1.01936,7.71153,4.16942,6.9093,9.51351-.77206,5.14505-5.34711,7.11439-7.92866,7.46573-.14174.01961-.28051.02866-.41923.02865Z"/>
    <path class="cls-1" d="M172.84689,153.37445c-1.52,0-2.84697-1.1219-3.05806-2.67055-.2292-1.69037.953-3.24656,2.64491-3.47729.20808-.03468,2.37952-.43881,2.65093-2.26339.23223-1.54261-2.78966-2.75044-2.81983-2.761-1.61045-.55792-2.46696-2.31617-1.90902-3.92813s2.31314-2.46997,3.92965-1.90754c2.94346,1.01936,7.71153,4.16942,6.9093,9.51351-.77206,5.14505-5.34711,7.11439-7.92866,7.46573-.14174.01961-.28051.02866-.41923.02865Z"/>
    <path class="cls-1" d="M110.15944,142.56565c-1.52,0-2.84697-1.1219-3.05806-2.67055-.2292-1.69037.953-3.24656,2.64491-3.47729.20808-.03468,2.37649-.43881,2.65093-2.26642.23223-1.5396-2.79269-2.74744-2.82282-2.75801-1.61045-.55792-2.46696-2.31617-1.90902-3.92813.55792-1.61348,2.31617-2.46848,3.92965-1.90754,2.94346,1.01785,7.71153,4.1679,6.91233,9.51048-.77509,5.14804-5.34711,7.11742-7.92866,7.46876-.14178.01964-.28051.02869-.41926.02869Z"/>
    <path class="cls-1" d="M123.0914,137.16125c-1.52,0-2.84697-1.1219-3.05806-2.67055-.2292-1.69037.953-3.24656,2.64491-3.47729.20808-.03468,2.37649-.43881,2.65093-2.26642.23223-1.5396-2.79269-2.74744-2.82282-2.75801-1.61045-.55792-2.46696-2.31617-1.90902-3.92813.56095-1.61196,2.31617-2.47148,3.92965-1.90754,2.94346,1.01785,7.71153,4.1679,6.91233,9.51048-.77509,5.14804-5.34711,7.11742-7.92866,7.46876-.14178.01964-.28051.02869-.41926.02869Z"/>
    <path class="cls-1" d="M134.86527,153.76048c-1.52,0-2.84697-1.1219-3.05806-2.67055-.2292-1.69037.953-3.24656,2.64491-3.47729.20808-.03468,2.37649-.43881,2.65093-2.26642.23223-1.5396-2.79269-2.74744-2.82282-2.75801-1.61045-.55792-2.46696-2.31617-1.90902-3.92813.56095-1.61196,2.31617-2.46997,3.92965-1.90754,2.94346,1.01785,7.71153,4.1679,6.91233,9.51048-.77509,5.14804-5.34711,7.11742-7.92866,7.46876-.14178.01964-.28051.02869-.41926.02869Z"/>
    <path class="cls-1" d="M142.19982,147.198c-1.52,0-2.84697-1.1219-3.05806-2.67055-.2292-1.69037.953-3.24656,2.64491-3.47729.20808-.03468,2.37649-.43881,2.65093-2.26642.23223-1.5396-2.79269-2.74744-2.82282-2.75801-1.61045-.55792-2.46696-2.31617-1.90902-3.92813s2.31314-2.46997,3.92965-1.90754c2.94346,1.01785,7.71153,4.1679,6.91233,9.51048-.77509,5.14804-5.34711,7.11742-7.92866,7.46876-.14178.01964-.28051.02869-.41926.02869Z"/>
    <path class="cls-1" d="M157.06192,154.53254c-1.52,0-2.84697-1.1219-3.05806-2.67055-.2292-1.69037.953-3.24656,2.64491-3.47729.20808-.03468,2.37649-.43881,2.65093-2.26642.23223-1.5396-2.79269-2.74744-2.82282-2.75801-1.61045-.55792-2.46696-2.31617-1.90902-3.92813.56095-1.61196,2.31617-2.47148,3.92965-1.90754,2.94346,1.01785,7.71153,4.1679,6.91233,9.51048-.77509,5.14804-5.34711,7.11742-7.92866,7.46876-.14178.01964-.28051.02869-.41926.02869Z"/>
    <path class="cls-1" d="M167.79231,175.99783c-1.52,0-2.84697-1.1219-3.05806-2.67055-.2292-1.69037.953-3.24656,2.64491-3.47729.20808-.03468,2.37952-.43881,2.65093-2.26339.23223-1.54261-2.79269-2.75044-2.82282-2.761-1.61045-.55792-2.46696-2.31617-1.90902-3.92813.55792-1.61045,2.31314-2.46696,3.92965-1.90754,2.94346,1.01785,7.71153,4.1679,6.91233,9.51048-.77206,5.14804-5.34711,7.11742-7.92866,7.46876-.14178.01961-.28053.02866-.41926.02865Z"/>
    <path class="cls-1" d="M138.0681,173.68166c-1.52,0-2.84697-1.1219-3.05806-2.67055-.2292-1.69037.953-3.24656,2.64491-3.47729.20808-.03468,2.37952-.43881,2.65093-2.26339.23223-1.54261-2.79269-2.75044-2.82282-2.761-1.61045-.55792-2.46696-2.31617-1.90902-3.92813s2.3192-2.46997,3.92965-1.90754c2.94346,1.01785,7.71153,4.1679,6.91233,9.51048-.77206,5.14804-5.34711,7.11742-7.92866,7.46876-.14178.01961-.28053.02866-.41926.02865Z"/>
    <path class="cls-1" d="M182.84743,167.5052c-1.52,0-2.84697-1.1219-3.05806-2.67055-.2292-1.69037.953-3.24656,2.64491-3.47729.20808-.03468,2.37952-.43881,2.65093-2.26339.23223-1.54261-2.79269-2.75044-2.82282-2.761-1.61045-.55792-2.46696-2.31617-1.90902-3.92813.56095-1.61196,2.31617-2.47148,3.92965-1.90754,2.94346,1.01785,7.71151,4.1679,6.91233,9.51048-.77206,5.14804-5.34711,7.11742-7.92866,7.46876-.14178.01961-.28053.02866-.41926.02865Z"/>
    <path class="cls-1" d="M196.74448,160.94272c-1.51999,0-2.84699-1.1219-3.05805-2.67055-.2292-1.69037.95301-3.24656,2.64492-3.47729.20809-.03468,2.3795-.43881,2.65093-2.26339.23224-1.54261-2.79268-2.75044-2.82283-2.761-1.61044-.55792-2.46696-2.31617-1.90901-3.92813.56095-1.61196,2.31617-2.47148,3.92965-1.90754,2.94345,1.01785,7.71153,4.1679,6.91233,9.51048-.77206,5.14804-5.34712,7.11742-7.92867,7.46876-.14179.01961-.28054.02866-.41927.02865Z"/>
  </g>
</svg>