<?xml version="1.0" encoding="UTF-8"?>
<svg id="Layer_1" xmlns="http://www.w3.org/2000/svg" xmlns:svgjs="http://svgjs.dev/svgjs" version="1.1" viewBox="0 0 300 300">
  <!-- Generator: Adobe Illustrator 29.1.0, SVG Export Plug-In . SVG Version: 2.1.0 Build 142)  -->
  <defs>
    <style>
      .st0 {
        fill: #0051b1;
      }
    </style>
  </defs>
  <g id="g3044">
    <g id="g3046">
      <g id="g3052">
        <g id="path3054">
          <path class="st0" d="M169.5,120h-38.9c-8.7,0-15.7-7.1-15.7-15.7s7.1-15.7,15.7-15.7h38.9c8.7,0,15.7,7.1,15.7,15.7s-7.1,15.7-15.7,15.7ZM130.5,100.6c-2,0-3.7,1.7-3.7,3.7s1.7,3.7,3.7,3.7h38.9c2,0,3.7-1.7,3.7-3.7s-1.7-3.7-3.7-3.7h-38.9Z"/>
        </g>
      </g>
      <g id="g3056">
        <g id="path3058">
          <path class="st0" d="M122,81.1c-9.3,0-16.9-7.6-16.9-16.9s7.6-16.9,16.9-16.9,16.9,7.6,16.9,16.9-7.6,16.9-16.9,16.9ZM122,59.2c-2.7,0-4.9,2.2-4.9,4.9s2.2,4.9,4.9,4.9,4.9-2.2,4.9-4.9-2.2-4.9-4.9-4.9Z"/>
        </g>
      </g>
      <g id="g3060">
        <g id="path3062">
          <path class="st0" d="M171.9,70.4c-12.7,0-23-10.3-23-23s10.3-23,23-23,23,10.3,23,23-10.3,23-23,23ZM171.9,36.4c-6.1,0-11,4.9-11,11s4.9,11,11,11,11-4.9,11-11-4.9-11-11-11Z"/>
        </g>
      </g>
      <g id="g3064">
        <g id="path3066">
          <path class="st0" d="M204.9,256.2h-33c-3.3,0-6-2.7-6-6s2.7-6,6-6h29.6l-16.2-27.9c-11.5,4-23.7,1-35.6-2.1-12-3-23.4-5.9-33.1-1.2l-18.1,31.1h29.6c3.3,0,6,2.7,6,6s-2.7,6-6,6h-33c-3.7,0-7-1.8-8.8-4.9-1.8-3.1-1.7-7,.2-10.3l20.6-35.4c.5-.9,1.3-1.7,2.2-2.2,14.2-8.2,29.7-4.2,43.4-.8,11.9,3,23.2,5.9,32.1.8,2.9-1.7,6.5-.7,8.2,2.2l20.6,35.4c1.9,3.3,2,7.2.2,10.3-1.8,3.1-5.1,4.9-8.8,4.9Z"/>
        </g>
      </g>
      <g id="g3068">
        <g id="path3070">
          <path class="st0" d="M214.7,275.6H85.3c-13.2,0-24-10.7-24-23.8s1.5-9.6,4.3-13.6l58.9-101.2v-22.9c0-3.3,2.7-6,6-6s6,2.7,6,6v24.6c0,1.1-.3,2.1-.8,3l-59.9,102.9c0,.2-.2.3-.3.5-1.4,2-2.2,4.4-2.2,6.8,0,6.5,5.4,11.8,12,11.8h129.4c2.1,0,4.1-.6,6-1.6,2.8-1.6,4.7-4.1,5.6-7.2.8-3,.4-6.2-1.2-8.9l-60.8-104.4c-.5-.9-.8-2-.8-3v-24.4c0-3.3,2.7-6,6-6s6,2.7,6,6v22.8l60,103c3.2,5.5,4.1,11.9,2.4,18-1.6,6.2-5.6,11.3-11.2,14.5-3.7,2.1-7.8,3.2-12,3.2Z"/>
        </g>
      </g>
      <g id="g3072">
        <g id="path3074">
          <path class="st0" d="M150,256.2c-3.3,0-6-2.7-6-6s2.7-6,6-6h0c3.3,0,6,2.7,6,6s-2.7,6-6,6Z"/>
        </g>
      </g>
    </g>
  </g>
</svg>