<?xml version="1.0" encoding="UTF-8"?>
<svg id="Layer_1" data-name="Layer 1" xmlns="http://www.w3.org/2000/svg" viewBox="0 0 300 300">
  <defs>
    <style>
      .cls-1 {
        fill: #0051b1;
      }
    </style>
  </defs>
  <g id="_07_Fish_species" data-name="07 Fish species">
    <g>
      <path class="cls-1" d="M98.10604,43.24269h-28.64843c-8.61387,0-15.6212,7.0068-15.6212,15.62119v203.26103c0,8.61386,7.0068,15.6212,15.6212,15.6212h161.08478c8.61386,0,15.6212-7.0068,15.6212-15.6212V58.86389c0-8.61387-7.0068-15.6212-15.6212-15.6212h-28.64843c-1.82784,0-3.3095,1.48166-3.3095,3.3095s1.48167,3.3095,3.3095,3.3095h28.64843c4.96294,0,9.00168,4.03874,9.00168,9.00167v203.26102c0,4.96294-4.03874,9.00168-9.00166,9.00168H69.45762c-4.96293,0-9.00167-4.03874-9.00167-9.00166V58.8639c0-4.96293,4.03874-9.00167,9.00167-9.00167h28.64843c1.82784,0,3.3095-1.48166,3.3095-3.3095.00053-1.82837-1.48114-3.31003-3.3095-3.31003l-.00002-.00002Z"/>
      <path class="cls-1" d="M101.41607,66.01189c0-1.82784-1.48166-3.3095-3.3095-3.3095h-12.17945c-6.89088,0-12.4977,5.60681-12.4977,12.4977v170.58914c0,6.89088,5.60681,12.49612,12.4977,12.49612h128.14629c6.89088,0,12.49769-5.60576,12.49769-12.49612V75.19958c0-6.89088-5.60681-12.4977-12.49769-12.4977h-12.17944c-1.82784,0-3.3095,1.48166-3.3095,3.3095s1.48167,3.3095,3.3095,3.3095h12.17944c3.241,0,5.87817,2.63717,5.87817,5.87817v170.58914c0,3.241-2.63717,5.87711-5.87817,5.87711H85.9266c-3.241,0-5.87817-2.63611-5.87817-5.87711V75.19958c0-3.241,2.63717-5.87817,5.87817-5.87817h12.17945c1.82837,0,3.31003-1.48166,3.31003-3.3095v-.00002Z"/>
      <path class="cls-1" d="M95.57742,184.83985c0,1.82784,1.48166,3.3095,3.3095,3.3095h102.22565c1.82784,0,3.3095-1.48167,3.3095-3.3095s-1.48167-3.3095-3.3095-3.3095h-102.22565c-1.82784-.00053-3.3095,1.48114-3.3095,3.3095Z"/>
      <path class="cls-1" d="M112.90632,203.52816h-14.0194c-1.82784,0-3.3095,1.48167-3.3095,3.3095s1.48166,3.3095,3.3095,3.3095h14.0194c1.82784,0,3.3095-1.48167,3.3095-3.3095s-1.48166-3.3095-3.3095-3.3095Z"/>
      <path class="cls-1" d="M201.1131,203.52816h-73.19469c-1.82784,0-3.3095,1.48167-3.3095,3.3095s1.48166,3.3095,3.3095,3.3095h73.19469c1.82784,0,3.3095-1.48167,3.3095-3.3095s-1.48167-3.3095-3.3095-3.3095Z"/>
      <path class="cls-1" d="M201.1131,225.5265h-14.0194c-1.82784,0-3.3095,1.48167-3.3095,3.3095s1.48167,3.3095,3.3095,3.3095h14.0194c1.82784,0,3.3095-1.48167,3.3095-3.3095s-1.48167-3.3095-3.3095-3.3095Z"/>
      <path class="cls-1" d="M95.57742,228.83654c0,1.82784,1.48166,3.3095,3.3095,3.3095h73.19469c1.82784,0,3.3095-1.48167,3.3095-3.3095s-1.48167-3.3095-3.3095-3.3095h-73.19469c-1.82784-.00053-3.3095,1.48114-3.3095,3.3095h0Z"/>
      <path class="cls-1" d="M188.28135,126.30686c5.16316-3.70679,6.88403-11.0408,6.35449-16.60071-.1586-1.56228-1.40315-2.83318-2.99178-2.96543-8.499-.7677-16.33621,2.62136-18.90435,11.25262-1.85313-2.11817-4.20946-4.52718-6.91037-6.88403v-15.09165c0-2.5418-1.32359-4.79221-3.52132-6.03677-2.17085-1.24455-4.87178-1.19134-7.01629.10591l-17.02435,10.45804c-12.33804,1.4295-23.77612,11.35853-31.37464,21.10155v.02635c-1.05908,1.35046-1.58862,2.99177-1.58862,4.60674,0,1.24455.29138,2.46224.89995,3.57453,2.0386,3.78635,16.15073,20.36019,32.06331,22.18751l17.02435,10.4317c1.08543.68867,2.35633,1.03273,3.60089,1.03273,1.16499,0,2.32998-.29138,3.38907-.87361,2.19772-1.24455,3.54819-3.54766,3.54819-6.06311v-15.118c2.72727-2.35633,5.05671-4.739,6.91037-6.85716.68867,2.27676,1.82679,4.65996,3.75948,6.59265,3.78635,3.78635,10.32578,5.10994,15.14488,4.65996,1.58863-.1586,2.83318-1.40315,2.99178-2.99177.52901-5.66635-1.19239-12.86759-6.35502-16.54803h-.00002ZM158.73349,95.75313c.05269-.02635.1586-.10591.31772,0,.1586.07956.1586.18494.1586.26451v10.14084c-3.04499-1.95904-6.38083-3.57453-9.9285-4.60674l9.45218-5.79861ZM126.35245,140.41899c-5.3481-3.52132-10.35213-8.57857-14.21804-13.55625-.26451-.34407-.26451-.79457,0-1.13864,3.89225-5.00403,8.89629-10.06128,14.21804-13.58259,2.67405,9.39949,2.67405,18.87801,0,28.27749ZM159.20981,156.56973c0,.05322,0,.18547-.1586.26451-.1586.1059-.23816.02634-.29138,0l-9.47852-5.79808c3.54765-1.03273,6.88403-2.67405,9.9285-4.60727v10.14083ZM141.3382,145.60849c-3.1509,0-6.19536-.7677-9.1081-1.98591,3.57453-11.51712,3.57453-23.14068,0-34.68414,2.91221-1.19134,5.9572-1.95904,9.1081-1.95904,13.66164,0,25.70882,14.16482,29.65376,19.30164-3.91861,5.1621-15.93892,19.32746-29.65376,19.32746h0ZM178.48457,129.69592c6.03677.60911,8.84307,3.36272,9.47853,9.5054-6.16849-.63598-8.84255-3.52185-9.47853-9.5054ZM178.48457,122.89145c.60911-6.03677,3.33584-8.84307,9.47853-9.5054-.60858,6.16955-3.49444,8.86994-9.47853,9.5054Z"/>
      <path class="cls-1" d="M123.22789,127.38755h.54061c1.82784,0,3.3095-1.48166,3.3095-3.3095s-1.48166-3.3095-3.3095-3.3095h-.54061c-1.82784,0-3.3095,1.48166-3.3095,3.3095s1.48166,3.3095,3.3095,3.3095Z"/>
      <path class="cls-1" d="M191.96125,47.00954v19.91021c0,6.40718-5.21584,11.59669-11.59669,11.59669h-60.73703c-6.38084,0-11.57034-5.1895-11.57034-11.59669v-19.91021c0-6.40718,5.1895-11.59668,11.57034-11.59668h10.69673c1.82678-7.59852,9.82312-13.15896,19.67205-13.15896,9.84946,0,17.84527,5.55992,19.67205,13.15896h10.69673c6.38032,0,11.59616,5.18897,11.59616,11.59669h.00002Z"/>
    </g>
  </g>
</svg>