<?xml version="1.0" encoding="UTF-8"?>
<svg id="Layer_1" data-name="Layer 1" xmlns="http://www.w3.org/2000/svg" viewBox="0 0 300 300">
  <defs>
    <style>
      .cls-1 {
        fill: #0051b1;
      }
    </style>
  </defs>
  <path class="cls-1" d="M191.31905,84.57165c1.53772-1.1001,3.67609-.74533,4.77619.79239,1.0591,1.48041.77454,3.53075-.6477,4.66678-9.41705,6.77663-31.83376,28.72885-31.83376,28.72885,2.18507,1.2309,4.72968,1.66505,7.19927,1.22831l15.66098-2.62722c17.50729-2.93314,31.51748-16.13505,35.48456-33.43738l4.43557-19.17531c1.01042-4.551-1.85979-9.05941-6.4108-10.06982-1.03219-.22917-2.09827-.26237-3.14274-.09787l-19.38003,3.30962c-17.51639,2.90442-31.54549,16.09797-35.51869,33.40326l-3.58257,15.45626c-.55099,2.33161-.31092,4.78024.6824,6.96044,1.9971-2.01508,24.12091-23.09267,32.2773-29.13829h.00001Z"/>
  <path class="cls-1" d="M109.26099,89.99669c-1.47383-1.17196-1.71854-3.31679-.54659-4.79061,1.13692-1.42977,3.19868-1.70946,4.67542-.63426,7.93073,5.85222,27.15903,24.3274,27.15903,24.3274.62375.83076,1.11838,1.75101,1.46715,2.72958,1.16575-2.14773,1.50555-4.64771.95536-7.02867l-3.20729-13.81868c-3.5776-15.59998-16.2169-27.49817-32.00435-30.12776l-17.33285-2.9343c-2.58927-.44132-5.2276.4424-7.02867,2.35426-1.81141,1.90947-2.53082,4.60728-1.91071,7.16515l3.95789,17.09401c3.56371,15.61429,16.20641,27.52916,32.00435,30.16188l13.98911,2.35427c1.75456.29933,3.5573.12259,5.22033-.5118l-1.39891-3.1049s-17.85829-17.27563-25.99927-23.23557Z"/>
  <path class="cls-1" d="M233.83228,163.5248h-35.3401c1.90847-5.77444-1.2255-12.00265-6.99994-13.91113-1.02955-.34027-2.10373-.52661-3.18774-.55299h-34.00537c.23914-4.71128-.4209-9.42501-1.94487-13.88941,2.15384-6.41131,6.05323-12.09479,11.25986-16.41161-2.01046-1.1688-3.60812-2.93338-4.57205-5.04973l-4.60652,4.67441c-2.3205,2.36536-4.28577,5.05468-5.83448,7.98403l-6.58512-14.73974c-1.14081,2.1788-3.04967,3.85664-5.3568,4.70853l8.35935,18.76588c1.91344,4.39203,2.75545,9.176,2.45662,13.95741h-34.80521c-6.08426.15449-10.89128,5.21199-10.7368,11.29624.02735,1.07724.21256,2.14463.5497,3.16812h-36.31511c-3.76779-.00098-6.82298,3.05262-6.82395,6.8204v7.64639c-.001,3.76777,3.05257,6.82295,6.82034,6.82395h46.60485l1.90344,15.15464c1.13243,8.93588,8.73061,15.63707,17.73795,15.64391h36.15396c9.00728-.00787,16.60535-6.70834,17.73962-15.64391l1.90152-15.15464h45.62684c3.76777.001,6.82295-3.05258,6.82395-6.82034v-7.64645c.00098-3.76779-3.05262-6.82298-6.8204-6.82395h-.00355ZM110.01923,156.98404c.6968-.71237,1.65415-1.10952,2.65059-1.09958h75.63495c4.04337.04142,4.46389,4.732,3.0351,7.64034h-81.7055c-.75247-2.09591-1.46586-4.78301.38487-6.54076h-.00001ZM179.53326,199.12383c-.7032,5.5231-5.40128,9.66317-10.96896,9.66613h-36.15397c-5.56868-.00276-10.26695-4.14508-10.96732-9.66954l-1.79637-14.30489h61.68213l-1.79551,14.3083Z"/>
  <path class="cls-1" d="M91.60322,219.93227c-2.53548,2.52569-6.63592,2.52569-9.17139,0-5.19902-5.19294-13.62186-5.19294-18.82088,0-1.33231,1.33232-1.33231,3.49244.00002,4.82476,1.33233,1.33231,3.49244,1.3323,4.82476-.00003h0c2.53548-2.52569,6.63592-2.52569,9.17139,0,5.20062,5.18907,13.62025,5.18907,18.82087,0,2.56534-2.45231,6.60605-2.45231,9.17139,0,1.33232,1.33232,3.49242,1.33232,4.82474,0,1.33232-1.33231,1.33232-3.49241,0-4.82474h0c-5.19902-5.19299-13.62189-5.19299-18.82091,0Z"/>
  <path class="cls-1" d="M154.58484,236.82555c-2.56467,2.45236-6.60503,2.45236-9.16969,0-5.26619-5.028-13.55465-5.028-18.82084,0-1.33232,1.33232-1.33232,3.49243,0,4.82474,1.33232,1.33232,3.49243,1.33232,4.82474,0,2.56534-2.45231,6.60605-2.45231,9.17139,0,5.21078,5.16284,13.60839,5.16284,18.81917,0,2.56535-2.45231,6.60605-2.45231,9.17139,0,1.35933,1.30529,3.51942,1.26148,4.82471-.09785,1.26806-1.32057,1.268-3.40655-.00017-4.72703-5.26619-5.02792-13.55459-5.02787-18.82071.00013h0Z"/>
  <path class="cls-1" d="M217.56814,222.83112c-2.53548,2.52566-6.63592,2.52566-9.17139,0-5.19901-5.19294-13.62183-5.19294-18.82084,0-1.33231,1.33231-1.33231,3.49243,0,4.82474s3.49243,1.33231,4.82474,0h0c2.56535-2.45231,6.60605-2.45231,9.17139,0,5.20064,5.18903,13.62024,5.18903,18.82088,0,2.53546-2.52573,6.63593-2.52573,9.17139,0,1.33231,1.33232,3.49243,1.33234,4.82476.00003,1.33232-1.33232,1.33232-3.49244.00001-4.82476-5.19903-5.19299-13.62192-5.19299-18.82095,0Z"/>
</svg>