<?xml version="1.0" encoding="UTF-8"?>
<svg id="Layer_1" data-name="Layer 1" xmlns="http://www.w3.org/2000/svg" viewBox="0 0 300 300">
  <defs>
    <style>
      .cls-1 {
        fill: #0051b1;
      }
    </style>
  </defs>
  <path class="cls-1" d="M277.18704,149.9959h-57.36956v-40.97064c0-.0041-.0041-.00821-.0041-.01231.0082-5.61264,3.80741-10.30625,8.95642-11.77095,2.01448,6.77784,8.23433,11.77095,15.66042,11.77095,8.45589,0,24.62505-6.39218,24.62505-16.41123s-16.16917-16.41123-24.62505-16.41123c-7.76662,0-14.25315,5.43212-15.94762,12.68999-9.57595,1.72728-16.87484,10.0806-16.87484,20.14478,0,.00821.0041.01231.0041.02051v.09847c-2.51502-1.90371-5.44442-3.25763-8.66923-3.84023-1.69445-7.25787-8.181-12.68999-15.94762-12.68999-8.45589,0-24.62505,6.39218-24.62505,16.41123s16.16917,16.41123,24.62505,16.41123c7.43019,0,13.64594-4.99312,15.66042-11.77095,5.15313,1.4688,8.95642,6.16652,8.95642,11.78326v24.543h-57.41469v-65.60799c0-5.61674,3.80741-10.31446,8.95642-11.78326,2.01448,6.77784,8.23433,11.77095,15.66042,11.77095,8.45589,0,24.62505-6.39217,24.62505-16.41123s-16.16916-16.41123-24.62505-16.41123c-7.76662,0-14.25315,5.43212-15.94762,12.68999-3.2248.5826-6.15421,1.93653-8.66923,3.84023v-.09847c0-.00821.0041-.01231.0041-.02051,0-10.06419-7.29889-18.4175-16.87484-20.14478-1.69446-7.26197-8.181-12.69409-15.94762-12.69409-8.45589,0-24.62505,6.39217-24.62505,16.41123s16.16916,16.41123,24.62505,16.41123c7.43019,0,13.64594-4.99312,15.66041-11.77095,5.14492,1.4647,8.94822,6.15832,8.95643,11.77095,0,.0041-.0041.00821-.0041.01231v82.03974h-57.60342v-24.543c0-5.61674,3.8033-10.31446,8.95643-11.78326,2.01448,6.77784,8.23433,11.77095,15.66041,11.77095,8.45589,0,24.62505-6.39218,24.62505-16.41123s-16.16916-16.41123-24.62505-16.41123c-7.76661,0-14.25315,5.43211-15.94762,12.68999-3.2248.5826-6.15421,1.93653-8.66923,3.84023v-.09847c0-.00821.0041-.01231.0041-.02051,0-10.06419-7.2989-18.4175-16.87485-20.14478-1.69446-7.25787-8.181-12.68999-15.94761-12.68999-8.45589,0-24.62505,6.39217-24.62505,16.41123s16.16916,16.41123,24.62505,16.41123c7.43018,0,13.64594-4.99311,15.66041-11.77095,5.14902,1.4647,8.94822,6.15831,8.95643,11.77095,0,.0041-.0041.00821-.0041.01231v40.97063H22.81296c-2.26885,0-4.10281,1.83395-4.10281,4.10281v90.26177c0,2.26886,1.83395,4.10281,4.10281,4.10281h8.20972v12.30842c0,2.26886,1.83396,4.10281,4.10281,4.10281h45.13088c2.26885,0,4.10281-1.83395,4.10281-4.10281v-12.30842h131.28575v12.30842c0,2.26886,1.83395,4.10281,4.10281,4.10281h45.13088c2.26886,0,4.10281-1.83395,4.10281-4.10281v-12.30842h8.20562c2.26886,0,4.10281-1.83395,4.10281-4.10281v-90.26587c0-2.26886-1.83395-4.10281-4.10281-4.10281ZM244.43022,84.39611c6.13779,0,16.41943,5.13672,16.41943,8.20562s-10.28164,8.20562-16.41943,8.20562c-4.5254,0-8.20562-3.68022-8.20562-8.20562s3.68022-8.20562,8.20562-8.20562ZM186.99501,117.23498c-6.13779,0-16.41943-5.13672-16.41943-8.20562s10.28164-8.20562,16.41943-8.20562c4.5254,0,8.20562,3.68022,8.20562,8.20562s-3.68432,8.20562-8.20562,8.20562ZM178.81402,59.75465c6.13779,0,16.41943,5.13671,16.41943,8.20562s-10.28164,8.20562-16.41943,8.20562c-4.5254,0-8.20562-3.68022-8.20562-8.20562s3.68432-8.20562,8.20562-8.20562ZM121.37881,59.73824c-6.1378,0-16.41943-5.13671-16.41943-8.20562s10.28164-8.20562,16.41943-8.20562c4.5254,0,8.20562,3.68022,8.20562,8.20562s-3.68022,8.20562-8.20562,8.20562ZM113.00498,100.82375c6.1378,0,16.41943,5.13672,16.41943,8.20562s-10.28164,8.20562-16.41943,8.20562c-4.5254,0-8.20562-3.68022-8.20562-8.20562s3.68432-8.20562,8.20562-8.20562ZM55.56978,100.80734c-6.1378,0-16.41944-5.13672-16.41944-8.20562s10.28164-8.20562,16.41944-8.20562c4.5254,0,8.20562,3.68022,8.20562,8.20562s-3.68022,8.20562-8.20562,8.20562ZM83.9489,158.20151c.11488.0123.21745.06974.33643.06974s.22156-.05744.33643-.06974h65.13617c.11488.0123.21745.06974.33643.06974.11899,0,.22156-.05744.33643-.06974h64.94333c.11488.0123.21745.06974.33643.06974s.22156-.05744.33643-.06974h57.03723v36.92527H26.91578v-36.92527h57.03312ZM76.15357,256.673h-36.92527v-8.20562h36.92527v8.20562ZM260.77581,256.673h-36.92527v-8.20562h36.92527v8.20562ZM264.87862,240.26177H26.91578v-36.92937h246.16845v36.92937h-8.20562Z"/>
</svg>