<?xml version="1.0" encoding="UTF-8"?>
<svg id="Layer_1" data-name="Layer 1" xmlns="http://www.w3.org/2000/svg" viewBox="0 0 300 300">
  <defs>
    <style>
      .cls-1 {
        fill: #0051b1;
      }
    </style>
  </defs>
  <path class="cls-1" d="M32.00303,160.62278c3.89968,2.29847,8.35868,3.47458,12.88467,3.39845,1.93376.01572,3.86346-.17968,5.75481-.58273,2.03116-.48875,3.34697-2.45482,3.02431-4.51889-.66609-5.87391-3.76332-11.19985-8.53917-14.68378-8.49085-5.99562-19.75826-3.95827-20.23659-3.86657-2.21085.47194-3.62477,2.64168-3.16365,4.8548,1.16686,6.32556,4.88234,11.89347,10.27562,15.39871ZM40.5001,150.78984c1.85982,1.31844,3.29584,3.14954,4.13297,5.27002-5.69473.24285-10.98964-2.92009-13.47523-8.04948,3.31358.02899,6.55173.99239,9.34226,2.77946Z"/>
  <path class="cls-1" d="M120.26361,154.60549c3.89968,2.29847,8.35868,3.47458,12.88468,3.39845,1.93376.01572,3.86345-.17968,5.75481-.58273,2.03116-.48875,3.34696-2.45482,3.02431-4.51889-.66608-5.87391-3.76332-11.19985-8.53917-14.68378-8.49079-5.99506-19.75658-3.95781-20.23646-3.86665-2.21183.46321-3.62937,2.63175-3.16616,4.84359.00078.00375.00158.00751.00237.01126,1.16685,6.32557,4.88233,11.89349,10.27562,15.39875ZM128.76069,144.77257c1.85982,1.31844,3.29584,3.14954,4.13297,5.27001-5.69473.24285-10.98964-2.92009-13.47523-8.04948,3.31358.02899,6.55173.99239,9.34225,2.77947Z"/>
  <path class="cls-1" d="M186.84553,134.35201c-.47696-.0901-11.74665-2.12812-20.23686,3.86657-4.77585,3.48393-7.87308,8.80987-8.53916,14.68378-.32269,2.0641.99313,4.03019,3.02431,4.51895,1.89136.40304,3.82105.59844,5.75481.58273,4.526.07612,8.98499-1.09998,12.88467-3.39845,5.3931-3.50508,9.10853-9.0727,10.27552-15.39799.46464-2.21385-.95047-4.38603-3.16329-4.85558ZM167.10229,150.04455c.83236-2.10821,2.25641-3.93086,4.10065-5.24848,2.79613-1.80671,6.0486-2.78058,9.37752-2.80786-2.48324,5.13379-7.78056,8.30017-13.47817,8.05634Z"/>
  <path class="cls-1" d="M65.75645,178.32599v-30.57748c2.65422-3.14256,10.49597-13.53902,10.00727-26.24102-.32417-8.4099-4.18291-16.02357-11.47045-22.63043-1.48011-1.34054-3.72064-1.38896-5.25728-.11361-6.38808,5.69683-10.40444,13.58446-11.25401,22.10149-.64762,8.8764,2.73209,17.70821,9.95143,26.282v31.17905c-18.701,2.2155-32.06514,19.17168-29.84964,37.87268,2.2155,18.701,19.17168,32.06514,37.87268,29.84963,18.701-2.2155,32.06514-19.17168,29.84963-37.87268-1.85443-15.65324-14.19639-27.9952-29.84963-29.84963ZM55.77759,121.53786c.47989-5.14019,2.52975-10.00823,5.87137-13.94338,3.63192,3.86219,5.78971,8.87877,6.09563,14.17157-.0573,6.38973-2.10102,12.60337-5.84786,17.77959-4.46888-6.07018-6.5246-12.11196-6.11914-18.00779ZM61.74493,238.24126c-14.40077,0-26.07491-11.67413-26.07491-26.07491s11.67413-26.07491,26.07491-26.07491,26.07491,11.67413,26.07491,26.07491c-.01594,14.39416-11.68074,26.05896-26.07491,26.07491Z"/>
  <path class="cls-1" d="M154.00998,178.32599v-44.61781c2.65423-3.14256,10.49597-13.53902,10.00726-26.24102-.32417-8.4099-4.18291-16.02357-11.47045-22.63043-1.47991-1.34103-3.72082-1.38946-5.25728-.11361-6.38809,5.69683-10.40445,13.58446-11.25401,22.10149-.64762,8.8764,2.73209,17.70821,9.95143,26.282v45.21939c-18.701,2.2155-32.06514,19.17168-29.84963,37.87268s19.17168,32.06514,37.87268,29.84963c18.701-2.2155,32.06514-19.17168,29.84963-37.87268-1.85443-15.65324-14.19639-27.9952-29.84963-29.84963ZM144.03111,107.49752c.47989-5.14019,2.52975-10.00823,5.87137-13.94338,3.63192,3.86219,5.7897,8.87877,6.09564,14.17157-.05729,6.38973-2.10102,12.60337-5.84785,17.77959-4.46888-6.07018-6.5246-12.11196-6.11915-18.00779ZM149.99845,238.24128c-14.40077,0-26.07491-11.67413-26.07491-26.07491s11.67413-26.07491,26.07491-26.07491,26.07491,11.67413,26.07491,26.07491c-.01595,14.39416-11.68074,26.05896-26.07491,26.07491Z"/>
  <path class="cls-1" d="M242.26351,178.32599v-74.70424c2.65423-3.14256,10.49597-13.53902,10.00726-26.24102-.32417-8.4099-4.18291-16.02357-11.47045-22.63043-1.48011-1.34056-3.72065-1.38897-5.25729-.11361-6.38809,5.69683-10.40445,13.58446-11.25401,22.10149-.64763,8.8764,2.73209,17.70821,9.95142,26.282v75.3058c-18.701,2.2155-32.06514,19.17168-29.84963,37.87268s19.17168,32.06514,37.87268,29.84963,32.06514-19.17168,29.84963-37.87268c-1.85443-15.65324-14.19639-27.9952-29.84962-29.84962ZM232.28464,77.4111c.47988-5.14018,2.52974-10.00822,5.87136-13.94338,3.63192,3.86219,5.7897,8.87877,6.09564,14.17157-.05729,6.38973-2.10102,12.60337-5.84785,17.77959-4.46888-6.07018-6.5246-12.11195-6.11914-18.00779ZM238.25198,238.24128c-14.40077,0-26.07491-11.67413-26.07491-26.07491s11.67413-26.07491,26.07491-26.07491,26.07491,11.67413,26.07491,26.07491c-.01595,14.39416-11.68074,26.05896-26.07491,26.07491Z"/>
  <path class="cls-1" d="M208.51715,122.5133c3.89968,2.29847,8.35868,3.47457,12.88467,3.39844,1.93376.01572,3.86345-.17968,5.75481-.58274,2.03113-.48875,3.34694-2.45479,3.02431-4.51884-.66608-5.87391-3.76331-11.19985-8.53916-14.68378-8.4911-5.9936-19.75577-3.9601-20.23634-3.86667-2.21376.46609-3.63052,2.63855-3.16442,4.8523.00017.00086.00035.00171.00054.00256,1.16685,6.32555,4.88233,11.89346,10.2756,15.39872ZM217.01421,112.68037c1.85982,1.31845,3.29584,3.14954,4.13297,5.27002-5.69473.24285-10.98964-2.92009-13.47523-8.04948,3.31358.02899,6.55173.99239,9.34227,2.77946Z"/>
  <path class="cls-1" d="M208.51715,148.58821c3.89968,2.29847,8.35867,3.47457,12.88467,3.39845,1.93376.01572,3.86345-.17968,5.75481-.58273,2.03113-.48875,3.34694-2.45479,3.02431-4.51884-.66608-5.87391-3.76331-11.19985-8.53916-14.68378-8.49356-5.99723-19.76228-3.95891-20.23675-3.86658-2.20855.4584-3.62733,2.62039-3.16894,4.82895.00179.00862.0036.01723.00545.02584,1.16685,6.32555,4.88234,11.89347,10.27561,15.3987ZM217.01421,138.75528c1.85982,1.31845,3.29584,3.14954,4.13297,5.27002-5.69473.24285-10.98964-2.92009-13.47523-8.04948,3.31358.02899,6.55173.99239,9.34227,2.77946Z"/>
  <path class="cls-1" d="M246.32303,120.81013c-.32263,2.06405.99318,4.03009,3.02431,4.51884,1.89136.40305,3.82105.59845,5.75481.58274,4.52599.07612,8.98499-1.09998,12.88467-3.39844,5.39322-3.50524,9.10867-9.07311,10.27552-15.39861.47269-2.2056-.93211-4.37678-3.13771-4.84947-.00854-.00184-.01711-.00364-.02566-.00542-.475-.09206-11.74761-2.12916-20.23686,3.86657-4.77582,3.48395-7.87302,8.80989-8.53909,14.6838ZM259.45647,112.70384c2.79613-1.80671,6.0486-2.78058,9.37752-2.80786-2.48324,5.13379-7.78056,8.30017-13.47817,8.05635.83238-2.10819,2.25642-3.93083,4.10066-5.24844l-.00002-.00005Z"/>
  <path class="cls-1" d="M275.10357,128.33473c-.475-.09206-11.74761-2.12721-20.23686,3.86657-4.77585,3.48393-7.87308,8.80988-8.53916,14.68378-.32269,2.06409.99313,4.0302,3.02433,4.51894,1.89136.40304,3.82105.59844,5.75481.58273,4.52599.07613,8.98499-1.09998,12.88467-3.39844,5.39318-3.50519,9.10862-9.07298,10.27552-15.39841.47575-2.20112-.92295-4.37115-3.12409-4.84689-.01305-.00282-.02614-.00559-.03922-.00828ZM255.36033,144.02727c.83236-2.10821,2.25641-3.93086,4.10065-5.24848,2.79613-1.80671,6.0486-2.78058,9.37752-2.80786-2.48324,5.13378-7.78055,8.30017-13.47817,8.05634Z"/>
  <path class="cls-1" d="M158.0215,220.19432h-5.66373l4.12415-3.74708c3.64671-2.92511,5.34132-7.65058,4.38459-12.22653-.93365-3.84198-3.92681-6.84572-7.76547-7.79289-4.51884-1.11357-9.33345.74531-13.19709,5.10157-1.46961,1.65785-1.31699,4.19317.34086,5.66278,1.65786,1.4696,4.19318,1.31699,5.66278-.34087,1.81772-2.05081,3.73142-3.01265,5.27393-2.63357.94201.23799,1.67308.98077,1.89607,1.92643.20025,1.69519-.55215,3.36238-1.95581,4.33372l-11.8436,10.75844c-1.64,1.48958-1.76194,4.02661-.27236,5.66661.76035.83712,1.83871,1.31443,2.96959,1.3144h16.04609c2.2155,0,4.01152-1.79602,4.01152-4.01152s-1.79602-4.01152-4.01152-4.01152v.00003Z"/>
  <path class="cls-1" d="M249.96728,198.5648c-.62865-1.48196-2.08246-2.44448-3.69225-2.44452h-16.04209c-2.2155,0-4.01152,1.79602-4.01152,4.01152s1.79602,4.01152,4.01152,4.01152h6.59021l-2.46709,2.55421c-1.09877,1.17132-1.38859,2.88706-.73551,4.35431.66034,1.4883,2.1366,2.44685,3.76481,2.44452,2.56303,0,4.72745,1.53272,4.72745,3.34653s-2.16442,3.34653-4.72745,3.34653c-1.53984.0552-3.02745-.56257-4.07518-1.69236-1.41876-1.70167-3.94837-1.93099-5.65004-.51223-1.70165,1.41878-1.93098,3.94838-.51221,5.65004,2.57761,2.95123,6.31929,4.62431,10.2374,4.5776,7.03094,0,12.7505-5.10065,12.7505-11.36958-.07376-3.83519-2.1372-7.35586-5.44729-9.29428l4.47183-4.62953c1.1186-1.1579,1.43633-2.87248.80691-4.35429Z"/>
  <path class="cls-1" d="M67.76221,220.18942h-1.95875v-20.05762c.00005-2.2155-1.79593-4.01157-4.01143-4.01162-1.14877-.00003-2.24242.49244-3.00385,1.35261l-6.0643,6.85073c-1.46853,1.65923-1.31393,4.19479.34531,5.66332,1.30688,1.15667,3.21159,1.33581,4.71122.44309v9.75948h-1.95973c-2.2155,0-4.01152,1.79602-4.01152,4.01152s1.79602,4.01152,4.01152,4.01152h11.94152c2.21551,0,4.01152-1.79602,4.01152-4.01152s-1.79602-4.01152-4.01152-4.01152Z"/>
</svg>