<?xml version="1.0" encoding="UTF-8"?>
<svg id="Layer_1" xmlns="http://www.w3.org/2000/svg" xmlns:svgjs="http://svgjs.dev/svgjs" version="1.1" viewBox="0 0 300 300">
  <!-- Generator: Adobe Illustrator 29.1.0, SVG Export Plug-In . SVG Version: 2.1.0 Build 142)  -->
  <defs>
    <style>
      .st0 {
        fill: #0051b1;
      }
    </style>
  </defs>
  <g id="Page-1">
    <g id="_x30_09---Leaf">
      <path id="Shape" class="st0" d="M137.6,244.8v17.2c0,6.9,5.6,12.5,12.5,12.5s12.5-5.6,12.5-12.5v-17.3c26.1-2.3,46.9-12.1,61.8-29.2,28.7-32.9,25.4-80.5,25.2-82.5-.1-1.5-1-2.7-2.3-3.4-6.9-2.7-14.2-4.2-21.7-4.4,3.7-19.4.1-39.5-10-56.5-.8-1.1-2.1-1.8-3.4-1.8-9.1.1-18.1,2.2-26.3,6.2-8.6-31.1-28.7-44.2-33.1-46.8-.8-.6-1.7-1-2.8-1-1,0-2,.3-2.8,1-4.5,2.6-24.4,15.6-33.1,46.8-8.2-4-17.2-6.1-26.3-6.2-1.4,0-2.7.7-3.5,1.8-10.1,17-13.6,37.1-10,56.5-7.4.2-14.8,1.7-21.7,4.4-1.3.7-2.2,1.9-2.3,3.4-.2,2-3.5,49.7,25.3,82.6,14.9,17.1,35.8,26.8,61.9,29.1h0ZM154.2,262.1c0,2.3-1.9,4.2-4.2,4.2s-4.2-1.9-4.2-4.2v-53.5c0-1.4-.7-2.8-2-3.5l-50-30.8c-1.4-.9-2.2-2.5-1.9-4.2s1.5-3,3.1-3.4c.3,0,.6-.1,1-.1.8,0,1.5.2,2.2.6l41.3,25.4c1.3.8,2.9.8,4.2,0s2.1-2.1,2.1-3.6v-38.8c0-1.4-.7-2.7-1.8-3.5l-33.7-22.4c-.9-.6-1.6-1.6-1.8-2.6-.2-1.1,0-2.2.6-3.1.6-.9,1.6-1.6,2.6-1.8,1.1-.2,2.2,0,3.1.6l24.5,16.3c1.3.8,2.9.9,4.3.2,1.4-.7,2.2-2.1,2.2-3.7v-34.3c0-2.3,1.9-4.2,4.2-4.2s4.2,1.9,4.2,4.2v34.3c0,1.5.8,2.9,2.2,3.7,1.4.7,3,.6,4.3-.2l24.5-16.3c1.9-1.3,4.5-.8,5.8,1.2,1.3,1.9.8,4.5-1.2,5.8l-33.7,22.4c-1.2.8-1.8,2.1-1.8,3.5v38.8c0,1.5.8,2.9,2.1,3.6s2.9.7,4.2,0l41.3-25.4c1.9-1,4.3-.4,5.5,1.5,1.1,1.9.6,4.3-1.1,5.6l-50,30.8c-1.2.8-2,2.1-2,3.5v53.5ZM58.6,136.2c6.8-1.9,13.8-2.8,20.9-2.8,1.3,0,2.5-.6,3.3-1.6.8-1,1.1-2.3.8-3.6-4.4-17.8-2-36.7,6.6-52.9,8.6.5,17,3.1,24.4,7.5,1.1.8,2.6.9,3.9.4,1.3-.5,2.2-1.6,2.5-3,6.5-29.2,23.3-42.2,29.1-45.9,5.7,3.7,22.7,16.7,29.1,45.8.3,1.3,1.2,2.5,2.5,3,1.3.5,2.7.4,3.9-.4,7.4-4.4,15.8-7,24.4-7.5,8.6,16.2,11,35.1,6.6,52.9-.3,1.2,0,2.6.8,3.6s2,1.6,3.3,1.6c7.1,0,14.1.9,20.9,2.8.2,10-.5,47.8-23.3,74-13.3,15.2-32,24-55.5,26.3v-25.5l48-29.6c2.8-1.7,4.8-4.5,5.6-7.7.8-3.2.2-6.6-1.5-9.4-3.6-5.9-11.3-7.7-17.1-4.1l-35,21.5v-29.2l31.8-21.2c4.2-2.8,6.3-7.8,5.3-12.8-1-4.9-4.8-8.8-9.8-9.8-3.2-.7-6.6,0-9.3,1.9l-18,12v-26.5c0-6.9-5.6-12.5-12.5-12.5s-12.5,5.6-12.5,12.5v26.5l-18-12c-5.7-3.8-13.5-2.3-17.3,3.5-3.8,5.7-2.3,13.5,3.5,17.3l31.8,21.2v29.2l-35-21.5c-3.8-2.4-8.6-2.6-12.5-.5-4,2.1-6.5,6.2-6.6,10.7-.1,4.5,2.2,8.7,6.1,11l48,29.6v25.6c-23.5-2.2-42.3-11-55.6-26.2-22.9-26.2-23.6-64.1-23.4-74h0Z"/>
    </g>
  </g>
</svg>