<?xml version="1.0" encoding="UTF-8"?>
<svg id="Layer_1" xmlns="http://www.w3.org/2000/svg" xmlns:svgjs="http://svgjs.dev/svgjs" version="1.1" viewBox="0 0 300 300">
  <!-- Generator: Adobe Illustrator 29.1.0, SVG Export Plug-In . SVG Version: 2.1.0 Build 142)  -->
  <defs>
    <style>
      .st0 {
        fill: #ee404c;
      }
    </style>
  </defs>
  <g id="Remove">
    <path class="st0" d="M250.6,80.5H49.4c-5,0-9-4-9-9s4-9,9-9h201.2c5,0,9,4,9,9s-4,9-9,9Z"/>
    <path class="st0" d="M190.2,80.5c-5,0-9-4-9-9v-20.1c0-6.1-5-11.1-11.1-11.1h-40.2c-6.1,0-11.1,5-11.1,11.1v20.1c0,5-4,9-9,9s-9-4-9-9v-20.1c0-16.1,13.1-29.1,29.1-29.1h40.2c16.1,0,29.1,13.1,29.1,29.1v20.1c0,5-4,9-9,9Z"/>
    <path class="st0" d="M190.2,277.7h-80.5c-27.2,0-49.2-22.1-49.2-49.2V71.5c0-5,4-9,9-9s9,4,9,9v157c0,17.2,14,31.2,31.2,31.2h80.5c17.2,0,31.2-14,31.2-31.2v-116.7c0-5,4-9,9-9s9,4,9,9v116.7c0,27.2-22.1,49.2-49.2,49.2Z"/>
    <path class="st0" d="M109.8,237.5c-5,0-9-4-9-9v-96.6c0-5,4-9,9-9s9,4,9,9v96.6c0,5-4,9-9,9Z"/>
    <path class="st0" d="M150,237.5c-5,0-9-4-9-9v-96.6c0-5,4-9,9-9s9,4,9,9v96.6c0,5-4,9-9,9Z"/>
    <path class="st0" d="M190.2,237.5c-5,0-9-4-9-9v-96.6c0-5,4-9,9-9s9,4,9,9v96.6c0,5-4,9-9,9Z"/>
  </g>
</svg>