<?xml version="1.0" encoding="UTF-8"?>
<svg id="Layer_1" data-name="Layer 1" xmlns="http://www.w3.org/2000/svg" viewBox="0 0 300 300">
  <defs>
    <style>
      .cls-1 {
        fill: #0051b1;
      }
    </style>
  </defs>
  <path class="cls-1" d="M245.4432,260.51317H54.5568c-13.84429,0-25.11663-11.2623-25.11663-25.11663V64.60346c0-13.84429,11.27234-25.11663,25.11663-25.11663h190.88639c13.84429,0,25.11663,11.27234,25.11663,25.11663v170.79309c0,13.85433-11.27234,25.11663-25.11663,25.11663ZM54.5568,49.53348c-8.30858,0-15.06998,6.7614-15.06998,15.06998v170.79309c0,8.30858,6.7614,15.06998,15.06998,15.06998h190.88639c8.30858,0,15.06998-6.7614,15.06998-15.06998V64.60346c0-8.30858-6.7614-15.06998-15.06998-15.06998H54.5568Z"/>
  <path class="cls-1" d="M265.5365,89.72009H34.4635c-2.77288,0-5.02333-2.25045-5.02333-5.02333s2.25045-5.02333,5.02333-5.02333h231.073c2.77287,0,5.02333,2.25045,5.02333,5.02333s-2.25046,5.02333-5.02333,5.02333Z"/>
  <path class="cls-1" d="M150,235.39654c-36.0072,0-65.30324-29.29604-65.30324-65.30324s29.29604-65.30324,65.30324-65.30324,65.30324,29.29604,65.30324,65.30324-29.29604,65.30324-65.30324,65.30324ZM150,114.83672c-30.4715,0-55.25659,24.78509-55.25659,55.25659,0,30.46145,24.78509,55.25659,55.25659,55.25659s55.25659-24.79514,55.25659-55.25659c0-30.4715-24.78509-55.25659-55.25659-55.25659Z"/>
  <path class="cls-1" d="M175.11663,200.23326c-1.09509,0-2.21027-.36167-3.13456-1.09508l-25.11663-20.0933c-1.19556-.95443-1.88877-2.40115-1.88877-3.92824v-35.16328c0-2.77288,2.25045-5.02333,5.02333-5.02333s5.02333,2.25045,5.02333,5.02333v32.75209l23.22786,18.5863c2.16003,1.73807,2.51166,4.89271.78364,7.06279-.98457,1.23573-2.45139,1.87873-3.9182,1.87873Z"/>
</svg>