<?xml version="1.0" encoding="UTF-8"?>
<svg id="Layer_1" xmlns="http://www.w3.org/2000/svg" xmlns:svgjs="http://svgjs.dev/svgjs" version="1.1" viewBox="0 0 300 300">
  <!-- Generator: Adobe Illustrator 29.1.0, SVG Export Plug-In . SVG Version: 2.1.0 Build 142)  -->
  <defs>
    <style>
      .st0, .st1 {
        fill: #0051b1;
      }

      .st1 {
        fill-rule: evenodd;
      }
    </style>
  </defs>
  <path class="st0" d="M150,16.6c73.8,0,133.6,59.9,133.5,133.7,0,53.6-32.1,102.1-81.6,123-68,28.7-146.4-3.1-175.1-71.1C-1.8,134.2,30,55.9,98,27.1c16.4-7,34.1-10.5,52-10.5M150,.2C67.2.2,0,67.4,0,150.2s67.2,150,150,150,150-67.2,150-150S232.8.2,150,.2Z"/>
  <g>
    <path class="st1" d="M150,106.2c-24.2,0-43.8,19.6-43.8,43.8s19.6,43.8,43.8,43.8,43.8-19.6,43.8-43.8-19.6-43.8-43.8-43.8ZM150,120c-16.6,0-30,13.4-30,30s13.4,30,30,30,30-13.4,30-30-13.4-30-30-30Z"/>
    <path class="st1" d="M126.9,60.1c1.4-5.3,6.2-9.2,12-9.2h21.6c5.7,0,10.5,3.9,12,9.2h0c0,.1,4,16.7,4,16.7.2.7.8,1.5,2,2,.5.2,1.1.4,1.6.7,1.2.5,2.2.3,2.8,0l14-8.4c4.8-2.9,11-2.2,15,1.8l15.3,15.3c4,4,4.7,10.2,1.8,15l-8.4,14c-.4.6-.5,1.6,0,2.8.2.5.5,1.1.7,1.6.5,1.2,1.3,1.8,2,2l16.5,4c5.5,1.3,9.4,6.3,9.4,11.9v21.6c0,5.7-3.9,10.6-9.4,11.9l-16.5,4c-.7.2-1.5.8-2,2-.2.5-.4,1.1-.7,1.6-.5,1.2-.3,2.2,0,2.8l8.4,14c2.9,4.8,2.2,11-1.8,15l-15.3,15.3c-4,4-10.2,4.7-15,1.8l-14-8.4c-.6-.4-1.6-.5-2.8,0-.5.2-1.1.5-1.7.7-1.2.5-1.8,1.3-2,2l-4,15.9h0c-1.4,5.3-6.2,9.3-12,9.3h-21.6c-5.7,0-10.5-3.9-12-9.2h0c0,0-4-16-4-16-.2-.7-.8-1.5-2-2-.6-.2-1.1-.4-1.7-.7-1.2-.5-2.2-.3-2.8,0l-14,8.4c-4.8,2.9-11,2.2-15-1.8l-15.3-15.3c-4-4-4.7-10.2-1.8-15l8.4-14c.4-.6.5-1.6,0-2.8-.2-.6-.5-1.1-.7-1.7-.5-1.2-1.3-1.8-2-2l-15.8-4c-5.5-1.3-9.4-6.3-9.4-11.9v-21.6c0-5.6,3.9-10.6,9.4-11.9l15.8-4c.7-.2,1.5-.8,2-2,.2-.6.5-1.1.7-1.7.5-1.2.3-2.2,0-2.8l-8.4-14c-2.9-4.8-2.2-11,1.8-15l15.3-15.3c4-4,10.2-4.7,15-1.8l14,8.4c.6.4,1.6.5,2.8,0,.5-.2,1.1-.4,1.6-.7,1.2-.5,1.8-1.3,2-2l4-16.6h0ZM136.3,80l3.7-15.3h19.3l3.7,15.3c1.3,5.6,5.5,9.7,10.3,11.6.4.2.9.4,1.3.5,4.7,2,10.5,2,15.3-.9l13-7.8,13.6,13.6-7.8,13c-2.9,4.9-2.9,10.6-.9,15.3.2.4.4.9.6,1.3,1.9,4.8,6,8.9,11.6,10.3l15.4,3.8v19.1l-15.4,3.8c-5.6,1.4-9.6,5.5-11.6,10.3-.2.4-.4.9-.6,1.3-2,4.7-2,10.5.9,15.3l7.8,13-13.6,13.6-13-7.8c-4.9-2.9-10.6-2.9-15.3-.9-.4.2-.9.4-1.4.6-4.8,1.9-8.9,6-10.3,11.5l-3.7,14.7h-19.3l-3.7-14.7c-1.4-5.5-5.5-9.6-10.3-11.5-.5-.2-.9-.4-1.4-.6-4.7-2-10.5-2-15.3.9l-13,7.8-13.6-13.6,7.8-13c2.9-4.9,2.9-10.6.9-15.3-.2-.5-.4-.9-.6-1.4-1.9-4.8-5.9-8.9-11.4-10.3l-14.8-3.7v-19.1l14.8-3.7c5.5-1.4,9.5-5.5,11.4-10.3.2-.5.4-.9.6-1.4,2-4.7,2-10.5-.9-15.3l-7.8-13,13.6-13.6,13,7.8c4.9,2.9,10.6,2.9,15.3.9.4-.2.9-.4,1.3-.5,4.8-1.9,8.9-6,10.3-11.6Z"/>
  </g>
</svg>