<?xml version="1.0" encoding="UTF-8"?>
<svg id="Layer_1" xmlns="http://www.w3.org/2000/svg" xmlns:svgjs="http://svgjs.dev/svgjs" version="1.1" viewBox="0 0 300 300">
  <!-- Generator: Adobe Illustrator 29.1.0, SVG Export Plug-In . SVG Version: 2.1.0 Build 142)  -->
  <defs>
    <style>
      .st0 {
        fill: #0051b1;
      }
    </style>
  </defs>
  <path class="st0" d="M270.3,29.8c-17.8-17.8-46.7-17.8-64.4,0l-115.1,115.1c-1.1,1.1-1.9,2.6-2.3,4.2l-14.3,66.9c-.6,2.8.3,5.6,2.3,7.6,1.6,1.6,3.7,2.4,5.9,2.4s1.2,0,1.7-.2l67-14.3c1.6-.3,3-1.1,4.2-2.3l115.1-115.1c8.6-8.6,13.3-20,13.3-32.2s-4.7-23.6-13.3-32.2h0ZM101.6,167.5l30.9,30.9-39.3,8.4,8.4-39.3ZM258.5,82.4l-109.2,109.2-40.8-40.8,109.2-109.2c11.3-11.3,29.6-11.3,40.8,0,5.4,5.4,8.4,12.7,8.4,20.4s-3,15-8.4,20.4h0ZM241.7,164.7v87.7c0,17.2-14,31.2-31.2,31.2H47.6c-17.2,0-31.2-14-31.2-31.2V89.5c0-17.2,14-31.2,31.2-31.2h87.7c4.6,0,8.3,3.7,8.3,8.3s-3.7,8.3-8.3,8.3H47.6c-8,0-14.5,6.5-14.5,14.5v162.9c0,8,6.5,14.5,14.5,14.5h162.9c8,0,14.5-6.5,14.5-14.5v-87.7c0-4.6,3.7-8.3,8.3-8.3s8.3,3.7,8.3,8.3h0Z"/>
</svg>