<?xml version="1.0" encoding="UTF-8"?>
<svg id="Layer_1" xmlns="http://www.w3.org/2000/svg" xmlns:svgjs="http://svgjs.dev/svgjs" version="1.1" viewBox="0 0 300 300">
  <!-- Generator: Adobe Illustrator 29.1.0, SVG Export Plug-In . SVG Version: 2.1.0 Build 142)  -->
  <defs>
    <style>
      .st0 {
        fill: #0051b1;
      }
    </style>
  </defs>
  <path class="st0" d="M244.6,55.4c-21.8-21.8-50.7-33.8-81.5-33.8s-59.7,12-81.5,33.8c-21.8,21.8-33.8,50.7-33.8,81.5s0,1.3,0,1.9c-.9.8-1.8,1.7-2.7,2.5-15.1,15.2-23.5,35.3-23.5,56.7s7.9,17.5,17.5,17.5h30l-3.1,50.4c-.2,3.1.9,6.2,3.1,8.5,2.3,2.4,5.4,3.8,8.7,3.8h47.9c3.3,0,6.5-1.4,8.7-3.8,2.2-2.3,3.3-5.4,3.1-8.5l-.8-13.8h61.3c4.2,0,8.2-1.8,11.1-4.8,2.8-3,4.2-6.8,3.9-10.7l-4.7-76.4h46.5c12.9,0,23.4-10.5,23.4-23.4,0-30.8-12-59.7-33.8-81.5ZM127.2,267.7c-.4.4-.9.6-1.4.6h-30.7v-24c0-2.8-2.2-5-5-5s-5,2.2-5,5v24h-7.1c-.5,0-1.1-.2-1.4-.6-.2-.2-.4-.6-.4-1l3.1-51h45.3l3.1,51c0,.4-.2.8-.4,1ZM39.2,205.6c-4.1,0-7.5-3.4-7.5-7.5,0-18.7,7.3-36.4,20.6-49.6,1.3-1.3,2.7-2.6,4.1-3.8,0,0,0,0,0,0,12.7-10.8,28.6-16.7,45.4-16.7s12.3.8,18.1,2.4c-2.2,4-3.3,8.5-3.3,13.2,0,15.3,12.4,27.7,27.7,27.7s13.7-2.7,18.8-7.3c5.8,10.4,8.9,22.1,8.9,34.3s-3.4,7.5-7.5,7.5H39.2ZM126.7,143.5c0-3.5,1-6.9,3-9.8,8,3.5,15.4,8.5,21.8,14.8,2.2,2.2,4.2,4.4,6,6.8-3.3,3.7-8,5.8-13.1,5.8-9.7,0-17.7-7.9-17.7-17.7ZM201.9,240.6c-1,1-2.4,1.7-3.8,1.7h-61.9l-1.6-26.6h30c9.7,0,17.5-7.9,17.5-17.5s-3.3-26.3-9.4-37.8h25.7l4.7,77c0,1.6-.7,2.7-1.2,3.2ZM254.9,150.3h-88.6c-2.3-3.1-4.9-6.1-7.7-8.9-15.2-15.2-35.3-23.5-56.7-23.5s-31,4.6-43.9,13.1c1.4-25.9,12.2-50,30.7-68.5,19.9-19.9,46.3-30.8,74.4-30.8s54.6,11,74.4,30.8c19.9,19.9,30.8,46.3,30.8,74.4s-6,13.4-13.4,13.4Z"/>
  <path class="st0" d="M144.9,45.8c-.7-2.7-3.4-4.3-6.1-3.6-2.7.7-4.3,3.4-3.6,6.1.6,2.3,2.6,3.8,4.9,3.8s.8,0,1.2-.2c0,0,0,0,0,0,2.7-.7,4.3-3.4,3.6-6.1Z"/>
  <path class="st0" d="M130.7,49.9c-1.1-2.5-4.1-3.7-6.6-2.6-11.3,4.9-21.4,11.8-30.1,20.6-2,2-2,5.1,0,7.1s2.3,1.5,3.5,1.5,2.6-.5,3.5-1.5c7.9-7.9,17-14.1,27.1-18.5,2.5-1.1,3.7-4.1,2.6-6.6Z"/>
  <path class="st0" d="M168.5,71c-11.1,0-20.1,9-20.1,20.1s9,20.1,20.1,20.1,20.1-9,20.1-20.1-9-20.1-20.1-20.1ZM168.5,101c-5.5,0-10-4.5-10-10s4.5-10,10-10,10,4.5,10,10-4.5,10-10,10Z"/>
  <path class="st0" d="M228.1,103.4c-8.3,0-15,6.7-15,15s6.7,15,15,15,15-6.7,15-15-6.7-15-15-15ZM228.1,123.5c-2.8,0-5-2.2-5-5s2.2-5,5-5,5,2.2,5,5-2.2,5-5,5Z"/>
  <path class="st0" d="M81,159.4c-8.3,0-15,6.7-15,15s6.7,15,15,15,15-6.7,15-15-6.7-15-15-15ZM81,179.5c-2.8,0-5-2.2-5-5s2.2-5,5-5,5,2.2,5,5-2.2,5-5,5Z"/>
  <path class="st0" d="M90,224.2c-2.8,0-5,2.2-5,5v.2c0,2.8,2.2,5,5,5s5-2.2,5-5v-.2c0-2.8-2.2-5-5-5Z"/>
</svg>