<?xml version="1.0" encoding="UTF-8"?>
<svg id="Layer_1" xmlns="http://www.w3.org/2000/svg" xmlns:svgjs="http://svgjs.dev/svgjs" version="1.1" viewBox="0 0 300 300">
  <!-- Generator: Adobe Illustrator 29.1.0, SVG Export Plug-In . SVG Version: 2.1.0 Build 142)  -->
  <defs>
    <style>
      .st0 {
        fill: #ee404c;
      }
    </style>
  </defs>
  <circle class="st0" cx="150" cy="203.6" r="11.9"/>
  <path class="st0" d="M269.1,19H30.9c-13.1,0-23.8,10.7-23.8,23.8v166.8c0,13.1,10.7,23.8,23.8,23.8h83.4c-.3,9.5-2.1,24.7-8.9,31.9-2.5,2.6-5.4,3.9-9,3.9s-6,2.7-6,6,2.7,6,6,6h107.2c3.3,0,6-2.7,6-6s-2.7-6-6-6-6.5-1.2-9-3.9c-6.8-7.1-8.6-22.4-8.9-31.9h83.4c13.1,0,23.8-10.7,23.8-23.8V42.8c0-13.1-10.7-23.8-23.8-23.8ZM117.5,269.1c7.2-11,8.6-26.9,8.8-35.7h47.5c.2,8.8,1.6,24.7,8.8,35.7h-65.1ZM281,209.6c0,6.6-5.3,11.9-11.9,11.9H30.9c-6.6,0-11.9-5.3-11.9-11.9v-23.8h262.1v23.8ZM281,173.8H19V42.8c0-6.6,5.3-11.9,11.9-11.9h238.2c6.6,0,11.9,5.3,11.9,11.9v131h0Z"/>
  <path class="st0" d="M66.6,90.4c3.3,0,6-2.7,6-6s-2.7-6-6-6h-23.8c-3.3,0-6,2.7-6,6v47.6c0,3.3,2.7,6,6,6h23.8c3.3,0,6-2.7,6-6s-2.7-6-6-6h-17.9v-11.9h11.9c3.3,0,6-2.7,6-6s-2.7-6-6-6h-11.9v-11.9h17.9Z"/>
  <path class="st0" d="M197.6,78.5c-9.9,0-17.9,8-17.9,17.9v23.8c0,9.9,8,17.9,17.9,17.9s17.9-8,17.9-17.9v-23.8c0-9.9-8-17.9-17.9-17.9ZM203.6,120.2c0,3.3-2.7,6-6,6s-6-2.7-6-6v-23.8c0-3.3,2.7-6,6-6s6,2.7,6,6v23.8Z"/>
  <path class="st0" d="M102.4,78.5h-11.9c-3.3,0-6,2.7-6,6v47.6c0,3.3,2.7,6,6,6s6-2.7,6-6v-17.9h6c3.3,0,6,2.7,6,6v11.9c0,3.3,2.7,6,6,6s6-2.7,6-6v-11.9c0-4.6-1.7-8.7-4.6-11.9,2.8-3.2,4.6-7.3,4.6-11.9,0-9.9-8-17.9-17.9-17.9ZM102.4,102.4h-6v-11.9h6c3.3,0,6,2.7,6,6s-2.7,6-6,6Z"/>
  <path class="st0" d="M245.3,78.5h-11.9c-3.3,0-6,2.7-6,6v47.6c0,3.3,2.7,6,6,6s6-2.7,6-6v-17.9h6c3.3,0,6,2.7,6,6v11.9c0,3.3,2.7,6,6,6s6-2.7,6-6v-11.9c0-4.6-1.7-8.7-4.6-11.9,2.8-3.2,4.6-7.3,4.6-11.9,0-9.9-8-17.9-17.9-17.9ZM245.3,102.4h-6v-11.9h6c3.3,0,6,2.7,6,6s-2.7,6-6,6Z"/>
  <path class="st0" d="M150,78.5h-11.9c-3.3,0-6,2.7-6,6v47.6c0,3.3,2.7,6,6,6s6-2.7,6-6v-17.9h6c3.3,0,6,2.7,6,6v11.9c0,3.3,2.7,6,6,6s6-2.7,6-6v-11.9c0-4.6-1.7-8.7-4.6-11.9,2.8-3.2,4.6-7.3,4.6-11.9,0-9.9-8-17.9-17.9-17.9ZM150,102.4h-6v-11.9h6c3.3,0,6,2.7,6,6s-2.7,6-6,6Z"/>
</svg>