<?xml version="1.0" encoding="UTF-8"?>
<svg id="Layer_1" data-name="Layer 1" xmlns="http://www.w3.org/2000/svg" viewBox="0 0 300 300">
  <defs>
    <style>
      .cls-1, .cls-2 {
        fill: #0051b1;
      }

      .cls-2 {
        fill-rule: evenodd;
      }
    </style>
  </defs>
  <g>
    <path class="cls-1" d="M141.35283,154.55057c-21.15327,0-38.96775,13.63278-45.64546,19.49567-.28426.24838-.55149.51562-.79988.79988-3.05791,3.49969-2.69979,8.81566.79988,11.87357,6.67746,5.86058,24.49194,19.49334,45.64521,19.49334,20.89916,0,38.31527-13.08033,45.40148-19.27576,4.48127,3.94665,15.45564,13.61228,15.45564,13.61228.88794.78183,2.0304,1.21322,3.2135,1.21343,2.68637.0005,4.86451-2.17686,4.86499-4.86324v-30.81094c-.0146-1.02516-.35047-2.01991-.9603-2.84411-1.60928-2.17497-4.67702-2.63354-6.85199-1.02426l-15.49211,11.80659c-6.93455-6.10904-24.50505-19.47641-45.63096-19.47641v-.00002ZM194.33576,180.6527l6.22626-4.74213v10.22497s-6.22626-5.48284-6.22626-5.48284ZM179.44665,180.37471c-24.29782,21.14731-52.05194,21.05972-76.19236.00594,24.17141-21.08733,52.01755-21.10335,76.19247-.00594h-.00012Z"/>
    <path class="cls-1" d="M66.08623,205.85881c-17.17019,0-31.63027,11.06578-37.0506,15.8247-.23073.20161-.44765.41853-.64926.64926-2.48212,2.84071-2.19143,7.1557.64926,9.63782,5.42012,4.75705,19.8802,15.82282,37.05039,15.82282,16.96393,0,31.10065-10.61735,36.85255-15.6462,3.63746,3.20351,12.5454,11.04914,12.5454,11.04914.72075.63462,1.64809.98477,2.60841.98494,2.18054.00041,3.94854-1.76696,3.94893-3.94751v-25.00936c-.01185-.83213-.28448-1.63957-.77948-2.30858-1.30626-1.76543-3.79636-2.13766-5.56179-.8314l-12.575,9.58345c-5.6288-4.95873-19.89084-15.80908-37.03882-15.80908v-.00002ZM109.09267,227.04601l5.05388-3.8492v8.29965s-5.05388-4.45045-5.05388-4.45045ZM97.00713,226.82036c-19.72263,17.16535-42.25076,17.09425-61.84563.00482,19.62002-17.11666,42.22284-17.12967,61.84572-.00482h-.00009Z"/>
    <path class="cls-1" d="M298.57254,145.79389v-36.17196c-.017-1.20393-.41145-2.37218-1.12774-3.34001-1.88948-2.55302-5.49086-3.09093-8.04387-1.20144l-18.18284,13.86278c-8.14145-7.17236-28.76886-22.86461-53.56992-22.86461-24.82802,0-45.75336,16.00205-53.59268,22.88235-.32621.28591-.63324.59296-.91916.91916-3.60243,4.11008-3.19091,10.36231.91916,13.96475,7.83909,6.88037,28.76444,22.88242,53.59269,22.88242,24.5352,0,44.98137-15.3539,53.30092-22.62696,5.25987,4.63287,18.13961,15.97787,18.13961,15.97787,1.04323.91789,2.38511,1.42433,3.77467,1.42458,3.14556-.01787,5.69117-2.56336,5.70916-5.70893ZM262.37033,126.39579c-28.526,24.82651-61.11554,24.7178-89.45538.00415,28.37751-24.75122,61.07509-24.77358,89.45538-.00415ZM287.15394,133.15625l-7.30405-6.43414,7.30405-5.5673v12.00144Z"/>
  </g>
  <path class="cls-2" d="M8.48656,190.7628c-5.27255,0-8.75295-5.71409-6.20758-10.41523.05195-.10389.10389-.18181.18181-.25973l27.37569-37.29743c.93503-1.63631,2.4155-2.77913,4.23362-3.29859,1.89604-.51946,3.79208-.2857,5.48033.70127l12.93462,7.58416,18.64871-25.8173c.72725-1.68825,2.0259-2.96094,3.76611-3.66221,1.79215-.72725,3.71416-.70127,5.50631.07792l10.49315,4.57127,18.80455-28.93408c.93503-1.68825,2.44147-2.83107,4.28557-3.32456,1.89604-.51946,3.79208-.25973,5.45436.75322l13.14241,7.81791,25.01213-29.76522-11.48013-7.89583c-1.58436-1.0649-1.0649-3.55832.80517-3.89597l29.27173-5.45436c1.19476-.23376,2.31161.54544,2.54537,1.71423l5.45436,29.27173c.33765,1.89604-1.76617,3.27262-3.35053,2.18174l-11.55805-7.92181-28.93408,35.1936c-1.32463,1.89604-3.4804,3.03886-5.81798,3.03886-1.24671,0-2.51939-.33765-3.61027-1.01295l-12.571-7.50624-18.38898,28.2328c-1.97396,3.22067-5.66214,4.41543-8.96073,2.98691l-10.02563-4.38946-19.01234,26.59649c-.80517,1.81812-2.23369,3.14275-4.1557,3.79208-1.97396.6753-4.05181.46752-5.86993-.59738l-13.50603-7.92181-23.81737,31.29763c-1.24671,2.18174-3.58429,3.55832-6.12966,3.55832Z"/>
</svg>