<?xml version="1.0" encoding="UTF-8"?>
<svg id="Layer_1" xmlns="http://www.w3.org/2000/svg" xmlns:svgjs="http://svgjs.dev/svgjs" version="1.1" viewBox="0 0 300 300">
  <!-- Generator: Adobe Illustrator 29.1.0, SVG Export Plug-In . SVG Version: 2.1.0 Build 142)  -->
  <defs>
    <style>
      .st0 {
        fill: #0051b1;
      }
    </style>
  </defs>
  <path class="st0" d="M281.2,71.8c-.3-35.3-261.6-35.5-262.5,0,0,.3,0,131.4,0,131.7,0,.1,0,24.6,0,24.7.4,35.4,261.4,35.5,262.5.1.1,0,0-156.4,0-156.5h0ZM150,54.8c75.5,0,118.3,10.8,121.8,17-3.5,6.2-46.3,17-121.8,17s-118.3-10.8-121.8-17c3.5-6.2,46.3-17,121.8-17ZM271.9,228c-2.7,6.2-45.5,17.2-121.9,17.2s-118.9-10.9-121.8-17.1v-13.6c4.2,2.1,9.9,4.1,17.2,5.9,46.9,12.3,162.4,12.3,209.3,0,7.3-1.8,13-3.7,17.2-5.9v13.5h0ZM197,207.5c.3-11.3,16.5-11.3,16.8,0-.3,11.3-16.5,11.3-16.8,0ZM271.9,203.1c-3.9,6.2-36.8,12.1-51.2,13.4,7.2-11.3-1.8-27.4-15.2-27-14.9-.3-23.4,18.5-13.5,29.5-35.1,2.2-80.2,1.4-112.5-2.5-.1-4.2-.6-8.6-1.5-13-3.6-17.2-.6-23.9-.5-24.3,1.2-2.2.4-5-1.8-6.3-8-3.6-11.3,9.4-6.9,32.4.7,3.4,1,6.7,1.2,9.9-6.2-.9-11.8-1.8-17-2.9,1.7-5.7,4.1-17.7.9-33.2-3.5-17.2-.6-23.9-.5-24.3,1.2-2.2.4-5-1.8-6.3-8-3.7-11.3,9.4-6.9,32.4,2.9,14.2.4,24.9-.9,29.2-12.9-3.5-15.3-6.5-15.7-7.1v-120.4c48,20.8,195.5,20.8,243.7,0,0,0,0,120.3,0,120.3h0ZM120.3,112.5c-.9,1-1.3,2.3-1.2,3.7.1,1.2,1.3,10.1,3.6,17-4,2.9-7.8,6.1-11.2,9.3-9-10.1-14.6-19.3-14.7-19.5-.9-1.5-2.6-2.4-4.4-2.3-1.8.1-3.3,1.2-4,2.9l-5.7,13.7c-3.2,7.6-3.2,16.4,0,24l5.7,13.7c1.3,3.5,6.5,3.9,8.3.6.1-.2,5.7-9.4,14.7-19.5,3.4,3.3,7.2,6.4,11.2,9.3-2.4,6.9-3.5,15.8-3.6,17-.4,2.7,1.9,5.3,4.7,5.2,10,0,31.7-8.3,35.9-10,36.3-2,42.2-26.4,41.7-29.4-.2-1.1-6.2-25.9-41.7-27.4-4.3-1.7-25.9-9.9-35.8-9.9s-2.6.6-3.5,1.6h0ZM93.7,163.2l-2.4-5.6c-3.4-7.3-1-15.5,2.4-22.3,13.7,19,13.7,9,0,27.9h0ZM129.3,177.5c.4-2.2.9-4.7,1.6-6.9,2.9,1.6,5.9,2.9,9,4.1-3.7,1.2-7.4,2.2-10.5,2.8h0ZM171.6,132.1c14.6,4.2,19.1,13.9,20.3,17.2-1.1,3.2-5.7,13-20.3,17.2v-34.3ZM162.2,130.4v37.7c-16.6,2.3-32.3-7.3-44.2-18.9,10.5-10.1,23.9-19.2,38.3-19.2s4,.1,5.9.3h0ZM139.8,123.9c-7.4,2-9.3,8-10.5-2.8,3.1.6,6.8,1.7,10.5,2.8ZM245.3,204.8c23.5-.8,23.5-35.1,0-35.9-23.5.7-23.5,35.1,0,35.9ZM245.3,178.3c11.1.3,11.1,16.8,0,17.1-11.1-.3-11.1-16.8,0-17.1Z"/>
</svg>