<?xml version="1.0" encoding="UTF-8"?>
<svg id="Layer_1" data-name="Layer 1" xmlns="http://www.w3.org/2000/svg" viewBox="0 0 300 300">
  <defs>
    <style>
      .cls-1 {
        fill: #0051b1;
      }
    </style>
  </defs>
  <path class="cls-1" d="M275.18287,30.79004c-2.83399.06095-34.37349,1.00561-53.23625,14.8708-22.51951,16.60776-22.70234,34.86106-15.35837,46.44079.06094.09142.18283.15236.24379.24379-3.90053,5.9727-7.80107,12.70722-11.54925,20.23404-2.22454-1.9198-4.54046-3.99196-6.55169-5.88128,4.54046-9.3552,3.19967-22.85472-13.46904-35.13531-14.96221-10.97026-39.82815-11.76256-42.20504-11.82351-1.7979-.03047-3.23014,1.27986-3.26061,3.01683,0,.57898.15236,1.09703.42662,1.55412.15236.76182.39615,2.55973.63993,4.17479,1.21892,8.59337,3.7177,26.51147,10.87884,37.45126,5.94223,9.01999,13.0729,14.41371,20.69114,15.57168,1.03607.18284,2.1331.24379,3.16919.24379,4.41857,0,8.83716-1.40175,13.01194-4.11384,2.55972,4.3881,6.12507,10.08655,8.50196,13.71283-3.56533,9.26378-6.58217,19.16749-9.05047,29.40641-3.44344.12189-6.91735.63993-10.29985,1.61506l-.48758.15237c-.54851-.63993-1.12751-1.2494-1.82837-1.76744-4.41857-3.44344-10.90932-4.47953-19.77694-3.13871-4.11384.60945-8.01439,2.28547-11.275,4.84519l-51.86497,40.83376h-15.63263v-8.34958c0-3.35202-2.74257-6.09459-6.09459-6.09459H27.65105c-3.35203,0-6.09459,2.74257-6.09459,6.09459v68.16801c0,3.35202,2.74256,6.09459,6.09459,6.09459h33.15458c3.35202,0,6.09459-2.74257,6.09459-6.09459v-11.54925l17.33911,4.20526c.24379.06094.48757.09142.73136.09142h96.08123c.15237,0,.30472,0,.4571-.03048,12.34156-1.91979,52.68774-8.80668,58.96516-17.43053l27.48662-29.1931c6.36884-6.79548,7.03925-17.06485,1.52365-23.86033-3.8396-4.72332-11.48829-9.08095-26.1458-2.89492-2.22454.9142-4.14432,1.85885-5.8508,2.83399-.76182-1.91979-1.61506-3.65675-2.55972-5.14994-5.02804-8.28865-15.38885-11.27498-24.22599-7.25255l-7.03925-4.78425c-.70089-.48758-1.43223-.88372-2.16358-1.31034-1.34082-22.8852,6.21649-45.55707,15.5412-64.26746,5.36325,3.62628,11.03122,5.48513,16.66871,5.48513,1.31034,0,2.65116-.09142,3.96149-.30472,9.41613-1.43223,18.31425-8.16675,25.71918-19.44175,8.98951-13.7433,12.18918-36.41518,13.71283-47.32449.30472-2.22452.63993-4.54047.85324-5.45466.30472-.48757.48758-1.06655.48758-1.67601-.03048-1.73696-1.61506-3.0473-3.26061-3.01682h-.00007ZM184.03825,102.21865c-1.06655-1.03608-2.10264-2.04168-3.19967-3.07776-6.67358-6.46026-13.59093-13.16432-21.05682-19.0456-.67041-.57898-1.37127-1.1275-2.07216-1.67601-1.31034-1.06655-3.23013-.82277-4.26622.48757-1.03607,1.34081-.82276,3.26061.51803,4.29669.63993.48757,1.27986,1.00561,1.88933,1.52365,8.31913,7.16114,14.20038,17.461,19.77694,27.6085-4.02243,2.68162-8.22769,3.77865-12.2806,3.13871-5.8508-.88372-11.54925-5.33277-16.51634-12.89006-6.39932-9.78182-8.77621-26.78573-9.93418-34.95248-.09142-.57898-.15236-1.09703-.24379-1.5846,7.55729.57898,24.46979,2.71209,34.98295,10.42176,10.93978,8.07534,15.35837,17.43053,12.40249,25.74965h.00002ZM245.7155,188.06095c8.95906-3.77864,15.35837-3.41298,19.01512,1.12751,3.62629,4.44905,3.10823,11.27498-1.21892,15.84593l-27.60849,29.37593c-.12189.12189-.24379.27425-.3352.42662-2.83399,4.38811-30.56437,11.15311-54.7599,14.93175h-95.50224l-18.40567-4.44905v-35.92762h16.69918c.70088,0,1.34081-.21331,1.88932-.63993l52.68774-41.50417c2.40737-1.91979,5.3023-3.16919,8.38006-3.62629,7.06974-1.03607,12.15871-.36568,15.17553,1.95027,2.04168,1.58458,3.23013,4.02243,3.59581,7.46586.63993,5.75939-2.07216,11.73208-7.25255,15.96782-6.24696,5.05852-16.33351,16.39444-13.98709,35.07438.21331,1.55413,1.52365,2.68161,3.01683,2.68161.15236,0,.27426-.03048.39615-.03048,1.67601-.21331,2.86445-1.73696,2.65114-3.41298-.97513-7.83155.54851-14.13945,3.13871-19.13701,5.9727,1.58458,22.70234,5.63749,42.17458,7.1002,23.5556,1.79789,28.12652-2.71209,33.61166-10.17796,3.01682-4.08336,6.39932-8.71527,16.63823-13.04242v.00002ZM229.74768,183.33764c.70089,1.09703,1.34082,2.40737,1.91979,3.80912l-14.38324-9.78182c4.63188-.51803,9.56851,1.18844,12.46345,5.9727ZM271.069,40.11475c-1.46271,10.45222-4.51001,32.20991-12.76818,44.79525-6.4298,9.8123-13.89566,15.60215-21.57486,16.79059-5.57656.82277-11.36642-.76182-16.85154-4.63189,12.06729-22.48904,25.8106-38.09119,26.87714-39.3101,1.09703-1.24939,1.00561-3.16919-.27425-4.29669-1.03607-.91419-2.49878-.97513-3.62629-.24379-.03048,0-16.36398,11.12263-32.24039,33.61166-5.8508-11.54925-.39614-24.92688,14.96221-36.23234,14.01755-10.33033,36.84179-12.89006,45.92274-13.52999-.12189.91419-.27425,1.88933-.42662,3.0473h.00002Z"/>
</svg>