<?xml version="1.0" encoding="UTF-8"?>
<svg id="Layer_1" xmlns="http://www.w3.org/2000/svg" xmlns:svgjs="http://svgjs.dev/svgjs" version="1.1" viewBox="0 0 300 300">
  <!-- Generator: Adobe Illustrator 29.1.0, SVG Export Plug-In . SVG Version: 2.1.0 Build 142)  -->
  <defs>
    <style>
      .st0, .st1 {
        fill: #0051b1;
      }

      .st1 {
        fill-rule: evenodd;
      }
    </style>
  </defs>
  <path class="st1" d="M146.5,110.8c-20.2,0-36.6,16.4-36.6,36.6s16.4,36.6,36.6,36.6,36.6-16.4,36.6-36.6-16.4-36.6-36.6-36.6ZM128.2,147.5c0-10.1,8.2-18.3,18.3-18.3s18.3,8.2,18.3,18.3-8.2,18.3-18.3,18.3-18.3-8.2-18.3-18.3Z"/>
  <path class="st1" d="M246.2,143.3s0,0-8.1,4.2q8.1,4.2,8.1,4.2h0s0,0,0,0v.2c-.2.2-.3.4-.4.6-.3.5-.7,1.3-1.3,2.2-1.1,1.9-2.7,4.6-4.8,7.7-4.2,6.3-10.5,14.8-18.8,23.3-16.4,16.9-41.5,34.8-74.4,34.8s-58-17.9-74.4-34.8c-8.3-8.5-14.5-17-18.8-23.3-2.1-3.2-3.7-5.9-4.8-7.7-.5-1-1-1.7-1.3-2.2-.1-.3-.3-.5-.3-.6v-.2c0,0-.1,0-.1,0h0s0,0,8.1-4.2l-8.1,4.2c-1.3-2.6-1.3-5.7,0-8.3l8.1,4.2q-8.1-4.2-8.1-4.2h0s0,0,0,0h0c0,0,0-.2,0-.2,0-.2.2-.4.3-.6.3-.5.7-1.3,1.3-2.2,1.1-1.9,2.7-4.6,4.8-7.7,4.2-6.3,10.5-14.8,18.8-23.3,16.4-16.9,41.5-34.8,74.4-34.8s58,17.9,74.4,34.8c8.3,8.5,14.5,17,18.8,23.3,2.1,3.2,3.7,5.9,4.8,7.7.5,1,1,1.7,1.3,2.2.1.3.3.5.3.6v.2c0,0,.1,0,.1,0h0ZM68.6,152.4c-1.3-1.9-2.3-3.6-3.1-4.9.8-1.4,1.9-3.1,3.1-4.9,3.8-5.7,9.4-13.2,16.6-20.7,14.7-15.2,35.4-29.3,61.2-29.3s46.5,14.1,61.2,29.3c7.3,7.5,12.9,15.1,16.6,20.7,1.3,1.9,2.3,3.6,3.1,4.9-.8,1.4-1.9,3.1-3.1,4.9-3.8,5.7-9.4,13.2-16.6,20.7-14.7,15.2-35.4,29.3-61.2,29.3s-46.5-14.1-61.2-29.3c-7.3-7.5-12.9-15.1-16.6-20.7Z"/>
  <path class="st0" d="M238.1,147.5l8.1-4.2c1.3,2.6,1.3,5.7,0,8.4l-8.1-4.2Z"/>
</svg>