<?xml version="1.0" encoding="UTF-8"?>
<svg id="Layer_1" xmlns="http://www.w3.org/2000/svg" xmlns:svgjs="http://svgjs.dev/svgjs" version="1.1" viewBox="0 0 300 300">
  <!-- Generator: Adobe Illustrator 29.1.0, SVG Export Plug-In . SVG Version: 2.1.0 Build 142)  -->
  <defs>
    <style>
      .st0 {
        fill: #0051b1;
      }
    </style>
  </defs>
  <path class="st0" d="M191.3,84.6c1.5-1.1,3.7-.7,4.8.8,1.1,1.5.8,3.5-.6,4.7-9.4,6.8-31.8,28.7-31.8,28.7,2.2,1.2,4.7,1.7,7.2,1.2l15.7-2.6c17.5-2.9,31.5-16.1,35.5-33.4l4.4-19.2c1-4.6-1.9-9.1-6.4-10.1-1-.2-2.1-.3-3.1,0l-19.4,3.3c-17.5,2.9-31.5,16.1-35.5,33.4l-3.6,15.5c-.6,2.3-.3,4.8.7,7,2-2,24.1-23.1,32.3-29.1h0Z"/>
  <path class="st0" d="M109.3,90c-1.5-1.2-1.7-3.3-.5-4.8,1.1-1.4,3.2-1.7,4.7-.6,7.9,5.9,27.2,24.3,27.2,24.3.6.8,1.1,1.8,1.5,2.7,1.2-2.1,1.5-4.6,1-7l-3.2-13.8c-3.6-15.6-16.2-27.5-32-30.1l-17.3-2.9c-2.6-.4-5.2.4-7,2.4-1.8,1.9-2.5,4.6-1.9,7.2l4,17.1c3.6,15.6,16.2,27.5,32,30.2l14,2.4c1.8.3,3.6.1,5.2-.5l-1.4-3.1s-17.9-17.3-26-23.2Z"/>
  <path class="st0" d="M233.8,163.5h-35.3c1.9-5.8-1.2-12-7-13.9-1-.3-2.1-.5-3.2-.6h-34c.2-4.7-.4-9.4-1.9-13.9,2.2-6.4,6.1-12.1,11.3-16.4-2-1.2-3.6-2.9-4.6-5l-4.6,4.7c-2.3,2.4-4.3,5.1-5.8,8l-6.6-14.7c-1.1,2.2-3,3.9-5.4,4.7l8.4,18.8c1.9,4.4,2.8,9.2,2.5,14h-34.8c-6.1.2-10.9,5.2-10.7,11.3,0,1.1.2,2.1.5,3.2h-36.3c-3.8,0-6.8,3.1-6.8,6.8h0v7.6c0,3.8,3.1,6.8,6.8,6.8h46.6l1.9,15.2c1.1,8.9,8.7,15.6,17.7,15.6h36.2c9,0,16.6-6.7,17.7-15.6l1.9-15.2h45.6c3.8,0,6.8-3.1,6.8-6.8h0v-7.6c0-3.8-3.1-6.8-6.8-6.8h0ZM110,157c.7-.7,1.7-1.1,2.7-1.1h75.6c4,0,4.5,4.7,3,7.6h-81.7c-.8-2.1-1.5-4.8.4-6.5h0ZM179.5,199.1c-.7,5.5-5.4,9.7-11,9.7h-36.2c-5.6,0-10.3-4.1-11-9.7l-1.8-14.3h61.7l-1.8,14.3Z"/>
  <path class="st0" d="M91.6,219.9c-2.5,2.5-6.6,2.5-9.2,0-5.2-5.2-13.6-5.2-18.8,0-1.3,1.3-1.3,3.5,0,4.8,1.3,1.3,3.5,1.3,4.8,0h0c2.5-2.5,6.6-2.5,9.2,0,5.2,5.2,13.6,5.2,18.8,0,2.6-2.5,6.6-2.5,9.2,0,1.3,1.3,3.5,1.3,4.8,0,1.3-1.3,1.3-3.5,0-4.8h0c-5.2-5.2-13.6-5.2-18.8,0Z"/>
  <path class="st0" d="M154.6,236.8c-2.6,2.5-6.6,2.5-9.2,0-5.3-5-13.6-5-18.8,0-1.3,1.3-1.3,3.5,0,4.8,1.3,1.3,3.5,1.3,4.8,0,2.6-2.5,6.6-2.5,9.2,0,5.2,5.2,13.6,5.2,18.8,0,2.6-2.5,6.6-2.5,9.2,0,1.4,1.3,3.5,1.3,4.8,0,1.3-1.3,1.3-3.4,0-4.7-5.3-5-13.6-5-18.8,0h0Z"/>
  <path class="st0" d="M217.6,222.8c-2.5,2.5-6.6,2.5-9.2,0-5.2-5.2-13.6-5.2-18.8,0-1.3,1.3-1.3,3.5,0,4.8s3.5,1.3,4.8,0h0c2.6-2.5,6.6-2.5,9.2,0,5.2,5.2,13.6,5.2,18.8,0,2.5-2.5,6.6-2.5,9.2,0,1.3,1.3,3.5,1.3,4.8,0,1.3-1.3,1.3-3.5,0-4.8-5.2-5.2-13.6-5.2-18.8,0Z"/>
</svg>