<?xml version="1.0" encoding="UTF-8"?>
<svg id="Layer_1" data-name="Layer 1" xmlns="http://www.w3.org/2000/svg" viewBox="0 0 300 300">
  <defs>
    <style>
      .cls-1 {
        fill: #0051b1;
      }
    </style>
  </defs>
  <g id="_15_Hydroponics" data-name="15 Hydroponics">
    <g>
      <path class="cls-1" d="M37.84059,140.1807c0-.94457-.76553-1.70957-1.70958-1.70957-11.31544,0-20.52016,9.20472-20.52016,20.51964,0,.94458.76553,1.70958,1.70958,1.70958s1.70958-.76553,1.70958-1.70958c0-9.42944,7.67156-17.09995,17.10048-17.09995.9451,0,1.7101-.76552,1.7101-1.71011Z"/>
      <path class="cls-1" d="M43.01552,141.89079h2.46828c.94457,0,1.70958-.76552,1.70958-1.70957,0-.94457-.76553-1.70957-1.70958-1.70957h-2.46828c-.94457,0-1.70958.76552-1.70958,1.70957s.765,1.70957,1.70958,1.70957Z"/>
      <path class="cls-1" d="M284.38915,158.98655c0-5.27994-4.29494-9.57488-9.57488-9.57488h-40.88438v-28.43745c2.72187-.2326,8.07008-1.16247,11.79061-4.89666,5.10196-5.0883,4.99274-13.19934,4.97909-13.54167-.01365-.91622-.75241-1.65497-1.66863-1.68227-.34181,0-8.46702-.10921-13.55531,4.97909-.58806.58806-1.09422,1.2176-1.54576,1.86027v-16.2772c4.32224-.2053,15.68914-1.5048,23.32132-9.12334,9.38324-9.39689,9.17846-24.44284,9.17846-25.08603-.0273-.91622-.76606-1.65497-1.68228-1.66862-.64319-.0273-15.68914-.21895-25.07237,9.16429-2.57172,2.57119-4.41781,5.56715-5.75879,8.57623v-21.57027c3.80244-.79336,6.66137-4.15843,6.66137-8.17982,0-4.6231-3.74784-8.38459-8.37093-8.38459-4.60944,0-8.37093,3.76149-8.37093,8.38459,0,4.02139,2.87257,7.40011,6.66137,8.17982v21.57079c-1.32682-3.00909-3.17343-6.00504-5.74462-8.57623-9.38324-9.38324-24.45702-9.19159-25.07239-9.16429-.91675.01365-1.65497.7524-1.68228,1.66862-.01365.64267-.20529,15.68914,9.17795,25.08603,7.63219,7.63218,19.01273,8.91804,23.33497,9.12334v16.29085c-.46519-.65632-.97135-1.28586-1.55941-1.87392-5.10196-5.0883-13.21299-4.97909-13.5548-4.97909-.91675.0273-1.65497.76605-1.68228,1.68227,0,.34181-.10974,8.45337,4.97856,13.54167,3.73418,3.73418,9.08239,4.66405,11.81791,4.89666v28.43745h-73.32904v-28.43745c2.73553-.2326,8.07008-1.16247,11.80426-4.89666,5.0883-5.0883,4.97909-13.19934,4.97909-13.54167-.01365-.91622-.75241-1.65497-1.66863-1.68227-.36911,0-8.46702-.10921-13.55531,4.97909-.58806.58806-1.09422,1.2176-1.55941,1.86027v-16.2772c4.33589-.2053,15.7028-1.5048,23.33497-9.12334,9.38324-9.39689,9.17795-24.44284,9.1643-25.08603-.01365-.91622-.75241-1.65497-1.66863-1.66862-.64267-.0273-15.68914-.21895-25.08604,9.16429-2.57119,2.57119-4.41781,5.56715-5.74462,8.57623v-21.57079c3.80244-.79336,6.66137-4.15843,6.66137-8.17982,0-4.6231-3.76149-8.38459-8.38458-8.38459-4.60944,0-8.35728,3.76149-8.35728,8.38459,0,4.02139,2.85892,7.40011,6.66137,8.17982v21.57079c-1.32682-3.00909-3.17343-6.00504-5.74461-8.57623-9.38324-9.38324-24.45702-9.1916-25.08603-9.16429-.91622.01365-1.65497.7524-1.66862,1.66862-.01365.64267-.21895,15.68914,9.16429,25.08603,7.63271,7.63219,19.01326,8.91805,23.33497,9.12334v16.29085c-.45154-.65632-.97135-1.28586-1.55941-1.87392-5.0883-5.0883-13.19934-4.97909-13.55532-4.97909-.91622.0273-1.65497.76605-1.66862,1.68227-.01365.34181-.10921,8.45337,4.97909,13.54167,3.73418,3.73418,9.08239,4.66405,11.80426,4.89666v28.43745h-73.31644v-28.43745c2.73553-.2326,8.07008-1.16247,11.80426-4.89666,5.0883-5.0883,4.97856-13.19934,4.97856-13.54167-.0273-.91622-.76605-1.65497-1.68227-1.68227-.35546,0-8.45284-.10921-13.55532,4.97909-.57441.58806-1.09421,1.2176-1.54576,1.86027v-16.2772c4.32224-.2053,15.68914-1.5048,23.32133-9.12334,9.38324-9.39689,9.19159-24.44284,9.17794-25.08603-.0273-.91622-.76605-1.65497-1.68227-1.66862-.62901-.0273-15.68914-.21895-25.07238,9.16429-2.57171,2.57119-4.41781,5.56715-5.74462,8.57623v-21.57079c3.78879-.79336,6.66136-4.15843,6.66136-8.17982,0-4.6231-3.76149-8.38459-8.38459-8.38459-4.60945,0-8.35728,3.76149-8.35728,8.38459,0,4.02139,2.85892,7.40011,6.66136,8.17982v21.57079c-1.34046-3.00909-3.18708-6.00504-5.75879-8.57623-9.38324-9.38377-24.45649-9.19212-25.07238-9.16482-.91674.01365-1.65497.7524-1.68227,1.66862,0,.64267-.2053,15.68914,9.17847,25.08603,7.63219,7.63218,19.01273,8.91804,23.33498,9.12333v16.29085c-.4652-.65632-.97135-1.28586-1.55941-1.87392-5.0883-5.0883-13.18568-4.97909-13.55532-4.97909-.91675.0273-1.65497.76605-1.66862,1.68227-.01365.34181-.12286,8.45337,4.97909,13.54167,3.73418,3.73418,9.08238,4.66405,11.80427,4.89666v28.43745h-40.89803c-5.27994,0-9.57488,4.29494-9.57488,9.57488s4.29494,9.57488,9.57488,9.57488h.32816c-5.21169,23.74557-.77971,43.5926,10.94265,65.21801,6.72962,12.41962,19.76513,20.13424,34.03137,20.13424h148.08099c14.25258,0,27.2881-7.71461,34.01772-20.12059,11.68139-21.52984,16.19529-41.40418,10.94265-65.23166h.34181c5.28047,0,9.57541-4.29494,9.57541-9.57488ZM242.0824,67.12363c6.60676-6.60675,16.8243-7.87896,20.873-8.11103-.24625,4.03504-1.5048,14.23894-8.12521,20.85934-6.59311,6.59311-16.81065,7.86479-20.84569,8.11103.2326-4.04869,1.5048-14.26677,8.09791-20.85934ZM209.59626,79.87141c-6.60676-6.60675-7.87897-16.8243-8.12521-20.85935,4.04869.2326,14.26677,1.5048,20.85934,8.11103,6.60676,6.5931,7.87897,16.81065,8.11103,20.85934-4.03451-.24573-14.25207-1.51793-20.84516-8.11103ZM165.34681,67.12363c6.60676-6.60675,16.8243-7.87896,20.85934-8.11103-.2326,4.03504-1.49115,14.23894-8.11103,20.85934-6.60676,6.59311-16.81065,7.86479-20.85934,8.11103.24625-4.04869,1.51846-14.26677,8.11103-20.85934ZM132.84754,79.87141c-6.59311-6.60675-7.86479-16.8243-8.11103-20.85935,4.03504.2326,14.26624,1.5048,20.85934,8.11103,6.59311,6.5931,7.86479,16.81065,8.11103,20.85934-4.04869-.24573-14.25259-1.51793-20.85934-8.11103ZM88.61174,67.12363c6.59311-6.60675,16.81065-7.87896,20.85934-8.11103-.2326,4.03504-1.5048,14.23894-8.12521,20.85934-6.59311,6.59311-16.81065,7.86479-20.84569,8.11103.23312-4.04869,1.50533-14.26677,8.11156-20.85934ZM56.11247,79.87141c-6.60675-6.60623-7.87896-16.8243-8.12521-20.85935,4.04869.2326,14.26677,1.5048,20.873,8.11103,6.5931,6.5931,7.86479,16.81065,8.11103,20.85934-4.04817-.24573-14.26624-1.51793-20.85882-8.11103ZM271.29903,204.7408H39.64363c-2.70823-11.94131-2.55806-23.60852.28721-36.17884h36.04233l-9.80748,19.57297c-.41059.84796-.06826,1.87392.76605,2.29817.84796.42425,1.87392.08191,2.29764-.76606l7.79653-15.56575v24.22441c0,.94405.76605,1.70958,1.70957,1.70958s1.70957-.76606,1.70957-1.70958v-24.22441l7.78288,15.56575c.42372.84796,1.44967,1.18977,2.29764.76606.84797-.42425,1.18978-1.44967.76605-2.28452l-9.79383-19.58714h71.2094l-9.79331,19.57348c-.42424.84796-.08191,1.87392.76605,2.29817.83431.42425,1.86027.08191,2.28451-.76606l7.79653-15.5794v24.23806c0,.94405.76606,1.70958,1.70958,1.70958s1.70958-.76606,1.70958-1.70958v-24.22441l7.79653,15.56575c.4106.84796,1.43654,1.18977,2.28452.76606.84796-.42425,1.18977-1.44967.76606-2.28452l-9.77966-19.58714h71.19575l-9.79384,19.57348c-.42372.84796-.08191,1.87392.76606,2.29817s1.87392.08191,2.29764-.76606l7.79653-15.56575v24.22441c0,.94405.76606,1.70958,1.70958,1.70958s1.70958-.76606,1.70958-1.70958v-24.22441l7.78287,15.56575c.42372.84796,1.44967,1.18977,2.29764.76606.83431-.42425,1.17664-1.44967.76606-2.28452l-9.79384-19.58714h36.01504c2.86049,12.57032,3.01066,24.23806.30243,36.17937l-.00005-.00002ZM36.12839,165.14175c-3.39237,0-6.15521-2.74918-6.15521-6.1552,0-3.39237,2.76283-6.1552,6.15521-6.1552h238.68586c3.39237,0,6.1552,2.76283,6.1552,6.1552,0,3.40603-2.76283,6.1552-6.1552,6.1552H36.12839Z"/>
      <path class="cls-1" d="M194.80968,261.4372h-7.31715c-.94458,0-1.70958.76553-1.70958,1.70958s.76553,1.70958,1.70958,1.70958h7.31715c.94458,0,1.70958-.76553,1.70958-1.70958s-.765-1.70958-1.70958-1.70958Z"/>
      <path class="cls-1" d="M179.21715,261.4372h-23.33603c-.94458,0-1.70958.76553-1.70958,1.70958s.76553,1.70958,1.70958,1.70958h23.33603c.94458,0,1.70958-.76553,1.70958-1.70958s-.765-1.70958-1.70958-1.70958Z"/>
    </g>
  </g>
</svg>