<?xml version="1.0" encoding="UTF-8"?>
<svg id="Layer_1" data-name="Layer 1" xmlns="http://www.w3.org/2000/svg" viewBox="0 0 300 300">
  <defs>
    <style>
      .cls-1 {
        fill: #0051b1;
      }

      .cls-2 {
        fill: #fff;
      }
    </style>
  </defs>
  <path class="cls-1" d="M150,.23954C67.16016.23954,0,67.3997,0,150.23954s67.16016,150,150,150,150-67.16015,150-150S232.83985.23954,150,.23954Z"/>
  <g>
    <path class="cls-2" d="M94.37499,129.66667h75.33333c2.29166,0,4.16667-1.875,4.16667-4.16667s-1.875-4.16667-4.16667-4.16667h-75.33333c-2.29166,0-4.16667,1.875-4.16667,4.16667s1.875,4.16667,4.16667,4.16667Z"/>
    <path class="cls-2" d="M132.04166,199.125h-37.66666c-2.29166,0-4.16667,1.875-4.16667,4.16667s1.875,4.16667,4.16667,4.16667h37.66667c2.29166,0,4.16667-1.875,4.16667-4.16667s-1.875-4.16667-4.16667-4.16667Z"/>
    <path class="cls-2" d="M205.62499,141.66666c-.79166,0-1.58334.08334-2.375.12499v-56.91666c0-8.125-6.625-14.70834-14.70833-14.70834h-19.875c-2.70834-4.54167-7.58333-7.58333-13.20834-7.58333h-.875c-2.79166-8.58333-10.83333-14.66667-20.04167-14.66667h-5.04166c-9.20833,0-17.29166,6.08333-20.04166,14.66667h-.79167c-5.625,0-10.54167,3.08333-13.20833,7.58333h-19.875c-8.125,0-14.70833,6.625-14.70833,14.70834v144.125c0,8.125,6.625,14.70833,14.70833,14.70833h112.95834c1.45833,0,2.66666-.79166,3.41667-1.91666,4.375,1.20834,8.95834,1.91666,13.70834,1.91666,28.125,0,51.04166-22.91667,51.04166-51.04166s-22.95834-50.99999-51.08334-50.99999ZM75.54166,235.41666c-3.54167,0-6.375-2.87499-6.375-6.37499V84.87501c0-3.54167,2.875-6.375,6.375-6.375h17.66667v10.58333c0,2.29166,1.875,4.16667,4.16667,4.16667h69.29167c2.29166,0,4.16667-1.875,4.16667-4.16667v-10.58334h17.66666c3.54166,0,6.37499,2.875,6.37499,6.375v57.91666c-7.99999,1.70833-15.25,5.29167-21.375,10.25.20833-.5.375-1.08333.375-1.66667,0-2.29166-1.875-4.16667-4.16667-4.16667h-75.33333c-2.29166,0-4.16667,1.875-4.16667,4.16667s1.875,4.16667,4.16667,4.16667h75.33333c.45834,0,.875-.12499,1.29167-.25001-5.33333,4.95833-9.66667,11.04167-12.5,17.875h-64.125c-2.29166,0-4.16667,1.875-4.16667,4.16667s1.875,4.16667,4.16667,4.16667h61.49999c-.79166,3.58334-1.29167,7.33333-1.29167,11.16667,0,17.875,9.25,33.58334,23.16667,42.70833h-102.20833l.00002.04168ZM231.49998,196.87499h-21.70833v21.70833c0,2.29166-1.875,4.16667-4.16667,4.16667s-4.16667-1.875-4.16667-4.16667v-21.70833h-21.70833c-2.29166,0-4.16667-1.875-4.16667-4.16667s1.875-4.16667,4.16667-4.16667h21.70833v-21.70833c0-2.29166,1.875-4.16667,4.16667-4.16667s4.16667,1.875,4.16667,4.16667v21.70833h21.70833c2.29166,0,4.16667,1.875,4.16667,4.16667s-1.875,4.16667-4.16667,4.16667Z"/>
  </g>
</svg>