<?xml version="1.0" encoding="UTF-8"?>
<svg id="Layer_1" data-name="Layer 1" xmlns="http://www.w3.org/2000/svg" viewBox="0 0 300 300">
  <defs>
    <style>
      .cls-1 {
        fill: #fff;
        fill-rule: evenodd;
      }

      .cls-2 {
        fill: #0051b1;
      }
    </style>
  </defs>
  <path class="cls-2" d="M150,.23954C67.16016.23954,0,67.3997,0,150.23954s67.16016,150,150,150,150-67.16015,150-150S232.83985.23954,150,.23954Z"/>
  <g>
    <path class="cls-1" d="M150,106.19916c-24.1905,0-43.80084,19.61034-43.80084,43.80084s19.61034,43.80112,43.80084,43.80112,43.80112-19.61025,43.80112-43.80112-19.61025-43.80084-43.80112-43.80084ZM150,120.03105c-16.5517,0-29.96895,13.41726-29.96895,29.96895s13.41726,29.96913,29.96895,29.96913,29.96913-13.41744,29.96913-29.96913-13.41744-29.96895-29.96913-29.96895Z"/>
    <path class="cls-1" d="M126.86647,60.07439c1.43276-5.25334,6.22768-9.20251,11.96719-9.20251h21.61264c5.73952,0,10.53372,3.94917,11.96657,9.20251l.02794.1012,3.99126,16.60198c.16762.69831.78312,1.54505,1.97806,2.02267.538.21466,1.07238.43544,1.60587.66253,1.158.49348,2.17091.33866,2.77829-.02586l13.96806-8.38056c4.81492-2.88886,11.01132-2.23191,15.04045,1.79647l15.34413,15.34468c4.0291,4.02839,4.68515,10.22561,1.79692,15.04026l-8.38084,13.9676c-.36407.60766-.51907,1.62102-.02614,2.77901.23161.54241.45599,1.08726.67499,1.63444.474,1.18927,1.31389,1.80377,2.00868,1.97419l16.48772,4.04632c5.51873,1.2883,9.41987,6.25417,9.41987,11.91439v21.61264c0,5.66111-3.90205,10.62653-9.41987,11.9152l-16.48772,4.04622c-.69479.17032-1.53468.78491-2.00868,1.97355-.219.54701-.44337,1.09222-.67499,1.63472-.49293,1.158-.33792,2.17181.02614,2.77919l8.38084,13.96715c2.88823,4.81494,2.23218,11.01223-1.79692,15.04045l-15.34413,15.34504c-4.02912,4.02819-10.22552,4.68515-15.04045,1.79601l-13.96806-8.37992c-.60738-.36498-1.62029-.51996-2.77829-.02613-.54971.2334-1.10032.46139-1.65364.68217-1.18593.47222-1.79962,1.30759-1.97174,1.99969l-3.95702,15.91097-.02073.07479c-1.43285,5.25379-6.22705,9.2027-11.96657,9.2027h-21.61264c-5.73952,0-10.53443-3.9489-11.96719-9.2027l-.02045-.07479-3.9571-15.91097c-.17212-.69211-.78609-1.52748-1.97121-1.99969-.5534-.22078-1.10482-.44877-1.65391-.68217-1.15791-.49384-2.17127-.33885-2.77883.02613l-13.9676,8.37992c-4.81474,2.88914-11.01187,2.23218-15.04026-1.79601l-15.34467-15.34504c-4.02848-4.02821-4.68534-10.22551-1.79656-15.04045l8.38065-13.96715c.36452-.60738.51934-1.6212.02586-2.77919-.23818-.55872-.46951-1.12015-.69399-1.68428-.46951-1.17872-1.29831-1.79152-1.9859-1.96634l-15.80319-4.01199c-5.50098-1.29948-9.38743-6.25769-9.38743-11.90709v-21.61264c0-5.64941,3.88627-10.60671,9.38725-11.90673l15.80337-4.01225c.68759-.17465,1.51639-.78762,1.9859-1.96643.22448-.56377.45581-1.12501.69399-1.68392.49348-1.158.33866-2.17135-.02586-2.77901l-8.38065-13.9676c-2.88877-4.81466-2.23191-11.01187,1.79656-15.04026l15.34467-15.34468c4.02839-4.02839,10.22552-4.68533,15.04017-1.79647l13.9677,8.38056c.60765.36452,1.62102.51934,2.77901.02586.53286-.22709,1.06788-.44788,1.60507-.66253,1.19539-.47762,1.8108-1.32435,1.97869-2.02267l3.99116-16.60198.02758-.1012ZM136.29598,80.01059l3.68036-15.30691h19.32728l3.67945,15.30691c1.34635,5.60029,5.47548,9.70834,10.29582,11.63422.43976.17573.87773.35659,1.31389.54259,4.7158,2.00942,10.45171,2.03041,15.318-.88981l12.98487-7.79066,13.59767,13.59759-7.79057,12.98443c-2.92066,4.86693-2.89993,10.60229-.89034,15.31773.18924.44472.37398.89089.55242,1.33868,1.91497,4.79861,5.99184,8.91441,11.55924,10.28058l15.37206,3.77318v19.12271l-15.37206,3.77228c-5.56739,1.36616-9.64427,5.48269-11.55924,10.28139-.17843.44698-.36317.89396-.55242,1.33823-2.00959,4.71489-2.03032,10.45081.89034,15.318l7.79057,12.98398-13.59767,13.59767-12.98487-7.79057c-4.8663-2.91977-10.60221-2.89904-15.318-.88945-.44968.19105-.90027.37759-1.35445.55781-4.78338,1.90777-8.89179,5.96482-10.27057,11.50968l-3.65423,14.69529h-19.34711l-3.65422-14.69529c-1.37968-5.54397-5.48719-9.60191-10.27139-11.50968-.45328-.18022-.90486-.36677-1.35436-.55781-4.71544-2.00959-10.45099-2.03032-15.31791.88945l-12.98443,7.79057-13.59759-13.59767,7.79066-12.98398c2.92022-4.86719,2.89922-10.60311.88981-15.318-.19511-.45779-.38462-.91739-.56837-1.37878-1.89641-4.76266-5.92218-8.85665-11.43245-10.25526l-14.76252-3.74884v-19.14165l14.76252-3.74794c5.51026-1.39861,9.53603-5.4935,11.43254-10.25544.18366-.4614.37317-.92108.56828-1.37896,2.00941-4.71544,2.03041-10.4509-.88981-15.31791l-7.79066-12.98443,13.59759-13.59759,12.98443,7.79066c4.86692,2.92022,10.60247,2.89923,15.31782.88981.43661-.186.87476-.36686,1.31452-.54259,4.82034-1.92588,8.94965-6.03393,10.29509-11.63422Z"/>
  </g>
</svg>