<?xml version="1.0" encoding="UTF-8"?>
<svg id="Layer_1" xmlns="http://www.w3.org/2000/svg" xmlns:svgjs="http://svgjs.dev/svgjs" version="1.1" viewBox="0 0 300 300">
  <!-- Generator: Adobe Illustrator 29.1.0, SVG Export Plug-In . SVG Version: 2.1.0 Build 142)  -->
  <defs>
    <style>
      .st0 {
        fill: #0051b1;
      }
    </style>
  </defs>
  <path class="st0" d="M161,196.1l-2.2-.8c-1.6-.6-3.4-.2-4.7.9l-9.8,8.2-3.1-6.4c-.5-1.1-1.4-1.9-2.5-2.3l-2.2-.9c1.3-1.1,2.5-2.5,3.5-4,1.9-3,3-6.3,3.3-9.6,6.3-.6,12.3-3.4,16.9-8l.6-.6c1.9-1.9,1.9-4.9,0-6.8-1.9-1.9-4.9-1.9-6.8,0l-.6.6c-3,3-7,4.9-11.3,5.3-1.1-3.1-2.8-5.9-5.3-8.3s-5.3-4.2-8.3-5.3c.4-4.2,2.2-8.2,5.3-11.3l.6-.6c1.9-1.9,1.9-4.9,0-6.8-1.9-1.9-4.9-1.9-6.8,0l-.6.6c-4.6,4.6-7.4,10.6-8,16.9-3.3.3-6.6,1.4-9.6,3.3-1.5,1-2.9,2.1-4,3.5l-.9-2.2c-.4-1.1-1.3-2-2.3-2.5l-6.4-3.1,8.2-9.8c1.1-1.3,1.4-3.1.9-4.7l-.8-2.2c-.9-2.5-3.6-3.8-6.2-2.9-2.4.8-3.7,3.3-3.1,5.7l-10.4,12.4c-1,1.1-1.3,2.6-1,4.1.3,1.4,1.3,2.7,2.6,3.3l9,4.4c-2.9-.8-6-1.1-9.1-.9-1.9.1-3.7.4-5.5.8l-4-4c-1.1-1.1-2.6-1.6-4.1-1.4l-7,1.1,1.6-7.4h.2c2.6-.8,4.1-3.4,3.4-6-.7-2.6-3.3-4.1-5.9-3.4l-3.1.8c-1.7.5-3.1,1.9-3.4,3.6l-3.6,17.1c-.3,1.5.1,3.2,1.2,4.3,1.1,1.1,2.7,1.7,4.2,1.5l7.3-1.1c-3.1,1.8-5.9,4-8.5,6.6-1.9,1.9-3.7,3.9-5.4,6l-1.2-1.2c-1.2-1.2-2.9-1.7-4.5-1.3l-10.6,2.6,2-10c.1-.7.1-1.4,0-2.1l-1.4-5.6c-.6-2.6-3.2-4.2-5.8-3.5-2.6.6-4.2,3.2-3.5,5.8l1.1,4.6-2.3,11.3c-.5,2.7.3,5.5,2.3,7.4,2,1.9,4.8,2.7,7.5,2l10.4-2.5.4.4c-7.3,11.8-11.2,25.4-11.2,39.5v6.4c0,4.4,1,8.7,3.1,12.5,2.4,4.5,6.1,8.1,10.6,10.6h0c3.8,2.1,8.1,3.1,12.4,3.1h6.5c14.2,0,27.8-4,39.5-11.3l.4.4-2.5,10.4c-.7,2.7,0,5.5,2,7.5,1.9,2,4.7,2.9,7.4,2.3l10.9-2.2,4.2,1.9c.6.3,1.3.4,2,.4,1.8,0,3.6-1,4.4-2.8,1.1-2.4,0-5.3-2.4-6.4l-5.6-2.6c-.9-.4-2-.5-3-.3l-10,2,2.6-10.6c.4-1.6,0-3.4-1.3-4.5l-1.2-1.2c2.1-1.7,4.1-3.5,6-5.4,2.6-2.6,4.7-5.4,6.6-8.5l-1.1,7.3c-.2,1.6.3,3.1,1.5,4.2.9.9,2.1,1.3,3.3,1.3s.7,0,1-.1l17.1-3.6c1.8-.4,3.2-1.7,3.6-3.4l.8-3.1c.7-2.6-.8-5.2-3.4-5.9-2.6-.7-5.2.8-5.9,3.4v.2c0,0-7.4,1.6-7.4,1.6l1.1-7c.2-1.5-.3-3-1.4-4.1l-4-4c.4-1.8.6-3.7.8-5.5.2-3.1,0-6.2-.9-9.1l4.4,9c.7,1.3,1.9,2.3,3.3,2.6.3,0,.7.1,1,.1,1.1,0,2.2-.4,3.1-1.1l12.4-10.4c2.4.6,4.9-.7,5.7-3.1.9-2.5-.4-5.3-2.9-6.2ZM111.2,173.4c.2-2.1,1.4-3.9,3.2-5.1,2.1-1.3,4.4-1.9,6.7-1.9s6.5,1.3,8.9,3.7c4.2,4.2,4.9,10.6,1.8,15.6-1.1,1.8-3,3-5.1,3.2-2.1.2-4.2-.5-5.7-2l-7.9-7.9c-1.5-1.5-2.2-3.6-2-5.7ZM115.5,234.7c-12.5,12.5-29.1,19.4-46.7,19.5h-6.4c-2.7,0-5.5-.6-7.9-2-2.8-1.5-5.1-3.8-6.7-6.7-1.3-2.4-2-5.1-2-7.9v-6.4c0-17.7,7-34.3,19.5-46.7,5.7-5.7,13.2-9.1,21.2-9.7,5.2-.4,10.4,1.5,14.1,5.2l5.8,5.8s0,0,0,0l7.9,7.9,5.8,5.8c3.7,3.7,5.6,8.8,5.2,14.1-.6,8-4,15.5-9.7,21.2Z"/>
  <path class="st0" d="M273.2,75.1l-2.2-10.9,1.9-4.2c1.1-2.4,0-5.3-2.4-6.4-2.4-1.1-5.3,0-6.4,2.4l-2.6,5.6c-.4.9-.5,2-.3,3l2,10-10.6-2.6c-1.6-.4-3.4,0-4.5,1.3l-1.2,1.2c-1.7-2.1-3.5-4.1-5.4-6-2.6-2.6-5.4-4.7-8.5-6.6l7.3,1.1c1.6.2,3.1-.3,4.2-1.5s1.5-2.8,1.2-4.3l-3.6-17.1c-.4-1.8-1.7-3.2-3.4-3.6l-3.1-.8c-2.6-.7-5.2.8-5.9,3.4s.8,5.2,3.4,5.9h.2c0,0,1.6,7.4,1.6,7.4l-7-1.1c-1.5-.2-3,.3-4.1,1.4l-4,4c-1.8-.4-3.7-.6-5.5-.8-3.1-.2-6.2,0-9.1.9l9-4.4c1.3-.7,2.3-1.9,2.6-3.3s0-3-1-4.1l-10.4-12.4c.6-2.4-.7-4.9-3.1-5.7-2.5-.9-5.3.4-6.2,2.9l-.8,2.2c-.6,1.6-.2,3.4.9,4.7l8.2,9.8-6.4,3.1c-1.1.5-1.9,1.4-2.3,2.5l-.9,2.2c-1.1-1.3-2.5-2.5-4-3.5-3-1.9-6.3-3-9.6-3.3-.6-6.3-3.4-12.3-8-16.9l-.6-.6c-1.9-1.9-4.9-1.9-6.8,0-1.9,1.9-1.9,4.9,0,6.8l.6.6c3,3,4.9,7,5.3,11.3-3.1,1.1-5.9,2.8-8.3,5.3-2.4,2.4-4.2,5.3-5.3,8.3-4.2-.4-8.2-2.2-11.3-5.3l-.6-.6c-1.9-1.9-4.9-1.9-6.8,0-1.9,1.9-1.9,4.9,0,6.8l.6.6c4.6,4.6,10.6,7.4,16.9,8,.3,3.3,1.4,6.6,3.3,9.6,1,1.5,2.1,2.9,3.5,4l-2.2.9c-1.1.4-2,1.3-2.5,2.3l-3.1,6.4-9.8-8.2c-1.3-1.1-3.1-1.4-4.7-.9l-2.2.8c-2.5.9-3.8,3.6-2.9,6.2.8,2.4,3.3,3.7,5.7,3.1l12.4,10.4c.9.7,2,1.1,3.1,1.1s.7,0,1-.1c1.4-.3,2.7-1.3,3.3-2.6l4.4-9c-.8,2.9-1.1,6-.9,9.1.1,1.9.4,3.7.8,5.5l-4,4c-1.1,1.1-1.6,2.6-1.4,4.1l1.1,7-7.4-1.6v-.2c-.8-2.6-3.4-4.1-6-3.4-2.6.7-4.1,3.3-3.4,5.9l.8,3.1c.5,1.7,1.9,3.1,3.6,3.4l17.1,3.6c.3,0,.7.1,1,.1,1.2,0,2.4-.5,3.3-1.3,1.1-1.1,1.7-2.7,1.5-4.2l-1.1-7.3c1.8,3.1,4,5.9,6.6,8.5,1.9,1.9,3.9,3.7,6,5.4l-1.2,1.2c-1.2,1.2-1.7,2.9-1.3,4.5l2.6,10.6-10-2c-.7-.1-1.4-.1-2.1,0l-5.6,1.4c-2.6.6-4.2,3.2-3.5,5.8.6,2.6,3.2,4.2,5.8,3.5l4.6-1.1,11.3,2.3c.5.1,1.1.2,1.6.2,2.2,0,4.3-.9,5.8-2.5,1.9-2,2.7-4.8,2-7.5l-2.5-10.4.4-.4c11.8,7.3,25.4,11.2,39.5,11.2h0c2.7,0,4.8-2.1,4.8-4.8,0-2.7-2.1-4.8-4.8-4.8-17.7,0-34.3-7-46.7-19.5-5.7-5.7-9.1-13.2-9.7-21.2-.4-5.2,1.5-10.4,5.2-14.1l5.7-5.7s0,0,0,0l7.9-7.9s0,0,0,0l5.8-5.8c3.7-3.7,8.8-5.6,14.1-5.2,8,.6,15.5,4,21.2,9.7,12.5,12.5,19.4,29.1,19.5,46.7,0,2.7,2.2,4.8,4.8,4.8h0c2.7,0,4.8-2.2,4.8-4.8,0-14.2-4-27.8-11.2-39.5l.4-.4,10.4,2.5c2.7.7,5.5-.1,7.5-2,2-1.9,2.9-4.7,2.3-7.4ZM170,60.9c2.4-2.4,5.7-3.7,8.9-3.7s4.6.6,6.7,1.9c1.8,1.1,3,3,3.2,5.1.2,2.1-.5,4.2-2,5.6l-7.9,7.9c-1.5,1.5-3.6,2.2-5.6,2-2.1-.2-3.9-1.4-5.1-3.2-3.1-5-2.4-11.4,1.8-15.6Z"/>
</svg>