<?xml version="1.0" encoding="UTF-8"?>
<svg id="Layer_1" xmlns="http://www.w3.org/2000/svg" xmlns:svgjs="http://svgjs.dev/svgjs" version="1.1" viewBox="0 0 300 300">
  <!-- Generator: Adobe Illustrator 29.1.0, SVG Export Plug-In . SVG Version: 2.1.0 Build 142)  -->
  <defs>
    <style>
      .st0 {
        fill: #0051b1;
        fill-rule: evenodd;
      }
    </style>
  </defs>
  <path class="st0" d="M101.7,242.2l2.9,5c2.5,4.4.9,10-3.5,12.5l-10.3,5.8c-4.4,2.5-10,.9-12.5-3.5l-30.2-53.3c-2.5-4.4-.9-10,3.5-12.5l10.3-5.8c4.4-2.5,10-.9,12.5,3.5l2.3,4.1,26.8-15.5c7.8-4.5,15.7-7.5,24.2-5.2,7.5-11.6,24.4-20.2,44.6-21.1-1.2-9.3-3.6-16.9-7.5-23.5-.4-.7-.8-1.4-1.3-2-18.9,3.8-29.3-4-37.6-14-4-4.8-7.4-10.1-11.1-14.8-3.3-4.1-6.7-7.7-11.3-9.5h0c-4.1-1.6-3.6-7.5.6-8.5h0c6.5-1.6,18.7-4,30.7-2.3,8.4,1.2,16.7,4.3,23.1,10.9,6.6,6.8,11.2,17.3,11.4,33.4.7,1,4.1,6.9,5,8.9.3-8.3.4-17-.4-25.5-.1-1.2-.2-2.4-.4-3.5,0,0,0,0,0-.1-1.3-10.6-4.2-20.8-10.1-29.8-15.1,2.7-23.6-3.8-30.4-12-3.2-3.9-6.1-8.3-9.1-12.2-2.6-3.3-5.4-6.2-9-7.6-3.9-1.6-3.5-7.3.6-8.3h0c5.4-1.3,15.5-3.3,25.4-1.9,7.1,1,14,3.6,19.4,9.1,5.6,5.7,9.5,14.6,9.5,28.4s0,.2,0,.4c2.7,4.1,4.8,8.4,6.4,13,1-2.9,2.2-5.5,3.6-8,.2-13.5,4.1-22.3,9.7-28,5.4-5.6,12.5-8.3,19.8-9.3,10.2-1.4,20.5.6,26,1.9h0c4.1,1,4.5,6.7.6,8.3h0c-3.7,1.5-6.6,4.4-9.2,7.8-3.1,3.9-6,8.4-9.3,12.4-7,8.5-15.9,15.2-31.9,12.1-3.1,6-4.5,13.3-4.5,22.9.1,1.2.3,2.4.4,3.6.7,7.2.7,14.6.5,21.7.2-.4,2-3.3,2.7-4.3.1-16.1,4.7-26.7,11.4-33.4,6.4-6.5,14.7-9.7,23.1-10.9,12-1.7,24.2.7,30.7,2.3h0c4.2,1.1,4.6,6.9.6,8.5h0c-4.5,1.8-8,5.4-11.3,9.5-3.7,4.7-7.1,10-11.1,14.8-8.3,10-18.7,17.8-37.6,14-.4.7-.9,1.3-1.3,2-3.9,6.6-6.4,14.3-7.6,23.6,13.4.9,25.3,5.2,33.7,11.4,5.3,3.9,9.2,8.6,11.4,13.7,9-2.7,15-.6,18.6,2.8,3.2,3.2,4.6,7.8,4.2,12.2-.4,4.5-2.7,8.7-6.3,10.9l-66.4,40.9c-7,4.3-14.7,5.3-22.7,3.2l-46.6-12.5-5.6,3.2ZM98,251l-30.2-53.3c-.4-.8-1.4-1.1-2.2-.6l-10.3,5.8c-.8.4-1.1,1.4-.6,2.2l30.2,53.3c.4.8,1.4,1.1,2.2.6l10.3-5.8c.8-.4,1.1-1.4.6-2.2h0ZM135,179.8c8.4,3,31.2,9.3,31.4,9.4,7.3,2.4,11.8,9.8,9.8,17.2-.3,1-.6,2-1.1,2.9,1.5-.4,2.9-1.1,4.3-1.9l36.6-21.3c1.2-.7,2.4-1.4,3.6-1.9-1.7-3.9-4.9-7.5-8.9-10.5-7.4-5.5-18-9.2-29.9-10,0,1.6-.2,6.5-.2,7.2,0,2.1-1.7,3.8-3.8,3.8s-3.8-1.7-3.8-3.8-.2-6.8-.2-7.3c-16.7.7-31,7-37.8,16.1h0ZM98,235.7l6.9-4c.9-.5,1.9-.6,2.9-.4l48.2,12.9c5.9,1.6,11.6.8,16.8-2.3l66.4-40.9c1.5-.9,2.4-2.8,2.7-4.7.4-3-.6-6.5-3.7-7.9-2.8-1.2-6.8-1-12.3,1.3-1.8.8-3.8,1.7-5.9,3l-36.6,21.3c-5.9,3.4-12.1,4.4-18.8,3.3,0,0-4.7-.8-4.7-.8-8.3-1.7-15.9-4.2-24.4-6.5-2-.5-3.2-2.6-2.7-4.6s2.6-3.2,4.6-2.7c8.3,2.2,15.8,4.7,23.8,6.3,4,.4,6.9-1.2,7.9-4.6.9-3.5-1.2-6.8-4.6-8-13.7-2.5-27.2-8-36.1-11.1-.6-.2-1.2-.4-1.7-.6-6.8-2.2-13,.6-19.2,4.2l-26.8,15.5,17.6,31.1ZM160.8,116.1c-1.3-8.3-4.3-14.3-8.5-18.5-5.1-5.3-11.9-7.7-18.7-8.7-7.3-1-14.6-.4-20.4.6,5.3,4.3,9.5,10.4,14,16.6,4.8,6.6,9.9,13.3,17.8,16.3,3.7,1.4,7.9,2,13,1.5-5.4-5.8-12.4-10.8-21-15.8-1.8-1-2.4-3.3-1.4-5.1,1-1.8,3.3-2.4,5.1-1.4,8,4.6,14.7,9.4,20.2,14.6h0ZM161.2,61.3c-1.2-5.8-3.4-10.1-6.5-13.2-4.1-4.2-9.5-6.1-15-6.9-5.3-.7-10.7-.4-15.2.3,3.9,3.5,7.1,8.1,10.5,12.8,3.9,5.3,8,10.7,14.3,13.2,2.4.9,5.2,1.4,8.4,1.3-4.1-4.5-9.2-8.5-15.5-11.8-1.8-1-2.5-3.3-1.6-5.1s3.3-2.5,5.1-1.6c6.1,3.2,11.1,7,15.4,11.1h0ZM190.2,75c4,.4,7.3-.1,10.2-1.2,6.5-2.5,10.7-8,14.7-13.5,3.5-4.8,6.9-9.6,10.9-13.2-4.6-.7-10.2-1.1-15.7-.3-5.6.8-11.2,2.8-15.4,7.1-2.9,3-5.1,7-6.4,12.4,3.3-2.9,7.3-5.6,11.9-8.3,1.8-1,4.1-.4,5.1,1.4,1,1.8.4,4.1-1.4,5.1-5.7,3.3-10.3,6.7-13.9,10.5ZM195.6,123.9c5.1.5,9.3,0,13-1.5,7.9-3,13-9.7,17.8-16.3,4.5-6.1,8.7-12.3,14-16.6-5.8-1-13.2-1.6-20.4-.6-6.8.9-13.6,3.4-18.7,8.7-4.1,4.2-7.1,10.2-8.5,18.5,5.4-5.2,12.1-9.9,20.2-14.6,1.8-1,4.1-.4,5.1,1.4,1,1.8.4,4.1-1.4,5.1-8.7,5-15.6,10.1-21,15.8h0ZM64.2,203.8c2-.3,3.9,1.1,4.2,3.1.3,2-1.1,3.9-3.1,4.2-2,.3-3.9-1.1-4.2-3.1-.3-2,1.1-3.9,3.1-4.2ZM112.7,120.4l-20.7-23.7-20.7,23.7h7.3c2.1,0,3.8,1.7,3.8,3.8v63.3c0,2.1-1.7,3.8-3.8,3.8s-3.8-1.7-3.8-3.8v-59.6h-7.9c-2.2,0-4.1-1.2-5-3.2-1-2-.7-4.3.8-6l25-28.7s0,0,0,0c1.1-1.2,2.5-1.9,4.2-1.9s3.2.7,4.2,1.9l25,28.7c1.5,1.7,1.8,4,.8,6-.9,2-2.8,3.2-5.1,3.2h-7.9v34.5c0,2.1-1.7,3.8-3.8,3.8s-3.8-1.7-3.8-3.8v-38.2c0-2.1,1.7-3.8,3.8-3.8h7.3Z"/>
</svg>