<?xml version="1.0" encoding="UTF-8"?>
<svg id="Layer_1" data-name="Layer 1" xmlns="http://www.w3.org/2000/svg" xmlns:xlink="http://www.w3.org/1999/xlink" viewBox="0 0 300 300">
  <defs>
    <style>
      .cls-1, .cls-2 {
        fill: none;
      }

      .cls-2 {
        stroke: #0051b1;
        stroke-linecap: round;
        stroke-linejoin: round;
        stroke-width: 8.78906px;
      }

      .cls-3 {
        clip-path: url(#clippath);
      }
    </style>
    <clipPath id="clippath">
      <rect class="cls-1" x=".00002" width="299.99997" height="300"/>
    </clipPath>
  </defs>
  <g id="g5121">
    <g id="g5123">
      <g class="cls-3">
        <g id="g5125">
          <g id="g5131">
            <path id="path5133" class="cls-2" d="M191.29143,179.97491c4.00254-2.12578,7.61601-5.07012,10.56269-8.76035,1.21289-1.51816,3.12891-2.27637,5.04375-1.94766,9.27773,1.59199,18.97617-2.60977,23.95723-11.23887,4.11328-7.12383,4.0043-15.52266.45527-22.30957-1.27324-2.43515-.35801-5.4457,2.0373-6.7916,3.49805-1.96582,6.52969-4.86621,8.68125-8.59277,5.175-8.96308,3.66914-19.94414-2.96777-27.19218-1.56504-1.70859-1.78242-4.22988-.60938-6.22852.02695-.04629.05391-.09199.08086-.13887,2.55586-4.42734,3.48281-9.34921,2.9666-14.06894-1.29668-11.86055-14.57344-18.27188-24.93047-12.34863-5.85703,3.34863-13.23926,8.83711-21.36328,17.81015"/>
          </g>
          <g id="g5135">
            <path id="path5137" class="cls-2" d="M104.38043,77.71228c-7.96055-8.70469-15.1916-14.06308-20.94902-17.35547-10.35762-5.92324-23.63379.48809-24.93105,12.34863-.51621,4.72031.41074,9.6416,2.96719,14.06953.02695.04629.05391.09199.08027.13828,1.17305,1.99863.95566,4.51992-.60938,6.22852-6.63633,7.24805-8.14219,18.2291-2.96719,27.19218,2.15156,3.72715,5.1832,6.62754,8.68066,8.59277,2.3959,1.3459,3.31113,4.35703,2.03789,6.7916-3.54961,6.78691-3.65801,15.18574.45469,22.30957,4.98164,8.6291,14.68008,12.83145,23.95781,11.23887,1.91484-.32871,3.83086.42949,5.04316,1.94766,2.91152,3.6457,6.47344,6.56367,10.41914,8.6836"/>
          </g>
          <g id="g5139">
            <path id="path5141" class="cls-2" d="M170.75156,179.89832c8.1668-5.6291,13.93359-14.48965,15.45644-24.73535.30469-2.05137,1.73496-3.72656,3.6791-4.44844,6.61348-2.45332,11.90039-7.63301,14.50078-14.17265"/>
          </g>
          <g id="g5143">
            <path id="path5145" class="cls-2" d="M204.07335,117.40497c-1.98223-4.55039-5.27344-8.39883-9.41074-11.05312-2.51836-1.61602-3.39258-4.92832-1.86562-7.50293,2.2043-3.71777,3.47051-8.05605,3.47051-12.69141,0-11.11523-7.27559-20.5248-17.32324-23.74043-2.41582-.77285-4.03301-2.97656-4.01484-5.5125.00059-.05742.00059-.11426.00059-.17168,0-13.76836-11.16152-24.92988-24.92988-24.92988s-24.92988,11.16152-24.92988,24.92988c0,.05742,0,.11426.00059.17168.01758,2.53594-1.6002,4.73965-4.01543,5.5125-10.04707,3.21562-17.32265,12.6252-17.32265,23.74043,0,4.63535,1.26621,8.97422,3.47051,12.6914,1.52636,2.57461.65273,5.88691-1.86621,7.50293-6.90586,4.43144-11.48262,12.17344-11.48262,20.98828,0,10.71855,6.76524,19.85273,16.25859,23.3748,1.94414.72129,3.37383,2.39648,3.67911,4.44785,1.52285,10.2457,7.28964,19.10625,15.45644,24.73594"/>
          </g>
          <g id="g5147">
            <path id="path5149" class="cls-2" d="M142.54131,179.89832c-1.48359-11.46973-2.38008-26.39941-2.38008-42.72304,0-36.17695,4.40449-65.50429,9.83848-65.50429,5.43457,0,9.83906,29.32734,9.83906,65.50429,0,16.32363-.89648,31.25332-2.38008,42.72304"/>
          </g>
          <g id="g5151">
            <path id="path5153" class="cls-2" d="M105.96429,218.6142l6.44414,17.38418"/>
          </g>
          <g id="g5155">
            <path id="path5157" class="cls-2" d="M119.06432,253.95184l3.86484,10.425c.85195,2.29805,3.04336,3.82266,5.49434,3.82266h43.15312c2.45098,0,4.64238-1.52461,5.49433-3.82266l16.96523-45.76288"/>
          </g>
          <g id="g5159">
            <path id="path5161" class="cls-2" d="M295.60545,197.83521h-151.3494"/>
          </g>
          <g id="g5163">
            <path id="path5165" class="cls-2" d="M4.39455,217.90869h291.21091"/>
          </g>
          <g id="g5167">
            <path id="path5169" class="cls-2" d="M125.11939,197.83521H4.3946"/>
          </g>
          <g id="g5171">
            <path id="path5173" class="cls-2" d="M100.66167,197.83521c-4.86973,0-8.81719-3.94746-8.81719-8.81719,0-4.86914,3.94746-8.81719,8.81719-8.81719h98.67656c4.86973,0,8.81719,3.94805,8.81719,8.81719,0,4.86973-3.94747,8.81719-8.81719,8.81719"/>
          </g>
          <g id="g5175">
            <path id="path5177" class="cls-2" d="M138.36423,232.41119l1.75781,19.40801"/>
          </g>
          <g id="g5179">
            <path id="path5181" class="cls-2" d="M161.63577,232.41119l-1.75781,19.40801"/>
          </g>
        </g>
      </g>
    </g>
  </g>
</svg>