<?xml version="1.0" encoding="UTF-8"?>
<svg id="Layer_1" data-name="Layer 1" xmlns="http://www.w3.org/2000/svg" viewBox="0 0 300 300">
  <defs>
    <style>
      .cls-1 {
        fill: #0051b1;
        fill-rule: evenodd;
      }
    </style>
  </defs>
  <path class="cls-1" d="M150,89.24413c-33.55449,0-60.75587,27.20138-60.75587,60.75587s27.20138,60.75625,60.75587,60.75625,60.75625-27.20126,60.75625-60.75625-27.20126-60.75587-60.75625-60.75587ZM150,108.43025c-22.95876,0-41.56975,18.61099-41.56975,41.56975s18.61099,41.57,41.56975,41.57,41.57-18.61124,41.57-41.57-18.61124-41.56975-41.57-41.56975Z"/>
  <path class="cls-1" d="M117.91162,25.26475c1.98737-7.28687,8.63837-12.76475,16.59962-12.76475h29.97875c7.96125,0,14.61126,5.47788,16.59875,12.76475l.03875.14037,5.53625,23.0285c.23251.96862,1.08626,2.14313,2.74376,2.80563.74625.29775,1.48749.604,2.2275.919,1.60625.6845,3.01125.46975,3.85375-.03588l19.375-11.62462c6.67875-4.00712,15.27374-3.09587,20.86251,2.49187l21.28375,21.2845c5.58875,5.58775,6.49874,14.18387,2.4925,20.86225l-11.625,19.37437c-.50499.84288-.72,2.2485-.03626,3.85475.32127.75238.6325,1.50813.93627,2.26712.65749,1.64963,1.8225,2.502,2.78623,2.73838l22.87002,5.61262c7.655,1.78699,13.06624,8.67512,13.06624,16.52638v29.97875c0,7.85249-5.41251,14.73999-13.06624,16.5275l-22.87002,5.61249c-.96374.23625-2.12874,1.08875-2.78623,2.7375-.30377.75876-.615,1.51501-.93627,2.2675-.68374,1.60625-.46873,3.0125.03626,3.855l11.625,19.37374c4.00624,6.67877,3.09625,15.275-2.4925,20.86251l-21.28375,21.28501c-5.58877,5.58748-14.18376,6.49874-20.86251,2.49124l-19.375-11.62374c-.8425-.50626-2.2475-.72124-3.85375-.03624-.7625.32375-1.52625.63999-2.29375.94624-1.64499.65501-2.49624,1.81375-2.73499,2.77376l-5.48875,22.07-.02875.10374c-1.98749,7.2875-8.6375,12.765-16.59875,12.765h-29.97875c-7.96125,0-14.61225-5.4775-16.59962-12.765l-.02837-.10374-5.48887-22.07c-.23875-.96002-1.09038-2.11875-2.73426-2.77376-.76762-.30625-1.5325-.62249-2.29412-.94624-1.60613-.685-3.01175-.47002-3.8545.03624l-19.37438,11.62374c-6.6785,4.00751-15.2745,3.09625-20.86225-2.49124l-21.2845-21.28501c-5.58788-5.58751-6.499-14.18374-2.492-20.86251l11.62475-19.37374c.50563-.8425.72038-2.24875.03588-3.855-.33038-.775-.65125-1.55375-.96263-2.33625-.65125-1.63499-1.80087-2.485-2.75462-2.7275l-21.9205-5.565c-7.63037-1.8025-13.02125-8.68-13.02125-16.51624v-29.97875c0-7.83626,5.39062-14.7125,13.021-16.51576l21.92075-5.56537c.95375-.24226,2.10337-1.09251,2.75462-2.72763.31137-.782.63225-1.5605.96263-2.33575.6845-1.60625.46975-3.01187-.03588-3.85475l-11.62475-19.37437c-4.007-6.67838-3.09587-15.2745,2.492-20.86225l21.2845-21.2845c5.58775-5.58775,14.18375-6.499,20.86213-2.49187l19.3745,11.62462c.84287.50563,2.2485.72038,3.85475.03588.73912-.315,1.48125-.62125,2.22638-.919,1.65812-.6625,2.51175-1.837,2.74463-2.80563l5.53612-23.0285.03825-.14037ZM130.99124,52.91812l5.10501-21.23213h26.80875l5.10374,21.23213c1.86751,7.76812,7.595,13.46638,14.28126,16.13775.60999.24375,1.2175.49463,1.8225.75263,6.54125,2.78725,14.49749,2.81637,21.24751-1.23425l18.01124-10.80638,18.86125,18.86113-10.80625,18.01062c-4.05123,6.75088-4.02248,14.70637-1.23498,21.24712.2625.61687.51875,1.23575.76625,1.85688,2.65625,6.65612,8.31125,12.36513,16.03374,14.26013l21.32249,5.23375v26.525l-21.32249,5.2325c-7.7225,1.895-13.3775,7.605-16.03374,14.26125-.2475.62001-.50375,1.24-.76625,1.85626-2.78749,6.54-2.81625,14.49625,1.23498,21.24751l10.80625,18.01-18.86125,18.86125-18.01124-10.80625c-6.75001-4.04999-14.70625-4.02124-21.24751-1.23374-.62375.265-1.24875.52376-1.87875.77374-6.635,2.64626-12.33375,8.27377-14.24625,15.96501l-5.06876,20.38374h-26.83625l-5.06874-20.38374c-1.91375-7.69-7.61125-13.31875-14.24738-15.96501-.62875-.24998-1.25512-.50874-1.87862-.77374-6.54075-2.78749-14.49651-2.81625-21.24738,1.23374l-18.01062,10.80625-18.86113-18.86125,10.80638-18.01c4.05062-6.75125,4.0215-14.70751,1.23425-21.24751-.27063-.635-.5335-1.2725-.78838-1.9125-2.6305-6.60626-8.21462-12.28501-15.85788-14.22501l-20.477-5.19999v-26.55126l20.477-5.19874c7.64325-1.94,13.22737-7.62,15.858-14.22526.25475-.64.51762-1.27763.78825-1.91275,2.78724-6.54075,2.81637-14.49637-1.23425-21.24738l-10.80638-18.01062,18.86113-18.86113,18.01062,10.80638c6.75087,4.05062,14.70662,4.0215,21.24726,1.23425.60562-.258,1.21337-.50887,1.82337-.75263,6.68626-2.67137,12.414-8.36962,14.28025-16.13775Z"/>
</svg>