<?xml version="1.0" encoding="UTF-8"?>
<svg id="Layer_1" xmlns="http://www.w3.org/2000/svg" xmlns:svgjs="http://svgjs.dev/svgjs" version="1.1" viewBox="0 0 300 300">
  <!-- Generator: Adobe Illustrator 29.1.0, SVG Export Plug-In . SVG Version: 2.1.0 Build 142)  -->
  <defs>
    <style>
      .st0 {
        fill: #0051b1;
      }
    </style>
  </defs>
  <g id="_x38_4x84">
    <path class="st0" d="M27.2,162.1c-.6,0-1.2-.2-1.7-.5-3.2-2.1-8.6-6.1-9-9.7-.1-1.3.3-2.6,1.2-3.5,2.8-2.8,25-17.6,35.3-22.5,10.8-5.1,46.1-19.3,66.8-17.8,37.9-13.6,41.2-11.6,42.4-10.8,1.3.8,3.4,2.4,5.9,4.3,4.1,3.1,9.3,7,12.6,8.7l40.1,20.1c1.5.8,2.1,2.6,1.4,4.1-.8,1.5-2.6,2.1-4.1,1.4l-40.1-20.1c-3.9-1.9-9.3-6-13.6-9.3-2-1.5-3.9-3-5.1-3.7,0,0,0,0-.1,0-4,0-22.5,5.8-38,11.4-.4.2-.9.2-1.3.2-19.5-1.8-55.7,13.1-64.3,17.2-9.6,4.5-27.8,16.7-32.6,20.4,1.1,1.2,3.4,3.1,5.6,4.6,1.4.9,1.8,2.8.9,4.3-.6.9-1.6,1.4-2.6,1.4h0Z"/>
    <path class="st0" d="M274.5,165.5c-.7,0-1.4-.2-2-.7-1.7-1.4-3.4-2.9-5.2-4.6-1.5-1.4-3.1-2.9-4.9-4.4-4.6-4-7.8-12.4-7.8-17.8s1.9-6,5-11.2c1.6-2.7,4.7-7.9,5.4-10.6-1.9.5-4.3,2-6.1,3.1-.6.4-1.2.7-1.7,1-4.8,2.8-9.2,5.8-13,8.5-4.6,3.2-8.4,5.9-12.1,9-4.2,3.4-8.8,6.6-14.5,6.2-6-.4-18.4-5.1-30.4-9.7-6.3-2.4-12.2-4.7-15.5-5.6-9.3-2.6-36.3-10-36.3-10l1.6-6s27,7.5,36.3,10c3.6,1,9.4,3.2,16.1,5.8,10.5,4,23.5,9,28.6,9.3,3.8.2,7.3-2.4,10.3-4.8,3.9-3.2,7.8-6,12.5-9.3,3.8-2.7,8.4-5.8,13.4-8.7.5-.3,1-.6,1.5-1,2.9-1.8,6.6-4.1,10.2-4.2,2.6-.1,4.1.7,4.9,2.5,2,4.5-1.8,10.9-5.9,17.7-1.6,2.7-4.1,6.8-4.1,8.1,0,3.8,2.5,10.3,5.6,13.1,1.8,1.6,3.5,3.1,5.1,4.6,1.7,1.6,3.3,3.1,4.9,4.4,1.3,1.1,1.5,3,.4,4.4-.6.7-1.5,1.1-2.4,1.1h0Z"/>
    <path class="st0" d="M230.2,167.5c-.1,0-.2,0-.4,0-1.7-.2-2.9-1.7-2.7-3.4,1.2-10.2-3.4-22.9-3.4-23-.6-1.6.2-3.4,1.8-4,1.6-.6,3.4.2,4,1.8.2.6,5.1,14.2,3.8,25.9-.2,1.6-1.5,2.7-3.1,2.7Z"/>
    <path class="st0" d="M147.3,203.4c-2.4,0-8.5-2.1-25.1-17.4-8-.4-52.1-2.8-66.2-5.4-15.4-2.9-35.5-12.4-36.4-12.8-1.5-.7-2.2-2.6-1.5-4.1.7-1.5,2.6-2.2,4.1-1.5.2,0,20.2,9.5,34.9,12.3,14.8,2.8,64.3,5.3,66.4,5.4.8,0,1.5.3,2.1.8,8,7.4,18.3,15.5,21.4,16.4,1.4-1.3,3-7.9,3.3-12-2-.8-7-1.6-11.8-1.9-1.7-.1-3-1.6-2.9-3.3.1-1.7,1.6-3,3.3-2.9,17.5,1.2,17.5,5.1,17.5,6.9s-.6,16.9-7.8,19.2c-.3,0-.7.2-1.2.2Z"/>
    <path class="st0" d="M219.8,192c-8.6,0-34.1-6.2-39-7.4-6,.5-25.8,1.2-26.7,1.3-1.6,0-3.1-1.3-3.2-3,0-1.7,1.3-3.1,3-3.2.2,0,21.8-.8,26.8-1.3.4,0,.7,0,1.1,0,7.3,1.8,25.5,6.1,34.6,7.1-.6-3.3-1.4-7.6-1.6-8.9-.2-1.7,1-3.2,2.7-3.4,1.7-.2,3.2,1,3.4,2.7.2,1.6,1.7,9.5,2.3,12.4.2.9,0,1.8-.6,2.5-.6.7-1.4,1.1-2.3,1.2-.2,0-.3,0-.5,0Z"/>
    <path class="st0" d="M193.9,179.1c-1.3,0-2.5-.8-2.9-2.1-.5-1.6.3-3.4,2-3.9,32.6-10.7,33.6-10.7,34.2-10.7,3.7,0,7.4.9,11,1.8,1.2.3,2.5.6,3.6.8h.5c12.5,2.7,25.4,5.4,37.8,3.6,1.7-.2,3.3.9,3.5,2.6.2,1.7-.9,3.3-2.6,3.5-13.4,1.9-26.9-.9-39.9-3.6h-.5c-1.2-.4-2.5-.7-3.8-1-3.1-.8-6.4-1.5-9.2-1.6-2.7.7-21.2,6.7-32.5,10.4-.3.1-.6.2-1,.2Z"/>
    <path class="st0" d="M84.3,172.4c-.5,0-.9-.1-1.4-.3-1.4-.7-2.1-2.4-1.5-3.9,0-.3.7-3,1.4-13.8.6-9.6-11-23.5-15.6-28-1.2-1.2-1.2-3.2,0-4.4s3.2-1.2,4.4,0c.7.7,18.2,18.4,17.4,32.7-.5,9.1-1.2,14.5-1.9,15.9-.5,1.1-1.6,1.7-2.8,1.7Z"/>
    <path class="st0" d="M104.9,176.8c-1.5,0-2.8-1.1-3.1-2.7-.2-1.7,1-3.2,2.6-3.5,3.4-.5,6.8-2,9.7-3.6h-18.8c-1.7,0-3.1-1.4-3.1-3.1s1.4-3.1,3.1-3.1h28.6c1.3,0,2.4.8,2.9,2,.5,1.2.1,2.6-.8,3.4-.4.4-10.3,9.1-20.7,10.5-.1,0-.3,0-.4,0Z"/>
    <circle class="st0" cx="46.2" cy="149" r="4.6"/>
    <path class="st0" d="M53.6,169.3c-1,0-1.9-.5-2.5-1.3-1-1.4-.7-3.3.7-4.3,4.5-3.2,5.8-10,6.5-14.8.8-6.1-1.3-11.4-6.9-17.1-1.2-1.2-1.2-3.2,0-4.4,1.2-1.2,3.2-1.2,4.4,0,4.4,4.5,10,11.6,8.6,22.2-.8,6-2.6,14.5-9,19-.5.4-1.2.6-1.8.6Z"/>
    <path class="st0" d="M70.3,169.9c-1.1,0-2.1-.6-2.7-1.5-.9-1.5-.3-3.4,1.1-4.2,3-1.7,11.2-7,13.5-10.7.9-1.4,2.8-1.9,4.3-1,1.4.9,1.9,2.8,1,4.3-3.6,5.7-14.4,12-15.6,12.7-.5.3-1,.4-1.5.4Z"/>
    <path class="st0" d="M229.5,150.1c-1.1,0-2.2-.6-2.8-1.7-.8-1.5-.1-3.4,1.4-4.1,7.1-3.5,26.2-13.3,29.7-15.7,1.4-1,3.3-.6,4.3.8,1,1.4.6,3.3-.8,4.3-4.5,3.2-29.4,15.6-30.5,16.1-.4.2-.9.3-1.4.3Z"/>
    <path class="st0" d="M266.7,159.3c-.2,0-.3,0-.5,0-7.7-1.3-34.4-.7-34.7-.7h0c-1.7,0-3.1-1.3-3.1-3,0-1.7,1.3-3.1,3-3.2,1.1,0,27.6-.6,35.8.8,1.7.3,2.8,1.9,2.5,3.6-.3,1.5-1.6,2.6-3,2.6h0Z"/>
    <path class="st0" d="M140.2,119.1c-1.3,0-2.5-.8-2.9-2.1-.5-1.6.3-3.4,1.9-3.9,10.2-3.5,25.9-8.8,27.2-9.3,1.6-.6,3.4.1,4,1.7.6,1.6-.1,3.4-1.7,4-1.9.8-24.9,8.6-27.6,9.4-.3.1-.7.2-1,.2Z"/>
    <path class="st0" d="M160,124.5c-1.1,0-2.2-.6-2.8-1.7-.8-1.5-.2-3.4,1.4-4.1,6.1-3.1,15.1-7.7,16.2-8.4,1.4-1,3.3-.6,4.3.9.9,1.4.6,3.3-.9,4.3-1.8,1.2-14.3,7.5-16.8,8.8-.4.2-.9.3-1.4.3Z"/>
    <path class="st0" d="M179.3,129.1c-1,0-2-.5-2.6-1.4-.9-1.4-.5-3.3.9-4.3,10.5-6.8,11-6.8,12-6.8,1.7,0,3.1,1.4,3.1,3.1s-.9,2.5-2.1,2.9c-1.1.6-5.8,3.5-9.6,6-.5.3-1.1.5-1.7.5Z"/>
    <path class="st0" d="M191,134.6c-1.1,0-2.2-.6-2.7-1.6-.8-1.5-.2-3.4,1.3-4.2l10.7-5.7c1.5-.8,3.4-.2,4.2,1.3.8,1.5.2,3.4-1.3,4.2l-10.7,5.7c-.5.2-1,.4-1.5.4Z"/>
    <path class="st0" d="M204.6,139.2c-1,0-1.9-.5-2.5-1.3-1-1.4-.6-3.3.8-4.3l8-5.6c1.4-1,3.3-.6,4.3.8,1,1.4.6,3.3-.8,4.3l-8,5.6c-.5.4-1.1.5-1.8.5Z"/>
    <path class="st0" d="M28.7,179.6c-1.1,0-2.2-.6-2.8-1.7-3.4-7-1.4-10.7-1-11.4.9-1.5,2.8-1.9,4.2-1,1.4.9,1.9,2.6,1.1,4.1,0,.2-.6,2,1.2,5.7.7,1.5,0,3.4-1.4,4.1-.4.2-.9.3-1.3.3Z"/>
    <path class="st0" d="M94.1,138.7c-1.5,0-2.8-1.1-3.1-2.7-.2-1.7,1-3.2,2.6-3.5.2,0,2.4-.4,2.7-2.3.2-1.5-2.8-2.7-2.8-2.8-1.6-.6-2.5-2.3-1.9-3.9.6-1.6,2.3-2.5,3.9-1.9,2.9,1,7.7,4.2,6.9,9.5-.8,5.1-5.3,7.1-7.9,7.5-.1,0-.3,0-.4,0Z"/>
    <path class="st0" d="M105.7,150.9c-1.5,0-2.8-1.1-3.1-2.7-.2-1.7,1-3.2,2.6-3.5.2,0,2.4-.4,2.7-2.3.2-1.5-2.8-2.7-2.8-2.8-1.6-.6-2.5-2.3-1.9-3.9.6-1.6,2.3-2.5,3.9-1.9,2.9,1,7.7,4.2,6.9,9.5-.8,5.1-5.3,7.1-7.9,7.5-.1,0-.3,0-.4,0Z"/>
    <path class="st0" d="M119.5,157c-1.5,0-2.8-1.1-3.1-2.7-.2-1.7,1-3.2,2.6-3.5.2,0,2.4-.4,2.7-2.3.2-1.5-2.8-2.8-2.8-2.8-1.6-.6-2.5-2.3-1.9-3.9.6-1.6,2.3-2.5,3.9-1.9,2.9,1,7.7,4.2,6.9,9.5-.8,5.1-5.3,7.1-7.9,7.5-.1,0-.3,0-.4,0Z"/>
    <path class="st0" d="M151.9,163.2c-1.5,0-2.8-1.1-3.1-2.7-.2-1.7,1-3.2,2.6-3.5.2,0,2.4-.4,2.7-2.3.2-1.5-2.8-2.8-2.8-2.8-1.6-.6-2.5-2.3-1.9-3.9s2.3-2.5,3.9-1.9c2.9,1,7.7,4.2,6.9,9.5-.8,5.1-5.3,7.1-7.9,7.5-.1,0-.3,0-.4,0Z"/>
    <path class="st0" d="M172.8,153.4c-1.5,0-2.8-1.1-3.1-2.7-.2-1.7,1-3.2,2.6-3.5.2,0,2.4-.4,2.7-2.3.2-1.5-2.8-2.8-2.8-2.8-1.6-.6-2.5-2.3-1.9-3.9.6-1.6,2.3-2.5,3.9-1.9,2.9,1,7.7,4.2,6.9,9.5-.8,5.1-5.3,7.1-7.9,7.5-.1,0-.3,0-.4,0Z"/>
    <path class="st0" d="M110.2,142.6c-1.5,0-2.8-1.1-3.1-2.7-.2-1.7,1-3.2,2.6-3.5.2,0,2.4-.4,2.7-2.3.2-1.5-2.8-2.7-2.8-2.8-1.6-.6-2.5-2.3-1.9-3.9.6-1.6,2.3-2.5,3.9-1.9,2.9,1,7.7,4.2,6.9,9.5-.8,5.1-5.3,7.1-7.9,7.5-.1,0-.3,0-.4,0Z"/>
    <path class="st0" d="M123.1,137.2c-1.5,0-2.8-1.1-3.1-2.7-.2-1.7,1-3.2,2.6-3.5.2,0,2.4-.4,2.7-2.3.2-1.5-2.8-2.7-2.8-2.8-1.6-.6-2.5-2.3-1.9-3.9.6-1.6,2.3-2.5,3.9-1.9,2.9,1,7.7,4.2,6.9,9.5-.8,5.1-5.3,7.1-7.9,7.5-.1,0-.3,0-.4,0Z"/>
    <path class="st0" d="M134.9,153.8c-1.5,0-2.8-1.1-3.1-2.7-.2-1.7,1-3.2,2.6-3.5.2,0,2.4-.4,2.7-2.3.2-1.5-2.8-2.7-2.8-2.8-1.6-.6-2.5-2.3-1.9-3.9.6-1.6,2.3-2.5,3.9-1.9,2.9,1,7.7,4.2,6.9,9.5-.8,5.1-5.3,7.1-7.9,7.5-.1,0-.3,0-.4,0Z"/>
    <path class="st0" d="M142.2,147.2c-1.5,0-2.8-1.1-3.1-2.7-.2-1.7,1-3.2,2.6-3.5.2,0,2.4-.4,2.7-2.3.2-1.5-2.8-2.7-2.8-2.8-1.6-.6-2.5-2.3-1.9-3.9s2.3-2.5,3.9-1.9c2.9,1,7.7,4.2,6.9,9.5-.8,5.1-5.3,7.1-7.9,7.5-.1,0-.3,0-.4,0Z"/>
    <path class="st0" d="M157.1,154.5c-1.5,0-2.8-1.1-3.1-2.7-.2-1.7,1-3.2,2.6-3.5.2,0,2.4-.4,2.7-2.3.2-1.5-2.8-2.7-2.8-2.8-1.6-.6-2.5-2.3-1.9-3.9.6-1.6,2.3-2.5,3.9-1.9,2.9,1,7.7,4.2,6.9,9.5-.8,5.1-5.3,7.1-7.9,7.5-.1,0-.3,0-.4,0Z"/>
    <path class="st0" d="M167.8,176c-1.5,0-2.8-1.1-3.1-2.7-.2-1.7,1-3.2,2.6-3.5.2,0,2.4-.4,2.7-2.3.2-1.5-2.8-2.8-2.8-2.8-1.6-.6-2.5-2.3-1.9-3.9.6-1.6,2.3-2.5,3.9-1.9,2.9,1,7.7,4.2,6.9,9.5-.8,5.1-5.3,7.1-7.9,7.5-.1,0-.3,0-.4,0Z"/>
    <path class="st0" d="M138.1,173.7c-1.5,0-2.8-1.1-3.1-2.7-.2-1.7,1-3.2,2.6-3.5.2,0,2.4-.4,2.7-2.3.2-1.5-2.8-2.8-2.8-2.8-1.6-.6-2.5-2.3-1.9-3.9.6-1.6,2.3-2.5,3.9-1.9,2.9,1,7.7,4.2,6.9,9.5-.8,5.1-5.3,7.1-7.9,7.5-.1,0-.3,0-.4,0Z"/>
    <path class="st0" d="M182.8,167.5c-1.5,0-2.8-1.1-3.1-2.7-.2-1.7,1-3.2,2.6-3.5.2,0,2.4-.4,2.7-2.3.2-1.5-2.8-2.8-2.8-2.8-1.6-.6-2.5-2.3-1.9-3.9.6-1.6,2.3-2.5,3.9-1.9,2.9,1,7.7,4.2,6.9,9.5-.8,5.1-5.3,7.1-7.9,7.5-.1,0-.3,0-.4,0Z"/>
    <path class="st0" d="M196.7,160.9c-1.5,0-2.8-1.1-3.1-2.7-.2-1.7,1-3.2,2.6-3.5.2,0,2.4-.4,2.7-2.3.2-1.5-2.8-2.8-2.8-2.8-1.6-.6-2.5-2.3-1.9-3.9.6-1.6,2.3-2.5,3.9-1.9,2.9,1,7.7,4.2,6.9,9.5-.8,5.1-5.3,7.1-7.9,7.5-.1,0-.3,0-.4,0Z"/>
  </g>
</svg>