<?xml version="1.0" encoding="UTF-8"?>
<svg id="Layer_1" xmlns="http://www.w3.org/2000/svg" xmlns:svgjs="http://svgjs.dev/svgjs" version="1.1" viewBox="0 0 300 300">
  <!-- Generator: Adobe Illustrator 29.1.0, SVG Export Plug-In . SVG Version: 2.1.0 Build 142)  -->
  <defs>
    <style>
      .st0 {
        fill: #0051b1;
      }
    </style>
  </defs>
  <path class="st0" d="M277.2,150h-57.4v-41s0,0,0,0c0-5.6,3.8-10.3,9-11.8,2,6.8,8.2,11.8,15.7,11.8s24.6-6.4,24.6-16.4-16.2-16.4-24.6-16.4-14.3,5.4-15.9,12.7c-9.6,1.7-16.9,10.1-16.9,20.1s0,0,0,0h0c-2.5-1.8-5.4-3.2-8.7-3.7-1.7-7.3-8.2-12.7-15.9-12.7s-24.6,6.4-24.6,16.4,16.2,16.4,24.6,16.4,13.6-5,15.7-11.8c5.2,1.5,9,6.2,9,11.8v24.5h-57.4v-65.6c0-5.6,3.8-10.3,9-11.8,2,6.8,8.2,11.8,15.7,11.8s24.6-6.4,24.6-16.4-16.2-16.4-24.6-16.4-14.3,5.4-15.9,12.7c-3.2.6-6.2,1.9-8.7,3.8h0c0-.1,0-.1,0-.1,0-10.1-7.3-18.4-16.9-20.1-1.7-7.3-8.2-12.7-15.9-12.7s-24.6,6.4-24.6,16.4,16.2,16.4,24.6,16.4,13.6-5,15.7-11.8c5.1,1.5,8.9,6.2,9,11.8,0,0,0,0,0,0v82h-57.6v-24.5c0-5.6,3.8-10.3,9-11.8,2,6.8,8.2,11.8,15.7,11.8s24.6-6.4,24.6-16.4-16.2-16.4-24.6-16.4-14.3,5.4-15.9,12.7c-3.2.6-6.2,1.9-8.7,3.8h0c0-.1,0-.1,0-.1,0-10.1-7.3-18.4-16.9-20.1-1.7-7.3-8.2-12.7-15.9-12.7s-24.6,6.4-24.6,16.4,16.2,16.4,24.6,16.4,13.6-5,15.7-11.8c5.1,1.5,8.9,6.2,9,11.8,0,0,0,0,0,0v41H22.8c-2.3,0-4.1,1.8-4.1,4.1v90.3c0,2.3,1.8,4.1,4.1,4.1h8.2v12.3c0,2.3,1.8,4.1,4.1,4.1h45.1c2.3,0,4.1-1.8,4.1-4.1v-12.3h131.3v12.3c0,2.3,1.8,4.1,4.1,4.1h45.1c2.3,0,4.1-1.8,4.1-4.1v-12.3h8.2c2.3,0,4.1-1.8,4.1-4.1v-90.3c0-2.3-1.8-4.1-4.1-4.1ZM244.4,84.4c6.1,0,16.4,5.1,16.4,8.2s-10.3,8.2-16.4,8.2-8.2-3.7-8.2-8.2,3.7-8.2,8.2-8.2ZM187,117.2c-6.1,0-16.4-5.1-16.4-8.2s10.3-8.2,16.4-8.2,8.2,3.7,8.2,8.2-3.7,8.2-8.2,8.2ZM178.8,59.8c6.1,0,16.4,5.1,16.4,8.2s-10.3,8.2-16.4,8.2-8.2-3.7-8.2-8.2,3.7-8.2,8.2-8.2ZM121.4,59.7c-6.1,0-16.4-5.1-16.4-8.2s10.3-8.2,16.4-8.2,8.2,3.7,8.2,8.2-3.7,8.2-8.2,8.2ZM113,100.8c6.1,0,16.4,5.1,16.4,8.2s-10.3,8.2-16.4,8.2-8.2-3.7-8.2-8.2,3.7-8.2,8.2-8.2ZM55.6,100.8c-6.1,0-16.4-5.1-16.4-8.2s10.3-8.2,16.4-8.2,8.2,3.7,8.2,8.2-3.7,8.2-8.2,8.2ZM83.9,158.2c.1,0,.2,0,.3,0s.2,0,.3,0h65.1c.1,0,.2,0,.3,0s.2,0,.3,0h64.9c.1,0,.2,0,.3,0s.2,0,.3,0h57v36.9H26.9v-36.9h57ZM76.2,256.7h-36.9v-8.2h36.9v8.2ZM260.8,256.7h-36.9v-8.2h36.9v8.2ZM264.9,240.3H26.9v-36.9h246.2v36.9h-8.2Z"/>
</svg>