<?xml version="1.0" encoding="UTF-8"?>
<svg id="Layer_1" xmlns="http://www.w3.org/2000/svg" xmlns:svgjs="http://svgjs.dev/svgjs" version="1.1" viewBox="0 0 300 300">
  <!-- Generator: Adobe Illustrator 29.1.0, SVG Export Plug-In . SVG Version: 2.1.0 Build 142)  -->
  <defs>
    <style>
      .st0 {
        fill: #0051b1;
      }
    </style>
  </defs>
  <path class="st0" d="M229.1,164c-24,0-45,13.1-56.3,32.5l-41.9-21.3c3.3-7.8,5.1-16.3,5.1-25.2s-1.8-17.3-5-24.9l41.4-22.3c11.2,19.8,32.4,33.2,56.8,33.2,36,0,65.2-29.3,65.2-65.2S265,5.7,229.1,5.7s-65.2,29.3-65.2,65.2,1.6,16.2,4.4,23.5l-41.6,22.4c-11.4-19.1-32.2-31.9-56-31.9-35.9,0-65.2,29.3-65.2,65.2s29.3,65.2,65.2,65.2,44.4-12.7,55.8-31.7l42.1,21.3c-3,7.5-4.8,15.7-4.8,24.3,0,36,29.3,65.2,65.2,65.2s65.2-29.3,65.2-65.2-29.3-65.2-65.2-65.2h0ZM192.2,112.7c2.3-18.4,18.1-32.5,36.9-32.5s34.5,14.1,36.9,32.5c-9.8,8.7-22.7,14-36.9,14s-27-5.3-36.9-14ZM210.5,52.2c0-10.3,8.4-18.6,18.6-18.6s18.6,8.4,18.6,18.6-8.4,18.6-18.6,18.6-18.6-8.4-18.6-18.6ZM229.1,15c30.8,0,55.9,25.1,55.9,55.9s-4.2,24.1-11.3,33.5c-4-13.8-14.3-24.9-27.4-30.1,6.5-5.1,10.7-13.1,10.7-21.9,0-15.4-12.6-28-28-28s-28,12.6-28,28,4.2,16.8,10.7,21.9c-13.1,5.3-23.4,16.4-27.4,30.1-7-9.3-11.3-20.9-11.3-33.5.1-30.8,25.2-55.9,56-55.9h0ZM70.8,94.1c30.8,0,55.9,25.1,55.9,55.9s-4.2,24.1-11.3,33.5c-4-13.8-14.3-24.9-27.4-30.1,6.5-5.1,10.7-13.1,10.7-21.9,0-15.4-12.6-28-28-28s-28,12.6-28,28,4.2,16.8,10.7,21.9c-13.1,5.3-23.4,16.4-27.4,30.1-7-9.3-11.3-20.9-11.3-33.5.1-30.8,25.2-55.9,56-55.9h0ZM52.2,131.4c0-10.3,8.4-18.6,18.6-18.6s18.6,8.4,18.6,18.6-8.4,18.6-18.6,18.6-18.6-8.4-18.6-18.6h0ZM33.9,191.8c2.3-18.4,18.1-32.5,36.9-32.5s34.5,14.1,36.9,32.5c-9.8,8.7-22.7,14-36.9,14s-27.1-5.3-36.9-14ZM192.2,271c2.3-18.4,18.1-32.5,36.9-32.5s34.5,14.1,36.9,32.5c-9.8,8.7-22.7,14-36.9,14s-27-5.3-36.9-14ZM210.5,210.5c0-10.3,8.4-18.6,18.6-18.6s18.6,8.4,18.6,18.6-8.4,18.6-18.6,18.6-18.6-8.4-18.6-18.6ZM273.8,262.6c-4-13.8-14.3-24.9-27.4-30.1,6.5-5.1,10.7-13.1,10.7-21.9,0-15.4-12.6-28-28-28s-28,12.6-28,28,4.2,16.8,10.7,21.9c-13.1,5.3-23.4,16.4-27.4,30.1-7-9.3-11.3-20.9-11.3-33.5,0-30.8,25.1-55.9,55.9-55.9s55.9,25.1,55.9,55.9c0,12.6-4.1,24.1-11.1,33.5h0Z"/>
</svg>