<?xml version="1.0" encoding="UTF-8"?>
<svg id="Layer_1" data-name="Layer 1" xmlns="http://www.w3.org/2000/svg" viewBox="0 0 300 300">
  <defs>
    <style>
      .cls-1 {
        fill: #0051b1;
      }
    </style>
  </defs>
  <path class="cls-1" d="M234.37074,115.53604c-.14431-2.3686-2.18144-4.17174-4.55003-4.02743-1.00484.06122-1.95627.47332-2.68828,1.1644-30.97597,17.5537-81.09237,8.51918-61.00076,61.32343-4.75914,5.4444-8.76042,11.5072-11.89512,18.0237-.12605-12.50089.33418-89.44202-.34404-100.17555,21.24513,1.901,34.30421-14.74856,32.40112-38.9748-.14701-2.36931-2.1869-4.17084-4.5562-4.02383-1.00004.06205-1.94698.47152-2.67716,1.15764-4.44495,3.35031-17.52234,5.28855-23.90379,7.98079-5.96894-11.87029-20.04322-14.05422-34.81939-18.52009-8.43456-2.28723-17.9919-4.87919-20.94642-7.75452-1.72604-1.62881-4.44568-1.54998-6.07449.17605-.69056.73178-1.10243,1.68269-1.16384,2.68698-2.76699,39.57693,18.83374,62.79548,53.19125,57.12269.67795,10.71975.23574,66.88087.35632,78.751-3.12167-6.47346-7.10267-12.49604-11.83522-17.90468,2.92064-6.99088,9.43181-26.28088-1.97652-37.68921-10.29025-11.73678-46.91714-14.71597-59.02399-23.63524-1.7244-1.62931-4.44312-1.55222-6.07242.17218-.69186.73224-1.10435,1.68434-1.16539,2.68988-3.83118,44.77102,23.28404,72.0768,61.66592,63.9032,11.73158,11.76047,19.12773,36.38023,18.40736,48.08707l.0026,54.85787h-47.1825c-2.35655.0473-4.22855,1.99636-4.18126,4.35289.04597,2.29006,1.89147,4.13545,4.18151,4.18164h102.98448c2.35669,0,4.26716-1.91047,4.26716-4.26716s-1.91047-4.26716-4.26716-4.26716h-47.26796c-.05974-26.88067-3.29019-58.13325,18.46777-81.48747,38.34962,8.16029,65.51715-19.11783,61.66645-63.90425ZM157.17679,66.33223c3.6834-1.3394,7.43218-2.49163,11.23201-3.45224,3.40245-.92509,6.58614-1.7878,9.3344-2.77113.18604,7.08382-2.56219,13.92988-7.59464,18.91882-4.51777,3.38463-10.16042,4.91014-15.76821,4.26298,2.02157-5.41837,2.97131-11.17787,2.79644-16.95844ZM127.31331,145.78537c-7.80186-7.13431-16.81563-12.8173-26.61642-16.78111-2.18637-.87801-4.67055.18263-5.54856,2.369-.878,2.18637.18263,4.67055,2.36901,5.54856,8.062,3.26888,15.54002,7.82455,22.14241,13.48934-10.7443,1.35518-21.60443-1.39193-30.41211-7.69282-9.86361-7.91342-14.97253-21.64831-15.22465-40.89223,13.35152,6.183,42.30249,9.88085,51.83094,19.06027,6.03891,6.04053,4.02408,17.34577,1.45938,24.89899ZM147.86304,75.12683c-2.05516-2.54507-17.5278-18.87535-21.68138-11.32239-1.16655,2.04741-.45435,4.65278,1.59152,5.82203,6.2884,3.13229,11.63376,7.87607,15.49112,13.7477-6.47575.94463-19.57856,1.58585-29.44064-6.30098-8.45513-6.75911-12.89731-18.47299-13.24524-34.87067,11.73022,5.19327,36.60104,8.52413,44.77601,16.36411,3.97864,3.98184,3.80779,10.69329,2.50842,16.56034l.00018-.00013ZM205.33877,129.85852c7.02839-1.68986,13.9249-3.88755,20.63515-6.57577-.25208,19.23973-5.35913,32.9788-15.22465,40.89222-8.81028,6.29722-19.67026,9.04261-30.4147,7.6888,6.60006-5.66622,14.07901-10.21956,22.14305-13.48115,2.18869-.87685,3.25214-3.36197,2.37526-5.55064-.87685-2.18869-3.36195-3.25214-5.55064-2.37528h0c-9.78901,3.95556-18.79264,9.62813-26.58655,16.75034-9.56616-27.32216,7.69261-30.40817,32.62308-37.34853Z"/>
</svg>