<?xml version="1.0" encoding="UTF-8"?>
<svg id="Layer_1" xmlns="http://www.w3.org/2000/svg" xmlns:svgjs="http://svgjs.dev/svgjs" version="1.1" viewBox="0 0 300 300">
  <!-- Generator: Adobe Illustrator 29.1.0, SVG Export Plug-In . SVG Version: 2.1.0 Build 142)  -->
  <defs>
    <style>
      .st0 {
        fill: #0051b1;
      }
    </style>
  </defs>
  <path class="st0" d="M245.4,260.5H54.6c-13.8,0-25.1-11.3-25.1-25.1V64.6c0-13.8,11.3-25.1,25.1-25.1h190.9c13.8,0,25.1,11.3,25.1,25.1v170.8c0,13.9-11.3,25.1-25.1,25.1ZM54.6,49.5c-8.3,0-15.1,6.8-15.1,15.1v170.8c0,8.3,6.8,15.1,15.1,15.1h190.9c8.3,0,15.1-6.8,15.1-15.1V64.6c0-8.3-6.8-15.1-15.1-15.1H54.6Z"/>
  <path class="st0" d="M265.5,89.7H34.5c-2.8,0-5-2.3-5-5s2.3-5,5-5h231.1c2.8,0,5,2.3,5,5s-2.3,5-5,5Z"/>
  <path class="st0" d="M150,235.4c-36,0-65.3-29.3-65.3-65.3s29.3-65.3,65.3-65.3,65.3,29.3,65.3,65.3-29.3,65.3-65.3,65.3ZM150,114.8c-30.5,0-55.3,24.8-55.3,55.3s24.8,55.3,55.3,55.3,55.3-24.8,55.3-55.3-24.8-55.3-55.3-55.3Z"/>
  <path class="st0" d="M175.1,200.2c-1.1,0-2.2-.4-3.1-1.1l-25.1-20.1c-1.2-1-1.9-2.4-1.9-3.9v-35.2c0-2.8,2.3-5,5-5s5,2.3,5,5v32.8l23.2,18.6c2.2,1.7,2.5,4.9.8,7.1-1,1.2-2.5,1.9-3.9,1.9Z"/>
</svg>