<?xml version="1.0" encoding="UTF-8"?>
<svg id="Layer_1" xmlns="http://www.w3.org/2000/svg" xmlns:svgjs="http://svgjs.dev/svgjs" version="1.1" viewBox="0 0 300 300">
  <!-- Generator: Adobe Illustrator 29.1.0, SVG Export Plug-In . SVG Version: 2.1.0 Build 142)  -->
  <defs>
    <style>
      .st0, .st1 {
        fill: #0051b1;
      }

      .st1 {
        fill-rule: evenodd;
      }
    </style>
  </defs>
  <g>
    <path class="st0" d="M141.4,154.6c-21.2,0-39,13.6-45.6,19.5-.3.2-.6.5-.8.8-3.1,3.5-2.7,8.8.8,11.9,6.7,5.9,24.5,19.5,45.6,19.5,20.9,0,38.3-13.1,45.4-19.3,4.5,3.9,15.5,13.6,15.5,13.6.9.8,2,1.2,3.2,1.2,2.7,0,4.9-2.2,4.9-4.9v-30.8c0-1-.4-2-1-2.8-1.6-2.2-4.7-2.6-6.9-1l-15.5,11.8c-6.9-6.1-24.5-19.5-45.6-19.5h0ZM194.3,180.7l6.2-4.7v10.2s-6.2-5.5-6.2-5.5ZM179.4,180.4c-24.3,21.1-52.1,21.1-76.2,0,24.2-21.1,52-21.1,76.2,0h0Z"/>
    <path class="st0" d="M66.1,205.9c-17.2,0-31.6,11.1-37.1,15.8-.2.2-.4.4-.6.6-2.5,2.8-2.2,7.2.6,9.6,5.4,4.8,19.9,15.8,37.1,15.8s31.1-10.6,36.9-15.6c3.6,3.2,12.5,11,12.5,11,.7.6,1.6,1,2.6,1,2.2,0,3.9-1.8,3.9-3.9v-25c0-.8-.3-1.6-.8-2.3-1.3-1.8-3.8-2.1-5.6-.8l-12.6,9.6c-5.6-5-19.9-15.8-37-15.8h0ZM109.1,227l5.1-3.8v8.3s-5.1-4.5-5.1-4.5ZM97,226.8c-19.7,17.2-42.3,17.1-61.8,0,19.6-17.1,42.2-17.1,61.8,0h0Z"/>
    <path class="st0" d="M298.6,145.8v-36.2c0-1.2-.4-2.4-1.1-3.3-1.9-2.6-5.5-3.1-8-1.2l-18.2,13.9c-8.1-7.2-28.8-22.9-53.6-22.9-24.8,0-45.8,16-53.6,22.9-.3.3-.6.6-.9.9-3.6,4.1-3.2,10.4.9,14,7.8,6.9,28.8,22.9,53.6,22.9s45-15.4,53.3-22.6c5.3,4.6,18.1,16,18.1,16,1,.9,2.4,1.4,3.8,1.4,3.1,0,5.7-2.6,5.7-5.7ZM262.4,126.4c-28.5,24.8-61.1,24.7-89.5,0,28.4-24.8,61.1-24.8,89.5,0ZM287.2,133.2l-7.3-6.4,7.3-5.6v12Z"/>
  </g>
  <path class="st1" d="M8.5,190.8c-5.3,0-8.8-5.7-6.2-10.4,0-.1.1-.2.2-.3l27.4-37.3c.9-1.6,2.4-2.8,4.2-3.3,1.9-.5,3.8-.3,5.5.7l12.9,7.6,18.6-25.8c.7-1.7,2-3,3.8-3.7,1.8-.7,3.7-.7,5.5,0l10.5,4.6,18.8-28.9c.9-1.7,2.4-2.8,4.3-3.3,1.9-.5,3.8-.3,5.5.8l13.1,7.8,25-29.8-11.5-7.9c-1.6-1.1-1.1-3.6.8-3.9l29.3-5.5c1.2-.2,2.3.5,2.5,1.7l5.5,29.3c.3,1.9-1.8,3.3-3.4,2.2l-11.6-7.9-28.9,35.2c-1.3,1.9-3.5,3-5.8,3s-2.5-.3-3.6-1l-12.6-7.5-18.4,28.2c-2,3.2-5.7,4.4-9,3l-10-4.4-19,26.6c-.8,1.8-2.2,3.1-4.2,3.8-2,.7-4.1.5-5.9-.6l-13.5-7.9-23.8,31.3c-1.2,2.2-3.6,3.6-6.1,3.6Z"/>
</svg>