<?xml version="1.0" encoding="UTF-8"?>
<svg id="Layer_1" xmlns="http://www.w3.org/2000/svg" xmlns:svgjs="http://svgjs.dev/svgjs" version="1.1" viewBox="0 0 300 300">
  <!-- Generator: Adobe Illustrator 29.1.0, SVG Export Plug-In . SVG Version: 2.1.0 Build 142)  -->
  <defs>
    <style>
      .st0 {
        fill: #0051b1;
      }
    </style>
  </defs>
  <path class="st0" d="M289.1,207.9c0-7.7-6.2-13.9-13.9-13.9h-18.5v-37.1h7.7c8.5,0,16.1-5.1,19.2-13l5.2-13.1c1-2.4-.2-5.1-2.6-6-.5-.2-1.1-.3-1.7-.3h-14.6c-1,0-2,0-2.9.2,3.3-9.3,1.5-19.6-4.6-27.3l-6.6-8.3c-1.6-2-4.5-2.3-6.5-.7-.3.2-.5.5-.7.7l-6.6,8.3c-6.2,7.7-8,18-4.6,27.3-1-.1-1.9-.2-2.9-.2h-14.6c-2.6,0-4.6,2.1-4.6,4.6,0,.6.1,1.2.3,1.7l5.2,13.1c3.1,7.9,10.7,13,19.2,13h7.7v37.1h-18.5c-7.7,0-13.9,6.2-13.9,13.9,0,6.1,3.9,11.4,9.7,13.3l3.6,28.4h-54.4l3.6-28.4c7.3-2.3,11.4-10.1,9.1-17.4-1.8-5.8-7.2-9.7-13.3-9.7h-18.5v-23.2h7.7c8.5,0,16.1-5.1,19.2-13l5.2-13.1c1-2.4-.2-5.1-2.6-6-.5-.2-1.1-.3-1.7-.3h-14.6c-1.5,0-3.1.2-4.5.5-1.5-6.1-5.6-11.1-11.2-13.9-1.3-.7-2.8-.7-4.1,0-5.6,2.8-9.7,7.9-11.2,13.9-1.5-.3-3-.5-4.5-.5h-14.6c-2.6,0-4.6,2.1-4.6,4.6,0,.6.1,1.2.3,1.7l5.2,13.1c3.1,7.9,10.7,13,19.2,13h7.7v23.2h-18.5c-7.7,0-13.9,6.2-13.9,13.9,0,6.1,3.9,11.4,9.7,13.3l3.6,28.4h-54.4l3.6-28.4c7.3-2.3,11.4-10.1,9.1-17.4-1.8-5.8-7.2-9.7-13.3-9.7h-18.5v-9.3h9.5c7.4,0,13.9-5.1,15.7-12.3l2.4-9.8c.6-2.5-.9-5-3.4-5.6-.4,0-.7-.1-1.1-.1h-14.1c-5.5,0-10.7,2.8-13.7,7.5-3-4.7-8.1-7.5-13.7-7.5h-14.1c-2.6,0-4.6,2.1-4.6,4.6,0,.4,0,.8.1,1.1l2.4,9.8c1.8,7.2,8.3,12.3,15.7,12.3h9.5v9.3h-18.5c-7.7,0-13.9,6.2-13.9,13.9,0,6.1,3.9,11.5,9.7,13.3l3.6,28.4h-8.7c-2.6,0-4.6,2.1-4.6,4.6s2.1,4.6,4.6,4.6h268.8c2.6,0,4.6-2.1,4.6-4.6s-2.1-4.6-4.6-4.6h-8.7l3.6-28.4c5.8-1.8,9.7-7.2,9.7-13.3ZM156.6,156.9c1.1-5.3,5.8-9.2,11.2-9.2h7.8l-2.7,6.7c-1.7,4.3-5.9,7.2-10.6,7.2h-6.6l.9-4.7ZM137.7,161.6c-4.7,0-8.9-2.8-10.6-7.2l-2.7-6.7h7.8c5.4,0,10.1,3.9,11.2,9.2l.9,4.7h-6.6ZM55,171.5c.8-3.1,3.6-5.3,6.7-5.3h8.2l-1,4c-.8,3.1-3.6,5.3-6.7,5.3h-8.2l1-4ZM33.9,175.5c-3.2,0-6-2.2-6.7-5.3l-1-4h8.2c3.2,0,6,2.2,6.7,5.3l1,4h-8.2ZM62.5,249.6h-28.9l-3.5-27.8h35.8l-3.5,27.8ZM24.9,212.6c-2.6,0-4.6-2.1-4.6-4.6s2.1-4.6,4.6-4.6h46.3c2.6,0,4.6,2.1,4.6,4.6s-2.1,4.6-4.6,4.6H24.9ZM150,134.6c2.7,2.1,4.3,5.2,4.6,8.6-1.8,1.5-3.4,3.3-4.6,5.4-1.2-2-2.8-3.9-4.6-5.4.2-3.4,1.9-6.5,4.6-8.6ZM164.5,249.6h-28.9l-3.5-27.8h35.8l-3.5,27.8ZM126.8,212.6c-2.6,0-4.6-2.1-4.6-4.6s2.1-4.6,4.6-4.6h46.3c2.6,0,4.6,2.1,4.6,4.6s-2.1,4.6-4.6,4.6h-46.3ZM269.8,133.8h7.8l-2.7,6.7c-1.7,4.3-5.9,7.2-10.6,7.2h-6.6l.9-4.7c1.1-5.3,5.8-9.2,11.2-9.2ZM239.7,147.7c-4.7,0-8.9-2.8-10.6-7.2l-2.7-6.7h7.8c5.4,0,10.1,3.9,11.2,9.2l.9,4.7h-6.6ZM249,103.2l3-3.7,3,3.7c5.7,7,5.7,17,0,24l-3,3.7-3-3.7c-5.7-7-5.7-17,0-24h0ZM266.4,249.6h-28.9l-3.5-27.8h35.8l-3.5,27.8ZM275.1,212.6h-46.3c-2.6,0-4.6-2.1-4.6-4.6s2.1-4.6,4.6-4.6h46.3c2.6,0,4.6,2.1,4.6,4.6s-2.1,4.6-4.6,4.6Z"/>
  <path class="st0" d="M61.2,110.7c-2.5.3-4.3,2.7-4,5.2.3,2.5,2.7,4.3,5.2,4,0,0,.1,0,.2,0l3.7-.6c55.3-8.8,107.8-30.4,153.2-63.2v8.2c0,2.6,2.1,4.6,4.6,4.6s4.6-2.1,4.6-4.6v-18.5c0-2.6-2.1-4.6-4.6-4.6h-18.5c-2.6,0-4.6,2.1-4.6,4.6s2.1,4.6,4.6,4.6h6c-43.7,30.9-93.9,51.3-146.7,59.7l-3.7.6Z"/>
  <path class="st0" d="M103.7,184.8c0-2.6-2.1-4.6-4.6-4.6s-4.6,2.1-4.6,4.6v23.2c0,2.6,2.1,4.6,4.6,4.6s4.6-2.1,4.6-4.6v-23.2Z"/>
  <path class="st0" d="M99,221.8c-2.6,0-4.6,2.1-4.6,4.6v4.6c0,2.6,2.1,4.6,4.6,4.6s4.6-2.1,4.6-4.6v-4.6c0-2.6-2.1-4.6-4.6-4.6Z"/>
  <path class="st0" d="M201,221.8c-2.6,0-4.6,2.1-4.6,4.6v4.6c0,2.6,2.1,4.6,4.6,4.6s4.6-2.1,4.6-4.6v-4.6c0-2.6-2.1-4.6-4.6-4.6Z"/>
  <path class="st0" d="M205.6,161.6c0-2.6-2.1-4.6-4.6-4.6s-4.6,2.1-4.6,4.6v23.2c0,2.6,2.1,4.6,4.6,4.6s4.6-2.1,4.6-4.6v-23.2Z"/>
  <path class="st0" d="M205.6,203.3c0-2.6-2.1-4.6-4.6-4.6s-4.6,2.1-4.6,4.6v4.6c0,2.6,2.1,4.6,4.6,4.6s4.6-2.1,4.6-4.6v-4.6Z"/>
</svg>