<?xml version="1.0" encoding="UTF-8"?>
<svg id="Layer_1" xmlns="http://www.w3.org/2000/svg" xmlns:xlink="http://www.w3.org/1999/xlink" xmlns:svgjs="http://svgjs.dev/svgjs" version="1.1" viewBox="0 0 300 300">
  <!-- Generator: Adobe Illustrator 29.1.0, SVG Export Plug-In . SVG Version: 2.1.0 Build 142)  -->
  <defs>
    <style>
      .st0 {
        fill: url(#linear-gradient2);
      }

      .st1 {
        fill: url(#linear-gradient1);
      }

      .st2 {
        fill: url(#linear-gradient3);
      }

      .st3 {
        fill: url(#linear-gradient6);
      }

      .st4 {
        fill: url(#linear-gradient7);
      }

      .st5 {
        fill: url(#linear-gradient5);
      }

      .st6 {
        fill: url(#linear-gradient4);
      }

      .st7 {
        fill: url(#linear-gradient);
      }
    </style>
    <linearGradient id="linear-gradient" x1="90.6" y1="56.1" x2="270" y2="56.1" gradientTransform="translate(0 302) scale(1 -1)" gradientUnits="userSpaceOnUse">
      <stop offset="0" stop-color="#49f911"/>
      <stop offset="1" stop-color="#45e7dd"/>
    </linearGradient>
    <linearGradient id="linear-gradient1" x1="30" y1="41.6" x2="144" y2="41.6" gradientTransform="translate(0 302) scale(1 -1)" gradientUnits="userSpaceOnUse">
      <stop offset="0" stop-color="#58dcfd"/>
      <stop offset="1" stop-color="#2e3195"/>
    </linearGradient>
    <linearGradient id="linear-gradient2" x1="62.2" y1="411.2" x2="241.6" y2="411.2" gradientTransform="translate(271.5 -357.1) rotate(-180) scale(1 -1)" xlink:href="#linear-gradient"/>
    <linearGradient id="linear-gradient3" x1="1.5" y1="396.8" x2="115.6" y2="396.8" gradientTransform="translate(271.5 -357.1) rotate(-180) scale(1 -1)" xlink:href="#linear-gradient1"/>
    <linearGradient id="linear-gradient4" x1="-77.6" y1="195.9" x2="101.7" y2="195.9" gradientTransform="translate(441.8 131.7) rotate(-90) scale(1 -1)" xlink:href="#linear-gradient"/>
    <linearGradient id="linear-gradient5" x1="-138.3" y1="181.4" x2="-24.3" y2="181.4" gradientTransform="translate(441.8 131.7) rotate(-90) scale(1 -1)" xlink:href="#linear-gradient1"/>
    <linearGradient id="linear-gradient6" x1="230.5" y1="271.4" x2="409.8" y2="271.4" gradientTransform="translate(-217.3 -139.8) rotate(90) scale(1 -1)" xlink:href="#linear-gradient"/>
    <linearGradient id="linear-gradient7" x1="169.8" y1="257" x2="283.8" y2="257" gradientTransform="translate(-217.3 -139.8) rotate(90) scale(1 -1)" xlink:href="#linear-gradient1"/>
  </defs>
  <g>
    <g>
      <path class="st7" d="M150.4,274.6l-59.8-59.8c35.6-31.2,89.8-29.9,123.7,4l55.7,55.7h0c-33,33.1-86.6,33.1-119.6,0h0Z"/>
      <path class="st1" d="M30,275.2c31.2,31.2,80.8,32.9,114,5.1l-59.6-59.6-54.5,54.5h0Z"/>
    </g>
    <g>
      <path class="st0" d="M149.6,25.4l59.8,59.8c-35.6,31.2-89.8,29.9-123.7-4L30,25.4h0c33-33.1,86.6-33.1,119.6,0h0Z"/>
      <path class="st2" d="M270,24.8c-31.2-31.2-80.8-32.9-114-5.1l59.6,59.6,54.5-54.5h0Z"/>
    </g>
  </g>
  <g>
    <g>
      <path class="st6" d="M274.6,149.6l-59.8,59.8c-31.2-35.6-29.9-89.8,4-123.7l55.7-55.7h0c33,33,33.1,86.6,0,119.6h0Z"/>
      <path class="st5" d="M275.2,270c31.2-31.2,32.9-80.8,5.1-114l-59.6,59.6,54.5,54.5h0Z"/>
    </g>
    <g>
      <path class="st3" d="M25.4,150.4l59.8-59.8c31.2,35.6,29.9,89.8-4,123.7l-55.7,55.7h0c-33-33-33.1-86.6,0-119.6h0Z"/>
      <path class="st4" d="M24.8,30c-31.2,31.2-32.9,80.8-5.1,114l59.6-59.6L24.8,30h0Z"/>
    </g>
  </g>
</svg>