<?xml version="1.0" encoding="UTF-8"?>
<svg id="Layer_1" xmlns="http://www.w3.org/2000/svg" xmlns:svgjs="http://svgjs.dev/svgjs" version="1.1" viewBox="0 0 300 300">
  <!-- Generator: Adobe Illustrator 29.1.0, SVG Export Plug-In . SVG Version: 2.1.0 Build 142)  -->
  <defs>
    <style>
      .st0 {
        fill: #0051b1;
        fill-rule: evenodd;
      }
    </style>
  </defs>
  <path class="st0" d="M267.1,208.6v-117.1c0-32.3-26.2-58.6-58.6-58.6h-117.1c-32.3,0-58.6,26.2-58.6,58.6v117.1c0,32.3,26.2,58.6,58.6,58.6h117.1c32.3,0,58.6-26.2,58.6-58.6ZM250.4,208.6c0,23.1-18.7,41.8-41.8,41.8h-117.1c-23.1,0-41.8-18.7-41.8-41.8v-117.1c0-23.1,18.7-41.8,41.8-41.8h117.1c23.1,0,41.8,18.7,41.8,41.8v117.1ZM141.6,99.8h50.2c4.6,0,8.4,3.7,8.4,8.4v83.7c0,4.6-3.7,8.4-8.4,8.4h-50.2c-4.6,0-8.4,3.7-8.4,8.4s3.7,8.4,8.4,8.4h50.2c13.9,0,25.1-11.2,25.1-25.1v-83.7c0-13.9-11.2-25.1-25.1-25.1h-50.2c-4.6,0-8.4,3.7-8.4,8.4s3.7,8.4,8.4,8.4ZM154.9,141.6l-10.8-10.8c-3.3-3.3-3.3-8.6,0-11.8,3.3-3.3,8.6-3.3,11.8,0l25.1,25.1c3.3,3.3,3.3,8.6,0,11.8l-25.1,25.1c-3.3,3.3-8.6,3.3-11.8,0-3.3-3.3-3.3-8.6,0-11.8l10.8-10.8h-63.5c-4.6,0-8.4-3.7-8.4-8.4s3.7-8.4,8.4-8.4h63.5Z"/>
</svg>