<?xml version="1.0" encoding="UTF-8"?>
<svg id="Layer_1" xmlns="http://www.w3.org/2000/svg" xmlns:svgjs="http://svgjs.dev/svgjs" version="1.1" viewBox="0 0 300 300">
  <!-- Generator: Adobe Illustrator 29.1.0, SVG Export Plug-In . SVG Version: 2.1.0 Build 142)  -->
  <defs>
    <style>
      .st0 {
        fill: #0051b1;
      }
    </style>
  </defs>
  <path class="st0" d="M167.7,156.3h-35.4c-3.5,0-6.2-2.8-6.2-6.2s2.8-6.2,6.2-6.2h35.4c3.5,0,6.2,2.8,6.2,6.2s-2.8,6.2-6.2,6.2h0Z"/>
  <g>
    <path class="st0" d="M200,243.8h-100c-17.3,0-31.2-14-31.2-31.2v-125c0-17.3,14-31.2,31.2-31.2h87.5c1.7,0,3.2.7,4.4,1.8l37.5,37.5c1.2,1.2,1.8,2.8,1.8,4.4v112.5c0,17.3-14,31.2-31.2,31.2ZM100,68.8c-10.4,0-18.7,8.4-18.8,18.8v125c0,10.4,8.4,18.7,18.8,18.8h100c10.4,0,18.7-8.4,18.8-18.8v-109.9l-33.8-33.8h-84.9Z"/>
    <path class="st0" d="M225,106.3h-25c-10.4,0-18.7-8.4-18.8-18.8v-25c0-3.5,2.8-6.2,6.3-6.2,1.7,0,3.2.7,4.4,1.8l37.5,37.5c2.4,2.4,2.4,6.4,0,8.8-1.2,1.2-2.8,1.8-4.4,1.8ZM193.7,77.6v9.9c0,3.5,2.8,6.2,6.2,6.2h9.9l-16.2-16.2Z"/>
    <path class="st0" d="M150,200c-27.6,0-50-22.4-50-50,0-13.3,5.3-26,14.6-35.4,19.8-18.9,50.9-18.9,70.7,0,19.5,19.5,19.5,51.2,0,70.7h0c-9.4,9.4-22.1,14.7-35.4,14.6ZM150,112.5c-20.7,0-37.5,16.8-37.5,37.5,0,9.9,4,19.5,11,26.5,14.8,14.2,38.2,14.2,53,0h0c14.6-14.6,14.6-38.4,0-53-7-7-16.6-11-26.5-11Z"/>
    <path class="st0" d="M150,173.9c-3.5,0-6.2-2.8-6.2-6.2v-35.4c0-3.5,2.8-6.2,6.2-6.2s6.2,2.8,6.2,6.2v35.4c0,3.5-2.8,6.2-6.2,6.2Z"/>
  </g>
</svg>