<?xml version="1.0" encoding="UTF-8"?>
<svg id="Layer_1" xmlns="http://www.w3.org/2000/svg" xmlns:svgjs="http://svgjs.dev/svgjs" version="1.1" viewBox="0 0 300 300">
  <!-- Generator: Adobe Illustrator 29.1.0, SVG Export Plug-In . SVG Version: 2.1.0 Build 142)  -->
  <defs>
    <style>
      .st0 {
        fill: #0051b1;
      }

      .st1 {
        fill: #fff;
      }
    </style>
  </defs>
  <path class="st0" d="M150,.2C67.2.2,0,67.4,0,150.2s67.2,150,150,150,150-67.2,150-150S232.8.2,150,.2Z"/>
  <g id="Layer_2">
    <path class="st1" d="M202.4,74.1h-104.7c-6.6,0-11.9,5.3-11.9,11.9v128.5c0,6.6,5.3,11.9,11.9,11.9h104.7c6.6,0,11.9-5.3,11.9-11.9V86c0-6.6-5.3-11.9-11.9-11.9ZM124.4,203.8c0,2-1.6,3.7-3.7,3.7h-12.1c-2,0-3.7-1.6-3.7-3.7v-7.3c0-2,1.6-3.7,3.7-3.7h12.1c2,0,3.7,1.6,3.7,3.7v7.3ZM124.4,181.9c0,2-1.6,3.7-3.7,3.7h-12.1c-2,0-3.7-1.6-3.7-3.7,0,0,0,0,0,0v-7.3c0-2,1.6-3.7,3.7-3.7h12.1c2,0,3.7,1.6,3.7,3.7v7.3ZM124.4,160c0,2-1.6,3.7-3.7,3.7h-12.1c-2,0-3.7-1.6-3.7-3.7,0,0,0,0,0,0v-7.3c0-2,1.6-3.7,3.7-3.7h12.1c2,0,3.7,1.6,3.7,3.7v7.3ZM124.4,138c0,2-1.6,3.7-3.7,3.7h-12.1c-2,0-3.7-1.6-3.7-3.7v-7.3c0-2,1.6-3.7,3.7-3.7h12.1c2,0,3.7,1.6,3.7,3.7v7.3ZM159.8,203.8c0,2-1.6,3.7-3.7,3.7h-12.1c-2,0-3.7-1.6-3.7-3.7v-7.3c0-2,1.6-3.7,3.7-3.7h12.1c2,0,3.7,1.6,3.7,3.7v7.3ZM159.8,181.9c0,2-1.6,3.7-3.7,3.7h-12.1c-2,0-3.7-1.6-3.7-3.7v-7.3c0-2,1.6-3.7,3.7-3.7h12.1c2,0,3.7,1.6,3.7,3.7v7.3ZM159.8,160c0,2-1.6,3.7-3.7,3.7h-12.1c-2,0-3.7-1.6-3.7-3.7v-7.3c0-2,1.6-3.7,3.7-3.7h12.1c2,0,3.7,1.6,3.7,3.7v7.3ZM159.8,138c0,2-1.6,3.7-3.7,3.7h-12.1c-2,0-3.7-1.6-3.7-3.7v-7.3c0-2,1.6-3.7,3.7-3.7h12.1c2,0,3.7,1.6,3.7,3.7v7.3ZM195.1,203.8c0,2-1.6,3.7-3.7,3.7h-12.1c-2,0-3.7-1.6-3.7-3.7v-7.3c0-2,1.6-3.7,3.7-3.7h12.1c2,0,3.7,1.6,3.7,3.7v7.3ZM195.1,181.9c0,2-1.6,3.7-3.7,3.7h-12.1c-2,0-3.7-1.6-3.7-3.7v-7.3c0-2,1.6-3.7,3.7-3.7h12.1c2,0,3.7,1.6,3.7,3.7v7.3ZM195.1,159.9c0,2-1.6,3.7-3.7,3.7h-12.1c-2,0-3.7-1.6-3.7-3.7v-7.2c0-2,1.6-3.7,3.7-3.7h12.1c2,0,3.7,1.6,3.7,3.7v7.2ZM195.1,138c0,2-1.6,3.7-3.7,3.7h-12.1c-2,0-3.7-1.6-3.7-3.7v-7.3c0-2,1.6-3.7,3.7-3.7h12.1c2,0,3.7,1.6,3.7,3.7v7.3ZM200,110h-100v-21.7h100v21.7Z"/>
  </g>
</svg>