<?xml version="1.0" encoding="UTF-8"?>
<svg id="Layer_1" data-name="Layer 1" xmlns="http://www.w3.org/2000/svg" viewBox="0 0 300 300">
  <defs>
    <style>
      .cls-1 {
        fill: #0051b1;
      }
    </style>
  </defs>
  <path class="cls-1" d="M149.01326,94.57949c-40.88163,0-74.02274,33.14111-74.02274,74.02274s33.14111,74.02273,74.02274,74.02273,74.02274-33.1411,74.02274-74.02273c-.04-40.86505-33.1577-73.98273-74.02274-74.02274ZM149.01326,235.36782c-36.87362,0-66.76561-29.89198-66.76561-66.76561s29.89198-66.7656,66.76561-66.7656,66.76561,29.89197,66.76561,66.7656c-.04399,36.85421-29.91139,66.71837-66.76561,66.75836v.00725Z"/>
  <path class="cls-1" d="M255.15606,69.41902l-4.48491-4.49216c-8.69251-8.29388-22.36802-8.29388-31.06053,0l-5.50817,5.50816c-1.41652,1.41696-1.41652,3.71384,0,5.13079l6.83621,6.84347-13.06283,13.06284c-13.50512-10.89233-29.77575-17.81018-46.98993-19.97888v-14.39815h16.89461c2.004,0,3.62857-1.62456,3.62857-3.62857v-16.41563c0-2.004-1.62457-3.62857-3.62857-3.62857h-57.52003c-2.004,0-3.62857,1.62456-3.62857,3.62857v16.41563c0,2.004,1.62457,3.62857,3.62857,3.62857h16.8946v14.4054c-16.7194,2.12324-32.55274,8.73091-45.82153,19.12254l-12.24278-12.25004,6.83622-6.83622c1.41653-1.41696,1.41653-3.71384,0-5.13079l-5.50816-5.50816c-8.69251-8.29388-22.36801-8.29388-31.06052,0l-4.48491,4.52119c-8.57713,8.56909-8.58364,22.46885-.01455,31.04598.00485.00485.0097.0097.01455.01455l5.50816,5.50816c1.41696,1.41653,3.71384,1.41653,5.13079,0l6.83622-6.84347,12.33712,12.33712c-26.7359,34.52698-26.00983,82.96281,1.74897,116.67289l-16.62609,16.61884c-1.41653,1.41695-1.41653,3.71385,0,5.1308l11.61141,11.61141c1.41696,1.41652,3.71384,1.41652,5.13079,0l17.11957-17.19941c33.32815,24.59074,78.88474,24.24189,111.8324-.85634l18.00494,18.00494c1.41695,1.41654,3.71385,1.41654,5.1308,0l11.61141-11.61141c1.41654-1.41695,1.41654-3.71385,0-5.1308l-17.77271-17.76546c26.62076-33.26123,27.3404-80.32735,1.74896-114.3869l13.45472-13.45472,6.83621,6.84347c1.41695,1.41653,3.71385,1.41653,5.1308,0l5.50817-5.50816c8.54351-8.5797,8.54351-22.45179,0-31.03149v.00002ZM123.88908,44.67946h50.20483v9.1585h-50.20484v-9.1585ZM144.41224,61.09509h9.1585v13.78855c-1.52399-.07983-3.03348-.23223-4.57925-.23223s-3.05526.1524-4.57925.23223v-13.78855ZM52.94336,98.25886l-2.93914-2.93914c-5.73374-5.74749-5.73374-15.05144,0-20.79894l4.48491-4.49216c5.74584-5.73774,15.0531-5.73774,20.79894,0l2.90285,2.9464-25.24756,25.28384ZM67.45762,93.98441l6.48062-6.47336,11.82912,11.82912c-2.25455,2.06102-4.4075,4.22607-6.45885,6.49514l-11.8509-11.8509ZM73.96001,253.75014l-6.48062-6.47336,13.78855-13.78855c2.11424,2.20616,4.33009,4.3083,6.64753,6.30644l-13.95546,13.95547ZM232.5501,247.27678l-6.48062,6.47336-14.92066-14.92066c2.29327-2.02233,4.4704-4.15591,6.53142-6.40079l14.86986,14.84809ZM149.01326,255.25963c-47.86758,0-86.67192-38.80434-86.67192-86.67191s38.80434-86.67192,86.67191-86.67192,86.67192,38.80433,86.67192,86.67192v.00724c-.05199,47.84603-38.82589,86.61993-86.67192,86.67192v-.00725ZM219.68321,106.88758c-2.00782-2.30293-4.12689-4.50184-6.35724-6.59674l12.74353-12.77981,6.48062,6.47336-12.8669,12.90319ZM250.06157,95.31972l-2.90285,2.93914-25.35641-25.28385,2.93914-2.9464c5.82097-5.55321,14.97797-5.55321,20.79893,0l4.48491,4.49216c5.73374,5.74749,5.73374,15.05144,0,20.79894h.03628Z"/>
  <path class="cls-1" d="M152.64182,167.09274v-42.58485c0-2.004-1.62457-3.62857-3.62857-3.62857s-3.62857,1.62457-3.62857,3.62857v44.08706c-.00172.96301.37945,1.88722,1.05954,2.56903l22.96156,22.95431c1.39229,1.44137,3.68943,1.48116,5.1308.08886,1.44137-1.39229,1.48116-3.68941.08886-5.1308-.0291-.03013-.05873-.05976-.08886-.08886l-21.89477-21.89475Z"/>
  <path class="cls-1" d="M149.01326,114.63095c2.00399,0,3.62856-1.62457,3.62856-3.62857v-2.50371c0-2.004-1.62457-3.62857-3.62857-3.62857s-3.62857,1.62457-3.62857,3.62857v2.50371c0,2.004,1.62457,3.62857,3.62857,3.62857h0Z"/>
  <path class="cls-1" d="M149.01326,223.05248c-2.004,0-3.62857,1.62457-3.62857,3.62857v2.50371c-.00277,2.004,1.61955,3.63081,3.62355,3.63358s3.63081-1.61956,3.63358-3.62355v-2.51373c0-2.004-1.62457-3.62857-3.62857-3.62857h0Z"/>
  <path class="cls-1" d="M206.85259,172.47028h2.50371c2.004,0,3.62857-1.62457,3.62857-3.62857s-1.62457-3.62857-3.62857-3.62857h-2.50371c-2.004,0-3.62857,1.62457-3.62857,3.62857s1.62457,3.62857,3.62857,3.62857Z"/>
  <path class="cls-1" d="M91.17392,165.21315h-2.50371c-2.004,0-3.62857,1.62457-3.62857,3.62857s1.62456,3.62857,3.62857,3.62857h2.50371c2.004,0,3.62857-1.62457,3.62857-3.62857s-1.62457-3.62857-3.62857-3.62857Z"/>
</svg>