<?xml version="1.0" encoding="UTF-8"?>
<svg id="Layer_1" data-name="Layer 1" xmlns="http://www.w3.org/2000/svg" viewBox="0 0 300 300">
  <defs>
    <style>
      .cls-1 {
        fill: #0051b1;
      }
    </style>
  </defs>
  <path class="cls-1" d="M281.23814,71.80237c-.32789-35.33306-261.63914-35.52877-262.47023-.00202.00028.34673-.00056,131.4022,0,131.69887.01401.13735.02517,24.56274-.02948,24.67917.36366,35.38368,261.35217,35.49215,262.47825.11385.11728-.06952-.03946-156.39868.02148-156.48994l-.00002.00007ZM150.00416,54.80558c75.50583,0,118.27927,10.77117,121.78116,16.99678-3.50189,6.22556-46.27533,16.99678-121.78116,16.99678s-118.28156-10.77117-121.78116-16.99678c3.49959-6.22556,46.27303-16.99678,121.78116-16.99678ZM271.86314,227.98672c-2.68335,6.20554-45.53606,17.22109-121.8773,17.22109-76.04855,0-118.86375-10.93166-121.84294-17.14983v-13.57983c4.23745,2.14462,9.88514,4.08468,17.16844,5.85024,46.91504,12.2506,162.43284,12.2506,209.34904-.00084,7.30448-1.76952,12.96215-3.71559,17.20276-5.86767v13.5269-.00005ZM197.04168,207.47431c.29325-11.29476,16.51726-11.29248,16.8091.00029-.29442,11.28788-16.51613,11.28557-16.8091-.00029ZM271.86314,203.13242c-3.92362,6.23217-36.75497,12.07237-51.1717,13.42247,7.16343-11.30104-1.78299-27.40059-15.24525-27.02034-14.91539-.32845-23.37454,18.51254-13.47971,29.49858-35.05524,2.24476-80.1736,1.40419-112.48055-2.45306-.11672-4.22972-.62456-8.59308-1.52691-13.03341-3.55683-17.18447-.63173-23.89982-.46692-24.25688,1.20394-2.22014.43032-5.01253-1.77155-6.28969-7.97508-3.64153-11.33053,9.3796-6.94486,32.43225.68836,3.38776,1.01967,6.68165,1.18645,9.91716-6.15206-.86948-11.84691-1.84021-16.96903-2.90968,1.68802-5.66255,4.12674-17.65392.91036-33.2325-3.54994-17.20734-.63628-23.90442-.47151-24.25688,1.20619-2.22014.43486-5.01253-1.76241-6.28969-8.00831-3.65236-11.31478,9.38156-6.94941,32.44144,2.93142,14.19468.44119,24.94354-.86948,29.1667-12.87431-3.51334-15.34622-6.51085-15.70786-7.08502v-120.4027c47.9556,20.75071,195.49884,20.83139,243.72022.0023,0-.0023,0,120.34894,0,120.34894h.00011ZM120.27928,112.52956c-.88804.99792-1.30922,2.33002-1.15355,3.65751.13706,1.18387,1.25255,10.1137,3.60717,16.95956-4.01287,2.89851-7.788,6.06595-11.21292,9.3481-9.00422-10.06163-14.57063-19.25353-14.69193-19.45955-.90867-1.51519-2.59552-2.41242-4.35562-2.27053-1.76241.12361-3.30736,1.22682-3.99169,2.86101l-5.73806,13.65966c-3.20207,7.62178-3.20207,16.36964,0,23.98683l5.73806,13.66425c1.33865,3.48042,6.53086,3.85181,8.34731.59025.12132-.20569,5.68772-9.3976,14.69193-19.45927,3.41691,3.27473,7.18261,6.43528,11.18517,9.32837-2.36348,6.8536-3.48098,15.816-3.61833,17.00222-.37795,2.69535,1.93519,5.29116,4.65544,5.22764,10.04133,0,31.72701-8.31587,35.91127-9.95695,36.30407-1.99528,42.16345-26.36433,41.68251-29.39213-.24033-1.09289-6.22101-25.90082-41.70628-27.384-4.3479-1.70489-25.8622-9.93319-35.84864-9.93319-1.33669,0-2.61155.5722-3.50189,1.57013l.00004.00009ZM93.73814,163.24522l-2.35289-5.60301c-3.40346-7.30162-1.03026-15.48615,2.3535-22.32515,13.69486,18.98119,13.66307,8.96958-.00056,27.92818l-.00005-.00002ZM129.31097,177.52746c.40913-2.24048.94355-4.68122,1.56811-6.90737,2.88849,1.59618,5.89054,2.94371,8.97647,4.06635-3.70046,1.15242-7.4009,2.18952-10.54458,2.841v.00002ZM171.60376,132.11759c14.56463,4.20286,19.13912,13.91915,20.26518,17.16586-1.12608,3.24296-5.70061,12.95846-20.26518,17.16127v-34.32713ZM162.22876,130.40956v37.74319c-16.63598,2.34717-32.32613-7.29277-44.17875-18.86957,10.45074-10.0568,23.89298-19.15711,38.31482-19.15711,2.08426,0,4.01058.11643,5.86397.28355l-.00004-.00005ZM139.83924,123.88157c-7.40775,1.95581-9.25139,8.04722-10.48706-2.82385,3.1274.648,6.80578,1.67854,10.48706,2.82385ZM245.28994,204.76896c23.49159-.75216,23.48156-35.12766-.00029-35.87494-23.493.74957-23.49216,35.12766.00029,35.87494ZM245.28994,178.26902c11.073.29184,11.07529,16.8337-.00029,17.12494-11.08274-.2947-11.07586-16.83342.00029-17.12494Z"/>
</svg>