<?xml version="1.0" encoding="UTF-8"?>
<svg id="Layer_1" xmlns="http://www.w3.org/2000/svg" xmlns:xlink="http://www.w3.org/1999/xlink" xmlns:svgjs="http://svgjs.dev/svgjs" version="1.1" viewBox="0 0 300 300">
  <!-- Generator: Adobe Illustrator 29.1.0, SVG Export Plug-In . SVG Version: 2.1.0 Build 142)  -->
  <defs>
    <style>
      .st0, .st1 {
        fill: none;
      }

      .st1 {
        stroke: #0051b1;
        stroke-linecap: round;
        stroke-linejoin: round;
        stroke-width: 8.8px;
      }

      .st2 {
        clip-path: url(#clippath);
      }
    </style>
    <clipPath id="clippath">
      <rect class="st0" x="0" width="300" height="300"/>
    </clipPath>
  </defs>
  <g id="g5121">
    <g id="g5123">
      <g class="st2">
        <g id="g5125">
          <g id="g5131">
            <path id="path5133" class="st1" d="M191.3,180c4-2.1,7.6-5.1,10.6-8.8,1.2-1.5,3.1-2.3,5-1.9,9.3,1.6,19-2.6,24-11.2,4.1-7.1,4-15.5.5-22.3-1.3-2.4-.4-5.4,2-6.8,3.5-2,6.5-4.9,8.7-8.6,5.2-9,3.7-19.9-3-27.2-1.6-1.7-1.8-4.2-.6-6.2,0,0,0,0,0-.1,2.6-4.4,3.5-9.3,3-14.1-1.3-11.9-14.6-18.3-24.9-12.3-5.9,3.3-13.2,8.8-21.4,17.8"/>
          </g>
          <g id="g5135">
            <path id="path5137" class="st1" d="M104.4,77.7c-8-8.7-15.2-14.1-20.9-17.4-10.4-5.9-23.6.5-24.9,12.3-.5,4.7.4,9.6,3,14.1,0,0,0,0,0,.1,1.2,2,1,4.5-.6,6.2-6.6,7.2-8.1,18.2-3,27.2,2.2,3.7,5.2,6.6,8.7,8.6,2.4,1.3,3.3,4.4,2,6.8-3.5,6.8-3.7,15.2.5,22.3,5,8.6,14.7,12.8,24,11.2,1.9-.3,3.8.4,5,1.9,2.9,3.6,6.5,6.6,10.4,8.7"/>
          </g>
          <g id="g5139">
            <path id="path5141" class="st1" d="M170.8,179.9c8.2-5.6,13.9-14.5,15.5-24.7.3-2.1,1.7-3.7,3.7-4.4,6.6-2.5,11.9-7.6,14.5-14.2"/>
          </g>
          <g id="g5143">
            <path id="path5145" class="st1" d="M204.1,117.4c-2-4.6-5.3-8.4-9.4-11.1-2.5-1.6-3.4-4.9-1.9-7.5,2.2-3.7,3.5-8.1,3.5-12.7,0-11.1-7.3-20.5-17.3-23.7-2.4-.8-4-3-4-5.5,0,0,0-.1,0-.2,0-13.8-11.2-24.9-24.9-24.9s-24.9,11.2-24.9,24.9,0,.1,0,.2c0,2.5-1.6,4.7-4,5.5-10,3.2-17.3,12.6-17.3,23.7s1.3,9,3.5,12.7c1.5,2.6.7,5.9-1.9,7.5-6.9,4.4-11.5,12.2-11.5,21s6.8,19.9,16.3,23.4c1.9.7,3.4,2.4,3.7,4.4,1.5,10.2,7.3,19.1,15.5,24.7"/>
          </g>
          <g id="g5147">
            <path id="path5149" class="st1" d="M142.5,179.9c-1.5-11.5-2.4-26.4-2.4-42.7,0-36.2,4.4-65.5,9.8-65.5s9.8,29.3,9.8,65.5-.9,31.3-2.4,42.7"/>
          </g>
          <g id="g5151">
            <path id="path5153" class="st1" d="M106,218.6l6.4,17.4"/>
          </g>
          <g id="g5155">
            <path id="path5157" class="st1" d="M119.1,254l3.9,10.4c.9,2.3,3,3.8,5.5,3.8h43.2c2.5,0,4.6-1.5,5.5-3.8l17-45.8"/>
          </g>
          <g id="g5159">
            <path id="path5161" class="st1" d="M295.6,197.8h-151.3"/>
          </g>
          <g id="g5163">
            <path id="path5165" class="st1" d="M4.4,217.9h291.2"/>
          </g>
          <g id="g5167">
            <path id="path5169" class="st1" d="M125.1,197.8H4.4"/>
          </g>
          <g id="g5171">
            <path id="path5173" class="st1" d="M100.7,197.8c-4.9,0-8.8-3.9-8.8-8.8s3.9-8.8,8.8-8.8h98.7c4.9,0,8.8,3.9,8.8,8.8,0,4.9-3.9,8.8-8.8,8.8"/>
          </g>
          <g id="g5175">
            <path id="path5177" class="st1" d="M138.4,232.4l1.8,19.4"/>
          </g>
          <g id="g5179">
            <path id="path5181" class="st1" d="M161.6,232.4l-1.8,19.4"/>
          </g>
        </g>
      </g>
    </g>
  </g>
</svg>