<?xml version="1.0" encoding="UTF-8"?>
<svg id="Layer_1" xmlns="http://www.w3.org/2000/svg" xmlns:svgjs="http://svgjs.dev/svgjs" version="1.1" viewBox="0 0 300 300">
  <!-- Generator: Adobe Illustrator 29.1.0, SVG Export Plug-In . SVG Version: 2.1.0 Build 142)  -->
  <defs>
    <style>
      .st0 {
        fill: #0051b1;
      }

      .st1 {
        fill: #fff;
      }
    </style>
  </defs>
  <path class="st0" d="M150,.2C67.2.2,0,67.4,0,150.2s67.2,150,150,150,150-67.2,150-150S232.8.2,150,.2Z"/>
  <path class="st1" d="M193.2,162.8c-2.5,2.8-4.8,5.7-7.5,8.4-10.7,10.8-23.4,17.9-38.4,20.4-25.7,4.2-47.3-3.9-65.1-22.7-4.2-4.6-7.8-9.7-10.8-15.1-1.4-2.2-1.4-5,0-7.3,11.5-20.5,28.5-33.8,51.8-37.9,22.5-3.9,42.4,2.3,59.4,17.5,3.8,3.4,7.2,7.4,10.5,10.9,1.8-3.1,3.4-6.6,5.7-9.7,6.1-8.4,14.5-13.4,24.7-15.1,2.8-.6,5.5,1.3,6.1,4.1,0,.3,0,.5,0,.8v.9c0,21.5,0,43,0,64.5,0,3.3-2.6,6.8-6.9,5.7-1.6-.4-3.2-.7-4.7-1.2-11.6-3.9-19.7-11.4-24.3-22.7-.1-.3-.3-.7-.4-1,0,0,0-.2-.2-.3h0ZM106.7,147.3c4.4,0,8.1-3.5,8.1-8,0-4.4-3.5-8.1-8-8.1-4.3,0-8.1,3.4-8.2,7.6,0,4.8,3.4,8.4,8,8.4Z"/>
</svg>