<?xml version="1.0" encoding="UTF-8"?>
<svg id="Layer_1" xmlns="http://www.w3.org/2000/svg" xmlns:svgjs="http://svgjs.dev/svgjs" version="1.1" viewBox="0 0 300 300">
  <!-- Generator: Adobe Illustrator 29.1.0, SVG Export Plug-In . SVG Version: 2.1.0 Build 142)  -->
  <defs>
    <style>
      .st0 {
        fill: #0051b1;
      }
    </style>
  </defs>
  <path class="st0" d="M150,16.6c73.8,0,133.6,59.9,133.5,133.7,0,53.6-32.1,102.1-81.6,123-68,28.7-146.4-3.1-175.1-71.1C-1.8,134.2,30,55.9,98,27.1c16.4-7,34.1-10.5,52-10.5M150,.2C67.2.2,0,67.4,0,150.2s67.2,150,150,150,150-67.2,150-150S232.8.2,150,.2Z"/>
  <path class="st0" d="M210.4,157.7h-53.4v-20.5c15.5-.3,30.4-6.6,41.5-17.7,12.9-12.9,19.3-30.8,17.4-49-.3-3.3-3-5.9-6.3-6.3-18.2-1.9-36,4.5-49,17.4-4.3,4.3-7.9,9.2-10.7,14.4-2.8-5.2-6.4-10.1-10.7-14.4-12.9-12.9-30.8-19.3-49-17.4-3.3.3-5.9,3-6.3,6.3-1.9,18.2,4.5,36,17.4,49s26,17.4,41.5,17.7v20.5h-53.4c-2.1,0-4.1,1-5.5,2.6-1.3,1.7-1.9,3.8-1.4,5.9l14.2,66.2c2,9.1,9.8,15.5,19.2,15.5h67.8c9.3,0,17.2-6.4,19.2-15.5l14.2-66.2c.4-2.1,0-4.2-1.4-5.9-1.3-1.7-3.3-2.6-5.5-2.6h0ZM170.6,91.5c8.5-8.5,19.7-13.3,31.5-13.6-.3,11.8-5.1,23.1-13.6,31.5-8.5,8.5-19.7,13.3-31.5,13.6.3-11.8,5.1-23.1,13.6-31.5h0ZM111.4,109.5c-8.5-8.5-13.3-19.7-13.6-31.5,11.8.3,23.1,5.1,31.5,13.6,8.5,8.5,13.3,19.7,13.6,31.5-11.8-.3-23.1-5.1-31.5-13.6ZM189.3,229.4c-.6,2.6-2.7,4.4-5.4,4.4h-67.8c-2.7,0-4.9-1.8-5.4-4.4l-12.4-57.7h103.4l-12.4,57.7Z"/>
</svg>