<?xml version="1.0" encoding="UTF-8"?>
<svg id="Layer_1" data-name="Layer 1" xmlns="http://www.w3.org/2000/svg" viewBox="0 0 300 300">
  <defs>
    <style>
      .cls-1 {
        fill: #0051b1;
      }
    </style>
  </defs>
  <path class="cls-1" d="M167.67625,156.25h-35.35249c-3.45178,0-6.25-2.79822-6.25-6.25s2.79822-6.25,6.25-6.25h35.3525c3.45178,0,6.25,2.79822,6.25,6.25s-2.79822,6.25-6.25,6.25h-.00001Z"/>
  <g>
    <path class="cls-1" d="M200,243.75h-100c-17.25147-.01791-31.23209-13.99853-31.25-31.25v-125c.01791-17.25147,13.99853-31.23209,31.25-31.25h87.5c1.65766-.00061,3.24748.65825,4.41875,1.83125l37.5,37.5c1.173,1.17128,1.83187,2.76109,1.83125,4.41875v112.5c-.01791,17.25147-13.99853,31.23209-31.25,31.25ZM100,68.75c-10.35048.01171-18.73829,8.39952-18.75,18.75v125c.01171,10.35049,8.39952,18.73829,18.75,18.75h100c10.35049-.01171,18.73829-8.39951,18.75-18.75v-109.9125l-33.8375-33.8375h-84.9125Z"/>
    <path class="cls-1" d="M225,106.25h-25c-10.35049-.01171-18.73829-8.39952-18.75-18.75v-25c.00074-3.45178,2.79955-6.2494,6.25134-6.24867,1.65682.00036,3.2457.65855,4.41742,1.82992l37.5,37.5c2.4404,2.44114,2.43981,6.39842-.00134,8.83884-1.17173,1.17136-2.7606,1.82955-4.41742,1.82991ZM193.75,77.5875v9.9125c.00414,3.45007,2.79993,6.24587,6.25,6.25h9.91249l-16.16249-16.1625Z"/>
    <path class="cls-1" d="M150,200c-27.61424-.00106-49.99914-22.38768-49.99807-50.00193.0005-13.26121,5.26915-25.97904,14.64682-35.35557,19.78437-18.88483,50.91814-18.88483,70.70251,0,19.49532,19.54068,19.49532,51.17432,0,70.715h0c-9.35444,9.40751-22.08456,14.68034-35.35125,14.6425ZM150,112.5c-20.71068-.00041-37.50033,16.78859-37.50074,37.49926-.00019,9.94759,3.95206,19.48767,10.987,26.52074,14.84008,14.15972,38.18742,14.15972,53.0275,0h0c14.64659-14.64273,14.64972-38.38642.007-53.03301-7.03309-7.03495-16.57315-10.9872-26.52075-10.987Z"/>
    <path class="cls-1" d="M150,173.92625c-3.45178,0-6.25-2.79822-6.25-6.25v-35.35249c0-3.45178,2.79822-6.25,6.25-6.25s6.25,2.79822,6.25,6.25v35.3525c-.00001,3.45178-2.79822,6.24999-6.25,6.24999Z"/>
  </g>
</svg>