<?xml version="1.0" encoding="UTF-8"?>
<svg id="Layer_1" xmlns="http://www.w3.org/2000/svg" xmlns:svgjs="http://svgjs.dev/svgjs" version="1.1" viewBox="0 0 300 300">
  <!-- Generator: Adobe Illustrator 29.1.0, SVG Export Plug-In . SVG Version: 2.1.0 Build 142)  -->
  <defs>
    <style>
      .st0 {
        fill: #0051b1;
      }
    </style>
  </defs>
  <path class="st0" d="M234.4,115.5c-.1-2.4-2.2-4.2-4.6-4-1,0-2,.5-2.7,1.2-31,17.6-81.1,8.5-61,61.3-4.8,5.4-8.8,11.5-11.9,18-.1-12.5.3-89.4-.3-100.2,21.2,1.9,34.3-14.7,32.4-39-.1-2.4-2.2-4.2-4.6-4-1,0-1.9.5-2.7,1.2-4.4,3.4-17.5,5.3-23.9,8-6-11.9-20-14.1-34.8-18.5-8.4-2.3-18-4.9-20.9-7.8-1.7-1.6-4.4-1.5-6.1.2-.7.7-1.1,1.7-1.2,2.7-2.8,39.6,18.8,62.8,53.2,57.1.7,10.7.2,66.9.4,78.8-3.1-6.5-7.1-12.5-11.8-17.9,2.9-7,9.4-26.3-2-37.7-10.3-11.7-46.9-14.7-59-23.6-1.7-1.6-4.4-1.6-6.1.2-.7.7-1.1,1.7-1.2,2.7-3.8,44.8,23.3,72.1,61.7,63.9,11.7,11.8,19.1,36.4,18.4,48.1v54.9s-47.2,0-47.2,0c-2.4,0-4.2,2-4.2,4.4,0,2.3,1.9,4.1,4.2,4.2h103c2.4,0,4.3-1.9,4.3-4.3s-1.9-4.3-4.3-4.3h-47.3c0-26.9-3.3-58.1,18.5-81.5,38.3,8.2,65.5-19.1,61.7-63.9ZM157.2,66.3c3.7-1.3,7.4-2.5,11.2-3.5,3.4-.9,6.6-1.8,9.3-2.8.2,7.1-2.6,13.9-7.6,18.9-4.5,3.4-10.2,4.9-15.8,4.3,2-5.4,3-11.2,2.8-17ZM127.3,145.8c-7.8-7.1-16.8-12.8-26.6-16.8-2.2-.9-4.7.2-5.5,2.4-.9,2.2.2,4.7,2.4,5.5,8.1,3.3,15.5,7.8,22.1,13.5-10.7,1.4-21.6-1.4-30.4-7.7-9.9-7.9-15-21.6-15.2-40.9,13.4,6.2,42.3,9.9,51.8,19.1,6,6,4,17.3,1.5,24.9ZM147.9,75.1c-2.1-2.5-17.5-18.9-21.7-11.3-1.2,2-.5,4.7,1.6,5.8,6.3,3.1,11.6,7.9,15.5,13.7-6.5.9-19.6,1.6-29.4-6.3-8.5-6.8-12.9-18.5-13.2-34.9,11.7,5.2,36.6,8.5,44.8,16.4,4,4,3.8,10.7,2.5,16.6h0ZM205.3,129.9c7-1.7,13.9-3.9,20.6-6.6-.3,19.2-5.4,33-15.2,40.9-8.8,6.3-19.7,9-30.4,7.7,6.6-5.7,14.1-10.2,22.1-13.5,2.2-.9,3.3-3.4,2.4-5.6-.9-2.2-3.4-3.3-5.6-2.4h0c-9.8,4-18.8,9.6-26.6,16.8-9.6-27.3,7.7-30.4,32.6-37.3Z"/>
</svg>