<?xml version="1.0" encoding="UTF-8"?>
<svg id="Layer_1" data-name="Layer 1" xmlns="http://www.w3.org/2000/svg" viewBox="0 0 300 300">
  <defs>
    <style>
      .cls-1 {
        fill: #0051b1;
      }
    </style>
  </defs>
  <g id="path2421">
    <path class="cls-1" d="M233.74264,178.59403c-6.57411,0-12.08435-.89986-16.41254-2.03009-7.90191-2.06326-13.24067-5.19264-15.78294-6.92712-15.85749,4.28383-35.07697,6.39929-58.66919,6.4634h-.01062c-2.10334,0-3.81117-1.70205-3.81694-3.80669-.00578-2.10837,1.6987-3.82198,3.80669-3.82757,23.78717-.06449,42.89296-2.24778,58.409-6.67401,1.22603-.34966,2.54488-.06449,3.51631.7597.03765.03131,5.25005,4.30247,14.91029,6.73701,8.23777,2.07668,21.38115,3.17262,38.52469-2.58514l-8.28325-12.6435c-1.13023-1.72516-.68589-4.03613,1.00349-5.21892,9.25319-6.47831,14.92744-10.45107,18.4266-12.89586-1.92832-.81692-3.49916-1.42527-5.13672-1.92627-2.01555-.61712-3.14988-2.75139-2.53295-4.76713.6173-2.01611,2.75139-3.15006,4.76731-2.53295,2.37527.7269,4.51532,1.59675,7.40948,2.85372.87302.38004,3.60391,1.88955,4.73786,2.52083,1.26368.70378,2.02114,2.0614,1.95628,3.50643-.05442,1.20907-.67694,2.30556-1.65285,2.97542-.63333.44285-14.33586,10.03618-20.56442,14.39699l8.89645,13.57914c.63072.96211.79325,2.15757.44359,3.25313-.35003,1.09593-1.17571,1.97566-2.24704,2.39428-12.26663,4.79303-22.92888,6.39481-31.69859,6.39519Z"/>
  </g>
  <g id="path2425">
    <path class="cls-1" d="M125.72697,175.80722c-.04548,0-.09077-.00075-.13662-.00224-3.68704-.12972-7.42328-.29821-11.4225-.51479-23.40844-1.27188-48.54745-3.01829-73.77779-7.15153-3.73289-.61096-7.01286-1.58724-10.18492-2.53146-1.55052-.46149-3.01494-.89725-4.53788-1.29611-2.36129-.61879-4.32838-2.27425-5.39766-4.54216-1.10544-2.3447-1.11905-5.03011-.03728-7.36811,5.21929-11.28626,14.86724-20.7016,27.1663-26.51042,11.29688-5.3356,24.4781-7.79436,41.4552-7.75616,30.92994.07884,54.92102,7.79753,82.70015,16.73517,4.34981,1.39937,8.84724,2.84645,13.44308,4.28551,1.59991.50081,3.1674,1.07916,4.4896,1.57885,5.76297,2.17733,12.10709,2.27388,17.86335.27231,4.27936-1.48827,8.79357-3.46002,13.79982-6.02782,2.09271-1.07357,4.01171-2.3749,6.04329-3.75264,3.52973-2.39335,7.17911-4.86815,11.92331-6.21943,3.01009-.85774,5.81367-1.31419,8.57102-1.39545,2.11284-.05647,3.86596,1.59581,3.92822,3.70306.06188,2.10725-1.59619,3.86578-3.70306,3.92784-2.14676.06318-4.27712.41489-6.70458,1.10656-3.56551,1.01579-6.55995,3.04625-9.73033,5.19599-2.13185,1.44559-4.33602,2.94038-6.84362,4.2268-5.32497,2.73126-10.15864,4.83963-14.77647,6.44588-7.44229,2.58775-15.63533,2.46697-23.06941-.34145-1.22007-.4613-2.65783-.9923-4.0721-1.43497-4.62454-1.4482-9.13651-2.89975-13.50012-4.30359-27.17264-8.7425-50.63961-16.2927-80.38173-16.36837-15.80698-.04231-27.9411,2.19131-38.17541,7.02497-10.52824,4.97252-19.09274,13.28745-23.49753,22.81239-.18527.40035-.05219.7679.01361.90731.04865.10326.18769.35003.427.41265,1.64483.43092,3.23916.90545,4.78092,1.36433,3.07887.91626,5.98682,1.78182,9.24107,2.31488,24.87248,4.07434,49.76379,5.80211,72.95752,7.06206,3.94984.21397,7.63892.38022,11.27731.50808,2.10688.07418,3.75469,1.84221,3.68051,3.94909-.07232,2.06103-1.76617,3.68293-3.81228,3.68293Z"/>
  </g>
  <g id="path2429">
    <path class="cls-1" d="M108.61009,199.36981c-.29244,0-.58748-.03355-.87992-.10288-6.52454-1.54512-16.08004-4.74457-23.70051-14.64302-2.84943-3.70195-6.65817-10.33011-8.45248-13.85462-.63035-1.23796-.53846-2.72045.24006-3.87081.77852-1.15073,2.12253-1.78369,3.50401-1.66291,5.93258.53492,12.33988,1.02399,19.58777,1.49554,1.93112.12562,3.46263,1.67633,3.56421,3.60875.08928,1.13917,2.21927,10.34726,9.4707,23.35421.73677,1.32146.62345,2.9538-.28927,4.16082-.73137.96733-1.86532,1.51492-3.04457,1.51492ZM85.80292,173.445c1.50598,2.52475,3.08539,4.97494,4.27619,6.52193,3.35565,4.35876,7.14575,7.10307,10.85236,8.91956-2.88708-6.24981-4.60796-11.40219-5.44929-14.73211-3.39479-.23037-6.60729-.46559-9.67926-.70937Z"/>
  </g>
  <g id="path2433">
    <path class="cls-1" d="M132.92063,131.28658c-.29113,0-.58282-.03336-.86929-.10027l-3.17877-.74348c-14.00988-3.15323-26.7421-4.64039-40.0385-4.67319-.57425,0-1.1634,0-1.74734.00485-.01081.00019-.02162.00019-.03224.00019-1.08475,0-2.11899-.46167-2.84346-1.27039-.73155-.81692-1.07655-1.90894-.94701-2.99779,1.35463-11.38411,8.10973-21.01435,20.07759-28.62345,1.42807-.90825,3.28333-.76734,4.55819.34555,6.55547,5.72253,23.51412,11.54477,33.64648,15.02343,1.7781.61041,3.41249,1.17161,4.84131,1.67745,1.90558.67471,2.95474,2.71803,2.3926,4.65977-3.12006,10.77799-9.07519,14.36009-14.48907,16.44274-.43968.16924-.90433.2546-1.37048.2546ZM91.7109,118.16426c12.84815.22739,25.27843,1.77884,38.86913,4.83777l2.02729.47397c3.31893-1.4372,5.78925-3.40783,7.62792-7.60239-.38153-.13103-.77107-.26485-1.16788-.4011-10.30868-3.53905-25.40256-8.72088-33.84237-14.66576-7.0671,4.98631-11.59453,10.80408-13.5141,17.35751Z"/>
  </g>
  <g id="path2437">
    <path class="cls-1" d="M213.60392,175.23354c-.43539,0-.87302-.07455-1.29275-.22552-5.16841-1.86122-8.79729-4.03147-10.76028-5.37008-.37239.09953-.73845.19533-1.10153.2874-1.18875.30269-2.45094.01491-3.3918-.77312-.94049-.78803-1.44484-1.98014-1.35575-3.20393.4846-6.64084.4544-13.15195-.08984-19.35255-.09245-1.05288.25609-2.097.96211-2.88354s1.7069-1.24504,2.76332-1.26647c2.72604-.05498,5.42189-.53883,8.01262-1.43813,1.51641-.52448,3.08725-1.12557,4.80608-1.83923,1.10376-.45813,2.35887-.37295,3.39031.23037,1.03182.60332,1.72144,1.65527,1.86346,2.84197,1.12203,9.38813,1.1183,19.3451-.01156,29.59395-.12786,1.16229-.78169,2.20156-1.774,2.82035-.6132.38283-1.31438.57853-2.0204.57853ZM203.57613,161.86128c.43576.15209.84581.38432,1.20776.69111.01528.01267,1.90372,1.56338,5.49421,3.3221.44024-6.10107.44844-12.06049.02498-17.81191-.15172.05349-.30306.10642-.45366.15843-2.07333.71963-4.20108,1.23348-6.3594,1.5371.2177,3.95077.2464,7.9979.08611,12.10317Z"/>
  </g>
  <g id="path2441">
    <path class="cls-1" d="M233.80303,178.61341c-2.43789,0-4.84298-.12525-7.20036-.37538-1.02399-.10885-1.96075-.62662-2.59744-1.43627-.63669-.80928-.91924-1.84147-.78356-2.86248,1.73001-13.01664,1.5481-25.44804-.54051-36.94863-.27697-1.52443.39513-3.06526,1.70131-3.89914.94422-.60295,1.90036-1.25063,2.8252-1.87707,3.28817-2.22747,6.68818-4.53079,10.99103-5.92382.99864-.323,2.08638-.22124,3.00823.28293.92111.50398,1.59395,1.36526,1.86011,2.38105,3.7519,14.31797,4.52651,30.09886,2.30333,46.90467-.23037,1.74007-1.61743,3.09881-3.36198,3.29302-2.76108.30753-5.50353.46111-8.20534.46111ZM241.58603,174.35865h.00373-.00373ZM231.26747,170.92808c2.26456.09245,4.57012.06002,6.90178-.09617,1.43702-12.99987.9472-25.27749-1.45789-36.59749-1.76841.96099-3.46636,2.11135-5.22209,3.30066-.28815.19514-.57928.39215-.87302.59028,1.63421,10.36385,1.85228,21.3696.65122,32.80272Z"/>
  </g>
  <g id="path2445">
    <path class="cls-1" d="M48.04389,203.70918c-1.12277,0-2.23474-.4928-2.98847-1.43925-4.20649-5.28248-8.44279-15.23311-9.85409-23.1462-.96808-5.42972-1.58575-9.83843-1.67354-15.03331-.0356-2.108,1.64427-3.84546,3.75208-3.88125,2.10595-.02535,3.84546,1.64465,3.88106,3.75227.07921,4.6868.65421,8.76337,1.55611,13.82219,1.17776,6.60393,4.9058,15.45528,8.31046,19.73054,1.31326,1.64912,1.04095,4.05086-.60817,5.36411-.70267.55915-1.54214.8309-2.37546.8309Z"/>
  </g>
  <g id="path2449">
    <path class="cls-1" d="M78.97532,207.71307c-.74982,0-1.5071-.22031-2.17006-.67955-22.02287-15.25399-27.26136-24.75022-34.62462-40.22152-.90601-1.90372-.09729-4.18132,1.80624-5.08715,1.90297-.9062,4.18114-.09766,5.08696,1.80605,7.19607,15.12016,11.56546,23.01872,32.07825,37.22672,1.73299,1.20031,2.16484,3.57819.96453,5.31155-.74125,1.06984-1.9313,1.6439-3.1413,1.6439Z"/>
  </g>
  <g id="path2477">
    <path class="cls-1" d="M65.35248,140.30804c0,3.40692-2.76208,6.16899-6.16848,6.16899-3.40692,0-6.16899-2.76208-6.16899-6.16899s2.76208-6.16899,6.16899-6.16899c3.40641,0,6.16848,2.76208,6.16848,6.16899"/>
  </g>
</svg>