<?xml version="1.0" encoding="UTF-8"?>
<svg id="Layer_1" data-name="Layer 1" xmlns="http://www.w3.org/2000/svg" viewBox="0 0 300 300">
  <defs>
    <style>
      .cls-1 {
        fill: #0051b1;
        fill-rule: evenodd;
      }
    </style>
  </defs>
  <path class="cls-1" d="M101.69327,242.20392l2.85771,5.04947c2.47932,4.37975.92386,9.99256-3.45636,12.47141l-10.26412,5.80907c-4.37975,2.47884-9.99257.92339-12.47141-3.45683l-30.1763-53.31847c-2.47743-4.38022-.92198-9.99256,3.45777-12.47093l10.26365-5.80861c4.38022-2.47979,9.99304-.92387,12.47188,3.45683l2.30753,4.07713,26.7623-15.49478c7.75375-4.48893,15.68068-7.47041,24.15168-5.18784,7.49678-11.56684,24.39547-20.16961,44.57403-21.12924-1.17707-9.25508-3.61401-16.86857-7.53867-23.45655-.41181-.69184-.84009-1.3719-1.28484-2.04162-18.90125,3.78769-29.31739-4.01877-37.59025-14.04522-3.95006-4.78732-7.36453-10.12764-11.07644-14.78835-3.27234-4.10866-6.74187-7.69632-11.27835-9.51252l-.00236-.00094c-4.05877-1.62841-3.64932-7.49819.59347-8.54818l.00518-.00141c6.46938-1.59028,18.68852-3.967,30.68317-2.3,8.43429,1.17236,16.73161,4.32704,23.09275,10.85383,6.61292,6.7847,11.24163,17.29826,11.35035,33.4444.69231,1.00716,4.07665,6.85107,4.97887,8.85315.32945-8.32369.40333-16.98388-.4024-25.51982-.11154-1.18459-.24096-2.36684-.38921-3.54531-.00517-.03953-.01036-.0786-.01507-.11813-1.34273-10.56156-4.24138-20.82616-10.06927-29.78285-15.14275,2.65721-23.62503-3.77168-30.3942-11.97583-3.24551-3.93358-6.05192-8.3218-9.10165-12.15138-2.61062-3.27752-5.36479-6.15593-8.98399-7.60502-3.93923-1.57805-3.54013-7.2817.57512-8.29827l.00424-.00141c5.36479-1.31872,15.49901-3.2841,25.4464-1.90137,7.06944.98269,14.01886,3.63802,19.35071,9.10871,5.58929,5.73424,9.51204,14.64763,9.51204,28.40859,0,.11907-.00564.23673-.01647.35345,2.65862,4.10207,4.77227,8.44605,6.44255,12.95664.95116-2.8883,2.15129-5.53045,3.60837-7.9853.19908-13.45504,4.14396-22.2503,9.70924-27.96054,5.44621-5.58787,12.54578-8.29921,19.76723-9.30261,10.17564-1.41473,20.54189.5963,26.02998,1.94561l.00612.00188c4.1289,1.02269,4.53083,6.73952.57606,8.3251l-.00141.00047c-3.72133,1.49051-6.55504,4.44752-9.23908,7.81775-3.12409,3.92182-5.99779,8.41593-9.32191,12.44458-7.03932,8.53171-15.892,15.18416-31.88989,12.07843-3.11938,5.98556-4.48093,13.28184-4.50258,22.87014.14919,1.19965.28003,2.40307.39345,3.60932.68384,7.24216.73938,14.57375.54359,21.71519.23673-.42216,2.01009-3.33352,2.70193-4.34069.10871-16.14615,4.73744-26.66017,11.35035-33.44488,6.3616-6.52679,14.65893-9.68147,23.09321-10.85383,11.99512-1.667,24.21428.70972,30.68318,2.3l.00612.00141c4.23997,1.04999,4.64942,6.91978.59347,8.54771l-.00283.00141c-4.53695,1.81619-8.006,5.40385-11.27834,9.51252-3.71191,4.66072-7.12686,10.00104-11.07692,14.78835-8.27286,10.02645-18.68899,17.83291-37.59025,14.04522-.44476.66972-.87256,1.34979-1.28484,2.04162-3.93782,6.61057-6.37855,14.25418-7.55043,23.55303,13.41504.91821,25.29486,5.18641,33.69054,11.41954,5.2556,3.90158,9.17178,8.58489,11.40071,13.71342,9.01317-2.73628,15.03403-.62972,18.55628,2.84501,3.24975,3.20551,4.60095,7.84646,4.19007,12.24785-.42169,4.51388-2.70052,8.67902-6.26465,10.8736l-66.38758,40.87859c-7.01908,4.32092-14.69846,5.34409-22.66069,3.21022l-46.64625-12.49871-5.57231,3.2168ZM97.99782,250.96248l-30.17536-53.31799c-.4391-.77607-1.43356-1.05141-2.20917-.6123l-10.26412,5.80861c-.77608.43911-1.0514,1.43403-.6123,2.21012l30.17583,53.31752c.4391.77561,1.43309,1.05141,2.2087.6123l10.26412-5.80907c.77608-.43911,1.0514-1.43356.6123-2.20917h0ZM134.99271,179.84594c8.42864,3.04455,31.20277,9.33227,31.36419,9.3845,7.32782,2.3753,11.77864,9.7789,9.78595,17.21778-.28096,1.04905-.64572,2.02985-1.08905,2.93724,1.45991-.43816,2.89018-1.05941,4.29785-1.87926l36.5812-21.30668c1.23213-.71772,2.4219-1.36108,3.57025-1.93479-1.74606-3.93687-4.85603-7.48877-8.91434-10.50179-7.42853-5.51492-17.97786-9.1793-29.85768-9.96339-.08519,1.62276-.18073,6.50468-.18073,7.20733,0,2.07787-1.68723,3.7651-3.7651,3.7651s-3.7651-1.68723-3.7651-3.7651c0-.99727-.15954-6.81529-.18544-7.30004-16.65631.69513-30.96133,6.95461-37.84204,16.13908h.00003ZM97.98417,235.6503l6.86707-3.96418c.86456-.49935,1.89243-.63489,2.85677-.3765l48.15275,12.90299c5.88955,1.57804,11.57249.84668,16.76409-2.34942l66.3871-40.87811c1.53193-.94363,2.38001-2.7744,2.65957-4.69554.43816-3.01302-.56806-6.47502-3.74957-7.88412-2.78947-1.2359-6.81153-.95163-12.30151,1.3319-1.82655.76007-3.78957,1.74136-5.89803,2.96924l-36.58167,21.30715c-5.89049,3.43-12.06667,4.38116-18.79677,3.30434,0,0-4.70401-.76761-4.70542-.76807-8.25874-1.68911-15.91929-4.18726-24.41617-6.46373-2.0068-.53747-3.19986-2.60357-2.66239-4.61083s2.60404-3.20033,4.6113-2.66286c8.29356,2.22188,15.77292,4.67107,23.82694,6.3296,4.00889.44993,6.94896-1.20247,7.87093-4.64237.92998-3.47142-1.24766-6.83083-4.61883-8.03283-13.73978-2.51884-27.20988-8.01495-36.11809-11.06232-.59206-.20237-1.16247-.39345-1.71076-.57135-6.79458-2.204-13.0197.62218-19.20246,4.20185l-26.82631,15.53197,17.59146,31.0832ZM160.84056,116.13581c-1.33144-8.31521-4.34775-14.30266-8.45782-18.52003-5.14501-5.27913-11.91512-7.70292-18.737-8.65078-7.26146-1.00951-14.6114-.35674-20.44259.61795,5.26501,4.29786,9.53228,10.42132,13.98592,16.5556,4.81791,6.63645,9.90409,13.28467,17.7769,16.31086,3.65779,1.40579,7.90812,1.99033,12.99052,1.46368-5.41044-5.78695-12.38058-10.83641-21.04359-15.83788-1.79924-1.03916-2.41672-3.34341-1.37802-5.14312,1.03916-1.79972,3.34387-2.41719,5.14312-1.37802,8.0413,4.64236,14.71682,9.36944,20.16255,14.58175h.00001ZM161.20249,61.34613c-1.17754-5.82649-3.44788-10.12246-6.46985-13.22349-4.11572-4.22256-9.53793-6.14746-14.99449-6.90566-5.3149-.7389-10.68817-.37886-15.15922.27956,3.86534,3.48695,7.12309,8.1119,10.49567,12.75756,3.87946,5.34408,7.95282,10.72252,14.2923,13.15901,2.4459.94033,5.22313,1.41473,8.44322,1.2966-4.11148-4.46917-9.2099-8.46488-15.5202-11.82287-1.83407-.9761-2.53109-3.25775-1.55498-5.09229.9761-1.83454,3.25822-2.53156,5.09276-1.55498,6.05756,3.22339,11.13198,6.96307,15.37478,11.10656h.00001ZM190.17773,75.04214c3.96277.35157,7.30099-.12801,10.18976-1.23872,6.51032-2.50238,10.69664-8.02201,14.68058-13.51011,3.49401-4.81273,6.86518-9.6057,10.87548-13.18301-4.62825-.69372-10.21424-1.08294-15.73904-.31486-5.60858.77985-11.18092,2.75981-15.41101,7.1005-2.89913,2.97443-5.12665,7.01955-6.39455,12.41634,3.33964-2.9203,7.28875-5.634,11.90806-8.30062,1.79972-1.03917,4.10443-.42169,5.14313,1.37803,1.03917,1.79971.42169,4.10396-1.37803,5.14312-5.74271,3.31564-10.3413,6.65198-13.87438,10.50933ZM195.61405,123.91308c5.08287.52664,9.33272-.05789,12.99052-1.46368,7.87234-3.02619,12.95899-9.67441,17.7769-16.31086,4.45598-6.13805,8.72609-12.2648,13.97933-16.55654-5.8312-.97422-13.17784-1.62605-20.436-.617-6.82188.94786-13.59247,3.37164-18.73746,8.65078-4.11007,4.21738-7.12591,10.20529-8.45782,18.52051,5.44621-5.2123,12.12173-9.93985,20.16303-14.58221,1.79972-1.03916,4.10443-.42169,5.14358,1.37802,1.0387,1.79972.42121,4.10396-1.37849,5.14312-8.66255,5.00146-15.63268,10.05092-21.0436,15.83788h0ZM64.17927,203.78206c2.00303-.29274,3.86346,1.09329,4.15667,3.09585.29227,2.00256-1.09376,3.86347-3.09632,4.15619-2.00209.29274-3.86299-1.09329-4.1562-3.09585-.29227-2.00256,1.09329-3.86347,3.09585-4.15619ZM112.74712,120.36259l-20.69015-23.69469-20.68967,23.69469h7.30899c2.07927,0,3.7651,1.68582,3.7651,3.7651v63.32844c0,2.07787-1.68723,3.7651-3.7651,3.7651s-3.7651-1.68723-3.7651-3.7651v-59.56334h-7.90341c-2.22235,0-4.11007-1.20153-5.04523-3.18433-.95727-2.01527-.65371-4.2795.82314-5.96627l25.04918-28.68815c.00612-.00659.01177-.01318.01789-.01977,1.09564-1.23683,2.54333-1.89149,4.2042-1.89149,1.70747,0,3.15609.67866,4.22726,1.91737l25.03224,28.66838c1.50651,1.69759,1.8049,3.96276.84667,5.97991-.93186,1.97621-2.80688,3.18433-5.05653,3.18433l-7.89211.00047v34.46427c0,2.07833-1.68724,3.7651-3.7651,3.7651-2.07833,0-3.7651-1.68677-3.7651-3.7651v-38.22985c0-2.07927,1.68582-3.7651,3.7651-3.7651h7.2977Z"/>
</svg>