<?xml version="1.0" encoding="UTF-8"?>
<svg id="Layer_1" xmlns="http://www.w3.org/2000/svg" xmlns:svgjs="http://svgjs.dev/svgjs" version="1.1" viewBox="0 0 300 300">
  <!-- Generator: Adobe Illustrator 29.1.0, SVG Export Plug-In . SVG Version: 2.1.0 Build 142)  -->
  <defs>
    <style>
      .st0 {
        fill: #0051b1;
      }
    </style>
  </defs>
  <path class="st0" d="M188.9,151c6.3,10.2,16.4,17.3,28.1,19.8.7,0,1.4,0,2.1-.2,2.5-.8,3.9-3.6,3.1-6.1l-8.8-25.8,8.8-25.8c.2-.7.3-1.4.2-2.1-.3-2.6-2.8-4.5-5.4-4.1-11.7,2.4-21.9,9.6-28.1,19.8-9.2-6.4-39.9-15.8-63.3-5.2-8.4,3.3-16.2,8.1-22.9,14.2-1.1,1.1-1.6,2.7-1.3,4.2.2.9.6,1.8,1.3,2.4,9.8,8.9,21.8,15,34.8,17.7,17.6,3.2,35.8.1,51.4-8.7ZM135.3,128c1.6,3.3,2.4,7,2.4,10.7,0,3.7-.8,7.3-2.4,10.6-2-.5-4-1.2-5.9-2-19-8.6-19.1-8.7,0-17.3,2-.8,4-1.5,6-2ZM144.9,151.1c3.1-8,3.1-16.9,0-24.9,26.3-2.3,38.6,9.6,43.3,10h3.3c1.7,0,3.3-.9,4.2-2.5,3.3-6.1,8.3-11.2,14.4-14.6l-6.1,17.9c-.3,1-.3,2.1,0,3.1l6.1,17.9c-6.1-3.4-11.1-8.5-14.4-14.6-.8-1.5-2.4-2.5-4.2-2.5-1.7,0-4.5-.3-6,.8-12.2,7.2-26.5,10.5-40.6,9.3Z"/>
  <path class="st0" d="M131.8,135.4c0-1.4-1-2.5-2.4-2.5-1.3,0-2.4,1.1-2.4,2.4,0,1.4,1,2.5,2.4,2.5,1.3,0,2.4-1.1,2.4-2.4Z"/>
  <path class="st0" d="M276.2,93.4c.7,0,1.4,0,2.1-.2,2.5-.8,3.9-3.6,3.1-6.1l-8.8-25.8,8.8-25.8c.2-.7.3-1.4.2-2.1-.3-2.6-2.8-4.5-5.4-4.1-11.7,2.4-21.9,9.6-28.1,19.8-14.9-8.5-32.3-11.7-49.3-9.1-4.1.7-8.1,1.8-12,3.1-9.2,3.3-17.6,8.4-24.9,15-.5.4-.8,1-1,1.6-.6,1.6-.3,3.5.8,4.9,6.8,6.1,14.6,11,23.1,14.4,23.6,10.6,53.8,1.3,63.3-5.2,6.3,10.2,16.4,17.3,28.1,19.8ZM194.4,50.7c1.6,3.3,2.4,7,2.4,10.7,0,3.7-.8,7.3-2.4,10.6-2-.5-4-1.2-5.9-2-19-8.6-19.1-8.7,0-17.4,2-.8,4-1.5,6-2ZM254.7,66.2c-.8-1.5-2.4-2.5-4.2-2.5-1.7,0-4.5-.3-6,.8-12.3,7.2-26.5,10.5-40.6,9.3,3.1-8,3.1-16.9,0-24.9,26.2-2.2,38.7,9.7,43.3,10,2.6,0,6.2.3,7.5-2.5,3.3-6.1,8.3-11.2,14.4-14.6l-6.1,17.9c-.2.5-.3,1-.3,1.5-.7-.4,6.3,19.2,6.4,19.5-6.1-3.4-11.1-8.4-14.4-14.6Z"/>
  <path class="st0" d="M190.9,58.1c0-1.4-1-2.5-2.4-2.5-1.3,0-2.4,1.1-2.4,2.4,0,1.4,1,2.5,2.4,2.5,1.3,0,2.4-1.1,2.4-2.4Z"/>
  <path class="st0" d="M29.7,241.8c6.8,6.1,14.6,11,23.1,14.4,23.6,10.6,53.9,1.3,63.4-5.2,6.3,10.2,16.4,17.3,28.1,19.8.7.1,1.5,0,2.2-.2,2.5-.9,3.8-3.6,3-6.1l-8.8-25.8,8.8-25.8c.2-.7.3-1.5.2-2.2-.4-2.6-2.8-4.4-5.4-4.1-11.7,2.4-21.9,9.6-28.1,19.8-9.2-6.4-39.9-15.8-63.3-5.2-8.4,3.3-16.2,8.1-22.9,14.2-.7.7-1.1,1.5-1.3,2.4-.2,1.4.1,2.9,1,4ZM72.1,251.1c3.1-8,3.1-16.9,0-24.9,14.2-1.2,28.4,2,40.6,9.2,1.4,1.1,4.2.7,6,.8,1.7,0,3.3-.9,4.2-2.5,3.3-6.1,8.3-11.2,14.4-14.6l-6.1,17.9c-.2.5-.3,1-.3,1.5-.7-.5,6.4,19.2,6.4,19.5-6.1-3.4-11.1-8.5-14.4-14.6-.8-1.5-2.4-2.5-4.2-2.5-1.7,0-4.5-.3-6,.8-12.2,7.2-26.5,10.5-40.6,9.3ZM56.5,230c2-.8,4-1.5,6-2,1.6,3.3,2.4,7,2.4,10.7,0,3.7-.8,7.3-2.3,10.6-2-.5-4-1.2-5.9-2-19-8.6-19.1-8.7,0-17.4Z"/>
  <path class="st0" d="M54.2,235.3c0,1.4,1.1,2.5,2.4,2.5,1.3,0,2.4-1.1,2.4-2.4,0-1.4-1.1-2.5-2.4-2.5-1.3,0-2.4,1.1-2.4,2.4Z"/>
  <path class="st0" d="M36.6,182.9c14.2,12.4,34.5,14.9,51.2,6.2,4.1,5.9,10.4,9.9,17.6,11,.5,0,1,0,1.5-.2,2.5-.8,3.9-3.6,3.1-6.1l-5-14.5,5-14.5c.2-.7.3-1.5.2-2.2-.4-2.6-2.8-4.4-5.4-4.1-6.8,1.4-12.8,5.3-16.9,11-5.3-3.7-24.4-8.1-36.1-2.8-5.7,2-10.9,5.2-15.3,9.3-.7.7-1.1,1.5-1.3,2.5-.3,1.7.3,3.4,1.5,4.5ZM92,179.2c2.2-1.1,3-4.2,4.7-5.7l-1.4,4.1c-.9,2,.9,5.3,1.4,7.2-1-1.2-1.9-2.4-2.7-3.8-.5-.8-1.2-1.5-2-1.9ZM54.1,182.5c-2.2-.9-4.3-2-6.3-3.3,3.9-2.6,8.3-4.3,12.9-5.1,8.5-1.2,17.2.5,24.6,4.9.6.3.5.2,0,.5-7.4,4.4-16.1,6.1-24.6,4.9-2.3-.4-4.5-1-6.6-1.8h0Z"/>
  <path class="st0" d="M195.9,214.9c14.2,12.4,34.5,14.9,51.2,6.2,4.1,5.9,10.4,9.9,17.6,11,.5,0,1,0,1.5-.2,2.5-.8,3.9-3.6,3.1-6.1l-5-14.5,5-14.5c.2-.7.3-1.5.2-2.2-.4-2.6-2.8-4.4-5.4-4.1-6.8,1.4-12.8,5.3-16.9,11-5.3-3.6-24.4-8-36.1-2.8-5.7,2-10.9,5.2-15.3,9.3-.7.7-1.1,1.5-1.3,2.4-.3,1.7.3,3.4,1.5,4.5ZM253.4,213.2c-.5-.8-1.2-1.5-2-1.9,2.2-1.1,3-4.2,4.7-5.7l-1.4,4.1c-.9,2,.9,5.3,1.4,7.2-1-1.2-1.9-2.4-2.7-3.8h0ZM213.4,214.6c-2.2-.9-4.3-2-6.3-3.3,3.9-2.6,8.3-4.3,12.9-5.1,8.5-1.3,17.2.4,24.6,4.8.6.3.5.2,0,.5-7.4,4.4-16.1,6.1-24.6,4.9-2.3-.4-4.5-1-6.6-1.8h0Z"/>
  <path class="st0" d="M113,82.6l-4.9-14.6,4.9-14.5c.2-.7.3-1.5.2-2.2-.4-2.6-2.8-4.4-5.4-4.1-6.8,1.4-12.8,5.3-16.9,11-16.7-8.7-37-6.2-51.2,6.2,0,0,0,0,0,0-2,1.9-2,5-.2,6.9,6.4,5.9,14.3,9.8,22.9,11.2,9.8,1.5,19.8-.2,28.6-4.7,4,5.7,10,9.6,16.9,11,1.6.2,3.3-.4,4.4-1.7,1.1-1.3,1.4-3,.9-4.6ZM88.4,67.8c.6.3.4.2,0,.5-7.4,4.4-16.1,6.1-24.6,4.9-4.6-.8-9.1-2.5-13-5.1,3.9-2.5,8.3-4.3,12.9-5.1,8.5-1.2,17.2.5,24.7,4.9ZM99.9,62.3c-.6,1.9-2.1,5.2-1.4,7.3l1.4,4.2c-1.7-1.5-2.5-4.6-4.7-5.7.8-.4,1.5-1.1,2-1.9.8-1.4,1.7-2.6,2.7-3.8Z"/>
  <path class="st0" d="M186.5,190.8c0,2.5,1.9,4.5,4.4,4.6,2.4,0,4.4-2,4.4-4.4,0-2.5-1.9-4.5-4.4-4.6-2.4,0-4.4,2-4.4,4.4Z"/>
  <path class="st0" d="M157.2,45.3c0-2.5-1.9-4.5-4.4-4.6-2.4,0-4.4,2-4.4,4.4,0,2.5,1.9,4.5,4.4,4.6,2.4,0,4.4-2,4.4-4.4Z"/>
  <path class="st0" d="M44.1,45.3c0-2.5-1.9-4.5-4.4-4.6-2.4,0-4.4,2-4.4,4.4,0,2.5,1.9,4.5,4.4,4.6,2.4,0,4.4-2,4.4-4.4Z"/>
  <path class="st0" d="M37.9,143.4c-2.5,0-4.5,1.9-4.6,4.4,0,2.4,2,4.4,4.4,4.4,2.5,0,4.5-1.9,4.6-4.4,0-2.4-2-4.4-4.4-4.4Z"/>
  <path class="st0" d="M84.6,126.7c2.5,0,4.5-1.9,4.6-4.4,0-2.4-2-4.4-4.4-4.4-2.5,0-4.5,1.9-4.6,4.4,0,2.4,2,4.4,4.4,4.4Z"/>
  <path class="st0" d="M18.4,224.9c0,2.5,2,4.5,4.4,4.6,2.4,0,4.4-2,4.4-4.4,0-2.5-2-4.5-4.4-4.6-2.4,0-4.4,2-4.4,4.4Z"/>
</svg>