<?xml version="1.0" encoding="UTF-8"?>
<svg id="Layer_1" xmlns="http://www.w3.org/2000/svg" xmlns:svgjs="http://svgjs.dev/svgjs" version="1.1" viewBox="0 0 300 300">
  <!-- Generator: Adobe Illustrator 29.1.0, SVG Export Plug-In . SVG Version: 2.1.0 Build 142)  -->
  <defs>
    <style>
      .st0 {
        fill: #0051b1;
      }
    </style>
  </defs>
  <g id="_x30_7_Fish_species">
    <g>
      <path class="st0" d="M98.1,43.2h-28.6c-8.6,0-15.6,7-15.6,15.6v203.3c0,8.6,7,15.6,15.6,15.6h161.1c8.6,0,15.6-7,15.6-15.6V58.9c0-8.6-7-15.6-15.6-15.6h-28.6c-1.8,0-3.3,1.5-3.3,3.3s1.5,3.3,3.3,3.3h28.6c5,0,9,4,9,9v203.3c0,5-4,9-9,9H69.5c-5,0-9-4-9-9V58.9c0-5,4-9,9-9h28.6c1.8,0,3.3-1.5,3.3-3.3,0-1.8-1.5-3.3-3.3-3.3h0Z"/>
      <path class="st0" d="M101.4,66c0-1.8-1.5-3.3-3.3-3.3h-12.2c-6.9,0-12.5,5.6-12.5,12.5v170.6c0,6.9,5.6,12.5,12.5,12.5h128.1c6.9,0,12.5-5.6,12.5-12.5V75.2c0-6.9-5.6-12.5-12.5-12.5h-12.2c-1.8,0-3.3,1.5-3.3,3.3s1.5,3.3,3.3,3.3h12.2c3.2,0,5.9,2.6,5.9,5.9v170.6c0,3.2-2.6,5.9-5.9,5.9H85.9c-3.2,0-5.9-2.6-5.9-5.9V75.2c0-3.2,2.6-5.9,5.9-5.9h12.2c1.8,0,3.3-1.5,3.3-3.3h0Z"/>
      <path class="st0" d="M95.6,184.8c0,1.8,1.5,3.3,3.3,3.3h102.2c1.8,0,3.3-1.5,3.3-3.3s-1.5-3.3-3.3-3.3h-102.2c-1.8,0-3.3,1.5-3.3,3.3Z"/>
      <path class="st0" d="M112.9,203.5h-14c-1.8,0-3.3,1.5-3.3,3.3s1.5,3.3,3.3,3.3h14c1.8,0,3.3-1.5,3.3-3.3s-1.5-3.3-3.3-3.3Z"/>
      <path class="st0" d="M201.1,203.5h-73.2c-1.8,0-3.3,1.5-3.3,3.3s1.5,3.3,3.3,3.3h73.2c1.8,0,3.3-1.5,3.3-3.3s-1.5-3.3-3.3-3.3Z"/>
      <path class="st0" d="M201.1,225.5h-14c-1.8,0-3.3,1.5-3.3,3.3s1.5,3.3,3.3,3.3h14c1.8,0,3.3-1.5,3.3-3.3s-1.5-3.3-3.3-3.3Z"/>
      <path class="st0" d="M95.6,228.8c0,1.8,1.5,3.3,3.3,3.3h73.2c1.8,0,3.3-1.5,3.3-3.3s-1.5-3.3-3.3-3.3h-73.2c-1.8,0-3.3,1.5-3.3,3.3h0Z"/>
      <path class="st0" d="M188.3,126.3c5.2-3.7,6.9-11,6.4-16.6-.2-1.6-1.4-2.8-3-3-8.5-.8-16.3,2.6-18.9,11.3-1.9-2.1-4.2-4.5-6.9-6.9v-15.1c0-2.5-1.3-4.8-3.5-6-2.2-1.2-4.9-1.2-7,.1l-17,10.5c-12.3,1.4-23.8,11.4-31.4,21.1h0c-1.1,1.4-1.6,3-1.6,4.6s.3,2.5.9,3.6c2,3.8,16.2,20.4,32.1,22.2l17,10.4c1.1.7,2.4,1,3.6,1s2.3-.3,3.4-.9c2.2-1.2,3.5-3.5,3.5-6.1v-15.1c2.7-2.4,5.1-4.7,6.9-6.9.7,2.3,1.8,4.7,3.8,6.6,3.8,3.8,10.3,5.1,15.1,4.7,1.6-.2,2.8-1.4,3-3,.5-5.7-1.2-12.9-6.4-16.5h0ZM158.7,95.8c0,0,.2-.1.3,0,.2,0,.2.2.2.3v10.1c-3-2-6.4-3.6-9.9-4.6l9.5-5.8ZM126.4,140.4c-5.3-3.5-10.4-8.6-14.2-13.6-.3-.3-.3-.8,0-1.1,3.9-5,8.9-10.1,14.2-13.6,2.7,9.4,2.7,18.9,0,28.3ZM159.2,156.6c0,0,0,.2-.2.3-.2.1-.2,0-.3,0l-9.5-5.8c3.5-1,6.9-2.7,9.9-4.6v10.1ZM141.3,145.6c-3.2,0-6.2-.8-9.1-2,3.6-11.5,3.6-23.1,0-34.7,2.9-1.2,6-2,9.1-2,13.7,0,25.7,14.2,29.7,19.3-3.9,5.2-15.9,19.3-29.7,19.3h0ZM178.5,129.7c6,.6,8.8,3.4,9.5,9.5-6.2-.6-8.8-3.5-9.5-9.5ZM178.5,122.9c.6-6,3.3-8.8,9.5-9.5-.6,6.2-3.5,8.9-9.5,9.5Z"/>
      <path class="st0" d="M123.2,127.4h.5c1.8,0,3.3-1.5,3.3-3.3s-1.5-3.3-3.3-3.3h-.5c-1.8,0-3.3,1.5-3.3,3.3s1.5,3.3,3.3,3.3Z"/>
      <path class="st0" d="M192,47v19.9c0,6.4-5.2,11.6-11.6,11.6h-60.7c-6.4,0-11.6-5.2-11.6-11.6v-19.9c0-6.4,5.2-11.6,11.6-11.6h10.7c1.8-7.6,9.8-13.2,19.7-13.2s17.8,5.6,19.7,13.2h10.7c6.4,0,11.6,5.2,11.6,11.6h0Z"/>
    </g>
  </g>
</svg>