<?xml version="1.0" encoding="UTF-8"?>
<svg id="Layer_1" xmlns="http://www.w3.org/2000/svg" xmlns:svgjs="http://svgjs.dev/svgjs" version="1.1" viewBox="0 0 300 300">
  <!-- Generator: Adobe Illustrator 29.1.0, SVG Export Plug-In . SVG Version: 2.1.0 Build 142)  -->
  <defs>
    <style>
      .st0 {
        fill: #0051b1;
      }
    </style>
  </defs>
  <path class="st0" d="M159.6,35.3c-.8-.8-2-1.3-3.2-1.3s-2.4.5-3.2,1.3c-.8.8-1.3,2-1.3,3.2s.5,2.4,1.3,3.2c.8.8,2,1.3,3.2,1.3s2.4-.5,3.2-1.3c.8-.8,1.3-2,1.3-3.2s-.5-2.4-1.3-3.2Z"/>
  <path class="st0" d="M233.6,33.9h-55.7c-2.5,0-4.5,2-4.5,4.5s2,4.5,4.5,4.5h55.7c12.9,0,23.4,10.5,23.4,23.4v101.5h-48.1v-17.4c.8,0,1.7,0,2.7,0,6.1,0,14.6-1.5,21.6-8.5,11.9-11.9,7.7-28.5,7.5-29.2-.4-1.6-1.6-2.8-3.2-3.2-.4-.1-6-1.5-12.9-.5,1.3-.8,2.5-1.8,3.7-3,10-10,6.5-23.9,6.3-24.4-.4-1.6-1.6-2.8-3.2-3.2-.4-.1-7.3-1.9-14.9.5.7-2,1.2-4.3,1.2-6.8,0-12.2-10.6-18.5-11-18.7-1.4-.8-3.1-.8-4.5,0-.4.3-11,6.5-11,18.7s.5,4.8,1.2,6.8c-7.6-2.4-14.5-.6-14.9-.5-1.6.4-2.8,1.6-3.2,3.2-.2.6-3.7,14.4,6.3,24.4,1.2,1.2,2.4,2.2,3.7,3-6.9-1-12.5.4-12.9.5-1.6.4-2.8,1.6-3.2,3.2-.2.7-4.4,17.2,7.5,29.2,7,7,15.6,8.5,21.6,8.5s1.8,0,2.6,0v17.4h-99.7v-17.4c.8,0,1.7,0,2.7,0,6.1,0,14.6-1.5,21.6-8.5,11.9-11.9,7.7-28.5,7.5-29.2-.4-1.6-1.6-2.8-3.2-3.2-.4-.1-6-1.5-12.9-.5,1.3-.8,2.5-1.8,3.7-3,10-10,6.5-23.9,6.3-24.4-.4-1.6-1.6-2.8-3.2-3.2-.4-.1-7.3-1.9-14.9.5.7-2,1.2-4.3,1.2-6.8,0-12.2-10.6-18.5-11-18.7-1.4-.8-3.1-.8-4.5,0-.4.3-11,6.5-11,18.7s.5,4.8,1.2,6.8c-7.6-2.4-14.5-.6-14.9-.5-1.6.4-2.8,1.6-3.2,3.2-.2.6-3.7,14.4,6.3,24.4,1.2,1.2,2.4,2.2,3.7,3-6.9-1-12.5.4-12.9.5-1.6.4-2.8,1.6-3.2,3.2-.2.7-4.4,17.2,7.5,29.2,7,7,15.6,8.5,21.6,8.5s1.8,0,2.6,0v17.4h-16.8c-2.5,0-4.5,2-4.5,4.5s2,4.5,4.5,4.5h15l-12.9,12.9c-1.8,1.8-1.8,4.6,0,6.4,1.8,1.8,4.6,1.8,6.4,0l8.2-8.2v5c0,2.5,2,4.5,4.5,4.5s4.5-2,4.5-4.5v-5l8.2,8.2c.9.9,2,1.3,3.2,1.3s2.3-.4,3.2-1.3c1.8-1.8,1.8-4.6,0-6.4l-12.9-12.9h96.1l-12.9,12.9c-1.8,1.8-1.8,4.6,0,6.4,1.8,1.8,4.6,1.8,6.4,0l8.2-8.2v5c0,2.5,2,4.5,4.5,4.5s4.5-2,4.5-4.5v-5l8.2,8.2c.9.9,2,1.3,3.2,1.3s2.3-.4,3.2-1.3c1.8-1.8,1.8-4.6,0-6.4l-12.9-12.9h46.3v80H43V66.4c0-12.9,10.5-23.4,23.4-23.4h69.6c2.5,0,4.5-2,4.5-4.5s-2-4.5-4.5-4.5h-69.6c-17.9,0-32.5,14.6-32.5,32.5v195.2c0,2.5,2,4.5,4.5,4.5h223.1c2.5,0,4.5-2,4.5-4.5V66.4c0-17.9-14.6-32.5-32.5-32.5ZM232.4,118.1c.4,4.1.2,11.8-5.6,17.7-5.9,5.9-13.6,6.1-17.7,5.7-.4-4.1-.2-11.9,5.7-17.7,5.9-5.9,13.6-6.1,17.6-5.6ZM213.4,91.3c4.2-4.2,9.6-4.6,12.9-4.4.2,3.3-.2,8.7-4.4,12.9-4.2,4.2-9.7,4.6-12.9,4.4-.2-3.3.2-8.8,4.4-12.9ZM208.9,113.3c.4,0,.8,0,1.3,0,1.1,0,2.2,0,3.4-.2-1.6,1-3.2,2.2-4.7,3.6v-3.4ZM123.6,118.1c.4,4.1.2,11.8-5.6,17.7-5.9,5.9-13.6,6.1-17.7,5.7-.4-4.1-.2-11.9,5.7-17.7,5.9-5.9,13.6-6.1,17.7-5.6ZM104.6,91.3c4.2-4.2,9.6-4.6,12.9-4.4.2,3.3-.2,8.7-4.4,12.9-4.2,4.2-9.7,4.6-12.9,4.4-.2-3.3.2-8.8,4.4-12.9ZM100.1,113.3c.4,0,.8,0,1.3,0,1.1,0,2.2,0,3.4-.2-1.6,1-3.2,2.2-4.7,3.6v-3.4ZM91.1,140c0,.5,0,1,0,1.4-4.1.4-11.9.2-17.7-5.7-5.9-5.9-6.1-13.6-5.6-17.6,4.1-.4,11.8-.2,17.7,5.6,4.4,4.4,5.6,9.8,5.8,14,0,0,0,2.3,0,2.3ZM86.4,113.1c1.2.1,2.4.2,3.4.2s.9,0,1.3,0v3.4c-1.5-1.4-3.1-2.6-4.7-3.6ZM91,104.2c-3.3.2-8.8-.2-13-4.4-4.2-4.2-4.6-9.6-4.4-12.9,3.3-.2,8.7.2,12.9,4.4,4.2,4.2,4.6,9.7,4.4,12.9ZM95.6,81.4c-1.9-1.8-4.2-4.9-4.2-9.1s2.3-7.3,4.2-9.1c1.9,1.8,4.2,4.9,4.2,9.1s-2.3,7.3-4.2,9.1ZM199.9,140c0,.5,0,1,0,1.4-4.1.4-11.9.2-17.7-5.7-5.9-5.9-6.1-13.6-5.6-17.6,4.1-.4,11.8-.2,17.7,5.6,4.4,4.4,5.6,9.8,5.8,14v2.3h0ZM195.1,113.1c1.2.1,2.4.2,3.4.2s.9,0,1.3,0v3.4c-1.5-1.4-3.1-2.6-4.7-3.6ZM199.8,104.2c-3.3.2-8.8-.2-13-4.4-4.2-4.2-4.6-9.6-4.4-12.9,3.3-.2,8.7.2,12.9,4.4,4.2,4.2,4.6,9.7,4.4,12.9ZM204.4,81.4c-1.9-1.8-4.2-4.9-4.2-9.1s2.3-7.3,4.2-9.1c1.9,1.8,4.2,4.9,4.2,9.1s-2.3,7.3-4.2,9.1Z"/>
  <path class="st0" d="M130.1,224.6c-.4-.7-9.3-17.1-26.1-17.1s-16.6,3.1-22.5,6.4c-4.3-5.9-11.1-9.5-18.6-9.5s-2.4.5-3.2,1.3c-.9.9-1.3,2-1.3,3.2,0,4.5,1.3,8.9,3.8,12.7,2.1,3.1,2.1,7.1,0,10.2-2.5,3.8-3.8,8.1-3.8,12.7,0,1.2.5,2.4,1.3,3.2.9.9,2,1.3,3.2,1.3,7.5,0,14.4-3.6,18.6-9.5,5.8,3.3,13.6,6.4,22.5,6.4,16.8,0,25.7-16.4,26.1-17.1.4-.7.5-1.4.5-2.2s-.2-1.5-.5-2.1ZM104,236.8c-8.8,0-16.6-4-21.5-7.4-1.1-.8-2.5-1-3.8-.6-1.3.4-2.4,1.3-2.9,2.6-1.4,3.3-3.9,5.8-7.1,7.3.3-.6.6-1.3,1-1.9,4.1-6.1,4.1-14.1,0-20.2-.4-.6-.7-1.2-1-1.9,3.1,1.4,5.7,4,7.1,7.3.5,1.3,1.6,2.2,2.9,2.6,1.3.4,2.7.2,3.8-.6,4.9-3.4,12.7-7.4,21.5-7.4s14.2,6.6,16.7,10.1c-2.5,3.5-8.4,10.1-16.7,10.1Z"/>
  <path class="st0" d="M217.2,224.6c-.4-.7-9.3-17.1-26.1-17.1s-16.6,3.1-22.5,6.4c-4.3-5.9-11.1-9.5-18.6-9.5s-2.4.5-3.2,1.3c-.9.9-1.3,2-1.3,3.2,0,4.5,1.3,8.9,3.8,12.7,2.1,3.1,2.1,7.1,0,10.2-2.5,3.8-3.8,8.1-3.8,12.7,0,1.2.5,2.4,1.3,3.2.9.9,2,1.3,3.2,1.3,7.5,0,14.4-3.6,18.6-9.5,5.8,3.3,13.6,6.4,22.5,6.4,16.8,0,25.7-16.4,26.1-17.1.4-.7.5-1.4.5-2.2s-.2-1.5-.5-2.1ZM191.1,236.8c-8.8,0-16.6-4-21.5-7.4-1.1-.8-2.5-1-3.8-.6-1.3.4-2.4,1.3-2.9,2.6-1.4,3.3-3.9,5.8-7.1,7.3.3-.6.6-1.3,1-1.9,4.1-6.1,4.1-14.1,0-20.2-.4-.6-.7-1.2-1-1.9,3.1,1.4,5.7,4,7.1,7.3.5,1.3,1.6,2.2,2.9,2.6,1.3.4,2.7.2,3.8-.6,4.9-3.4,12.7-7.4,21.5-7.4s14.2,6.6,16.7,10.1c-2.5,3.5-8.4,10.1-16.7,10.1Z"/>
  <path class="st0" d="M110.3,222.2h-.4c-2.5,0-4.5,2-4.5,4.5s2,4.5,4.5,4.5h.4c2.5,0,4.5-2,4.5-4.5s-2-4.5-4.5-4.5Z"/>
  <path class="st0" d="M198.5,222.2h-.4c-2.5,0-4.5,2-4.5,4.5s2,4.5,4.5,4.5h.4c2.5,0,4.5-2,4.5-4.5s-2-4.5-4.5-4.5Z"/>
  <path class="st0" d="M231.8,223.5c-.8-.8-2-1.3-3.2-1.3s-2.4.5-3.2,1.3c-.8.8-1.3,2-1.3,3.2s.5,2.4,1.3,3.2c.8.8,2,1.3,3.2,1.3s2.4-.5,3.2-1.3c.8-.8,1.3-2,1.3-3.2s-.5-2.4-1.3-3.2Z"/>
  <path class="st0" d="M249.5,209.2c-.8-.8-2-1.3-3.2-1.3s-2.4.5-3.2,1.3c-.8.8-1.3,2-1.3,3.2s.5,2.4,1.3,3.2c.8.8,2,1.3,3.2,1.3s2.4-.5,3.2-1.3c.8-.8,1.3-2,1.3-3.2s-.5-2.4-1.3-3.2Z"/>
  <path class="st0" d="M239.5,186.8c-.8-.8-2-1.3-3.2-1.3s-2.4.5-3.2,1.3c-.8.8-1.3,2-1.3,3.2s.5,2.4,1.3,3.2c.8.8,2,1.3,3.2,1.3s2.4-.5,3.2-1.3c.8-.8,1.3-2,1.3-3.2s-.5-2.4-1.3-3.2Z"/>
  <path class="st0" d="M135.5,201c-.8-.8-2-1.3-3.2-1.3s-2.4.5-3.2,1.3c-.8.8-1.3,2-1.3,3.2s.5,2.4,1.3,3.2c.8.8,2,1.3,3.2,1.3s2.4-.5,3.2-1.3c.8-.8,1.3-2,1.3-3.2s-.5-2.4-1.3-3.2Z"/>
  <path class="st0" d="M144.6,184.4c-.8-.8-2-1.3-3.2-1.3s-2.4.5-3.2,1.3-1.3,2-1.3,3.2.5,2.4,1.3,3.2c.8.8,2,1.3,3.2,1.3s2.4-.5,3.2-1.3c.8-.8,1.3-2,1.3-3.2s-.5-2.4-1.3-3.2Z"/>
  <path class="st0" d="M59.3,169.2c-.8-.8-2-1.3-3.2-1.3s-2.4.5-3.2,1.3-1.3,2-1.3,3.2.5,2.4,1.3,3.2c.8.8,2,1.3,3.2,1.3s2.4-.5,3.2-1.3c.8-.8,1.3-2,1.3-3.2s-.5-2.4-1.3-3.2Z"/>
</svg>