<?xml version="1.0" encoding="UTF-8"?>
<svg id="Layer_1" data-name="Layer 1" xmlns="http://www.w3.org/2000/svg" viewBox="0 0 300 300">
  <defs>
    <style>
      .cls-1 {
        fill: #0051b1;
      }
    </style>
  </defs>
  <g id="Layer_2" data-name="Layer 2">
    <path class="cls-1" d="M202.3711,74.06767h-104.74219c-6.56438.01931-11.88108,5.336-11.90039,11.90039v128.54297c.01931,6.56438,5.336,11.88108,11.90039,11.90039h104.74219c6.56438-.01931,11.88108-5.336,11.90039-11.90039V85.96806c-.01931-6.56438-5.336-11.88108-11.90039-11.90039ZM124.40625,203.84111c0,2.03224-1.64745,3.67969-3.67969,3.67969h-12.14063c-2.03224,0-3.67969-1.64745-3.67969-3.67969v-7.26562c0-2.03224,1.64745-3.67969,3.67969-3.67969h12.11718c2.03224,0,3.67969,1.64745,3.67969,3.67969l.02344,7.26562ZM124.40625,181.90361c0,2.03224-1.64745,3.67969-3.67969,3.67969h-12.14063c-2.03219.01298-3.69014-1.6239-3.70313-3.6561-.0001-.01566-.0001-.03135,0-.04703v-7.26562c0-2.03224,1.64745-3.67969,3.67969-3.67969h12.14063c2.03224,0,3.67969,1.64745,3.67969,3.67969l.02344,7.28906ZM124.40625,159.96611c0,2.03224-1.64745,3.67969-3.67969,3.67969h-12.14063c-2.03219.01295-3.69011-1.62397-3.70306-3.65617-.00004-.00783-.00007-.01568-.00007-.02351v-7.26562c0-2.03224,1.64745-3.67969,3.67969-3.67969h12.14063c2.03224,0,3.67969,1.64745,3.67969,3.67969l.02344,7.26562ZM124.40625,138.02861c0,2.03224-1.64745,3.67969-3.67969,3.67969h-12.14063c-2.03224,0-3.67969-1.64745-3.67969-3.67969v-7.26562c0-2.03224,1.64745-3.67969,3.67969-3.67969h12.11718c2.03224,0,3.67969,1.64745,3.67969,3.67969l.02344,7.26562ZM159.75001,203.84111c0,2.03224-1.64745,3.67969-3.67969,3.67969h-12.14063c-2.03224,0-3.67969-1.64745-3.67969-3.67969v-7.26562c0-2.03224,1.64745-3.67969,3.67969-3.67969h12.14062c2.03224,0,3.67969,1.64745,3.67969,3.67969l.00002,7.26562ZM159.75001,181.90361c0,2.03224-1.64745,3.67969-3.67969,3.67969h-12.14063c-2.03224,0-3.67969-1.64745-3.67969-3.67969v-7.26562c0-2.03224,1.64745-3.67969,3.67969-3.67969h12.14062c2.03224,0,3.67969,1.64745,3.67969,3.67969l.00002,7.26562ZM159.75001,159.96611c0,2.03224-1.64745,3.67969-3.67969,3.67969h-12.14063c-2.03224,0-3.67969-1.64745-3.67969-3.67969v-7.26562c0-2.03224,1.64745-3.67969,3.67969-3.67969h12.14062c2.03224,0,3.67969,1.64745,3.67969,3.67969l.00002,7.26562ZM159.75001,138.02861c0,2.03224-1.64745,3.67969-3.67969,3.67969h-12.14063c-2.03224,0-3.67969-1.64745-3.67969-3.67969v-7.26562c0-2.03224,1.64745-3.67969,3.67969-3.67969h12.14062c2.03224,0,3.67969,1.64745,3.67969,3.67969l.00002,7.26562ZM195.11719,203.84111c0,2.03224-1.64745,3.67969-3.67969,3.67969h-12.14063c-2.03224,0-3.67969-1.64745-3.67969-3.67969v-7.26562c-.00002-2.03224,1.64743-3.67969,3.67967-3.6797h12.14064c2.03224,0,3.67969,1.64745,3.67969,3.67969v7.26564ZM195.11719,181.88017c0,2.03224-1.64745,3.67969-3.67969,3.67969h-12.14063c-2.03224,0-3.67969-1.64745-3.67969-3.67969v-7.26562c0-2.03224,1.64745-3.67969,3.67969-3.67969h12.14063c2.03224,0,3.67969,1.64745,3.67969,3.67969v7.26562ZM195.11719,159.94267c0,2.03224-1.64745,3.67969-3.67969,3.67969h-12.14063c-2.03224,0-3.67969-1.64745-3.67969-3.67969v-7.24218c0-2.03224,1.64745-3.67969,3.67969-3.67969h12.14063c2.03224,0,3.67969,1.64745,3.67969,3.67969v7.24218ZM195.11719,138.00516c0,2.03224-1.64745,3.67969-3.67969,3.67969h-12.14063c-2.03224,0-3.67969-1.64745-3.67969-3.67969v-7.26562c0-2.03224,1.64745-3.67969,3.67969-3.67969h12.14063c2.03224,0,3.67969,1.64745,3.67969,3.67969v7.26562ZM200.00977,110.04423h-99.9961v-21.6914h99.97265l.02344,21.6914Z"/>
    <path class="cls-1" d="M150,16.64579c73.8012.04366,133.5935,59.90674,133.54983,133.70792-.03174,53.64933-32.14581,102.07831-81.55375,122.98543-67.98603,28.71664-146.37905-3.11748-175.0957-71.10352C-1.81626,134.2496,30.01787,55.85658,98.0039,27.13993c16.44883-6.96279,34.13433-10.53218,51.9961-10.49414M150,.23954C67.16016.23954,0,67.3997,0,150.23954s67.16016,150,150,150,150-67.16015,150-150S232.83985.23954,150,.23954Z"/>
  </g>
</svg>