<?xml version="1.0" encoding="UTF-8"?>
<svg id="Layer_1" data-name="Layer 1" xmlns="http://www.w3.org/2000/svg" viewBox="0 0 300 300">
  <defs>
    <style>
      .cls-1 {
        fill: #0051b1;
      }
    </style>
  </defs>
  <path class="cls-1" d="M256.4054,96.26369c-5.72283,0-8.33682-1.45647-11.64646-3.30068-3.87455-2.15864-8.69645-4.84512-17.5937-4.84512s-13.71915,2.68648-17.59329,4.84512c-3.30923,1.8438-5.92363,3.30068-11.64646,3.30068-5.72242,0-8.33641-1.45647-11.64564-3.30027-3.87455-2.15905-8.69645-4.84553-17.59289-4.84553s-13.71834,2.68689-17.59248,4.84553c-3.30923,1.8438-5.92281,3.30027-11.64523,3.30027-5.72202,0-8.3356-1.45647-11.64442-3.30027-2.87709-1.6035-6.27878-3.49699-11.48232-4.36574v-46.23189h-61.25397v208.26081h207.44623V96.2637h-6.10937ZM116.3225,101.10393c2.06618.60197,3.69371,1.50697,5.53507,2.53293,3.87414,2.15864,8.69564,4.84553,17.59207,4.84553s13.71834-2.68689,17.59248-4.84553c3.30923-1.8438,5.92281-3.30027,11.64483-3.30027,5.72242,0,8.33641,1.45647,11.64564,3.30027,3.87455,2.15904,8.69645,4.84553,17.59289,4.84553,8.89725,0,13.71915-2.68648,17.5937-4.84512,3.30923-1.8438,5.92363-3.30068,11.64646-3.30068s8.33723,1.45647,11.64646,3.30068c2.87791,1.6035,6.27878,3.49822,11.48395,4.36696v26.69501c-2.067-.60197-3.69493-1.50738-5.53711-2.53375-3.87455-2.15864-8.69645-4.84512-17.5937-4.84512s-13.71915,2.68648-17.59329,4.84512c-3.30923,1.8438-5.92363,3.30068-11.64646,3.30068-5.72242,0-8.33641-1.45647-11.64564-3.30027-3.87455-2.15904-8.69645-4.84553-17.59289-4.84553s-13.71834,2.68689-17.59248,4.84553c-3.30923,1.8438-5.92281,3.30027-11.64523,3.30027-5.72202,0-8.3356-1.45647-11.64442-3.30027-2.87709-1.6035-6.27878-3.49699-11.48232-4.36574v-26.69624ZM121.85756,142.83934c3.87414,2.15864,8.69564,4.84553,17.59207,4.84553s13.71834-2.68689,17.59248-4.84553c3.30923-1.8438,5.92281-3.30027,11.64483-3.30027,5.72242,0,8.33641,1.45647,11.64564,3.30027,3.87455,2.15904,8.69645,4.84553,17.59289,4.84553,8.89725,0,13.71915-2.68648,17.5937-4.84512,3.30923-1.8438,5.92363-3.30068,11.64646-3.30068s8.33723,1.45647,11.64646,3.30068c2.8775,1.6035,6.2796,3.49699,11.48395,4.36574v28.06147c-2.067-.60197-3.69493-1.50738-5.53711-2.53375-3.87455-2.15863-8.69645-4.84512-17.5937-4.84512s-13.71915,2.68649-17.59329,4.84512c-3.30923,1.8438-5.92363,3.30068-11.64646,3.30068-5.72242,0-8.33641-1.45646-11.64564-3.30027-3.87455-2.15904-8.69645-4.84553-17.59289-4.84553s-13.71834,2.6869-17.59248,4.84553c-3.30923,1.8438-5.92281,3.30027-11.64523,3.30027-5.72202,0-8.3356-1.45646-11.64442-3.30027-2.87709-1.60351-6.27878-3.49699-11.48232-4.36574v-28.06147c2.06618.60157,3.69371,1.50697,5.53507,2.53293h-.00001ZM104.1038,238.4079h-36.81657v-17.17419h13.98349v-12.2187h-13.98349v-15.23264h21.58637v-12.2187h-21.58637v-15.23264h13.98349v-12.2187h-13.98349v-15.23264h21.58637v-12.2187h-21.58637v-15.23264h13.98349v-12.2187h-13.98349v-15.23265h21.58637v-12.2187h-21.58637v-17.17379h36.81657v183.82339ZM116.3225,238.4079v-57.53418c2.06618.60197,3.69371,1.50698,5.53507,2.53293,3.87414,2.15863,8.69564,4.84553,17.59207,4.84553s13.71834-2.6869,17.59248-4.84553c3.30923-1.8438,5.92281-3.30027,11.64483-3.30027,5.72242,0,8.33641,1.45646,11.64564,3.30027,3.87455,2.15904,8.69645,4.84553,17.59289,4.84553,8.89725,0,13.71915-2.68649,17.5937-4.84512,3.30923-1.8438,5.92363-3.30068,11.64646-3.30068s8.33723,1.45646,11.64646,3.30068c2.8775,1.60351,6.2796,3.49699,11.48395,4.36574v50.63551H116.3225v-.00041Z"/>
</svg>