<?xml version="1.0" encoding="UTF-8"?>
<svg id="Layer_1" data-name="Layer 1" xmlns="http://www.w3.org/2000/svg" viewBox="0 0 300 300">
  <defs>
    <style>
      .cls-1 {
        fill: #0051b1;
      }
    </style>
  </defs>
  <path class="cls-1" d="M159.55303,35.25386c-.84291-.84381-2.01271-1.32851-3.2052-1.32851s-2.3623.4847-3.20566,1.32851c-.84335.84381-1.32851,2.01317-1.32851,3.20566s.4847,2.3623,1.32851,3.2052c.84336.84381,2.01317,1.32896,3.20566,1.32896s2.3623-.48516,3.2052-1.32896c.8438-.8429,1.32896-2.01272,1.32896-3.2052s-.48516-2.3623-1.32896-3.20566Z"/>
  <path class="cls-1" d="M233.61546,33.92534h-55.66595c-2.50377,0-4.53417,2.0304-4.53417,4.53417s2.0304,4.53417,4.53417,4.53417h55.66595c12.89744,0,23.39086,10.49342,23.39086,23.39086v101.52542h-48.0871v-17.40168c.81479.05849,1.70394.09703,2.66065.09703,6.0572,0,14.63266-1.49129,21.60803-8.46665,11.94299-11.94299,7.71306-28.46323,7.52718-29.16058-.41805-1.56973-1.64364-2.79531-3.21337-3.21337-.3981-.107-5.97059-1.53028-12.90061-.50239,1.27637-.83973,2.52689-1.83951,3.72119-3.03381,10.0196-10.01915,6.47479-23.86286,6.31927-24.44732-.41805-1.56927-1.64364-2.79486-3.21291-3.21336-.41034-.10882-7.34309-1.87896-14.9038.52687.71957-2.01816,1.17526-4.28343,1.17526-6.8017,0-12.19373-10.56778-18.45315-11.01758-18.71341-1.40559-.81388-3.13946-.81388-4.5446,0-.44979.26026-11.01758,6.52013-11.01758,18.71341,0,2.5219.45704,4.79035,1.17843,6.81077-7.57161-2.41943-14.52112-.64521-14.93238-.53594-1.56927.4185-2.79486,1.64454-3.21337,3.21382-.15552.58445-3.69942,14.42772,6.31972,24.44686,1.1943,1.1943,2.44482,2.19409,3.72073,3.03336-6.92956-1.02745-12.50206.39538-12.90015.50239-1.56973.41851-2.79532,1.64454-3.21382,3.21382-.18545.69735-4.41492,17.21804,7.52807,29.16058,6.97582,6.97627,15.55083,8.46665,21.60848,8.46665.94674,0,1.82727-.03764,2.63571-.09521v17.39986h-99.72762v-17.40168c.81479.05849,1.70394.09703,2.66065.09703,6.05719,0,14.63266-1.49129,21.60802-8.46665,11.94299-11.94299,7.71352-28.46323,7.52807-29.16058-.41851-1.56927-1.64409-2.79531-3.21382-3.21382-.39855-.1061-5.9715-1.52937-12.90197-.50148,1.27682-.83973,2.5278-1.83951,3.72255-3.03426,10.01915-10.01915,6.47479-23.86241,6.31972-24.44686-.41851-1.56927-1.64409-2.79531-3.21337-3.21382-.40989-.10882-7.34354-1.87896-14.90472.52732.71957-2.01816,1.17525-4.28388,1.17525-6.80216,0-12.19373-10.56778-18.45315-11.01757-18.71341-1.40559-.81388-3.13945-.81388-4.54459,0-.44979.26026-11.01757,6.52013-11.01757,18.71341,0,2.5219.45705,4.79035,1.17843,6.81077-7.57115-2.41898-14.52112-.64521-14.93192-.53594-1.56927.4185-2.79486,1.64409-3.21291,3.21336-.15598.58445-3.70033,14.42817,6.31927,24.44732,1.1943,1.1943,2.44437,2.19409,3.72074,3.03336-6.92956-1.02789-12.50206.39583-12.90016.50284-1.56973.41805-2.79531,1.64364-3.21336,3.21337-.1859.69735-4.41582,17.21804,7.52717,29.16058,6.97582,6.97627,15.55083,8.46665,21.60847,8.46665.94673,0,1.82727-.03764,2.63571-.09521v17.39986h-16.77686c-2.50377,0-4.53417,2.0304-4.53417,4.53417s2.0304,4.53417,4.53417,4.53417h14.97317l-12.85118,12.85164c-1.77059,1.77059-1.77059,4.64163,0,6.41267,1.77104,1.77013,4.64117,1.77013,6.41267,0l8.24175-8.24265v5.0361c0,2.50377,2.0304,4.53417,4.53417,4.53417s4.53417-2.0304,4.53417-4.53417v-5.0361l8.2422,8.24221c.88552.88507,2.04581,1.32805,3.20611,1.32805s2.32058-.44298,3.20611-1.32805c1.77059-1.77059,1.77059-4.64163,0-6.41267l-12.85118-12.8512h96.11979l-12.85164,12.85164c-1.77059,1.77059-1.77059,4.64163,0,6.41267,1.77105,1.77013,4.64117,1.77013,6.41267,0l8.24265-8.24267v5.0361c0,2.50377,2.0304,4.53417,4.53417,4.53417s4.53417-2.0304,4.53417-4.53417v-5.0361l8.24221,8.24221c.88552.88507,2.04581,1.32805,3.20612,1.32805s2.32059-.44298,3.20612-1.32805c1.77059-1.77059,1.77059-4.64163,0-6.41267l-12.85075-12.85118h46.28341v80.02803H42.99368V66.38453c0-12.89743,10.49342-23.39086,23.39086-23.39086h69.55955c2.50377,0,4.53417-2.0304,4.53417-4.53417s-2.0304-4.53417-4.53417-4.53417h-69.55955c-17.89817,0-32.45919,14.56102-32.45919,32.45919v195.15596c0,2.50377,2.0304,4.53417,4.53417,4.53417h223.08098c2.50377,0,4.53417-2.0304,4.53417-4.53417V66.38453c0-17.89817-14.56103-32.45919-32.45919-32.45919ZM232.40166,118.07221c.4117,4.05763.24077,11.78747-5.62599,17.65423-5.87492,5.87583-13.61429,6.10525-17.72949,5.71215-.38449-4.10387-.15689-11.87136,5.7067-17.73403,5.88036-5.88127,13.58708-6.05221,17.64878-5.63235ZM213.39309,91.29978c4.1941-4.1932,9.63375-4.59311,12.88836-4.3732.22263,3.26279-.18091,8.6997-4.37184,12.88972-4.18912,4.18957-9.65233,4.63482-12.94868,4.43214-.19995-3.29724.24304-8.75956,4.43216-12.94867ZM208.91923,113.30545c.41034.01678.83882.02675,1.28362.02675,1.06508,0,2.22446-.05622,3.4437-.19724-1.61643.97757-3.20475,2.16824-4.72732,3.60829v-3.43781ZM123.61115,118.07267c.41986,4.0676.24938,11.77387-5.63053,17.65378-5.87446,5.87492-13.61338,6.1039-17.7295,5.71215-.38404-4.10387-.15643-11.87136,5.70716-17.73403,5.88263-5.88308,13.59343-6.0513,17.65287-5.63189ZM104.59804,91.29978c4.19501-4.19501,9.64054-4.59493,12.89063-4.37275.22127,3.25145-.17955,8.69562-4.37365,12.88927-4.19002,4.18957-9.6546,4.63482-12.94913,4.43214-.1995-3.2977.24304-8.75956,4.43215-12.94867ZM100.12417,113.30545c.41034.01678.83882.02675,1.28362.02675,1.06553,0,2.22446-.05622,3.44461-.19769-1.61734.97802-3.20566,2.16869-4.72823,3.6092v-3.43826ZM91.05629,140.02393c-.02222.50692-.05577.98164-.09703,1.41375-4.11385.39311-11.8582.1655-17.73494-5.71169-5.88127-5.88081-6.05039-13.58844-5.63189-17.64834,4.05808-.4108,11.78747-.24077,17.65468,5.626,4.39043,4.39043,5.6269,9.82191,5.80917,14.00105,0,0,0,2.31923,0,2.31923ZM86.35345,113.13541c1.21924.14056,2.37862.19679,3.4437.19679.43619,0,.85605-.00952,1.25868-.02585v3.41378c-1.51487-1.42962-3.09457-2.61259-4.70238-3.58471ZM91.03997,104.24845c-3.29362.1995-8.76001-.24212-12.95003-4.43214-4.1932-4.1932-4.59493-9.63374-4.37321-12.88837,3.2646-.22263,8.70016.18137,12.88973,4.37184,4.19229,4.19184,4.63302,9.65868,4.43351,12.94867ZM95.62582,81.42255c-1.87986-1.8241-4.23264-4.9436-4.23264-9.12954,0-4.2272,2.34689-7.2991,4.2204-9.07786,1.87941,1.78329,4.22267,4.85383,4.22267,9.07785,0,4.21542-2.32784,7.31362-4.21043,9.12955ZM199.85135,140.02075c-.02222.50828-.05576.98391-.09703,1.41693-4.11702.39311-11.8582.1655-17.73493-5.71169-5.88127-5.88081-6.05085-13.58844-5.63234-17.64834,4.05808-.4108,11.78792-.24077,17.65469,5.626,4.3918,4.3918,5.6278,9.82509,5.80962,14.00468v2.31243h-.00001ZM195.14805,113.13496c1.21969.14101,2.37908.19724,3.44416.19724.43619,0,.85605-.00952,1.25868-.02585v3.41378c-1.51487-1.43008-3.09457-2.61304-4.70284-3.58516ZM199.83502,104.2489c-3.29679.20313-8.76001-.24212-12.95049-4.43214-4.19319-4.19456-4.59447-9.63601-4.37276-12.89018,3.25463-.22308,8.69698.17955,12.88973,4.37365,4.19185,4.19183,4.63302,9.65868,4.43351,12.94867ZM204.42087,81.42255c-1.87986-1.8241-4.23264-4.9436-4.23264-9.12954,0-4.2272,2.34688-7.2991,4.22041-9.07786,1.87941,1.78329,4.22266,4.85383,4.22266,9.07785,0,4.21542-2.32784,7.31362-4.21043,9.12955Z"/>
  <path class="cls-1" d="M130.14081,224.56119c-.37225-.69645-9.31227-17.05074-26.0964-17.05074-8.84208,0-16.63631,3.0651-22.47269,6.37277-4.26891-5.87763-11.13908-9.47322-18.62771-9.47322-1.20246,0-2.35595.47789-3.20611,1.32851-.85061.85016-1.32806,2.00365-1.32806,3.20612.00045,4.51965,1.314,8.89468,3.79963,12.65259,2.05262,3.10454,2.05262,7.11638-.00045,10.22091-2.48472,3.75791-3.79873,8.13338-3.79918,12.65259,0,1.20246.47745,2.35596,1.32806,3.20612.85016.85061,2.00365,1.32851,3.20611,1.32851,7.48863,0,14.35925-3.59559,18.62726-9.47324,5.83638,3.30768,13.63107,6.37277,22.47269,6.37277,16.78458,0,25.72414-16.35383,26.09685-17.05028.3514-.65746.53594-1.40876.53594-2.15509s-.18409-1.48085-.53594-2.13831ZM104.04441,236.83699c-8.83573,0-16.57691-4.01501-21.51417-7.38389-1.12266-.76582-2.52825-.98755-3.83364-.60486-1.30357.38314-2.36684,1.33123-2.89688,2.58221-1.3929,3.28908-3.94336,5.83728-7.06287,7.25558.29517-.6443.64158-1.2682,1.03651-1.8658,4.06216-6.14289,4.06216-14.08176.00045-20.2242-.39538-.5976-.74179-1.22105-1.03696-1.8658,3.11951,1.41828,5.66997,3.96648,7.06287,7.25602.53004,1.25143,1.59331,2.19907,2.89733,2.58175,1.30357.38268,2.71098.16051,3.83319-.60486,4.93771-3.36843,12.67843-7.38389,21.51416-7.38389,8.34151,0,14.19693,6.61716,16.71566,10.12843-2.52416,3.5176-8.37777,10.12933-16.71565,10.12933Z"/>
  <path class="cls-1" d="M217.19679,224.56164c-.37226-.69645-9.31227-17.05074-26.09685-17.05074-8.84208,0-16.63631,3.0651-22.47268,6.37277-4.26846-5.87809-11.13864-9.47368-18.62726-9.47368-1.20246,0-2.35595.47789-3.20611,1.32851-.85061.85016-1.32806,2.00365-1.32806,3.20612.00046,4.51965,1.314,8.89468,3.79963,12.65259,2.05262,3.10454,2.05262,7.11638-.00046,10.22091-2.48518,3.75791-3.79873,8.13338-3.79918,12.65305,0,1.20246.47744,2.35596,1.32806,3.20612.85016.85061,2.00365,1.32851,3.20611,1.32851,7.48862,0,14.35925-3.59559,18.62726-9.47324,5.83638,3.30768,13.63106,6.37277,22.47268,6.37277,16.78458,0,25.72414-16.35383,26.09685-17.05028.3514-.65746.53594-1.40876.53594-2.15509s-.18409-1.48085-.53594-2.13831ZM191.1004,236.83699c-8.83573,0-16.57691-4.01501-21.51417-7.38389-1.12267-.76582-2.52825-.98755-3.83363-.60486-1.30357.38314-2.36684,1.33123-2.89688,2.58221-1.39289,3.28908-3.94336,5.83728-7.06287,7.25558.29517-.6443.64159-1.2682,1.03652-1.8658,4.06215-6.14289,4.06215-14.08176.00046-20.22465-.39538-.5976-.74178-1.22105-1.03696-1.8658,3.11951,1.41828,5.66998,3.96648,7.06287,7.25602.53005,1.25143,1.59331,2.19907,2.89734,2.58175,1.30357.38268,2.71098.16051,3.83319-.60486,4.93771-3.36843,12.67844-7.38389,21.51417-7.38389,8.34151,0,14.19693,6.61716,16.71566,10.12843-2.52374,3.51806-8.3778,10.12978-16.71568,10.12978Z"/>
  <path class="cls-1" d="M110.25032,222.17396h-.36545c-2.50377,0-4.53417,2.0304-4.53417,4.53417s2.0304,4.53417,4.53417,4.53417h.36545c2.50377,0,4.53417-2.0304,4.53417-4.53417s-2.0304-4.53417-4.53417-4.53417Z"/>
  <path class="cls-1" d="M198.51558,222.17396h-.36545c-2.50377,0-4.53417,2.0304-4.53417,4.53417s2.0304,4.53417,4.53417,4.53417h.36545c2.50377,0,4.53417-2.0304,4.53417-4.53417s-2.0304-4.53417-4.53417-4.53417Z"/>
  <path class="cls-1" d="M231.7959,223.50292c-.84291-.84743-2.01271-1.32851-3.2052-1.32851s-2.3623.48108-3.20566,1.32851c-.84335.84335-1.32851,2.01317-1.32851,3.20566s.4847,2.3623,1.32851,3.20566c.84335.84291,2.01317,1.32851,3.20566,1.32851s2.3623-.48516,3.2052-1.32851c.84789-.84335,1.32896-2.01317,1.32896-3.20566s-.48106-2.36231-1.32896-3.20566Z"/>
  <path class="cls-1" d="M249.47915,209.21621c-.84291-.84789-2.01271-1.32851-3.2052-1.32851s-2.3623.48062-3.20566,1.32851c-.84335.84335-1.32851,2.00909-1.32851,3.20566,0,1.19249.4847,2.3623,1.32851,3.20566.84335.84291,2.01317,1.32851,3.20566,1.32851s2.3623-.48516,3.2052-1.32851c.84789-.84335,1.32896-2.01317,1.32896-3.20566s-.48106-2.36231-1.32896-3.20566Z"/>
  <path class="cls-1" d="M239.50398,186.84464c-.84291-.84335-2.00863-1.32851-3.2052-1.32851-1.19249,0-2.3623.4847-3.20566,1.32851-.84335.8438-1.32851,2.01317-1.32851,3.20566,0,1.19703.4847,2.3623,1.32851,3.2052.84335.84834,2.01317,1.32896,3.20566,1.32896s2.3623-.48108,3.2052-1.32896c.84789-.84291,1.32896-2.01271,1.32896-3.2052s-.48106-2.36231-1.32896-3.20566Z"/>
  <path class="cls-1" d="M135.52195,200.97763c-.8429-.84335-2.01271-1.32851-3.2052-1.32851s-2.3623.4847-3.20566,1.32851-1.32851,2.00863-1.32851,3.20566c0,1.19249.4847,2.3623,1.32851,3.2052.84336.84335,2.01317,1.32896,3.20566,1.32896s2.3623-.48516,3.2052-1.32896c.84336-.84291,1.32896-2.01271,1.32896-3.2052s-.48516-2.3623-1.32896-3.20566Z"/>
  <path class="cls-1" d="M144.59029,184.42792c-.8429-.8438-2.01271-1.32851-3.2052-1.32851s-2.3623.4847-3.20566,1.32851-1.32851,2.01317-1.32851,3.20566.4847,2.3623,1.32851,3.2052c.84336.84335,2.01317,1.32896,3.20566,1.32896s2.3623-.48516,3.2052-1.32896c.8438-.84291,1.32896-2.01271,1.32896-3.2052s-.48516-2.3623-1.32896-3.20566Z"/>
  <path class="cls-1" d="M59.34796,169.23846c-.8429-.8438-2.01272-1.32851-3.2052-1.32851s-2.3623.4847-3.20566,1.32851-1.32851,2.01317-1.32851,3.20566.4847,2.3623,1.32851,3.2052c.84336.84335,2.01317,1.32896,3.20566,1.32896s2.3623-.48516,3.2052-1.32896c.84381-.84291,1.32896-2.01271,1.32896-3.2052s-.48516-2.3623-1.32896-3.20566Z"/>
</svg>