<?xml version="1.0" encoding="UTF-8"?>
<svg id="Layer_1" xmlns="http://www.w3.org/2000/svg" xmlns:svgjs="http://svgjs.dev/svgjs" version="1.1" viewBox="0 0 300 300">
  <!-- Generator: Adobe Illustrator 29.1.0, SVG Export Plug-In . SVG Version: 2.1.0 Build 142)  -->
  <defs>
    <style>
      .st0 {
        fill: #0051b1;
      }
    </style>
  </defs>
  <g id="_x38_4x84">
    <g>
      <path class="st0" d="M165.1,187.8c-3.4-.2-14-6.4-20.3-10.7-.6-.4-1.3-.6-2-.6-.3,0-33.8,2.1-51.6.8-9.6-.7-19.1-2.4-28.7-4.3,4.2-3.6,10.6-9.8,12.3-16.4,1.8-7.2-2.8-14.5-5.7-18.3,14.6-4.5,31.2-9.5,54.4-9.8.9,0,1.7-.4,2.3-1,10.1-10.4,23.9-20.4,27.6-18,0,0,.1,0,.2.1-5.7,3.7-12.2,12.1-14.6,15.4-1.1-.1-1.7-.2-1.7-.2l-.9,6.4s30.9,4.3,38.6,5.4c2.8.4,7.6.8,12.6,1.2,8.2.7,19.5,1.6,22.4,2.7.4.1.7.2,1.1.2s.8,0,1.1-.2c4-1.5,11.3-4,13.6-4.4,1.8-.3,3-1.9,2.7-3.7-.3-1.8-1.9-3-3.7-2.7-3.2.5-10.9,3.3-13.8,4.3-4-1.1-12.2-1.8-22.9-2.7-4.9-.4-9.6-.8-12.2-1.2-3.1-.4-9.7-1.3-16.6-2.3,2.8-3,5.5-5.4,6.9-6.1,1.4,1.7,2.2,2.9,2.3,3,1,1.5,3,1.8,4.5.8,1.5-1,1.8-3,.8-4.5-.3-.5-8-11.3-17-17-9.5-6-28,11.2-34.7,18-23.9.6-40.8,5.7-55.7,10.3-6.2,1.9-12,3.7-17.9,5-20.9,4.7-34.5,15.2-35.1,15.6-1.1.8-1.5,2.2-1.1,3.5.4,1.3,1.5,2.2,2.9,2.3,2.6.2,14.2,4.1,21.6,6.8.4.1.7.2,1.1.2,1.3,0,2.5-.8,3-2.1.6-1.7-.2-3.5-1.9-4.1-2-.7-9.5-3.5-15.7-5.3,2.5-1.5,5.8-3.2,9.7-4.9.5,2.1,2.4,3.6,4.7,3.6s4.8-2.2,4.8-4.8-.2-1.5-.6-2.2c2.5-.8,5.1-1.5,7.9-2.2,4.2-.9,8.3-2.1,12.5-3.4,1.1,1.2,7.7,8.6,6.2,14.7-1.5,6.1-10.2,13.3-13.5,15.6-.3.2-.6.5-.8.9-1.2-.2-2.4-.4-3.7-.6-7.3-1.1-14.9-2.3-21.4-4.9-1.6-.6-3-1-4.2-1.4-2.1-.6-3.6-1-5.5-2.5-1.4-1.1-3.4-.8-4.5.6-1.1,1.4-.8,3.4.6,4.5,2.9,2.2,5.3,2.9,7.7,3.5,1.1.3,2.2.6,3.6,1.2,7.2,2.8,15.1,4.1,22.8,5.3,3.2.5,6.4,1,9.5,1.6,10.6,2.1,20.9,4.1,31.6,4.8,16.6,1.2,45.3-.4,51.4-.7,4.2,2.8,16.8,10.9,22.7,11.2,0,0,0,0,.1,0,1.7,0,3.1-1.3,3.2-3.1,0-1.8-1.3-3.3-3.1-3.4ZM151.7,126.8c-1.9-.3-3.7-.5-5.3-.7,4.6-5.8,10.1-11.4,12.3-11.8.2,0,.3-.1.5-.2,1,.9,2,1.9,2.9,2.8-2.9,1.9-6.3,5.2-10.3,9.9Z"/>
      <path class="st0" d="M283.4,180.3c-3.8-.1-15.7-5.6-25.3-10-15.2-6.9-20.7-9.3-23.7-8.4-6.7,1.9-28,9.7-28.9,10-1.7.6-2.5,2.5-1.9,4.1.6,1.7,2.5,2.5,4.1,1.9,0,0,.9-.3,2.2-.8,2.5,2.3,10.2,9.2,15.5,11.7-.5.6-1,1.1-1.6,1.6-2.8,2.4-15.9-5.4-27.6-16.3-.8-.7-1.8-1-2.8-.8-4.2.8-25.4,1.6-33.3,1.8-1.8,0-3.2,1.5-3.1,3.3,0,1.8,1.4,3.2,3.3,3.1,2.7,0,24.9-.7,32.7-1.7,6,5.5,20.1,17.3,29.6,17.3,2.1,0,3.9-.6,5.5-1.9,8.6-7.4,8.1-18.8,8.1-19.2,0-1.8-1.6-3.1-3.4-3-1.8,0-3.1,1.6-3,3.4,0,0,.1,3.2-1.1,6.8-2.4-.9-7.5-4.9-11.8-8.6,6.7-2.4,15.2-5.4,19.1-6.5,2.5.2,12.3,4.7,19.5,8,13.7,6.3,23,10.4,27.7,10.5,0,0,0,0,.1,0,1.7,0,3.2-1.4,3.2-3.1,0-1.8-1.3-3.3-3.1-3.3h0Z"/>
      <path class="st0" d="M286.4,160l-.5-2.6c-.7-3.6-.5-7.3-.3-11.1.1-2.7.2-5.6,0-8.5-.2-3.9-.6-7.9-1-11.8-.1-1-.7-1.9-1.6-2.4-.9-.5-1.9-.6-2.9-.2-.2,0-22.8,9.6-34.3,13.3-10.7,3.4-19.3,1.6-19.5,1.5-1.7-.4-3.5.7-3.8,2.4-.4,1.7.7,3.5,2.4,3.9.4,0,10.4,2.3,22.9-1.7,8.9-2.8,23.8-8.9,30.9-11.8.2,1.7.3,3.5.4,5.2-.2.1-.4.2-.6.4-1.7,1.3-12.7,4.7-22,7-1.7.4-2.8,2.2-2.3,3.9.4,1.5,1.7,2.4,3.1,2.4s.5,0,.8-.1c6.2-1.6,15.7-4.2,21.2-6.5,0,.9,0,1.7,0,2.6,0,1.6-.1,3.2-.1,4.9-5.7.3-15.5,1.5-17.8,1.8-1.8.2-3,1.8-2.8,3.6.2,1.6,1.6,2.8,3.2,2.8s.3,0,.4,0c5.1-.6,13.1-1.5,17.4-1.8,0,.4,0,.8.2,1.3l.5,2.7c.2,1,.4,1.9.5,2.9-5.4-1.3-14.3-1.4-19.9-1.3-1.8,0-3.2,1.5-3.2,3.3,0,1.8,1.5,3.2,3.2,3.2h0c8.1-.1,18,.5,19.8,1.5.3.2.6.4.9.5,0,.8,0,1.6,0,2.3-.1,1.8,1.2,3.3,3,3.5,0,0,.2,0,.2,0,1.7,0,3.1-1.3,3.2-3,.4-4.6-.6-9.7-1.5-14.1h0Z"/>
      <path class="st0" d="M90.7,166.8c-1.7.6-2.5,2.4-1.9,4.1.5,1.3,1.7,2.1,3,2.1s.7,0,1.1-.2c5.4-1.9,10.7-6.6,12.5-11.2,1.1-2.8.6-4.7,0-5.9-1.2-2.4-3-6.1-30,7.1-1.6.8-2.3,2.7-1.5,4.3.8,1.6,2.7,2.3,4.3,1.5,7.4-3.6,16.4-7.4,20.7-8.5-1.3,2.1-4.3,5.2-8.2,6.6Z"/>
      <circle class="st0" cx="81.2" cy="142.1" r="3.2"/>
      <circle class="st0" cx="59.2" cy="154.9" r="3.2"/>
      <circle class="st0" cx="106.2" cy="148.2" r="3.2"/>
      <circle class="st0" cx="120.2" cy="151.3" r="3.2"/>
      <circle class="st0" cx="126.4" cy="138.4" r="3.2"/>
      <circle class="st0" cx="131.9" cy="150.8" r="3.2"/>
      <circle class="st0" cx="142" cy="143.3" r="3.2"/>
      <circle class="st0" cx="147.4" cy="157.1" r="3.2"/>
      <circle class="st0" cx="152.6" cy="140.8" r="3.2"/>
      <circle class="st0" cx="158.6" cy="150.4" r="3.2"/>
      <circle class="st0" cx="170.9" cy="145.2" r="3.2"/>
      <circle class="st0" cx="176.5" cy="156.3" r="3.2"/>
      <circle class="st0" cx="185.4" cy="146.2" r="3.2"/>
      <circle class="st0" cx="193.4" cy="156.7" r="3.2" transform="translate(7.7 322.5) rotate(-80.8)"/>
      <circle class="st0" cx="202.7" cy="148.6" r="3.2"/>
      <circle class="st0" cx="217" cy="150.2" r="3.2"/>
      <circle class="st0" cx="231.2" cy="151.6" r="3.2"/>
      <circle class="st0" cx="98.1" cy="138" r="3.2"/>
      <circle class="st0" cx="112.3" cy="138.3" r="3.2"/>
      <circle class="st0" cx="91.5" cy="147.6" r="3.2"/>
    </g>
  </g>
</svg>