<?xml version="1.0" encoding="UTF-8"?>
<svg id="Layer_1" xmlns="http://www.w3.org/2000/svg" xmlns:svgjs="http://svgjs.dev/svgjs" version="1.1" viewBox="0 0 300 300">
  <!-- Generator: Adobe Illustrator 29.1.0, SVG Export Plug-In . SVG Version: 2.1.0 Build 142)  -->
  <defs>
    <style>
      .st0 {
        fill: #0051b1;
      }
    </style>
  </defs>
  <path class="st0" d="M276.7,169.8l-122.7-122.7c-9.2-9.2-24.1-9.2-33.3,0l-10.7,10.7c-14-2.5-28.5,1-39.9,9.5l-24.4-24.4c-2.9-2.9-7.5-2.9-10.4,0-2.9,2.9-2.9,7.5,0,10.4l24.4,24.4c-8.5,11.4-12,25.9-9.5,39.9l-10.7,10.7c-9.2,9.2-9.2,24.1,0,33.3l122.7,122.7c9.2,9.2,24.1,9.2,33.3,0l81.1-81.1c9.2-9.2,9.2-24.1,0-33.3ZM266.3,192.7l-81.1,81.1c-3.4,3.4-9,3.4-12.5,0l-122.7-122.7c-3.4-3.4-3.4-9,0-12.5l13.5-13.5c1.9-1.9,2.6-4.6,1.9-7.1-2.7-10.3-.9-21.1,4.9-29.8l10.8,10.8c-1.4,2.9-2.1,6.2-2.1,9.5,0,19.7,23.9,29.4,37.7,15.6,8.6-8.6,8.6-22.6,0-31.2-6.8-6.8-17-8.2-25.1-4.3l-10.8-10.8c8.6-5.7,19.5-7.6,29.8-4.9,2.5.7,5.2,0,7.1-1.9l13.5-13.5c3.4-3.4,9-3.4,12.5,0l122.7,122.7c3.4,3.4,3.4,9,0,12.5ZM106.1,103.2c2.9,2.9,2.9,7.5,0,10.4s-7.5,2.9-10.4,0c-2.9-2.9-2.9-7.5,0-10.4s7.5-2.9,10.4,0Z"/>
  <path class="st0" d="M121.7,160.5c-2.9-2.9-7.5-2.9-10.4,0s-2.9,7.5,0,10.4l62.4,62.4c2.9,2.9,7.5,2.9,10.4,0,2.9-2.9,2.9-7.5,0-10.4l-62.4-62.4Z"/>
  <path class="st0" d="M142.5,139.7c-2.9-2.9-7.5-2.9-10.4,0-2.9,2.9-2.9,7.5,0,10.4l62.4,62.4c2.9,2.9,7.5,2.9,10.4,0s2.9-7.5,0-10.4l-62.4-62.4Z"/>
  <path class="st0" d="M163.3,118.9c-2.9-2.9-7.5-2.9-10.4,0-2.9,2.9-2.9,7.5,0,10.4l62.4,62.4c2.9,2.9,7.5,2.9,10.4,0,2.9-2.9,2.9-7.5,0-10.4l-62.4-62.4Z"/>
</svg>