<?xml version="1.0" encoding="UTF-8"?>
<svg id="Layer_1" data-name="Layer 1" xmlns="http://www.w3.org/2000/svg" viewBox="0 0 300 300">
  <defs>
    <style>
      .cls-1 {
        fill: #0051b1;
      }
    </style>
  </defs>
  <g id="Layer_25" data-name="Layer 25">
    <path class="cls-1" d="M277.08338,150c-.00696-6.37768-5.17535-11.54607-11.55303-11.55303h-50.06313V53.72475h11.55303c14.88052-.018,26.93907-12.07655,26.95707-26.95707.00122-2.12564-1.72097-3.8498-3.84662-3.85101-.00147,0-.00292,0-.00439,0h-15.40404c-14.8805.01804-26.93903,12.07657-26.95707,26.95707v33.48549c-7.90992-11.32218-20.84755-18.07167-34.65909-18.08145h-23.10606c-2.12629-.00055-3.85045,1.72271-3.85101,3.84901v.002c.02643,23.38444,18.97667,42.33469,42.36111,42.36111h19.25505v26.95707h-115.5303V53.72475h11.55303c14.88078-.01736,26.93971-12.07629,26.95707-26.95707.00055-2.1263-1.7227-3.85046-3.849-3.85101h-15.40605c-14.88078.01736-26.93971,12.07629-26.95707,26.95707v33.48549c-7.90992-11.32218-20.84755-18.07167-34.65909-18.08145h-23.10606c-2.1263-.00055-3.85046,1.72271-3.85101,3.84901v.002c.02642,23.38444,18.97667,42.33469,42.36111,42.36111h19.25505v26.95707h-50.06313c-6.36466-.01594-11.53715,5.13071-11.55309,11.49536-.01228,4.90188,3.07765,9.27509,7.70208,10.90085v96.98511c.01248,10.62909,8.62595,19.24256,19.25505,19.25505h200.25252c10.62909-.01249,19.24256-8.62596,19.25505-19.25505v-96.98489c4.60266-1.62124,7.68701-5.96357,7.70202-10.84341h0ZM234.72227,30.61869h11.16566c-1.84165,8.9586-9.72175,15.3921-18.86768,15.40404h-11.16566c1.84165-8.9586,9.72175-15.3921,18.86768-15.40404ZM188.51015,103.78788c-17.64345-.02106-32.4633-13.27623-34.44474-30.80808h19.0407c17.64345.02106,32.4633,13.27623,34.44474,30.80808h-19.0407ZM111.48995,30.61869h11.16566c-1.84165,8.9586-9.72175,15.3921-18.86768,15.40404h-11.16566c1.84165-8.9586,9.72175-15.3921,18.86768-15.40404ZM65.27783,103.78788c-17.64362-.02155-32.4637-13.27623-34.44659-30.80808h19.04255c17.64362.02155,32.46371,13.27623,34.44659,30.80808h-19.04255ZM261.67934,257.82828c-.00696,6.37768-5.17535,11.54607-11.55303,11.55303H49.87379c-6.37768-.00696-11.54607-5.17535-11.55303-11.55303v-96.27525h46.21212v13.34313l-21.39116,14.2609c-1.07116.71432-1.71463,1.91656-1.71489,3.20404v42.36111c0,2.12685,1.72415,3.85101,3.85101,3.85101s3.85101-1.72416,3.85101-3.85101v-21.51152l7.70202,7.70202v33.06455c0,2.12685,1.72416,3.85101,3.85101,3.85101s3.85101-1.72416,3.85101-3.85101v-34.65909c.00009-1.02132-.40583-2.00081-1.12834-2.72267l-14.27569-14.27593v-7.89758l18.76474-12.5097,15.89435,15.89435v44.61758c0,2.12685,1.72416,3.85101,3.85101,3.85101s3.85101-1.72416,3.85101-3.85101v-46.21212c.00009-1.02132-.40583-2.00081-1.12834-2.72267l-18.12671-18.12693v-13.8095h115.5303v13.34313l-21.39117,14.2609c-1.07115.71432-1.71462,1.91656-1.71489,3.20404v42.36111c0,2.12685,1.72416,3.85101,3.85101,3.85101s3.85101-1.72416,3.85101-3.85101v-21.51152l7.70202,7.70202v33.06455c0,2.12685,1.72416,3.85101,3.85101,3.85101s3.85101-1.72416,3.85101-3.85101v-34.65909c.00009-1.02132-.40582-2.00081-1.12834-2.72267l-14.2757-14.27593v-7.89758l18.76474-12.5097,15.89435,15.89435v44.61758c0,2.12685,1.72416,3.85101,3.85101,3.85101s3.85101-1.72416,3.85101-3.85101v-46.21212c.00009-1.02132-.40582-2.00081-1.12834-2.72267l-18.12671-18.12694v-13.8095h46.21212v96.27529ZM265.53035,153.85101H34.46975c-2.12685,0-3.85101-1.72416-3.85101-3.85101s1.72416-3.85101,3.85101-3.85101h231.0606c2.12685,0,3.85101,1.72416,3.85101,3.85101s-1.72416,3.85101-3.85101,3.85101Z"/>
    <path class="cls-1" d="M123.04298,176.95707h42.36111c2.12685,0,3.85101-1.72416,3.85101-3.85101s-1.72416-3.85101-3.85101-3.85101h-42.36111c-2.12685,0-3.85101,1.72416-3.85101,3.85101s1.72416,3.85101,3.85101,3.85101Z"/>
    <path class="cls-1" d="M153.85106,192.36111c-2.12685,0-3.85101,1.72416-3.85101,3.85101s1.72416,3.85101,3.85101,3.85101h15.40404c2.12685,0,3.85101-1.72416,3.85101-3.85101s-1.72416-3.85101-3.85101-3.85101h-15.40404Z"/>
    <path class="cls-1" d="M134.59601,188.5101c.00056-2.12629-1.7227-3.85045-3.849-3.85101h-3.85302c-2.12685,0-3.85101,1.72416-3.85101,3.85101s1.72416,3.85101,3.85101,3.85101h3.85101c2.1263.00056,3.85046-1.7227,3.85101-3.84901v-.002Z"/>
    <path class="cls-1" d="M130.745,219.31818h11.55303c2.12685,0,3.85101-1.72416,3.85101-3.85101s-1.72416-3.85101-3.85101-3.85101h-11.55303c-2.12685,0-3.85101,1.72416-3.85101,3.85101s1.72416,3.85101,3.85101,3.85101Z"/>
    <path class="cls-1" d="M150.00005,227.0202c-2.12685,0-3.85101,1.72416-3.85101,3.85101s1.72416,3.85101,3.85101,3.85101h23.10606c2.12685,0,3.85101-1.72416,3.85101-3.85101s-1.72416-3.85101-3.85101-3.85101h-23.10606Z"/>
    <path class="cls-1" d="M169.2551,215.46717c2.12685,0,3.85101-1.72416,3.85101-3.85101s-1.72416-3.85101-3.85101-3.85101h-3.85101c-2.12685,0-3.85101,1.72416-3.85101,3.85101s1.72416,3.85101,3.85101,3.85101h3.85101Z"/>
    <path class="cls-1" d="M150.00005,253.97727h-26.95707c-2.12685,0-3.85101,1.72416-3.85101,3.85101s1.72416,3.85101,3.85101,3.85101h26.95707c2.12685,0,3.85101-1.72416,3.85101-3.85101s-1.72416-3.85101-3.85101-3.85101Z"/>
    <path class="cls-1" d="M184.65914,246.27525h-15.40404c-2.12685,0-3.85101,1.72416-3.85101,3.85101s1.72416,3.85101,3.85101,3.85101h15.40404c2.12685,0,3.85101-1.72416,3.85101-3.85101s-1.72416-3.85101-3.85101-3.85101Z"/>
    <path class="cls-1" d="M242.42429,253.97727h-11.55303c-2.12685,0-3.85101,1.72416-3.85101,3.85101s1.72416,3.85101,3.85101,3.85101h11.55303c2.12685,0,3.85101-1.72416,3.85101-3.85101s-1.72416-3.85101-3.85101-3.85101Z"/>
    <path class="cls-1" d="M234.72227,176.95707h15.40404c2.12685,0,3.85101-1.72416,3.85101-3.85101s-1.72416-3.85101-3.85101-3.85101h-15.40404c-2.12685,0-3.85101,1.72416-3.85101,3.85101s1.72416,3.85101,3.85101,3.85101Z"/>
    <path class="cls-1" d="M49.87379,173.10606h11.55303c2.12686,0,3.85101-1.72416,3.85101-3.85101s-1.72415-3.85101-3.85101-3.85101h-11.55303c-2.12686,0-3.85101,1.72416-3.85101,3.85101s1.72415,3.85101,3.85101,3.85101Z"/>
    <path class="cls-1" d="M49.87379,207.76515c2.12686,0,3.85101-1.72416,3.85101-3.85101s-1.72415-3.85101-3.85101-3.85101h-3.85101c-2.12686,0-3.85101,1.72416-3.85101,3.85101s1.72415,3.85101,3.85101,3.85101h3.85101Z"/>
    <path class="cls-1" d="M57.57581,250.12626h-7.70202c-2.12686,0-3.85101,1.72416-3.85101,3.85101s1.72415,3.85101,3.85101,3.85101h7.70202c2.12686,0,3.85101-1.72416,3.85101-3.85101s-1.72415-3.85101-3.85101-3.85101Z"/>
    <path class="cls-1" d="M99.93692,257.82828h-3.85101c-2.12685,0-3.85101,1.72416-3.85101,3.85101s1.72416,3.85101,3.85101,3.85101h3.85101c2.12685,0,3.85101-1.72416,3.85101-3.85101s-1.72416-3.85101-3.85101-3.85101Z"/>
    <path class="cls-1" d="M250.12631,211.61616h-3.85101c-2.12685,0-3.85101,1.72416-3.85101,3.85101s1.72416,3.85101,3.85101,3.85101h3.85101c2.12685,0,3.85101-1.72416,3.85101-3.85101s-1.72416-3.85101-3.85101-3.85101Z"/>
  </g>
</svg>