<?xml version="1.0" encoding="UTF-8"?>
<svg id="Layer_1" xmlns="http://www.w3.org/2000/svg" xmlns:svgjs="http://svgjs.dev/svgjs" version="1.1" viewBox="0 0 300 300">
  <!-- Generator: Adobe Illustrator 29.1.0, SVG Export Plug-In . SVG Version: 2.1.0 Build 142)  -->
  <defs>
    <style>
      .st0 {
        fill: #0051b1;
      }
    </style>
  </defs>
  <path class="st0" d="M276.4,134.9h-52.9c10.3-2,22.1-3.5,24.7-14.9,2.5-10.8-.2-13.9-3.5-16.4-1.5-1.1-2-1.5-1.4-4.8.5-2.5,2-3.1,5.3-4.2,5-1.6,11.8-3.9,11.7-17.4.2-8.5-3.9-13.7-11-12.2,5.1-10.4,6-22.9-3.5-27.1-9.3-4.5-17.9,4.1-22.2,15-3.4-6.4-10.2-6.3-16.2-.4-9.9,8.8-7.1,15.5-5.1,20.4,1.4,3.3,2,4.9.4,7-.8,1.1-1.4,1.7-1.9,2,1.6-3.9,2.8-9.3-4.2-16.2-4.6-4.9-10.1-5.6-13.4-.8-3-9.2-10.5-16-17.9-12.5-7.5,3-8.1,13.7-4.1,22.4-5.8-.9-9,3.6-9.1,10.5-.5,11.7,5.4,13.9,9.3,15.3,2.6,1,3.5,1.4,3.8,3.3.4,2.5,0,2.8-1.1,3.6-2.8,2.1-5.3,4.7-3.5,14.1,1.8,9.9,11.5,11.5,20,13.5h-70.2c10.3-2,22.1-3.5,24.7-14.9,2.5-10.8-.2-13.9-3.5-16.4-1.5-1.1-2-1.5-1.4-4.8.5-2.5,2-3.1,5.3-4.2,5-1.6,11.8-3.9,11.7-17.4.2-8.5-3.9-13.7-11-12.2,5.1-10.4,6-22.9-3.5-27.1-9.3-4.5-17.9,4.1-22.2,15-3.4-6.4-10.2-6.3-16.2-.4-9.9,8.8-7.1,15.5-5.1,20.4,1.4,3.3,2,4.9.4,7-.8,1.1-1.4,1.7-1.9,2,1.6-3.9,2.8-9.3-4.2-16.2-4.6-4.9-10.1-5.6-13.4-.8-3-9.2-10.6-16-17.9-12.5-7.5,3-8.1,13.7-4.1,22.4-5.8-.9-9,3.6-9.1,10.5-.5,11.7,5.4,13.9,9.3,15.3,2.6,1,3.5,1.4,3.8,3.3.4,2.5,0,2.8-1.1,3.6-2.8,2.1-5.2,4.7-3.5,14.1,1.8,9.9,11.5,11.5,20,13.5H23.6c-1.6,0-2.8,1.3-2.8,2.8v17.8c0,1.6,1.3,2.8,2.8,2.8h4.9v79.9c0,13.9,11.3,25.3,25.3,25.3h192.3c13.9,0,25.3-11.3,25.3-25.3v-79.9h4.9c1.6,0,2.8-1.3,2.8-2.8v-17.8c0-1.6-1.3-2.8-2.8-2.8h0ZM207.3,83.1c7.4-11.3-9-15.8,3.8-26.6,3.3-3,5-3.1,5.5-3,2.8,1,3.2,6.5,7.2,6.2,2.5-.2,4-2.5,5.7-6.5,3.2-7.4,8.4-13,14-10.3,5.3,2.8,4.7,10.4,1.4,17.7-1.7,4-2.5,6.6-.9,8.6,1.5,1.9,3.9,1.6,5.6,1.3,4.2-.7,4.7,0,5.1,6.6,0,9.5-3.4,10.6-7.8,12-3.5,1.2-7.9,2.6-9,8.5-1.2,6.2.9,8.5,3.5,10.4,1.7,1.3,3.3,2.5,1.4,10.7-1.6,6.7-7.9,8.3-18.1,10.2-5.5,1.1-11.7,2.3-17.2,5,1.4-2.9,2.8-6.1,4.3-9.4,2.1-3,8.4-10.3,14.2-9.5,1.5.2,3-.8,3.2-2.4,0-5.8-9-2.8-11.8-1,2.6-6.1,5.1-12.2,7.3-17.8,2-2.9,6.6-10,12.1-9.9,1.5,0,2.9-1.1,2.9-2.7-.3-4.9-6.9-2.7-9.6-1.1,2-5,3.2-8.1,3.2-8.2.6-1.4-.2-3.1-1.6-3.6-1.4-.6-3.1.2-3.6,1.6,0,.1-1.1,2.8-2.7,7-.9-2.6-3.9-7.6-7.1-4.6-1.1,1.1-1,2.9.2,4,3.2,2.9,2.7,9.4,1.9,13.1-2.4,5.9-5.1,12.5-7.9,19.2-.7-3.2-4.1-11.1-8.3-7.5-1,1.2-.9,2.9.2,4,4.4,3.9,3.1,13.5,2.2,17.1-1.8,4.1-3.6,8-5.3,11.5-1.3-7.2-4.9-13.7-8.3-19.6-5.3-9.3-8.3-15.3-4.4-21,4.7-6.7,6.5-6.3,8.6-5.8,3,.7,6.3,1,10.1-4.2h0ZM166.1,120.4c-1.2-6.6,0-7.5,1.3-8.5,2.1-1.6,4.2-3.6,3.3-9-.8-5.2-4.6-6.6-7.4-7.7-3.5-1.3-6-2.2-5.6-9.8.2-4,1.1-4.9,1.3-5,2.2-.7,5.3,1.7,7.5-1,1.5-1.8,1-4.1-.4-7.7-4.5-11.8,1.1-14.1,1.3-14.2.2,0,.3-.1.5-.2,3.9-1.2,6.9,1.6,9.9,8.9,1.1,2.9,2.4,5.6,4.9,5.9,3.6.4,4.1-3.8,6.2-5,.1,0,1.3,0,3.9,2.5,5.4,5.4,3.9,7.9,2.2,11.9-2.9.2-6,1.9-10.2,7.6l-3.5-9.4c-1.4-3.4-6.5-1.5-5.3,2l3.1,8.3c-3.7-1.9-6.5-1.8-6.6-1.8-3.6.2-3.4,5.6.2,5.6,0,0,4.3,0,8.7,5,0,6.7,4.5,13.7,8.1,20.1-3.3-2.1-6.6-3-8.9-3.2-3.7-.3-4.2,5.1-.5,5.6.5,0,10.6,1.3,14.2,12.5-4.5-2.5-9.5-3.7-14-4.7-8.2-1.9-13-3.3-14-8.7h0ZM94.2,83.1c7.4-11.3-9-15.8,3.8-26.6,3.3-3,5-3.1,5.5-3,2.8,1,3.1,6.5,7.2,6.2,2.5-.2,4-2.5,5.7-6.5,3.2-7.4,8.4-13,14-10.3,5.3,2.8,4.7,10.4,1.4,17.7-1.7,4-2.5,6.6-.9,8.6,1.5,1.9,3.9,1.6,5.6,1.3,4.2-.7,4.7,0,5.1,6.6,0,9.5-3.4,10.6-7.8,12-3.5,1.2-7.9,2.6-9,8.5-1.2,6.2.9,8.5,3.5,10.4,1.7,1.3,3.3,2.5,1.4,10.7-1.6,6.7-7.9,8.3-18.1,10.2-5.5,1.1-11.7,2.3-17.2,5,1.4-2.9,2.8-6.1,4.3-9.4,2.1-3,8.3-10.3,14.2-9.4,1.5.2,3-.8,3.2-2.4,0-5.8-9-2.8-11.8-1,2.6-6.1,5.1-12.2,7.3-17.8,2-2.9,6.6-10,12.1-9.9,1.6,0,2.9-1.1,2.9-2.7-.3-4.9-7-2.7-9.6-1.2,1.9-4.9,3.2-8.1,3.2-8.2.6-1.4-.2-3.1-1.6-3.6-1.4-.6-3.1.2-3.6,1.6,0,.1-1.1,2.8-2.7,7-.9-2.6-3.9-7.6-7.1-4.6-1.1,1.1-1,2.9.2,4,3.2,2.9,2.7,9.5,1.9,13.1-2.4,5.9-5.1,12.5-7.9,19.2-.7-3.2-4.1-11.1-8.3-7.5-1,1.2-.9,2.9.2,4,4.4,3.9,3.1,13.5,2.2,17.1-1.8,4.1-3.6,8-5.3,11.4-1.3-7.2-4.9-13.7-8.3-19.6-5.3-9.3-8.3-15.3-4.4-21,4.7-6.7,6.5-6.3,8.6-5.8,3,.7,6.3,1,10.1-4.2h0ZM53,120.4c-1.2-6.6,0-7.5,1.3-8.5,2.1-1.6,4.2-3.6,3.3-9-.8-5.2-4.6-6.6-7.4-7.7-3.5-1.3-6-2.2-5.6-9.8.2-4,1.1-4.9,1.3-5,2.2-.7,5.3,1.7,7.5-1,1.5-1.8,1-4.1-.4-7.7-4.5-11.8,1.1-14.1,1.3-14.2.2,0,.3-.1.5-.2,3.9-1.2,6.9,1.6,9.9,8.9,1.1,2.9,2.4,5.6,4.9,5.9,3.6.4,4.1-3.8,6.2-5,.1,0,1.3,0,3.9,2.5,5.4,5.4,3.9,7.9,2.2,11.9-2.9.2-6,1.9-10.2,7.6l-3.5-9.4c-1.4-3.4-6.5-1.5-5.3,2l3.1,8.3c-3.7-1.9-6.5-1.8-6.6-1.8-3.6.3-3.4,5.6.2,5.6.1,0,4.3,0,8.7,5,0,6.5,4.2,13.3,7.8,19.6-3.8-1.7-10.9-5-11.7-.2-.1,1.5,1,2.9,2.5,3,.5,0,12.3,1.3,15.6,13.3-4.8-3.1-10.4-4.4-15.4-5.6-8.2-1.9-13-3.3-14-8.7h0ZM265.8,238.2c0,10.8-8.8,19.7-19.7,19.7H53.8c-10.8,0-19.7-8.8-19.7-19.7v-79.9h6.7v19.6s0,0,0,.1v56c0,9.4,6.1,17,13.6,17h191.1c7.5,0,13.6-7.6,13.6-17v-44.8s0,0,0-.1v-30.8h6.7v79.9h0ZM225.6,190.6h-29l-5.5-32.3h39.9l-5.5,32.3h0ZM216.1,205.4c-4.8-.2-6.4-5.3-6.4-9.1h7.7c0,2.3-.2,5.8-1.3,9.1ZM91.3,205.4c-4.8-.2-6.4-5.3-6.4-9.1h7.7c0,2.3-.2,5.8-1.3,9.1h0ZM74.4,190.6l-5.5-32.3h39.9l-5.5,32.3h-29ZM114.6,158.3h70.8l4,23.7c-10.4,6.3-28.5,5.5-38.1-.9-9.6-6.4-28.5-8.2-40.1-2.5l3.4-20.3ZM63.3,158.3l3.9,23.3c-5.8-3-10.6-5.8-20.8-6.4v-16.9h16.8,0ZM46.5,180.8c10.6.6,14.3,4.1,21.9,7.5l.9,5.5c.2,1.4,1.4,2.3,2.8,2.3h7.2c0,.3,0,.7,0,1.1-.2.4-.3.8-.3,1.2,0,.7-.3,4.5-6.3,5.6-9.1,1.6-11,10.2-10.7,14.5.3,3.7,5.8,3.3,5.6-.4,0-.3-.4-7.5,6.1-8.6,3.8-.7,6.4-2.2,8.1-4.1,1.5,2.4,3.8,4.1,6.5,4.9-1.4,1.4-3.3,2.5-5.8,2.9-8.8,1.1-10,10-8.8,14.1,1,3.6,6.2,2.2,5.5-1.4-.6-2.6,0-6.8,4.2-7.2,4.5-.7,7.8-2.8,10-5.6,1.7,2.1,3.7,5.2,5,8,.5,1,1.5,1.6,2.6,1.6,2,0,3.4-2.2,2.6-4-1-2.1-3.6-7.4-7.1-10.8,1.6-3.9,2.1-8.3,2-11.9h7.5c1.4,0,2.5-1,2.8-2.3l1.4-8.5c10.4-6.5,28.7-5.9,38.7.6,10.2,6.8,30.1,8.2,41.7,1.8l1,6.1c.2,1.4,1.4,2.3,2.8,2.3h9.9c0,.3,0,.7,0,1.1-.2.4-.3.8-.3,1.2,0,.7-.3,4.5-6.3,5.6-9.1,1.6-11,10.2-10.7,14.5.3,3.7,5.8,3.3,5.6-.4,0-.3-.4-7.5,6.1-8.6,3.8-.7,6.4-2.2,8.1-4.1,1.5,2.4,3.8,4.1,6.5,4.9-1.4,1.4-3.3,2.5-5.8,2.9-8.8,1.1-10,10-8.8,14.1,1,3.6,6.2,2.2,5.5-1.4-.6-2.6,0-6.8,4.2-7.2,4.5-.7,7.8-2.8,10-5.6,1.7,2.1,3.7,5.2,5,8,.5,1,1.5,1.6,2.6,1.6,2,0,3.4-2.2,2.5-4-1-2.1-3.6-7.4-7.1-10.8,1.6-3.9,2.1-8.3,2-11.9h4.8c1.4,0,2.5-1,2.8-2.3l1.5-8.7c6.2,3.2,10.9,6.1,21.4,6.7v42.1c0,6.2-3.6,11.4-8,11.4H54.4c-4.3,0-8-5.2-8-11.4v-53.2h0ZM253.5,186.3c-9.9-.6-13.7-3.6-20.4-6.8l3.6-21.1h16.8v27.9h0ZM273.6,152.7h-16.8c-.9-.2-212.6-.2-213.6,0h-16.8v-12.2h247.1v12.2h0Z"/>
  <path class="st0" d="M88.9,163.7c-1.6,0-2.8,1.3-2.8,2.8v14.3c0,1.6,1.3,2.8,2.8,2.8s2.8-1.3,2.8-2.8v-14.3c0-1.6-1.3-2.8-2.8-2.8Z"/>
  <path class="st0" d="M101.1,163.7c-1.6-.3-3,.8-3.3,2.3l-2.5,14.3c-.3,1.5.8,3,2.3,3.2,1.5.3,3-.7,3.3-2.3l2.5-14.3c.3-1.5-.8-3-2.3-3.2h0Z"/>
  <path class="st0" d="M76.8,163.7c-1.5.3-2.5,1.7-2.3,3.2l2.5,14.3c.3,1.5,1.8,2.6,3.3,2.3,1.5-.3,2.5-1.7,2.3-3.2l-2.5-14.3c-.3-1.5-1.7-2.6-3.3-2.3Z"/>
  <path class="st0" d="M211.1,183.6c1.6,0,2.8-1.3,2.8-2.8v-14.3c0-1.6-1.3-2.8-2.8-2.8s-2.8,1.3-2.8,2.8v14.3c0,1.6,1.3,2.8,2.8,2.8Z"/>
  <path class="st0" d="M201.9,183.6c1.7,0,3.1-1.6,2.8-3.3l-2.5-14.3c-.7-3.6-6.1-2.7-5.5,1l2.5,14.3c.2,1.4,1.4,2.3,2.8,2.3h0Z"/>
  <path class="st0" d="M219.7,183.6c1.5.3,3-.7,3.3-2.3l2.5-14.3c.3-1.5-.8-3-2.3-3.2-1.6-.3-3,.8-3.3,2.3l-2.5,14.3c-.3,1.5.8,3,2.3,3.2h0Z"/>
</svg>