<?xml version="1.0" encoding="UTF-8"?>
<svg id="Layer_1" xmlns="http://www.w3.org/2000/svg" xmlns:svgjs="http://svgjs.dev/svgjs" version="1.1" viewBox="0 0 300 300">
  <!-- Generator: Adobe Illustrator 29.1.0, SVG Export Plug-In . SVG Version: 2.1.0 Build 142)  -->
  <defs>
    <style>
      .st0 {
        fill: #0051b1;
      }
    </style>
  </defs>
  <path class="st0" d="M52.1,103.7c-.1-.9-.9-1.6-1.9-1.5-.9.1-1.6.9-1.5,1.9.4,3.6,1.5,7.1,3.1,10.3-3.8,1.8-7.3,4.6-10,8.2-2.7,3.6-4.4,7.7-5.2,12-4.1-.3-8.3.2-12.2,1.6-.9.3-1.4,1.3-1,2.2,0,.1.1.3.2.4.4.6,1.2.9,2,.6,3.4-1.2,7.1-1.7,10.7-1.4-.3,6.1,1.4,12.3,5.1,17.4.7,1,1.4,1.9,2.2,2.8l7.3,7.9c12.5,13.5,28,23.4,45.2,29,2.3,5.5,5.2,10.7,8.7,15.5,5.4,7.6,12.1,14.2,19.8,19.6,1.5,1,3.3,1.2,5,.4s2.7-2.3,2.8-4.1c.3-3.4,2-6.6,4.6-8.7,5.1-4.1,7.7-10.7,6.6-17.1l-.2-1.1c16.5-1.9,32.4-7.2,46.9-15.9,7.2-4.3,14-9.1,20.4-14.5.3,0,.5,0,.8,0l26.7-6.6c4.9-1.2,8.3-5.8,8-10.9-.2-2.8-1.5-5.5-3.6-7.3l-4.4-3.9c-.1,0-.2-.2-.3-.2,1-1.4,2-2.7,2.9-4.1l9.9-14.6,9.5-3.4c6.2-2.2,11.2-6.7,14-12.6,3.2-6.6,3.4-14.3.3-21l-4.1-9.1c-.6-1.3-2-2.1-3.5-1.9-1.5.2-2.6,1.3-2.8,2.8l-1.1,7.1c-.8,4.9-3.3,9.5-7.1,12.8l-2,1.7c-.3.3-.6.2-.8.2s-.4-.1-.6-.5c-2.6-6-2.3-12.8.8-18.5l2.8-5.3c.7-1.2.5-2.7-.4-3.7-.9-1-2.3-1.4-3.6-1l-4.8,1.7c-6.4,2.3-11.6,7.2-14.4,13.4-3.2,7.3-3.2,15.7.1,22.9l3.7,8.2c-2.7,3-5.5,5.8-8.5,8.4l-.6-1c-1.8-2.9-4.9-4.8-8.3-5.1-3.7-.3-7.2,1.4-9.4,4.4l-7.8,10.8c-.4.6-.4,1.4,0,2s.2.3.4.4c.8.6,1.8.4,2.4-.4l7.8-10.8c1.5-2.1,3.9-3.2,6.4-3,.4,0,.8.1,1.2.2-.8.6-1.4,1.2-2,2l-10.2,14.1c-9.6,4.6-20.3,6.7-31,6-4.6-.3-9.2-.7-13.8-1.3-.4-5.2-2.2-10.2-5.3-14.4-1.5-2-1.6-4.6-.4-6.7l.8-1.4c.7-1.3.7-2.8,0-4.1-.8-1.3-2.2-2-3.6-1.9h-.3c-15.4.9-30.3,7-42,17-12.5-4.2-24.6-9.5-36.4-15.7-6.8-3.6-14.4-4-21.2-1.8-1.5-2.9-2.6-6.1-2.9-9.4h0ZM154.9,119.2c-.8,1.3-1.2,2.8-1.3,4.2-.3,0-.6,0-.9,0-9.9,1.7-19.3,5.4-27.6,11-2.9-.8-5.8-1.7-8.6-2.6,10.9-8.7,24.4-14,38.4-14.8h.3c.3,0,.4.1.5.3s.2.3,0,.6l-.8,1.4h0ZM241,78.8c-3.6,10.7-2.3,22.8,4.5,32.8-1.9-.4-4,0-5.6,1.2h-.2c0,.1-3.3-7.1-3.3-7.1-2.9-6.4-3-13.7-.1-20.1,1.1-2.5,2.7-4.8,4.7-6.7h0ZM235.8,143.1s0,0,0,0h0s0,0,0,0ZM216,164.6c2.1-1.9,4.1-3.8,6.1-5.8l16.8-4.2c1.5-.4,2.9-1.1,3.9-2.2,0,3.2-2.3,6.1-5.4,6.8l-21.3,5.3h0ZM126.5,227.4c-11.3-7.9-20.3-18.6-26.1-31,3,.8,6,1.5,9,2.1,4.5,7.7,10.3,14.7,17.2,20.5,1.2,1,2.7,1.4,4.1,1.2-1,1.9-1.6,3.9-1.8,6.1,0,.8-.6,1.2-.9,1.3-.2.1-.9.3-1.5-.1h0ZM44.5,124.7c2.4-3.3,5.6-5.7,9-7.3.2.2.3.5.5.7.8,1.2,1.8,2.3,2.8,3.3l2.6,2.7c.7.7,1.7.7,2.4,0s.7-1.7,0-2.4l-2.6-2.7c-.9-.9-1.7-1.9-2.4-2.9,5.7-1.7,12-1.2,17.7,1.8,32,16.8,66.4,26.5,102.5,28.8,13.9.9,28-2.8,39.7-10.3l2.1-1.3c7.9-5.1,15.1-11.3,21.3-18.4l1.7-1.3c1-.7,2.3-.9,3.5-.4,1.2.5,2,1.5,2.1,2.8l.3,1.9-9.9,14.5c-12.8,18.8-29.9,34.9-49.5,46.6-8.7,5.2-18,9.2-27.7,11.9l.6-4.2c.4-2.7,2.3-5,4.8-5.9l10.2-3.6c6.3-2.2,12.1-5.8,16.9-10.5l10.8-10.4c1.8-1.7,1.1-4.6-1.2-5.5-5-1.8-10.5-1.8-15.5-.1l-.7.2c-3.8,1.3-7.9,1.6-11.8,1.1l-7.3-1c-3.5-.5-7.1,0-10.4,1.2l-5.9,2.3c-1.8.7-2.7,2.6-2.2,4.5l.4,1.5c.2.9.4,1.7.5,2.6,0,.5.5.8,1,.8,8.1-.1,16-1.3,23.6-3.4.9-.3,1.9.3,2.1,1.3.2.9-.4,1.8-1.3,2-.1,0-.3,0-.4.1-13.7,3.7-28.7,4.4-43.4,1.9-1.9-.3-3.7-.7-5.5-1.1l1.5-1.6c1.8-1.8,2.6-4.4,2.1-7-.5-2.5-2.2-4.6-4.5-5.7l-26.1-12.8c-2-1-4.4-1.1-6.4-.2l-1,.4c-1.9.8-4.1.8-6,0l-7.2-3c-2.4-1-5.1-.8-7.2.6l-2.3,1.4c-3.6,2.2-4.8,6.8-2.8,10.5l2,3.7c.5.9.8,1.8.9,2.8l.7,6c.4,3.2,2.6,5.8,5.6,6.7l5,1.5c1.4.4,2.7,1.2,3.7,2.4l10.5,12c2.2,2.5,5.7,3.4,8.8,2.2l11.6-4.4c2.5-1,4.4-3.2,4.9-5.8l.3-1.4c0-.4.2-.8.3-1.2.2-.5-.1-1.1-.7-1.3-10.8-3-20.6-7.5-28.3-13.1-.2-.1-.3-.2-.4-.4-.4-.6-.4-1.4,0-2.1.6-.7,1.7-.8,2.4-.3,0,0,.1,0,.2.1,13.6,9.7,34,16.2,55.6,16.2,0,0,0,.2,0,.2-1.2,3.7-1.3,7.7,0,11.4l3.4,10.4c-9.7,2-19.6,2.7-29.7,2.1-26.7-1.6-51.4-13.3-69.5-33l-7.3-7.9c-4.5-4.9-6.7-11.2-6.5-17.4.9.2,1.9.4,2.8.7l3.6,1.2c.9.3,1.9-.2,2.2-1.1s-.2-1.9-1.1-2.2l-3.6-1.2c-1.1-.4-2.3-.7-3.5-.9.6-3.7,2.1-7.2,4.5-10.4h0Z"/>
</svg>