<?xml version="1.0" encoding="UTF-8"?>
<svg id="Layer_1" data-name="Layer 1" xmlns="http://www.w3.org/2000/svg" viewBox="0 0 300 300">
  <defs>
    <style>
      .cls-1 {
        fill: #0051b1;
      }
    </style>
  </defs>
  <path class="cls-1" d="M289.05042,207.93585c-.00895-7.6756-6.22901-13.89566-13.9046-13.9046h-18.53947v-37.07894h7.66317c8.47282.02794,16.09852-5.1351,19.21906-13.0124l5.23044-13.07554c.95063-2.3767-.20543-5.07404-2.58213-6.02467-.54746-.21897-1.1317-.33148-1.72133-.33147h-14.63923c-.97965.00086-1.95797.07172-2.9275.21204,3.30131-9.28543,1.54085-19.61924-4.64876-27.28779l-6.60932-8.26512c-1.59905-1.99886-4.51574-2.32296-6.5146-.7239-.2673.21383-.51007.4566-.7239.7239l-6.60932,8.26165c-6.1896,7.66854-7.95007,18.00235-4.64876,27.28778-.96953-.14032-1.94786-.21119-2.9275-.21204h-14.63925c-2.55976-.00004-4.6349,2.07501-4.63496,4.63479,0,.58964.1125,1.17388.33148,1.72135l5.23046,13.07902c3.12054,7.8773,10.74624,13.04033,19.21906,13.0124h7.66317v37.07894h-18.53947c-7.67929-.00046-13.90497,6.22446-13.90543,13.90377-.00037,6.07301,3.94066,11.44369,9.73405,13.26524l3.5561,28.4494h-54.38784l3.5561-28.44651c7.32733-2.29823,11.40423-10.10129,9.106-17.42862-1.8196-5.80135-7.19739-9.7477-13.27738-9.74329h-18.53947v-23.17434h7.66317c8.47282.02794,16.09852-5.13509,19.21906-13.01239l5.23044-13.07554c.95063-2.3767-.20541-5.07404-2.58211-6.02467-.54748-.21898-1.1317-.33149-1.72135-.33148h-14.63923c-1.53059-.00004-3.05641.17076-4.54912.50925-1.50294-6.05757-5.59142-11.1489-11.18161-13.9243-1.30494-.65254-2.84096-.65254-4.14589,0-5.59019,2.7754-9.67868,7.86673-11.18162,13.9243-1.4927-.3385-3.01852-.50931-4.54913-.50925h-14.64155c-2.55976-.00004-4.6349,2.07502-4.63494,4.6348,0,.58964.11249,1.17387.33147,1.72134l5.23045,13.07555c3.12053,7.8773,10.74624,13.04032,19.21905,13.01239h7.66318v23.17434h-18.53947c-7.6793-.00046-13.90497,6.22448-13.90543,13.90377-.00036,6.07301,3.94065,11.44369,9.73405,13.26524l3.5561,28.4494h-54.38786l3.5561-28.44651c7.32733-2.29823,11.40423-10.10129,9.106-17.42862-1.81959-5.80133-7.19738-9.7477-13.27737-9.74329h-18.53947v-9.26974h9.49279c7.44655.00847,13.93954-5.06127,15.73712-12.28761l2.44084-9.76278c.62074-2.48337-.8892-4.99974-3.37257-5.62047-.36754-.09189-.74497-.13833-1.12383-.13835h-14.12766c-5.54622-.00446-10.70879,2.83031-13.68155,7.51255-2.97276-4.68223-8.13533-7.517-13.68155-7.51255h-14.12766c-2.55977.00007-4.63481,2.07523-4.63475,4.63499,0,.37886.04647.75629.13834,1.12383l2.44084,9.76278c1.79758,7.22633,8.29056,12.29607,15.73712,12.28761h9.49279v9.26974h-18.53947c-7.6793-.00557-13.90911,6.21523-13.91467,13.89453-.0044,6.07999,3.94196,11.45778,9.74329,13.27738l3.5561,28.44651h-8.65446c-2.55977,0-4.63487,2.0751-4.63487,4.63487s2.0751,4.63487,4.63487,4.63487h268.82234c2.55976,0,4.63487-2.0751,4.63487-4.63487s-2.0751-4.63487-4.63487-4.63487h-8.65445l3.5561-28.44651c5.78902-1.82872,9.72682-7.19631,9.73322-13.26731ZM156.60154,156.87062c1.07938-5.33595,5.76369-9.17613,11.20769-9.18805h7.79353l-2.68765,6.72056c-1.72393,4.34899-5.9345,7.19925-10.61268,7.18404h-6.64408l.94319-4.71655ZM137.70634,161.58717c-4.67819.01521-8.88876-2.83505-10.61269-7.18404l-2.68764-6.72056h7.79353c5.44418.01197,10.12855,3.85245,11.20769,9.18862l.9432,4.71599h-6.64408ZM54.97395,171.4884c.77015-3.09738,3.55321-5.27036,6.74489-5.26637h8.19155l-1.00113,4.00337c-.7701,3.09717-3.55285,5.2701-6.74431,5.26637h-8.19155l1.00055-4.00337ZM33.90964,175.49177c-3.19146.00373-5.97422-2.1692-6.74431-5.26637l-1.00113-4.00337h8.19155c3.19146-.00373,5.97422,2.1692,6.74431,5.26637l1.00113,4.00337h-8.19155ZM62.48534,249.64966h-28.89609l-3.47615-27.80921h35.84839l-3.47615,27.80921ZM24.86295,212.57072c-2.55977,0-4.63487-2.0751-4.63487-4.63487s2.0751-4.63487,4.63487-4.63487h46.34868c2.55977,0,4.63487,2.0751,4.63487,4.63487s-2.0751,4.63487-4.63487,4.63487H24.86295ZM150.00439,134.59718c2.67646,2.0912,4.34519,5.21553,4.59489,8.60289-1.82713,1.516-3.38121,3.33364-4.59489,5.37413-1.21369-2.04049-2.76776-3.85813-4.59489-5.37413.24969-3.38736,1.91844-6.51169,4.59489-8.60289ZM164.45242,249.64966h-28.89608l-3.47615-27.80921h35.84838l-3.47615,27.80921ZM126.83005,212.57072c-2.55976,0-4.63487-2.0751-4.63487-4.63487s2.0751-4.63487,4.63487-4.63487h46.34868c2.55976,0,4.63487,2.0751,4.63487,4.63487s-2.0751,4.63487-4.63487,4.63487h-46.34868ZM269.77632,133.77796h7.79353l-2.68765,6.72056c-1.72393,4.349-5.9345,7.19925-10.61268,7.18404h-6.64408l.94319-4.71656c1.07938-5.33594,5.76369-9.17613,11.20769-9.18804ZM239.67344,147.68257c-4.67819.01521-8.88875-2.83504-10.61268-7.18404l-2.68765-6.72056h7.79353c5.44418.01197,10.12855,3.85246,11.20769,9.18863l.94319,4.71598h-6.64408ZM248.98142,103.22143l2.99006-3.73802,2.99008,3.73744c5.66087,7.01158,5.66087,17.0231,0,24.03469l-2.99008,3.73802-2.99008-3.73744c-5.66087-7.01158-5.66087-17.0231,0-24.03469h.00002ZM266.41951,249.64966h-28.89607l-3.47615-27.80921h35.84839l-3.47617,27.80921ZM275.14582,212.57072h-46.34868c-2.55976,0-4.63487-2.0751-4.63487-4.63487s2.0751-4.63487,4.63487-4.63487h46.34868c2.55976,0,4.63487,2.0751,4.63487,4.63487s-2.0751,4.63487-4.63487,4.63487Z"/>
  <path class="cls-1" d="M61.21886,110.66156c-2.53606.34757-4.31017,2.68523-3.9626,5.22129.34758,2.53605,2.68523,4.31017,5.22129,3.96259.06344-.00869.12669-.0187.18971-.03001l3.67487-.57936c55.29568-8.79487,107.76041-30.42723,153.18528-63.16167v8.18054c0,2.55977,2.0751,4.63487,4.63487,4.63487s4.63487-2.0751,4.63487-4.63487v-18.53947c0-2.55977-2.0751-4.63487-4.63487-4.63487h-18.53947c-2.55976,0-4.63487,2.0751-4.63487,4.63487s2.0751,4.63487,4.63487,4.63487h5.98477c-43.67931,30.89174-93.87565,51.32867-146.71094,59.73186l-3.67777.57936Z"/>
  <path class="cls-1" d="M103.65571,184.76151c0-2.55976-2.0751-4.63487-4.63487-4.63487s-4.63487,2.0751-4.63487,4.63487v23.17434c0,2.55976,2.0751,4.63487,4.63487,4.63487s4.63487-2.0751,4.63487-4.63487v-23.17434Z"/>
  <path class="cls-1" d="M99.02084,221.84045c-2.55976,0-4.63487,2.0751-4.63487,4.63487v4.63487c0,2.55976,2.0751,4.63487,4.63487,4.63487s4.63487-2.0751,4.63487-4.63487v-4.63487c0-2.55976-2.0751-4.63487-4.63487-4.63487Z"/>
  <path class="cls-1" d="M200.98793,221.84045c-2.55976,0-4.63487,2.0751-4.63487,4.63487v4.63487c0,2.55976,2.0751,4.63487,4.63487,4.63487s4.63487-2.0751,4.63487-4.63487v-4.63487c0-2.55976-2.0751-4.63487-4.63487-4.63487Z"/>
  <path class="cls-1" d="M205.6228,161.58717c0-2.55976-2.0751-4.63487-4.63487-4.63487s-4.63487,2.0751-4.63487,4.63487v23.17434c0,2.55976,2.0751,4.63487,4.63487,4.63487s4.63487-2.0751,4.63487-4.63487v-23.17434Z"/>
  <path class="cls-1" d="M205.6228,203.30098c0-2.55976-2.0751-4.63487-4.63487-4.63487s-4.63487,2.0751-4.63487,4.63487v4.63487c0,2.55976,2.0751,4.63487,4.63487,4.63487s4.63487-2.0751,4.63487-4.63487v-4.63487Z"/>
</svg>