<?xml version="1.0" encoding="UTF-8"?>
<svg id="Layer_1" data-name="Layer 1" xmlns="http://www.w3.org/2000/svg" viewBox="0 0 300 300">
  <defs>
    <style>
      .cls-1 {
        fill: #0051b1;
      }

      .cls-2 {
        fill: #fff;
      }
    </style>
  </defs>
  <path class="cls-1" d="M150,.23954C67.16016.23954,0,67.3997,0,150.23954s67.16016,150,150,150,150-67.16015,150-150S232.83985.23954,150,.23954Z"/>
  <path class="cls-2" d="M210.40254,157.67637h-53.37129v-20.54473c15.5414-.30761,30.35624-6.5543,41.50137-17.7,12.92109-12.92109,19.26094-30.76934,17.39414-48.96972-.34043-3.31582-2.96132-5.93672-6.27716-6.27715-18.19687-1.86621-36.04805,4.47246-48.96973,17.39355-4.31601,4.31601-7.89317,9.18398-10.67989,14.42871-2.78672-5.24473-6.36387-10.1127-10.67989-14.42871-12.92109-12.92109-30.76875-19.26152-48.96972-17.39355-3.31582.34043-5.93672,2.96133-6.27715,6.27715-1.8668,18.20039,4.47305,36.04863,17.39414,48.96972,11.14629,11.14629,25.95938,17.39238,41.50195,17.7v20.54472h-53.3707c-2.12402,0-4.13437.96036-5.46914,2.61211-1.33477,1.65235-1.85156,3.81973-1.40449,5.89628l14.22246,66.17403c1.95937,9.12187,9.8455,15.49278,19.17598,15.49278h67.75371c9.33048,0,17.21601-6.37089,19.17715-15.49335l14.22247-66.17344c.44648-2.07657-.06972-4.24395-1.40449-5.89628-1.33535-1.65176-3.3457-2.61211-5.46972-2.61211v-.00002ZM170.62383,91.52227c8.48027-8.48028,19.725-13.26621,31.54394-13.57851-.31289,11.81778-5.09883,23.06426-13.57852,31.54394-8.48027,8.48027-19.725,13.2668-31.54337,13.57851.3123-11.81778,5.09824-23.06425,13.57793-31.54395h.00002ZM111.41074,109.4877c-8.47969-8.47969-13.26562-19.72617-13.57851-31.54394,11.81778.31289,23.06425,5.09883,31.54395,13.57851s13.26562,19.72617,13.57851,31.54395c-11.81778-.31231-23.06425-5.09824-31.54395-13.57852ZM189.30584,229.40333c-.56368,2.62324-2.74571,4.38573-5.42872,4.38573h-67.75371c-2.683,0-4.86504-1.7625-5.42871-4.38573l-12.39375-57.66504h103.39862l-12.39374,57.66504Z"/>
</svg>