<?xml version="1.0" encoding="UTF-8"?>
<svg id="Layer_1" xmlns="http://www.w3.org/2000/svg" xmlns:svgjs="http://svgjs.dev/svgjs" version="1.1" viewBox="0 0 300 300">
  <!-- Generator: Adobe Illustrator 29.1.0, SVG Export Plug-In . SVG Version: 2.1.0 Build 142)  -->
  <defs>
    <style>
      .st0 {
        fill: #0051b1;
      }
    </style>
  </defs>
  <path class="st0" d="M32,160.6c3.9,2.3,8.4,3.5,12.9,3.4,1.9,0,3.9-.2,5.8-.6,2-.5,3.3-2.5,3-4.5-.7-5.9-3.8-11.2-8.5-14.7-8.5-6-19.8-4-20.2-3.9-2.2.5-3.6,2.6-3.2,4.9,1.2,6.3,4.9,11.9,10.3,15.4ZM40.5,150.8c1.9,1.3,3.3,3.1,4.1,5.3-5.7.2-11-2.9-13.5-8,3.3,0,6.6,1,9.3,2.8Z"/>
  <path class="st0" d="M120.3,154.6c3.9,2.3,8.4,3.5,12.9,3.4,1.9,0,3.9-.2,5.8-.6,2-.5,3.3-2.5,3-4.5-.7-5.9-3.8-11.2-8.5-14.7-8.5-6-19.8-4-20.2-3.9-2.2.5-3.6,2.6-3.2,4.8,0,0,0,0,0,0,1.2,6.3,4.9,11.9,10.3,15.4ZM128.8,144.8c1.9,1.3,3.3,3.1,4.1,5.3-5.7.2-11-2.9-13.5-8,3.3,0,6.6,1,9.3,2.8Z"/>
  <path class="st0" d="M186.8,134.4c-.5,0-11.7-2.1-20.2,3.9-4.8,3.5-7.9,8.8-8.5,14.7-.3,2.1,1,4,3,4.5,1.9.4,3.8.6,5.8.6,4.5,0,9-1.1,12.9-3.4,5.4-3.5,9.1-9.1,10.3-15.4.5-2.2-1-4.4-3.2-4.9ZM167.1,150c.8-2.1,2.3-3.9,4.1-5.2,2.8-1.8,6-2.8,9.4-2.8-2.5,5.1-7.8,8.3-13.5,8.1Z"/>
  <path class="st0" d="M65.8,178.3v-30.6c2.7-3.1,10.5-13.5,10-26.2-.3-8.4-4.2-16-11.5-22.6-1.5-1.3-3.7-1.4-5.3-.1-6.4,5.7-10.4,13.6-11.3,22.1-.6,8.9,2.7,17.7,10,26.3v31.2c-18.7,2.2-32.1,19.2-29.8,37.9,2.2,18.7,19.2,32.1,37.9,29.8,18.7-2.2,32.1-19.2,29.8-37.9-1.9-15.7-14.2-28-29.8-29.8ZM55.8,121.5c.5-5.1,2.5-10,5.9-13.9,3.6,3.9,5.8,8.9,6.1,14.2,0,6.4-2.1,12.6-5.8,17.8-4.5-6.1-6.5-12.1-6.1-18ZM61.7,238.2c-14.4,0-26.1-11.7-26.1-26.1s11.7-26.1,26.1-26.1,26.1,11.7,26.1,26.1c0,14.4-11.7,26.1-26.1,26.1Z"/>
  <path class="st0" d="M154,178.3v-44.6c2.7-3.1,10.5-13.5,10-26.2-.3-8.4-4.2-16-11.5-22.6-1.5-1.3-3.7-1.4-5.3-.1-6.4,5.7-10.4,13.6-11.3,22.1-.6,8.9,2.7,17.7,10,26.3v45.2c-18.7,2.2-32.1,19.2-29.8,37.9s19.2,32.1,37.9,29.8c18.7-2.2,32.1-19.2,29.8-37.9-1.9-15.7-14.2-28-29.8-29.8ZM144,107.5c.5-5.1,2.5-10,5.9-13.9,3.6,3.9,5.8,8.9,6.1,14.2,0,6.4-2.1,12.6-5.8,17.8-4.5-6.1-6.5-12.1-6.1-18ZM150,238.2c-14.4,0-26.1-11.7-26.1-26.1s11.7-26.1,26.1-26.1,26.1,11.7,26.1,26.1c0,14.4-11.7,26.1-26.1,26.1Z"/>
  <path class="st0" d="M242.3,178.3v-74.7c2.7-3.1,10.5-13.5,10-26.2-.3-8.4-4.2-16-11.5-22.6-1.5-1.3-3.7-1.4-5.3-.1-6.4,5.7-10.4,13.6-11.3,22.1-.6,8.9,2.7,17.7,10,26.3v75.3c-18.7,2.2-32.1,19.2-29.8,37.9s19.2,32.1,37.9,29.8c18.7-2.2,32.1-19.2,29.8-37.9-1.9-15.7-14.2-28-29.8-29.8ZM232.3,77.4c.5-5.1,2.5-10,5.9-13.9,3.6,3.9,5.8,8.9,6.1,14.2,0,6.4-2.1,12.6-5.8,17.8-4.5-6.1-6.5-12.1-6.1-18ZM238.3,238.2c-14.4,0-26.1-11.7-26.1-26.1s11.7-26.1,26.1-26.1,26.1,11.7,26.1,26.1c0,14.4-11.7,26.1-26.1,26.1Z"/>
  <path class="st0" d="M208.5,122.5c3.9,2.3,8.4,3.5,12.9,3.4,1.9,0,3.9-.2,5.8-.6,2-.5,3.3-2.5,3-4.5-.7-5.9-3.8-11.2-8.5-14.7-8.5-6-19.8-4-20.2-3.9-2.2.5-3.6,2.6-3.2,4.9,0,0,0,0,0,0,1.2,6.3,4.9,11.9,10.3,15.4ZM217,112.7c1.9,1.3,3.3,3.1,4.1,5.3-5.7.2-11-2.9-13.5-8,3.3,0,6.6,1,9.3,2.8Z"/>
  <path class="st0" d="M208.5,148.6c3.9,2.3,8.4,3.5,12.9,3.4,1.9,0,3.9-.2,5.8-.6,2-.5,3.3-2.5,3-4.5-.7-5.9-3.8-11.2-8.5-14.7-8.5-6-19.8-4-20.2-3.9-2.2.5-3.6,2.6-3.2,4.8,0,0,0,0,0,0,1.2,6.3,4.9,11.9,10.3,15.4ZM217,138.8c1.9,1.3,3.3,3.1,4.1,5.3-5.7.2-11-2.9-13.5-8,3.3,0,6.6,1,9.3,2.8Z"/>
  <path class="st0" d="M246.3,120.8c-.3,2.1,1,4,3,4.5,1.9.4,3.8.6,5.8.6,4.5,0,9-1.1,12.9-3.4,5.4-3.5,9.1-9.1,10.3-15.4.5-2.2-.9-4.4-3.1-4.8,0,0,0,0,0,0-.5,0-11.7-2.1-20.2,3.9-4.8,3.5-7.9,8.8-8.5,14.7ZM259.5,112.7c2.8-1.8,6-2.8,9.4-2.8-2.5,5.1-7.8,8.3-13.5,8.1.8-2.1,2.3-3.9,4.1-5.2h0Z"/>
  <path class="st0" d="M275.1,128.3c-.5,0-11.7-2.1-20.2,3.9-4.8,3.5-7.9,8.8-8.5,14.7-.3,2.1,1,4,3,4.5,1.9.4,3.8.6,5.8.6,4.5,0,9-1.1,12.9-3.4,5.4-3.5,9.1-9.1,10.3-15.4.5-2.2-.9-4.4-3.1-4.8,0,0,0,0,0,0ZM255.4,144c.8-2.1,2.3-3.9,4.1-5.2,2.8-1.8,6-2.8,9.4-2.8-2.5,5.1-7.8,8.3-13.5,8.1Z"/>
  <path class="st0" d="M158,220.2h-5.7l4.1-3.7c3.6-2.9,5.3-7.7,4.4-12.2-.9-3.8-3.9-6.8-7.8-7.8-4.5-1.1-9.3.7-13.2,5.1-1.5,1.7-1.3,4.2.3,5.7,1.7,1.5,4.2,1.3,5.7-.3,1.8-2.1,3.7-3,5.3-2.6.9.2,1.7,1,1.9,1.9.2,1.7-.6,3.4-2,4.3l-11.8,10.8c-1.6,1.5-1.8,4-.3,5.7.8.8,1.8,1.3,3,1.3h16c2.2,0,4-1.8,4-4s-1.8-4-4-4h0Z"/>
  <path class="st0" d="M250,198.6c-.6-1.5-2.1-2.4-3.7-2.4h-16c-2.2,0-4,1.8-4,4s1.8,4,4,4h6.6l-2.5,2.6c-1.1,1.2-1.4,2.9-.7,4.4.7,1.5,2.1,2.4,3.8,2.4,2.6,0,4.7,1.5,4.7,3.3s-2.2,3.3-4.7,3.3c-1.5,0-3-.6-4.1-1.7-1.4-1.7-3.9-1.9-5.7-.5-1.7,1.4-1.9,3.9-.5,5.7,2.6,3,6.3,4.6,10.2,4.6,7,0,12.8-5.1,12.8-11.4,0-3.8-2.1-7.4-5.4-9.3l4.5-4.6c1.1-1.2,1.4-2.9.8-4.4Z"/>
  <path class="st0" d="M67.8,220.2h-2v-20.1c0-2.2-1.8-4-4-4-1.1,0-2.2.5-3,1.4l-6.1,6.9c-1.5,1.7-1.3,4.2.3,5.7,1.3,1.2,3.2,1.3,4.7.4v9.8h-2c-2.2,0-4,1.8-4,4s1.8,4,4,4h11.9c2.2,0,4-1.8,4-4s-1.8-4-4-4Z"/>
</svg>