<?xml version="1.0" encoding="UTF-8"?>
<svg id="Layer_1" xmlns="http://www.w3.org/2000/svg" xmlns:svgjs="http://svgjs.dev/svgjs" version="1.1" viewBox="0 0 300 300">
  <!-- Generator: Adobe Illustrator 29.1.0, SVG Export Plug-In . SVG Version: 2.1.0 Build 142)  -->
  <defs>
    <style>
      .st0 {
        fill: #0051b1;
      }
    </style>
  </defs>
  <g id="_22-Scale">
    <path class="st0" d="M238.6,198.7l-24.6-83.2c-2.7-9-11-15.2-20.4-15.3h-22.3v-21.3h35.5c13.7,0,24.8-11.1,24.9-24.9v-7.1c0-2-1.6-3.6-3.5-3.6H71.9c-2,0-3.6,1.6-3.6,3.5h0v7.1c0,13.7,11.1,24.8,24.9,24.9h35.5v21.3h-22.3c-9.4,0-17.7,6.2-20.4,15.3l-24.6,83.2c0,.3-.1.7-.1,1v32c0,5.9,4.8,10.6,10.7,10.7v10.7c0,2,1.6,3.6,3.5,3.6h21.3c2,0,3.6-1.6,3.6-3.5h0v-10.7h99.4v10.7c0,2,1.6,3.6,3.5,3.6h21.3c2,0,3.6-1.6,3.6-3.5h0v-10.7c5.9,0,10.6-4.8,10.7-10.7v-32c0-.3,0-.7-.1-1ZM75.4,54.1v-3.6h149.2v3.6c0,9.8-8,17.7-17.8,17.8h-113.7c-9.8,0-17.7-8-17.8-17.8ZM135.8,79h28.4v21.3h-28.4v-21.3ZM93.2,249.4h-14.2v-7.1h14.2v7.1ZM221,249.4h-14.2v-7.1h14.2v7.1ZM231.7,231.7c0,2-1.6,3.6-3.6,3.6H71.9c-2,0-3.6-1.6-3.6-3.6v-31.4l24.5-82.7c1.8-6,7.3-10.1,13.6-10.2h87.1c6.3,0,11.8,4.2,13.6,10.2l24.5,82.7v31.4ZM150,118c-29.4,0-53.3,23.9-53.3,53.3s23.9,53.3,53.3,53.3,53.3-23.9,53.3-53.3c0-29.4-23.9-53.2-53.3-53.3ZM189.1,174.9h6.9c-.7,9.8-4.6,19-11,26.5l-4.9-4.9c-1.4-1.4-3.6-1.4-5,0s-1.4,3.6,0,5h0l4.9,4.9c-7.4,6.4-16.7,10.2-26.5,11v-6.9c0-2-1.6-3.6-3.6-3.6s-3.6,1.6-3.6,3.6v6.9c-9.8-.7-19-4.6-26.5-11l4.9-4.9c1.4-1.4,1.4-3.6,0-5-1.4-1.4-3.6-1.4-5,0l-4.9,4.9c-6.4-7.4-10.2-16.7-11-26.5h6.9c2,0,3.6-1.6,3.6-3.6s-1.6-3.6-3.6-3.6h-6.9c.7-9.8,4.6-19,11-26.5l4.9,4.9c1.4,1.4,3.6,1.4,5,0,1.4-1.4,1.4-3.6,0-5h0l-4.9-4.9c7.4-6.4,16.7-10.2,26.5-11v6.9c0,2,1.6,3.6,3.6,3.6s3.6-1.6,3.6-3.6v-6.9c9.8.7,19,4.6,26.5,11l-4.9,4.9c-1.4,1.4-1.4,3.6,0,5s3.6,1.4,5,0h0l4.9-4.9c6.4,7.4,10.2,16.7,11,26.5h-6.9c-2,0-3.6,1.6-3.6,3.6s1.6,3.6,3.6,3.6ZM165.2,151l-10.7,10.7c-1.4-.7-3-1.1-4.6-1.1-5.9,0-10.7,4.8-10.7,10.7s4.8,10.7,10.7,10.7,10.7-4.8,10.7-10.7c0-1.6-.4-3.1-1.1-4.6l10.7-10.7c1.4-1.4,1.4-3.6,0-5-1.4-1.4-3.6-1.4-5,0ZM150,174.9c-2,0-3.6-1.6-3.6-3.6s1.6-3.6,3.6-3.6,3.6,1.6,3.6,3.6c0,2-1.6,3.6-3.6,3.6Z"/>
  </g>
</svg>