<?xml version="1.0" encoding="UTF-8"?>
<svg id="Layer_1" data-name="Layer 1" xmlns="http://www.w3.org/2000/svg" viewBox="0 0 300 300">
  <defs>
    <style>
      .cls-1 {
        fill: #0051b1;
      }

      .cls-2 {
        fill: #fff;
      }
    </style>
  </defs>
  <path class="cls-1" d="M150,.23954C67.16016.23954,0,67.3997,0,150.23954s67.16016,150,150,150,150-67.16015,150-150S232.83985.23954,150,.23954Z"/>
  <path class="cls-2" d="M193.16602,162.79101c-2.47852,2.79492-4.8457,5.71876-7.47657,8.37305-10.6582,10.76953-23.40235,17.92969-38.37891,20.37891-25.70508,4.20703-47.34375-3.89648-65.12109-22.69921-4.20943-4.58554-7.8401-9.67044-10.81055-15.14062-1.40229-2.21347-1.42275-5.03203-.05273-7.26562,11.51367-20.47851,28.49414-33.82617,51.75586-37.91015,22.46484-3.94922,42.41602,2.31445,59.44336,17.47852,3.83788,3.42187,7.17187,7.41211,10.46484,10.85157,1.75781-3.06445,3.43945-6.63281,5.71876-9.74414,6.14063-8.38476,14.49024-13.37695,24.74999-15.10547,2.80032-.55193,5.51784,1.27075,6.06979,4.07107.053.26895.08453.5417.09427.81565v.94336c0,21.47461-.04102,42.95508.04687,64.45312,0,3.25195-2.57227,6.7793-6.89648,5.67774-1.56446-.39843-3.16992-.68555-4.6875-1.17188-11.57813-3.86133-19.73437-11.40234-24.32812-22.7461-.13477-.33984-.28126-.67382-.43359-1.00195-.03723-.09454-.09077-.1818-.1582-.25781v-.00002ZM106.66993,147.3164c4.43662.04045,8.06599-3.52334,8.10644-7.95996.04046-4.43662-3.52334-8.06599-7.95996-8.10644-4.34766-.07617-8.0918,3.42774-8.16797,7.61719-.07617,4.80469,3.35742,8.40821,8.02149,8.44922Z"/>
</svg>