<?xml version="1.0" encoding="UTF-8"?>
<svg id="Layer_1" data-name="Layer 1" xmlns="http://www.w3.org/2000/svg" viewBox="0 0 300 300">
  <defs>
    <style>
      .cls-1 {
        fill: #0051b1;
      }
    </style>
  </defs>
  <path class="cls-1" d="M76.9676,124.74441c7.68181,0,13.93787-6.25174,13.93787-13.93787s-6.25174-13.93787-13.93787-13.93787-13.93787,6.25174-13.93787,13.93787,6.25174,13.93787,13.93787,13.93787ZM76.9676,105.51395c2.92064,0,5.29691,2.37626,5.29691,5.29691s-2.37626,5.29691-5.29691,5.29691-5.29691-2.37626-5.29691-5.29691,2.37626-5.29691,5.29691-5.29691Z"/>
  <path class="cls-1" d="M279.50301,78.12644c-.03024-.95482.00432-1.90101-.07778-2.86016-.11234-1.30478-.37155-2.60957-.57894-3.91435-.1469-.9073-.2117-1.8146-.4018-2.7219-.00432-.03024-.02161-.05616-.02593-.08641-.01295-.05185-.01295-.10801-.02593-.15986-.03024-.12961-.09937-.24195-.13826-.36292-.08209-.27651-.16851-.5487-.30243-.79929-.01729-.03024-.0432-.05616-.06049-.09073-.60486-1.0542-1.61586-1.85781-2.87312-2.10839-.93322-.18578-1.90534-.37156-2.79535-.50549-8.77922-1.41712-17.73556-.60919-26.02656,2.18616-.15122.05185-.30675.08209-.45797.13394-.34565.12097-.67399.28083-1.01532.40612-4.66179,1.71955-9.10324,4.03965-13.12561,7.00782-.01295.00864-.02161.01728-.03456.02592-.00432,0-.01295.00864-.01729.01296-.05617.04321-.09937.08209-.15122.1253-2.17753,1.62018-4.20814,3.36133-6.03571,5.19321-.12529.12097-.24195.25923-.34996.39748-.54006.55302-1.03692,1.14061-1.55106,1.71523-.31107.34996-.63943.68696-.94619,1.04556-.63943.75608-1.24429,1.53809-1.84052,2.32874-.20307.26787-.42341.52278-.62215.79497-1.57698,2.1516-2.99841,4.41121-4.24704,6.76587-.00864.01728-.01729.03456-.02593.05184s0,.01296,0,.01296c-1.18814,2.20345-2.21209,4.50194-3.05458,6.8782-.44933-.46229-.92459-.89002-1.38255-1.34367-1.00234-.99371-2.00039-2.00038-3.03729-2.95521-.62215-.57462-1.2659-1.11036-1.89669-1.67202-.90298-.80361-1.793-1.62018-2.71759-2.39355-.89866-.75176-1.82325-1.456-2.7435-2.18184-.68696-.54006-1.35231-1.10604-2.05222-1.62882-1.12332-.84681-2.27689-1.65042-3.42614-2.45835-.51845-.36292-1.01963-.75176-1.5424-1.10604-1.24862-.84681-2.52316-1.6461-3.79771-2.44971-.44501-.28083-.88137-.58327-1.3307-.85545-.86842-.53142-1.75844-1.01531-2.63981-1.52513,12.68061-15.42411,12.51211-37.25981,12.49482-38.2708-.03888-2.04359-1.49921-3.78474-3.50823-4.16926-59.91641-11.47951-88.83769,20.92408-94.62281,28.42011-1.2875.25491-2.57933.4839-3.85819.78201-31.25002,7.26272-58.09316,26.22963-75.58246,53.41408-.91594,1.42144-.91594,3.25332,0,4.67476,8.35149,12.98304,19.31686,24.48847,31.9197,33.57444-13.99835,11.56593-22.23751,28.73119-22.23751,47.12779,0,33.77751,27.48257,61.2644,61.2644,61.2644,32.81404,0,59.60965-25.95744,61.1175-58.40424,5.71167.96778,11.61776,1.45601,17.69669,1.45601,7.83303,0,15.95553-.80361,24.30701-2.4065,2.00902-.38884,3.46935-2.12568,3.50823-4.16926.01729-1.011.18578-22.90719-12.54667-38.33562,8.96068-5.14136,17.19982-11.36286,24.61376-18.62559.6524-.63943,1.35231-1.22702,1.99607-1.88373.84681,2.38922,1.87941,4.69636,3.0589,6.88684.61784,1.18813,1.27887,2.34603,1.9831,3.48231.22034.35428.47094.69128.69559,1.03692.50118.76472.99803,1.52945,1.53377,2.26826.32404.44501.67832.8641,1.01532,1.29614.47957.61784.95051,1.23997,1.46033,1.8362.39316.45797.81657.89434,1.2227,1.33935.44069.47957.85978.97644,1.31775,1.44304.10802.14258.23331.28083.36292.41477,1.88805,1.88805,3.9878,3.68969,6.23877,5.34443,11.5184,8.48974,26.31604,12.03253,40.57795,9.73837.03456-.00432.06912-.01295.10368-.01729.02161,0,.03888,0,.06049-.00864l.24626-.04753c.80793-.12961,1.63313-.27651,2.42811-.43638,1.23134-.24626,2.22504-1.03259,2.83423-2.06087.03024-.04753.07344-.08641.09937-.13393.10802-.20307.16417-.42341.24195-.64374.0648-.17714.15553-.33699.19875-.52277.00432-.02161.00432-.04753.01295-.07344,0-.00432.00432-.01295.00432-.01729.12961-.60055.16417-1.20109.27219-1.80164.2938-1.63747.59623-3.27492.73881-4.90807.08641-.9721.04753-1.93125.07778-2.89905.0432-1.27453.13826-2.54908.09505-3.81498-.03888-1.06283-.20307-2.10407-.30675-3.15827-.11234-1.1579-.16417-2.32441-.34996-3.46935-.17282-1.05851-.46662-2.08246-.69991-3.1237-.25058-1.11468-.44501-2.24665-.76472-3.34405-.2938-1.01099-.70856-1.97878-1.06283-2.97249-.38884-1.09308-.73016-2.19913-1.18814-3.26628-.40613-.93754-.92027-1.82325-1.37823-2.73486-.54006-1.07148-1.03259-2.16456-1.64179-3.20147-.50982-.85977-1.119-1.66339-1.67635-2.49723-.68696-1.02828-1.3307-2.07815-2.09112-3.06322-.6135-.79497-1.32638-1.52513-1.99173-2.28986-.76905-.8857-1.4776-1.81028-2.31146-2.65709-.10368-.13394-.22466-.26787-.34565-.38884-1.23565-1.23565-2.50155-2.38922-3.81498-3.46934,1.31343-1.08444,2.57933-2.23369,3.81498-3.46934.11665-.11665.23331-.24626.33268-.3802.75176-.76473,1.39119-1.6029,2.09112-2.40219.74313-.84681,1.53377-1.65907,2.21641-2.54477.73016-.94618,1.34367-1.95286,2.00471-2.93793.58326-.86842,1.2227-1.70659,1.74979-2.60525.62647-1.06284,1.13197-2.17752,1.68067-3.27492.44069-.88138.94186-1.73683,1.33502-2.63981.50118-1.15357.87274-2.35034,1.29182-3.53416.3154-.89866.69559-1.77571.96347-2.68734.3586-1.21406.58326-2.46699.85546-3.70697.19875-.92026.46228-1.82325.61784-2.75214.20307-1.25294.27651-2.52748.38884-3.7977.08641-.94187.23763-1.87509.27219-2.82559.04753-1.27886-.0432-2.57069-.08643-3.8582ZM267.19829,97.91855c-.13393.30675-.22466.63079-.36724.93322-.20307.44069-.47094.85114-.68696,1.28319-2.15592,4.28592-4.95559,8.28236-8.46382,11.78194-2.31577,2.31577-4.79142,4.30752-7.36209,5.91473-.59623.37588-1.02827.90298-1.3696,1.4776-.02593.04321-.04753.08641-.07344.12962-.1469.27219-.27651.54438-.36292.83817-.01295.03889-.03456.06913-.04753.11233-.02593.09073-.01295.18146-.03024.27219-.05617.28947-.10368.57895-.10368.87705,0,.30243.0432.58758.10368.87705.02161.09073.00432.18146.03024.27219.00864.02593.03024.04321.03888.06913.28516,1.00235.89002,1.90533,1.81893,2.4886,2.57069,1.60722,5.04632,3.59896,7.36209,5.91473,10.30434,10.2741,14.97478,24.64402,12.77998,38.92752-11.90724,1.82756-24.16443-1.17517-33.7127-8.20026-.03456-.02593-.06049-.05185-.09505-.07778-1.44304-1.06717-2.75215-2.22504-4.01373-3.40021-.38884-.3586-.80361-.7172-1.16653-1.08012-3.23604-3.23172-5.93634-6.90844-8.0577-10.9913-1.54674-2.97249-2.7651-6.06163-3.61625-9.15942-.26787-1.04988-.5487-2.09975-.74313-3.14963-.29811-1.63746-1.5165-2.95521-3.11939-3.38726-.37589-.09937-.75608-.15122-1.13197-.15122-.01295,0-.02161.00864-.03456.00864-.5487,0-1.0758.13825-1.57698.34132-.11665.04752-.22466.09937-.33699.15553-.49253.25059-.95483.56166-1.32638.99371-9.70379,11.27213-21.2438,20.39267-34.33052,27.11533-10.66727,5.59069-22.19431,9.39704-34.30461,11.3283-.25923-.38884-.55734-.74313-.82521-1.12332-.47526-.67399-.95915-1.33502-1.456-1.98742-.5919-.76905-1.20109-1.52081-1.82325-2.25961-.52278-.62215-1.05419-1.23997-1.59858-1.8362-.65671-.7172-1.33935-1.4128-2.0263-2.09544-.56599-.56599-1.13196-1.12765-1.72387-1.67203-.72584-.66535-1.4776-1.30046-2.23369-1.92693-.60486-.5055-1.20109-1.01532-1.82325-1.49489-.79929-.6135-1.6245-1.18814-2.45404-1.76276-.62647-.43204-1.23565-.88137-1.87941-1.29182-.89002-.5703-1.81028-1.08444-2.72622-1.60723-.62215-.35428-1.23134-.73016-1.86644-1.06284-1.03691-.54006-2.10407-1.01963-3.17123-1.50352-.55302-.25059-1.08876-.53142-1.65474-.76473-.34564-.14258-.69992-.25923-1.04556-.39748,2.46267-8.4811,3.78474-17.23007,3.78474-26.10002,0-17.28623-4.71364-33.94168-13.64407-48.57515,6.60169-1.16221,13.30276-1.75843,19.9995-1.75843,18.57807,0,36.60743,4.51058,52.7012,12.86639l.10368.05184c12.79727,6.66218,24.3675,15.74815,33.99785,26.96412,1.08444,1.26158,2.80832,1.7714,4.40689,1.35663,1.60723-.43637,2.82127-1.75412,3.1237-3.39158.1901-1.04123.46662-2.08247.74313-3.15827.85978-3.11939,2.08246-6.21717,3.62489-9.17237,2.13863-4.03965,4.84758-7.73366,8.06202-10.98698,1.5424-1.54241,3.27492-3.03729,5.24075-4.5365,9.55691-7.02942,21.82273-10.02351,33.73863-8.21323.27219,1.78436.44069,3.57303.5055,5.35308.23763,6.77883-1.09307,13.44533-3.76746,19.57609l-.01294-.00433ZM189.86171,44.4267c-.48821,6.52392-2.66574,20.65189-11.57889,30.39889-.06049-.03024-.12097-.06481-.18146-.09505-5.41355-2.60525-11.02154-4.81302-16.7721-6.60169-.07344-.0216-.1469-.05185-.22034-.07345-5.47837-1.69363-11.09931-2.98977-16.80234-3.90571-.36292-.05616-.72152-.13825-1.08012-.1901-1.47328-.22467-2.95521-.38884-4.43713-.56166-.55734-.06481-1.11036-.15554-1.67202-.2117-.99371-.09937-1.99606-.15122-2.9941-.22467-3.11507-.23763-6.24309-.39748-9.39272-.39748-3.48231,0-6.96461.19874-10.43828.49254,11.3283-10.09264,35.61804-25.11495,75.57382-18.62991h-.00432ZM29.87869,121.53862c2.00038-2.95521,4.13038-5.79376,6.36839-8.5243.72152-.88138,1.52513-1.68498,2.27257-2.54044,1.56401-1.79732,3.11507-3.60328,4.77845-5.29259.94618-.96347,1.97446-1.83188,2.95089-2.75647,1.55537-1.47328,3.09779-2.96817,4.73092-4.35072,1.10172-.93322,2.27689-1.76708,3.41318-2.65278,1.6029-1.25294,3.18851-2.52748,4.85622-3.69401,1.22702-.85545,2.51452-1.61586,3.7761-2.42379,1.66339-1.06716,3.31381-2.1516,5.02904-3.12803,1.33935-.76041,2.73054-1.43008,4.10014-2.13431,1.71955-.8857,3.42614-1.78868,5.1889-2.59229,1.44736-.65671,2.93793-1.21837,4.41553-1.8146,1.75843-.70856,3.51255-1.43008,5.31419-2.05655,1.55105-.53574,3.14099-.98507,4.72229-1.456,1.32638-.39748,2.66141-.78201,4.0094-1.13197,9.11621,13.85578,13.92058,29.88475,13.92058,46.54885,0,7.97561-1.11036,15.85616-3.30085,23.49045-.42341-.10369-.85977-.15122-1.28319-.24195-.36724-.08209-.73016-.1901-1.10172-.26355-.47093-.09073-.94618-.13394-1.41711-.2117-1.28319-.22467-2.56636-.41477-3.85819-.55302-.46661-.05184-.92459-.12097-1.3912-.15986-.39748-.03456-.79497-.04321-1.19245-.06913-1.27022-.08209-2.53612-.12097-3.80202-.12529-.57462,0-1.14925-.01728-1.72387-.00432-.32404.00864-.64375.01728-.96779.03024-1.21837.04752-2.42811.15553-3.63785.27651-.68696.06913-1.37392.12529-2.05655.21602-.04321.00432-.08209.00864-.12529.01296-.21602.03024-.43205.03889-.64807.06913-1.14492.16418-2.26825.40612-3.40022.63511-.68264.13825-1.36959.25491-2.04791.41909-1.36959.32404-2.71758.72584-4.06125,1.14492-.66536.20738-1.33503.38453-1.99174.60919-.42773.15122-.85545.31108-1.27886.47093-.50118.18578-.98507.41909-1.48624.61783-.44501.18146-.89002.36292-1.33071.55302-.5703.24626-1.15357.45365-1.71523.7172-.45365.2117-.8857.46229-1.33503.68696-.674.33699-1.32207.70856-1.9831,1.07148-.73016.4018-1.48624.75608-2.19912,1.18814-11.95044-8.1657-22.41465-18.65151-30.51122-30.56739v-.01295ZM92.01582,257.19735c-29.01634,0-52.62344-23.6071-52.62344-52.62344,0-17.5973,8.73169-33.93736,23.36947-43.72758,1.51217-1.01963,3.08482-1.93125,4.68772-2.77807.24627-.12961.49254-.25923.7388-.38453,10.23521-5.19321,22.12085-6.89549,33.51827-4.79573.33268.06049.66103.12529.99371.19441,1.78004.36292,3.54711.79496,5.29259,1.34799,12.13623,3.84091,22.45353,11.97205,29.06819,22.9331,4.55811,7.47875,7.14607,16.12836,7.51763,25.30936.06913.62215.06049,1.27887.06049,1.90534,0,29.01634-23.6071,52.62344-52.62344,52.62344v-.00429ZM152.94322,198.5166c-.68264-7.03807-2.59228-13.8817-5.5907-20.20255,10.79687-2.00902,21.13578-5.4006,30.84391-10.1488,8.94339,9.71676,11.15548,23.93114,11.65233,30.4853-13.0997,2.14295-25.45194,2.03063-36.90985-.13826l.00432.00432Z"/>
  <path class="cls-1" d="M121.48149,190.66628h-15.55804v-15.55805c0-2.38923-1.93126-4.32048-4.32048-4.32048h-19.1786c-2.38922,0-4.32048,1.93125-4.32048,4.32048v15.55805h-15.55804c-2.38922,0-4.32048,1.93125-4.32048,4.32048v19.1786c0,2.38923,1.93125,4.32048,4.32048,4.32048h15.55804v15.55372c0,2.38923,1.93125,4.32048,4.32048,4.32048h19.1786c2.38922,0,4.32048-1.93125,4.32048-4.32048v-15.55372h15.55804c2.38922,0,4.32048-1.93125,4.32048-4.32048v-19.1786c0-2.38923-1.93126-4.32048-4.32048-4.32048ZM117.16101,209.84489h-15.55804c-2.38922,0-4.32048,1.93125-4.32048,4.32048v15.55372h-10.53765v-15.55372c0-2.38923-1.93126-4.32048-4.32048-4.32048h-15.55804v-10.53765h15.55804c2.38922,0,4.32048-1.93125,4.32048-4.32048v-15.55805h10.53765v15.55805c0,2.38923,1.93126,4.32048,4.32048,4.32048h15.55804v10.53765Z"/>
</svg>