<?xml version="1.0" encoding="UTF-8"?>
<svg id="Layer_1" data-name="Layer 1" xmlns="http://www.w3.org/2000/svg" viewBox="0 0 300 300">
  <defs>
    <style>
      .cls-1 {
        fill: #0051b1;
      }
    </style>
  </defs>
  <g>
    <path class="cls-1" d="M51.6916,112.51186v68.35547h-7.85651c-2.11761.04315-3.82397,1.74951-3.86707,3.86713-.04437,2.18011,1.68695,3.9834,3.86707,4.02777h7.85651v59.21857c.01184,9.79913,7.95319,17.73962,17.75226,17.75037h156.42828c9.79822-.01129,17.7381-7.95209,17.74817-17.75037v-50.94006h7.35156c2.16022-.01398,3.90802-1.76172,3.92194-3.92194.0141-2.18011-1.74182-3.95886-3.92194-3.97296h-7.35156v-52.01965h7.35156c2.16022-.01398,3.90802-1.76172,3.92194-3.92194.0141-2.18011-1.74182-3.95886-3.92194-3.97296h-7.35156v-19.86432c.33356-.22119.72601-.38623,1.04083-.62402,3.92792-2.7403,8.62738-4.15656,13.41541-4.04291,2.16022-.01398,3.90796-1.76172,3.92194-3.92194.0141-2.18011-1.74182-3.95886-3.92194-3.97296-5.03693-.13556-10.02136,1.05176-14.45624,3.44348l-7.89508,4.23181c-7.30212,2.64471-15.42188,1.71265-21.93481-2.51801-10.65082-6.7804-24.2644-6.77985-34.91467.0014-3.92932,2.74054-8.63007,4.1568-13.41931,4.04315-14.6217-.3028-14.76556-9.42181-30.8595-9.20135-16.10931-.21802-16.25214,8.90045-30.88959,9.2019-14.65314-.3017-14.78973-9.42139-30.90991-9.2019-6.66827-.13312-13.1944,1.93652-18.56732,5.88824-.15729.07428-.30951.15869-.45581.25275-3.63574,2.01801-7.72748,3.07172-11.88568,3.06091-2.13275.03265-3.85388,1.75366-3.88672,3.88641-.03363,2.18005,1.70642,3.97455,3.88647,4.00812,3.32397.11536,6.6424-.35522,9.80322-1.3902ZM59.58668,108.50436c3.95886-2.48413,8.53741-3.80261,13.21106-3.80438,14.63885.30164,14.79938,9.42114,30.90942,9.20184,16.11432.21832,16.24542-8.89996,30.88983-9.20184,14.62128.29968,14.76923,9.42035,30.85974,9.20184,6.21252.12439,12.31128-1.67725,17.45905-5.15747,8.15515-5.31586,18.67975-5.31555,26.83466.00067,7.71179,4.92322,17.13812,6.37726,25.97498,4.00677v16.4798h-7.34766c-2.11761.04315-3.82397,1.74951-3.86707,3.86713-.04437,2.18011,1.68695,3.9834,3.86707,4.02777h7.34766v52.01953h-7.34766c-2.11761.04309-3.82397,1.74945-3.86707,3.86707-.04437,2.18011,1.68695,3.9834,3.86707,4.02783h7.34766v50.93988c-.00635,5.43958-4.41376,9.84784-9.85327,9.85535H69.44405c-5.44092-.00568-9.85059-4.41437-9.85736-9.85535v-59.21875h6.84259c.01697.00012.034.00012.05096,0,2.18018-.0141,3.93604-1.79285,3.92194-3.97296-.01404-2.18011-1.79279-3.93604-3.9729-3.92194h-6.84259v-72.36279Z"/>
    <path class="cls-1" d="M116.67534,197.85431c-17.17019,0-31.63027,11.06578-37.0506,15.8247-.23073.20161-.44765.41853-.64926.64926-2.48212,2.84071-2.19143,7.1557.64926,9.63782,5.42012,4.75705,19.8802,15.82282,37.05039,15.82282,16.96393,0,31.10065-10.61735,36.85255-15.6462,3.63746,3.20351,12.5454,11.04914,12.5454,11.04914.72075.63462,1.64809.98477,2.60841.98494,2.18054.00041,3.94854-1.76696,3.94893-3.94751v-25.00936c-.01185-.83213-.28448-1.63957-.77948-2.30858-1.30626-1.76543-3.79636-2.13766-5.56179-.8314l-12.575,9.58345c-5.6288-4.95873-19.89084-15.80908-37.03882-15.80908v-.00002ZM159.68178,219.0415l5.05388-3.8492v8.29965s-5.05388-4.45045-5.05388-4.45045ZM147.59624,218.81586c-19.72263,17.16535-42.25076,17.09425-61.84563.00482,19.62002-17.11666,42.22284-17.12967,61.84572-.00482h-.00009Z"/>
    <path class="cls-1" d="M213.72855,165.95068v-25.00936c-.01175-.8324-.28448-1.64013-.77972-2.30929-1.30639-1.76516-3.79639-2.13707-5.56155-.83068l-12.57165,9.58475c-5.62901-4.95898-19.89084-15.80863-37.03834-15.80863-17.16613,0-31.63395,11.06384-37.05407,15.8209-.22554.19768-.43782.40997-.63551.63551-2.49073,2.84172-2.2062,7.16452.63551,9.65525,5.41996,4.7571,19.88778,15.82095,37.05408,15.82095,16.96368,0,31.1002-10.61571,36.85235-15.64432,3.63668,3.20317,12.54176,11.04713,12.54176,11.04713.72129.63463,1.64907.98479,2.60981.98496,2.17485-.01235,3.93488-1.77231,3.94732-3.94717ZM188.69828,152.5388c-19.72293,17.16509-42.25539,17.08993-61.8496.00287,19.62026-17.11304,42.22742-17.12849,61.8496-.00287ZM205.83371,157.21299l-5.05003-4.44857,5.05003-3.84924v8.29782Z"/>
  </g>
  <circle class="cls-1" cx="82.54839" cy="76.1275" r="6.58491"/>
  <circle class="cls-1" cx="82.54839" cy="40.85374" r="6.58491"/>
  <circle class="cls-1" cx="118.39094" cy="82.7124" r="6.58491"/>
  <circle class="cls-1" cx="89.1333" cy="144.03995" r="6.58491"/>
  <circle class="cls-1" cx="82.54839" cy="196.5663" r="6.58491"/>
  <circle class="cls-1" cx="136.50885" cy="120.37806" r="6.58491"/>
</svg>