<?xml version="1.0" encoding="UTF-8"?>
<svg id="Layer_1" data-name="Layer 1" xmlns="http://www.w3.org/2000/svg" viewBox="0 0 300 300">
  <defs>
    <style>
      .cls-1 {
        fill: #0051b1;
      }
    </style>
  </defs>
  <path class="cls-1" d="M188.93271,150.95039c6.25486,10.18306,16.43217,17.33607,28.13189,19.77219.71634.0942,1.44469.02622,2.13124-.19891,2.53066-.82982,3.90945-3.55404,3.07963-6.08471l-8.80554-25.80538,8.80525-25.81112c.22629-.6883.2945-1.41876.19955-2.13707-.34886-2.63907-2.77106-4.49565-5.41012-4.14678-11.70003,2.43637-21.87746,9.58987-28.13212,19.77346-9.15703-6.38416-39.89375-15.76383-63.26283-5.19549-8.42772,3.31582-16.19064,8.11982-22.91834,14.18276-1.10912,1.10693-1.59217,2.69463-1.2875,4.2317.15375.92477.59732,1.77679,1.26671,2.43312,9.78926,8.92605,21.81688,15.02891,34.80112,17.65822,17.62073,3.19035,35.80239.12287,51.40107-8.672ZM135.28812,127.98445c1.59481,3.32819,2.40067,6.97932,2.35494,10.6696.03122,3.68164-.77306,7.32239-2.3523,10.64825-2.02318-.52015-4.00828-1.17855-5.9413-1.97059-18.98638-8.612-19.09676-8.74551-.07051-17.34824,1.95631-.79942,3.96382-1.46725,6.00917-1.99903ZM144.86382,151.09401c3.10115-8.01468,3.10054-16.89802-.00165-24.9123,26.33223-2.26167,38.64171,9.64724,43.28507,10.04593h3.30082c1.74184-.00057,3.34604-.94679,4.1892-2.47096,3.29349-6.13202,8.2744-11.19244,14.3535-14.58263l-6.10606,17.89985c-.34256,1.00967-.34256,2.10414,0,3.11382l6.10832,17.90201c-6.07994-3.39093-11.0616-8.45212-14.35585-14.58497-.84314-1.52414-2.44731-2.47034-4.18911-2.47091-1.69732.06158-4.52593-.33513-5.95887.8065-12.248,7.23915-26.45039,10.47418-40.62535,9.25367Z"/>
  <path class="cls-1" d="M131.75552,135.39025c.02912-1.35785-1.04802-2.4822-2.40587-2.51131-1.31685.02824-2.37764,1.08902-2.40587,2.40588-.02912,1.35785,1.04802,2.4822,2.40587,2.51131,1.31685-.02824,2.37764-1.08902,2.40587-2.40588Z"/>
  <path class="cls-1" d="M276.16891,93.43098c.71634.09419,1.44468.02622,2.13122-.1989,2.53069-.82983,3.90951-3.55407,3.07968-6.08476l-8.80666-25.80539,8.80633-25.80877c.22623-.68821.29442-1.41856.19951-2.13675-.34878-2.63916-2.77097-4.49588-5.41013-4.1471-11.6994,2.43588-21.8767,9.58808-28.13231,19.77026-14.9328-8.48006-32.28488-11.68813-49.26256-9.10771-4.08612.7451-8.11048,1.79611-12.03913,3.14413-9.17369,3.34823-17.62015,8.4247-24.88174,14.95437-.45781.4431-.81379.98045-1.04328,1.57482-.6096,1.6488-.32507,3.49546.75257,4.88429,6.80771,6.12085,14.64231,10.9921,23.14329,14.3896,23.64281,10.56003,53.82826,1.28374,63.33118-5.19798,6.25464,10.18289,16.43225,17.33525,28.13202,19.76988ZM194.39094,50.69513c1.59564,3.32713,2.40213,6.97756,2.35672,10.66725.03154,3.68216-.77276,7.32348-2.35236,10.64977-2.023-.51946-4.00805-1.17681-5.94125-1.96744-18.982-8.61806-19.09854-8.74639-.0684-17.35054,1.95444-.80086,3.96078-1.46872,6.00527-1.99903ZM254.74157,66.21549c-.84314-1.52414-2.4473-2.47036-4.18911-2.47096-1.69732.06163-4.52593-.33513-5.95887.8065-12.25315,7.22628-26.45172,10.45955-40.6256,9.25119,3.10103-8.01427,3.10056-16.89718-.00132-24.91112,26.2099-2.24607,38.67851,9.65142,43.28459,10.04451,2.57622.06732,6.17235.32333,7.49016-2.46837,3.29351-6.13203,8.27443-11.19244,14.35354-14.58263l-6.10611,17.8975c-.17041.49739-.25733,1.01956-.25724,1.54534-.67637-.44701,6.33744,19.16078,6.36565,19.47067-6.08035-3.38928-11.0622-8.44987-14.35571-14.58263Z"/>
  <path class="cls-1" d="M190.85951,58.10079c.02911-1.35784-1.04803-2.48219-2.40588-2.51131-1.31685.02824-2.37764,1.08902-2.40588,2.40588-.02911,1.35784,1.04803,2.48219,2.40588,2.51131,1.31685-.02824,2.37764-1.08902,2.40588-2.40588Z"/>
  <path class="cls-1" d="M29.7113,241.78213c6.80463,6.1127,14.63229,10.97969,23.12457,14.37809,23.62894,10.57774,53.87277,1.29732,63.35666-5.18631,6.25442,10.18211,16.43094,17.33433,28.12967,19.77002.74907.10787,1.51302.03655,2.22918-.20809,2.50107-.85442,3.83596-3.5746,2.98154-6.07567l-8.80323-25.80857,8.80323-25.80567c.24466-.71614.31597-1.48011.20809-2.22918-.37671-2.616-2.80281-4.43131-5.41881-4.05458-11.69952,2.43465-21.87658,9.58763-28.12982,19.7711-9.17031-6.38901-39.86732-15.7597-63.25365-5.20263-8.43154,3.31889-16.19839,8.12529-22.93061,14.1902-.67933.65842-1.1306,1.51659-1.28805,2.44943-.24663,1.41711.11301,2.87266.99123,4.01187ZM72.11916,251.11692c3.10001-8.01452,3.10046-16.8969.00136-24.91178,14.17768-1.23461,28.3864,1.99691,40.63556,9.24183,1.44559,1.1327,4.2453.74449,5.95174.80184,1.74214.00061,3.34689-.94595,4.18915-2.47096,3.29287-6.1325,8.27395-11.19307,14.35354-14.58262l-6.1061,17.89984c-.1693.49769-.25617,1.01967-.25719,1.54535-.69367-.4905,6.35389,19.19464,6.36329,19.47062-6.07917-3.39018-11.0601-8.45064-14.35354-14.58272-.84223-1.525-2.44693-2.47154-4.18906-2.47091-1.70122.06124-4.52076-.33453-5.96122.80649-12.24835,7.24025-26.45185,10.47513-40.62752,9.25302ZM56.53409,230.00458c1.95669-.79896,3.96447-1.46657,6.00998-1.99842,1.59501,3.32791,2.4007,6.97897,2.35438,10.66909.03147,3.68182-.77179,7.32289-2.34943,10.64971-2.02448-.51922-4.01079-1.17735-5.94478-1.96969-18.98041-8.61727-19.09554-8.74434-.07015-17.35069Z"/>
  <path class="cls-1" d="M54.19827,235.30918c-.02776,1.35785,1.0505,2.4811,2.40834,2.50886,1.31877-.02695,2.38139-1.08957,2.40834-2.40834.02776-1.35785-1.0505-2.4811-2.40834-2.50886-1.31877.02695-2.38139,1.08957-2.40834,2.40834Z"/>
  <path class="cls-1" d="M36.58899,182.88934c14.15186,12.40912,34.46815,14.8628,51.16738,6.17968,4.08469,5.93545,10.43258,9.92775,17.55161,11.03852.49722-.00509.99066-.08705,1.46282-.24293,2.52946-.83518,3.90294-3.56274,3.06776-6.0922l-4.95913-14.52448,4.95936-14.52373c.24376-.71435.31517-1.47622.20841-2.22342-.374-2.61776-2.79931-4.43669-5.41707-4.06269-6.81498,1.38926-12.84696,5.3173-16.87373,10.98819-5.27056-3.65025-24.42143-8.05282-36.06606-2.78057-5.66955,2.04824-10.87855,5.19643-15.32781,9.26374-.67918.65894-1.13057,1.51725-1.28857,2.45027-.30183,1.66955.26947,3.37764,1.51503,4.52962ZM92.04791,179.24732c2.19238-1.12494,2.99596-4.18874,4.65271-5.68425l-1.40723,4.12846c-.89839,2.01294.87287,5.3171,1.40723,7.23979-1.02189-1.15739-1.91252-2.42436-2.65562-3.77774-.4623-.81909-1.15736-1.48255-1.99709-1.90626ZM54.07957,182.52111c-2.21749-.87838-4.34299-1.97319-6.34572-3.26852,3.91585-2.56794,8.31828-4.30252,12.93335-5.09583,8.51428-1.23074,17.19358.48225,24.60185,4.85547.63415.26989.45895.2248-.01383.47922-7.39525,4.36281-16.05527,6.07848-24.55531,4.86478-2.26847-.36222-4.48916-.97778-6.62039-1.83511l.00005-.00002Z"/>
  <path class="cls-1" d="M195.94112,214.94178c14.15033,12.41054,34.46694,14.86436,51.16513,6.17968,4.0866,5.93457,10.43475,9.9265,17.55395,11.03849.49737-.00495.99098-.08685,1.46331-.24275,2.52871-.8347,3.90198-3.56127,3.06728-6.08998l-4.95602-14.52973,4.95593-14.52329c.24466-.71616.31598-1.48015.20811-2.22921-.37673-2.61602-2.80282-4.43131-5.41883-4.05458-6.81474,1.38984-12.84654,5.31776-16.87372,10.98822-5.28311-3.64939-24.43327-8.04783-36.06375-2.78061-5.67008,2.04915-10.87954,5.19813-15.32928,9.26613-.67438.65761-1.12321,1.51189-1.28213,2.44032-.30291,1.67095.26624,3.38112,1.51004,4.53733ZM253.39724,213.20826c-.46268-.81958-1.15785-1.4837-1.99772-1.90845,2.19238-1.12729,2.99817-4.19358,4.66038-5.68895l-1.41207,4.13768c-.90061,2.00999.878,5.31903,1.40963,7.23979-1.02346-1.15806-1.91566-2.42581-2.66032-3.78009l.00009.00002ZM213.43179,214.57348c-2.21801-.87795-4.3437-1.97326-6.346-3.26988,3.91647-2.56665,8.31882-4.30069,12.93362-5.09441,8.51061-1.28249,17.20248.43044,24.59014,4.84606.62311.27493.49971.22843.00259.48858-7.39824,4.35732-16.05708,6.0726-24.55775,4.86478-2.26921-.36228-4.49065-.97782-6.6227-1.83511l.00009-.00002Z"/>
  <path class="cls-1" d="M112.95704,82.60283l-4.93576-14.55983,4.93576-14.50492c.24213-.71223.31303-1.47149.20696-2.21624-.37284-2.61798-2.79739-4.43801-5.41537-4.06517-6.80931,1.38215-12.83911,5.2999-16.86878,10.96017-16.7017-8.66368-37.00568-6.21028-51.16309,6.18222-.02611.0238-.05197.04788-.07754.07223-1.95578,1.8616-2.03212,4.9562-.17052,6.91197,6.36225,5.8881,14.30796,9.78649,22.85827,11.21491,9.77699,1.4868,19.77365-.16485,28.55281-4.7175,4.02835,5.65998,10.04731,9.58801,16.85017,10.99655,1.64871.24113,3.30426-.39188,4.37151-1.67147,1.06549-1.28144,1.38944-3.02415.85559-4.60292ZM88.41571,67.81213c.6461.27138.44796.22654-.01847.48156-7.39374,4.36189-16.05356,6.07293-24.55061,4.85077-4.63632-.75466-9.05809-2.49052-12.96959-5.0915,3.91293-2.53879,8.29385-4.26989,12.8853-5.09155,8.53067-1.24917,17.23181.46283,24.65337,4.85072ZM99.85216,62.33237c-.61145,1.90398-2.12571,5.23798-1.42142,7.25164l1.41683,4.17736c-1.67165-1.49608-2.49272-4.5807-4.6937-5.71438.83782-.42265,1.53212-1.08335,1.99578-1.89918.75473-1.36924,1.66128-2.64912,2.70251-3.81543Z"/>
  <path class="cls-1" d="M186.48727,190.84983c-.04671,2.49046,1.93434,4.54714,4.42478,4.59384,2.42477-.04524,4.37959-1.99994,4.42505-4.4247.04671-2.49046-1.93434-4.54714-4.42478-4.59384-2.42477.04524-4.37959,1.99994-4.42505,4.4247Z"/>
  <path class="cls-1" d="M157.16823,45.26418c.04762-2.49043-1.93268-4.54791-4.4231-4.59552-2.42182.04732-4.3738,1.99919-4.42123,4.42101-.04878,2.4904,1.93055,4.54885,4.42096,4.59762,2.42347-.04618,4.37705-1.99964,4.42338-4.42311Z"/>
  <path class="cls-1" d="M44.12996,45.26206c.04645-2.49044-1.93483-4.54696-4.42527-4.5934-2.42515.04503-4.38033,2.00009-4.42556,4.42523-.04645,2.49044,1.93483,4.54696,4.42527,4.5934,2.42515-.04503,4.38033-2.00009,4.42556-4.42523Z"/>
  <path class="cls-1" d="M37.94687,143.36838c-2.49033-.04776-4.54786,1.93231-4.59561,4.42263.04632,2.42316,1.9995,4.37644,4.42263,4.42292,2.49033.04775,4.54786-1.93232,4.59561-4.42264-.04632-2.42316-1.9995-4.37644-4.42263-4.42291Z"/>
  <path class="cls-1" d="M84.57977,126.72603c2.49033.04833,4.54832-1.93131,4.59665-4.42164-.04686-2.42238-1.99926-4.3749-4.42165-4.42192-2.49033-.04833-4.54832,1.93131-4.59665,4.42164.04686,2.42238,1.99926,4.3749,4.42165,4.42192Z"/>
  <path class="cls-1" d="M18.37927,224.91944c-.0347,2.49064,1.95624,4.53742,4.44688,4.57212,2.44182-.03346,4.41313-2.00464,4.44716-4.44647.0347-2.49064-1.95624-4.53742-4.44688-4.57212-2.44182.03346-4.41313,2.00464-4.44716,4.44647Z"/>
</svg>