<?xml version="1.0" encoding="UTF-8"?>
<svg id="Layer_1" data-name="Layer 1" xmlns="http://www.w3.org/2000/svg" viewBox="0 0 300 300">
  <defs>
    <style>
      .cls-1 {
        fill: #0051b1;
      }
    </style>
  </defs>
  <path class="cls-1" d="M234.39388,87.34313c-1.69079,0-3.13738-1.28379-3.30538-3.00143-1.30804-13.34969-8.37603-28.94482-24.29157-32.67756-4.44845-1.04392-9.02204.45766-13.44495,1.90902-5.90544,1.93889-12.59977,4.13584-18.08304-1.09025-11.77797-11.22635-19.66949-10.2634-25.83515-7.84173-4.85719,1.90815-8.44228,5.12997-13.22672,11.88751-1.06124,1.49855-3.13652,1.85273-4.6355.79236-1.49898-1.06124-1.85359-3.13652-.79236-4.6355,4.62857-6.53672,9.15843-11.45929,16.22296-14.23427,14.71488-5.7803,25.79921,2.49181,32.85551,9.21775,1.66092,1.58341,3.01095,2.34503,11.42032-.4148,5.049-1.65702,10.77128-3.53486,17.03783-2.06489,12.6764,2.97328,27.05442,14.6495,29.39123,38.50376.17925,1.82805-1.15736,3.45476-2.98498,3.63358-.10998.01082-.21995.01645-.3282.01645Z"/>
  <path class="cls-1" d="M166.38113,81.19652c-.50875,0-1.02443-.11734-1.50851-.36414-5.58936-2.85162-6.09552-7.26716-6.46528-10.49114-.32214-2.80875-.53473-4.66408-3.2452-6.55707-1.46824-1.02487-3.47424-.62696-6.62808.10954-3.91199.91359-9.2697,2.16361-13.88312-1.99128-12.28152-11.06181-18.27096-7.97552-24.61154-4.70824-2.56152,1.31973-5.21007,2.68449-8.20327,3.1179-4.94855.71529-8.51199-.79885-11.6563-2.1359-3.81284-1.62022-6.82379-2.90011-12.58634-.38665-1.68473.7339-3.64311-.03507-4.37744-1.71807-.73434-1.68343.03464-3.64311,1.71807-4.37744,8.38902-3.66043,13.63286-1.42971,17.8475.36197,2.79057,1.18637,4.99401,2.12291,8.10195,1.67391,1.88996-.27364,3.9397-1.32969,6.1098-2.44765,6.92771-3.56907,16.4152-8.45656,32.10862,5.67812,1.93889,1.74621,4.15965,1.33445,7.9201.4568,3.55218-.82916,7.97336-1.86182,11.94813.91446,5.16807,3.60977,5.67466,8.02661,6.04442,11.25189.32214,2.81135.46935,4.09471,2.88019,5.32481,1.63624.83479,2.28571,2.83733,1.45092,4.47313-.58756,1.15216-1.75444,1.81463-2.96463,1.81506Z"/>
  <path class="cls-1" d="M65.30547,109.69148c-1.30674,0-2.54593-.77504-3.07504-2.05796-6.19467-15.01364-5.21267-34.60735,2.3355-46.58925.97854-1.5544,3.03174-2.02073,4.58571-1.04132,1.55397.97897,2.02029,3.03217,1.04132,4.58571-6.38258,10.1322-7.16281,27.54716-1.81506,40.50846.70056,1.69772-.10781,3.64181-1.80553,4.34194-.4148.17146-.84431.25243-1.2669.25243Z"/>
  <path class="cls-1" d="M142.19045,263.49824c-.25849,0-.52044-.03031-.78283-.09352-24.14002-5.82707-30.17319-22.94846-36.00762-39.50654-3.94446-11.19387-8.02315-22.76877-17.91461-30.88285-3.26295-2.67669-6.31027-4.81952-8.99909-6.70992-9.71308-6.82942-16.73084-11.76411-14.26371-29.38733.83955-5.99636-2.46756-10.93019-5.96908-16.15368-3.99859-5.96605-8.53104-12.72793-6.00892-21.2988,2.81741-9.57322,8.24657-13.66663,13.49734-17.62538,2.53857-1.91421,4.93686-3.72191,7.09267-6.17821,2.52039-2.87024,3.90679-6.58608,5.3746-10.51972,2.34546-6.28646,5.0044-13.41247,13.07345-16.44074,7.5066-2.81784,14.79541,1.38684,21.22519,5.09619,3.85137,2.22163,7.48972,4.32029,10.76782,4.84117,15.94455,2.53511,16.3784,15.57565,16.61177,22.58129.08313,2.49744.4148,2.63556,3.9752,3.35431,3.08023.62176,7.2992,1.47344,10.61021,5.62746,4.52206,5.67249,5.33303,13.39169,2.28398,21.73524-.62956,1.72457-2.53857,2.61261-4.26444,1.98176-1.725-.62999-2.61218-2.53944-1.98176-4.26444,2.84815-7.79454.89887-12.62661-1.23789-15.3072-1.80164-2.2593-4.08388-2.72042-6.72637-3.25386-3.60197-.72698-9.04542-1.82588-9.30607-9.65246-.3282-9.86549-2.05926-14.811-11.00899-16.23378-4.49218-.71399-8.84105-3.22268-13.0466-5.64868-5.65604-3.26252-10.9986-6.34318-15.56482-4.63074-4.98145,1.86961-6.73373,5.98294-9.18008,12.53958-1.61286,4.32332-3.28113,8.79386-6.6073,12.58245-2.60568,2.96852-5.39235,5.06935-8.0868,7.1009-4.78878,3.6102-8.92462,6.72853-11.1207,14.19227-1.6423,5.58027,1.50678,10.27812,5.15291,15.7181,3.8544,5.75,8.22275,12.26724,7.03119,20.77922-1.90382,13.59822,2.02073,16.35805,11.50259,23.02466,2.78321,1.95708,5.93834,4.17524,9.3918,7.00824,11.32853,9.29308,15.72113,21.75906,19.96911,33.815,5.72358,16.24331,10.66694,30.27191,31.29548,35.2512,1.78518.43125,2.88322,2.22769,2.45241,4.01287-.3676,1.5228-1.72933,2.54593-3.23004,2.54593Z"/>
  <path class="cls-1" d="M158.43418,263.4978h-16.24677c-1.10497,0-2.13763-.54902-2.75593-1.46478-.98547-1.45915-24.08157-36.12279-19.97864-69.49268,3.5275-28.68243,17.60287-45.98481,27.88055-58.61792,4.35147-5.34949,8.10975-9.96897,10.31319-14.37889,3.00143-6.00849,1.5964-12.2694.10868-18.89792-1.37039-6.10547-2.7871-12.41921-.16194-18.19995,4.38697-9.65939,13.9143-8.35914,20.87274-7.40918,3.33006.45463,6.77443.92528,8.62369.11171,3.17982-1.39766,4.89096-3.31144,6.70299-5.33823,2.40694-2.69185,5.13473-5.74307,10.79596-6.42675,7.96989-.95776,12.68203,4.42551,16.46369,8.75446,1.58558,1.81506,3.08326,3.52923,4.69525,4.74938,2.65028,2.006,5.47202,2.83949,8.20067,3.64527,4.48179,1.32362,9.56153,2.82347,12.06287,9.52516,2.43379,6.52114.41999,11.6905-1.35696,16.25153-1.91811,4.92517-3.43354,8.81507-.45939,14.67461,12.98165,25.57752-6.45186,39.79837-19.31141,49.20879-1.7696,1.29548-3.44134,2.51865-4.92517,3.68684-15.63194,12.3088-17.7713,19.89464-22.93893,38.22145-.49836,1.7683-2.33464,2.7962-4.10293,2.29827-1.76786-.49836-2.79663-2.3355-2.29827-4.10293,5.61534-19.91412,8.55875-28.51833,25.22594-41.64201,1.57562-1.24093,3.29326-2.49787,5.11178-3.82842,6.28083-4.5961,13.39948-9.8053,17.49246-16.44897,4.5606-7.40182,4.50214-15.15003-.18402-24.38293-4.32029-8.51199-1.81766-14.93657.19311-20.09857,1.60333-4.11592,2.8698-7.36718,1.32319-11.51212-1.28596-3.44437-3.29456-4.16702-7.71573-5.47245-2.99104-.88328-6.71338-1.98262-10.33094-4.72037-2.15711-1.63277-3.95312-3.689-5.69024-5.67725-3.82799-4.38221-6.39211-7.04288-10.65784-6.52676-3.17159.38276-4.4753,1.8406-6.63501,4.25664-1.99821,2.23462-4.48482,5.01609-8.98523,6.99395-3.5656,1.56739-7.95431.96815-12.19926.38925-7.86944-1.07379-11.80957-1.07206-13.91733,3.56993-1.70335,3.75005-.63821,8.49683.59535,13.9931,1.599,7.12471,3.41146,15.20025-.64861,23.32645-2.53078,5.06588-6.50338,9.94948-11.10338,15.60379-10.31189,12.67554-23.14503,28.45036-26.43829,55.23243-3.34651,27.21506,13.71036,56.66777,17.95445,63.49546h13.89784c2.52298-.9084,18.25321-7.52912,28.68979-34.2272.66896-1.71028,2.59616-2.55502,4.30773-1.8865,1.71071.66852,2.55502,2.59746,1.8865,4.30773-12.63917,32.33377-32.63772,38.10974-33.4829,38.33966-.28447.0775-.57846.11691-.87332.11691Z"/>
  <path class="cls-1" d="M151.25102,263.49737c-.05585,0-.11171-.0013-.168-.00433-1.83368-.09136-3.2465-1.65096-3.156-3.48464.02468-.49706.64558-12.36163,4.43893-29.27216,3.50239-15.61548,10.49764-38.60551,23.93046-59.45011,26.47163-41.07783,26.20535-69.5966,26.19972-69.8802-.03724-1.83281,1.41585-3.35431,3.24909-3.39587,1.83931-.06148,3.35388,1.40459,3.39977,3.2374.03074,1.23183.43558,30.66636-27.25792,73.64108-24.68861,38.31021-27.29386,84.9826-27.31768,85.44935-.08919,1.77739-1.5583,3.15947-3.31837,3.15947Z"/>
  <path class="cls-1" d="M160.09986,217.97368c-1.22187,0-2.39699-.67588-2.97761-1.8445-.47498-.95646-11.53506-23.74298-2.79706-51.48887.55162-1.75184,2.4169-2.72475,4.17048-2.1727,1.75184.55162,2.72432,2.41864,2.1727,4.17048-7.90581,25.10427,2.30866,46.326,2.41257,46.5373.81011,1.64576.13639,3.63921-1.50764,4.45235-.47455.23468-.97811.34595-1.47344.34595Z"/>
  <path class="cls-1" d="M188.33373,160.70537c-1.1946,0-2.34849-.64514-2.94427-1.77522-.85644-1.62455-.23424-3.63575,1.3903-4.49218.23814-.126,23.91704-12.67597,30.88631-21.68545,1.12445-1.45265,3.21229-1.71937,4.66494-.59578,1.45265,1.12402,1.71937,3.21229.59578,4.66494-7.84952,10.14692-32.02029,22.95885-33.04516,23.49921-.4949.26065-1.0253.38449-1.54791.38449Z"/>
  <path class="cls-1" d="M122.43176,208.36625c-1.45179,0-2.7858-.95819-3.19887-2.42426-.0433-.15371-4.39173-15.61938-9.10734-35.31485-6.34578-26.50497-10.30236-47.64357-11.76108-62.8291-.17536-1.82805,1.16429-3.45216,2.99234-3.62795,1.82805-.17449,3.45216,1.16429,3.62795,2.99234,3.41233,35.5309,20.47743,96.36525,20.64933,96.97576.49793,1.76786-.53127,3.60457-2.2987,4.1025-.30136.08486-.60531.12556-.90363.12556Z"/>
  <path class="cls-1" d="M109.61074,156.87392c-.6603,0-1.32709-.19614-1.90815-.60444-1.50288-1.05518-1.86572-3.12916-.81054-4.63204.09179-.13119,9.27836-13.24837,16.3693-26.16335.88328-1.60983,2.90487-2.19868,4.51513-1.31453,1.60983.88372,2.19825,2.90531,1.31453,4.51513-7.27236,13.24491-16.37233,26.23782-16.75639,26.78468-.64731.92138-1.67737,1.41455-2.72389,1.41455Z"/>
  <path class="cls-1" d="M105.77409,138.11326c-.10305,0-.20653-.00476-.31131-.01472-7.1784-.66636-20.11892-7.31826-21.57071-8.07467-1.62844-.84821-2.26103-2.85595-1.41282-4.48482s2.85638-2.26146,4.48482-1.41368c3.62622,1.8878,14.12906,6.8883,19.11354,7.35116,1.82848.16973,3.17332,1.78951,3.00359,3.61843-.15977,1.72413-1.60939,3.01831-3.30711,3.01831Z"/>
</svg>