<?xml version="1.0" encoding="UTF-8"?>
<svg id="Layer_1" xmlns="http://www.w3.org/2000/svg" xmlns:svgjs="http://svgjs.dev/svgjs" version="1.1" viewBox="0 0 300 300">
  <!-- Generator: Adobe Illustrator 29.1.0, SVG Export Plug-In . SVG Version: 2.1.0 Build 142)  -->
  <defs>
    <style>
      .st0 {
        fill: #0051b1;
      }
    </style>
  </defs>
  <path class="st0" d="M275.2,30.8c-2.8,0-34.4,1-53.2,14.9-22.5,16.6-22.7,34.9-15.4,46.4,0,0,.2.2.2.2-3.9,6-7.8,12.7-11.5,20.2-2.2-1.9-4.5-4-6.6-5.9,4.5-9.4,3.2-22.9-13.5-35.1-15-11-39.8-11.8-42.2-11.8-1.8,0-3.2,1.3-3.3,3,0,.6.2,1.1.4,1.6.2.8.4,2.6.6,4.2,1.2,8.6,3.7,26.5,10.9,37.5,5.9,9,13.1,14.4,20.7,15.6,1,.2,2.1.2,3.2.2,4.4,0,8.8-1.4,13-4.1,2.6,4.4,6.1,10.1,8.5,13.7-3.6,9.3-6.6,19.2-9.1,29.4-3.4.1-6.9.6-10.3,1.6l-.5.2c-.5-.6-1.1-1.2-1.8-1.8-4.4-3.4-10.9-4.5-19.8-3.1-4.1.6-8,2.3-11.3,4.8l-51.9,40.8h-15.6v-8.3c0-3.4-2.7-6.1-6.1-6.1H27.7c-3.4,0-6.1,2.7-6.1,6.1v68.2c0,3.4,2.7,6.1,6.1,6.1h33.2c3.4,0,6.1-2.7,6.1-6.1v-11.5l17.3,4.2c.2,0,.5,0,.7,0h96.1c.2,0,.3,0,.5,0,12.3-1.9,52.7-8.8,59-17.4l27.5-29.2c6.4-6.8,7-17.1,1.5-23.9-3.8-4.7-11.5-9.1-26.1-2.9-2.2.9-4.1,1.9-5.9,2.8-.8-1.9-1.6-3.7-2.6-5.1-5-8.3-15.4-11.3-24.2-7.3l-7-4.8c-.7-.5-1.4-.9-2.2-1.3-1.3-22.9,6.2-45.6,15.5-64.3,5.4,3.6,11,5.5,16.7,5.5s2.7,0,4-.3c9.4-1.4,18.3-8.2,25.7-19.4,9-13.7,12.2-36.4,13.7-47.3.3-2.2.6-4.5.9-5.5.3-.5.5-1.1.5-1.7,0-1.7-1.6-3-3.3-3h0ZM184,102.2c-1.1-1-2.1-2-3.2-3.1-6.7-6.5-13.6-13.2-21.1-19-.7-.6-1.4-1.1-2.1-1.7-1.3-1.1-3.2-.8-4.3.5-1,1.3-.8,3.3.5,4.3.6.5,1.3,1,1.9,1.5,8.3,7.2,14.2,17.5,19.8,27.6-4,2.7-8.2,3.8-12.3,3.1-5.9-.9-11.5-5.3-16.5-12.9-6.4-9.8-8.8-26.8-9.9-35,0-.6-.2-1.1-.2-1.6,7.6.6,24.5,2.7,35,10.4,10.9,8.1,15.4,17.4,12.4,25.7h0ZM245.7,188.1c9-3.8,15.4-3.4,19,1.1,3.6,4.4,3.1,11.3-1.2,15.8l-27.6,29.4c-.1.1-.2.3-.3.4-2.8,4.4-30.6,11.2-54.8,14.9h-95.5l-18.4-4.4v-35.9h16.7c.7,0,1.3-.2,1.9-.6l52.7-41.5c2.4-1.9,5.3-3.2,8.4-3.6,7.1-1,12.2-.4,15.2,2,2,1.6,3.2,4,3.6,7.5.6,5.8-2.1,11.7-7.3,16-6.2,5.1-16.3,16.4-14,35.1.2,1.6,1.5,2.7,3,2.7s.3,0,.4,0c1.7-.2,2.9-1.7,2.7-3.4-1-7.8.5-14.1,3.1-19.1,6,1.6,22.7,5.6,42.2,7.1,23.6,1.8,28.1-2.7,33.6-10.2,3-4.1,6.4-8.7,16.6-13h0ZM229.7,183.3c.7,1.1,1.3,2.4,1.9,3.8l-14.4-9.8c4.6-.5,9.6,1.2,12.5,6ZM271.1,40.1c-1.5,10.5-4.5,32.2-12.8,44.8-6.4,9.8-13.9,15.6-21.6,16.8-5.6.8-11.4-.8-16.9-4.6,12.1-22.5,25.8-38.1,26.9-39.3,1.1-1.2,1-3.2-.3-4.3-1-.9-2.5-1-3.6-.2,0,0-16.4,11.1-32.2,33.6-5.9-11.5-.4-24.9,15-36.2,14-10.3,36.8-12.9,45.9-13.5-.1.9-.3,1.9-.4,3h0Z"/>
</svg>