<?xml version="1.0" encoding="UTF-8"?>
<svg id="Layer_1" xmlns="http://www.w3.org/2000/svg" xmlns:svgjs="http://svgjs.dev/svgjs" version="1.1" viewBox="0 0 300 300">
  <!-- Generator: Adobe Illustrator 29.1.0, SVG Export Plug-In . SVG Version: 2.1.0 Build 142)  -->
  <defs>
    <style>
      .st0 {
        fill: #0051b1;
      }
    </style>
  </defs>
  <path class="st0" d="M130.8,256.6c0,4.7-3.8,8.5-8.5,8.5h-38.8c-18.8,0-34.1-15.3-34.1-34.1V97.8c0-18.1,14.2-33,32-34.1v-8.6c0-4.7,3.8-8.5,8.5-8.5s8.5,3.8,8.5,8.5v8.5h34.1v-8.5c0-4.7,3.8-8.5,8.5-8.5s8.5,3.8,8.5,8.5v8.5h34.1v-8.5c0-4.7,3.8-8.5,8.5-8.5s8.5,3.8,8.5,8.5v8.6c18.2.7,32.9,15.7,32.9,34.1v39.3c0,4.7-3.8,8.5-8.5,8.5s-8.5-3.8-8.5-8.5v-39.3c0-9-7-16.4-15.8-17v8.1c0,4.7-3.8,8.5-8.5,8.5s-8.5-3.8-8.5-8.5v-8.1h-34.1v8.1c0,4.7-3.8,8.5-8.5,8.5s-8.5-3.8-8.5-8.5v-8.1h-34.1v8.1c0,4.7-3.8,8.5-8.5,8.5s-8.5-3.8-8.5-8.5v-8c-8.4,1.1-14.9,8.2-14.9,16.9v133.2c0,9.4,7.7,17.1,17.1,17.1h38.8c4.7,0,8.5,3.8,8.5,8.5ZM138.5,196.8h-46.5c-4.7,0-8.5,3.8-8.5,8.5s3.8,8.5,8.5,8.5h46.5c4.7,0,8.5-3.8,8.5-8.5s-3.8-8.5-8.5-8.5ZM91.9,162.7c-4.7,0-8.5,3.8-8.5,8.5s3.8,8.5,8.5,8.5h81.1c4.7,0,8.5-3.8,8.5-8.5s-3.8-8.5-8.5-8.5h-81.1ZM199.5,137.1c0-4.7-3.8-8.5-8.5-8.5h-99c-4.7,0-8.5,3.8-8.5,8.5s3.8,8.5,8.5,8.5h99c4.7,0,8.5-3.8,8.5-8.5ZM243.2,206.4l-46.8,46.7c-1,1-2.3,1.8-3.8,2.2l-34.5,9.5c-.8.2-1.5.3-2.3.3-2.3,0-4.5-.9-6.1-2.6-2.2-2.2-3-5.5-2.1-8.4l10.2-33.6c.4-1.3,1.1-2.6,2.1-3.6l46.9-46.8c10-10,26.2-10,36.2,0,10,10,10,26.2,0,36.2h0ZM217.4,208l-12.1-12.1-31.6,31.6-5.1,16.7,17.3-4.8,31.4-31.4ZM231.2,182.2c-3.3-3.3-8.7-3.3-12.1,0l-1.6,1.6,12.1,12.1,1.7-1.7c3.3-3.3,3.3-8.7,0-12.1Z"/>
</svg>