<?xml version="1.0" encoding="UTF-8"?>
<svg id="Layer_1" xmlns="http://www.w3.org/2000/svg" xmlns:svgjs="http://svgjs.dev/svgjs" version="1.1" viewBox="0 0 300 300">
  <!-- Generator: Adobe Illustrator 29.1.0, SVG Export Plug-In . SVG Version: 2.1.0 Build 142)  -->
  <defs>
    <style>
      .st0 {
        fill: #0051b1;
      }
    </style>
  </defs>
  <path class="st0" d="M150,288c-76.1,0-138-61.9-138-138S73.9,12,150,12s138,61.9,138,138-61.9,138-138,138ZM150,25.2c-68.9,0-124.8,56-124.8,124.8s56,124.8,124.8,124.8,124.8-56,124.8-124.8S218.9,25.2,150,25.2Z"/>
  <path class="st0" d="M182.9,228.9h-60.8c-3.6,0-6.6-3-6.6-6.6v-21.4c0-3.6,3-6.6,6.6-6.6h8.2v-37.8h-1.6c-3.6,0-6.6-3-6.6-6.6v-18.1c0-3.6,3-6.6,6.6-6.6h39.4c3.6,0,6.6,3,6.6,6.6v60.7h8.2c3.6,0,6.6,3,6.6,6.6v23c0,3.7-2.9,6.7-6.5,6.7h0ZM128.6,215.7h47.7v-9.8h-8.2c-3.6,0-6.6-3-6.6-6.6v-60.7h-26.3v5h1.6c3.6,0,6.6,3,6.6,6.6v50.9c0,3.6-3,6.6-6.6,6.6h-8.2v8.1Z"/>
  <path class="st0" d="M152.4,115.4c-12.6,0-22.9-10.3-22.9-22.9s10.3-22.9,22.9-22.9,22.9,10.3,22.9,22.9-10.3,22.9-22.9,22.9ZM152.4,80.4c-6.7,0-12.1,5.4-12.1,12.1s5.4,12.1,12.1,12.1,12.1-5.4,12.1-12.1-5.4-12.1-12.1-12.1Z"/>
</svg>