<?xml version="1.0" encoding="UTF-8"?>
<svg id="Layer_1" data-name="Layer 1" xmlns="http://www.w3.org/2000/svg" viewBox="0 0 300 300">
  <defs>
    <style>
      .cls-1 {
        fill: #0051b1;
      }
    </style>
  </defs>
  <path class="cls-1" d="M26.65491,63.73975v85.7639h-9.85736c-2.65692.05414-4.79785,2.19507-4.85191,4.85199-.05567,2.73534,2.11657,4.99787,4.85191,5.05354h9.85736v74.30006c.01486,12.29473,9.97866,22.25746,22.27332,22.27094h196.26666c12.29358-.01417,22.25555-9.97729,22.26818-22.27094v-63.91323h9.22382c2.71037-.01754,4.9033-2.21038,4.92076-4.92076.01769-2.73534-2.18542-4.96709-4.92076-4.98478h-9.22382v-65.26776h9.22382c2.71037-.01754,4.9033-2.21038,4.92076-4.92076.01769-2.73534-2.18542-4.96709-4.92076-4.98478h-9.22382v-24.92327c.41851-.27752.91091-.48459,1.30591-.78295,4.92826-3.43818,10.82456-5.21513,16.83197-5.07254,2.71037-.01754,4.90322-2.21038,4.92076-4.92076.01769-2.73534-2.18542-4.96709-4.92076-4.98478-6.31971-.17008-12.57355,1.31961-18.13788,4.32045l-9.90576,5.30955c-9.16179,3.31826-19.34944,2.14881-27.52106-3.15928-13.36332-8.50719-30.44394-8.5065-43.80657.00176-4.93002,3.43849-10.82793,5.21543-16.83688,5.07284-18.34549-.37991-18.52598-11.82131-38.71864-11.54471-20.21195-.27354-20.39115,11.16717-38.75639,11.5454-18.38493-.37853-18.55631-11.82078-38.7819-11.5454-8.36652-.16702-16.55468,2.42971-23.29596,7.38783-.19734.0932-.38833.19911-.57189.31711-4.56168,2.53194-9.69547,3.85401-14.91267,3.84045-2.67591.04097-4.83537,2.20028-4.87657,4.87619-.0422,2.73526,2.141,4.98677,4.87626,5.02889,4.17051.14473,8.33405-.44569,12.29986-1.74425ZM36.56067,58.71163c4.96709-3.11678,10.71168-4.77104,16.57559-4.77326,18.36701.37845,18.56841,11.82047,38.78128,11.54532,20.21823.27392,20.38273-11.16656,38.7567-11.54532,18.34495.376,18.53058,11.81948,38.71895,11.54532,7.7947.15607,15.44665-2.1044,21.90543-6.47095,10.23206-6.66967,23.43701-6.66929,33.66877.00084,9.67579,6.17704,21.50277,8.00139,32.59015,5.0272v20.67679h-9.21892c-2.65692.05414-4.79785,2.19507-4.85191,4.85199-.05567,2.73534,2.11657,4.99787,4.85191,5.05354h9.21892v65.26761h-9.21892c-2.65692.05406-4.79785,2.19499-4.85191,4.85191-.05567,2.73534,2.11657,4.99787,4.85191,5.05362h9.21892v63.913c-.00796,6.8249-5.53783,12.35584-12.36265,12.36526H48.92845c-6.82658-.00712-12.35928-5.5386-12.36778-12.36526v-74.30029h8.58523c.02129.00015.04265.00015.06394,0,2.73541-.01769,4.93845-2.24944,4.92076-4.98478-.01761-2.73534-2.24936-4.93845-4.9847-4.92076h-8.58523V58.71163Z"/>
  <path class="cls-1" d="M108.18837,170.81679c-21.54301,0-39.68571,13.88396-46.48646,19.85486-.28949.25296-.56165.52512-.81461.81461-3.11425,3.56417-2.74954,8.97808.81461,12.09233,6.80049,5.96856,24.94319,19.85249,46.4862,19.85249,21.28422,0,39.02121-13.32133,46.23798-19.6309,4.56383,4.01937,15.7404,13.86308,15.7404,13.86308.9043.79624,2.06781,1.23557,3.27271,1.23578,2.73587.00051,4.95413-2.21696,4.95462-4.95284v-31.37861c-.01487-1.04405-.35693-2.05713-.97799-2.89651-1.63893-2.21505-4.76319-2.68206-6.97824-1.04313l-15.77754,12.02412c-7.06231-6.2216-24.95654-19.83525-46.47168-19.83525v-.00002ZM162.14749,197.39983l6.34097-4.8295v10.41336s-6.34097-5.58386-6.34097-5.58386ZM146.98406,197.11672c-24.74549,21.53694-53.01097,21.44773-77.59616.00605,24.61675-21.47585,52.97595-21.49217,77.59628-.00605h-.00012Z"/>
  <path class="cls-1" d="M229.95862,130.7881v-31.37861c-.01474-1.04439-.35693-2.05783-.97829-2.8974-1.6391-2.2147-4.76323-2.68133-6.97794-1.04223l-15.77333,12.02575c-7.06258-6.22191-24.95654-19.8347-46.47108-19.8347-21.53792,0-39.69033,13.88153-46.49082,19.85009-.28298.24802-.54932.51438-.79735.79735-3.12505,3.56543-2.76807,8.98915.79735,12.1142,6.80029,5.96862,24.9527,19.85015,46.49083,19.85015,21.2839,0,39.02064-13.31927,46.23772-19.62853,4.56285,4.01894,15.73583,13.86055,15.73583,13.86055.90499.79626,2.06905,1.23559,3.27447,1.2358,2.72873-.0155,4.937-2.22367,4.95261-4.95241ZM198.55376,113.96054c-24.74587,21.53661-53.01678,21.44231-77.60115.0036,24.61705-21.4713,52.98169-21.49069,77.60115-.0036ZM220.05316,119.82513l-6.33615-5.58151,6.33615-4.82955v10.41106Z"/>
  <path class="cls-1" d="M54.69852,95.9871c-2.65692.0541-4.79784,2.19501-4.85193,4.85193-.05569,2.73534,2.1166,4.99791,4.85193,5.0536h23.09069c2.68019-.03807,4.84351-2.20151,4.88196-4.8817.03925-2.73562-2.14659-4.98458-4.88222-5.02382h-23.09044Z"/>
  <path class="cls-1" d="M49.8466,123.92967c-.05569,2.73533,2.1166,4.99791,4.85193,5.0536h23.09069c2.65077-.05837,4.78575-2.19346,4.84382-4.84426.05994-2.73523-2.10883-5.00133-4.84408-5.06127h-23.09044c-2.65692.05409-4.79784,2.19501-4.85193,4.85193Z"/>
  <path class="cls-1" d="M211.47693,193.19955c-.05569,2.73533,2.11659,4.99791,4.85193,5.0536h23.09075c2.64057-.0654,4.76576-2.1907,4.83052-4.8313.06708-2.73508-2.09575-5.00714-4.83083-5.07422h-23.09044c-2.65692.05409-4.79783,2.19501-4.85193,4.85193Z"/>
  <path class="cls-1" d="M211.47693,216.2903c-.05569,2.73533,2.11659,4.99791,4.85193,5.0536h23.09075c2.71828-.01149,4.91875-2.21209,4.93104-4.93036.01237-2.73588-2.19547-4.9628-4.93134-4.97517h-23.09044c-2.65692.05409-4.79783,2.19501-4.85193,4.85193Z"/>
</svg>