<?xml version="1.0" encoding="UTF-8"?>
<svg id="Layer_1" xmlns="http://www.w3.org/2000/svg" xmlns:svgjs="http://svgjs.dev/svgjs" version="1.1" viewBox="0 0 300 300">
  <!-- Generator: Adobe Illustrator 29.1.0, SVG Export Plug-In . SVG Version: 2.1.0 Build 142)  -->
  <defs>
    <style>
      .st0 {
        fill: #0051b1;
      }
    </style>
  </defs>
  <path class="st0" d="M262.9,216.1l-68.6-68.6,64.9-64.9c3.1-3.1,5.1-6.9,5.6-10.8.6-4.2-.6-8.2-3.3-10.9l-22.4-22.4c-2.7-2.7-6.7-3.9-10.9-3.3-3.9.6-7.7,2.5-10.8,5.6l-64.9,64.9L83.9,37.1c-1.3-1.3-3.1-2-5-2s-3.6.7-5,2l-36.9,36.9c-1.3,1.3-2,3.1-2,5s.7,3.6,2,5l68.6,68.6-52.7,52.7c-.4.4-.8,1-.9,1.6l-16.8,53.2c-.4,1.4,0,2.9.9,3.9.7.7,1.7,1.1,2.7,1.1s.8,0,1.2-.2l53.2-16.8c.6-.2,1.1-.5,1.6-.9l52.7-52.7,52.5,52.5s0,0,0,0h0s16.1,16.1,16.1,16.1c1.3,1.3,3.1,2,5,2s3.6-.7,5-2l36.9-36.9c2.7-2.7,2.7-7.2,0-9.9h0ZM222.8,46.2c1.9-1.9,4.2-3.1,6.5-3.4,1.1-.2,3.1-.2,4.4,1.1l22.4,22.4c1.3,1.3,1.3,3.4,1.1,4.4-.3,2.2-1.6,4.6-3.4,6.5l-15.1,15.1-31-31,15.1-15.1ZM202.3,66.7l31,31-44.4,44.4-31-31,44.4-44.4ZM57.4,215.1l27.4,27.4-40.1,12.7,12.7-40.1ZM92.1,238.9l-31-31,50-50,31,31-50,50ZM221.1,257l-12.9-12.9,13.8-13.8c1.5-1.5,1.5-3.9,0-5.4-1.5-1.5-3.9-1.5-5.4,0l-13.8,13.8-12.9-12.9,5.6-5.6c1.5-1.5,1.5-3.9,0-5.4-1.5-1.5-3.9-1.5-5.4,0l-5.6,5.6-12.9-12.9,13.8-13.8c1.5-1.5,1.5-3.9,0-5.4-1.5-1.5-3.9-1.5-5.4,0l-13.8,13.8-12.9-12.9,5.6-5.6c1.5-1.5,1.5-3.9,0-5.4-1.5-1.5-3.9-1.5-5.4,0l-5.6,5.6-12.9-12.9,13.8-13.8c1.5-1.5,1.5-3.9,0-5.4-1.5-1.5-3.9-1.5-5.4,0l-13.8,13.8-12.9-12.9,5.6-5.6c1.5-1.5,1.5-3.9,0-5.4-1.5-1.5-3.9-1.5-5.4,0l-5.6,5.6-12.9-12.9,13.8-13.8c1.5-1.5,1.5-3.9,0-5.4-1.5-1.5-3.9-1.5-5.4,0l-13.8,13.8-12.9-12.9,5.6-5.6c1.5-1.5,1.5-3.9,0-5.4s-3.9-1.5-5.4,0l-5.6,5.6-12.9-12.9,13.8-13.8c1.5-1.5,1.5-3.9,0-5.4s-3.9-1.5-5.4,0l-13.8,13.8-12.9-12.9,36-36,178.1,178.1-36,36Z"/>
</svg>