<?xml version="1.0" encoding="UTF-8"?>
<svg id="Layer_1" data-name="Layer 1" xmlns="http://www.w3.org/2000/svg" viewBox="0 0 300 300">
  <defs>
    <style>
      .cls-1 {
        fill: #0051b1;
      }
    </style>
  </defs>
  <g id="_84x84" data-name="84x84">
    <g>
      <path class="cls-1" d="M37.7919,165.34203c.36486.13662.739.20184,1.1085.20184,1.29015,0,2.50268-.79178,2.9793-2.07264.61324-1.64568-.22512-3.47611-1.8708-4.0878-7.10747-2.64706-15.28621-6.17751-18.7949-8.25015,4.30207-3.64688,16.19909-11.20926,20.34591-11.571,2.76817-.24063,6.75816-2.06177,14.15752-5.53012,9.37108-4.39212,22.20583-10.40972,33.18221-11.97776,18.00469-2.56945,53.28122-3.68415,62.96435-3.15163.94704.04658,1.86924-.32136,2.51199-1.01845,9.37416-10.14887,21.90618-20.97466,26.01417-20.97466.03414,0,.07142,0,.10868.00155,10.8677.54495,21.93722,3.74936,21.6205,23.40282-.02795,1.75592,1.37244,3.20133,3.12679,3.2308h.05279c1.73262,0,3.15163-1.38951,3.17958-3.12836.3043-18.87719-9.00154-28.92206-27.66297-29.85514-8.17873-.48285-24.04245,15.47562-30.10352,21.9279-.85563-.02852-1.86225-.04601-2.94089-.05783,1.39399-2.54732,2.87606-5.20835,3.33834-5.90231.97499-1.46092.58066-3.43576-.88182-4.40918-1.46248-.97654-3.43729-.58066-4.40918.88182-1.0367,1.55504-4.80508,8.53987-5.29763,9.45432-1.73535.02406-3.55683.05783-5.48741.10597,1.66158-3.25741,3.33967-6.27007,4.03463-7.05914,1.29015-.9843,1.64258-2.80696.76538-4.21046-.93152-1.48888-2.89393-1.94066-4.38124-1.01225-.63788.39882-2.31791,1.47005-7.62933,12.50678-2.2403.08191-4.5233.17504-6.84646.28391,2.57272-5.40182,5.3444-10.73321,6.28619-11.72101,1.24201-1.24201,1.24201-3.25411,0-4.49611s-3.25411-1.24201-4.49611,0c-2.31617,2.31464-7.24916,12.79981-8.99359,16.59692-1.86111.1083-3.71521.22261-5.54583.34778,1.40544-3.4177,2.92671-6.64211,3.61273-7.36558,1.30566-1.17371,1.41126-3.18422.23598-4.48991-1.17371-1.30414-3.1827-1.4097-4.48991-.23598-2.14192,1.92746-4.85455,8.5129-6.40826,12.63176-4.87687.41163-9.41104.88357-13.17843,1.42172-11.91411,1.70158-25.24722,7.9505-34.98157,12.51495-5.03175,2.35829-10.23583,4.79888-12.00882,4.95258-6.76125.58841-25.78906,12.56926-27.14597,17.0918-.73588,2.45298-1.65033,5.50373,23.92912,15.02226Z"/>
      <path class="cls-1" d="M117.46615,184.75328h-.00312c-1.75281,0-3.17646,1.42058-3.17958,3.17495-.00292,1.44072-.14515,3.38956-.47255,5.41076-2.06758-2.4299-4.90581-6.20275-7.24196-9.59639-.99826-1.44696-2.9793-1.81334-4.42159-.81509-1.44696.99674-1.81179,2.97621-.81664,4.42159,3.25312,4.72492,7.3749,10.27154,10.38291,12.88833-.82227,1.51313-1.86981,2.60129-3.1916,2.85277-2.71072.47818-10.75747-10.70469-17.13991-25.92724-.50457-1.20322-1.71399-1.93602-2.99637-1.94998-5.32964.10575-10.48676-.10362-15.45619-.50361.63674-1.74117,1.10754-3.4637,1.47723-5.16856,6.58739-3.68182,10.96125-8.38328,13.8243-12.68378,14.45093-4.43132,28.963-6.66695,31.58095-4.86835.22512,1.13336-.10556,2.26513-1.00605,3.45127-3.01345,3.96983-10.95,6.85441-19.29947,7.01278-1.75592.03414-3.15163,1.48423-3.11904,3.24012.03414,1.73573,1.45005,3.11904,3.17803,3.11904h.0621c10.48578-.20028,20.00279-3.94033,24.24273-9.5263,2.1487-2.82871,2.85667-5.97414,2.05089-9.09471-.28412-1.09763-1.034-2.63619-2.99329-3.72917-5.8736-3.27233-21.47128.15682-30.70357,2.63718.80539-2.15645,1.12055-3.63407,1.16671-3.87919.79954-6.13561-8.99223-11.81941-13.2384-13.97743-1.56184-.79489-3.47766-.16921-4.27568,1.39418-.79489,1.56496-.17078,3.47922,1.39418,4.27568,4.69175,2.38313,9.36641,5.9881,9.7918,7.52511-.38133,1.55739-2.85568,10.23195-11.71615,16.93304.18086-12.29155-4.84759-21.80352-5.15206-22.36224-.8368-1.54321-2.76506-2.11611-4.31138-1.27463-1.54321.83837-2.11455,2.76817-1.27463,4.31138.08792.16203,8.47097,16.00794,1.7206,32.00208-27.1813-3.28806-46.62652-12.32475-46.86658-12.43867-1.58667-.75142-3.48387-.07297-4.23374,1.51218-.75143,1.58667-.07609,3.48231,1.50906,4.23373,1.26996.60237,30.86116,14.49132,69.62471,14.246,4.28963,9.85702,13.33468,27.85083,22.15769,27.84927.39745,0,.79489-.03726,1.19079-.11178,10.62393-2.02452,10.93133-19.42837,10.93133-21.40629,0-1.75437-1.42213-3.17646-3.17645-3.17803Z"/>
      <path class="cls-1" d="M213.42794,170.05082c-1.73886-.0854-3.25718,1.23892-3.35346,2.99482-1.02777,18.12575-7.26273,19.3057-15.15579,20.7992l-.5496.104c-4.02414.80421-18.88495-10.05729-30.22151-20.66107-.76075-.71416-1.82889-1.00758-2.85975-.78093-4.95566,1.0961-37.64571.31828-58.40924-.47198-1.80871-.05122-3.2308,1.30414-3.29914,3.05694-.06677,1.75437,1.30258,3.2308,3.05694,3.29914,5.04726.18941,47.14254,1.74814,58.29125.58221,6.80318,6.26135,24.14805,21.34261,33.31106,21.34104.46265,0,.90357-.03881,1.32278-.11799l.54028-.10247c8.4706-1.60374,19.01227-3.59879,20.31947-26.68796.09936-1.7543-1.23892-3.2556-2.9933-3.35494Z"/>
      <path class="cls-1" d="M278.99431,140.34318c5.59534-16.16027,9.59463-28.95467,6.08283-34.41491-3.40006-5.29724-13.42316-1.42521-46.63178,18.03419-3.53664,2.07417-7.19752,4.21822-7.70365,4.45265-4.00863.80109-34.3171-.0916-37.9873-2.34898-.85117-.56746-2.13162-1.3117-3.64224-2.14501,2.56284-2.52519,5.77523-5.42668,7.47389-6.27592,1.57116-.78558,2.20772-2.6952,1.42214-4.26636-.78868-1.57116-2.6983-2.20616-4.26635-1.42213-3.28555,1.64276-8.40385,6.70109-10.50559,8.85465-2.02508-1.03982-4.11788-2.09203-6.07115-3.06235,2.74662-2.99462,6.96039-7.23304,9.72697-8.67223,1.55873-.81041,2.16421-2.72935,1.35692-4.28807-.81041-1.55873-2.73556-2.16421-4.28807-1.35381-4.47205,2.32529-10.39128,8.74598-12.73094,11.39946-1.51176-.73436-2.54325-1.2296-2.71361-1.3111-1.58047-.7623-3.48078-.08848-4.23842,1.49354-.76075,1.58359-.09316,3.48231,1.49354,4.2415,6.52682,3.12836,19.83199,9.68312,23.45559,12.09887,6.05797,4.03813,40.52411,3.9512,43.17583,3.19354.9843-.28101,2.52444-1.15508,9.25928-5.1016.70815-.4151,1.57329-.92122,2.50093-1.46286,2.10736,2.46116,6.02187,8.52649,2.52305,16.77234-.45023,1.06503-.27946,2.3024.4316,3.21372.27247.34603,6.34363,8.29768,1.3808,15.50121-7.13678-3.33077-14.23747-6.17093-20.37442-7.28679-18.26395-3.32863-52.4848,11.89859-53.93485,12.54754-1.60222.71881-2.31947,2.59892-1.5991,4.20114.71728,1.60375,2.59584,2.32258,4.20114,1.60222.04734-.02153.77725-.34524,2.00877-.86418,3.06916,4.52037,9.66023,13.86293,12.96381,15.80573.50301.29809,1.05571.43784,1.60222.43784,1.08367,0,2.14249-.55891,2.73556-1.56184.89426-1.50751.39124-3.45903-1.11474-4.35641-1.44676-.86437-6.06552-6.86004-10.14248-12.75752,2.07652-.80033,4.45383-1.68139,7.03373-2.57584,6.32753,11.50327,7.95108,12.14078,8.92449,12.5062.3695.13662.74524.20337,1.11782.20337,1.28549,0,2.49957-.7887,2.97775-2.06485.54339-1.45005-.04039-3.04607-1.31346-3.82697-.92339-.97654-3.34378-4.92326-5.55007-8.83795,9.98936-3.08353,21.3465-5.58909,28.95292-4.20171,9.1475,1.66276,21.35969,7.88685,32.13427,13.37971,10.60064,5.4028,17.31072,8.72365,21.53976,8.92549.05279.00155.10247.00312.15525.00312,1.68605,0,3.09264-1.32585,3.17337-3.029.08384-1.75281-1.26994-3.24323-3.02433-3.32708-3.07711-.14594-11.15029-4.26013-18.95635-8.23927-2.51294-1.28102-5.10666-2.59816-7.72461-3.8947.59035-.96103,1.07357-1.93135,1.44152-2.90575,4.97353,1.29578,17.20185,4.36766,24.12086,5.13811.04696.90822.00349,1.74057-.15445,2.46659-.37261,1.71554.71729,3.40937,2.43126,3.78195.22975.04963.45639.07291.67998.07291,1.46248,0,2.77903-1.01537,3.10506-2.50424,1.93445-8.8991-5.73504-23.13268-8.38055-27.68936.41608-1.24821.91597-2.69517,1.46556-4.27876l.00002-.00004ZM274.8291,132.84545l-20.50056,3.45496c-.08517-.91171-.22024-1.79589-.4087-2.64649,5.93396-2.91275,16.9476-7.78205,23.41175-8.75296-.81976,2.78429-1.70215,5.53768-2.50248,7.9445ZM253.19131,145.54727c.31807-.92783.54707-1.83391.73803-2.72935l18.56453-3.12873c-.56803,1.64295-1.08735,3.1592-1.46716,4.35367-.27946.8803-.16146,1.83818.31985,2.62688.53019.86494,1.09512,1.85313,1.67052,2.90438-5.92057-.71649-15.06205-2.2071-19.15588-2.90826-.22082-.3916-.44441-.76828-.66989-1.11858ZM280.0128,110.10149c.36329,1.61656-.10036,4.7026-.93986,8.29149-7.88199.17233-21.43266,6.35315-27.41361,9.28024-.59717-1.08618-1.24726-2.05944-1.9092-2.92032,10.51567-6.02709,25.58002-14.2883,30.26267-14.65141ZM256.80674,157.06432c-.01863-1.20923-.16107-2.38682-.38639-3.52288,5.49091.90475,15.25534,2.44214,19.87547,2.73809.81488,1.87217,1.55175,3.77263,2.14557,5.61666-6.89825-1.05396-17.6367-3.78624-21.63466-4.83187Z"/>
      <circle class="cls-1" cx="44.14512" cy="148.46956" r="4.76937"/>
      <path class="cls-1" d="M134.74735,143.3753c-1.44696.98742-1.81802,2.95758-.83372,4.40763.98274,1.45005,2.95911,1.83354,4.4123.84923,1.85993-1.25444,7.54995-4.08315,11.53374-2.1549,7.54374,3.65776,12.65778,2.8613,19.60379,1.22805,6.07659-1.42989,10.83356-2.24185,16.63381.39433,3.04607,1.38487,6.34364,2.07572,9.61635,2.07572,3.47145,0,6.91807-.77626,10.01379-2.32415,2.40331-1.20477,9.67536.33068,12.10351,1.30102,2.1487.86167,15.79853,1.37087,18.27326-2.09903,1.02156-1.42833.68932-3.41401-.739-4.43557-1.17682-.84147-2.74487-.76383-3.83164.10248-2.02139.66602-9.83061.92996-11.34278.52632-.10557-.04502-11.30549-4.08935-17.30759-1.08367-1.61463.81041-7.41798,3.20597-14.15285.14905-7.60117-3.45592-13.88271-2.40796-20.72625-.79801-6.59826,1.55565-9.84302,1.92202-15.37002-.75919-8.12598-3.93721-17.49239,2.34898-17.8867,2.62068Z"/>
    </g>
  </g>
</svg>