<?xml version="1.0" encoding="UTF-8"?>
<svg id="Layer_1" data-name="Layer 1" xmlns="http://www.w3.org/2000/svg" viewBox="0 0 300 300">
  <defs>
    <style>
      .cls-1 {
        fill: #0051b1;
      }
    </style>
  </defs>
  <path class="cls-1" d="M262.93066,216.104l-68.61684-68.61685,64.90644-64.90643c3.06428-3.06384,5.05499-6.90276,5.60554-10.80887.59788-4.24653-.60691-8.2302-3.30597-10.92926l-22.36352-22.36217c-2.69906-2.69906-6.68137-3.9025-10.92881-3.30597-3.90611.55099-7.74504,2.54125-10.80888,5.60553l-64.90644,64.90553L83.89578,37.06912c-1.32067-1.32067-3.07962-2.04752-4.95264-2.04752s-3.63196.72729-4.95174,2.04752l-36.92294,36.92249c-1.32022,1.32022-2.04707,3.07917-2.04707,4.95219s.72729,3.63196,2.04752,4.95129l68.61685,68.61729-52.70474,52.70429c-.43466.43511-.75886.96762-.94418,1.55379l-16.83689,53.21921c-.43151,1.36396-.06763,2.85462.94418,3.86598.7291.72999,1.70844,1.12273,2.70988,1.12273.38597,0,.77599-.05862,1.15565-.17855l53.21876-16.83735c.58617-.18532,1.11867-.50906,1.55379-.94417l52.70519-52.70429,52.50634,52.50635s.00045,0,.00045.00045l.00045.00045,16.11005,16.11005c1.32023,1.32023,3.07872,2.04707,4.95128,2.04707,1.87302,0,3.63196-.72684,4.95219-2.04751l36.92294-36.92249c2.73017-2.73108,2.73017-7.17421-.00045-9.90438v-.00003ZM222.83883,46.19975c1.86806-1.86806,4.22174-3.11975,6.45818-3.43492,1.08169-.1524,3.0963-.20741,4.43952,1.13581l22.36307,22.36262c1.34322,1.34322,1.28775,3.35827,1.13581,4.43997-.31518,2.23644-1.56732,4.59057-3.43493,6.45818l-15.11673,15.11673-30.96165-30.96165,15.11673-15.11673ZM202.30188,66.73624l30.96165,30.96166-44.36993,44.36949-30.96165-30.96166,44.36993-44.36949ZM57.43317,215.12689l27.43925,27.43926-40.13873,12.69948,12.69948-40.13874ZM92.05339,238.90713l-30.9612-30.96121,50.01335-50.01379,30.96165,30.96165-50.0138,50.01335ZM221.05599,257.04261l-12.93168-12.93168,13.82581-13.82627c1.49652-1.49652,1.49652-3.92324,0-5.42021s-3.92324-1.49652-5.42021,0l-13.82581,13.82672-12.93214-12.93214,5.55819-5.55819c1.49652-1.49652,1.49652-3.92324,0-5.42021s-3.92324-1.49652-5.42021,0l-5.55819,5.55819-12.93214-12.93214,13.82581-13.82581c1.49652-1.49652,1.49652-3.92324,0-5.42021s-3.92369-1.49652-5.42021,0l-13.82536,13.82581-12.93168-12.93168,5.55773-5.55819c1.49652-1.49652,1.49652-3.92324,0-5.42021s-3.92324-1.49652-5.42021,0l-5.55774,5.55819-12.93214-12.93214,13.82581-13.82627c1.49652-1.49652,1.49608-3.92324-.00045-5.42021s-3.92324-1.49652-5.42021,0l-13.82536,13.82627-12.93168-12.93168,5.55774-5.55729c1.49652-1.49607,1.49698-3.92279.00045-5.42021-1.49698-1.49698-3.92324-1.49742-5.42021-.0009l-5.55819,5.55819-12.93169-12.93214,13.82581-13.82581c1.49652-1.49652,1.49652-3.92324,0-5.42021s-3.92324-1.49652-5.42021,0l-13.82581,13.82581-12.93169-12.93168,5.55774-5.55729c1.49652-1.49607,1.49697-3.92279.00045-5.42021s-3.92324-1.49742-5.42022-.0009l-5.55774,5.55819-12.93169-12.93078,13.82581-13.82536c1.49652-1.49652,1.49652-3.92324,0-5.42021s-3.92324-1.49652-5.42021,0l-13.82536,13.82536-12.93169-12.93169,35.98598-35.98598,178.09927,178.09927-35.98644,35.98595Z"/>
</svg>