<?xml version="1.0" encoding="UTF-8"?>
<svg id="Layer_1" xmlns="http://www.w3.org/2000/svg" xmlns:svgjs="http://svgjs.dev/svgjs" version="1.1" viewBox="0 0 300 300">
  <!-- Generator: Adobe Illustrator 29.1.0, SVG Export Plug-In . SVG Version: 2.1.0 Build 142)  -->
  <defs>
    <style>
      .st0 {
        fill: #0051b1;
      }
    </style>
  </defs>
  <path class="st0" d="M237,102.5l33.3-33.3c1.9-1.9,2.5-4.8,1.5-7.3-1-2.5-3.4-4.2-6.2-4.2l-22.9-.3-.3-22.9c0-2.7-1.7-5.1-4.2-6.2s-5.4-.4-7.3,1.5l-33.3,33.3c-.9.9-1.5,1.9-1.8,3.1l-.6,2.3c-16.7-10.3-36.4-16.2-57.4-16.2-60.7,0-110,49.3-110,110s49.3,110,110,110,110-49.3,110-110-5.9-40.7-16.2-57.4l2.3-.6c1.2-.3,2.3-.9,3.1-1.8ZM234.3,162.3c0,53.2-43.3,96.5-96.5,96.5s-96.5-43.3-96.5-96.5,43.3-96.5,96.5-96.5,38.6,6.1,54,16.5l-5.5,21.9-4.5,4.5c-12-9.9-27.3-15.8-44-15.8-38.2,0-69.4,31.1-69.4,69.4s31.1,69.4,69.4,69.4,69.4-31.1,69.4-69.4-5.9-32-15.8-44l4.5-4.5,21.9-5.5c10.4,15.4,16.5,34,16.5,54ZM130.5,169.5c1.3,1.3,3,2,4.8,2s3.4-.7,4.8-2l15.7-15.7c1.2,2.5,1.9,5.4,1.9,8.4,0,10.9-8.9,19.8-19.8,19.8s-19.8-8.9-19.8-19.8,8.9-19.8,19.8-19.8,5.8.7,8.4,1.9l-15.7,15.7c-2.6,2.6-2.6,6.9,0,9.5ZM156,134.5c-5.2-3.5-11.5-5.5-18.2-5.5-18.3,0-33.2,14.9-33.2,33.2s14.9,33.2,33.2,33.2,33.2-14.9,33.2-33.2-2-13-5.5-18.2l16.2-16.2c7.5,9.5,11.9,21.4,11.9,34.4,0,30.8-25.1,55.9-55.9,55.9s-55.9-25.1-55.9-55.9,25.1-55.9,55.9-55.9,24.9,4.5,34.4,11.9l-16.2,16.2ZM228.7,91.6l-27.1,6.8,6.8-27.1,20.7-20.7.2,13.5c0,3.6,3,6.6,6.6,6.6l13.5.2-20.7,20.7Z"/>
</svg>