<?xml version="1.0" encoding="UTF-8"?>
<svg id="Layer_1" xmlns="http://www.w3.org/2000/svg" xmlns:svgjs="http://svgjs.dev/svgjs" version="1.1" viewBox="0 0 300 300">
  <!-- Generator: Adobe Illustrator 29.1.0, SVG Export Plug-In . SVG Version: 2.1.0 Build 142)  -->
  <defs>
    <style>
      .st0 {
        fill: #0051b1;
      }
    </style>
  </defs>
  <path class="st0" d="M256.4,96.3c-5.7,0-8.3-1.5-11.6-3.3-3.9-2.2-8.7-4.8-17.6-4.8s-13.7,2.7-17.6,4.8c-3.3,1.8-5.9,3.3-11.6,3.3s-8.3-1.5-11.6-3.3c-3.9-2.2-8.7-4.8-17.6-4.8s-13.7,2.7-17.6,4.8c-3.3,1.8-5.9,3.3-11.6,3.3s-8.3-1.5-11.6-3.3c-2.9-1.6-6.3-3.5-11.5-4.4v-46.2h-61.3v208.3h207.4V96.3h-6.1ZM116.3,101.1c2.1.6,3.7,1.5,5.5,2.5,3.9,2.2,8.7,4.8,17.6,4.8s13.7-2.7,17.6-4.8c3.3-1.8,5.9-3.3,11.6-3.3s8.3,1.5,11.6,3.3c3.9,2.2,8.7,4.8,17.6,4.8s13.7-2.7,17.6-4.8c3.3-1.8,5.9-3.3,11.6-3.3s8.3,1.5,11.6,3.3c2.9,1.6,6.3,3.5,11.5,4.4v26.7c-2.1-.6-3.7-1.5-5.5-2.5-3.9-2.2-8.7-4.8-17.6-4.8s-13.7,2.7-17.6,4.8c-3.3,1.8-5.9,3.3-11.6,3.3s-8.3-1.5-11.6-3.3c-3.9-2.2-8.7-4.8-17.6-4.8s-13.7,2.7-17.6,4.8c-3.3,1.8-5.9,3.3-11.6,3.3s-8.3-1.5-11.6-3.3c-2.9-1.6-6.3-3.5-11.5-4.4v-26.7ZM121.9,142.8c3.9,2.2,8.7,4.8,17.6,4.8s13.7-2.7,17.6-4.8c3.3-1.8,5.9-3.3,11.6-3.3s8.3,1.5,11.6,3.3c3.9,2.2,8.7,4.8,17.6,4.8s13.7-2.7,17.6-4.8c3.3-1.8,5.9-3.3,11.6-3.3s8.3,1.5,11.6,3.3c2.9,1.6,6.3,3.5,11.5,4.4v28.1c-2.1-.6-3.7-1.5-5.5-2.5-3.9-2.2-8.7-4.8-17.6-4.8s-13.7,2.7-17.6,4.8c-3.3,1.8-5.9,3.3-11.6,3.3s-8.3-1.5-11.6-3.3c-3.9-2.2-8.7-4.8-17.6-4.8s-13.7,2.7-17.6,4.8c-3.3,1.8-5.9,3.3-11.6,3.3s-8.3-1.5-11.6-3.3c-2.9-1.6-6.3-3.5-11.5-4.4v-28.1c2.1.6,3.7,1.5,5.5,2.5h0ZM104.1,238.4h-36.8v-17.2h14v-12.2h-14v-15.2h21.6v-12.2h-21.6v-15.2h14v-12.2h-14v-15.2h21.6v-12.2h-21.6v-15.2h14v-12.2h-14v-15.2h21.6v-12.2h-21.6v-17.2h36.8v183.8ZM116.3,238.4v-57.5c2.1.6,3.7,1.5,5.5,2.5,3.9,2.2,8.7,4.8,17.6,4.8s13.7-2.7,17.6-4.8c3.3-1.8,5.9-3.3,11.6-3.3s8.3,1.5,11.6,3.3c3.9,2.2,8.7,4.8,17.6,4.8s13.7-2.7,17.6-4.8c3.3-1.8,5.9-3.3,11.6-3.3s8.3,1.5,11.6,3.3c2.9,1.6,6.3,3.5,11.5,4.4v50.6H116.3Z"/>
</svg>