<?xml version="1.0" encoding="UTF-8"?>
<svg id="Layer_1" xmlns="http://www.w3.org/2000/svg" xmlns:svgjs="http://svgjs.dev/svgjs" version="1.1" viewBox="0 0 300 300">
  <!-- Generator: Adobe Illustrator 29.1.0, SVG Export Plug-In . SVG Version: 2.1.0 Build 142)  -->
  <defs>
    <style>
      .st0 {
        fill: #0051b1;
      }
    </style>
  </defs>
  <g>
    <path class="st0" d="M51.7,112.5v68.4h-7.9c-2.1,0-3.8,1.7-3.9,3.9,0,2.2,1.7,4,3.9,4h7.9v59.2c0,9.8,8,17.7,17.8,17.8h156.4c9.8,0,17.7-8,17.7-17.8v-50.9h7.4c2.2,0,3.9-1.8,3.9-3.9,0-2.2-1.7-4-3.9-4h-7.4v-52h7.4c2.2,0,3.9-1.8,3.9-3.9,0-2.2-1.7-4-3.9-4h-7.4v-19.9c.3-.2.7-.4,1-.6,3.9-2.7,8.6-4.2,13.4-4,2.2,0,3.9-1.8,3.9-3.9,0-2.2-1.7-4-3.9-4-5-.1-10,1.1-14.5,3.4l-7.9,4.2c-7.3,2.6-15.4,1.7-21.9-2.5-10.7-6.8-24.3-6.8-34.9,0-3.9,2.7-8.6,4.2-13.4,4-14.6-.3-14.8-9.4-30.9-9.2-16.1-.2-16.3,8.9-30.9,9.2-14.7-.3-14.8-9.4-30.9-9.2-6.7-.1-13.2,1.9-18.6,5.9-.2,0-.3.2-.5.3-3.6,2-7.7,3.1-11.9,3.1-2.1,0-3.9,1.8-3.9,3.9,0,2.2,1.7,4,3.9,4,3.3.1,6.6-.4,9.8-1.4ZM59.6,108.5c4-2.5,8.5-3.8,13.2-3.8,14.6.3,14.8,9.4,30.9,9.2,16.1.2,16.2-8.9,30.9-9.2,14.6.3,14.8,9.4,30.9,9.2,6.2.1,12.3-1.7,17.5-5.2,8.2-5.3,18.7-5.3,26.8,0,7.7,4.9,17.1,6.4,26,4v16.5h-7.3c-2.1,0-3.8,1.7-3.9,3.9,0,2.2,1.7,4,3.9,4h7.3v52h-7.3c-2.1,0-3.8,1.7-3.9,3.9,0,2.2,1.7,4,3.9,4h7.3v50.9c0,5.4-4.4,9.8-9.9,9.9H69.4c-5.4,0-9.9-4.4-9.9-9.9v-59.2h6.8s0,0,0,0c2.2,0,3.9-1.8,3.9-4,0-2.2-1.8-3.9-4-3.9h-6.8v-72.4Z"/>
    <path class="st0" d="M116.7,197.9c-17.2,0-31.6,11.1-37.1,15.8-.2.2-.4.4-.6.6-2.5,2.8-2.2,7.2.6,9.6,5.4,4.8,19.9,15.8,37.1,15.8s31.1-10.6,36.9-15.6c3.6,3.2,12.5,11,12.5,11,.7.6,1.6,1,2.6,1,2.2,0,3.9-1.8,3.9-3.9v-25c0-.8-.3-1.6-.8-2.3-1.3-1.8-3.8-2.1-5.6-.8l-12.6,9.6c-5.6-5-19.9-15.8-37-15.8h0ZM159.7,219l5.1-3.8v8.3s-5.1-4.5-5.1-4.5ZM147.6,218.8c-19.7,17.2-42.3,17.1-61.8,0,19.6-17.1,42.2-17.1,61.8,0h0Z"/>
    <path class="st0" d="M213.7,166v-25c0-.8-.3-1.6-.8-2.3-1.3-1.8-3.8-2.1-5.6-.8l-12.6,9.6c-5.6-5-19.9-15.8-37-15.8-17.2,0-31.6,11.1-37.1,15.8-.2.2-.4.4-.6.6-2.5,2.8-2.2,7.2.6,9.7,5.4,4.8,19.9,15.8,37.1,15.8,17,0,31.1-10.6,36.9-15.6,3.6,3.2,12.5,11,12.5,11,.7.6,1.6,1,2.6,1,2.2,0,3.9-1.8,3.9-3.9ZM188.7,152.5c-19.7,17.2-42.3,17.1-61.8,0,19.6-17.1,42.2-17.1,61.8,0ZM205.8,157.2l-5.1-4.4,5.1-3.8v8.3Z"/>
  </g>
  <circle class="st0" cx="82.5" cy="76.1" r="6.6"/>
  <circle class="st0" cx="82.5" cy="40.9" r="6.6"/>
  <circle class="st0" cx="118.4" cy="82.7" r="6.6"/>
  <circle class="st0" cx="89.1" cy="144" r="6.6"/>
  <circle class="st0" cx="82.5" cy="196.6" r="6.6"/>
  <circle class="st0" cx="136.5" cy="120.4" r="6.6"/>
</svg>