<?xml version="1.0" encoding="UTF-8"?>
<svg id="Layer_1" data-name="Layer 1" xmlns="http://www.w3.org/2000/svg" viewBox="0 0 300 300">
  <defs>
    <style>
      .cls-1 {
        fill: #0051b1;
      }
    </style>
  </defs>
  <path class="cls-1" d="M177.03884,132.97932c-24.29123,0-44.05353,19.76229-44.05353,44.05353s19.76229,44.05353,44.05353,44.05353,44.05353-19.76229,44.05353-44.05353-19.76229-44.05353-44.05353-44.05353ZM177.03884,211.07421c-18.77085,0-34.04136-15.27051-34.04136-34.04136s15.27051-34.04136,34.04136-34.04136,34.04136,15.27051,34.04136,34.04136-15.27051,34.04136-34.04136,34.04136Z"/>
  <path class="cls-1" d="M273.18691,249.17715l-39.72991-39.73187c5.50669-9.54871,8.66091-20.6188,8.66091-32.41243,0-17.40591-6.86968-33.2357-18.03754-44.92568v-56.20306h-.01173c0-1.30236-.4967-2.58126-1.45294-3.53946l-49.05374-49.05374c-.9582-.9582-2.23905-1.45294-3.54141-1.45294,0-.00587,0-.00782.00196-.01369H36.86657c-8.28155,0-15.01825,6.7367-15.01825,15.01825v226.27494c0,8.28155,6.7367,15.01825,15.01825,15.01825h172.19751c8.27959,0,15.01825-6.7367,15.01825-15.01825v-15.05345l25.09886,25.10081c3.30871,3.30871,7.65579,4.96306,12.00482,4.96306,4.34708,0,8.69416-1.65435,12.00287-4.96306,6.61742-6.61937,6.61742-17.38832-.00196-24.00769ZM177.03884,232.09976c-30.36306,0-55.06691-24.70384-55.06691-55.06691s24.70384-55.06691,55.06691-55.06691,55.06691,24.70384,55.06691,55.06691-24.70384,55.06691-55.06691,55.06691ZM175.02858,38.93732l31.96071,31.96266h-26.95463c-2.76117,0-5.00608-2.24687-5.00608-5.00608v-26.95658ZM214.07016,263.13747c0,2.76117-2.24687,5.00608-5.00608,5.00608H36.86657c-2.76117,0-5.00608-2.24492-5.00608-5.00608V36.86253c0-2.76117,2.24492-5.00608,5.00608-5.00608h128.14985v34.0355c0,8.28155,6.7367,15.01825,15.01825,15.01825h34.03354v42.63774c-10.51668-7.30575-23.28024-11.59417-37.02937-11.59417-35.8854,0-65.07907,29.19367-65.07907,65.07907,0,7.00656,1.11855,13.75891,3.17769,20.08886h-61.17394c-2.76312,0-5.00608,2.241-5.00608,5.00608,0,2.76312,2.24296,5.00608,5.00608,5.00608h63.92533c.47128,0,.92886-.0704,1.36103-.19359,10.84912,20.87693,32.68033,35.17164,57.78897,35.17164,11.79167,0,22.86176-3.15422,32.41047-8.66091l4.62085,4.62085v25.06561ZM266.108,266.10396c-2.71424,2.71619-7.13171,2.71619-9.84595,0l-38.41582-38.41582c3.62159-2.92347,6.92247-6.22436,9.84595-9.84595l38.41582,38.41386c2.71619,2.71619,2.71619,7.13367,0,9.8479Z"/>
  <path class="cls-1" d="M177.03884,154.50743c-2.76508,0-5.00608,2.241-5.00608,5.00608s2.241,5.00608,5.00608,5.00608c6.89901,0,12.51325,5.61424,12.51325,12.51325,0,2.76508,2.241,5.00608,5.00608,5.00608s5.00608-2.241,5.00608-5.00608c0-12.42134-10.10407-22.52542-22.52542-22.52542Z"/>
  <path class="cls-1" d="M99.0163,162.41157h-45.05279c-2.76312,0-5.00608,2.241-5.00608,5.00608s2.24296,5.00608,5.00608,5.00608h45.05279c2.76508,0,5.00608-2.241,5.00608-5.00608s-2.241-5.00608-5.00608-5.00608Z"/>
  <path class="cls-1" d="M101.98279,127.70338h-48.01928c-2.76312,0-5.00608,2.241-5.00608,5.00608,0,2.76312,2.24296,5.00608,5.00608,5.00608h48.01928c2.76508,0,5.00608-2.24296,5.00608-5.00608,0-2.76508-2.241-5.00608-5.00608-5.00608Z"/>
  <path class="cls-1" d="M116.96389,231.8299c-1.31801,0-2.60864.53385-3.53946,1.46663-.93082.93082-1.46663,2.22145-1.46663,3.53946,0,1.31605.53581,2.60864,1.46663,3.5375.93082.93277,2.22145,1.46858,3.53946,1.46858,1.31605,0,2.60864-.53581,3.54337-1.46858.93082-.92886,1.46271-2.22145,1.46271-3.5375,0-1.31801-.5319-2.60864-1.46271-3.53946-.93473-.93277-2.22732-1.46663-3.54337-1.46663Z"/>
  <path class="cls-1" d="M96.40375,231.8299h-42.44024c-2.76312,0-5.00608,2.241-5.00608,5.00608,0,2.76312,2.24296,5.00608,5.00608,5.00608h42.44024c2.76312,0,5.00608-2.24296,5.00608-5.00608,0-2.76508-2.241-5.00608-5.00608-5.00608Z"/>
  <path class="cls-1" d="M53.96156,103.00735c1.32192,0,2.60864-.53581,3.53946-1.46663.93668-.93668,1.46663-2.22145,1.46663-3.53946,0-1.31605-.52994-2.60668-1.46663-3.54337-.93082-.93082-2.2234-1.46271-3.53946-1.46271s-2.60277.5319-3.53946,1.46271c-.93082.93082-1.46663,2.22145-1.46663,3.54337,0,1.31801.53581,2.60864,1.46663,3.53946.93277.93082,2.2234,1.46663,3.53946,1.46663Z"/>
  <path class="cls-1" d="M150.00403,92.99519h-74.82138c-2.76312,0-5.00608,2.241-5.00608,5.00608,0,2.76312,2.24296,5.00608,5.00608,5.00608h74.82138c2.76508,0,5.00608-2.24296,5.00608-5.00608,0-2.76508-2.241-5.00608-5.00608-5.00608Z"/>
  <path class="cls-1" d="M53.96351,68.29721h96.04052c2.76508,0,5.00608-2.241,5.00608-5.00608s-2.241-5.00608-5.00608-5.00608H53.96351c-2.76312,0-5.00608,2.241-5.00608,5.00608s2.24296,5.00608,5.00608,5.00608Z"/>
</svg>