<?xml version="1.0" encoding="UTF-8"?>
<svg id="Layer_1" data-name="Layer 1" xmlns="http://www.w3.org/2000/svg" viewBox="0 0 300 300">
  <defs>
    <style>
      .cls-1 {
        fill: #0051b1;
      }
    </style>
  </defs>
  <path class="cls-1" d="M130.80384,256.56788c0,4.71448-3.82161,8.5361-8.5361,8.5361h-38.83924c-18.82721,0-34.14439-15.31717-34.14439-34.14439V97.79647c0-18.11018,14.17419-32.9647,32.01036-34.07098v-8.60951c0-4.71449,3.82161-8.5361,8.5361-8.5361s8.5361,3.82161,8.5361,8.5361v8.5361h34.14439v-8.5361c0-4.71449,3.82161-8.5361,8.5361-8.5361s8.5361,3.82161,8.5361,8.5361v8.5361h34.14439v-8.5361c0-4.71449,3.82161-8.5361,8.5361-8.5361s8.5361,3.82161,8.5361,8.5361v8.56853c18.23567.67691,32.86397,15.7141,32.86397,34.11195v39.26605c0,4.71449-3.82161,8.5361-8.5361,8.5361s-8.5361-3.82161-8.5361-8.5361v-39.26605c0-8.98253-6.97442-16.36156-15.79178-17.01927v8.05637c0,4.71449-3.82161,8.5361-8.5361,8.5361s-8.5361-3.82161-8.5361-8.5361v-8.10929h-34.14439v8.10929c0,4.71449-3.82161,8.5361-8.5361,8.5361s-8.5361-3.82161-8.5361-8.5361v-8.10929h-34.14439v8.10929c0,4.71449-3.82161,8.5361-8.5361,8.5361s-8.5361-3.82161-8.5361-8.5361v-7.97101c-8.40934,1.05421-14.93817,8.24331-14.93817,16.93391v133.16311c0,9.41361,7.65859,17.07219,17.07219,17.07219h38.83924c4.71449,0,8.5361,3.82161,8.5361,8.5361ZM138.48633,196.8152h-46.54691c-4.71449,0-8.5361,3.82161-8.5361,8.5361s3.82161,8.5361,8.5361,8.5361h46.54691c4.71449,0,8.5361-3.82161,8.5361-8.5361s-3.82161-8.5361-8.5361-8.5361ZM91.93942,162.67081c-4.71449,0-8.5361,3.82161-8.5361,8.5361s3.82161,8.5361,8.5361,8.5361h81.1181c4.71448,0,8.5361-3.82161,8.5361-8.5361s-3.82161-8.5361-8.5361-8.5361h-81.1181ZM199.51942,137.06252c0-4.71449-3.82161-8.5361-8.5361-8.5361h-99.04391c-4.71449,0-8.5361,3.82161-8.5361,8.5361s3.82161,8.5361,8.5361,8.5361h99.04391c4.71448,0,8.5361-3.82161,8.5361-8.5361ZM243.23576,206.38672l-46.76629,46.67837c-1.0414,1.0397-2.33376,1.79216-3.75162,2.18481l-34.45382,9.54378c-.75246.20871-1.51899.31028-2.27829.31028-2.26932,0-4.48188-.9061-6.11057-2.57534-2.17414-2.22835-2.96245-5.4631-2.05763-8.4422l10.20618-33.60021c.40888-1.34529,1.14299-2.56851,2.1383-3.56169l46.86446-46.76074c9.97827-9.97827,26.22417-9.97784,36.20884.00683,9.98509,9.98552,9.98509,26.23142.00043,36.2161h0ZM217.43242,208.02053l-12.07431-12.07431-31.62154,31.55154-5.07258,16.70045,17.3334-4.80155,31.43503-31.37612ZM231.16358,182.24323c-3.32823-3.32823-8.74352-3.32823-12.07175,0l-1.64832,1.64491,12.07218,12.07218,1.65387-1.65046c3.32225-3.32311,3.32225-8.7384-.00598-12.06663Z"/>
</svg>