<?xml version="1.0" encoding="UTF-8"?>
<svg id="Layer_1" xmlns="http://www.w3.org/2000/svg" xmlns:svgjs="http://svgjs.dev/svgjs" version="1.1" viewBox="0 0 300 300">
  <!-- Generator: Adobe Illustrator 29.1.0, SVG Export Plug-In . SVG Version: 2.1.0 Build 142)  -->
  <defs>
    <style>
      .st0 {
        fill: #0051b1;
      }
    </style>
  </defs>
  <g>
    <path class="st0" d="M239.3,135.2h-10.4v-27.6c0-21-8.2-40.8-23.2-55.7-14.9-14.9-34.7-23.2-55.7-23.2s-40.8,8.2-55.7,23.2c-14.9,14.9-23.2,34.7-23.2,55.7v27.6h-10.4c-12,0-21.7,9.7-21.7,21.7v92.7c0,12,9.7,21.7,21.7,21.7h178.6c12,0,21.7-9.7,21.7-21.7v-92.7c0-12-9.7-21.7-21.7-21.7h0ZM78.7,107.6c0-19,7.4-36.9,21-50.4,13.5-13.5,31.4-21,50.4-21s36.9,7.4,50.4,21c13.5,13.5,20.9,31.4,20.9,50.4v27.6h-14v-27.6c0-15.2-6-29.6-16.8-40.5-10.9-10.9-25.2-16.8-40.5-16.8s-29.6,6-40.5,16.8c-10.9,10.8-16.8,25.2-16.8,40.5v27.6h-14v-27.6ZM100.3,135.2v-27.6c0-13.2,5.2-25.7,14.6-35.1,9.4-9.4,21.9-14.6,35.1-14.6s25.7,5.2,35.1,14.6c9.4,9.4,14.6,21.9,14.6,35.1v27.6h-99.4ZM253.4,249.6c0,7.8-6.3,14.1-14.1,14.1H60.7c-7.8,0-14.1-6.3-14.1-14.1v-92.7c0-7.8,6.3-14.1,14.1-14.1h178.6c7.8,0,14.1,6.3,14.1,14.1v92.7Z"/>
    <path class="st0" d="M239.3,273.3H60.7c-13.1,0-23.7-10.6-23.7-23.7v-92.7c0-13.1,10.6-23.7,23.7-23.7h8.4v-25.6c0-21.5,8.4-41.8,23.8-57.1,15.3-15.3,35.6-23.8,57.1-23.8s41.8,8.4,57.1,23.8c15.3,15.3,23.7,35.6,23.7,57.1v25.6h8.4c6.3,0,12.3,2.5,16.7,6.9,4.5,4.5,6.9,10.4,6.9,16.7v92.7c0,13.1-10.6,23.7-23.7,23.7ZM60.7,137.2c-10.9,0-19.7,8.8-19.7,19.7v92.7c0,10.9,8.8,19.7,19.7,19.7h178.6c10.9,0,19.7-8.8,19.7-19.7v-92.7c0-5.2-2-10.2-5.8-13.9-3.7-3.7-8.7-5.8-13.9-5.8h-12.4v-29.6c0-20.5-8-39.8-22.6-54.3-14.6-14.6-33.9-22.6-54.3-22.6s-39.8,8-54.3,22.6c-14.6,14.6-22.6,33.8-22.6,54.3v29.6h-12.4ZM239.3,265.7H60.7c-8.9,0-16.1-7.2-16.1-16.1v-92.7c0-8.9,7.2-16.1,16.1-16.1h178.6c8.9,0,16.1,7.2,16.1,16.1v92.7c0,8.9-7.2,16.1-16.1,16.1ZM60.7,144.8c-6.7,0-12.1,5.4-12.1,12.1v92.7c0,6.7,5.4,12.1,12.1,12.1h178.6c6.7,0,12.1-5.4,12.1-12.1v-92.7c0-6.7-5.4-12.1-12.1-12.1H60.7ZM201.7,137.2h-103.4v-29.6c0-13.8,5.4-26.7,15.2-36.5,9.8-9.8,22.7-15.2,36.5-15.2s26.7,5.4,36.5,15.2c9.8,9.8,15.2,22.8,15.2,36.5v29.6ZM102.3,133.2h95.4v-25.6c0-12.7-5-24.6-14-33.7-9.1-9-21-14-33.7-14s-24.6,5-33.7,14c-9,9-14,21-14,33.7v25.6ZM223.3,137.2h-18v-29.6c0-14.7-5.8-28.6-16.2-39-10.5-10.5-24.3-16.2-39-16.2s-28.6,5.8-39,16.2c-10.5,10.5-16.2,24.3-16.2,39v29.6h-18v-29.6c0-19.5,7.6-37.9,21.5-51.8,13.9-13.9,32.3-21.5,51.8-21.5s37.9,7.6,51.8,21.5,21.5,32.3,21.5,51.8v29.6ZM209.3,133.2h10v-25.6c0-18.4-7.2-35.8-20.4-49-13.1-13.1-30.5-20.4-49-20.4s-35.8,7.2-49,20.4c-13.1,13.1-20.4,30.5-20.4,49v25.6h10v-25.6c0-15.8,6.2-30.6,17.4-41.9,11.2-11.2,26.1-17.4,41.9-17.4s30.6,6.2,41.9,17.4c11.2,11.2,17.4,26.1,17.4,41.9v25.6Z"/>
  </g>
  <path class="st0" d="M95.8,197.8l-9.4,5.4,9.4,5.4c1.8,1,2.4,3.4,1.4,5.2-.7,1.2-2,1.9-3.3,1.9s-1.3-.2-1.9-.5l-9.4-5.4v10.8c0,2.1-1.7,3.8-3.8,3.8s-3.8-1.7-3.8-3.8v-10.8l-9.4,5.4c-.6.3-1.3.5-1.9.5-1.3,0-2.6-.7-3.3-1.9-1-1.8-.4-4.1,1.4-5.2l9.4-5.4-9.4-5.4c-1.8-1-2.4-3.4-1.4-5.2s3.4-2.4,5.2-1.4l9.4,5.4v-10.8c0-2.1,1.7-3.8,3.8-3.8s3.8,1.7,3.8,3.8v10.8l9.4-5.4c1.8-1,4.1-.4,5.2,1.4s.4,4.1-1.4,5.2Z"/>
  <path class="st0" d="M143.2,197.8l-9.4,5.4,9.4,5.4c1.8,1,2.4,3.4,1.4,5.2-.7,1.2-2,1.9-3.3,1.9s-1.3-.2-1.9-.5l-9.4-5.4v10.8c0,2.1-1.7,3.8-3.8,3.8s-3.8-1.7-3.8-3.8v-10.8l-9.4,5.4c-.6.3-1.3.5-1.9.5-1.3,0-2.6-.7-3.3-1.9-1-1.8-.4-4.1,1.4-5.2l9.4-5.4-9.4-5.4c-1.8-1-2.4-3.4-1.4-5.2s3.4-2.4,5.2-1.4l9.4,5.4v-10.8c0-2.1,1.7-3.8,3.8-3.8s3.8,1.7,3.8,3.8v10.8l9.4-5.4c1.8-1,4.1-.4,5.2,1.4,1,1.8.4,4.1-1.4,5.2Z"/>
  <path class="st0" d="M190.7,197.8l-9.4,5.4,9.4,5.4c1.8,1,2.4,3.4,1.4,5.2-.7,1.2-2,1.9-3.3,1.9s-1.3-.2-1.9-.5l-9.4-5.4v10.8c0,2.1-1.7,3.8-3.8,3.8s-3.8-1.7-3.8-3.8v-10.8l-9.4,5.4c-.6.3-1.3.5-1.9.5-1.3,0-2.6-.7-3.3-1.9-1-1.8-.4-4.1,1.4-5.2l9.4-5.4-9.4-5.4c-1.8-1-2.4-3.4-1.4-5.2s3.4-2.4,5.2-1.4l9.4,5.4v-10.8c0-2.1,1.7-3.8,3.8-3.8s3.8,1.7,3.8,3.8v10.8l9.4-5.4c1.8-1,4.1-.4,5.2,1.4,1.1,1.8.4,4.1-1.4,5.2Z"/>
  <path class="st0" d="M238.2,197.8l-9.4,5.4,9.4,5.4c1.8,1,2.4,3.4,1.4,5.2-.7,1.2-2,1.9-3.3,1.9s-1.3-.2-1.9-.5l-9.4-5.4v10.8c0,2.1-1.7,3.8-3.8,3.8s-3.8-1.7-3.8-3.8v-10.8l-9.4,5.4c-.6.3-1.3.5-1.9.5-1.3,0-2.6-.7-3.3-1.9-1-1.8-.4-4.1,1.4-5.2l9.4-5.4-9.4-5.4c-1.8-1-2.4-3.4-1.4-5.2,1-1.8,3.4-2.4,5.2-1.4l9.4,5.4v-10.8c0-2.1,1.7-3.8,3.8-3.8s3.8,1.7,3.8,3.8v10.8l9.4-5.4c1.8-1,4.1-.4,5.2,1.4s.4,4.1-1.4,5.2Z"/>
</svg>