<?xml version="1.0" encoding="UTF-8"?>
<svg id="Layer_1" xmlns="http://www.w3.org/2000/svg" xmlns:svgjs="http://svgjs.dev/svgjs" version="1.1" viewBox="0 0 300 300">
  <!-- Generator: Adobe Illustrator 29.1.0, SVG Export Plug-In . SVG Version: 2.1.0 Build 142)  -->
  <defs>
    <style>
      .st0 {
        fill: #0051b1;
      }
    </style>
  </defs>
  <path class="st0" d="M114.7,266.1h-17.1c-22,0-39.8-17.9-39.8-39.8V73.7c0-22,17.9-39.8,39.8-39.8h71.2c1.9,0,3.4,1.5,3.4,3.4s-1.5,3.4-3.4,3.4h-71.2c-18.2,0-33,14.8-33,33v152.5c0,18.2,14.8,33,33,33h17.1c1.9,0,3.4,1.5,3.4,3.4s-1.5,3.4-3.4,3.4Z"/>
  <path class="st0" d="M202.4,266.1h-71.7c-1.9,0-3.4-1.5-3.4-3.4s1.5-3.4,3.4-3.4h71.7c18.2,0,33-14.8,33-33V73.7c0-18.2-14.8-33-33-33h-17.6c-1.9,0-3.4-1.5-3.4-3.4s1.5-3.4,3.4-3.4h17.6c22,0,39.8,17.9,39.8,39.8v152.5c0,22-17.9,39.8-39.8,39.8Z"/>
  <path class="st0" d="M161.9,126.5c-13.1,0-26.3-4.8-38.2-14.4-2.2-1.7-4.3-3.6-6.2-5.6-4.2-4.1-4.2-10.9,0-15.1,1.9-2,4-3.9,6.1-5.6,0,0,0,0,.1,0,11-8.9,23.5-13.8,36.3-14.2,12.8-.4,25.6,3.8,37,12.1,4.9,3.5,7.8,9.3,7.9,15.3,0,6.1-2.9,12-7.8,15.6-11,8.1-23,12.1-35,12.1ZM127.7,91.2c-1.9,1.6-3.8,3.3-5.5,5-1.5,1.5-1.5,4,0,5.6,1.8,1.8,3.7,3.5,5.7,5.1,10.4,8.4,21.6,12.7,33.1,12.9,11,.2,22-3.6,31.8-10.8,3.2-2.3,5.1-6.1,5-10,0-3.9-1.9-7.6-5.1-9.8-20.7-15.1-45-14.3-65,2,0,0,0,0-.1,0Z"/>
  <path class="st0" d="M105.6,120.3c-3.2,0-6.2-1.5-8.3-4.2-2.8-3.8-2.8-8.9.2-12.6,2.1-2.6,2.1-6.3,0-8.9-2.9-3.7-3-8.8-.2-12.6,2.8-3.8,7.7-5.2,12.1-3.5l17.3,6.8c1.3.5,2.2,1.7,2.2,3.2s-1.5,3.4-3.4,3.4h0c-.4,0-.8,0-1.2-.2l-17.4-6.8c-2.4-.9-3.8.7-4.2,1.2-.4.5-1.5,2.3,0,4.3,4,5.1,4,12.2,0,17.3-1.6,2-.4,3.8,0,4.3.4.5,1.8,2.1,4.2,1.2l17.6-6.9c1.7-.7,3.7.2,4.4,1.9.7,1.7-.2,3.7-1.9,4.4l-17.6,6.9c-1.3.5-2.6.7-3.8.7Z"/>
  <path class="st0" d="M176.8,124.3c-1.3,0-2.6-.8-3.1-2.1-6.1-14.3-6.1-32.1,0-46.4.7-1.7,2.7-2.5,4.5-1.8,1.7.7,2.5,2.7,1.8,4.5-5.4,12.7-5.4,28.4,0,41.1.7,1.7,0,3.7-1.8,4.5-.4.2-.9.3-1.3.3Z"/>
  <path class="st0" d="M200.3,194.4h-100.5c-11.8,0-21.4-9.6-21.4-21.4v-97.1c0-11.8,9.6-21.4,21.4-21.4h100.5c11.8,0,21.4,9.6,21.4,21.4v97.1c0,11.8-9.6,21.4-21.4,21.4ZM99.7,61.2c-8.1,0-14.6,6.6-14.6,14.6v97.1c0,8.1,6.6,14.6,14.6,14.6h100.5c8.1,0,14.6-6.6,14.6-14.6v-97.1c0-8.1-6.6-14.6-14.6-14.6h-100.5Z"/>
  <path class="st0" d="M105.6,163.6h-23.9c-1.9,0-3.4-1.5-3.4-3.4s1.5-3.4,3.4-3.4h23.9c14.5,0,28.9-3.4,41.9-9.9,13.9-6.9,29.4-10.6,44.9-10.6h25.9c1.9,0,3.4,1.5,3.4,3.4s-1.5,3.4-3.4,3.4h-25.9c-14.5,0-28.9,3.4-41.9,9.9-13.9,6.9-29.4,10.6-44.9,10.6Z"/>
  <path class="st0" d="M150,249c-1.2,0-2.4,0-3.6-.3-12.1-2-20.3-13.4-18.3-25.4,2-12.1,13.4-20.3,25.4-18.3,12.1,2,20.3,13.4,18.3,25.4-1.8,10.9-11.2,18.6-21.9,18.6ZM150,211.4c-7.4,0-13.9,5.4-15.2,12.9-.7,4.1.3,8.1,2.7,11.5s6,5.5,10,6.2c8.4,1.4,16.3-4.3,17.6-12.7,1.4-8.4-4.3-16.3-12.7-17.6-.8-.1-1.7-.2-2.5-.2Z"/>
  <path class="st0" d="M207.4,249h-9c-7.9,0-14.3-6.4-14.3-14.3v-15.8c0-7.9,6.4-14.3,14.3-14.3h9c7.9,0,14.3,6.4,14.3,14.3v15.8c0,7.9-6.4,14.3-14.3,14.3ZM198.4,211.4c-4.1,0-7.5,3.4-7.5,7.5v15.8c0,4.1,3.4,7.5,7.5,7.5h9c4.1,0,7.5-3.4,7.5-7.5v-15.8c0-4.1-3.4-7.5-7.5-7.5h-9Z"/>
  <path class="st0" d="M101.6,249h-9c-7.9,0-14.3-6.4-14.3-14.3v-15.8c0-7.9,6.4-14.3,14.3-14.3h9c7.9,0,14.3,6.4,14.3,14.3v15.8c0,7.9-6.4,14.3-14.3,14.3ZM92.6,211.4c-4.1,0-7.5,3.4-7.5,7.5v15.8c0,4.1,3.4,7.5,7.5,7.5h9c4.1,0,7.5-3.4,7.5-7.5v-15.8c0-4.1-3.4-7.5-7.5-7.5h-9Z"/>
  <path class="st0" d="M187.2,102.4c-.9,0-1.8-.4-2.4-1-.2-.2-.3-.3-.4-.5-.1-.2-.2-.4-.3-.6,0-.2-.2-.4-.2-.6,0-.2,0-.4,0-.7s0-.4,0-.7c0-.2.1-.4.2-.6,0-.2.2-.4.3-.6.1-.2.3-.4.4-.5.8-.8,2-1.2,3.1-.9.2,0,.4.1.6.2.2,0,.4.2.6.3.2.1.4.3.5.4.6.6,1,1.5,1,2.4s-.4,1.8-1,2.4c-.2.2-.3.3-.5.4-.2.1-.4.2-.6.3-.2,0-.4.1-.6.2-.2,0-.4,0-.7,0Z"/>
</svg>