<?xml version="1.0" encoding="UTF-8"?>
<svg id="Layer_1" data-name="Layer 1" xmlns="http://www.w3.org/2000/svg" viewBox="0 0 300 300">
  <defs>
    <style>
      .cls-1 {
        fill: #0051b1;
      }
    </style>
  </defs>
  <path class="cls-1" d="M194.38086,163.83618q-.8919,1.22636-1.89527,2.42484c-.83615,1.00337-1.72805,1.97888-2.61995,2.89866-.86402.8919-1.75591,1.75591-2.67568,2.5642-.44594.41808-.91976.80829-1.39358,1.22636-.22297.16722-.41808.36233-.64105.52957,0,0-1.00337.80829-.44594.36233-2.00677,1.53294-4.15289,2.92653-6.38262,4.18075-1.03126.55743-2.06251,1.11487-3.12163,1.61655-.30658.13936-.61318.27872-.94764.41808-.08361.02786-.86402.39021-.44594.19511.50169-.22297-.75254.30658-.64105.25085-.39021.13936-.7804.30658-1.17061.44594-2.36909.86402-4.79393,1.56081-7.24664,2.09038-.61318.13936-1.25423.25085-1.86741.36233-.36233.05575-.69679.11149-1.05912.16722-.11149.02786-.80829.11149-.16722.02786-1.36572.16722-2.73142.27872-4.09714.33446-2.84292.13936-5.68583.02786-8.50087-.30658q-.47382-.05575-1.19848-.16722c-.75254-.11149-1.50507-.25085-2.25761-.41808-1.33784-.27872-2.67568-.61318-3.98565-1.00337-3.20524-.94764-5.37923-1.81166-8.19428-3.26099-1.33784-.69679-2.61994-1.42145-3.90204-2.22974-.64105-.39021-1.25423-.80829-1.86741-1.22636-.30659-.22297-.61318-.41808-.91976-.64105-.13936-.08361-1.14274-.83615-.75254-.55743-2.5642-1.97888-5.82518-1.33784-6.9958,1.83952-.08361.25085-.19511.50169-.27872.75254.27872-.66893-.05575.11149-.11149.25085-.25084.50169-.50169,1.00337-.7804,1.4772-.25084.41808-.50169.80829-.7804,1.19848-.58531.91976.30659-.36233-.08361.11149-.13936.16722-.27872.36233-.44595.52957-.66892.75254-1.39358,1.44933-2.17399,2.11824-.08361.05575-.64105.50169-.25084.19511.47382-.33446-.30659.22297-.3902.27872-.41808.30658-.86402.5853-1.2821.83615-1.81166,1.11487-3.73481,2.03463-5.68582,2.87078-.52956.25085-1.08699.47382-1.61655.69679-.05575.02786-.7804.33446-.41808.19511s-.3902.16722-.44595.19511c-1.44933.61318-2.89865,1.22636-4.32011,1.83952,2.09038,1.19848,4.18075,2.39696,6.299,3.62332,0-1.36572.02787-2.73142.13936-4.09714.02787-.36233.05575-.72466.08361-1.087,0-.08361.08361-.8919.05575-.47382-.05575.47382.08361-.55743.11149-.66893.05575-.25085.08361-.52957.13936-.7804.22297-1.11487.47382-2.22974.80828-3.31674.16723-.5853.36233-1.14273.58531-1.72805.08361-.22297.16723-.44594.25084-.66893.27872-.75254-.13936.27872.05575-.16722,2.00677-4.32011,4.76606-8.19428,7.52536-12.06844.7804-1.11487.7804-3.12163,0-4.20862-2.78717-3.87417-5.51859-7.74833-7.52536-12.06844-.27872-.5853.22297.61318,0,0-.11149-.27872-.22297-.55743-.33446-.83615-.19511-.50169-.36233-1.03126-.52956-1.56082-.33446-1.08699-.61318-2.17399-.83615-3.28886-.11149-.58531-.22297-1.17061-.30659-1.78379.05575.47382.02787.16723,0-.13936-.02787-.36233-.08361-.72467-.11149-1.05912-.11149-1.42146-.16723-2.87078-.13936-4.32011-2.09038,1.19848-4.18075,2.39697-6.299,3.62332,1.36571.58531,2.7593,1.17061,4.12501,1.75591.25084.11149.50169.22297.75254.30659-.41808-.16723-.11149-.05575.11149.05575.52956.22297,1.08699.47382,1.61655.69679,2.00677.8919,3.98565,1.81166,5.88093,2.9544.3902.25084.7804.47382,1.14274.75254.22297.16723.44595.33446.69679.50169-.30659-.19511-.3902-.33446-.05575-.02787.7804.66892,1.50507,1.33785,2.20186,2.09037.13936.16722.30659.33446.44595.52957.50169.5853-.19511-.30658.08361.11149.25084.39021.52956.7804.7804,1.19848.27872.47382.55743.94764.7804,1.44933.02787.08361.44595,1.00337.25084.55743-.16723-.41808.25084.64105.22297.61318,1.17061,3.17738,4.4316,3.84629,6.9958,1.83952-.44595.33446.30659-.22297.3902-.27872.30659-.22297.61318-.44594.91976-.64105.50169-.33446.97551-.66893,1.4772-1.00337,1.19848-.7804,2.39697-1.50508,3.65119-2.17399,2.61994-1.42145,4.37586-2.20187,7.02367-3.12163,2.67568-.91976,5.40711-1.61655,8.19428-2.0625,1.22635-.19511,1.75591-.27872,3.28886-.3902,1.56081-.13936,3.12163-.19511,4.68244-.16723,1.22636,0,2.45271.05575,3.70693.16723.64105.05575,1.28209.11149,1.92315.19511.86402.08361.36233.02787.16722.02787.41808.05575.83615.11149,1.25423.19511,2.5642.41808,5.10052,1.05912,7.55322,1.8674,1.19848.39021,2.36909.80829,3.51183,1.28209.64105.25085-.50169-.22297.13936.05575.30658.13936.64105.27872.94764.41808.61318.27872,1.25423.5853,1.86741.8919,2.20187,1.11487,4.32011,2.39696,6.35474,3.81843.27872.19511.55743.39021.83615.61318.13936.08361.94764.72466.72466.52957-.41808-.33446.64105.50169.55743.44594.27872.22297.52957.44594.7804.66893,1.11487.91976,2.17399,1.89527,3.17738,2.92653,2.06251,2.03463,3.90204,4.20862,5.23987,6.07603,1.30997,1.83952,3.62332,2.73142,5.7137,1.50508,1.81166-1.05912,2.84292-3.87417,1.50508-5.7137-6.82856-9.44851-16.05409-16.69514-26.9798-20.82016-11.28804-4.26437-24.10901-4.59883-35.64789-1.08699-6.91218,2.09038-13.18331,5.54647-18.89701,9.95019,2.34122.61318,4.65458,1.22636,6.9958,1.83952-1.89527-5.10052-5.0169-9.16979-9.55999-12.17993-1.89527-1.25423-3.95778-2.28548-6.04816-3.20524-1.33784-.61318-2.70356-1.17061-4.06927-1.75591-.30659-.13936-.64105-.25084-.94764-.3902-.11149-.05575-.94764-.3902-.33446-.13936-.66892-.27872-1.30997-.55743-1.97889-.83615-1.42146-.61318-2.81504-.83615-4.20863,0-1.2821.75254-2.0625,2.14612-2.0625,3.62332-.02787,5.54647.7804,11.06506,2.9544,16.19346,2.00677,4.73819,4.96116,8.89108,7.94343,13.07183v-4.20862c-2.98227,4.15289-5.96454,8.33364-7.94343,13.07183-2.17399,5.1284-2.98227,10.61911-2.9544,16.19345,0,1.4772.7804,2.87078,2.0625,3.62332,1.42146.83615,2.81504.61318,4.20863,0,.66892-.27872,1.30997-.55743,1.97889-.83615-.41808.16722-.02787.02786.16723-.05575.30659-.13936.64105-.27872.94764-.39021,1.36571-.5853,2.73142-1.14273,4.06927-1.75591,2.14612-.94764,4.26437-1.97888,6.21538-3.28886,4.54308-3.01014,7.66472-7.07942,9.55999-12.17993-2.34122.61318-4.65458,1.22636-6.9958,1.83952,10.08956,7.83194,22.26948,12.34716,35.11832,12.34716,11.51101,0,23.04989-3.62332,32.44266-10.31253,5.43498-3.90204,10.06167-8.55661,13.99159-13.99159,1.33784-1.83952.30658-4.65458-1.50508-5.7137-2.03463-1.4772-4.32011-.55743-5.65795,1.28209l.00002-.00003Z"/>
  <path class="cls-1" d="M167.76339,165.92655v.08361c.05575-.36233.11149-.75254.13936-1.11487-.02786.08361-.02786.16722-.05575.25085.13936-.33446.27872-.66893.41808-1.00337-.02786.05575-.05575.11149-.08361.13936.22297-.27872.44594-.55743.64105-.83615-.05575.08361-.11149.11149-.16722.16722.27872-.22297.55743-.44594.83615-.64105-.05575.02786-.08361.05575-.13936.08361l1.00337-.41808c-.08361.02786-.16722.05575-.25085.05575.36233-.05575.75254-.11149,1.11487-.13936h-.19511c.36233.05575.75254.11149,1.11487.13936-.08361-.02786-.16722-.02786-.25085-.05575l1.00337.41808c-.05575-.02786-.11149-.05575-.13936-.08361.27872.22297.55743.44594.83615.64105-.08361-.05575-.11149-.11149-.16722-.16722.22297.27872.44594.55743.64105.83615-.02786-.05575-.05575-.08361-.08361-.13936.13936.33446.27872.66893.41808,1.00337-.02786-.08361-.05575-.16722-.05575-.25085.05575.36233.11149.75254.13936,1.11487v-.19511c-.05575.36233-.11149.75254-.13936,1.11487.02786-.08361.02786-.16722.05575-.25085-.13936.33446-.27872.66893-.41808,1.00337.02786-.05575.05575-.11149.08361-.13936-.22297.27872-.44594.55743-.64105.83615.05575-.08361.11149-.11149.16722-.16722-.27872.22297-.55743.44594-.83615.64105.05575-.02786.08361-.05575.13936-.08361-.33446.13936-.66893.27872-1.00337.41808.08361-.02786.16722-.05575.25085-.05575-.36233.05575-.75254.11149-1.11487.13936h.19511c-.36233-.05575-.75254-.11149-1.11487-.13936.08361.02786.16722.02786.25085.05575-.33446-.13936-.66893-.27872-1.00337-.41808.05575.02786.11149.05575.13936.08361-.27872-.22297-.55743-.44594-.83615-.64105.08361.05575.11149.11149.16722.16722-.22297-.27872-.44594-.55743-.64105-.83615.02786.05575.05575.08361.08361.13936-.13936-.33446-.27872-.66893-.41808-1.00337.02786.08361.05575.16722.05575.25085-.05575-.36233-.11149-.75254-.13936-1.11487v.11149c.05575,1.11487.41808,2.14612,1.22636,2.95439.72466.72466,1.92315,1.28209,2.95439,1.22636,1.087-.05575,2.20187-.39021,2.95439-1.22636.72466-.7804,1.28209-1.83952,1.22636-2.95439-.08361-1.33784-.50169-2.59206-1.4772-3.53971-.91976-.91976-2.22974-1.4772-3.53971-1.4772s-2.61995.52957-3.53971,1.4772c-.94764.94764-1.42145,2.22974-1.4772,3.53971-.08361,2.70356,2.34123,4.98904,4.96116,5.0169.39021,0,.86402-.08361,1.25423-.13936.08361-.02786.16722-.02786.25085-.05575.7804-.27872,1.4772-.61318,2.06251-1.22636.97551-1.00337,1.42145-2.20187,1.50508-3.56757.05575-1.03126-.50169-2.22974-1.22636-2.95439s-1.92315-1.28209-2.95439-1.22636c-1.087.05575-2.20187.39021-2.95439,1.22636-.7804.80829-1.17061,1.7838-1.22636,2.92653h-.00002Z"/>
  <path class="cls-1" d="M259.54487,61.3241v44.12089c2.36909-.97551,4.76605-1.97889,7.13515-2.9544-4.43161-3.92991-8.64022-8.38938-14.27031-10.56337-4.62669-1.78379-10.11742-1.86741-14.79986-.27872-2.67568.8919-5.07265,2.22974-7.27451,3.98565.13936-.11149,1.00337-.69679.13936-.13936-.25085.16723-.47382.33446-.72466.47382-.47382.30659-.97551.58531-1.4772.86402-.25085.13936-.50169.25084-.75254.36233.16722-.08361.61318-.22297-.16722.05575-.5853.22297-1.19848.41808-1.7838.55743-.52957.13936-1.087.25084-1.61655.36233-.75254.13936.97551-.02787-.33446.02787-.27872.02787-.55743.05575-.83615.05575-.55743.02787-1.11487.02787-1.64444,0-.27872,0-.55743-.02787-.83615-.05575-.75254-.05575.11149.05575-.33446-.02787-1.087-.19511-2.17399-.47382-3.23311-.86402-.13936-.05575-.97551-.41808-.36233-.13936-.25085-.11149-.50169-.25084-.75254-.36233-.55743-.30659-1.11487-.61318-1.6723-.97551-.25085-.16723-.47382-.33446-.72466-.50169-.64105-.41808.5853.44595.19511.16723-.22297-.16723-.41808-.33446-.61318-.47382-1.14273-.8919-2.28548-1.75591-3.59546-2.42484-2.22974-1.17061-4.65458-2.03463-7.16303-2.39697-5.40712-.80828-10.98145.19511-15.63601,3.1495-.91976.58531-1.7838,1.2821-2.64781,1.95102-.80829.64105.72466-.50169-.41808.30659-.52957.36233-1.087.69679-1.64444,1.00338-.11149.05575-1.53294.72467-.91976.47382-.50169.22297-1.05912.3902-1.58869.55743s-1.05912.30659-1.61655.41808c-.27872.05575-.55743.11149-.80829.13936.80829-.11149-.50169.02787-.52957.02787-1.087.08361-2.20187.05575-3.31674-.08361.69679.08361,0,0-.11149-.02787-.27872-.05575-.55743-.11149-.80829-.16723-.66893-.16723-1.33784-.36233-2.00677-.58531-.25085-.08361-.52957-.19511-.7804-.30659.19511.08361.55743.27872-.16722-.08361-.50169-.25084-1.00337-.52956-1.50508-.80828-.44594-.27872-1.087-.58531-1.42145-.97551.7804.83615.08361.05575-.22297-.16723-4.26437-3.31673-9.30915-5.26775-14.772-5.15626-5.35137.11149-10.00594,2.11825-14.18669,5.35137-.11149.08361-.25084.19511-.36233.27872-.3902.27872.83615-.55743.19511-.16723-.55743.33446-1.05912.72467-1.61655,1.05912-.50169.27872-1.00338.52956-1.50507.7804.16723-.08361.61318-.22297-.16723.05575-.33446.11149-.66892.22297-1.00338.33446-.52956.16723-1.05912.30659-1.61655.41808-.27872.05575-.55743.11149-.80828.16723-.69679.11149.58531-.05575-.11149.02787-1.25423.11149-2.48058.11149-3.73481,0-.69679-.05575.55743.11149-.11149-.02787-.27872-.05575-.55743-.11149-.80828-.16723-.55743-.11149-1.08699-.25084-1.61655-.41808-.27872-.08361-.52956-.16723-.7804-.27872-.08361-.02787-.8919-.36233-.47382-.16723.41808.16723-.3902-.19511-.47382-.22297-.3902-.19511-.75254-.3902-1.11487-.61318-.50169-.30659-.94764-.64105-1.44933-.94764-.64105-.41808.58531.44595.19511.16723-.11149-.08361-.25084-.19511-.36233-.27872-.94764-.72467-1.89527-1.4772-2.92653-2.11825-4.71031-2.84292-10.28465-3.73481-15.66389-2.87078-2.53633.41808-5.07265,1.36571-7.30239,2.64781-1.08699.61318-2.0625,1.36571-3.06589,2.14612-.22297.16723-.44595.33446-.66892.52956.8919-.75254.30659-.22297.08361-.08361-.36233.25084-.72467.47382-1.08699.69679-.47382.30659-1.00338.55743-1.50507.80828-.72467.3902-.36233.16723-.16723.08361-.25084.11149-.52956.19511-.7804.30659-.52956.19511-1.05912.33446-1.58869.47382-.27872.05575-.52956.13936-.80828.19511-.02787,0-1.33784.19511-.52956.11149-1.08699.13936-2.20186.13936-3.31673.08361-.27872-.02787-.55743-.02787-.83615-.08361.69679.08361,0,0-.11149-.02787-.66892-.13936-1.36571-.27872-2.03463-.47382-.52956-.16723-1.05913-.33446-1.58869-.55743.61318.25084-.80828-.41808-.91977-.47382-.50169-.27872-1.00338-.55743-1.4772-.8919-.1951-.11149-.55743-.30659-.69679-.50169.61318.69679.41808.30659.11149.08361-2.11825-1.61655-4.18075-2.9544-6.68921-3.92991-4.71031-1.83953-10.25678-1.97889-15.05071-.36233-5.88093,1.97889-10.78634,6.71708-15.63602,10.47976-.52956.3902-1.03125.80828-1.56081,1.19848,2.36909.97551,4.76606,1.97889,7.13515,2.9544v-44.34387c0-1.05913-.02787-.05574,0-.02787.02787-.11149.05574-.25084.11149-.36233-.16723.36233-.1951.41808-.05574.16723.08362-.36233-.36233.30659.11149-.16723.69679-.69679.02787-.05574,0-.02787.11149-.05574.22297-.11149.30659-.1951-.3902.13936-.41808.16723-.13936.08362.27872-.1951-.50169-.05574.22297-.02787h.36233c3.95778-.02787,7.94343,0,11.90121,0h194.43294c3.67907,0,7.33025-.05574,11.00932,0h.19511c.13936,0,.16722,0,.39021.02787-.64105-.08362-.02786-.02787,0,.08362-.11149-.05574-.22297-.08362-.30658-.13936.11149.05574.22297.11149.30658.1951-.05575-.27872-.33446-.33446,0,.02787.69679.69679.05575.02787.02786,0,.05575.11149.11149.22297.19511.30659-.13936-.3902-.16722-.41808-.08361-.13936.22297.64105-.02786-.91977.02786.22297.08361,2.17399,1.86741,4.29224,4.18075,4.18075,2.20187-.11149,4.26437-1.83953,4.18075-4.18075-.19511-4.98903-3.95778-8.77958-8.97469-8.94682H41.28165c-3.09376.05574-5.88093,1.44933-7.63684,4.01352-2.20186,3.26099-1.4772,8.36151-1.4772,12.12419v37.15297c0,1.64443,1.05913,3.20524,2.56419,3.81843,1.70017.69679,3.17737.22297,4.57096-.86402l4.84968-3.76268c1.6723-1.2821,3.28886-2.78717,5.04478-3.92991-.13936.08361-1.03125.69679-.13936.13936.25084-.16723.47382-.33446.72467-.47382.47382-.30659.97551-.58531,1.4772-.86402.25084-.13936.50169-.25084.75253-.36233-.16723.08361-.61318.22297.16723-.05575.58531-.22297,1.19848-.41808,1.78379-.55743.47382-.11149.94764-.22297,1.42146-.30659.83615-.16723.30659-.05575.11149-.02787.27872-.02787.55743-.05575.83615-.08361.55743-.02787,1.11487-.05575,1.64443-.02787.27872,0,.55743.02787.83615.02787.05574,0,1.33784.16723.52956.02787,1.08699.16723,2.17399.44595,3.23312.80828.25084.08361.52956.19511.78041.30659-.1951-.08361-.55743-.27872.16723.08361.55743.30659,1.14274.58531,1.6723.91976.25084.13936.47382.30659.72467.47382.13936.11149.91977.61318.30659.19511-.58531-.36233.27872.19511.3902.30659,1.00338.7804,2.00676,1.56082,3.12163,2.20186,4.73819,2.70356,10.17317,3.51184,15.52454,2.61994,2.48058-.41808,4.93329-1.36571,7.10728-2.61994,1.08699-.61318,2.0625-1.36571,3.06589-2.14612.22297-.16723.44595-.33446.66892-.52956-.8919.75254-.30659.22297-.08361.08361.36233-.25084.72467-.47382,1.08699-.69679.47382-.30659,1.00338-.55743,1.50507-.80828.08361-.02787.72467-.33446.16723-.08361.25084-.11149.52956-.19511.7804-.30659.52956-.19511,1.05912-.33446,1.58869-.47382.27872-.05575.52956-.13936.80828-.19511.08361-.02787,1.14274-.19511.66892-.13936s.36233-.02787.47382-.02787c.27872-.02787.55743-.02787.83615-.05575.55743-.02787,1.11487,0,1.64443.02787.27872.02787.55743.02787.83615.05575.69679.05575-.55743-.11149.11149.02787.61318.11149,1.22635.25084,1.83953.41808.52956.13936,1.05912.33446,1.58869.52956.7804.27872.33446.13936.16723.05575.25084.11149.50169.25084.75254.36233.50169.25084,1.00338.55743,1.4772.86402.25084.16723.47382.33446.72467.47382,1.14274.75254-.50169-.41808.05575.02787,1.75591,1.33784,3.45609,2.59206,5.49073,3.51184,4.90542,2.17399,10.45188,2.70356,15.63602,1.19848,2.45271-.69679,4.8218-1.81166,6.88431-3.31673.47382-.33446.94764-.72467,1.39358-1.08699.13936-.11149.25084-.19511.3902-.30659.44595-.36233-.27872.22297-.30659.22297.19511-.36233,1.08699-.75254,1.42146-.97551.61318-.36233,1.22635-.69679,1.86741-1.00338-.58531.27872.83615-.30659.94764-.33446.52956-.16723,1.05912-.30659,1.61655-.44595.27872-.05575.52956-.11149.80828-.16723.11149-.02787.80829-.11149.11149-.02787.61317-.08361,1.22635-.11149,1.8674-.11149.55743,0,1.11487,0,1.64444.05575.11149,0,.94764.11149.47382.02787-.47382-.05575.36233.08361.47382.08361,1.14273.22297,2.31335.52956,3.40035,1.00338-.55743-.25084.08361.05575.16722.08361.25085.13936.50169.25084.75254.3902.50169.27872,1.00337.55743,1.4772.8919.19511.11149.55743.30659.69679.50169-.52957-.58531-.52957-.41808-.30658-.22297.47382.36233.94764.75254,1.42145,1.11487,2.06251,1.53294,4.37586,2.70356,6.82856,3.45609,4.76605,1.50507,10.20103,1.30997,14.85561-.58531,2.42484-.97551,4.40372-2.25761,6.4941-3.84629.83615-.64105-.64105.41808.25085-.16723.47382-.30659.94764-.64105,1.44933-.91976,1.33784-.75254,1.42145-.80828,2.87078-1.25423,3.84629-1.17061,7.83194-.75254,11.28804,1.25423.50169.27872.97551.61318,1.44933.91976.97551.64105-.61318-.50169.25085.16723.97551.75254,1.95102,1.53294,3.01014,2.17399,2.14612,1.30997,4.59883,2.28548,7.05153,2.7593,5.32349,1.03126,10.75847.27872,15.5524-2.31335,1.19848-.64105,2.31335-1.44933,3.37247-2.31335-.13936.11149-1.03126.72467-.16722.13936.22297-.16723.44594-.30659.69679-.47382.52957-.33446,1.05912-.64105,1.61655-.91976.25085-.11149.50169-.25084.75254-.36233.64105-.27872-.50169.19511.13936-.05575.50169-.16723,1.03126-.36233,1.53294-.50169.52957-.13936,1.03126-.25084,1.56081-.36233.11149-.02787.94764-.13936.44594-.08361-.47382.05575.66893-.05575.64105-.05575,1.05912-.05575,2.11824-.02787,3.20524.08361-.83615-.08361.69679.13936.86402.16723.5853.13936,1.17061.27872,1.75591.47382.25085.08361.50169.16723.75254.27872.64105.22297-.50169-.25084.11149.05575.50169.22297.97551.47382,1.44933.72467.47382.27872.94764.55743,1.39358.86402.08361.05575.75254.55743.41808.27872-.30658-.25084.47382.41808.55743.47382,1.70017,1.4772,3.40035,3.01014,5.10052,4.51522.5853.50169,1.17061,1.03126,1.72805,1.53294,2.64781,2.34122,7.13515.80828,7.13515-2.9544v-44.12089c0-2.17399-1.92315-4.29224-4.18075-4.18075-2.22974.1951-4.15289,1.92315-4.15289,4.26437v-.00002Z"/>
  <path class="cls-1" d="M259.54487,105.44499v118.59405c0-1.83952-.02786,1.56081,0,.22297,0-.50169,0,.16722-.08361.16722.05575-.11149.08361-.22297.13936-.30658-.05575.11149-.11149.22297-.19511.30658.02786,0,.66893-.69679-.02786,0-.02786.02786-.47382.44594-.13936.13936.22297-.19511.16722-.16722-.19511.08361.11149-.05575.22297-.08361.30658-.13936,0,.05575-.97551.19511,0,.08361l-.39021.02786H48.86273c-2.56419,0-5.12839-.02786-7.69259,0h-.05574c-.05574,0-.47382-.02786-.1951,0-.30659-.02786-.25085,0,.16723.02786-.11149-.02786-.25085-.05575-.36233-.11149.05574.02786.11149.05575.16723.05575.27872.11149.22297.08361-.16723-.11149,0,.05575.50169.41808.11149.08361-.08362-.08361-.64105-.5853-.27872-.25085.36233.30658-.13936-.11149-.08362-.19511.05574.11149.08362.22297.13936.30658-.02787-.11149-.05574-.25085-.11149-.36233,0,0,.02787,1.03126,0-.02786v-118.34322c-.41808.97551-.80828,1.97889-1.22635,2.9544l4.84968-3.76268c1.6723-1.2821,3.28886-2.78717,5.04478-3.92991-.13936.08361-1.03125.69679-.13936.13936.25084-.16723.47382-.33446.72467-.47382.47382-.30659.97551-.58531,1.4772-.86402.25084-.13936.50169-.25084.75253-.36233-.16723.08361-.61318.22297.16723-.05575.58531-.22297,1.19848-.41808,1.78379-.55743.47382-.11149.94764-.22297,1.42146-.30659.83615-.16723.30659-.05575.11149-.02787.27872-.02787.55743-.05575.83615-.08361.55743-.02787,1.11487-.05575,1.64443-.02787.27872,0,.55743.02787.83615.02787.05574,0,1.33784.16723.52956.02787,1.08699.16723,2.17399.44595,3.23312.80828.25084.08361.52956.19511.78041.30659-.1951-.08361-.55743-.27872.16723.08361.55743.30659,1.14274.58531,1.6723.91976.25084.13936.47382.30659.72467.47382.13936.11149.91977.61318.30659.19511-.58531-.36233.27872.19511.3902.30659,1.00338.7804,2.00676,1.56082,3.12163,2.20186,4.73819,2.70356,10.17317,3.51184,15.52453,2.61994,2.48058-.41808,4.93329-1.36571,7.10728-2.61994,1.08699-.61318,2.0625-1.36571,3.06589-2.14612.22297-.16723.44595-.33446.66892-.52956-.8919.75254-.30659.22297-.08361.08361.36233-.25084.72467-.47382,1.08699-.69679.47382-.30659,1.00338-.55743,1.50507-.80828.08361-.02787.72467-.33446.16723-.08361.25084-.11149.52956-.19511.7804-.30659.52956-.19511,1.05912-.33446,1.58869-.47382.27872-.05575.52956-.13936.80828-.19511.08361-.02787,1.14274-.19511.66892-.13936s.36233-.02787.47382-.02787c.27872-.02787.55743-.02787.83615-.05575.55743-.02787,1.11487,0,1.64443.02787.27872.02787.55743.02787.83615.05575.69679.05575-.55743-.11149.11149.02787.61318.11149,1.22635.25084,1.83953.41808.52956.13936,1.05912.33446,1.58869.52956.7804.27872.33446.13936.16723.05575.25084.11149.50169.25084.75254.36233.50169.25084,1.00338.55743,1.4772.86402.25084.16723.47382.33446.72467.47382,1.14274.75254-.50169-.41808.05575.02787,1.75591,1.33784,3.45609,2.59206,5.49073,3.51184,4.90542,2.17399,10.45188,2.70356,15.63602,1.19848,2.45271-.69679,4.8218-1.81166,6.88431-3.31673.47382-.33446.94764-.72467,1.39358-1.08699.13936-.11149.25084-.19511.3902-.30659.44595-.36233-.27872.22297-.30659.22297.19511-.36233,1.08699-.75254,1.42146-.97551.61318-.36233,1.22635-.69679,1.86741-1.00338-.58531.27872.83615-.30659.94764-.33446.52956-.16723,1.05912-.30659,1.61655-.44595.27872-.05575.52956-.11149.80828-.16723.11149-.02787.80829-.11149.11149-.02787.61318-.08361,1.22635-.11149,1.8674-.11149.55743,0,1.11487,0,1.64444.05575.11149,0,.94764.11149.47382.02787-.47382-.05575.36233.08361.47382.08361,1.14273.22297,2.31335.52956,3.40035,1.00338-.55743-.25084.08361.05575.16722.08361.25085.13936.50169.25084.75254.3902.50169.27872,1.00337.55743,1.4772.8919.19511.11149.55743.30659.69679.50169-.52957-.58531-.52957-.41808-.30658-.22297.47382.36233.94764.75254,1.42145,1.11487,2.06251,1.53294,4.37586,2.70356,6.82856,3.45609,4.76605,1.50507,10.20103,1.30997,14.85561-.58531,2.42484-.97551,4.40372-2.25761,6.4941-3.84629.83615-.64105-.64105.41808.25085-.16723.47382-.30659.94764-.64105,1.44933-.91976,1.33784-.75254,1.42145-.80828,2.87078-1.25423,3.84629-1.17061,7.83194-.75254,11.28804,1.25423.50169.27872.97551.61318,1.44933.91976.97551.64105-.61318-.50169.25085.16723.97551.75254,1.95102,1.53294,3.01014,2.17399,2.14612,1.30997,4.59883,2.28548,7.05153,2.7593,5.32349,1.03126,10.75847.27872,15.5524-2.31335,1.19848-.64105,2.31335-1.44933,3.37247-2.31335-.13936.11149-1.03126.72467-.16722.13936.22297-.16723.44594-.30659.69679-.47382.52957-.33446,1.05912-.64105,1.61655-.91976.25085-.11149.50169-.25084.75254-.36233.64105-.27872-.50169.19511.13936-.05575.50169-.16723,1.03126-.36233,1.53294-.50169.52957-.13936,1.03126-.25084,1.56081-.36233.11149-.02787.94764-.13936.44594-.08361-.47382.05575.66893-.05575.64105-.05575,1.05912-.05575,2.11824-.02787,3.20524.08361-.83615-.08361.69679.13936.86402.16723.5853.13936,1.17061.27872,1.75591.47382.25085.08361.50169.16723.75254.27872.64105.22297-.50169-.25084.11149.05575.50169.22297.97551.47382,1.44933.72467.47382.27872.94764.55743,1.39358.86402.08361.05575.75254.55743.41808.27872-.30658-.25084.47382.41808.55743.47382,1.70017,1.4772,3.40035,3.01014,5.10052,4.51522.5853.50169,1.17061,1.03126,1.72805,1.53294,1.70017,1.50507,4.2365,1.6723,5.9088,0,1.53294-1.53294,1.70017-4.40372,0-5.9088-5.43498-4.8218-10.61911-10.39614-18.14447-11.59463-5.93667-.94764-12.12419.27872-17.0296,3.84629-.11149.08361-.22297.16723-.33446.25084-1.00337.7804-1.11487.86402-.33446.25084-.13936.16723-.55743.3902-.69679.50169-.5853.3902-1.19848.75254-1.83952,1.08699-.7804.41808-1.89527.83615-3.3446,1.14274-.27872.05575-.55743.11149-.80829.16723-1.28209.27872.44594-.02787-.33446.05575-.61318.05575-1.22636.08361-1.86741.08361-.69679,0-1.39358-.02787-2.06251-.11149.69679.08361,0,0-.11149-.02787-.47382-.11149-.94764-.19511-1.42145-.30659-.61318-.16723-1.19848-.36233-1.7838-.58531-1.25423-.44595.33446.19511-.36233-.16723-.30658-.13936-.64105-.30659-.94764-.47382-.55743-.30659-1.11487-.64105-1.64444-1.00338-.25085-.16723-1.03126-.80828-.08361-.02787-.16722-.13936-.36233-.27872-.52957-.41808-2.42484-1.86741-4.93329-3.37248-7.85982-4.29224-5.85306-1.83953-12.4029-1.05912-17.75427,1.92315-1.19848.66892-2.28548,1.50507-3.40035,2.36909-.13936.11149-.25085.19511-.39021.30659-.55743.44595.7804-.52956.11149-.11149s-1.30997.8919-2.00677,1.25423c-.25085.13936-.50169.25084-.75254.3902-1.14273.61318.64105-.19511-.55743.25084-.52957.19511-1.05912.36233-1.58869.52956-.66893.19511-1.33784.33446-2.03463.44595.69679-.11149,0,0-.11149,0-.47382.02787-.97551.05575-1.44933.08361-2.2576.02787-4.68244-.50169-6.54985-1.4772-.64105-.33446-1.25423-.69679-1.83952-1.08699-.16722-.11149-.61318-.33446-.69679-.50169.25085.3902.61318.47382.30658.22297-1.11487-.86402-2.20187-1.72805-3.40035-2.45271-5.26776-3.12163-11.84547-3.95778-17.7264-2.25761-3.01014.86402-5.65795,2.36909-8.13854,4.29224-.27872.22297-1.00338,1.03126-.22297.16723-.3902.44595-1.11487.7804-1.61655,1.05912-.55743.33446-1.11487.61318-1.70017.8919.58531-.27872-.22297.08361-.36233.13936-.3902.13936-.7804.27872-1.19848.3902-.61318.16723-1.19848.30659-1.81166.41808-1.2821.27872.44595-.02787-.33446.05575-.33446.02787-.69679.05575-1.03126.08361-.69679.02787-1.39358.02787-2.0625-.02787-.27872-.02787-.55743-.05575-.83615-.08361.80828.08361-.47382-.11149-.52956-.11149-.66892-.13936-1.36571-.30659-2.00677-.52956-.27872-.08361-.52956-.19511-.7804-.27872-1.25423-.44595.33446.19511-.36233-.16723-.58531-.27872-1.14274-.58531-1.70017-.8919-.30659-.19511-.61318-.3902-.8919-.58531-.16723-.11149-.36233-.25084-.52956-.3902.47382.36233.58531.44595.36233.27872-2.34122-1.78379-4.57096-3.23312-7.33025-4.29224-2.78717-1.05912-5.9088-1.4772-8.86319-1.2821-3.1495.22297-6.1039,1.00338-8.94682,2.36909-1.33784.64105-2.53633,1.4772-3.70693,2.36909-.33446.25084-.66892.52956-1.00338.7804-.55743.44595.7804-.52956.11149-.11149-.41808.27872-.83615.58531-1.25423.83615-.47382.30659-1.00338.55743-1.50507.80828-1.14274.61318.64105-.19511-.55743.25084-.25084.08361-.52956.19511-.7804.27872-.66892.22297-1.33784.3902-2.00677.52956-.27872.05575-.55743.11149-.80828.13936.80828-.13936-.50169.02787-.52956.02787-.69679.05575-1.39358.05575-2.0625.02787-.27872,0-.55743-.02787-.83615-.05575-1.30997-.08361.41808.08361-.33446-.02787-.61318-.11149-1.22635-.25084-1.83953-.41808-.33446-.08361-.66892-.19511-1.00338-.30659-.13936-.05575-1.36571-.55743-.75253-.27872-.52956-.22297-1.03125-.50169-1.50507-.7804-.44595-.25084-1.50507-.69679-1.81166-1.17061.25084.3902.61318.47382.30659.22297-.16723-.13936-.36233-.27872-.52956-.41808-.64105-.50169-1.2821-1.00338-1.95102-1.44933-2.48058-1.6723-5.43498-2.84292-8.38938-3.31673-6.13177-1.00338-12.45865.30659-17.44768,4.09714-2.25761,1.70017-4.45947,3.45609-6.66134,5.18414-2.14612,1.6723-5.12839,3.1495-5.29562,6.15965-.11149,1.83953,0,3.73481,0,5.60221v106.97156c0,1.89527-.05574,3.81843,0,5.7137.16723,4.98904,3.92991,8.80745,8.94681,8.97469h217.28773c5.26776,0,9.44851-3.79054,9.50424-9.16979.02786-2.28548,0-4.57096,0-6.82856v-111.54251c0-2.17399-1.92315-4.29224-4.18075-4.18075-2.28548.25084-4.20862,1.97889-4.20862,4.32011l.00005.00009Z"/>
  <path class="cls-1" d="M73.50132,239.25699h-20.48569l4.18075,4.18075v-14.63264l-4.18075,4.18075h20.48569c-1.39358-1.39358-2.78717-2.78717-4.18075-4.18075v14.63264c0,2.17399,1.92315,4.29225,4.18075,4.18075s4.18075-1.83952,4.18075-4.18075v-14.63264c0-2.2576-1.92315-4.18075-4.18075-4.18075h-20.48569c-2.25761,0-4.18075,1.92315-4.18075,4.18075v14.63264c0,2.2576,1.92315,4.18075,4.18075,4.18075h20.48569c2.17399,0,4.29224-1.92315,4.18075-4.18075-.08362-2.2576-1.83953-4.18075-4.18075-4.18075Z"/>
  <path class="cls-1" d="M247.00261,239.25699h-20.48569l4.18075,4.18075v-14.63264c-1.39358,1.39358-2.78717,2.78717-4.18075,4.18075h20.48569c-1.39358-1.39358-2.78717-2.78717-4.18075-4.18075v14.63264c0,2.17399,1.92315,4.29225,4.18075,4.18075s4.18075-1.83952,4.18075-4.18075v-14.63264c0-2.2576-1.92315-4.18075-4.18075-4.18075h-20.48569c-2.2576,0-4.18075,1.92315-4.18075,4.18075v14.63264c0,2.2576,1.92315,4.18075,4.18075,4.18075h20.48569c2.17399,0,4.29225-1.92315,4.18075-4.18075-.11149-2.2576-1.83952-4.18075-4.18075-4.18075Z"/>
</svg>