<?xml version="1.0" encoding="UTF-8"?>
<svg id="Layer_1" data-name="Layer 1" xmlns="http://www.w3.org/2000/svg" viewBox="0 0 300 300">
  <defs>
    <style>
      .cls-1 {
        fill: #0051b1;
      }
    </style>
  </defs>
  <g id="_22-Scale" data-name=" 22-Scale">
    <path class="cls-1" d="M238.64697,198.71453l-24.64693-83.18235c-2.71711-9.02378-11.00883-15.21477-20.4327-15.25602h-22.25711v-21.31022h35.51704c13.72422-.01601,24.84591-11.1377,24.86192-24.86192v-7.10341c.00051-1.96104-1.58881-3.55119-3.54986-3.5517H71.86252c-1.96104-.00051-3.55119,1.58881-3.5517,3.54986v7.10525c.01601,13.72422,11.1377,24.84591,24.86192,24.86192h35.51704v21.31022h-22.2571c-9.42388.04126-17.7156,6.23225-20.4327,15.25602l-24.64694,83.18235c-.0966.32774-.14564.66765-.14562,1.00932v31.96533c.00642,5.88199,4.77312,10.64869,10.65511,10.65511v10.65511c-.00112,1.96044,1.58722,3.55058,3.54765,3.5517h21.31427c1.96043.00112,3.55059-1.58721,3.5517-3.54765v-10.65916h99.4477v10.65511c-.00112,1.96044,1.58721,3.55058,3.54765,3.5517h21.31427c1.96044.00112,3.55058-1.58721,3.5517-3.54765v-10.65916c5.88199-.00642,10.64869-4.77312,10.65511-10.65511v-31.96533c.00003-.34167-.04902-.68158-.14562-1.00932ZM75.41423,54.104v-3.5517h149.17155v3.5517c-.0115,9.80299-7.95552,17.74701-17.75852,17.75852h-113.65451c-9.80299-.01151-17.74701-7.95553-17.75852-17.75852ZM135.79319,78.96593h28.41363v21.31022h-28.41363v-21.31022ZM93.17274,249.4477h-14.20681v-7.10341h14.20681v7.10341ZM221.03407,249.4477h-14.20681v-7.10341h14.20681v7.10341ZM231.68918,231.68918c-.00131,1.96101-1.5907,3.55039-3.5517,3.5517H71.86252c-1.96101-.00131-3.55039-1.5907-3.5517-3.5517v-31.44852l24.50121-82.68984c1.81001-6.01641,7.33792-10.14439,13.62064-10.17127h87.13466c6.28278.02681,11.81074,4.1548,13.62078,10.17126l24.50107,82.68985v31.44852ZM150,118.03467c-29.42328,0-53.27555,23.85228-53.27555,53.27555s23.85228,53.27555,53.27555,53.27555,53.27555-23.85228,53.27555-53.27555c-.03273-29.40971-23.86584-53.24283-53.27555-53.27555ZM189.06874,174.86192h6.92348c-.74346,9.76025-4.58606,19.02762-10.96727,26.45025l-4.88771-4.88786c-1.3871-1.3871-3.63604-1.3871-5.02314,0s-1.3871,3.63604,0,5.02314h0l4.88771,4.88749c-7.42256,6.38125-16.68988,10.22392-26.4501,10.96749v-6.92348c0-1.96155-1.59015-3.5517-3.5517-3.5517s-3.5517,1.59015-3.5517,3.5517v6.92348c-9.76027-.74354-19.02764-4.58621-26.45025-10.96749l4.88771-4.88749c1.3871-1.38706,1.38713-3.63596.00007-5.02306-1.38706-1.38711-3.63597-1.38714-5.02307-.00008l-4.88771,4.88786c-6.38121-7.42263-10.22382-16.69-10.96727-26.45025h6.92348c1.96155,0,3.5517-1.59015,3.5517-3.5517s-1.59015-3.5517-3.5517-3.5517h-6.92348c.74332-9.76032,4.58585-19.02778,10.96706-26.45049l4.88793,4.88771c1.38699,1.3871,3.63585,1.38719,5.02295.0002,1.38711-1.38699,1.38719-3.63585.0002-5.02295h0l-4.88796-4.88793c7.42272-6.3811,16.6901-10.22362,26.45035-10.96706v6.92348c0,1.96155,1.59015,3.5517,3.5517,3.5517s3.5517-1.59015,3.5517-3.5517v-6.92348c9.7603.7434,19.02774,4.58593,26.45049,10.96706l-4.8881,4.88793c-1.38699,1.38706-1.38694,3.63588.00012,5.02287s3.63588,1.38694,5.02287-.00012h0l4.88793-4.88771c6.38126,7.42269,10.22384,16.69016,10.9672,26.45049h-6.92348c-1.96155,0-3.5517,1.59015-3.5517,3.5517s1.59015,3.5517,3.5517,3.5517ZM165.24746,151.04065l-10.68232,10.6821c-1.42218-.69434-2.98254-1.05926-4.56514-1.06764-5.88466,0-10.65511,4.77046-10.65511,10.65511s4.77045,10.65511,10.65511,10.65511,10.65511-4.77046,10.65511-10.65511c-.00837-1.58261-.37329-3.14297-1.06764-4.56514l10.6821-10.68232c1.37442-1.39923,1.3543-3.6477-.04493-5.02211-1.38154-1.35706-3.59563-1.35706-4.97719,0ZM150,174.86192c-1.96155,0-3.5517-1.59015-3.5517-3.5517s1.59015-3.5517,3.5517-3.5517,3.5517,1.59015,3.5517,3.5517c-.00131,1.96101-1.5907,3.55039-3.5517,3.5517Z"/>
  </g>
</svg>