<?xml version="1.0" encoding="UTF-8"?>
<svg id="Layer_1" xmlns="http://www.w3.org/2000/svg" xmlns:svgjs="http://svgjs.dev/svgjs" version="1.1" viewBox="0 0 300 300">
  <!-- Generator: Adobe Illustrator 29.1.0, SVG Export Plug-In . SVG Version: 2.1.0 Build 142)  -->
  <defs>
    <style>
      .st0 {
        fill: #0051b1;
        fill-rule: evenodd;
      }
    </style>
  </defs>
  <g id="Icon">
    <path class="st0" d="M150,31.3c35.8,0,64.9,29.1,64.9,64.9s-29.1,64.9-64.9,64.9-64.9-29.1-64.9-64.9S114.2,31.3,150,31.3ZM150,48.3c-26.5,0-48,21.5-48,48s21.5,48,48,48,48-21.5,48-48-21.5-48-48-48Z"/>
    <path class="st0" d="M211.4,166.3c-3.1-3.5-2.8-8.9.7-12,3.5-3.1,8.9-2.8,11.9.7,15.4,17.4,24.7,40.3,24.7,65.3s-16.6,34.9-37.7,41.5c-25.4,7.9-56.7,6.7-61,6.5-4.1.2-35.6,1.5-61.1-6.5-21.1-6.6-37.7-19.5-37.7-41.5s9.3-47.9,24.7-65.3c3.1-3.5,8.4-3.8,11.9-.7,3.5,3.1,3.8,8.5.7,12-12.7,14.4-20.5,33.4-20.5,54.1s12.2,21.1,25.9,25.3c24.6,7.7,55.5,5.7,55.5,5.7.4,0,.7,0,1.1,0,0,0,30.8,2,55.5-5.7,13.6-4.3,25.9-11.2,25.9-25.3,0-20.7-7.7-39.7-20.5-54.1Z"/>
  </g>
</svg>