<?xml version="1.0" encoding="UTF-8"?>
<svg id="Layer_1" xmlns="http://www.w3.org/2000/svg" xmlns:svgjs="http://svgjs.dev/svgjs" version="1.1" viewBox="0 0 300 300">
  <!-- Generator: Adobe Illustrator 29.1.0, SVG Export Plug-In . SVG Version: 2.1.0 Build 142)  -->
  <defs>
    <style>
      .st0 {
        fill: #0051b1;
      }
    </style>
  </defs>
  <path class="st0" d="M32.2,90.6c4.3,0,7.9-3.5,7.9-7.9v-35.1l73.9,76.4c1.5,1.6,3.6,2.4,5.6,2.4s3.9-.7,5.5-2.2c3.1-3,3.2-8,.2-11.1L54.7,40.1h32.5c4.3,0,7.9-3.5,7.9-7.9s-3.5-7.9-7.9-7.9h-50.4c-.5,0-.9,0-1.4,0h-3.2c-4.3,0-7.9,3.5-7.9,7.9v50.4c0,4.3,3.5,7.9,7.9,7.9Z"/>
  <path class="st0" d="M267.8,24.4h-3.2c-.5,0-.9,0-1.4,0h-50.4c-4.3,0-7.9,3.5-7.9,7.9s3.5,7.9,7.9,7.9h32.5l-70.6,72.9c-3,3.1-2.9,8.1.2,11.1,1.5,1.5,3.5,2.2,5.5,2.2s4.1-.8,5.6-2.4l73.9-76.4v35.1c0,4.3,3.5,7.9,7.9,7.9s7.9-3.5,7.9-7.9v-50.4c0-4.3-3.5-7.9-7.9-7.9Z"/>
  <path class="st0" d="M267.8,209.3c-4.3,0-7.9,3.5-7.9,7.9v35.1l-73.9-76.4c-3-3.1-8-3.2-11.1-.2-3.1,3-3.2,8-.2,11.1l70.6,72.9h-32.5c-4.3,0-7.9,3.5-7.9,7.8s3.5,7.9,7.9,7.9h50.5c.2,0,.5.1.7.1s.5-.1.7-.1h3.1c4.3,0,7.9-3.5,7.9-7.9v-50.4c0-4.3-3.5-7.9-7.9-7.9Z"/>
  <path class="st0" d="M114,175.9l-73.9,76.4v-35.1c0-4.3-3.5-7.9-7.9-7.9s-7.9,3.5-7.9,7.9v50.4c0,4.3,3.5,7.9,7.9,7.9h3.1c.2,0,.5.1.7.1s.5-.1.7-.1h50.5c4.3,0,7.9-3.5,7.9-7.9s-3.5-7.9-7.9-7.9h-32.5l70.6-72.9c3-3.1,2.9-8.1-.2-11.1-3.1-3-8.1-2.9-11.1.2Z"/>
</svg>