<?xml version="1.0" encoding="UTF-8"?>
<svg id="Layer_1" xmlns="http://www.w3.org/2000/svg" xmlns:svgjs="http://svgjs.dev/svgjs" version="1.1" viewBox="0 0 300 300">
  <!-- Generator: Adobe Illustrator 29.1.0, SVG Export Plug-In . SVG Version: 2.1.0 Build 142)  -->
  <defs>
    <style>
      .st0 {
        fill: #0051b1;
      }
    </style>
  </defs>
  <path class="st0" d="M280,29.6h-38.5v-9.6c0-8-6.5-14.4-14.4-14.4H72.9c-8,0-14.4,6.5-14.4,14.4v9.6H20c-8,0-14.4,6.5-14.4,14.4v53c0,34.6,28.1,62.6,62.6,62.6h7.4c12.2,17.2,30,29.6,50.4,35.2v32.2h-14.4c-11.4,0-21.3,8.1-23.6,19.3h-5.3c-8,0-14.4,6.5-14.4,14.4v24.1c0,5.3,4.3,9.6,9.6,9.6h144.5c5.3,0,9.6-4.3,9.6-9.6v-24.1c0-8-6.5-14.4-14.4-14.4h-5.3c-2.3-11.2-12.2-19.3-23.6-19.3h-14.4v-32.2c20.3-5.6,38.1-18,50.4-35.2h7.4c34.6,0,62.6-28.1,62.6-62.6v-53c0-8-6.5-14.4-14.4-14.4ZM241.5,58.5h24.1v38.5c0,16.1-11.4,29.9-27.2,33.1,2.1-7.6,3.1-15.5,3.2-23.4v-48.2ZM61.6,130.1c-15.8-3.1-27.2-17-27.2-33.1v-38.5h24.1v48.2c0,7.9,1.1,15.8,3.2,23.4ZM68.1,150c-29.2,0-52.9-23.7-53-53v-53c0-2.7,2.2-4.8,4.8-4.8h38.5v9.6h-28.9c-2.7,0-4.8,2.2-4.8,4.8v43.3c0,22.7,17.5,41.5,40.2,43.2,1.3,3.3,2.8,6.6,4.5,9.8h-1.3ZM222.2,260.8v24.1H77.8v-24.1c0-2.7,2.2-4.8,4.8-4.8h134.9c2.7,0,4.8,2.2,4.8,4.8ZM202.2,246.3h-104.3c2-5.8,7.5-9.6,13.6-9.6h77.1c6.1,0,11.6,3.9,13.6,9.6ZM164.4,227.1h-28.9v-30.2c9.6,1.7,19.3,1.7,28.9,0v30.2ZM150,188.5c-45.2,0-81.8-36.7-81.9-81.9V20c0-2.7,2.2-4.8,4.8-4.8h154.1c2.7,0,4.8,2.2,4.8,4.8v86.7c0,45.2-36.7,81.8-81.9,81.9ZM284.9,97c0,29.2-23.7,52.9-53,53h-1.3c1.7-3.2,3.2-6.4,4.5-9.8,22.6-1.7,40.1-20.5,40.2-43.2v-43.3c0-2.7-2.2-4.8-4.8-4.8h-28.9v-9.6h38.5c2.7,0,4.8,2.2,4.8,4.8v53Z"/>
  <path class="st0" d="M168.2,63.2l-34.4,40.8-1.4-1.6c-5-6.2-14.1-7.2-20.3-2.2s-7.2,14.1-2.2,20.3l12.2,14.3c5,6.2,14.1,7.2,20.3,2.3.6-.5,1.1-1,1.6-1.5l45.3-52.8c5.4-5.9,5.1-15-.8-20.4s-15-5.1-20.4.8h0ZM182.2,76.4l-45.3,52.8c-1.8,1.9-4.9,2-6.8.2-.2-.2-.4-.4-.6-.6l-12.2-14.3c-1.6-2.1-1.1-5.2,1-6.8,2.1-1.6,5.2-1.1,6.8,1l5.4,5.8c1,1,2.3,1.5,3.6,1.5,1.4,0,2.7-.7,3.6-1.7l37.7-44.7c1.9-1.9,4.9-1.9,6.8,0,1.9,1.9,1.9,4.9,0,6.8h0Z"/>
</svg>