<?xml version="1.0" encoding="UTF-8"?>
<svg id="Layer_1" xmlns="http://www.w3.org/2000/svg" xmlns:svgjs="http://svgjs.dev/svgjs" version="1.1" viewBox="0 0 300 300">
  <!-- Generator: Adobe Illustrator 29.1.0, SVG Export Plug-In . SVG Version: 2.1.0 Build 142)  -->
  <defs>
    <style>
      .st0 {
        fill: #0051b1;
      }
    </style>
  </defs>
  <path class="st0" d="M234.4,87.3c-1.7,0-3.1-1.3-3.3-3-1.3-13.3-8.4-28.9-24.3-32.7-4.4-1-9,.5-13.4,1.9-5.9,1.9-12.6,4.1-18.1-1.1-11.8-11.2-19.7-10.3-25.8-7.8-4.9,1.9-8.4,5.1-13.2,11.9-1.1,1.5-3.1,1.9-4.6.8-1.5-1.1-1.9-3.1-.8-4.6,4.6-6.5,9.2-11.5,16.2-14.2,14.7-5.8,25.8,2.5,32.9,9.2,1.7,1.6,3,2.3,11.4-.4,5-1.7,10.8-3.5,17-2.1,12.7,3,27.1,14.6,29.4,38.5.2,1.8-1.2,3.5-3,3.6-.1,0-.2,0-.3,0Z"/>
  <path class="st0" d="M166.4,81.2c-.5,0-1-.1-1.5-.4-5.6-2.9-6.1-7.3-6.5-10.5-.3-2.8-.5-4.7-3.2-6.6-1.5-1-3.5-.6-6.6.1-3.9.9-9.3,2.2-13.9-2-12.3-11.1-18.3-8-24.6-4.7-2.6,1.3-5.2,2.7-8.2,3.1-4.9.7-8.5-.8-11.7-2.1-3.8-1.6-6.8-2.9-12.6-.4-1.7.7-3.6,0-4.4-1.7-.7-1.7,0-3.6,1.7-4.4,8.4-3.7,13.6-1.4,17.8.4,2.8,1.2,5,2.1,8.1,1.7,1.9-.3,3.9-1.3,6.1-2.4,6.9-3.6,16.4-8.5,32.1,5.7,1.9,1.7,4.2,1.3,7.9.5,3.6-.8,8-1.9,11.9.9,5.2,3.6,5.7,8,6,11.3.3,2.8.5,4.1,2.9,5.3,1.6.8,2.3,2.8,1.5,4.5-.6,1.2-1.8,1.8-3,1.8Z"/>
  <path class="st0" d="M65.3,109.7c-1.3,0-2.5-.8-3.1-2.1-6.2-15-5.2-34.6,2.3-46.6,1-1.6,3-2,4.6-1,1.6,1,2,3,1,4.6-6.4,10.1-7.2,27.5-1.8,40.5.7,1.7-.1,3.6-1.8,4.3-.4.2-.8.3-1.3.3Z"/>
  <path class="st0" d="M142.2,263.5c-.3,0-.5,0-.8,0-24.1-5.8-30.2-22.9-36-39.5-3.9-11.2-8-22.8-17.9-30.9-3.3-2.7-6.3-4.8-9-6.7-9.7-6.8-16.7-11.8-14.3-29.4.8-6-2.5-10.9-6-16.2-4-6-8.5-12.7-6-21.3,2.8-9.6,8.2-13.7,13.5-17.6,2.5-1.9,4.9-3.7,7.1-6.2,2.5-2.9,3.9-6.6,5.4-10.5,2.3-6.3,5-13.4,13.1-16.4,7.5-2.8,14.8,1.4,21.2,5.1,3.9,2.2,7.5,4.3,10.8,4.8,15.9,2.5,16.4,15.6,16.6,22.6,0,2.5.4,2.6,4,3.4,3.1.6,7.3,1.5,10.6,5.6,4.5,5.7,5.3,13.4,2.3,21.7-.6,1.7-2.5,2.6-4.3,2-1.7-.6-2.6-2.5-2-4.3,2.8-7.8.9-12.6-1.2-15.3-1.8-2.3-4.1-2.7-6.7-3.3-3.6-.7-9-1.8-9.3-9.7-.3-9.9-2.1-14.8-11-16.2-4.5-.7-8.8-3.2-13-5.6-5.7-3.3-11-6.3-15.6-4.6-5,1.9-6.7,6-9.2,12.5-1.6,4.3-3.3,8.8-6.6,12.6-2.6,3-5.4,5.1-8.1,7.1-4.8,3.6-8.9,6.7-11.1,14.2-1.6,5.6,1.5,10.3,5.2,15.7,3.9,5.7,8.2,12.3,7,20.8-1.9,13.6,2,16.4,11.5,23,2.8,2,5.9,4.2,9.4,7,11.3,9.3,15.7,21.8,20,33.8,5.7,16.2,10.7,30.3,31.3,35.3,1.8.4,2.9,2.2,2.5,4-.4,1.5-1.7,2.5-3.2,2.5Z"/>
  <path class="st0" d="M158.4,263.5h-16.2c-1.1,0-2.1-.5-2.8-1.5-1-1.5-24.1-36.1-20-69.5,3.5-28.7,17.6-46,27.9-58.6,4.4-5.3,8.1-10,10.3-14.4,3-6,1.6-12.3.1-18.9-1.4-6.1-2.8-12.4-.2-18.2,4.4-9.7,13.9-8.4,20.9-7.4,3.3.5,6.8.9,8.6.1,3.2-1.4,4.9-3.3,6.7-5.3,2.4-2.7,5.1-5.7,10.8-6.4,8-1,12.7,4.4,16.5,8.8,1.6,1.8,3.1,3.5,4.7,4.7,2.7,2,5.5,2.8,8.2,3.6,4.5,1.3,9.6,2.8,12.1,9.5,2.4,6.5.4,11.7-1.4,16.3-1.9,4.9-3.4,8.8-.5,14.7,13,25.6-6.5,39.8-19.3,49.2-1.8,1.3-3.4,2.5-4.9,3.7-15.6,12.3-17.8,19.9-22.9,38.2-.5,1.8-2.3,2.8-4.1,2.3-1.8-.5-2.8-2.3-2.3-4.1,5.6-19.9,8.6-28.5,25.2-41.6,1.6-1.2,3.3-2.5,5.1-3.8,6.3-4.6,13.4-9.8,17.5-16.4,4.6-7.4,4.5-15.2-.2-24.4-4.3-8.5-1.8-14.9.2-20.1,1.6-4.1,2.9-7.4,1.3-11.5-1.3-3.4-3.3-4.2-7.7-5.5-3-.9-6.7-2-10.3-4.7-2.2-1.6-4-3.7-5.7-5.7-3.8-4.4-6.4-7-10.7-6.5-3.2.4-4.5,1.8-6.6,4.3-2,2.2-4.5,5-9,7-3.6,1.6-8,1-12.2.4-7.9-1.1-11.8-1.1-13.9,3.6-1.7,3.8-.6,8.5.6,14,1.6,7.1,3.4,15.2-.6,23.3-2.5,5.1-6.5,9.9-11.1,15.6-10.3,12.7-23.1,28.5-26.4,55.2-3.3,27.2,13.7,56.7,18,63.5h13.9c2.5-.9,18.3-7.5,28.7-34.2.7-1.7,2.6-2.6,4.3-1.9,1.7.7,2.6,2.6,1.9,4.3-12.6,32.3-32.6,38.1-33.5,38.3-.3,0-.6.1-.9.1Z"/>
  <path class="st0" d="M151.3,263.5c0,0-.1,0-.2,0-1.8,0-3.2-1.7-3.2-3.5,0-.5.6-12.4,4.4-29.3,3.5-15.6,10.5-38.6,23.9-59.5,26.5-41.1,26.2-69.6,26.2-69.9,0-1.8,1.4-3.4,3.2-3.4,1.8,0,3.4,1.4,3.4,3.2,0,1.2.4,30.7-27.3,73.6-24.7,38.3-27.3,85-27.3,85.4,0,1.8-1.6,3.2-3.3,3.2Z"/>
  <path class="st0" d="M160.1,218c-1.2,0-2.4-.7-3-1.8-.5-1-11.5-23.7-2.8-51.5.6-1.8,2.4-2.7,4.2-2.2,1.8.6,2.7,2.4,2.2,4.2-7.9,25.1,2.3,46.3,2.4,46.5.8,1.6.1,3.6-1.5,4.5-.5.2-1,.3-1.5.3Z"/>
  <path class="st0" d="M188.3,160.7c-1.2,0-2.3-.6-2.9-1.8-.9-1.6-.2-3.6,1.4-4.5.2-.1,23.9-12.7,30.9-21.7,1.1-1.5,3.2-1.7,4.7-.6,1.5,1.1,1.7,3.2.6,4.7-7.8,10.1-32,23-33,23.5-.5.3-1,.4-1.5.4Z"/>
  <path class="st0" d="M122.4,208.4c-1.5,0-2.8-1-3.2-2.4,0-.2-4.4-15.6-9.1-35.3-6.3-26.5-10.3-47.6-11.8-62.8-.2-1.8,1.2-3.5,3-3.6,1.8-.2,3.5,1.2,3.6,3,3.4,35.5,20.5,96.4,20.6,97,.5,1.8-.5,3.6-2.3,4.1-.3,0-.6.1-.9.1Z"/>
  <path class="st0" d="M109.6,156.9c-.7,0-1.3-.2-1.9-.6-1.5-1.1-1.9-3.1-.8-4.6,0-.1,9.3-13.2,16.4-26.2.9-1.6,2.9-2.2,4.5-1.3,1.6.9,2.2,2.9,1.3,4.5-7.3,13.2-16.4,26.2-16.8,26.8-.6.9-1.7,1.4-2.7,1.4Z"/>
  <path class="st0" d="M105.8,138.1c-.1,0-.2,0-.3,0-7.2-.7-20.1-7.3-21.6-8.1-1.6-.8-2.3-2.9-1.4-4.5s2.9-2.3,4.5-1.4c3.6,1.9,14.1,6.9,19.1,7.4,1.8.2,3.2,1.8,3,3.6-.2,1.7-1.6,3-3.3,3Z"/>
</svg>