<?xml version="1.0" encoding="UTF-8"?>
<svg id="Layer_1" xmlns="http://www.w3.org/2000/svg" xmlns:svgjs="http://svgjs.dev/svgjs" version="1.1" viewBox="0 0 300 300">
  <!-- Generator: Adobe Illustrator 29.1.0, SVG Export Plug-In . SVG Version: 2.1.0 Build 142)  -->
  <defs>
    <style>
      .st0 {
        fill: #0051b1;
      }
    </style>
  </defs>
  <path class="st0" d="M180.6,72c-1.1-.6-2.5-.5-3.5.3,0,0-4.5,3.5-17.1,4.6-4.4.6-8,3.5-9.7,7.6-1.6-4.1-5.3-7-9.7-7.6-12.5-1.1-17.1-4.6-17.1-4.6-1.4-1-3.3-.8-4.4.6-.4.6-.6,1.2-.6,1.9.2,2,2.3,19.5,11.2,24.6,2.6,1.4,5.5,2,8.4,1.9,3.4,0,6.7-.6,10-1.5.6,4.5.5,9-.3,13.4-.7,3.4-.9,6.8-.6,10.3-.8-.3-1.6-.6-2.3-1-1.5-.9-3.4-.3-4.3,1.2-.9,1.5-.3,3.4,1.2,4.3,5.3,3.2,12,3.2,17.3,0,1.5-.9,2-2.8,1.2-4.3-.8-1.5-2.7-2-4.3-1.2-.8.5-1.7.9-2.6,1.2-.3-3.1-.1-6.3.5-9.4.9-4.6,1.1-9.3.6-13.9,2.7.7,5.5,1,8.3,1.1,2.9,0,5.8-.6,8.4-1.9,8.8-5.1,10.9-22.6,11.1-24.6,0-1.3-.6-2.5-1.7-3h0ZM132.8,94.2c-3.3-1.9-5.8-8.2-7.1-14,4.7,1.6,9.5,2.6,14.4,2.9,3.4.3,5.4,5.1,6.2,9.1-1.8-.2-3.5-.6-5.3-1.2-3-.9-5.8-2.6-8-4.9,1.5,3,3.8,5.6,6.6,7.5.6.5,1.3.8,1.9,1.2-3,.7-6.1.5-8.9-.7h0ZM167.9,94.2c-2.8,1.2-5.9,1.4-8.9.8.7-.4,1.3-.7,1.9-1.2,2.8-1.9,5-4.6,6.5-7.6-2.2,2.3-4.9,4-8,4.9-1.7.6-3.5.9-5.3,1.2,1-3.9,2.9-8.8,6.2-9.1,4.9-.3,9.8-1.3,14.4-2.9-1.2,5.7-3.6,12-6.9,14ZM239.1,156.9c-.2-12.5,2.7-17.2,2.7-17.2,1-1.4.6-3.4-.9-4.3-.7-.4-1.5-.6-2.3-.5-2,.4-19.3,4.6-23.5,14.1-2.4,5.4-.5,12.7,1.2,17.4-5.2,0-10.1,2.5-13.4,6.5-.3-6.1,1.9-12,6.2-16.2,0,0,0-.3.3-.4.1-.2.2-.3.3-.5,0-.2,0-.4,0-.7,0-.1,0-.3,0-.4v-73.4c0-.2,0-.3,0-.5,0-.2,0-.4,0-.6,0-.2-.2-.4-.3-.7,0-.1-.1-.2-.2-.3-1.4-1.6-2.7-3.4-3.7-5.3,3.6-6,8.1-8.3,14.2-7.2,2.4,3.1,8.3,10.3,15.3,10.3,1.3,0,2.6-.3,3.9-.8,11.9-4.9,17.6-3.8,17.6-3.8,1.7.4,3.4-.6,3.8-2.3.2-.8,0-1.7-.4-2.4-1.1-1.6-10.7-15.6-20.7-16.9-.2-12.5,2.7-17.2,2.7-17.2,1-1.4.6-3.4-.9-4.3-.7-.4-1.5-.6-2.3-.5-2,.4-19.3,4.6-23.5,14.1-2.4,5.4-.5,12.7,1.2,17.4-5.2.1-10.1,2.5-13.4,6.5-.3-6.1,1.9-12,6.2-16.2,0,0,0-.3.3-.4.1-.2.2-.3.3-.5,0-.2,0-.4,0-.7,0-.1,0-.3,0-.4v-.2c-.2-17-14-30.7-31.1-30.8h-57.9c-17,.1-30.8,13.8-31.1,30.8v.2c0,.1,0,.3,0,.4,0,.2,0,.4,0,.7,0,.2.2.4.3.5,0,0,.2.3.2.4,4.3,4.3,6.6,10.2,6.2,16.3-3.2-4-8-6.3-13.2-6.5,1.7-4.7,3.7-12,1.2-17.4-4.2-9.4-21.6-13.7-23.5-14.1-1.2-.2-2.4.3-3.1,1.3-.7,1.1-.7,2.4,0,3.5,0,0,3,4.9,2.7,17.3-10,1.2-19.6,15.3-20.7,16.9-.9,1.4-.5,3.4.9,4.3.7.4,1.4.6,2.2.5,0,0,5.8-1.1,17.7,3.8,1.2.5,2.5.8,3.9.8,6.9,0,12.9-7,15.3-10.3,6-1.1,10.6,1.2,14.2,7.2-1,1.9-2.2,3.6-3.6,5.3,0,0-.1.2-.2.3-.1.2-.2.4-.3.7,0,.2,0,.4,0,.6,0,.2,0,.3,0,.5v73.4c0,.1,0,.3,0,.4,0,.2,0,.4,0,.7,0,.2.2.4.3.5,0,.2.2.3.2.4,4.3,4.3,6.6,10.2,6.2,16.3-3.2-4-8-6.3-13.2-6.5,1.7-4.7,3.7-12,1.2-17.4-4.2-9.4-21.6-13.7-23.5-14.1-1.2-.2-2.4.3-3.1,1.3-.7,1.1-.7,2.4,0,3.5,0,0,3,4.9,2.7,17.3-10,1.2-19.6,15.3-20.7,16.9-.9,1.4-.5,3.4.9,4.3.7.4,1.4.6,2.2.5,0,0,5.8-1.1,17.7,3.8,1.2.5,2.5.8,3.9.8,6.9,0,12.9-7,15.3-10.2,6-1.1,10.6,1.3,14.2,7.2-1.1,1.9-2.4,3.7-3.8,5.3,0,0-.1.2-.2.3-.1.2-.2.4-.3.7,0,.2,0,.4,0,.6,0,.2,0,.3,0,.5v35.5c0,9.3,3.6,18.3,10.2,25v31.6c0,1.7,1.4,3.1,3.1,3.1h93.5c1.7,0,3.1-1.4,3.1-3.1v-31.7c6.5-6.7,10.2-15.7,10.2-25v-35.4c0-.2,0-.3,0-.5,0-.2,0-.4,0-.6,0-.2-.2-.4-.3-.7,0-.1-.1-.2-.2-.3-1.4-1.6-2.7-3.4-3.7-5.3,3.6-6,8.1-8.3,14.2-7.2,2.4,3.1,8.3,10.2,15.3,10.2,1.3,0,2.6-.3,3.9-.8,11.9-4.9,17.6-3.8,17.6-3.8,1.7.4,3.4-.6,3.8-2.3.2-.8,0-1.7-.4-2.4-1.3-1.6-10.9-15.6-20.9-16.8h0ZM251,66.3c-5,.8-9.8,2.1-14.5,4.1-3.1,1.3-7.4-2.2-10.1-5.3,1.8-.6,3.6-1.1,5.4-1.4,3.1-.6,6.4-.3,9.4.7-2.7-2.1-6-3.4-9.4-3.8-.7,0-1.5-.2-2.3-.3,2.4-2,5.3-3.2,8.4-3.5,4,.2,9.2,4.8,13,9.4h0ZM220.7,45.3c1.6-3.7,7.8-6.8,13.4-8.8-1.1,4.9-1.5,9.9-1.3,15-3,1.1-5.8,2.7-8.3,4.7,0-.9.2-1.8.4-2.7.6-3.2,2-6.1,4-8.6-2.9,1.8-5.3,4.4-6.9,7.5-.4.7-.7,1.4-1.1,2.1-1.1-2.9-1.1-6.2-.3-9.2h0ZM79,45.3c.9,3,.8,6.2-.3,9.1-.3-.7-.7-1.4-1.1-2.1-1.6-3-4-5.6-6.9-7.5,2.1,2.4,3.5,5.4,4.1,8.6.2.9.3,1.8.4,2.7-2.5-2-5.3-3.6-8.3-4.8.2-5-.3-10.1-1.5-15,5.3,1.8,11.8,4.9,13.5,8.8h0ZM63.4,70.3c-4.6-2-9.5-3.4-14.5-4.1,3.8-4.6,9-9.2,13-9.4,3.1.3,6,1.5,8.4,3.5-.7,0-1.5.2-2.3.3-3.4.5-6.6,1.8-9.4,3.8,3-1,6.2-1.3,9.4-.7,1.8.3,3.6.8,5.4,1.4-2.8,3.1-6.9,6.7-10.2,5.3h.2ZM79,151.6c.9,3,.8,6.2-.3,9.1-.3-.7-.7-1.4-1.1-2.1-1.6-3-4-5.6-6.9-7.5,2.1,2.4,3.5,5.4,4.1,8.6.2.9.3,1.8.4,2.7-2.5-2-5.3-3.6-8.3-4.8.2-5-.3-10.1-1.5-15,5.3,1.8,11.8,4.9,13.5,8.8h0ZM63.4,176.6c-4.6-2-9.5-3.4-14.5-4.1,3.8-4.6,9-9.2,13-9.4,3.1.3,6,1.5,8.4,3.5-.8,0-1.5,0-2.3.3-3.4.5-6.6,1.8-9.4,3.8,3-1,6.2-1.3,9.4-.7,1.8.3,3.6.8,5.4,1.4-2.8,3.1-6.9,6.7-10.2,5.3h.2ZM120.9,23.5h58c12.5,0,22.9,9.3,24.6,21.7h-107.4c1.7-12.3,12.2-21.5,24.6-21.6h.2ZM106.1,276.3v-23.3c5.8,3.8,12.5,5.7,19.3,5.7h48.8c6.9,0,13.6-2,19.3-5.7v23.3h-87.5ZM174.3,252.5h-48.8c-16.3,0-29.5-13.2-29.5-29.5v-34.4c9.4-11.5,9.4-23.6,0-35.1v-71.2c8.2-10.1,9.2-20.7,3.1-30.8h101.7c-6.2,10.2-5.2,20.7,3.1,30.8v71.2c-9.4,11.5-9.4,23.5,0,35.1v34.4c0,16.3-13.3,29.5-29.6,29.5,0,0,0,0,0,0h0ZM220.7,151.5c1.6-3.7,7.8-6.8,13.4-8.8-1.1,4.9-1.5,9.9-1.3,15-3,1.1-5.8,2.8-8.3,4.8,0-.9.2-1.8.4-2.7.6-3.2,2-6.1,4-8.6-2.9,1.8-5.3,4.4-6.9,7.5-.4.7-.7,1.4-1.1,2.1-1.1-2.9-1.1-6.2-.3-9.2h0ZM236.4,176.5c-3.1,1.3-7.4-2.2-10.1-5.3,1.8-.6,3.6-1.1,5.4-1.4,3.1-.6,6.4-.3,9.4.7-2.7-2.1-6-3.4-9.4-3.8-.7,0-1.5-.2-2.3-.3,2.4-2,5.3-3.2,8.4-3.5,4,.2,9.1,4.9,13,9.4-4.9.8-9.7,2.3-14.3,4.3h-.1ZM180.5,175c-1.1-.6-2.5-.5-3.5.3,0,0-4.5,3.5-17.1,4.6-4.4.6-8,3.5-9.7,7.6-1.6-4.1-5.3-7-9.7-7.6-12.5-1.1-17.1-4.6-17.1-4.6-1.4-1-3.4-.6-4.3.8-.4.5-.5,1.2-.5,1.8.2,2,2.3,19.5,11.2,24.6,2.6,1.4,5.5,2,8.4,1.9,3.4,0,6.7-.6,10-1.5.6,4.5.5,9-.3,13.4-.7,3.4-.9,6.8-.6,10.3-.8-.3-1.6-.6-2.3-1-1.5-.9-3.4-.3-4.3,1.2-.9,1.5-.3,3.4,1.2,4.3,5.3,3.2,12,3.2,17.3,0,1.5-.9,2-2.8,1.2-4.3-.8-1.5-2.7-2-4.3-1.2-.8.5-1.7.9-2.6,1.2-.3-3.1-.1-6.3.5-9.4.9-4.6,1.1-9.3.6-13.9,2.7.7,5.5,1,8.3,1.1,2.9,0,5.8-.6,8.4-1.9,8.8-5.1,10.9-22.6,11.1-24.6,0-1.3-.6-2.5-1.7-3h-.1ZM132.7,197.3c-3.3-1.9-5.8-8.2-7.1-14,4.7,1.6,9.5,2.6,14.4,2.9,3.4.3,5.4,5.1,6.2,9.1-1.8-.2-3.5-.6-5.3-1.2-3-.9-5.8-2.6-8-4.9,1.5,3.1,3.8,5.7,6.7,7.6.6.5,1.3.8,1.9,1.2-3,.7-6.1.5-8.9-.7h-.1ZM167.8,197.3c-2.8,1.2-5.9,1.4-8.9.8.7-.4,1.3-.8,1.9-1.2,2.8-1.9,5-4.6,6.5-7.6-2.2,2.3-4.9,4-8,4.9-1.7.6-3.5.9-5.3,1.2,1-3.9,2.9-8.8,6.2-9.1,5-.3,9.9-1.2,14.6-2.8-1.2,5.7-3.6,12-6.9,14h-.1Z"/>
</svg>