<?xml version="1.0" encoding="UTF-8"?>
<svg id="Layer_1" data-name="Layer 1" xmlns="http://www.w3.org/2000/svg" viewBox="0 0 300 300">
  <defs>
    <style>
      .cls-1 {
        fill: #0051b1;
      }
    </style>
  </defs>
  <path class="cls-1" d="M180.58921,71.98439c-1.1187-.60081-2.48973-.46495-3.46875.34375,0,0-4.53125,3.53125-17.125,4.625-4.35696.61742-8.04538,3.52995-9.65625,7.625-1.61088-4.09505-5.29929-7.00758-9.65625-7.625-12.5-1.09375-17.0625-4.59375-17.0625-4.59375-1.38046-1.03588-3.33928-.75656-4.37516.6239-.41894.55829-.6389,1.24075-.62484,1.9386.21875,2,2.34375,19.46875,11.15625,24.59375,2.58226,1.37564,5.48235,2.04406,8.40625,1.9375,3.37427-.06127,6.72586-.56559,9.96875-1.5.6449,4.45601.52867,8.98916-.34375,13.40625-.65979,3.38466-.86993,6.8416-.625,10.28125-.79067-.25955-1.5546-.59441-2.28125-1-1.50152-.86294-3.4183-.34528-4.28125,1.15626-.86296,1.50152-.34528,3.4183,1.15625,4.28125,5.33701,3.20514,12.00674,3.20514,17.34375,0,1.48792-.85815,2.00434-2.75632,1.15625-4.25-.84741-1.49933-2.74814-2.03041-4.25-1.1875-.83219.47609-1.712.86361-2.625,1.15625-.27715-3.13293-.10881-6.28933.5-9.375.89831-4.58983,1.08801-9.29021.5625-13.9375,2.72131.66969,5.51023,1.02617,8.3125,1.0625,2.92318.09918,5.82138-.5688,8.40625-1.9375,8.78125-5.125,10.90626-22.59375,11.125-24.59375.09588-1.26571-.58337-2.46367-1.71875-3.03125h.00001ZM132.77671,94.23439c-3.34375-1.9375-5.75-8.25-7.06249-13.96875,4.66821,1.58292,9.52041,2.55966,14.4375,2.90625,3.40625.28125,5.375,5.125,6.25,9.0625-1.78109-.24302-3.5377-.64035-5.25-1.1875-3.03898-.8954-5.7878-2.57703-7.96875-4.875,1.50113,3.03568,3.77532,5.62244,6.59375,7.5.59375.46875,1.28125.8125,1.90625,1.21875-2.9654.70475-6.07617.47553-8.90625-.65625h-.00001ZM167.93296,94.23439c-2.82727,1.17604-5.94907,1.44892-8.9375.78125.65625-.40625,1.31249-.75,1.9375-1.21875,2.78513-1.94173,5.02361-4.56764,6.50001-7.625-2.18558,2.29222-4.93276,3.97285-7.96875,4.875-1.72204.55047-3.48932.94784-5.28125,1.1875.96875-3.875,2.9375-8.78125,6.25-9.0625,4.9175-.34349,9.7701-1.32031,14.4375-2.90625-1.21875,5.71875-3.59375,12.03125-6.9375,13.96875ZM239.12047,156.92188c-.21875-12.5,2.6875-17.21876,2.6875-17.21876.95639-1.43667.56705-3.37663-.86963-4.33301-.66319-.44149-1.46995-.613-2.25537-.4795-1.96874.4375-19.34376,4.625-23.49999,14.09376-2.4375,5.43751-.53124,12.71875,1.21875,17.40625-5.19869.09621-10.09583,2.45916-13.40625,6.46875-.3485-6.05388,1.92912-11.96425,6.25-16.21875,0,0,0-.28125.25001-.4375.11225-.16664.20652-.34473.28124-.53124.02959-.21775.02959-.4385,0-.65625.01116-.13518.01116-.27107,0-.40625v-73.4375c.01469-.1559.01469-.31285,0-.46875.02909-.19685.02909-.3969,0-.59375-.09568-.22814-.21069-.44768-.34375-.65625-.05081-.11075-.1137-.21555-.18749-.3125-1.41728-1.62834-2.66342-3.39806-3.71876-5.28125,3.5625-6,8.125-8.34375,14.15625-7.25,2.37501,3.125,8.34374,10.25,15.28125,10.25,1.32987-.00889,2.64556-.27415,3.87499-.78125,11.87501-4.875,17.59374-3.78125,17.59374-3.8125,1.67828.40256,3.36514-.63162,3.7677-2.3099.20077-.83705.0474-1.71984-.42396-2.4401-1.09375-1.625-10.65626-15.625-20.68751-16.90625-.21875-12.5,2.6875-17.21875,2.6875-17.21875.95639-1.43667.56703-3.37663-.86963-4.33301-.66319-.44148-1.46995-.613-2.25537-.47949-1.96874.4375-19.34376,4.625-23.49999,14.09375-2.4375,5.4375-.53124,12.71875,1.21875,17.40625-5.19786.12074-10.08353,2.50649-13.375,6.53125-.3485-6.05388,1.92912-11.96425,6.25-16.21875,0,0,0-.28125.25001-.4375.11225-.16665.20652-.34473.28124-.53125.02959-.21775.02959-.4385,0-.65625.01116-.13519.01116-.27106,0-.40625v-.21875c-.23794-17.01505-14.04607-30.71206-31.0625-30.8125h-57.9375c-17.01642.10044-30.82456,13.79745-31.0625,30.8125v.21875c-.01116.13519-.01116.27106,0,.40625-.02958.21775-.02958.4385,0,.65625.07472.18652.169.3646.28125.53125,0,0,.15625.3125.25.4375,4.32934,4.26185,6.60766,10.18547,6.25,16.25-3.24519-3.9596-8.03959-6.32833-13.15625-6.5,1.75-4.6875,3.65625-11.96875,1.25-17.40625-4.1875-9.375-21.5625-13.65625-23.53125-14.09375-1.20263-.22109-2.42372.27956-3.125,1.28125-.70062,1.05011-.70062,2.41863,0,3.46875,0,0,2.96875,4.875,2.71875,17.28125-10.03125,1.21875-19.59375,15.28125-20.6875,16.90625-.93702,1.44938-.52167,3.38393.92771,4.32095.65013.42031,1.43313.58433,2.19729.4603,0,0,5.75-1.09375,17.65625,3.78125,1.22944.5071,2.54512.77236,3.875.78125,6.9375,0,12.90625-7.03125,15.28125-10.25,6.03125-1.09375,10.59375,1.25,14.15625,7.25-1.00598,1.87628-2.19958,3.64574-3.5625,5.28125-.0738.09695-.13669.20176-.1875.3125-.13306.20856-.24806.42811-.34375.65625-.02908.19685-.02908.3969,0,.59375-.01468.1559-.01468.31285,0,.46875v73.37499c-.01116.13518-.01116.27107,0,.40625-.02958.21775-.02958.4385,0,.65625.07472.18651.169.3646.28125.53124,0,.15625.15625.3125.25.4375,4.32934,4.26184,6.60766,10.18547,6.25,16.25-3.24519-3.9596-8.03959-6.32832-13.15625-6.50001,1.75-4.6875,3.65625-11.96876,1.25-17.40625-4.1875-9.375-21.5625-13.65625-23.53125-14.09376-1.20263-.22109-2.42372.27956-3.125,1.28125-.70062,1.05011-.70062,2.41864,0,3.46875,0,0,2.96875,4.875,2.71875,17.28125-10.03125,1.21875-19.59375,15.28125-20.6875,16.90625-.93701,1.44938-.52166,3.38393.92772,4.32094.65013.42031,1.43312.58433,2.19728.4603,0,0,5.75-1.09375,17.65625,3.78125,1.22944.5071,2.54512.77236,3.875.78125,6.9375,0,12.90625-7.03125,15.28125-10.25,6.03125-1.09375,10.59375,1.25,14.15625,7.25-1.08492,1.88743-2.36258,3.65731-3.8125,5.28125-.0738.09695-.13669.20175-.1875.3125-.13306.20856-.24806.4281-.34375.65625-.02908.19685-.02908.3969,0,.59375-.01468.1559-.01468.31285,0,.46875v35.5c-.0338,9.34465,3.61506,18.32645,10.15625,25v31.5625c0,1.72589,1.39911,3.125,3.125,3.125h93.49999c1.72589,0,3.125-1.39911,3.125-3.125v-31.6875c6.5412-6.67355,10.19006-15.65535,10.15625-25v-35.4375c.01469-.1559.01469-.31285,0-.46875.02909-.19685.02909-.3969,0-.59375-.09568-.22814-.21069-.44769-.34375-.65625-.05081-.11075-.1137-.21554-.18749-.3125-1.41728-1.62834-2.66342-3.39806-3.71876-5.28125,3.5625-5.99999,8.125-8.34376,14.15625-7.25,2.37501,3.125,8.34374,10.25,15.28125,10.25,1.32987-.00889,2.64556-.27415,3.87499-.78125,11.87501-4.875,17.59374-3.8125,17.59374-3.8125,1.67828.40256,3.36514-.63162,3.7677-2.30991.20077-.83704.0474-1.71983-.42396-2.44009-1.31249-1.5625-10.87501-15.625-20.90626-16.84375l.00005.00002ZM250.96422,66.29688c-4.97682.7628-9.83789,2.14868-14.46874,4.125-3.125,1.34375-7.375-2.15625-10.09376-5.3125,1.75843-.61545,3.56746-1.07554,5.40626-1.375,3.13532-.56056,6.36177-.3132,9.375.71875-2.74465-2.06227-5.9726-3.38573-9.375-3.84375-.74999,0-1.50001-.21875-2.28126-.28125,2.40483-1.96983,5.34256-3.17757,8.43749-3.46875,4,.15625,9.15625,4.8125,13.00001,9.375v.06251ZM220.74548,45.32813c1.59376-3.65625,7.78124-6.84375,13.40625-8.84375-1.06151,4.91485-1.49207,9.94499-1.28126,14.96875-3.00546,1.11806-5.81198,2.71124-8.31251,4.71875.08955-.89183.22514-1.77843.40624-2.65625.57108-3.17657,1.96054-6.14935,4.03125-8.625-2.9197,1.84747-5.31008,4.42091-6.9375,7.46875-.37501.6875-.74999,1.375-1.06249,2.0625-1.05724-2.9474-1.14484-6.15555-.25001-9.15625l.00002.0625ZM79.02673,45.32813c.85204,2.98701.75375,6.1651-.28125,9.09375-.3125-.6875-.6875-1.375-1.0625-2.0625-1.62741-3.04784-4.0178-5.62128-6.9375-7.46875,2.09478,2.44783,3.51637,5.39872,4.125,8.5625.1875.90625.3125,1.8125.4375,2.71875-2.51155-2.0161-5.32805-3.6195-8.34375-4.75.1654-5.03229-.32837-10.06459-1.46875-14.96875,5.3125,1.84375,11.8125,4.9375,13.53125,8.8125v.0625ZM63.40173,70.32814c-4.63085-1.97632-9.49193-3.3622-14.46875-4.125,3.84375-4.5625,9-9.21875,12.96875-9.375,3.09819.27794,6.03968,1.48722,8.4375,3.46875-.75,0-1.53125.15625-2.28125.28125-3.4024.45802-6.63034,1.78148-9.375,3.84375,3.01323-1.03195,6.23968-1.27931,9.375-.71875,1.82937.29577,3.62833.75597,5.375,1.375-2.8125,3.0625-6.90625,6.71875-10.1875,5.28125l.15625-.03126ZM79.02673,151.57814c.85204,2.98702.75375,6.1651-.28125,9.09375-.3125-.6875-.6875-1.375-1.0625-2.0625-1.62742-3.04784-4.0178-5.62128-6.9375-7.46875,2.09478,2.44783,3.51637,5.39873,4.125,8.56251.1875.90625.3125,1.81251.4375,2.71875-2.51155-2.01609-5.32805-3.61949-8.34375-4.75.1654-5.03229-.32837-10.06459-1.46875-14.96875,5.3125,1.84375,11.8125,4.93751,13.53125,8.8125v.0625ZM63.40173,176.57814c-4.63085-1.97632-9.49193-3.3622-14.46875-4.125,3.84375-4.5625,9-9.21875,12.96875-9.375,3.09819.27794,6.03968,1.48722,8.4375,3.46875-.78125,0-1.53125,0-2.28125.28125-3.4024.45803-6.63034,1.78148-9.375,3.84375,3.01323-1.03196,6.23968-1.27932,9.375-.71875,1.82937.29577,3.62833.75597,5.375,1.375-2.8125,3.0625-6.90625,6.71875-10.1875,5.28125l.15625-.03124ZM120.93298,23.45314h58.03125c12.45608.09264,22.9436,9.34086,24.59375,21.6875h-107.375c1.69265-12.30946,12.16875-21.50767,24.59375-21.59375l.15626-.09375ZM106.12048,276.2969v-23.25001c5.75439,3.75087,12.47483,5.74856,19.34375,5.74999h48.8125c6.86891-.00143,13.58936-1.99912,19.34375-5.74999v23.34375l-87.49999-.09375ZM174.27672,252.45316h-48.8125c-16.27308-.01719-29.46556-13.19571-29.5-29.46875v-34.375c9.375-11.53125,9.375-23.59375,0-35.0625v-71.21875c8.15625-10.125,9.15625-20.65625,3.125-30.84375h101.6875c-6.25,10.1875-5.15625,20.71875,3.125,30.84375v71.1875c-9.375,11.46874-9.375,23.53125,0,35.0625v34.375c-.01717,16.30964-13.25268,29.51732-29.56233,29.50015-.02089-.00002-.04178-.00007-.06267-.00014h-.00001ZM220.74548,151.51566c1.59376-3.65624,7.78124-6.84375,13.40625-8.84374-1.06151,4.91486-1.49207,9.94499-1.28126,14.96875-3.00951,1.13723-5.81627,2.75165-8.31251,4.78125.08955-.89183.22514-1.77842.40624-2.65625.57108-3.17657,1.96054-6.14935,4.03125-8.62499-2.9197,1.84747-5.31008,4.4209-6.9375,7.46875-.37501.6875-.74999,1.375-1.06249,2.0625-1.05724-2.9474-1.14484-6.15555-.25001-9.15625h.00002ZM236.37048,176.51566c-3.125,1.34375-7.375-2.15625-10.09376-5.3125,1.75843-.61544,3.56746-1.07554,5.40626-1.375,3.13532-.56057,6.36177-.31321,9.375.71875-2.74465-2.06227-5.9726-3.38572-9.375-3.84375-.74999,0-1.50001-.21875-2.28126-.28125,2.40483-1.96983,5.34256-3.17757,8.43749-3.46875,3.96874.21875,9.12499,4.875,12.96875,9.375-4.9305.82557-9.73854,2.2638-14.31251,4.28125l-.12498-.09375ZM180.46423,175.01566c-1.1187-.60081-2.48973-.46495-3.46875.34375,0,0-4.53125,3.53125-17.125,4.625-4.35696.61742-8.04538,3.52995-9.65625,7.625-1.61088-4.09504-5.29929-7.00758-9.65625-7.625-12.5-1.09375-17.0625-4.59375-17.0625-4.59375-1.42962-.96691-3.37237-.59181-4.33928.8378-.36255.53605-.54975,1.17145-.53573,1.81844.21875,2,2.34375,19.46875,11.15625,24.59375,2.58226,1.37565,5.48235,2.04406,8.40625,1.93751,3.37427-.06127,6.72586-.5656,9.96875-1.50001.6449,4.456.52867,8.98914-.34375,13.40625-.65979,3.38466-.86993,6.84159-.625,10.28125-.79067-.25954-1.5546-.59443-2.28125-1-1.50152-.86296-3.4183-.34528-4.28125,1.15626-.86294,1.50151-.34528,3.41828,1.15625,4.28123,5.33701,3.20513,12.00674,3.20513,17.34375,0,1.48792-.85816,2.00434-2.75631,1.15625-4.25-.84741-1.49932-2.74814-2.0304-4.25-1.18749-.83219.4761-1.712.86362-2.625,1.15626-.27715-3.13292-.10881-6.28932.5-9.375.89831-4.58982,1.08801-9.29019.5625-13.9375,2.72131.66969,5.51023,1.02615,8.3125,1.06249,2.92318.09918,5.82138-.5688,8.40625-1.93751,8.78125-5.125,10.90626-22.59375,11.125-24.59375.09588-1.26572-.58337-2.46367-1.71875-3.03125l-.12498-.09373ZM132.65173,197.26566c-3.34375-1.9375-5.75-8.25-7.06249-13.96875,4.66821,1.58292,9.52041,2.55966,14.4375,2.90625,3.40625.28125,5.375,5.125,6.25,9.0625-1.78109-.24302-3.5377-.64036-5.25-1.1875-3.03898-.8954-5.7878-2.57703-7.96875-4.875,1.522,3.08533,3.84181,5.70724,6.71875,7.59375.59375.46875,1.28125.81249,1.90625,1.21875-2.9654.70475-6.07617.47554-8.90625-.65625l-.12501-.09375ZM167.80798,197.26566c-2.82727,1.17604-5.94907,1.44893-8.9375.78125.65625-.40625,1.31249-.75001,1.9375-1.21875,2.78513-1.94173,5.0236-4.56762,6.50001-7.625-2.18558,2.29223-4.93276,3.97285-7.96875,4.875-1.72204.55047-3.48932.94784-5.28125,1.1875.96875-3.87501,2.9375-8.78125,6.25-9.0625,4.95554-.30245,9.85073-1.24787,14.5625-2.8125-1.21875,5.71876-3.59375,12.03125-6.9375,13.96875l-.125-.09376Z"/>
</svg>