<?xml version="1.0" encoding="UTF-8"?>
<svg id="Layer_1" data-name="Layer 1" xmlns="http://www.w3.org/2000/svg" viewBox="0 0 300 300">
  <defs>
    <style>
      .cls-1 {
        fill: #0051b1;
      }
    </style>
  </defs>
  <path class="cls-1" d="M274.69128,153.18275v-28.3644c0-14.41892-11.73026-26.14918-26.14918-26.14918h-12.67859c1.66288-2.62096,2.95412-5.46841,3.82062-8.46149.25036-.07793.4973-.15197.75156-.23477,15.88892-5.20587,25.66551-15.86748,22.7411-24.80339-1.47096-4.47818-5.90873-7.53799-12.26068-8.6456,2.80069-7.08355,2.34382-13.23143-1.43297-17.00383-3.77484-3.78069-9.9232-4.23805-17.00773-1.43688-1.1076-6.35196-4.16742-10.7902-8.64853-12.26166-8.93492-2.92343-19.59459,6.85316-24.80193,22.74695-.08232.25279-.15636.49925-.2338.74912-3.78312,1.09397-7.32465,2.85378-10.47409,5.19905-2.3589-5.0276-6.8405-8.48487-8.71477-11.77653-2.95266-5.18834-4.34034-13.681-11.42242-16.58349-5.04319-2.02331-9.92223-.04676-14.89528,2.12365-4.96526,2.16603-5.52832,2.28293-10.26903,2.70132-4.37053.38576-9.3241.82316-13.3303,4.16937-5.22827,4.36907-5.58141,12.35713-8.74496,16.94295-1.78854,2.59709-5.76065,4.90388-9.02114,8.19165-.76471.35167-1.51919.74717-2.26101,1.19139-2.42515-1.44808-4.99497-2.41444-7.61543-2.86352-.7915-5.58189-3.96626-16.50068-16.60687-21.9949-1.85089-.80416-4.00231.04384-4.80647,1.89424-.80368,1.8504.04433,4.00231,1.89473,4.80647,8.76396,3.80894,11.3708,11.17304,12.14622,15.40719-2.4159.4861-4.78114,1.41008-7.02267,2.7476-3.46409-2.06715-7.22285-3.15138-11.00305-3.15138-8.14976,0-15.69213,4.7977-21.23604,13.50955-4.70905,7.39966-7.50049,16.94246-8.00218,27.15694-12.42044,1.92006-22.0967,12.65034-22.0967,25.82819v4.27945c0,2.01747,1.63512,3.65307,3.65307,3.65307s3.65307-1.6356,3.65307-3.65307v-4.27945c0-10.17308,8.26763-18.6219,18.42999-18.83377.45103-.0112,197.44756-.00925,197.49725-.00925,10.38982,0,18.84303,8.45272,18.84303,18.84303v28.3644c0,10.38982-8.45272,18.84303-18.84303,18.84303H51.4579c-10.38982,0-18.84303-8.45272-18.84303-18.84303v-6.96909c0-2.01747-1.63512-3.65307-3.65307-3.65307s-3.65307,1.6356-3.65307,3.65307v6.96909c0,13.00933,9.5501,23.82631,22.00708,25.81748v15.36336c-12.45698,1.99117-22.00708,12.80864-22.00708,25.81748v28.3644c0,14.41892,11.73026,26.14918,26.14918,26.14918h154.96769c2.01796,0,3.65307-1.63511,3.65307-3.65307s-1.63511-3.65307-3.65307-3.65307H51.4579c-10.38982,0-18.84303-8.45272-18.84303-18.84303v-28.3644c0-10.38982,8.45272-18.84303,18.84303-18.84303h197.08421c10.38982,0,18.84303,8.45272,18.84303,18.84303v28.3644c0,10.38982-8.45272,18.84303-18.84303,18.84303h-24.99967c-2.01796,0-3.65307,1.63511-3.65307,3.65307s1.63511,3.65307,3.65307,3.65307h24.99967c14.41892,0,26.14916-11.73026,26.14916-26.14918v-28.3644c0-13.00933-9.5501-23.82631-22.00708-25.81748v-15.36336c12.45698-1.99019,22.00708-12.80719,22.00708-25.8165ZM256.23498,67.44564c1.10274,3.37008-4.20638,10.20035-15.26351,14.56796.09937-3.22298-.27032-6.44743-1.1081-9.57251,2.77292-2.6984,5.27552-5.66031,7.4357-9.00117,4.74022.33511,8.23159,1.86063,8.93591,4.00571ZM244.31721,44.687c2.03501,2.03208,1.14025,7.46103-2.1743,13.20025-1.40034,2.4198-3.20301,4.85225-5.26822,7.13469-2.97603-5.38268-7.5112-9.91833-12.89584-12.89583,2.28293-2.0652,4.7144-3.86738,7.13128-5.26627,5.74263-3.31748,11.17158-4.21126,13.20707-2.17285h.00001ZM221.55174,32.76435c2.14801.70529,3.67402,4.19665,4.00864,8.93736-3.34572,2.16311-6.31056,4.67009-9.00117,7.43522-3.12556-.83777-6.34953-1.20746-9.57252-1.1081,4.36907-11.05907,11.19983-16.36674,14.56505-15.26448ZM216.46716,56.74604l.00731.00292c15.96929,5.53757,22.29591,24.92174,12.66105,38.85115l-17.86741-17.86742c-1.42713-1.42665-3.73978-1.42665-5.16642,0s-1.42664,3.73977,0,5.16593l15.77055,15.77055h-38.98655c2.88203-4.62479,2.42661-9.32995,1.72425-14.63323-.80562-6.08456-.77006-6.91892,2.14119-13.2777,1.11637-2.4383,2.26052-4.94821,2.75393-7.58524,7.11716-7.37677,17.68477-9.65726,26.96211-6.42697h-.00001ZM177.44163,51.83095c2.39593,2.7398,4.65889,5.32764,4.98522,8.24766.44275,3.94532-4.31159,9.82579-5.36028,16.29854-.46273,2.85816-.07453,5.78646.30004,8.61881.98048,7.39918.81585,9.35771-4.34862,13.67369h-23.14099c-.25718-4.81621-1.02481-9.46584-2.29315-13.87826l6.71094-16.00679,14.12911-3.24734c1.96632-.45201,3.19425-2.41249,2.74224-4.37881s-2.41542-3.19376-4.37834-2.74175l-9.01481,2.07202,10.43025-24.87839c.89915,1.44808,1.66726,3.28289,2.45682,5.17762,2.40226,5.76163,3.12167,6.85803,6.78156,11.04299h0ZM89.83463,68.78997c5.60868-4.19421,11.95918-4.24195,17.63557.00292,7.33488,5.47035,12.29381,16.94831,13.08725,29.87628h-43.81397c.79393-12.92798,5.75286-24.40593,13.09115-29.8792ZM115.83963,66.54894c1.57472-.60738,3.19278-.91911,4.81767-.91911,8.09082,0,15.77348,7.8619,19.57218,20.03296,1.28442,4.09972,2.05985,8.46295,2.33261,13.00688h-14.68486c-.6975-13.02052-5.09969-24.67626-12.0376-32.12073ZM130.75586,47.87882c1.03406-2.97311,2.01114-5.78111,3.61362-7.12008,3.69448-3.08563,10.59975-1.91372,16.10956-3.55663,3.90878-1.16216,7.68996-3.34573,10.90077-4.21516l-10.22567,24.3918-4.66327-8.20967c-.99704-1.75445-3.22688-2.36865-4.98084-1.37209-1.75445.99656-2.36866,3.22639-1.37209,4.98084l7.44788,13.11209-3.83475,9.1468c-4.61845-8.88671-11.34011-14.71068-18.91853-16.28247,3.16502-3.16941,4.38027-6.44012,5.92333-10.87544h0ZM81.45936,66.55186c-6.93743,7.44642-11.33816,19.10021-12.03517,32.11733h-14.68778c1.26494-20.23217,13.2889-37.29397,26.72295-32.11733ZM54.62194,179.33193h190.75611v14.70094H54.62193v-14.70094Z"/>
  <path class="cls-1" d="M65.64009,153.65716c8.08157,0,14.65661-6.57504,14.65661-14.65661s-6.57504-14.65661-14.65661-14.65661-14.65661,6.57504-14.65661,14.65661,6.57504,14.65661,14.65662,14.65661ZM65.64009,131.65008c4.05296,0,7.35047,3.29751,7.35047,7.35047s-3.2975,7.35047-7.35047,7.35047-7.35047-3.29751-7.35047-7.35047,3.2975-7.35047,7.35047-7.35047Z"/>
  <path class="cls-1" d="M249.01651,139.00056c0-8.08157-6.57504-14.65661-14.65661-14.65661s-14.65661,6.57504-14.65661,14.65661,6.57504,14.65661,14.65661,14.65661,14.65661-6.57504,14.65661-14.65661h0ZM227.00943,139.00056c0-4.05296,3.2975-7.35047,7.35047-7.35047s7.35047,3.29751,7.35047,7.35047-3.2975,7.35047-7.35047,7.35047-7.35047-3.29751-7.35047-7.35047Z"/>
  <path class="cls-1" d="M50.98348,234.36376c0,8.08157,6.57504,14.65661,14.65661,14.65661s14.65661-6.57504,14.65661-14.65661-6.57504-14.65661-14.65661-14.65661-14.65661,6.57504-14.65661,14.65661ZM72.99056,234.36376c0,4.05297-3.2975,7.35047-7.35047,7.35047s-7.35047-3.2975-7.35047-7.35047,3.2975-7.35047,7.35047-7.35047,7.35047,3.2975,7.35047,7.35047Z"/>
  <path class="cls-1" d="M234.3599,249.02037c8.08157,0,14.65661-6.57504,14.65661-14.65661s-6.57504-14.65661-14.65661-14.65661-14.65661,6.57504-14.65661,14.65661,6.57504,14.65661,14.65661,14.65661ZM234.3599,227.01329c4.05297,0,7.35047,3.2975,7.35047,7.35047s-3.2975,7.35047-7.35047,7.35047-7.35047-3.2975-7.35047-7.35047,3.2975-7.35047,7.35047-7.35047Z"/>
</svg>