<?xml version="1.0" encoding="UTF-8"?>
<svg id="Layer_1" data-name="Layer 1" xmlns="http://www.w3.org/2000/svg" viewBox="0 0 300 300">
  <defs>
    <style>
      .cls-1 {
        fill: #0051b1;
      }
    </style>
  </defs>
  <g id="Page-1">
    <g id="_009---Leaf" data-name="009---Leaf">
      <path id="Shape" class="cls-1" d="M137.63112,244.83468v17.24825c0,6.87793,5.57567,12.45361,12.45361,12.45361s12.45361-5.57568,12.45361-12.45361v-17.28977c26.06541-2.34959,46.87955-12.09247,61.77408-29.17881,28.68482-32.89829,25.37631-80.53336,25.22272-82.5384-.11159-1.45442-.97835-2.74355-2.28316-3.39569-6.90071-2.73683-14.2313-4.23077-21.65268-4.41273,3.66242-19.40414.11999-39.47788-9.9629-56.45638-.77217-1.14836-2.06582-1.83644-3.44966-1.83483-9.12702.10152-18.11762,2.2283-26.32279,6.22681-8.57224-31.05931-28.65991-44.18957-33.11001-46.76747-.76959-.64626-1.7475-.9914-2.75225-.97138-1.0052-.00319-1.98054.34148-2.76055.97553-4.46255,2.59035-24.38833,15.62928-33.08095,46.76332-8.2112-4.00228-17.2094-6.12918-26.34355-6.22681-1.38766-.00021-2.68365.69296-3.4538,1.84728-10.08288,16.9785-13.62531,37.05224-9.96289,56.45638-7.42137.18196-14.75198,1.6759-21.65268,4.41273-1.3048.65214-2.17157,1.94126-2.28316,3.39569-.15359,2.01334-3.45795,49.68577,25.26423,82.60897,14.92773,17.0739,35.78338,26.81263,61.90276,29.13731h0ZM154.23594,262.08293c0,2.29264-1.85856,4.1512-4.1512,4.1512s-4.1512-1.85856-4.1512-4.1512v-53.47996c-.00104-1.44066-.74894-2.77777-1.97597-3.53268l-50.01371-30.78118c-1.4286-.88073-2.18634-2.53501-1.92016-4.19203s1.50391-2.99076,3.13646-3.37976c.31397-.0758.63594-.11343.95893-.11208.76543-.001,1.51593.21179,2.16693.61437l41.31694,25.42198c1.28058.78993,2.88836.82508,4.20224.09189s2.12819-2.11994,2.12834-3.62456v-38.81791c.00021-1.38766-.69297-2.68365-1.84728-3.45381l-33.66627-22.44141c-.91612-.61094-1.55196-1.56084-1.76762-2.64067-.21565-1.07982.00656-2.20108.61773-3.11705.61094-.91611,1.56085-1.55196,2.64067-1.76762,1.07982-.21565,2.20108.00656,3.11705.61773l24.45059,16.30178c1.27383.84989,2.9121.92946,4.26231.20703,1.35021-.72243,2.19304-2.12951,2.19281-3.66084v-34.3014c0-2.29264,1.85856-4.1512,4.1512-4.1512s4.1512,1.85856,4.1512,4.1512v34.3014c-.00023,1.53133.8426,2.93841,2.19281,3.66084s2.98848.64285,4.26231-.20703l24.45474-16.30593c1.90863-1.27127,4.48644-.7546,5.75772,1.15403s.7546,4.48645-1.15403,5.75772l-33.66627,22.44141c-1.15433.77015-1.84749,2.06614-1.84728,3.45381v38.81791c.00108,1.50329.8148,2.88852,2.12733,3.62144s2.91873.69895,4.19911-.08876l41.32109-25.42613c1.93362-1.01671,4.32437-.36077,5.46841,1.50036s.64985,4.29046-1.13041,5.55669l-50.00956,30.79778c-1.22704.7549-1.97494,2.09202-1.97597,3.53268v53.47995ZM58.64615,136.20596c6.79514-1.88497,13.8164-2.83054,20.8681-2.81037,1.27863-.00003,2.48591-.58931,3.27254-1.59733.78663-1.00802,1.06484-2.32231.75413-3.56262-4.35952-17.84575-2.00594-36.67145,6.61287-52.89465,8.62474.52798,16.9975,3.1144,24.41738,7.54274,1.13946.7616,2.58139.91171,3.85328.40112s2.20979-1.61604,2.50636-2.95412c6.49664-29.21203,23.34222-42.20529,29.07089-45.86251,5.74527,3.67797,22.72369,16.73351,29.05843,45.8459.29164,1.34041,1.22666,2.45019,2.49813,2.9651,1.27147.5149,2.71522.36843,3.85736-.39135,7.42838-4.43363,15.81152-7.02159,24.44644-7.54689,8.618,16.22372,10.96728,35.05062,6.60042,52.89465-.31071,1.24031-.03249,2.5546.75414,3.56262s1.99391,1.5973,3.27254,1.59733c7.05171-.02017,14.07296.92539,20.86811,2.81037.24076,9.99195-.48984,47.82602-23.34223,73.99521-13.28386,15.22661-31.96428,23.98981-55.4767,26.25637v-25.53406l48.03359-29.56072c2.81356-1.73015,4.82455-4.50713,5.5906-7.72001.76605-3.21288.22439-6.5985-1.50582-9.41201-3.60562-5.85597-11.27533-7.68095-17.13202-4.07648l-34.98636,21.524v-29.16637l31.81484-21.1919c4.19453-2.79562,6.29012-7.84411,5.30836-12.78838-.98176-4.94427-4.84723-8.80908-9.79167-9.79003-3.23361-.65501-6.59486.01336-9.33191,1.85559l-17.99962,11.98037v-26.5428c0-6.87794-5.57567-12.45361-12.45361-12.45361s-12.45361,5.57567-12.45361,12.45361v26.54281l-17.99548-12.01359c-5.73162-3.81611-13.47158-2.26329-17.28769,3.46833s-2.26329,13.47158,3.46833,17.28769l31.81483,21.1919v29.16637l-34.9822-21.524c-3.79096-2.40767-8.5846-2.58779-12.54556-.47139s-6.47564,6.20147-6.58125,10.69113c-.10561,4.48967,2.21422,8.68846,6.07127,10.98876l48.03774,29.56072v25.57972c-23.54978-2.2458-42.28417-11.009-55.62614-26.24806-22.86483-26.18164-23.5996-64.05309-23.35883-74.04918h.00003Z"/>
    </g>
  </g>
</svg>