<?xml version="1.0" encoding="UTF-8"?>
<svg id="Layer_1" data-name="Layer 1" xmlns="http://www.w3.org/2000/svg" viewBox="0 0 300 300">
  <defs>
    <style>
      .cls-1 {
        fill: #0051b1;
      }
    </style>
  </defs>
  <path class="cls-1" d="M234.26135,38.58373h-34.12402v-4.93827c0-8.74462-7.12443-15.85795-15.86905-15.85795h-68.52545c-8.74462,0-15.86905,7.11333-15.86905,15.85795v4.93827h-34.1351c-9.86544,0-17.88875,8.0233-17.88875,17.88875v207.85127c0,9.86544,8.0344,17.88874,17.88875,17.88874h168.52265c9.86544,0,17.88874-8.0233,17.88874-17.88874V56.47248c0-9.86544-8.03439-17.88875-17.88874-17.88875h.00002ZM108.76268,33.64546c0-3.91732,3.06284-6.98016,6.98016-6.98016h68.52545c3.91732,0,6.98016,3.06284,6.98016,6.98016v18.26606c0,3.91732-3.06284,6.98016-6.98016,6.98016h-68.52545c-3.91732,0-6.98016-3.06284-6.98016-6.98016v-18.26606ZM243.2612,264.32375c0,4.88279-4.11708,9.02205-9.01096,9.02205H65.73867c-4.88279,0-9.01096-4.12817-9.01096-9.02205V56.47248c0-4.88279,4.11708-9.01096,9.01096-9.01096h34.13511v4.46109c0,8.74462,7.12443,15.85795,15.86905,15.85795h68.52545c8.74462,0,15.86905-7.11333,15.86905-15.85795v-4.46109h34.12402c4.88279,0,9.01096,4.12817,9.01096,9.01096v207.85126h-.01111Z"/>
  <path class="cls-1" d="M105.8441,145.53891h88.31182c2.4525,0,4.43889-1.9864,4.43889-4.43889s-1.99751-4.43889-4.43889-4.43889h-88.31182c-2.45249,0-4.4389,1.9864-4.4389,4.43889s1.9975,4.43889,4.4389,4.43889Z"/>
  <path class="cls-1" d="M105.8441,167.22292h88.31182c2.4525,0,4.43889-1.9864,4.43889-4.43889s-1.99751-4.43889-4.43889-4.43889h-88.31182c-2.45249,0-4.4389,1.9864-4.4389,4.43889s1.9975,4.43889,4.4389,4.43889Z"/>
  <path class="cls-1" d="M198.60591,184.49022c0-2.45249-1.99751-4.43889-4.43889-4.43889h-88.32291c-2.45249,0-4.4389,1.9864-4.4389,4.43889s1.9975,4.43889,4.4389,4.43889h88.31182c2.4525,0,4.44998-1.99751,4.44998-4.43889Z"/>
  <path class="cls-1" d="M184.10183,201.74642h-68.19253c-2.45249,0-4.43889,1.98642-4.43889,4.43889s1.99751,4.43889,4.43889,4.43889h68.20362c2.45249,0,4.43889-1.98642,4.43889-4.43889s-1.99751-4.43889-4.44999-4.43889h.00001Z"/>
  <path class="cls-1" d="M213.1211,89.59774h-126.23108c-6.90248,0-12.52878,6.31433-12.52878,14.0824v137.76111c0,7.76808,5.6263,14.0935,12.52878,14.0935h110.98347c.63253,0,1.23179-.14427,1.77556-.37731.07768-.03329.12207-.09988.19975-.13316.47717-.23304.89887-.53267,1.254-.92107.0222-.0222.06659-.03329.08877-.06659l23.34859-26.38924c.06659-.06659.05548-.17756.11097-.24413.3884-.49938.65474-1.07643.79901-1.72008.04439-.18866.08877-.35511.11097-.55485.01109-.14427.08877-.27743.08877-.4217v-121.02648c0-7.76806-5.61521-14.0824-12.52878-14.0824ZM83.23902,241.44124V103.68013c0-2.8187,1.66459-5.2046,3.63989-5.2046h126.24219c1.9753,0,3.63988,2.38591,3.63988,5.2046v116.58759h-18.9097c-2.4525,0-4.43889,1.98642-4.43889,4.43889v21.95034h-106.53349c-1.96421,0-3.63989-2.397-3.63989-5.21569v-.00002ZM202.30129,239.37715v-10.23166h9.05535l-9.05535,10.23166Z"/>
</svg>