<?xml version="1.0" encoding="UTF-8"?>
<svg id="Layer_1" data-name="Layer 1" xmlns="http://www.w3.org/2000/svg" viewBox="0 0 300 300">
  <defs>
    <style>
      .cls-1 {
        fill: #0051b1;
      }

      .cls-2 {
        fill: none;
        stroke: #0051b1;
        stroke-miterlimit: 10;
        stroke-width: 7px;
      }
    </style>
  </defs>
  <path class="cls-2" d="M82.03078,149.48596c0,11.99405-9.72329,21.71736-21.71736,21.71736s-21.71736-9.7233-21.71736-21.71736,9.72329-21.71736,21.71736-21.71736,21.71736,9.72329,21.71736,21.71736Z"/>
  <path class="cls-2" d="M254.71875,76.76782c0,11.99406-9.72285,21.71736-21.71736,21.71736s-21.71736-9.72329-21.71736-21.71736,9.7233-21.71736,21.71736-21.71736,21.71736,9.72329,21.71736,21.71736Z"/>
  <path class="cls-2" d="M255.76962,227.52236c0,11.99406-9.72285,21.71736-21.71736,21.71736s-21.71736-9.72329-21.71736-21.71736,9.7233-21.71736,21.71736-21.71736,21.71736,9.72329,21.71736,21.71736Z"/>
  <path class="cls-1" d="M99.82486,194.76995c-26.82214,0-49.41073,17.28623-57.878,24.72031-.36044.31495-.69929.6538-1.01423,1.01423-3.8774,4.43757-3.42331,11.17817,1.01423,15.05557,8.46695,7.43116,31.05555,24.71737,57.87769,24.71737,26.49993,0,48.58339-16.58573,57.56864-24.44147,5.6822,5.00432,19.5976,17.26024,19.5976,17.26024,1.12591.99136,2.57453,1.53835,4.07469,1.53861,3.40629.00063,6.16815-2.76023,6.16876-6.16654v-39.06797c-.01852-1.2999-.44439-2.56123-1.21765-3.60631-2.04055-2.75784-5.93042-3.33931-8.68826-1.29875l-19.64384,14.97064c-8.79294-7.7462-31.07216-24.6959-57.85961-24.6959v-.00002ZM167.00669,227.86719l7.89484-6.01297v12.96517s-7.89484-6.95219-7.89484-6.95219ZM148.12746,227.5147c-30.8094,26.81459-66.00136,26.70352-96.61117.00753,30.64911-26.73853,65.95775-26.75885,96.61132-.00753h-.00015ZM174.29329,117.39977c-26.82214,0-49.41073,17.28623-57.878,24.72031-.36044.31495-.69929.6538-1.01423,1.01423-3.8774,4.43757-3.42331,11.17817,1.01423,15.05557,8.46695,7.43116,31.05555,24.71737,57.87769,24.71737,26.49993,0,48.58339-16.58573,57.56864-24.44147,5.6822,5.00432,19.5976,17.26024,19.5976,17.26024,1.12591.99136,2.57453,1.53835,4.07469,1.53861,3.40629.00063,6.16815-2.76023,6.16876-6.16654v-39.06797c-.01852-1.2999-.44439-2.56123-1.21765-3.60631-2.04055-2.75784-5.93042-3.33931-8.68826-1.29875l-19.64384,14.97064c-8.79294-7.7462-31.07216-24.6959-57.85961-24.6959v-.00002ZM241.47513,150.49701l7.89484-6.01297v12.96517s-7.89484-6.95219-7.89484-6.95219ZM222.59589,150.14452c-30.8094,26.81459-66.00136,26.70352-96.61117.00753,30.64911-26.73853,65.95775-26.75885,96.61132-.00753h-.00015ZM187.23085,93.41813v-39.06797c-.01836-1.30032-.44439-2.56211-1.21802-3.60742-2.04076-2.75742-5.93047-3.33839-8.68788-1.29763l-19.6386,14.97267c-8.79327-7.74659-31.07216-24.69521-57.85885-24.69521-26.81581,0-49.41648,17.28321-57.88344,24.71437-.35232.3088-.68394.64044-.99275.99275-3.89085,4.43914-3.44639,11.19194.99275,15.0828,8.46671,7.43123,31.06739,24.71444,57.88345,24.71444,26.49954,0,48.58269-16.58317,57.56832-24.43852,5.68098,5.00378,19.59191,17.25709,19.59191,17.25709,1.12676.99138,2.57607,1.53837,4.07688,1.53864,3.3974-.0193,6.14682-2.76859,6.16625-6.166ZM148.13021,72.46697c-30.80986,26.81417-66.00859,26.69677-96.61738.00448,30.64948-26.73286,65.9649-26.75701,96.61738-.00448ZM174.89806,79.76868l-7.88883-6.94927,7.88883-6.01304v12.9623Z"/>
</svg>