<?xml version="1.0" encoding="UTF-8"?>
<svg id="Layer_1" xmlns="http://www.w3.org/2000/svg" xmlns:svgjs="http://svgjs.dev/svgjs" version="1.1" viewBox="0 0 300 300">
  <!-- Generator: Adobe Illustrator 29.1.0, SVG Export Plug-In . SVG Version: 2.1.0 Build 142)  -->
  <defs>
    <style>
      .st0 {
        fill: #0051b1;
      }
    </style>
  </defs>
  <path class="st0" d="M149,94.6c-40.9,0-74,33.1-74,74s33.1,74,74,74,74-33.1,74-74c0-40.9-33.2-74-74-74ZM149,235.4c-36.9,0-66.8-29.9-66.8-66.8s29.9-66.8,66.8-66.8,66.8,29.9,66.8,66.8c0,36.9-29.9,66.7-66.8,66.8h0Z"/>
  <path class="st0" d="M255.2,69.4l-4.5-4.5c-8.7-8.3-22.4-8.3-31.1,0l-5.5,5.5c-1.4,1.4-1.4,3.7,0,5.1l6.8,6.8-13.1,13.1c-13.5-10.9-29.8-17.8-47-20v-14.4h16.9c2,0,3.6-1.6,3.6-3.6v-16.4c0-2-1.6-3.6-3.6-3.6h-57.5c-2,0-3.6,1.6-3.6,3.6v16.4c0,2,1.6,3.6,3.6,3.6h16.9v14.4c-16.7,2.1-32.6,8.7-45.8,19.1l-12.2-12.3,6.8-6.8c1.4-1.4,1.4-3.7,0-5.1l-5.5-5.5c-8.7-8.3-22.4-8.3-31.1,0l-4.5,4.5c-8.6,8.6-8.6,22.5,0,31,0,0,0,0,0,0l5.5,5.5c1.4,1.4,3.7,1.4,5.1,0l6.8-6.8,12.3,12.3c-26.7,34.5-26,83,1.7,116.7l-16.6,16.6c-1.4,1.4-1.4,3.7,0,5.1l11.6,11.6c1.4,1.4,3.7,1.4,5.1,0l17.1-17.2c33.3,24.6,78.9,24.2,111.8-.9l18,18c1.4,1.4,3.7,1.4,5.1,0l11.6-11.6c1.4-1.4,1.4-3.7,0-5.1l-17.8-17.8c26.6-33.3,27.3-80.3,1.7-114.4l13.5-13.5,6.8,6.8c1.4,1.4,3.7,1.4,5.1,0l5.5-5.5c8.5-8.6,8.5-22.5,0-31h0ZM123.9,44.7h50.2v9.2h-50.2v-9.2ZM144.4,61.1h9.2v13.8c-1.5,0-3-.2-4.6-.2s-3.1.2-4.6.2v-13.8ZM52.9,98.3l-2.9-2.9c-5.7-5.7-5.7-15.1,0-20.8l4.5-4.5c5.7-5.7,15.1-5.7,20.8,0l2.9,2.9-25.2,25.3ZM67.5,94l6.5-6.5,11.8,11.8c-2.3,2.1-4.4,4.2-6.5,6.5l-11.9-11.9ZM74,253.8l-6.5-6.5,13.8-13.8c2.1,2.2,4.3,4.3,6.6,6.3l-14,14ZM232.6,247.3l-6.5,6.5-14.9-14.9c2.3-2,4.5-4.2,6.5-6.4l14.9,14.8ZM149,255.3c-47.9,0-86.7-38.8-86.7-86.7s38.8-86.7,86.7-86.7,86.7,38.8,86.7,86.7h0c0,47.9-38.8,86.6-86.7,86.7h0ZM219.7,106.9c-2-2.3-4.1-4.5-6.4-6.6l12.7-12.8,6.5,6.5-12.9,12.9ZM250.1,95.3l-2.9,2.9-25.4-25.3,2.9-2.9c5.8-5.6,15-5.6,20.8,0l4.5,4.5c5.7,5.7,5.7,15.1,0,20.8h0Z"/>
  <path class="st0" d="M152.6,167.1v-42.6c0-2-1.6-3.6-3.6-3.6s-3.6,1.6-3.6,3.6v44.1c0,1,.4,1.9,1.1,2.6l23,23c1.4,1.4,3.7,1.5,5.1,0,1.4-1.4,1.5-3.7,0-5.1,0,0,0,0,0,0l-21.9-21.9Z"/>
  <path class="st0" d="M149,114.6c2,0,3.6-1.6,3.6-3.6v-2.5c0-2-1.6-3.6-3.6-3.6s-3.6,1.6-3.6,3.6v2.5c0,2,1.6,3.6,3.6,3.6h0Z"/>
  <path class="st0" d="M149,223.1c-2,0-3.6,1.6-3.6,3.6v2.5c0,2,1.6,3.6,3.6,3.6s3.6-1.6,3.6-3.6h0v-2.5c0-2-1.6-3.6-3.6-3.6h0Z"/>
  <path class="st0" d="M206.9,172.5h2.5c2,0,3.6-1.6,3.6-3.6s-1.6-3.6-3.6-3.6h-2.5c-2,0-3.6,1.6-3.6,3.6s1.6,3.6,3.6,3.6Z"/>
  <path class="st0" d="M91.2,165.2h-2.5c-2,0-3.6,1.6-3.6,3.6s1.6,3.6,3.6,3.6h2.5c2,0,3.6-1.6,3.6-3.6s-1.6-3.6-3.6-3.6Z"/>
</svg>