<?xml version="1.0" encoding="UTF-8"?>
<svg id="Layer_1" data-name="Layer 1" xmlns="http://www.w3.org/2000/svg" viewBox="0 0 300 300">
  <defs>
    <style>
      .cls-1 {
        fill: #0051b1;
      }
    </style>
  </defs>
  <g id="g303">
    <g id="g305">
      <g id="path307">
        <path class="cls-1" d="M191.70847,114.40533c.6795,0,1.36612-.19928,1.96802-.61443l14.63288-10.09664c1.57726-1.08822,1.97378-3.24976.88522-4.82736-1.08788-1.57692-3.24942-1.97378-4.82736-.88522l-14.63288,10.09664c-1.57726,1.08822-1.97378,3.24976-.88522,4.82736.67306.97571,1.75722,1.49965,2.85934,1.49965Z"/>
      </g>
    </g>
    <g id="g309">
      <g id="path311">
        <path class="cls-1" d="M179.92747,107.92073c.98147,0,1.9565-.4138,2.64278-1.21938l8.06559-9.46323c1.24344-1.45865,1.0689-3.64899-.39008-4.89209-1.45831-1.24344-3.64899-1.0689-4.89209.39008l-8.06559,9.46323c-1.24344,1.45865-1.0689,3.64899.39008,4.89209.65307.55682,1.45322.8293,2.24931.8293Z"/>
      </g>
    </g>
    <g id="g313">
      <g id="path315">
        <path class="cls-1" d="M204.596,207.46648c1.10246,0,2.18593-.52395,2.85934-1.49999,1.08856-1.57726.69204-3.73879-.88556-4.82702l-12.89362-8.89624c-1.57726-1.0889-3.73879-.69204-4.82702.88556-1.08856,1.57726-.69204,3.73879.88556,4.82702l12.89362,8.89624c.60156.41516,1.28818.61443,1.96768.61443Z"/>
      </g>
    </g>
    <g id="g317">
      <g id="path319">
        <path class="cls-1" d="M184.47117,210.38072c.79609,0,1.59624-.27248,2.24965-.8293,1.45865-1.24344,1.63318-3.43378.38974-4.89243l-4.17327-4.89581c-1.2431-1.45865-3.43344-1.63318-4.89243-.38974-1.45865,1.24344-1.63318,3.43378-.38974,4.89243l4.17327,4.89581c.68628.80524,1.66165,1.21904,2.64278,1.21904Z"/>
      </g>
    </g>
    <g>
      <g id="path331">
        <path class="cls-1" d="M101.60155,220.94743c4.61859,0,8.70307-1.43221,11.69458-4.42372,3.86927-3.86893,5.25946-9.75672,3.91503-16.57887-.37076-1.88058-2.1961-3.10437-4.076-2.73394-1.88058.37076-3.10437,2.19576-2.73394,4.076.88319,4.47964.1681,8.14794-2.01275,10.32879-1.40001,1.39968-4.7711,3.48428-11.63561,1.71621-5.73155-1.47627-11.74677-5.14796-16.93777-10.33896-6.75505-6.75505-10.9717-15.08125-11.00457-21.7292-.00949-1.91074-1.56167-3.4531-3.47004-3.4531h-.01762c-1.91651.00949-3.46259,1.57082-3.4531,3.48767.04236,8.53599,4.91615,18.4808,13.03732,26.60265,8.45601,8.45601,18.42895,13.04647,26.69449,13.04647Z"/>
      </g>
      <g id="path335">
        <path class="cls-1" d="M195.95325,131.33666c.57241,0,1.15228-.14166,1.68774-.44024,5.1466-2.8712,9.8367-5.74579,13.93914-8.54446,1.58336-1.07975,1.9914-3.23891.91131-4.82227-1.07975-1.58404-3.23959-1.99174-4.82227-.91131-3.93163,2.68175-8.44347,5.4462-13.40977,8.2164-1.67351.93368-2.27371,3.04777-1.34003,4.72162.63511,1.13838,1.81653,1.78027,3.03387,1.78027Z"/>
      </g>
      <g id="path339">
        <path class="cls-1" d="M82.27145,118.98224c1.23395,0,2.42859-.65951,3.05624-1.82161,2.67226-4.94597,13.42503-21.60211,39.59693-28.26396,28.3697-7.22273,85.15146-3.41751,97.99425,6.5656.70255.54631,1.8816,1.60709,1.8816,2.575,0,2.61024-2.34149,6.26736-6.59373,10.29761-1.39086,1.31868-1.44949,3.51512-.13116,4.90632,1.31868,1.3912,3.51444,1.44983,4.90632.13116,5.89423-5.58718,8.75933-10.60331,8.75933-15.33509,0-2.99117-1.53524-5.70139-4.56267-8.05474-15.72043-12.21988-75.38796-15.08667-103.96608-7.81243-28.90788,7.35863-40.98,26.11734-43.99116,31.69164-.91098,1.68605-.28265,3.79166,1.40374,4.70264.52429.28332,1.08958.41787,1.6464.41787Z"/>
      </g>
      <g id="path343">
        <path class="cls-1" d="M179.94137,221.78045c4.20852,0,8.53565-.14132,12.88312-.43007,7.99272-.53039,27.42246-2.41673,35.19829-8.46143,3.07353-2.38894,3.7188-4.94191,3.7188-6.66252,0-5.53702-5.00799-11.54309-15.76008-18.9024-7.75041-5.30453-16.37485-9.78214-19.72323-11.46141-1.71316-.85811-3.79844-.1664-4.6579,1.54676-.85912,1.71316-.1664,3.79878,1.54676,4.6579,3.22197,1.61556,11.51428,5.91998,18.91426,10.98457,11.82065,8.09033,12.73942,12.12939,12.73942,13.17457,0,.0793-.17623.5131-1.03773,1.18278-4.27867,3.32601-16.30978,6.0142-31.39815,7.01566-15.1531,1.00587-30.53225.11116-40.13782-2.33336-9.27954-2.36216-17.00115-6.67574-22.95028-12.8211-1.33291-1.37731-3.53037-1.41255-4.907-.07964-1.37731,1.33291-1.41289,3.53003-.07964,4.907,6.76013,6.98347,15.82888,12.07347,26.22477,14.71998,7.60197,1.93514,18.07717,2.9627,29.4264,2.9627Z"/>
      </g>
      <g id="path347">
        <path class="cls-1" d="M245.39163,188.04861c2.93864,0,5.8644-1.01705,8.22454-3.02777,6.76962-5.76646,14.83927-15.99663,14.83927-31.98479,0-15.98918-8.06966-26.21935-14.83927-31.98547-4.42067-3.76625-10.82834-4.04754-15.58181-.68391l-26.11463,18.47301c-1.56472,1.10686-1.93582,3.2728-.82896,4.83752,1.1072,1.56404,3.27314,1.93548,4.83752.82896l26.11463-18.47335c2.16052-1.52948,5.06933-1.40476,7.0726.30129,5.65632,4.81821,12.39916,13.36199,12.39916,26.70195,0,13.33894-6.74284,21.88273-12.39916,26.70127-2.0036,1.70706-4.91174,1.83042-7.0726.30163l-26.16479-18.50927c-1.5654-1.10686-3.73066-.73542-4.83752.82896-1.10686,1.56472-.73576,3.73066.82896,4.83752l26.16479,18.50893c2.21576,1.56743,4.79177,2.34352,7.35728,2.34352Z"/>
      </g>
      <g id="path351">
        <path class="cls-1" d="M128.37637,205.05416c18.44454,0,37.62383-5.50415,57.0051-16.3596,15.74279-8.81762,28.16602-19.23656,35.81543-26.42405,2.54958-2.39572,4.01195-5.77493,4.01195-9.27175,0-3.49716-1.46237-6.87671-4.01195-9.27277-7.64941-7.18749-20.07264-17.60643-35.81543-26.42405-19.38127-10.85511-38.56056-16.35926-57.0051-16.35926-18.4442,0-37.62349,5.50415-57.00476,16.35926-15.74212,8.81728-28.16568,19.23622-35.81577,26.42405-2.54958,2.39606-4.01161,5.77561-4.01127,9.27277,0,3.49648,1.46203,6.87603,4.01127,9.27141,9.30598,8.74441,28.53983,24.86509,52.79828,34.58351,1.77959.71204,3.79946-.15183,4.51217-1.93108s-.15183-3.79912-1.93108-4.51217c-23.19971-9.29412-41.67712-24.78917-50.62658-33.19807-1.17566-1.10517-1.82331-2.60143-1.82331-4.21394-.00034-1.61251.64731-3.10911,1.82365-4.21428,13.08815-12.29749,47.87027-40.90069,88.06739-40.90069s74.97992,28.6032,88.06773,40.90103c1.17634,1.10517,1.82398,2.60177,1.82398,4.21394s-.64765,3.10877-1.82398,4.2136c-13.08782,12.29783-47.86925,40.90137-88.06773,40.90137-8.01204,0-16.3047-1.14482-24.64751-3.40294-1.85042-.50192-3.75574.59308-4.2563,2.44316-.5009,1.85008.59308,3.75574,2.44316,4.2563,8.93352,2.41808,17.83621,3.64424,26.46065,3.64424Z"/>
      </g>
      <g id="path355">
        <path class="cls-1" d="M92.50874,183.77028l-16.39823-16.33994c-1.99649-1.98869-3.09555-4.63588-3.09555-7.45387,0-2.81799,1.09907-5.46517,3.09522-7.45387l16.39891-16.33994c3.15046-3.13927,7.59519-4.42813,11.89047-3.44835,12.69841,2.8956,21.56721,14.09809,21.56721,27.24216,0,13.14441-8.86879,24.3469-21.56721,27.24216-.94656.21588-1.90024.32128-2.84578.32128-3.34533,0-6.58864-1.32274-9.04502-3.76964ZM97.40795,141.09948l-16.39891,16.33994c-.67916.67713-1.05332,1.57794-1.05332,2.53704,0,.9591.37415,1.85991,1.05365,2.53704l16.39823,16.33994c1.45254,1.44712,3.48902,2.04495,5.44891,1.59793,9.52017-2.17068,16.16947-10.59009,16.16947-20.47492s-6.64931-18.30423-16.16981-20.47492c-.4277-.0976-.85912-.14539-1.2875-.14539-1.53287,0-3.0254.61206-4.16073,1.74332Z"/>
      </g>
      <g id="path359">
        <path class="cls-1" d="M62.07105,152.34163c1.91651,0,3.47038-1.55388,3.47038-3.47038v-5.55261c0-1.91651-1.55388-3.47038-3.47038-3.47038s-3.47038,1.55388-3.47038,3.47038v5.55261c0,1.91651,1.55388,3.47038,3.47038,3.47038Z"/>
      </g>
      <g id="path363">
        <path class="cls-1" d="M160.61839,100.61632c1.64267,0,3.10233-1.17125,3.40938-2.84476l.92046-5.01613c.34602-1.88499-.90182-3.69372-2.78715-4.03974-1.88702-.34399-3.69406.90182-4.03974,2.78715l-.92046,5.01613c-.34602,1.88499.90182,3.69372,2.78715,4.03974.21182.03864.42228.05761.63036.05761Z"/>
      </g>
      <g id="path367">
        <path class="cls-1" d="M235.05335,145.51134c.29722,0,.59918-.03864.90013-.11929l6.70455-1.79653c1.85144-.49616,2.95016-2.39911,2.45401-4.2502s-2.39809-2.94983-4.2502-2.45401l-6.70455,1.79653c-1.85144.49616-2.95016,2.39911-2.45401,4.2502.4155,1.55049,1.81788,2.5733,3.35007,2.5733Z"/>
      </g>
      <g id="path371">
        <path class="cls-1" d="M238.20889,156.50608h11.56783c1.91651,0,3.47038-1.55388,3.47038-3.47038,0-1.91651-1.55388-3.47038-3.47038-3.47038h-11.56783c-1.91651,0-3.47038,1.55388-3.47038,3.47038,0,1.91651,1.55388,3.47038,3.47038,3.47038Z"/>
      </g>
      <g id="path375">
        <path class="cls-1" d="M241.76196,169.29905c1.53253,0,2.93457-1.02281,3.35007-2.5733.49616-1.85144-.60257-3.75438-2.45401-4.2502l-6.70455-1.79619c-1.85279-.49616-3.75405.60291-4.2502,2.45401-.49616,1.85144.60257,3.75438,2.45401,4.2502l6.70455,1.79619c.30095.08066.60291.11929.90013.11929Z"/>
      </g>
      <g id="path379">
        <path class="cls-1" d="M99.83823,157.07917c.29722,0,.59918-.03864.90013-.11929l6.70421-1.79619c1.85144-.49582,2.95016-2.39877,2.45401-4.2502-.49616-1.8511-2.39809-2.94983-4.2502-2.45401l-6.70421,1.79619c-1.85144.49582-2.95016,2.39877-2.45401,4.2502.4155,1.55049,1.81755,2.5733,3.35007,2.5733Z"/>
      </g>
      <g id="path383">
        <path class="cls-1" d="M106.54651,171.61275c1.53253,0,2.93457-1.02281,3.35007-2.5733.49616-1.85144-.60257-3.75438-2.45401-4.2502l-6.70421-1.79619c-1.85211-.49616-3.75405.60291-4.2502,2.45401-.49616,1.85144.60257,3.75438,2.45401,4.2502l6.70421,1.79619c.30095.08066.60291.11929.90013.11929Z"/>
      </g>
    </g>
  </g>
</svg>