<?xml version="1.0" encoding="UTF-8"?>
<svg id="Layer_1" xmlns="http://www.w3.org/2000/svg" xmlns:svgjs="http://svgjs.dev/svgjs" version="1.1" viewBox="0 0 300 300">
  <!-- Generator: Adobe Illustrator 29.1.0, SVG Export Plug-In . SVG Version: 2.1.0 Build 142)  -->
  <defs>
    <style>
      .st0 {
        fill: #0051b1;
      }
    </style>
  </defs>
  <path class="st0" d="M177,133c-24.3,0-44.1,19.8-44.1,44.1s19.8,44.1,44.1,44.1,44.1-19.8,44.1-44.1-19.8-44.1-44.1-44.1ZM177,211.1c-18.8,0-34-15.3-34-34s15.3-34,34-34,34,15.3,34,34-15.3,34-34,34Z"/>
  <path class="st0" d="M273.2,249.2l-39.7-39.7c5.5-9.5,8.7-20.6,8.7-32.4,0-17.4-6.9-33.2-18-44.9v-56.2h0c0-1.3-.5-2.6-1.5-3.5l-49.1-49.1c-1-1-2.2-1.5-3.5-1.5,0,0,0,0,0,0H36.9c-8.3,0-15,6.7-15,15v226.3c0,8.3,6.7,15,15,15h172.2c8.3,0,15-6.7,15-15v-15.1l25.1,25.1c3.3,3.3,7.7,5,12,5s8.7-1.7,12-5c6.6-6.6,6.6-17.4,0-24ZM177,232.1c-30.4,0-55.1-24.7-55.1-55.1s24.7-55.1,55.1-55.1,55.1,24.7,55.1,55.1-24.7,55.1-55.1,55.1ZM175,38.9l32,32h-27c-2.8,0-5-2.2-5-5v-27ZM214.1,263.1c0,2.8-2.2,5-5,5H36.9c-2.8,0-5-2.2-5-5V36.9c0-2.8,2.2-5,5-5h128.1v34c0,8.3,6.7,15,15,15h34v42.6c-10.5-7.3-23.3-11.6-37-11.6-35.9,0-65.1,29.2-65.1,65.1s1.1,13.8,3.2,20.1h-61.2c-2.8,0-5,2.2-5,5s2.2,5,5,5h63.9c.5,0,.9,0,1.4-.2,10.8,20.9,32.7,35.2,57.8,35.2s22.9-3.2,32.4-8.7l4.6,4.6v25.1ZM266.1,266.1c-2.7,2.7-7.1,2.7-9.8,0l-38.4-38.4c3.6-2.9,6.9-6.2,9.8-9.8l38.4,38.4c2.7,2.7,2.7,7.1,0,9.8Z"/>
  <path class="st0" d="M177,154.5c-2.8,0-5,2.2-5,5s2.2,5,5,5c6.9,0,12.5,5.6,12.5,12.5s2.2,5,5,5,5-2.2,5-5c0-12.4-10.1-22.5-22.5-22.5Z"/>
  <path class="st0" d="M99,162.4h-45.1c-2.8,0-5,2.2-5,5s2.2,5,5,5h45.1c2.8,0,5-2.2,5-5s-2.2-5-5-5Z"/>
  <path class="st0" d="M102,127.7h-48c-2.8,0-5,2.2-5,5s2.2,5,5,5h48c2.8,0,5-2.2,5-5s-2.2-5-5-5Z"/>
  <path class="st0" d="M117,231.8c-1.3,0-2.6.5-3.5,1.5-.9.9-1.5,2.2-1.5,3.5s.5,2.6,1.5,3.5c.9.9,2.2,1.5,3.5,1.5s2.6-.5,3.5-1.5c.9-.9,1.5-2.2,1.5-3.5s-.5-2.6-1.5-3.5c-.9-.9-2.2-1.5-3.5-1.5Z"/>
  <path class="st0" d="M96.4,231.8h-42.4c-2.8,0-5,2.2-5,5s2.2,5,5,5h42.4c2.8,0,5-2.2,5-5s-2.2-5-5-5Z"/>
  <path class="st0" d="M54,103c1.3,0,2.6-.5,3.5-1.5.9-.9,1.5-2.2,1.5-3.5s-.5-2.6-1.5-3.5c-.9-.9-2.2-1.5-3.5-1.5s-2.6.5-3.5,1.5c-.9.9-1.5,2.2-1.5,3.5s.5,2.6,1.5,3.5c.9.9,2.2,1.5,3.5,1.5Z"/>
  <path class="st0" d="M150,93h-74.8c-2.8,0-5,2.2-5,5s2.2,5,5,5h74.8c2.8,0,5-2.2,5-5s-2.2-5-5-5Z"/>
  <path class="st0" d="M54,68.3h96c2.8,0,5-2.2,5-5s-2.2-5-5-5H54c-2.8,0-5,2.2-5,5s2.2,5,5,5Z"/>
</svg>