<?xml version="1.0" encoding="UTF-8"?>
<svg id="Layer_1" data-name="Layer 1" xmlns="http://www.w3.org/2000/svg" viewBox="0 0 300 300">
  <defs>
    <style>
      .cls-1 {
        fill: #0051b1;
      }
    </style>
  </defs>
  <g id="_84x84" data-name="84x84">
    <g>
      <path class="cls-1" d="M165.13488,187.79026c-3.43588-.15561-13.9542-6.35625-20.32616-10.70849-.59255-.40395-1.31242-.62085-2.01973-.55482-.33478.02045-33.7884,2.12189-51.6013.80632-9.61532-.70592-19.078-2.42191-28.68858-4.31944,4.23455-3.55083,10.62106-9.80414,12.262-16.36668,1.80772-7.22995-2.75021-14.50571-5.74052-18.31802,14.6289-4.48625,31.23799-9.46049,54.44032-9.82455.85503-.01413,1.66921-.36781,2.26491-.98237,10.05778-10.40043,23.87996-20.35919,27.63333-18.01566.06641.04146.13162.08997.19783.13224-5.7132,3.73454-12.20284,12.13782-14.59056,15.37883-1.05348-.14656-1.70066-.23656-1.70066-.23656l-.88648,6.37511s30.85232,4.29252,38.63105,5.36602c2.83706.39136,7.58066.77961,12.60248,1.19142,8.23608.67586,19.51829,1.60006,22.40247,2.66417.35834.13198.73557.19799,1.11282.19799.38351,0,.76545-.0676,1.13008-.20434,4.02843-1.51047,11.2759-4.03944,13.57543-4.39312,1.75724-.27033,2.96279-1.91285,2.69247-3.6701-.27032-1.75883-1.93642-2.95493-3.67009-2.69246-3.16398.48568-10.91911,3.274-13.83163,4.34596-4.03946-1.05779-12.16395-1.78555-22.88657-2.66417-4.93065-.40395-9.58783-.78589-12.24727-1.15368-3.05199-.42124-9.65797-1.33778-16.5555-2.29578,2.80719-2.96907,5.49726-5.35228,6.91816-6.09771,1.3983,1.73915,2.24605,2.93331,2.27041,2.96772,1.01852,1.45546,3.03039,1.80598,4.4827.78904,1.45546-1.02007,1.80911-3.02566.79061-4.48112-.32223-.46054-7.99088-11.3325-17.02702-16.97985-9.52493-5.95858-27.95871,11.17689-34.7409,18.04711-23.85324.5517-40.77651,5.74641-55.74137,10.33911-6.19279,1.90026-12.04135,3.69524-17.8852,5.00138-20.85272,4.66502-34.50514,15.18018-35.07725,15.62498-1.05467.82204-1.49004,2.21148-1.09552,3.48932.3961,1.27784,1.54035,2.17849,2.87479,2.26179,2.63587.16504,14.23084,4.06616,21.6229,6.78376.36622.13516.74188.19962,1.11123.19962,1.31087,0,2.54313-.8079,3.02096-2.10931.61299-1.66921-.24207-3.5192-1.9097-4.13219-2.03859-.74974-9.49036-3.45948-15.67214-5.32675,2.52701-1.48199,5.82341-3.22215,9.69432-4.92692.53773,2.07985,2.41032,3.62333,4.65833,3.62333,2.66671,0,4.82849-2.16178,4.82849-4.82849,0-.79943-.21277-1.54231-.55679-2.20636,2.4952-.80691,5.13065-1.54841,7.90562-2.16886,4.15536-.9301,8.29267-2.11385,12.4846-3.36555,1.12243,1.2022,7.74982,8.62706,6.22266,14.73261-1.51518,6.06548-10.24482,13.30506-13.4811,15.58413-.34421.24207-.61573.54639-.83266.87882-1.23049-.19962-2.4231-.43009-3.66576-.62419-7.31503-1.14425-14.8784-2.32624-21.39969-4.90552-1.61265-.63656-2.98635-1.0295-4.19979-1.37531-2.0936-.59729-3.60566-1.0295-5.54365-2.49282-1.41774-1.07508-3.44062-.78904-4.50784.6287-1.07196,1.41774-.79062,3.43588.6287,4.50784,2.89519,2.18792,5.31417,2.8779,7.65453,3.54749,1.08451.30806,2.24921.63813,3.60093,1.17255,7.18772,2.84018,15.10946,4.08033,22.77185,5.27801,3.23158.50454,6.43483,1.00436,9.52966,1.62051,10.56702,2.10776,20.93758,4.06305,31.64607,4.84893,16.61363,1.23226,45.31892-.3725,51.38125-.73403,4.20764,2.81977,16.79441,10.93169,22.74513,11.20203.05028.00157.09902.00316.14933.00316,1.71009,0,3.1341-1.34702,3.21272-3.07282.08012-1.77602-1.29362-3.28179-3.06971-3.36196ZM151.65498,126.78111c-1.88849-.26247-3.68404-.51202-5.34993-.74346,4.62611-5.81752,10.07567-11.38062,12.31171-11.80636.1884-.03595.33754-.14264.51083-.20846,1.01125.93699,1.96825,1.89792,2.86671,2.84568-2.86589,1.85098-6.31064,5.15209-10.33931,9.9126Z"/>
      <path class="cls-1" d="M283.38721,180.27874c-3.77228-.11788-15.69101-5.57195-25.26939-9.95248-15.15032-6.93152-20.72068-9.28917-23.71491-8.43884-6.74919,1.88771-28.03729,9.67111-28.94106,10.00118-1.6692.60984-2.52741,2.45825-1.91597,4.12904.60985,1.66921,2.46297,2.52742,4.12902,1.91598.04146-.01513.87469-.31965,2.22173-.80828,2.45216,2.25471,10.24894,9.22808,15.47293,11.71246-.47782.55444-.99181,1.09613-1.58238,1.60241-2.77104,2.37968-15.94878-5.37076-27.6302-16.27258-.75759-.70886-1.81068-1.00593-2.8292-.80318-4.18093.8362-25.42501,1.59536-33.25872,1.81696-1.77769.05028-3.17657,1.53092-3.12626,3.30857.04874,1.77612,1.41774,3.19543,3.30857,3.12626,2.70344-.07703,24.87331-.72617,32.65988-1.68337,6.02147,5.48549,20.06053,17.25965,29.60119,17.25807,2.07788,0,3.94358-.55798,5.46503-1.86254,8.61332-7.3842,8.11821-18.76383,8.09306-19.2448-.09273-1.77296-1.61264-3.13726-3.38403-3.04452-1.77453.09273-3.13883,1.60792-3.04452,3.38403.00273.05089.12771,3.15082-1.10024,6.77453-2.42014-.89002-7.52879-4.87818-11.75018-8.5536,6.68062-2.38556,15.22635-5.37781,19.09979-6.48692,2.45197.20119,12.3117,4.71219,19.54814,8.02234,13.698,6.26667,23.03121,10.38626,27.74651,10.53402.03458.00157.06761.00157.10217.00157,1.73212,0,3.16084-1.37531,3.21585-3.1184.05511-1.77598-1.33908-3.2629-3.11675-3.31791h-.00005Z"/>
      <path class="cls-1" d="M286.37203,160.00444l-.49196-2.60284c-.65229-3.62136-.48885-7.27572-.3175-11.14701.12262-2.74274.24991-5.57979.07387-8.47814-.23577-3.89958-.58153-7.86358-1.02796-11.78202-.11471-1.00909-.69946-1.90342-1.57651-2.41582-.87388-.50924-1.94426-.57684-2.87792-.1839-.22634.09589-22.797,9.64127-34.32438,13.30821-10.68806,3.39973-19.33909,1.57334-19.50727,1.53719-1.72895-.38824-3.45316.69157-3.8477,2.42367-.39609,1.73211.68844,3.45948,2.4221,3.85555.41809.09744,10.38785,2.2932,22.88504-1.68021,8.92927-2.84175,23.76678-8.88838,30.87434-11.83858.16386,1.73346.28115,3.45907.40161,5.18351-.21592.13047-.44481.23144-.63264.41985-1.71009,1.29828-12.72822,4.65718-21.95767,7.02268-1.72109.44168-2.76003,2.19577-2.31834,3.91844.37251,1.45389,1.6818,2.42052,3.11683,2.42052.26406,0,.53283-.03299.8016-.10217,6.17685-1.58416,15.74995-4.2094,21.15982-6.53915-.02888.87469-.05501,1.7427-.0949,2.6443-.07134,1.60064-.12692,3.2292-.14028,4.87307-5.74208.34067-15.51438,1.53974-17.83294,1.83051-1.76353.22005-3.01466,1.82954-2.79459,3.59307.20271,1.62839,1.59061,2.81981,3.18908,2.81981.13358,0,.2688-.00786.40395-.02514,5.12123-.63991,13.10488-1.52561,17.42153-1.79498.05933.42713.089.84956.16661,1.27942l.50454,2.6783c.18665.96821.37251,1.94427.54816,2.9186-5.42736-1.26626-14.27229-1.38198-19.89199-1.30124-1.7761.02672-3.19696,1.48846-3.17184,3.26457.02515,1.76195,1.46175,3.17341,3.21899,3.17341h.04558c8.11506-.11161,17.98737.47625,19.7509,1.50263.27663.20766.57763.35679.88749.46328.0238.79847.03969,1.59318-.01827,2.34861-.13674,1.77296,1.18983,3.31958,2.96279,3.45633.08488.00627.1682.00943.24991.00943,1.66608,0,3.07596-1.28415,3.20642-2.97222.35522-4.62885-.61299-9.65066-1.46646-14.08151l-.00002-.00004Z"/>
      <path class="cls-1" d="M90.66588,166.78666c-1.67236.60199-2.53998,2.44569-1.938,4.11963.4731,1.31242,1.71009,2.12975,3.02882,2.12975.3615,0,.73087-.06287,1.09082-.19176,5.41319-1.949,10.65505-6.64544,12.46573-11.16745,1.10496-2.76161.63971-4.73732.05344-5.90988-1.21182-2.41582-3.03509-6.07491-30.046,7.13271-1.59691.78118-2.25864,2.70816-1.47745,4.30666.77961,1.59379,2.70502,2.25548,4.30666,1.47745,7.42978-3.63395,16.37002-7.36218,20.74427-8.48285-1.27791,2.09833-4.32716,5.18212-8.22829,6.58573Z"/>
      <circle class="cls-1" cx="81.21929" cy="142.0565" r="3.21899"/>
      <circle class="cls-1" cx="59.22393" cy="154.93247" r="3.21899"/>
      <circle class="cls-1" cx="106.16648" cy="148.22731" r="3.21899"/>
      <circle class="cls-1" cx="120.19162" cy="151.30467" r="3.21899"/>
      <circle class="cls-1" cx="126.36242" cy="138.4287" r="3.21899"/>
      <circle class="cls-1" cx="131.86046" cy="150.83791" r="3.21899"/>
      <circle class="cls-1" cx="141.98741" cy="143.25719" r="3.21899"/>
      <circle class="cls-1" cx="147.41785" cy="157.0731" r="3.21899"/>
      <circle class="cls-1" cx="152.58433" cy="140.77857" r="3.21899"/>
      <circle class="cls-1" cx="158.55234" cy="150.43554" r="3.21899"/>
      <circle class="cls-1" cx="170.89073" cy="145.20468" r="3.21899"/>
      <circle class="cls-1" cx="176.52396" cy="156.26835" r="3.21899"/>
      <circle class="cls-1" cx="185.37619" cy="146.20901" r="3.21899"/>
      <circle class="cls-1" cx="193.35607" cy="156.73833" r="3.21899" transform="translate(7.66945 322.49101) rotate(-80.78253)"/>
      <circle class="cls-1" cx="202.74588" cy="148.55565" r="3.21899"/>
      <circle class="cls-1" cx="217.02853" cy="150.23274" r="3.21899"/>
      <circle class="cls-1" cx="231.24681" cy="151.57506" r="3.21899"/>
      <circle class="cls-1" cx="98.119" cy="138.03277" r="3.21899"/>
      <circle class="cls-1" cx="112.33728" cy="138.30316" r="3.21899"/>
      <circle class="cls-1" cx="91.48788" cy="147.55132" r="3.21899"/>
    </g>
  </g>
</svg>