<?xml version="1.0" encoding="UTF-8"?>
<svg id="Layer_1" data-name="Layer 1" xmlns="http://www.w3.org/2000/svg" viewBox="0 0 300 300">
  <defs>
    <style>
      .cls-1 {
        fill: #0051b1;
      }
    </style>
  </defs>
  <path class="cls-1" d="M244.56186,55.43813c-21.77851-21.77801-50.73213-33.77163-81.52754-33.77163s-59.74904,11.99362-81.52755,33.77213c-21.77801,21.77851-33.77163,50.73214-33.77163,81.52704,0,.63615.03409,1.2718.08572,1.90544-.90234.82464-1.79014,1.66983-2.6604,2.53959-15.14981,15.15031-23.49396,35.29208-23.49396,56.71467,0,9.67461,7.87092,17.54553,17.54603,17.54553h29.98831l-3.09152,50.38022c-.1925,3.13714.91337,6.15296,3.11358,8.49254,2.26538,2.40824,5.44563,3.78983,8.72614,3.78983h47.85116c3.28052,0,6.46076-1.38109,8.72614-3.78983,2.20021-2.33957,3.30608-5.3554,3.11358-8.49254l-.84568-13.78628h61.33114c4.16832,0,8.2123-1.75757,11.09429-4.82201,2.78021-2.95617,4.17785-6.75954,3.93572-10.7098l-4.68666-76.37366h46.47057c12.89947,0,23.3942-10.49473,23.3942-23.3942,0-30.79441-11.99363-59.74804-33.77163-81.52706ZM127.22339,267.67483c-.37246.39603-.90435.63264-1.42269.63264h-30.74929v-24.03888c0-2.76869-2.24482-5.01301-5.01301-5.01301-2.76868,0-5.01301,2.24432-5.01301,5.01301v24.03888h-7.07586c-.51834,0-1.05023-.23661-1.42269-.63264-.20202-.21505-.43714-.56447-.40956-1.01013l3.12912-50.99432h45.25743l3.12912,50.99432c.02758.44568-.20754.79508-.40956,1.01013ZM39.21253,205.64538c-4.14676-.00049-7.52001-3.37374-7.52001-7.52,0-18.74464,7.30044-36.36887,20.55784-49.62526,1.33697-1.33697,2.72056-2.61027,4.14325-3.82442.01554-.01303.03158-.02607.04662-.0396,12.67388-10.80153,28.60171-16.69281,45.43489-16.69281,6.21212,0,12.29891.80659,18.14659,2.36113-2.17665,4.0074-3.33866,8.51309-3.33866,13.18772,0,15.27213,12.42474,27.69687,27.69687,27.69687,7.10544,0,13.73916-2.65288,18.77923-7.3215,5.80708,10.35036,8.89859,22.06676,8.89859,34.25839,0,4.14626-3.37325,7.51951-7.52002,7.51951H39.21253v-.00002ZM126.70856,143.49211c0-3.54821,1.04772-6.94502,2.98926-9.83302,8.03636,3.47051,15.42552,8.46446,21.80208,14.84101,2.16261,2.16262,4.16431,4.44403,6.00407,6.82521-3.31962,3.6991-8.03134,5.83764-13.12455,5.83764-9.74328.00002-17.67085-7.92706-17.67085-17.67084ZM201.9162,240.57451c-.98004,1.04221-2.39723,1.66432-3.79034,1.66432h-61.94673l-1.63023-26.56793h29.98831c9.6751,0,17.54603-7.87092,17.54603-17.54553,0-13.39075-3.25995-26.2817-9.4054-37.76549h25.7453l4.72475,76.98777c.09626,1.56604-.7304,2.69397-1.2317,3.22685ZM254.93928,150.33386h-88.63298c-2.33155-3.13012-4.90622-6.11286-7.71653-8.92315-15.15081-15.15031-35.29207-23.49396-56.71516-23.49396-15.85063,0-30.99743,4.57237-43.94202,13.08545,1.43572-25.87514,12.19163-50.00174,30.66406-68.47417,19.8846-19.88459,46.3207-30.8355,74.43766-30.8355s54.55305,10.95092,74.43765,30.83501c19.8846,19.8851,30.8355,46.32069,30.8355,74.43815,0,7.37112-5.99707,13.36818-13.3682,13.36818Z"/>
  <path class="cls-1" d="M144.93535,45.83321c-.6938-2.67995-3.42789-4.29063-6.11035-3.59733-2.68547.67124-4.31871,3.39331-3.64696,6.07877.56948,2.27791,2.61328,3.79836,4.8591,3.79836.40254,0,.81161-.04913,1.22017-.15089.02106-.00552.06818-.01755.09324-.02406,2.67343-.69781,4.2771-3.4284,3.58479-6.10484Z"/>
  <path class="cls-1" d="M130.65279,49.88773c-1.10437-2.53909-4.05853-3.70211-6.59561-2.59774-11.25671,4.8947-21.39853,11.81065-30.14322,20.55484-1.95808,1.95758-1.95808,5.13182-.0005,7.08939.97904.97904,2.26187,1.46831,3.5447,1.46831,1.28233,0,2.56566-.48977,3.5442-1.46831,7.85238-7.85187,16.95399-14.05898,27.0522-18.45037,2.53959-1.10387,3.70261-4.05703,2.59824-6.59612Z"/>
  <path class="cls-1" d="M168.52105,70.96091c-11.05719,0-20.05253,8.99534-20.05253,20.05203s8.99534,20.05253,20.05253,20.05253,20.05203-8.99534,20.05203-20.05253-8.99534-20.05203-20.05203-20.05203ZM168.52105,101.03895c-5.52834,0-10.02652-4.49767-10.02652-10.02651,0-5.52834,4.49817-10.02601,10.02652-10.02601s10.02601,4.49767,10.02601,10.02601c0,5.52884-4.49716,10.02651-10.02601,10.02651Z"/>
  <path class="cls-1" d="M228.07458,103.42815c-8.29251,0-15.03902,6.74651-15.03902,15.03902s6.74651,15.03902,15.03902,15.03902c8.29202,0,15.03852-6.74651,15.03852-15.03902,0-8.29202-6.74649-15.03902-15.03852-15.03902ZM228.07458,123.48018c-2.76418,0-5.01301-2.24883-5.01301-5.01301s2.24883-5.01301,5.01301-5.01301,5.0125,2.24883,5.0125,5.01301-2.24833,5.01301-5.0125,5.01301Z"/>
  <path class="cls-1" d="M81.017,159.43949c-8.29252,0-15.03902,6.74651-15.03902,15.03902s6.74651,15.03902,15.03902,15.03902,15.03903-6.74651,15.03903-15.03902-6.74651-15.03902-15.03903-15.03902ZM81.017,179.49101c-2.76417,0-5.01301-2.24883-5.01301-5.01301s2.24884-5.01301,5.01301-5.01301,5.01301,2.24883,5.01301,5.01301-2.24934,5.01301-5.01301,5.01301Z"/>
  <path class="cls-1" d="M90.03842,224.19302c-2.76868,0-5.01301,2.24432-5.01301,5.01301v.16293c0,2.76869,2.24433,5.01301,5.01301,5.01301,2.76818,0,5.01301-2.24432,5.01301-5.01301v-.16293c0-2.76869-2.24483-5.01301-5.01301-5.01301Z"/>
</svg>