<?xml version="1.0" encoding="UTF-8"?>
<svg id="Layer_1" xmlns="http://www.w3.org/2000/svg" xmlns:svgjs="http://svgjs.dev/svgjs" version="1.1" viewBox="0 0 300 300">
  <!-- Generator: Adobe Illustrator 29.1.0, SVG Export Plug-In . SVG Version: 2.1.0 Build 142)  -->
  <defs>
    <style>
      .st0 {
        fill: #0051b1;
      }
    </style>
  </defs>
  <g>
    <g>
      <path class="st0" d="M258,133.9h-25.5c-3.9,0-7-3.1-7-7s3.1-7,7-7h25.5c3.9,0,7,3.1,7,7s-3.1,7-7,7Z"/>
      <path class="st0" d="M245.2,180.1c-3.9,0-7-3.1-7-7v-44.7c0-3.9,3.1-7,7-7s7,3.1,7,7v44.7c0,3.9-3.1,7-7,7Z"/>
    </g>
    <path class="st0" d="M150.4,180.1c-8.3,0-16-3.3-21.3-9.1-2.6-2.9-2.4-7.3.5-9.9,2.9-2.6,7.3-2.4,9.9.5,2.6,2.8,6.7,4.5,10.9,4.5s6.5-2.5,6.9-4.2c.4-2.1-2.5-3.9-5.3-4.9-7.2-2.7-13.6-5.5-13.9-5.6-.3-.2-.7-.3-1-.5-5.3-3.4-8-9.5-7.1-15.7,1-6.6,5.8-12.1,12.6-14.1,13.2-4,24.1,5,24.6,5.4,3,2.5,3.3,6.9.9,9.9-2.5,2.9-6.9,3.3-9.8.9-.2-.2-5.7-4.5-11.6-2.7-1.6.5-2.6,1.5-2.8,2.7,0,.4,0,1.2.6,1.8,1.8.8,6.9,3,12.3,5,12.4,4.6,15.4,13.6,14.2,20.5-1.6,9.1-10.3,15.8-20.6,15.8Z"/>
    <g>
      <path class="st0" d="M111.2,180.1h-19.4c-3.9,0-7-3.1-7-7v-46.2c0-3.9,3.1-7,7-7h19.4c3.9,0,7,3.1,7,7s-3.1,7-7,7h-12.4v32.2h12.4c3.9,0,7,3.1,7,7s-3.1,7-7,7Z"/>
      <path class="st0" d="M109.8,157h-18c-3.9,0-7-3.1-7-7s3.1-7,7-7h18c3.9,0,7,3.1,7,7s-3.1,7-7,7Z"/>
    </g>
    <g>
      <path class="st0" d="M208.3,180.1h-19.4c-3.9,0-7-3.1-7-7v-46.2c0-3.9,3.1-7,7-7h19.4c3.9,0,7,3.1,7,7s-3.1,7-7,7h-12.4v32.2h12.4c3.9,0,7,3.1,7,7s-3.1,7-7,7Z"/>
      <path class="st0" d="M206.9,157h-18c-3.9,0-7-3.1-7-7s3.1-7,7-7h18c3.9,0,7,3.1,7,7s-3.1,7-7,7Z"/>
    </g>
    <g>
      <path class="st0" d="M67,180.1c-1.9,0-3.9-.8-5.3-2.4l-19.4-22c-2.6-2.9-2.3-7.3.6-9.9,2.9-2.6,7.3-2.3,9.9.6l19.4,22c2.6,2.9,2.3,7.3-.6,9.9-1.3,1.2-3,1.7-4.6,1.7Z"/>
      <path class="st0" d="M42,180.1c-3.9,0-7-3.1-7-7v-46.2c0-3.9,3.1-7,7-7s7,3.1,7,7v46.2c0,3.9-3.1,7-7,7Z"/>
      <path class="st0" d="M42.1,158c-3.8,0-7-3.1-7-7,0,0,0-8.7,0-12.1s0-12,0-12c0-1.9.7-3.6,2-5,1.3-1.3,3.1-2.1,5-2.1h12.3c10.8,0,19.7,8.5,19.7,19s-8.8,19-19.7,19-12.1,0-12.1,0h0ZM49,133.9c0,2,0,4,0,5s0,3.1,0,5c2,0,4,0,5.2,0,3.1,0,5.7-2.3,5.7-5s-2.6-5-5.7-5h-5.2Z"/>
    </g>
  </g>
  <g>
    <path class="st0" d="M233.3,89.3c-2.3,0-4.6-1-6.2-2.9-19.1-23.1-47.2-36.4-77.2-36.4s-58.1,13.3-77.2,36.4c-2.8,3.4-7.9,3.9-11.3,1.1s-3.9-7.9-1.1-11.3c22.1-26.8,54.8-42.2,89.5-42.2s67.4,15.4,89.5,42.2c2.8,3.4,2.3,8.4-1.1,11.3-1.5,1.2-3.3,1.8-5.1,1.8Z"/>
    <path class="st0" d="M233.3,89.3c-4.4,0-8-3.6-8-8v-25.7c0-4.4,3.6-8,8-8s8,3.6,8,8v25.7c0,4.4-3.6,8-8,8Z"/>
    <path class="st0" d="M233.3,89.3h-25.7c-4.4,0-8-3.6-8-8s3.6-8,8-8h25.7c4.4,0,8,3.6,8,8s-3.6,8-8,8Z"/>
  </g>
  <g>
    <path class="st0" d="M149,266c-34.7,0-67.4-15.4-89.5-42.2-2.8-3.4-2.3-8.5,1.1-11.3,3.4-2.8,8.5-2.3,11.3,1.1,19.1,23.1,47.2,36.4,77.2,36.4s58.1-13.3,77.2-36.4c2.8-3.4,7.9-3.9,11.3-1.1,3.4,2.8,3.9,7.9,1.1,11.3-22.1,26.8-54.8,42.2-89.5,42.2Z"/>
    <path class="st0" d="M65.7,252.4c-4.4,0-8-3.6-8-8v-25.7c0-4.4,3.6-8,8-8s8,3.6,8,8v25.7c0,4.4-3.6,8-8,8Z"/>
    <path class="st0" d="M91.4,226.7h-25.7c-4.4,0-8-3.6-8-8s3.6-8,8-8h25.7c4.4,0,8,3.6,8,8s-3.6,8-8,8Z"/>
  </g>
</svg>