<?xml version="1.0" encoding="UTF-8"?>
<svg id="Layer_1" data-name="Layer 1" xmlns="http://www.w3.org/2000/svg" viewBox="0 0 300 300">
  <defs>
    <style>
      .cls-1 {
        fill: #0051b1;
      }
    </style>
  </defs>
  <path class="cls-1" d="M150,287.98141c-76.06551,0-137.98141-61.91587-137.98141-137.98141S73.93448,12.01859,150,12.01859s137.98141,61.91589,137.98141,137.98141-61.91587,137.98141-137.98141,137.98141ZM150,25.17685c-68.85551,0-124.82315,55.96764-124.82315,124.82315s55.96764,124.82315,124.82315,124.82315,124.82315-55.96764,124.82315-124.82315S218.85551,25.17685,150,25.17685Z"/>
  <path class="cls-1" d="M182.89563,228.85939h-60.83439c-3.605,0-6.57913-2.97411-6.57913-6.57912v-21.35964c0-3.605,2.97413-6.57912,6.57913-6.57912h8.20138v-37.76238h-1.62225c-3.605,0-6.57913-2.97413-6.57913-6.57913v-18.11513c0-3.605,2.97413-6.57913,6.57913-6.57913h39.38463c3.605,0,6.57912,2.97413,6.57912,6.57913v60.74427h8.20138c3.605,0,6.57912,2.97411,6.57912,6.57912v22.98188c0,3.69513-2.88401,6.66925-6.48901,6.66925h.00003ZM128.64037,215.70113h47.67614v-9.82362h-8.20138c-3.605,0-6.57912-2.97411-6.57912-6.57912v-60.74426h-26.3165v4.95688h1.62225c3.605,0,6.57913,2.97413,6.57913,6.57913v50.92065c0,3.605-2.97413,6.57912-6.57913,6.57912h-8.20138v8.11122Z"/>
  <path class="cls-1" d="M152.43337,115.392c-12.6175,0-22.89175-10.27425-22.89175-22.89175s10.27425-22.89175,22.89175-22.89175,22.89176,10.27425,22.89176,22.89175-10.27425,22.89175-22.89176,22.89175ZM152.43337,80.42349c-6.66925,0-12.07675,5.4075-12.07675,12.07675s5.4075,12.07675,12.07675,12.07675,12.07676-5.4075,12.07676-12.07675-5.4075-12.07675-12.07676-12.07675Z"/>
</svg>