<?xml version="1.0" encoding="UTF-8"?>
<svg id="Layer_1" xmlns="http://www.w3.org/2000/svg" xmlns:svgjs="http://svgjs.dev/svgjs" version="1.1" viewBox="0 0 300 300">
  <!-- Generator: Adobe Illustrator 29.1.0, SVG Export Plug-In . SVG Version: 2.1.0 Build 142)  -->
  <defs>
    <style>
      .st0 {
        fill: #0051b1;
      }
    </style>
  </defs>
  <g id="_x31_5_Hydroponics">
    <g>
      <path class="st0" d="M37.8,140.2c0-.9-.8-1.7-1.7-1.7-11.3,0-20.5,9.2-20.5,20.5s.8,1.7,1.7,1.7,1.7-.8,1.7-1.7c0-9.4,7.7-17.1,17.1-17.1s1.7-.8,1.7-1.7Z"/>
      <path class="st0" d="M43,141.9h2.5c.9,0,1.7-.8,1.7-1.7s-.8-1.7-1.7-1.7h-2.5c-.9,0-1.7.8-1.7,1.7s.8,1.7,1.7,1.7Z"/>
      <path class="st0" d="M284.4,159c0-5.3-4.3-9.6-9.6-9.6h-40.9v-28.4c2.7-.2,8.1-1.2,11.8-4.9,5.1-5.1,5-13.2,5-13.5,0-.9-.8-1.7-1.7-1.7-.3,0-8.5-.1-13.6,5-.6.6-1.1,1.2-1.5,1.9v-16.3c4.3-.2,15.7-1.5,23.3-9.1,9.4-9.4,9.2-24.4,9.2-25.1,0-.9-.8-1.7-1.7-1.7-.6,0-15.7-.2-25.1,9.2-2.6,2.6-4.4,5.6-5.8,8.6v-21.6c3.8-.8,6.7-4.2,6.7-8.2s-3.7-8.4-8.4-8.4-8.4,3.8-8.4,8.4,2.9,7.4,6.7,8.2v21.6c-1.3-3-3.2-6-5.7-8.6-9.4-9.4-24.5-9.2-25.1-9.2-.9,0-1.7.8-1.7,1.7,0,.6-.2,15.7,9.2,25.1,7.6,7.6,19,8.9,23.3,9.1v16.3c-.5-.7-1-1.3-1.6-1.9-5.1-5.1-13.2-5-13.6-5-.9,0-1.7.8-1.7,1.7,0,.3-.1,8.5,5,13.5,3.7,3.7,9.1,4.7,11.8,4.9v28.4h-73.3v-28.4c2.7-.2,8.1-1.2,11.8-4.9,5.1-5.1,5-13.2,5-13.5,0-.9-.8-1.7-1.7-1.7-.4,0-8.5-.1-13.6,5-.6.6-1.1,1.2-1.6,1.9v-16.3c4.3-.2,15.7-1.5,23.3-9.1,9.4-9.4,9.2-24.4,9.2-25.1,0-.9-.8-1.7-1.7-1.7-.6,0-15.7-.2-25.1,9.2-2.6,2.6-4.4,5.6-5.7,8.6v-21.6c3.8-.8,6.7-4.2,6.7-8.2s-3.8-8.4-8.4-8.4-8.4,3.8-8.4,8.4,2.9,7.4,6.7,8.2v21.6c-1.3-3-3.2-6-5.7-8.6-9.4-9.4-24.5-9.2-25.1-9.2-.9,0-1.7.8-1.7,1.7,0,.6-.2,15.7,9.2,25.1,7.6,7.6,19,8.9,23.3,9.1v16.3c-.5-.7-1-1.3-1.6-1.9-5.1-5.1-13.2-5-13.6-5-.9,0-1.7.8-1.7,1.7,0,.3-.1,8.5,5,13.5s9.1,4.7,11.8,4.9v28.4h-73.3v-28.4c2.7-.2,8.1-1.2,11.8-4.9s5-13.2,5-13.5c0-.9-.8-1.7-1.7-1.7-.4,0-8.5-.1-13.6,5-.6.6-1.1,1.2-1.5,1.9v-16.3c4.3-.2,15.7-1.5,23.3-9.1,9.4-9.4,9.2-24.4,9.2-25.1,0-.9-.8-1.7-1.7-1.7-.6,0-15.7-.2-25.1,9.2-2.6,2.6-4.4,5.6-5.7,8.6v-21.6c3.8-.8,6.7-4.2,6.7-8.2s-3.8-8.4-8.4-8.4-8.4,3.8-8.4,8.4,2.9,7.4,6.7,8.2v21.6c-1.3-3-3.2-6-5.8-8.6-9.4-9.4-24.5-9.2-25.1-9.2-.9,0-1.7.8-1.7,1.7,0,.6-.2,15.7,9.2,25.1,7.6,7.6,19,8.9,23.3,9.1v16.3c-.5-.7-1-1.3-1.6-1.9-5.1-5.1-13.2-5-13.6-5-.9,0-1.7.8-1.7,1.7,0,.3-.1,8.5,5,13.5,3.7,3.7,9.1,4.7,11.8,4.9v28.4h-40.9c-5.3,0-9.6,4.3-9.6,9.6s4.3,9.6,9.6,9.6h.3c-5.2,23.7-.8,43.6,10.9,65.2,6.7,12.4,19.8,20.1,34,20.1h148.1c14.3,0,27.3-7.7,34-20.1,11.7-21.5,16.2-41.4,10.9-65.2h.3c5.3,0,9.6-4.3,9.6-9.6ZM242.1,67.1c6.6-6.6,16.8-7.9,20.9-8.1-.2,4-1.5,14.2-8.1,20.9-6.6,6.6-16.8,7.9-20.8,8.1.2-4,1.5-14.3,8.1-20.9ZM209.6,79.9c-6.6-6.6-7.9-16.8-8.1-20.9,4,.2,14.3,1.5,20.9,8.1,6.6,6.6,7.9,16.8,8.1,20.9-4-.2-14.3-1.5-20.8-8.1ZM165.3,67.1c6.6-6.6,16.8-7.9,20.9-8.1-.2,4-1.5,14.2-8.1,20.9-6.6,6.6-16.8,7.9-20.9,8.1.2-4,1.5-14.3,8.1-20.9ZM132.8,79.9c-6.6-6.6-7.9-16.8-8.1-20.9,4,.2,14.3,1.5,20.9,8.1,6.6,6.6,7.9,16.8,8.1,20.9-4-.2-14.3-1.5-20.9-8.1ZM88.6,67.1c6.6-6.6,16.8-7.9,20.9-8.1-.2,4-1.5,14.2-8.1,20.9-6.6,6.6-16.8,7.9-20.8,8.1.2-4,1.5-14.3,8.1-20.9ZM56.1,79.9c-6.6-6.6-7.9-16.8-8.1-20.9,4,.2,14.3,1.5,20.9,8.1s7.9,16.8,8.1,20.9c-4-.2-14.3-1.5-20.9-8.1ZM271.3,204.7H39.6c-2.7-11.9-2.6-23.6.3-36.2h36l-9.8,19.6c-.4.8,0,1.9.8,2.3.8.4,1.9,0,2.3-.8l7.8-15.6v24.2c0,.9.8,1.7,1.7,1.7s1.7-.8,1.7-1.7v-24.2l7.8,15.6c.4.8,1.4,1.2,2.3.8.8-.4,1.2-1.4.8-2.3l-9.8-19.6h71.2l-9.8,19.6c-.4.8,0,1.9.8,2.3.8.4,1.9,0,2.3-.8l7.8-15.6v24.2c0,.9.8,1.7,1.7,1.7s1.7-.8,1.7-1.7v-24.2l7.8,15.6c.4.8,1.4,1.2,2.3.8.8-.4,1.2-1.4.8-2.3l-9.8-19.6h71.2l-9.8,19.6c-.4.8,0,1.9.8,2.3s1.9,0,2.3-.8l7.8-15.6v24.2c0,.9.8,1.7,1.7,1.7s1.7-.8,1.7-1.7v-24.2l7.8,15.6c.4.8,1.4,1.2,2.3.8.8-.4,1.2-1.4.8-2.3l-9.8-19.6h36c2.9,12.6,3,24.2.3,36.2h0ZM36.1,165.1c-3.4,0-6.2-2.7-6.2-6.2s2.8-6.2,6.2-6.2h238.7c3.4,0,6.2,2.8,6.2,6.2s-2.8,6.2-6.2,6.2H36.1Z"/>
      <path class="st0" d="M194.8,261.4h-7.3c-.9,0-1.7.8-1.7,1.7s.8,1.7,1.7,1.7h7.3c.9,0,1.7-.8,1.7-1.7s-.8-1.7-1.7-1.7Z"/>
      <path class="st0" d="M179.2,261.4h-23.3c-.9,0-1.7.8-1.7,1.7s.8,1.7,1.7,1.7h23.3c.9,0,1.7-.8,1.7-1.7s-.8-1.7-1.7-1.7Z"/>
    </g>
  </g>
</svg>