<svg version="1.1" id="Capa_1" xmlns="http://www.w3.org/2000/svg" xmlns:xlink="http://www.w3.org/1999/xlink" x="0px" y="0px" viewBox="0 0 512 512" style="enable-background:new 0 0 512 512;" xml:space="preserve" width="300" height="300" xmlns:svgjs="http://svgjs.dev/svgjs"><g width="100%" height="100%" transform="matrix(1,0,0,1,0,0)"><g>
	<g>
		<g>
			<path d="M256,0C114.615,0,0,114.615,0,256s114.615,256,256,256s256-114.615,256-256S397.385,0,256,0z M256,480&#10;&#9;&#9;&#9;&#9;C132.288,480,32,379.712,32,256S132.288,32,256,32s224,100.288,224,224S379.712,480,256,480z" fill="#0051b1" fill-opacity="1" data-original-color="#000000ff" stroke="none" stroke-opacity="1"/>
			<circle cx="256" cy="256" r="32" fill="#0051b1" fill-opacity="1" data-original-color="#000000ff" stroke="none" stroke-opacity="1"/>
			<circle cx="368" cy="256" r="32" fill="#0051b1" fill-opacity="1" data-original-color="#000000ff" stroke="none" stroke-opacity="1"/>
			<circle cx="144" cy="256" r="32" fill="#0051b1" fill-opacity="1" data-original-color="#000000ff" stroke="none" stroke-opacity="1"/>
		</g>
	</g>
</g><g>
</g><g>
</g><g>
</g><g>
</g><g>
</g><g>
</g><g>
</g><g>
</g><g>
</g><g>
</g><g>
</g><g>
</g><g>
</g><g>
</g><g>
</g></g></svg>