<?xml version="1.0" encoding="UTF-8"?>
<svg id="Layer_1" data-name="Layer 1" xmlns="http://www.w3.org/2000/svg" viewBox="0 0 300 300">
  <defs>
    <style>
      .cls-1 {
        fill: #0051b1;
      }
    </style>
  </defs>
  <path class="cls-1" d="M280.88709,189.06465h-15.69803v-24.38872c0-8.72282-7.11741-15.81916-15.86499-15.81916h-6.41952c-2.18216,0-3.95031,1.76869-3.95031,3.95031v9.1879c0,.1559-.15854.30865-.31971.30865h-14.9364v-19.94962l13.73498-9.25901c5.62945,2.07787,10.91972,3.12022,15.75964,3.12022,5.28078,0,10.02694-1.23777,14.09313-3.7133,8.14976-4.96212,13.08818-14.51714,14.28118-27.63376.18646-2.08471.58834-4.27635-.76795-6.07927-1.23039-1.63543-3.24506-2.03573-5.09643-2.58877-12.67524-3.78598-23.42062-2.75837-31.07159,2.97274-7.27965,5.45249-11.27209,14.89268-11.61919,27.3741l-9.31379,6.2789v-29.0622c12.27704-8.80129,15.27297-17.86437,15.5695-24.03582.44086-9.18843-4.53707-18.29417-14.39442-26.33174-1.58066-1.28938-3.11549-2.76206-5.30132-2.68832-2.02941.06847-3.46469,1.47742-4.94685,2.68674-9.86105,8.03336-14.8416,17.13646-14.40231,26.32384.29496,6.17302,3.29087,15.23979,15.57478,24.0453v29.0622l-9.31167-6.27731c-.43031-15.67696-6.48958-23.5286-11.62657-27.37515-7.65307-5.73164-18.39635-6.75978-31.0579-2.97538-1.83874.54409-3.85445.93912-5.08063,2.55822-1.38103,1.82294-.99759,4.00087-.80692,6.11719,1.20143,13.11821,6.14406,22.6727,14.29276,27.63166,4.06513,2.47395,8.80867,3.71014,14.08998,3.71014,4.84045,0,10.1344-1.04236,15.76544-3.12022l13.73498,9.25901v19.94962h-15.04122c-.1617,0-.31971-.15326-.31971-.30865v-9.1879c0-2.18163-1.76816-3.95031-3.95031-3.95031h-35.60918c-2.18216,0-3.95031,1.76869-3.95031,3.95031s1.76816,3.95031,3.95031,3.95031h31.65834v5.23759c0,4.52653,3.68749,8.20928,8.22034,8.20928h15.04122v12.01054c-5.90599-1.44054-23.51596-4.7546-44.51793.50512-.06584.01633-.13799.03687-.20279.05635-.08481.02581-8.60958,2.59141-21.09257,2.56507-12.45403.01001-20.99197-2.53978-21.07045-2.56349-.06847-.02159-.13747-.04055-.20752-.05793-20.98565-5.25497-38.58561-1.94987-44.50266-.5088v-12.00633h15.02594c4.53286,0,8.22034-3.68275,8.22034-8.20928v-5.23759h35.1973c2.18163,0,3.95031-1.76869,3.95031-3.95031s-1.76869-3.95031-3.95031-3.95031h-39.14761c-2.18163,0-3.95031,1.76869-3.95031,3.95031v9.1879c0,.1559-.15854.30865-.31971.30865h-15.02594v-19.95014l13.73076-9.26006c5.63052,2.07892,10.92235,3.1218,15.76386,3.1218,5.28078,0,10.02747-1.23777,14.09314-3.7133,8.14976-4.96159,13.08765-14.51714,14.28065-27.63324.18962-2.08366.58675-4.27898-.76847-6.08085-1.22934-1.63437-3.24558-2.03625-5.09591-2.58772-12.67629-3.78651-23.42062-2.75784-31.07159,2.97274-7.27912,5.45249-11.27104,14.89057-11.61919,27.36988l-9.31379,6.28152v-29.06061c12.27757-8.80183,15.27244-17.8649,15.5674-24.03634.43874-9.19001-4.54391-18.29575-14.39179-26.31857-1.55168-1.27885-3.06386-2.73836-5.21389-2.70254-2.07154.03476-3.52579,1.4574-5.03428,2.68779-9.86156,8.03388-14.84159,17.13646-14.40285,26.32437.29496,6.17302,3.2914,15.23979,15.57477,24.0453v29.0622l-9.31063-6.27731c-.43032-15.67643-6.48958-23.5286-11.62604-27.37515-7.6536-5.73164-18.39635-6.75978-31.05789-2.9759-1.80608.53566-3.80494.92121-5.03059,2.49133-1.43159,1.83347-1.05184,4.03354-.85748,6.18146,1.19299,13.11293,6.13036,22.6669,14.27802,27.62902,4.06882,2.47816,8.81605,3.71646,14.10209,3.71592,4.84151,0,10.13598-1.04288,15.76808-3.12075l13.73498,9.25901v19.94962h-14.93587c-.17013,0-.31971-.14431-.31971-.30865v-9.1879c0-2.18163-1.76869-3.95031-3.95031-3.95031h-6.43533c-8.73968,0-15.84971,7.09634-15.84971,15.81916v24.3887h-15.69802c-2.18163,0-3.95031,1.76869-3.95031,3.95031v21.19107c0,2.18163,1.76869,3.95031,3.95031,3.95031h15.69802v15.30457c0,8.73071,7.11057,15.83392,15.84971,15.83392h89.80591c2.18163,0,3.95031-1.76869,3.95031-3.95031s-1.76869-3.95031-3.95031-3.95031H50.66065c-4.38327,0-7.94908-3.55896-7.94908-7.93329v-41.98446c6.72027,1.30939,13.00391,1.7787,18.55173,1.7787,5.99921,0,11.13514-.54725,15.03911-1.16929v10.42251c-1.3252,1.193-2.34807,1.15454-4.31269,1.07713-2.85581-.11271-6.76715-.26704-11.14937,3.76755-1.60488,1.47794-1.70811,3.97664-.2307,5.58205.779.84589,1.84137,1.27464,2.90743,1.27464.95598,0,1.91564-.34552,2.67463-1.04393,1.98095-1.82347,3.22714-1.77447,5.4862-1.68547,1.34943.0532,2.91902.1143,4.6245-.27441v8.68805c-2.92692,1.75657-4.75618,1.70338-7.32441,1.62068-3.30193-.10745-7.41132-.24124-13.57012,3.23451-1.89984,1.07238-2.57086,3.48154-1.49849,5.3819.7258,1.28621,2.0647,2.00939,3.44362,2.00939.65786,0,1.32467-.16434,1.93829-.51091,4.23-2.38756,6.63916-2.30856,9.42966-2.21797,3.13708.10112,6.64232.21121,11.53123-2.67779,4.88785,2.88899,8.38836,2.77945,11.52385,2.67779,2.78576-.09059,5.19229-.16908,9.42282,2.21797.61361.34657,1.28043.51091,1.93828.51091,1.37892,0,2.71782-.72316,3.44362-2.00939,1.07238-1.89983.40135-4.30953-1.49849-5.3819-6.15775-3.47575-10.26345-3.34144-13.56327-3.23451-2.56402.08321-4.39064.13589-7.31651-1.62015v-8.68701c1.70337.38712,3.27086.32603,4.61924.27231,2.26221-.08955,3.51104-.13852,5.49199,1.68547.75898.69894,1.71812,1.04393,2.67463,1.04393,1.06553,0,2.12843-.42874,2.90743-1.27464,1.47794-1.60488,1.37471-4.10411-.2307-5.58205-4.38222-4.03459-8.29566-3.88079-11.15463-3.76754-1.96567.0769-2.98749.11535-4.30742-1.07449v-12.11957c.10323-.03056.17381-.05214.20963-.0632.19014-.05742,19.22012-5.71584,42.28468.03318,1.17088.34867,10.12913,2.8811,23.06404,2.8811h.2228c13.06921.04846,22.12439-2.52926,23.30528-2.8811,23.06351-5.7485,42.09402-.09059,42.27625-.03528.03687.01159.12325.0374.23175.06901v12.11377c-1.32519,1.193-2.34807,1.15454-4.31268,1.0766-2.85634-.11167-6.76715-.26704-11.14937,3.76755-1.60488,1.47794-1.70812,3.97664-.23069,5.58205.779.84589,1.84137,1.27464,2.90743,1.27464.95598,0,1.91564-.34552,2.67463-1.04393,1.98094-1.82347,3.22292-1.77447,5.4862-1.68547,1.3489.05372,2.91848.11482,4.6245-.27441v8.68805c-2.92745,1.75657-4.75671,1.70338-7.32441,1.62068-3.30246-.1085-7.41237-.24124-13.57012,3.23451-1.89983,1.07238-2.57087,3.48154-1.49849,5.3819.7258,1.28621,2.0647,2.00939,3.44362,2.00939.65786,0,1.32468-.16434,1.93828-.51091,4.23053-2.38809,6.63968-2.30803,9.42967-2.21797,3.1355.10061,6.64127.21121,11.53123-2.67779,4.88785,2.88952,8.38783,2.77945,11.52439,2.67779,2.78787-.08955,5.19282-.16855,9.42282,2.21797.61362.34657,1.28043.51091,1.93828.51091,1.3784,0,2.71782-.72316,3.44362-2.00939,1.07238-1.89983.40188-4.30953-1.49849-5.3819-6.15775-3.47628-10.2645-3.34091-13.56328-3.23451-2.56454.08374-4.39064.13642-7.3165-1.62015v-8.68648c1.70285.38712,3.27034.32603,4.61923.27231,2.26433-.08955,3.51052-.13852,5.49199,1.68547.75899.69894,1.71865,1.04393,2.67463,1.04393,1.06554,0,2.12842-.42874,2.90743-1.27464,1.47794-1.60488,1.37419-4.10411-.23069-5.58205-4.38222-4.03459-8.29566-3.88026-11.15464-3.76755-1.96567.07743-2.98749.11588-4.30794-1.07449v-10.42461c7.51982,1.19668,19.60726,2.11315,33.59083-.61151v41.98658c0,4.37431-3.57266,7.93329-7.96436,7.93329h-90.61282c-2.18216,0-3.95031,1.76869-3.95031,3.95031s1.76816,3.95031,3.95031,3.95031h90.6123c8.74758,0,15.86499-7.10319,15.86499-15.83392v-15.30457h15.69803c2.18216,0,3.95031-1.76869,3.95031-3.95031v-21.19107c0-2.18163-1.76816-3.95031-3.95031-3.95031v-.00003ZM249.36727,105.49708c5.56731-4.16995,13.89247-4.76724,24.07427-1.72602.09744.02897.19173.05689.28443.08428-.00948.09744-.01844.19752-.02792.2997-.95702,10.52258-4.59607,17.99131-10.52205,21.59926-4.4786,2.72729-10.37931,3.27613-17.3166,1.66018l12.89909-8.69543c1.80924-1.21933,2.28697-3.67485,1.06711-5.48356-1.2188-1.80924-3.6738-2.28644-5.48357-1.06711l-12.92754,8.71492c1.0766-7.00523,3.77123-12.25387,7.95277-15.38621h.00002ZM208.11335,79.34178c-.31444-6.58175,3.66274-13.43581,11.50331-19.82373.04425-.03582.08796-.07163.13062-.10692.04319.03529.08691.07111.13168.10745,7.8369,6.39003,11.81196,13.24725,11.49593,19.83058-.23386,4.87258-2.86423,9.71145-7.6773,14.23693v-14.98486c0-2.18163-1.76816-3.95031-3.95031-3.95031s-3.95031,1.76869-3.95031,3.95031v14.98591c-4.81834-4.52864-7.45029-9.37015-7.68363-14.24536h.00002ZM176.31333,125.75639c-5.926-3.60637-9.56766-11.07668-10.53153-21.59979-.00948-.10165-.01844-.2012-.02792-.29706.09691-.02844.19645-.05741.2997-.08796,10.17653-3.04122,18.49853-2.44446,24.06899,1.72708,4.18364,3.13286,6.87934,8.38151,7.95645,15.38463l-12.92754-8.71439c-1.80924-1.21985-4.26475-.74161-5.48357,1.06711-1.21933,1.80924-.7416,4.26423,1.06711,5.48356l12.89698,8.69438c-6.93886,1.61542-12.84063,1.06763-17.31871-1.65755h.00003ZM109.87273,105.49707c5.56731-4.16996,13.89247-4.76724,24.07427-1.72602.09744.02897.19225.05689.28442.08428-.00895.09692-.01844.19699-.02791.2997-.95703,10.52206-4.59554,17.99078-10.52153,21.59874-4.48018,2.72835-10.38353,3.27613-17.32397,1.65808l12.89119-8.69385c1.80872-1.21985,2.28644-3.67537,1.06658-5.48409-1.21985-1.80924-3.67537-2.28644-5.48409-1.06658l-12.91121,8.70754c1.07817-7.00048,3.77176-12.2465,7.95225-15.37779ZM68.61934,79.34177c-.31445-6.58175,3.66273-13.43581,11.50384-19.82373.04161-.03371.08269-.06742.12272-.1006.04056.03371.08217.06794.12483.10271,7.84322,6.3895,11.8225,13.24725,11.50805,19.8311-.23281,4.87206-2.86266,9.70987-7.67572,14.23535v-14.98486c0-2.18163-1.76869-3.95031-3.95031-3.95031s-3.95031,1.76869-3.95031,3.95031v14.98591c-4.8178-4.52917-7.45029-9.37067-7.6831-14.24588ZM36.80667,125.75217c-5.92494-3.60848-9.56239-11.07668-10.51942-21.59505-.00895-.10218-.01843-.2012-.02739-.29759.09691-.02844.19699-.05741.30022-.08796,10.17601-3.04174,18.49906-2.44446,24.06847,1.72708,4.18365,3.13286,6.87934,8.38151,7.95646,15.38516l-12.92753-8.71439c-1.80872-1.21985-4.26423-.74161-5.48356,1.06711-1.21933,1.80924-.74161,4.26423,1.06711,5.48356l12.89699,8.69438c-6.94465,1.61647-12.85011,1.06658-17.33135-1.6623ZM23.06327,210.2557v-13.29044h11.74771v13.29044h-11.74771ZM42.7116,183.4062v-18.73028c0-4.36642,3.56634-7.91853,7.94909-7.91853h2.48449v5.23759c0,4.52653,3.68749,8.20928,8.22034,8.20928h14.9364v13.84507c-6.90515,1.19879-19.32335,2.39126-33.59031-.64312ZM223.69761,184.05142v-13.84664h14.9364c4.53285,0,8.22034-3.68275,8.22034-8.20928v-5.23759h2.4692c4.3917,0,7.96436,3.55212,7.96436,7.91853v18.73028c-14.25958,3.03174-26.67938,1.8419-33.5903.64469ZM276.93679,210.2557h-11.7477v-13.29044h11.74772l-.00002,13.29044Z"/>
</svg>