<?xml version="1.0" encoding="UTF-8"?>
<svg id="Layer_1" data-name="Layer 1" xmlns="http://www.w3.org/2000/svg" viewBox="0 0 300 300">
  <defs>
    <style>
      .cls-1 {
        fill: #0051b1;
      }
    </style>
  </defs>
  <path class="cls-1" d="M160.96241,196.07006l-2.16432-.76786c-1.61101-.57213-3.40457-.24654-4.71257.85444l-9.76955,8.21877-3.13732-6.3631c-.52508-1.06334-1.42092-1.89519-2.52002-2.33935l-2.24901-.90525c1.34941-1.11604,2.53131-2.45227,3.48738-3.98235,1.88202-3.00935,2.9717-6.30476,3.30294-9.63404,6.34616-.63989,12.3385-3.44597,16.90992-8.01927l.55331-.55143c1.88202-1.88202,1.88202-4.93277.00188-6.81478-1.88202-1.88202-4.93277-1.88202-6.81478-.00188l-.55331.55331c-3.03946,3.03946-7.03874,4.88007-11.26199,5.26212-1.08404-3.05075-2.84373-5.90201-5.26777-8.32604s-5.27718-4.18561-8.32793-5.26777c.38017-4.22513,2.22454-8.22253,5.264-11.26387l.55331-.55331c1.88013-1.88013,1.88013-4.93088-.00188-6.8129s-4.93277-1.88013-6.8129.00188l-.55331.55143c-4.57142,4.5733-7.37751,10.56564-8.01927,16.9118-3.32929.33123-6.6247,1.42092-9.63404,3.30106-1.53008.95795-2.86631,2.13985-3.98235,3.48926l-.90525-2.24901c-.44227-1.0991-1.27601-1.99682-2.33935-2.52002l-6.36122-3.1392,8.21877-9.76767c1.10098-1.308,1.42469-3.10156.85255-4.71257l-.76786-2.1662c-.89019-2.50685-3.64358-3.81861-6.15231-2.9303-2.35629.8375-3.65676,3.31988-3.06581,5.69687l-10.41696,12.38179c-.95418,1.13297-1.33247,2.64047-1.02946,4.08962.30489,1.44915,1.25719,2.67811,2.58589,3.33305l9.0111,4.44344c-2.93783-.77916-6.01304-1.08216-9.11273-.85632-1.86884.13739-3.7151.39899-5.53125.77351l-4.01811-4.01811c-1.08216-1.08216-2.61412-1.58842-4.12915-1.35505l-6.95405,1.05205,1.56584-7.37751.23902-.06587c2.56707-.70011,4.08021-3.34811,3.38198-5.91518-.70011-2.56707-3.34999-4.08021-5.91706-3.38198l-3.07333.8375c-1.74087.47615-3.07145,1.8839-3.44597,3.64923l-3.61912,17.0586c-.32935,1.54702.12233,3.15614,1.20637,4.30605s2.66305,1.6957,4.22701,1.45856l7.25894-1.0991c-3.06016,1.81615-5.90765,4.0087-8.45967,6.56071-1.91778,1.91589-3.71698,3.92212-5.40139,5.99987l-1.18943-1.18943c-1.18755-1.18943-2.9096-1.67123-4.54507-1.27601l-10.58446,2.5746,2.01752-9.96716c.14115-.69635.1261-1.41528-.04329-2.10786l-1.38516-5.62911c-.63612-2.58401-3.24648-4.1649-5.83049-3.5269-2.58401.63612-4.16302,3.24648-3.5269,5.83049l1.12733,4.58083-2.29606,11.33915c-.54955,2.71763.3143,5.48608,2.313,7.40762,1.99682,1.91966,4.79726,2.67811,7.49043,2.02129l10.36427-2.52002.43475.43475c-7.2627,11.78331-11.1773,25.36582-11.22811,39.54682l-.02258,6.40639c-.01694,4.35122,1.06899,8.67422,3.13544,12.50224,2.42404,4.48673,6.07703,8.13784,10.56376,10.56188v.00188c3.80167,2.0514,8.08891,3.13544,12.40626,3.13544h.09598l6.40639-.02258c14.181-.05081,27.7654-3.96541,39.54682-11.22811l.43475.43475-2.52002,10.36615c-.65494,2.69317.09975,5.49173,2.02317,7.49043,1.92154,1.99682,4.68999,2.86067,7.40574,2.31112l10.863-2.20008,4.20443,1.9253c.6493.29736,1.33059.43851,2.00247.43851,1.82556,0,3.57395-1.04452,4.38322-2.8155,1.10663-2.41839.04329-5.27718-2.37511-6.38568l-5.63099-2.57648c-.92595-.42345-1.96106-.54202-2.96041-.34065l-9.96716,2.01752,2.5746-10.58446c.39711-1.63359-.08469-3.35564-1.27413-4.54507l-1.19132-1.18943c2.07963-1.68441,4.08398-3.48361,6.00175-5.39951,2.55013-2.55202,4.74268-5.40139,6.55883-8.46155l-1.0991,7.25894c-.23713,1.56207.30865,3.14109,1.45856,4.22701.90337.85067,2.08904,1.31177,3.30482,1.31177.33312,0,.66812-.03388,1.00123-.10539l17.0586-3.61912c1.76533-.37452,3.17308-1.70511,3.64923-3.44597l.8375-3.07333c.70011-2.56707-.81303-5.21507-3.3801-5.91518-2.56895-.70199-5.21695.81303-5.91706,3.3801l-.06399.23902-7.37939,1.56584,1.05393-6.95405c.22961-1.51502-.27477-3.04699-1.35693-4.12915l-4.01811-4.01811c.37452-1.81615.63612-3.66241.77351-5.53125.22584-3.0978-.07528-6.16925-.85255-9.10332l4.43968,9.00169c.65494,1.3287,1.8839,2.281,3.33305,2.58401.32935.06963.65871.10351.98806.10351,1.12356,0,2.22643-.39334,3.10156-1.13109l12.38179-10.41696c2.37887.59095,4.85937-.70952,5.69498-3.06581.89019-2.50685-.42157-5.26212-2.9303-6.15231ZM111.15107,173.35788c.23902-2.09845,1.4021-3.94471,3.1919-5.06451,2.07963-1.30047,4.40016-1.93471,6.70186-1.93471,3.24836,0,6.46096,1.26283,8.9057,3.70946,4.17996,4.17808,4.91018,10.59576,1.77662,15.60757-1.1198,1.7898-2.96606,2.95477-5.06451,3.19378-2.09845.23713-4.15926-.4818-5.65358-1.97612l-7.88377-7.88377c-1.49432-1.49244-2.21325-3.55325-1.97424-5.6517ZM115.50794,234.70598c-12.48342,12.4853-29.08469,19.39607-46.73989,19.46006l-6.40827.02258c-2.7421.00188-5.47102-.67188-7.88565-1.97612-2.83244-1.53008-5.13602-3.83555-6.6661-6.6661-1.30424-2.41463-1.98741-5.14167-1.978-7.88753l.02258-6.40639c.06399-17.6552,6.97475-34.25647,19.46006-46.73989,5.66111-5.66111,13.176-9.10143,21.15952-9.68674,5.23765-.38393,10.36615,1.52632,14.07937,5.23765l5.75521,5.75521c.00188.00188.00376.00376.00376.00565l7.88565,7.88377,5.76085,5.76085c3.71134,3.71134,5.6197,8.8436,5.23765,14.07937-.58531,7.98352-4.02563,15.49841-9.68674,21.15763Z"/>
  <path class="cls-1" d="M273.15509,75.13729l-2.1982-10.86112,1.92342-4.20631c1.10663-2.41839.04329-5.27906-2.37699-6.38568-2.42027-1.10851-5.27718-.04329-6.38568,2.37699l-2.57648,5.62911c-.42345.92595-.54202,1.96294-.34065,2.96229l2.01752,9.96528-10.58446-2.5746c-1.63359-.39711-3.35564.08657-4.54507,1.27601l-1.18943,1.18943c-1.68441-2.07775-3.48361-4.08209-5.39951-5.99987-2.55202-2.55202-5.40139-4.74456-8.46155-6.56071l7.25894,1.0991c1.56207.23713,3.14297-.30677,4.22701-1.45668s1.53573-2.75904,1.20825-4.30605l-3.621-17.06048c-.37452-1.76345-1.70323-3.17308-3.44409-3.64735l-3.07522-.8375c-2.56519-.70011-5.21507.81303-5.91518,3.3801s.81303,5.21507,3.3801,5.91518l.23902.06587,1.56584,7.37939-6.95405-1.05393c-1.51502-.23149-3.04699.27289-4.12915,1.35505l-4.01811,4.01811c-1.81615-.37452-3.66241-.63612-5.52937-.77163-3.0978-.22772-6.17302.07528-9.10708.85255l9.00545-4.44156c1.32682-.65494,2.281-1.8839,2.58401-3.33305s-.07528-2.95665-1.02946-4.08962l-10.41696-12.37991c.59095-2.37887-.70952-4.86125-3.06581-5.69687-2.50496-.89019-5.26212.42157-6.15231,2.92842l-.76786,2.1662c-.57213,1.61101-.24654,3.40457.85444,4.71257l8.21877,9.76955-6.3631,3.13732c-1.06334.52508-1.89519,1.42092-2.33935,2.52002l-.90525,2.24901c-1.11604-1.34941-2.45227-2.52943-3.98235-3.48738-3.00935-1.88202-6.30476-2.9717-9.63404-3.30294-.63989-6.34616-3.44786-12.3385-8.02116-16.9118l-.55143-.55143c-1.88202-1.88202-4.93277-1.88202-6.81478.00188-1.88013,1.88202-1.88013,4.93088.00188,6.8129l.55143.55143c3.03946,3.03946,4.88383,7.03874,5.264,11.26387-3.05075,1.08216-5.90389,2.84373-8.32793,5.26777s-4.18561,5.27529-5.26777,8.32604c-4.22325-.38017-8.22441-2.22266-11.26387-5.26212l-.55331-.55331c-1.88013-1.88202-4.93088-1.88013-6.8129.00188-1.88013,1.88202-1.88013,4.93277.00188,6.8129l.55143.55331c4.5733,4.5733,10.56376,7.37939,16.90992,8.01927.33123,3.32929,1.4228,6.62658,3.30294,9.63404.95795,1.53008,2.13985,2.86631,3.48926,3.98235l-2.24901.90525c-1.0991.44416-1.99682,1.27601-2.52002,2.33935l-3.1392,6.3631-9.76767-8.22065c-1.308-1.0991-3.10345-1.42469-4.71445-.85255l-2.16432.76974c-2.50873.89019-3.81861,3.64358-2.9303,6.15231.8375,2.35629,3.32176,3.65488,5.69687,3.06581l12.38179,10.41696c.87514.73587,1.97612,1.13109,3.10156,1.13109.32747,0,.66059-.03388.98806-.10351,1.44915-.303,2.67811-1.25531,3.33117-2.58401l4.43968-9.00169c-.77539,2.93406-1.07651,6.00552-.85067,9.10332.13739,1.86696.39899,3.71322.77351,5.52937l-4.01811,4.01811c-1.08216,1.08404-1.58654,2.616-1.35693,4.12915l1.05393,6.95405-7.37939-1.56584-.06587-.23902c-.69823-2.56707-3.34623-4.08021-5.91518-3.3801-2.56707.70011-4.08021,3.34811-3.3801,5.91518l.8375,3.07522c.47615,1.74087,1.8839,3.06957,3.64923,3.44409l17.06048,3.621c.33123.06963.66623.10539.99935.10539,1.21578,0,2.40145-.46109,3.30482-1.31365,1.14991-1.08404,1.6957-2.66305,1.45856-4.22701l-1.0991-7.25706c1.81615,3.05828,4.0087,5.90765,6.55883,8.45967,1.91778,1.91778,3.92212,3.7151,5.99987,5.39951l-1.18943,1.19132c-1.18943,1.18755-1.67123,2.91148-1.27413,4.54507l2.57272,10.58258-9.96528-2.01752c-.69635-.14115-1.41716-.1261-2.10786.04517l-5.62911,1.38516c-2.58401.63424-4.16302,3.2446-3.52878,5.82861.63612,2.58401,3.24836,4.16679,5.83049,3.5269l4.58083-1.12733,11.34103,2.29606c.53826.10916,1.0784.16185,1.61477.16185,2.1662,0,4.25148-.87326,5.79097-2.47297,1.92154-1.9987,2.67811-4.79726,2.02317-7.49043l-2.52002-10.36615.43475-.43475c11.78143,7.2627,25.36394,11.1773,39.54682,11.22811h.01694c2.65176,0,4.80855-2.1455,4.81796-4.80103.00941-2.66117-2.13985-4.82549-4.80103-4.8349-17.65708-.06399-34.25647-6.97475-46.73989-19.46006-5.66111-5.66111-9.10143-13.176-9.68674-21.15952-.38393-5.23389,1.52632-10.36615,5.23765-14.07937l5.7458-5.7458c.00565-.00376.00941-.00753.01506-.01317l7.88565-7.88565c0-.00188.00188-.00188.00376-.00376l5.75521-5.75521c3.71134-3.71322,8.8436-5.62347,14.07937-5.23765,7.98352.58531,15.49841,4.02375,21.15952,9.68486,12.4853,12.4853,19.39607,29.08469,19.45817,46.74177.01129,2.65364,2.1662,4.79914,4.81796,4.79914h.01882c2.66117-.00941,4.81044-2.17373,4.79914-4.8349-.05081-14.181-3.96353-27.76351-11.22811-39.54494l.43663-.43663,10.36427,2.5219c2.69128.65494,5.49173-.10163,7.49043-2.02317,1.9987-1.92342,2.86255-4.69187,2.313-7.4095ZM170.04691,60.87913c2.44474-2.44662,5.65734-3.71134,8.90759-3.71134,2.30171,0,4.62223.63612,6.69998,1.9366,1.79168,1.1198,2.95477,2.96606,3.19378,5.06451.23902,2.09657-.47991,4.15738-1.97235,5.64981l-7.89318,7.89318c-1.49432,1.49056-3.55325,2.20761-5.64605,1.96859-2.09845-.23902-3.94471-1.4021-5.06639-3.19378-3.13356-5.00993-2.40334-11.42949,1.77662-15.60757Z"/>
</svg>