<?xml version="1.0" encoding="UTF-8"?>
<svg id="Layer_1" xmlns="http://www.w3.org/2000/svg" xmlns:svgjs="http://svgjs.dev/svgjs" version="1.1" viewBox="0 0 300 300">
  <!-- Generator: Adobe Illustrator 29.1.0, SVG Export Plug-In . SVG Version: 2.1.0 Build 142)  -->
  <defs>
    <style>
      .st0 {
        fill: #0051b1;
      }

      .st1 {
        fill: #fff;
      }
    </style>
  </defs>
  <path class="st0" d="M150,.2C67.2.2,0,67.4,0,150.2s67.2,150,150,150,150-67.2,150-150S232.8.2,150,.2Z"/>
  <g>
    <path class="st1" d="M94.4,129.7h75.3c2.3,0,4.2-1.9,4.2-4.2s-1.9-4.2-4.2-4.2h-75.3c-2.3,0-4.2,1.9-4.2,4.2s1.9,4.2,4.2,4.2Z"/>
    <path class="st1" d="M132,199.1h-37.7c-2.3,0-4.2,1.9-4.2,4.2s1.9,4.2,4.2,4.2h37.7c2.3,0,4.2-1.9,4.2-4.2s-1.9-4.2-4.2-4.2Z"/>
    <path class="st1" d="M205.6,141.7c-.8,0-1.6,0-2.4.1v-56.9c0-8.1-6.6-14.7-14.7-14.7h-19.9c-2.7-4.5-7.6-7.6-13.2-7.6h-.9c-2.8-8.6-10.8-14.7-20-14.7h-5c-9.2,0-17.3,6.1-20,14.7h-.8c-5.6,0-10.5,3.1-13.2,7.6h-19.9c-8.1,0-14.7,6.6-14.7,14.7v144.1c0,8.1,6.6,14.7,14.7,14.7h113c1.5,0,2.7-.8,3.4-1.9,4.4,1.2,9,1.9,13.7,1.9,28.1,0,51-22.9,51-51s-23-51-51.1-51ZM75.5,235.4c-3.5,0-6.4-2.9-6.4-6.4V84.9c0-3.5,2.9-6.4,6.4-6.4h17.7v10.6c0,2.3,1.9,4.2,4.2,4.2h69.3c2.3,0,4.2-1.9,4.2-4.2v-10.6h17.7c3.5,0,6.4,2.9,6.4,6.4v57.9c-8,1.7-15.2,5.3-21.4,10.2.2-.5.4-1.1.4-1.7,0-2.3-1.9-4.2-4.2-4.2h-75.3c-2.3,0-4.2,1.9-4.2,4.2s1.9,4.2,4.2,4.2h75.3c.5,0,.9-.1,1.3-.3-5.3,5-9.7,11-12.5,17.9h-64.1c-2.3,0-4.2,1.9-4.2,4.2s1.9,4.2,4.2,4.2h61.5c-.8,3.6-1.3,7.3-1.3,11.2,0,17.9,9.3,33.6,23.2,42.7h-102.2,0ZM231.5,196.9h-21.7v21.7c0,2.3-1.9,4.2-4.2,4.2s-4.2-1.9-4.2-4.2v-21.7h-21.7c-2.3,0-4.2-1.9-4.2-4.2s1.9-4.2,4.2-4.2h21.7v-21.7c0-2.3,1.9-4.2,4.2-4.2s4.2,1.9,4.2,4.2v21.7h21.7c2.3,0,4.2,1.9,4.2,4.2s-1.9,4.2-4.2,4.2Z"/>
  </g>
</svg>