<?xml version="1.0" encoding="UTF-8"?>
<svg id="Layer_1" xmlns="http://www.w3.org/2000/svg" xmlns:svgjs="http://svgjs.dev/svgjs" version="1.1" viewBox="0 0 300 300">
  <!-- Generator: Adobe Illustrator 29.1.0, SVG Export Plug-In . SVG Version: 2.1.0 Build 142)  -->
  <defs>
    <style>
      .st0 {
        fill: #0051b1;
      }
    </style>
  </defs>
  <path class="st0" d="M274.7,153.2v-28.4c0-14.4-11.7-26.1-26.1-26.1h-12.7c1.7-2.6,3-5.5,3.8-8.5.3,0,.5-.2.8-.2,15.9-5.2,25.7-15.9,22.7-24.8-1.5-4.5-5.9-7.5-12.3-8.6,2.8-7.1,2.3-13.2-1.4-17-3.8-3.8-9.9-4.2-17-1.4-1.1-6.4-4.2-10.8-8.6-12.3-8.9-2.9-19.6,6.9-24.8,22.7,0,.3-.2.5-.2.7-3.8,1.1-7.3,2.9-10.5,5.2-2.4-5-6.8-8.5-8.7-11.8-3-5.2-4.3-13.7-11.4-16.6-5-2-9.9,0-14.9,2.1-5,2.2-5.5,2.3-10.3,2.7-4.4.4-9.3.8-13.3,4.2-5.2,4.4-5.6,12.4-8.7,16.9-1.8,2.6-5.8,4.9-9,8.2-.8.4-1.5.7-2.3,1.2-2.4-1.4-5-2.4-7.6-2.9-.8-5.6-4-16.5-16.6-22-1.9-.8-4,0-4.8,1.9-.8,1.9,0,4,1.9,4.8,8.8,3.8,11.4,11.2,12.1,15.4-2.4.5-4.8,1.4-7,2.7-3.5-2.1-7.2-3.2-11-3.2-8.1,0-15.7,4.8-21.2,13.5-4.7,7.4-7.5,16.9-8,27.2-12.4,1.9-22.1,12.7-22.1,25.8v4.3c0,2,1.6,3.7,3.7,3.7s3.7-1.6,3.7-3.7v-4.3c0-10.2,8.3-18.6,18.4-18.8.5,0,197.4,0,197.5,0,10.4,0,18.8,8.5,18.8,18.8v28.4c0,10.4-8.5,18.8-18.8,18.8H51.5c-10.4,0-18.8-8.5-18.8-18.8v-7c0-2-1.6-3.7-3.7-3.7s-3.7,1.6-3.7,3.7v7c0,13,9.6,23.8,22,25.8v15.4c-12.5,2-22,12.8-22,25.8v28.4c0,14.4,11.7,26.1,26.1,26.1h155c2,0,3.7-1.6,3.7-3.7s-1.6-3.7-3.7-3.7H51.5c-10.4,0-18.8-8.5-18.8-18.8v-28.4c0-10.4,8.5-18.8,18.8-18.8h197.1c10.4,0,18.8,8.5,18.8,18.8v28.4c0,10.4-8.5,18.8-18.8,18.8h-25c-2,0-3.7,1.6-3.7,3.7s1.6,3.7,3.7,3.7h25c14.4,0,26.1-11.7,26.1-26.1v-28.4c0-13-9.6-23.8-22-25.8v-15.4c12.5-2,22-12.8,22-25.8ZM256.2,67.4c1.1,3.4-4.2,10.2-15.3,14.6,0-3.2-.3-6.4-1.1-9.6,2.8-2.7,5.3-5.7,7.4-9,4.7.3,8.2,1.9,8.9,4ZM244.3,44.7c2,2,1.1,7.5-2.2,13.2-1.4,2.4-3.2,4.9-5.3,7.1-3-5.4-7.5-9.9-12.9-12.9,2.3-2.1,4.7-3.9,7.1-5.3,5.7-3.3,11.2-4.2,13.2-2.2h0ZM221.6,32.8c2.1.7,3.7,4.2,4,8.9-3.3,2.2-6.3,4.7-9,7.4-3.1-.8-6.3-1.2-9.6-1.1,4.4-11.1,11.2-16.4,14.6-15.3ZM216.5,56.7h0c16,5.5,22.3,24.9,12.7,38.9l-17.9-17.9c-1.4-1.4-3.7-1.4-5.2,0s-1.4,3.7,0,5.2l15.8,15.8h-39c2.9-4.6,2.4-9.3,1.7-14.6-.8-6.1-.8-6.9,2.1-13.3,1.1-2.4,2.3-4.9,2.8-7.6,7.1-7.4,17.7-9.7,27-6.4h0ZM177.4,51.8c2.4,2.7,4.7,5.3,5,8.2.4,3.9-4.3,9.8-5.4,16.3-.5,2.9,0,5.8.3,8.6,1,7.4.8,9.4-4.3,13.7h-23.1c-.3-4.8-1-9.5-2.3-13.9l6.7-16,14.1-3.2c2-.5,3.2-2.4,2.7-4.4-.5-2-2.4-3.2-4.4-2.7l-9,2.1,10.4-24.9c.9,1.4,1.7,3.3,2.5,5.2,2.4,5.8,3.1,6.9,6.8,11h0ZM89.8,68.8c5.6-4.2,12-4.2,17.6,0,7.3,5.5,12.3,16.9,13.1,29.9h-43.8c.8-12.9,5.8-24.4,13.1-29.9ZM115.8,66.5c1.6-.6,3.2-.9,4.8-.9,8.1,0,15.8,7.9,19.6,20,1.3,4.1,2.1,8.5,2.3,13h-14.7c-.7-13-5.1-24.7-12-32.1ZM130.8,47.9c1-3,2-5.8,3.6-7.1,3.7-3.1,10.6-1.9,16.1-3.6,3.9-1.2,7.7-3.3,10.9-4.2l-10.2,24.4-4.7-8.2c-1-1.8-3.2-2.4-5-1.4-1.8,1-2.4,3.2-1.4,5l7.4,13.1-3.8,9.1c-4.6-8.9-11.3-14.7-18.9-16.3,3.2-3.2,4.4-6.4,5.9-10.9h0ZM81.5,66.6c-6.9,7.4-11.3,19.1-12,32.1h-14.7c1.3-20.2,13.3-37.3,26.7-32.1ZM54.6,179.3h190.8v14.7H54.6v-14.7Z"/>
  <path class="st0" d="M65.6,153.7c8.1,0,14.7-6.6,14.7-14.7s-6.6-14.7-14.7-14.7-14.7,6.6-14.7,14.7,6.6,14.7,14.7,14.7ZM65.6,131.7c4.1,0,7.4,3.3,7.4,7.4s-3.3,7.4-7.4,7.4-7.4-3.3-7.4-7.4,3.3-7.4,7.4-7.4Z"/>
  <path class="st0" d="M249,139c0-8.1-6.6-14.7-14.7-14.7s-14.7,6.6-14.7,14.7,6.6,14.7,14.7,14.7,14.7-6.6,14.7-14.7h0ZM227,139c0-4.1,3.3-7.4,7.4-7.4s7.4,3.3,7.4,7.4-3.3,7.4-7.4,7.4-7.4-3.3-7.4-7.4Z"/>
  <path class="st0" d="M51,234.4c0,8.1,6.6,14.7,14.7,14.7s14.7-6.6,14.7-14.7-6.6-14.7-14.7-14.7-14.7,6.6-14.7,14.7ZM73,234.4c0,4.1-3.3,7.4-7.4,7.4s-7.4-3.3-7.4-7.4,3.3-7.4,7.4-7.4,7.4,3.3,7.4,7.4Z"/>
  <path class="st0" d="M234.4,249c8.1,0,14.7-6.6,14.7-14.7s-6.6-14.7-14.7-14.7-14.7,6.6-14.7,14.7,6.6,14.7,14.7,14.7ZM234.4,227c4.1,0,7.4,3.3,7.4,7.4s-3.3,7.4-7.4,7.4-7.4-3.3-7.4-7.4,3.3-7.4,7.4-7.4Z"/>
</svg>