<?xml version="1.0" encoding="UTF-8"?>
<svg id="Layer_1" xmlns="http://www.w3.org/2000/svg" xmlns:svgjs="http://svgjs.dev/svgjs" version="1.1" viewBox="0 0 300 300">
  <!-- Generator: Adobe Illustrator 29.1.0, SVG Export Plug-In . SVG Version: 2.1.0 Build 142)  -->
  <defs>
    <style>
      .st0 {
        fill: #0051b1;
        fill-rule: evenodd;
      }
    </style>
  </defs>
  <path class="st0" d="M150,89.2c-33.6,0-60.8,27.2-60.8,60.8s27.2,60.8,60.8,60.8,60.8-27.2,60.8-60.8-27.2-60.8-60.8-60.8ZM150,108.4c-23,0-41.6,18.6-41.6,41.6s18.6,41.6,41.6,41.6,41.6-18.6,41.6-41.6-18.6-41.6-41.6-41.6Z"/>
  <path class="st0" d="M117.9,25.3c2-7.3,8.6-12.8,16.6-12.8h30c8,0,14.6,5.5,16.6,12.8h0c0,.1,5.5,23.2,5.5,23.2.2,1,1.1,2.1,2.7,2.8.7.3,1.5.6,2.2.9,1.6.7,3,.5,3.9,0l19.4-11.6c6.7-4,15.3-3.1,20.9,2.5l21.3,21.3c5.6,5.6,6.5,14.2,2.5,20.9l-11.6,19.4c-.5.8-.7,2.2,0,3.9.3.8.6,1.5.9,2.3.7,1.6,1.8,2.5,2.8,2.7l22.9,5.6c7.7,1.8,13.1,8.7,13.1,16.5v30c0,7.9-5.4,14.7-13.1,16.5l-22.9,5.6c-1,.2-2.1,1.1-2.8,2.7-.3.8-.6,1.5-.9,2.3-.7,1.6-.5,3,0,3.9l11.6,19.4c4,6.7,3.1,15.3-2.5,20.9l-21.3,21.3c-5.6,5.6-14.2,6.5-20.9,2.5l-19.4-11.6c-.8-.5-2.2-.7-3.9,0-.8.3-1.5.6-2.3.9-1.6.7-2.5,1.8-2.7,2.8l-5.5,22.1h0c-2,7.4-8.6,12.9-16.6,12.9h-30c-8,0-14.6-5.5-16.6-12.8h0c0-.1-5.5-22.2-5.5-22.2-.2-1-1.1-2.1-2.7-2.8-.8-.3-1.5-.6-2.3-.9-1.6-.7-3-.5-3.9,0l-19.4,11.6c-6.7,4-15.3,3.1-20.9-2.5l-21.3-21.3c-5.6-5.6-6.5-14.2-2.5-20.9l11.6-19.4c.5-.8.7-2.2,0-3.9-.3-.8-.7-1.6-1-2.3-.7-1.6-1.8-2.5-2.8-2.7l-21.9-5.6c-7.6-1.8-13-8.7-13-16.5v-30c0-7.8,5.4-14.7,13-16.5l21.9-5.6c1-.2,2.1-1.1,2.8-2.7.3-.8.6-1.6,1-2.3.7-1.6.5-3,0-3.9l-11.6-19.4c-4-6.7-3.1-15.3,2.5-20.9l21.3-21.3c5.6-5.6,14.2-6.5,20.9-2.5l19.4,11.6c.8.5,2.2.7,3.9,0,.7-.3,1.5-.6,2.2-.9,1.7-.7,2.5-1.8,2.7-2.8l5.5-23h0ZM131,52.9l5.1-21.2h26.8l5.1,21.2c1.9,7.8,7.6,13.5,14.3,16.1.6.2,1.2.5,1.8.8,6.5,2.8,14.5,2.8,21.2-1.2l18-10.8,18.9,18.9-10.8,18c-4.1,6.8-4,14.7-1.2,21.2.3.6.5,1.2.8,1.9,2.7,6.7,8.3,12.4,16,14.3l21.3,5.2v26.5l-21.3,5.2c-7.7,1.9-13.4,7.6-16,14.3-.2.6-.5,1.2-.8,1.9-2.8,6.5-2.8,14.5,1.2,21.2l10.8,18-18.9,18.9-18-10.8c-6.8-4-14.7-4-21.2-1.2-.6.3-1.2.5-1.9.8-6.6,2.6-12.3,8.3-14.2,16l-5.1,20.4h-26.8l-5.1-20.4c-1.9-7.7-7.6-13.3-14.2-16-.6-.2-1.3-.5-1.9-.8-6.5-2.8-14.5-2.8-21.2,1.2l-18,10.8-18.9-18.9,10.8-18c4.1-6.8,4-14.7,1.2-21.2-.3-.6-.5-1.3-.8-1.9-2.6-6.6-8.2-12.3-15.9-14.2l-20.5-5.2v-26.6l20.5-5.2c7.6-1.9,13.2-7.6,15.9-14.2.3-.6.5-1.3.8-1.9,2.8-6.5,2.8-14.5-1.2-21.2l-10.8-18,18.9-18.9,18,10.8c6.8,4.1,14.7,4,21.2,1.2.6-.3,1.2-.5,1.8-.8,6.7-2.7,12.4-8.4,14.3-16.1Z"/>
</svg>