<?xml version="1.0" encoding="UTF-8"?>
<svg id="Layer_1" xmlns="http://www.w3.org/2000/svg" xmlns:svgjs="http://svgjs.dev/svgjs" version="1.1" viewBox="0 0 300 300">
  <!-- Generator: Adobe Illustrator 29.1.0, SVG Export Plug-In . SVG Version: 2.1.0 Build 142)  -->
  <defs>
    <style>
      .st0 {
        fill: #0051b1;
      }

      .st1 {
        fill: none;
        stroke: #0051b1;
        stroke-miterlimit: 10;
        stroke-width: 7px;
      }
    </style>
  </defs>
  <path class="st1" d="M82,149.5c0,12-9.7,21.7-21.7,21.7s-21.7-9.7-21.7-21.7,9.7-21.7,21.7-21.7,21.7,9.7,21.7,21.7Z"/>
  <path class="st1" d="M254.7,76.8c0,12-9.7,21.7-21.7,21.7s-21.7-9.7-21.7-21.7,9.7-21.7,21.7-21.7,21.7,9.7,21.7,21.7Z"/>
  <path class="st1" d="M255.8,227.5c0,12-9.7,21.7-21.7,21.7s-21.7-9.7-21.7-21.7,9.7-21.7,21.7-21.7,21.7,9.7,21.7,21.7Z"/>
  <path class="st0" d="M99.8,194.8c-26.8,0-49.4,17.3-57.9,24.7-.4.3-.7.7-1,1-3.9,4.4-3.4,11.2,1,15.1,8.5,7.4,31.1,24.7,57.9,24.7,26.5,0,48.6-16.6,57.6-24.4,5.7,5,19.6,17.3,19.6,17.3,1.1,1,2.6,1.5,4.1,1.5,3.4,0,6.2-2.8,6.2-6.2v-39.1c0-1.3-.4-2.6-1.2-3.6-2-2.8-5.9-3.3-8.7-1.3l-19.6,15c-8.8-7.7-31.1-24.7-57.9-24.7h0ZM167,227.9l7.9-6v13s-7.9-7-7.9-7ZM148.1,227.5c-30.8,26.8-66,26.7-96.6,0,30.6-26.7,66-26.8,96.6,0h0ZM174.3,117.4c-26.8,0-49.4,17.3-57.9,24.7-.4.3-.7.7-1,1-3.9,4.4-3.4,11.2,1,15.1,8.5,7.4,31.1,24.7,57.9,24.7s48.6-16.6,57.6-24.4c5.7,5,19.6,17.3,19.6,17.3,1.1,1,2.6,1.5,4.1,1.5,3.4,0,6.2-2.8,6.2-6.2v-39.1c0-1.3-.4-2.6-1.2-3.6-2-2.8-5.9-3.3-8.7-1.3l-19.6,15c-8.8-7.7-31.1-24.7-57.9-24.7h0ZM241.5,150.5l7.9-6v13s-7.9-7-7.9-7ZM222.6,150.1c-30.8,26.8-66,26.7-96.6,0,30.6-26.7,66-26.8,96.6,0h0ZM187.2,93.4v-39.1c0-1.3-.4-2.6-1.2-3.6-2-2.8-5.9-3.3-8.7-1.3l-19.6,15c-8.8-7.7-31.1-24.7-57.9-24.7-26.8,0-49.4,17.3-57.9,24.7-.4.3-.7.6-1,1-3.9,4.4-3.4,11.2,1,15.1,8.5,7.4,31.1,24.7,57.9,24.7s48.6-16.6,57.6-24.4c5.7,5,19.6,17.3,19.6,17.3,1.1,1,2.6,1.5,4.1,1.5,3.4,0,6.1-2.8,6.2-6.2ZM148.1,72.5c-30.8,26.8-66,26.7-96.6,0,30.6-26.7,66-26.8,96.6,0ZM174.9,79.8l-7.9-6.9,7.9-6v13Z"/>
</svg>