<?xml version="1.0" encoding="UTF-8"?>
<svg id="Layer_1" xmlns="http://www.w3.org/2000/svg" xmlns:svgjs="http://svgjs.dev/svgjs" version="1.1" viewBox="0 0 300 300">
  <!-- Generator: Adobe Illustrator 29.1.0, SVG Export Plug-In . SVG Version: 2.1.0 Build 142)  -->
  <defs>
    <style>
      .st0 {
        fill: #0051b1;
      }
    </style>
  </defs>
  <path class="st0" d="M26.7,63.7v85.8h-9.9c-2.7,0-4.8,2.2-4.9,4.9,0,2.7,2.1,5,4.9,5.1h9.9v74.3c0,12.3,10,22.3,22.3,22.3h196.3c12.3,0,22.3-10,22.3-22.3v-63.9h9.2c2.7,0,4.9-2.2,4.9-4.9,0-2.7-2.2-5-4.9-5h-9.2v-65.3h9.2c2.7,0,4.9-2.2,4.9-4.9,0-2.7-2.2-5-4.9-5h-9.2v-24.9c.4-.3.9-.5,1.3-.8,4.9-3.4,10.8-5.2,16.8-5.1,2.7,0,4.9-2.2,4.9-4.9,0-2.7-2.2-5-4.9-5-6.3-.2-12.6,1.3-18.1,4.3l-9.9,5.3c-9.2,3.3-19.3,2.1-27.5-3.2-13.4-8.5-30.4-8.5-43.8,0-4.9,3.4-10.8,5.2-16.8,5.1-18.3-.4-18.5-11.8-38.7-11.5-20.2-.3-20.4,11.2-38.8,11.5-18.4-.4-18.6-11.8-38.8-11.5-8.4-.2-16.6,2.4-23.3,7.4-.2,0-.4.2-.6.3-4.6,2.5-9.7,3.9-14.9,3.8-2.7,0-4.8,2.2-4.9,4.9,0,2.7,2.1,5,4.9,5,4.2.1,8.3-.4,12.3-1.7ZM36.6,58.7c5-3.1,10.7-4.8,16.6-4.8,18.4.4,18.6,11.8,38.8,11.5,20.2.3,20.4-11.2,38.8-11.5,18.3.4,18.5,11.8,38.7,11.5,7.8.2,15.4-2.1,21.9-6.5,10.2-6.7,23.4-6.7,33.7,0,9.7,6.2,21.5,8,32.6,5v20.7h-9.2c-2.7,0-4.8,2.2-4.9,4.9,0,2.7,2.1,5,4.9,5.1h9.2v65.3h-9.2c-2.7,0-4.8,2.2-4.9,4.9,0,2.7,2.1,5,4.9,5.1h9.2v63.9c0,6.8-5.5,12.4-12.4,12.4H48.9c-6.8,0-12.4-5.5-12.4-12.4v-74.3h8.6s0,0,0,0c2.7,0,4.9-2.2,4.9-5,0-2.7-2.2-4.9-5-4.9h-8.6V58.7Z"/>
  <path class="st0" d="M108.2,170.8c-21.5,0-39.7,13.9-46.5,19.9-.3.3-.6.5-.8.8-3.1,3.6-2.7,9,.8,12.1,6.8,6,24.9,19.9,46.5,19.9,21.3,0,39-13.3,46.2-19.6,4.6,4,15.7,13.9,15.7,13.9.9.8,2.1,1.2,3.3,1.2,2.7,0,5-2.2,5-5v-31.4c0-1-.4-2.1-1-2.9-1.6-2.2-4.8-2.7-7-1l-15.8,12c-7.1-6.2-25-19.8-46.5-19.8h0ZM162.1,197.4l6.3-4.8v10.4s-6.3-5.6-6.3-5.6ZM147,197.1c-24.7,21.5-53,21.4-77.6,0,24.6-21.5,53-21.5,77.6,0h0Z"/>
  <path class="st0" d="M230,130.8v-31.4c0-1-.4-2.1-1-2.9-1.6-2.2-4.8-2.7-7-1l-15.8,12c-7.1-6.2-25-19.8-46.5-19.8-21.5,0-39.7,13.9-46.5,19.9-.3.2-.5.5-.8.8-3.1,3.6-2.8,9,.8,12.1,6.8,6,25,19.9,46.5,19.9,21.3,0,39-13.3,46.2-19.6,4.6,4,15.7,13.9,15.7,13.9.9.8,2.1,1.2,3.3,1.2,2.7,0,4.9-2.2,5-5ZM198.6,114c-24.7,21.5-53,21.4-77.6,0,24.6-21.5,53-21.5,77.6,0ZM220.1,119.8l-6.3-5.6,6.3-4.8v10.4Z"/>
  <path class="st0" d="M54.7,96c-2.7,0-4.8,2.2-4.9,4.9,0,2.7,2.1,5,4.9,5.1h23.1c2.7,0,4.8-2.2,4.9-4.9,0-2.7-2.1-5-4.9-5h-23.1Z"/>
  <path class="st0" d="M49.8,123.9c0,2.7,2.1,5,4.9,5.1h23.1c2.7,0,4.8-2.2,4.8-4.8,0-2.7-2.1-5-4.8-5.1h-23.1c-2.7,0-4.8,2.2-4.9,4.9Z"/>
  <path class="st0" d="M211.5,193.2c0,2.7,2.1,5,4.9,5.1h23.1c2.6,0,4.8-2.2,4.8-4.8,0-2.7-2.1-5-4.8-5.1h-23.1c-2.7,0-4.8,2.2-4.9,4.9Z"/>
  <path class="st0" d="M211.5,216.3c0,2.7,2.1,5,4.9,5.1h23.1c2.7,0,4.9-2.2,4.9-4.9,0-2.7-2.2-5-4.9-5h-23.1c-2.7,0-4.8,2.2-4.9,4.9Z"/>
</svg>