<?xml version="1.0" encoding="UTF-8"?>
<svg id="Layer_1" data-name="Layer 1" xmlns="http://www.w3.org/2000/svg" viewBox="0 0 300 300">
  <defs>
    <style>
      .cls-1 {
        fill: #0051b1;
      }
    </style>
  </defs>
  <path class="cls-1" d="M229.12878,163.97892c-24.03696,0-45.00539,13.12657-56.31355,32.50389l-41.88-21.25254c3.29585-7.78503,5.11425-16.30877,5.11425-25.23028,0-8.8647-1.76158-17.27479-5.0006-24.94616l41.36859-22.27539c11.19453,19.83192,32.44706,33.24261,56.76814,33.24261,35.9702,0,65.17823-29.26486,65.17823-65.17824S265.04216,5.66456,229.12878,5.66456s-65.17825,29.26486-65.17825,65.17824c0,8.29645,1.59109,16.19512,4.43234,23.46872l-41.59588,22.38904c-11.36499-19.09319-32.16293-31.93563-55.9726-31.93563-35.91338.05683-65.17824,29.26486-65.17824,65.23507s29.26486,65.17825,65.17824,65.17825c23.69601,0,44.3803-12.72879,55.80212-31.65152l42.05048,21.30936c-3.01172,7.5009-4.77329,15.74052-4.77329,24.32108,0,35.9702,29.26486,65.17825,65.17823,65.17825s65.23506-29.26486,65.23506-65.17825-29.26486-65.17825-65.17825-65.17825l.00003-.00002ZM192.19255,112.66596c2.32983-18.4113,18.12716-32.50388,36.93623-32.50388s34.54958,14.0926,36.93623,32.50388c-9.83071,8.69422-22.72999,14.03577-36.93623,14.03577-14.14941,0-27.04869-5.28472-36.93623-14.03577ZM210.4902,52.20419c0-10.28532,8.35328-18.63859,18.63858-18.63859s18.63858,8.35327,18.63858,18.63859-8.35328,18.63859-18.63858,18.63859-18.63858-8.35327-18.63858-18.63859ZM229.12878,14.98383c30.79914,0,55.85894,25.05981,55.85894,55.85895,0,12.55832-4.20504,24.09379-11.25134,33.46991-4.03458-13.75164-14.26307-24.88934-27.38964-30.11724,6.53487-5.11425,10.68309-13.06974,10.68309-21.93444,0-15.39957-12.55832-27.95789-27.95789-27.95789s-27.95789,12.55832-27.95789,27.95789c0,8.92152,4.20504,16.82019,10.68309,21.93444-13.12657,5.28472-23.35507,16.36559-27.38964,30.11724-6.98946-9.31929-11.25134-20.91159-11.25134-33.46991.11366-30.79914,25.17346-55.85895,55.9726-55.85895h.00003ZM70.8144,94.14103c30.79913,0,55.85895,25.05982,55.85895,55.85894,0,12.55832-4.20504,24.09379-11.25135,33.46991-4.03458-13.75165-14.26307-24.88933-27.38964-30.11724,6.53487-5.11425,10.6831-13.06974,10.6831-21.93444,0-15.39957-12.55832-27.95789-27.95789-27.95789s-27.95789,12.55832-27.95789,27.95789c0,8.92152,4.20505,16.8202,10.6831,21.93444-13.12657,5.28472-23.35506,16.36559-27.38964,30.11724-6.98947-9.31929-11.25134-20.91158-11.25134-33.46991.11365-30.79913,25.17346-55.85895,55.9726-55.85895h0ZM52.17581,131.36139c0-10.28532,8.35327-18.63859,18.63859-18.63859s18.63859,8.35327,18.63859,18.63859-8.35327,18.63858-18.63859,18.63858-18.63859-8.35327-18.63859-18.63859h0ZM33.935,191.82315c2.32982-18.41129,18.12717-32.50389,36.93623-32.50389s34.54958,14.09259,36.93624,32.50389c-9.83072,8.69421-22.72999,14.03578-36.93623,14.03578s-27.10551-5.34154-36.93624-14.03578ZM192.19255,270.98035c2.32983-18.41129,18.12716-32.50389,36.93623-32.50389s34.54958,14.09259,36.93623,32.50389c-9.83071,8.69421-22.72999,14.03578-36.93623,14.03578-14.14941,0-27.04869-5.34154-36.93623-14.03578ZM210.4902,210.51858c0-10.28532,8.35328-18.63858,18.63858-18.63858s18.63858,8.35328,18.63858,18.63858-8.35328,18.63858-18.63858,18.63858-18.63858-8.35328-18.63858-18.63858ZM273.79322,262.62707c-4.03458-13.75165-14.26307-24.88933-27.38964-30.11724,6.53487-5.11425,10.68309-13.06974,10.68309-21.93444,0-15.39957-12.55832-27.95789-27.95789-27.95789s-27.95789,12.55832-27.95789,27.95789c0,8.92153,4.20504,16.8202,10.68309,21.93444-13.12657,5.28472-23.35507,16.36559-27.38964,30.11724-6.98946-9.31929-11.25134-20.91158-11.25134-33.46991,0-30.79914,25.05982-55.85896,55.85896-55.85896s55.85894,25.05982,55.85894,55.85894c.05683,12.55832-4.14822,24.09379-11.1377,33.46991l.00003.00002Z"/>
</svg>