<svg height="300" viewBox="0 -27 512.0005 512" width="300" xmlns="http://www.w3.org/2000/svg" version="1.1" xmlns:xlink="http://www.w3.org/1999/xlink" xmlns:svgjs="http://svgjs.dev/svgjs"><g width="100%" height="100%" transform="matrix(1,0,0,1,0,0)"><path d="m497 295h-180c-4.996094 0-9.667969-2.488281-12.453125-6.640625-2.785156-4.148437-3.324219-9.414063-1.429687-14.039063l90-220c2.304687-5.636718 7.792968-9.320312 13.882812-9.320312s11.578125 3.683594 13.882812 9.320312l90 220c1.894532 4.625 1.355469 9.890626-1.429687 14.039063-2.785156 4.152344-7.453125 6.640625-12.453125 6.640625zm-157.65625-30h135.3125l-67.65625-165.382812zm0 0" fill="#c8d4df" fill-opacity="1" data-original-color="#c8d4dfff" stroke="none" stroke-opacity="1"/><path d="m195 295h-180c-4.996094 0-9.667969-2.488281-12.453125-6.640625-2.785156-4.148437-3.324219-9.414063-1.429687-14.039063l90-220c2.304687-5.636718 7.792968-9.320312 13.882812-9.320312s11.578125 3.683594 13.882812 9.320312l90 220c1.894532 4.625 1.355469 9.890626-1.429687 14.039063-2.785156 4.152344-7.453125 6.640625-12.453125 6.640625zm-157.65625-30h135.3125l-67.65625-165.382812zm0 0" fill="#d9e7f3" fill-opacity="1" data-original-color="#d9e7f3ff" stroke="none" stroke-opacity="1"/><path d="m326 427h-55v-322c0-8.285156-6.714844-15-15-15s-15 6.714844-15 15v322h-55c-8.285156 0-15 6.714844-15 15s6.714844 15 15 15h140c8.285156 0 15-6.714844 15-15s-6.714844-15-15-15zm0 0" fill="#0051b1" fill-opacity="1" data-original-color="#2d2d55ff" stroke="none" stroke-opacity="1"/><path d="m326 457c8.285156 0 15-6.714844 15-15s-6.714844-15-15-15h-55v-322c0-8.285156-6.714844-15-15-15v367zm0 0" fill="#0051b1" fill-opacity="1" data-original-color="#0a0a48ff" stroke="none" stroke-opacity="1"/><path d="m407 75h-106c-8.285156 0-15-6.714844-15-15s6.714844-15 15-15h106c8.285156 0 15 6.714844 15 15s-6.714844 15-15 15zm0 0" fill="#c8d4df" fill-opacity="1" data-original-color="#c8d4dfff" stroke="none" stroke-opacity="1"/><path d="m211 75h-106c-8.285156 0-15-6.714844-15-15s6.714844-15 15-15h106c8.285156 0 15 6.714844 15 15s-6.714844 15-15 15zm0 0" fill="#d9e7f3" fill-opacity="1" data-original-color="#d9e7f3ff" stroke="none" stroke-opacity="1"/><g fill="#ffc300"><path d="m407 375c-57.898438 0-105-42.617188-105-95 0-8.285156 6.714844-15 15-15h180c8.285156 0 15 6.714844 15 15 0 52.382812-47.101562 95-105 95zm0 0" fill="#80fb7b" fill-opacity="1" data-original-color="#ffc300ff" stroke="none" stroke-opacity="1"/><path d="m105 375c-57.898438 0-105-42.617188-105-95 0-8.285156 6.714844-15 15-15h180c8.285156 0 15 6.714844 15 15 0 52.382812-47.101562 95-105 95zm0 0" fill="#80fb7b" fill-opacity="1" data-original-color="#ffc300ff" stroke="none" stroke-opacity="1"/><path d="m256 120c-33.082031 0-60-26.914062-60-60 0-33.082031 26.917969-60 60-60 33.085938 0 60 26.917969 60 60 0 33.085938-26.914062 60-60 60zm0 0" fill="#80fb7b" fill-opacity="1" data-original-color="#ffc300ff" stroke="none" stroke-opacity="1"/></g><path d="m256 0v120c33.085938 0 60-26.914062 60-60 0-33.082031-26.914062-60-60-60zm0 0" fill="#80fb7b" fill-opacity="1" data-original-color="#fab400ff" stroke="none" stroke-opacity="1"/><path d="m497 265h-90v110c57.898438 0 105-42.617188 105-95 0-8.285156-6.714844-15-15-15zm0 0" fill="#80fb7b" fill-opacity="1" data-original-color="#fab400ff" stroke="none" stroke-opacity="1"/><path d="m195 265h-90v110c57.898438 0 105-42.617188 105-95 0-8.285156-6.714844-15-15-15zm0 0" fill="#80fb7b" fill-opacity="1" data-original-color="#fab400ff" stroke="none" stroke-opacity="1"/></g></svg>