<svg id="Nanny" enable-background="new 0 0 139 139" height="300" viewBox="0 0 139 139" width="300" xmlns="http://www.w3.org/2000/svg" version="1.1" xmlns:xlink="http://www.w3.org/1999/xlink" xmlns:svgjs="http://svgjs.dev/svgjs"><g width="100%" height="100%" transform="matrix(1,0,0,1,0,0)"><path d="m69.5 130.334c-33.544 0-60.834-27.29-60.834-60.834s27.29-60.834 60.834-60.834 60.834 27.29 60.834 60.834-27.29 60.834-60.834 60.834zm0-115.668c-30.235 0-54.834 24.599-54.834 54.834s24.599 54.834 54.834 54.834 54.834-24.599 54.834-54.834-24.599-54.834-54.834-54.834z" fill="#0051b1" fill-opacity="1" data-original-color="#000000ff" stroke="none" stroke-opacity="1"/><path d="m85.775 49.992c-.941-4.668-3.851-8.723-8.024-11.107v-1.216c0-4.55-3.701-8.251-8.251-8.251s-8.251 3.701-8.251 8.251v1.216c-4.175 2.385-7.084 6.439-8.026 11.108-3.049 1.075-5.244 3.978-5.244 7.39v.645c0 2.697 1.37 5.081 3.45 6.492-.673 1.194-1.062 2.569-1.062 4.035v31.943c0 4.55 3.701 8.251 8.25 8.251h21.763c4.549 0 8.25-3.701 8.25-8.251v-31.944c0-1.466-.389-2.841-1.062-4.035 2.081-1.412 3.451-3.795 3.451-6.493v-.645c.002-3.412-2.194-6.314-5.244-7.389zm-31.796 7.39c0-.406.137-.779.36-1.084h30.32c.224.305.36.678.36 1.084v.645c0 1.015-.827 1.841-1.843 1.841h-27.354c-1.016 0-1.843-.826-1.843-1.841zm11.429-13.871 1.841-.771v-5.072c0-1.241 1.01-2.251 2.251-2.251s2.251 1.01 2.251 2.251v5.072l1.841.771c2.744 1.15 4.804 3.357 5.814 6.029h-19.813c1.011-2.672 3.07-4.878 5.815-6.029zm17.223 56.986c0 1.241-1.01 2.251-2.25 2.251h-21.763c-1.241 0-2.25-1.01-2.25-2.251v-6.582h7.465v-6h-7.465v-7.651h7.465v-6h-7.465v-5.71c0-1.241 1.009-2.25 2.25-2.25h21.763c1.24 0 2.25 1.009 2.25 2.25z" fill="#0051b1" fill-opacity="1" data-original-color="#000000ff" stroke="none" stroke-opacity="1"/></g></svg>