<svg xmlns="http://www.w3.org/2000/svg" viewBox="0 0 24 24" width="300" height="300" version="1.1" xmlns:xlink="http://www.w3.org/1999/xlink" xmlns:svgjs="http://svgjs.dev/svgjs"><g width="100%" height="100%" transform="matrix(1,0,0,1,0,0)"><title/><g data-name="Layer 3" id="Layer_3"><path d="M12,1A11,11,0,1,1,1,12,11.0125,11.0125,0,0,1,12,1m0-1A12,12,0,1,0,24,12,12,12,0,0,0,12,0Z" fill="#0051b1" fill-opacity="1" data-original-color="#000000ff" stroke="none" stroke-opacity="1"/></g><g data-name="Layer 4" id="Layer_4"><path d="M16,19.5H8A2.5026,2.5026,0,0,1,5.5,17V7A2.5026,2.5026,0,0,1,8,4.5h7a.4993.4993,0,0,1,.3535.1465l3,3A.4993.4993,0,0,1,18.5,8v9A2.5026,2.5026,0,0,1,16,19.5ZM8,5.5A1.5017,1.5017,0,0,0,6.5,7V17A1.5017,1.5017,0,0,0,8,18.5h8A1.5017,1.5017,0,0,0,17.5,17V8.207L14.793,5.5Z" fill="#0051b1" fill-opacity="1" data-original-color="#000000ff" stroke="none" stroke-opacity="1"/><path d="M18,8.5H16A1.5017,1.5017,0,0,1,14.5,7V5a.5.5,0,0,1,.8535-.3535l3,3A.5.5,0,0,1,18,8.5ZM15.5,6.207V7a.5006.5006,0,0,0,.5.5h.793Z" fill="#0051b1" fill-opacity="1" data-original-color="#000000ff" stroke="none" stroke-opacity="1"/><path d="M12,16A4,4,0,0,1,9.1719,9.1714a4.0959,4.0959,0,0,1,5.6562,0,4.0049,4.0049,0,0,1,0,5.6572h0A3.9723,3.9723,0,0,1,12,16Zm0-7a3,3,0,0,0-2.1211,5.1216,3.0726,3.0726,0,0,0,4.2422,0h0A3,3,0,0,0,12,9Z" fill="#0051b1" fill-opacity="1" data-original-color="#000000ff" stroke="none" stroke-opacity="1"/><path d="M13.4141,12.5H10.5859a.5.5,0,0,1,0-1h2.8282a.5.5,0,0,1,0,1Z" fill="#0051b1" fill-opacity="1" data-original-color="#000000ff" stroke="none" stroke-opacity="1"/><path d="M12,13.9141a.5.5,0,0,1-.5-.5V10.5859a.5.5,0,0,1,1,0v2.8282A.5.5,0,0,1,12,13.9141Z" fill="#0051b1" fill-opacity="1" data-original-color="#000000ff" stroke="none" stroke-opacity="1"/></g></g></svg>