<svg viewBox="0 0 512 512" xmlns="http://www.w3.org/2000/svg" width="300" height="300" version="1.1" xmlns:xlink="http://www.w3.org/1999/xlink" xmlns:svgjs="http://svgjs.dev/svgjs"><g width="100%" height="100%" transform="matrix(1,0,0,1,0,0)"><g id="Layer_2" data-name="Layer 2"><g id="Layer_1_copy_6" data-name="Layer 1 copy 6"><g id="_3" data-name="3"><path d="m141.82 0h228.35a141.83 141.83 0 0 1 141.83 141.83v228.35a141.82 141.82 0 0 1 -141.82 141.82h-228.36a141.82 141.82 0 0 1 -141.82-141.82v-228.36a141.82 141.82 0 0 1 141.82-141.82z" fill="#0051b1" fill-opacity="1" data-original-color="#0063ffff" stroke="none" stroke-opacity="1"/><g id="background"><rect fill="#ffffff" height="432" rx="101.82" width="432" x="40" y="40" fill-opacity="1" data-original-color="#ffffffff" stroke="none" stroke-opacity="1"/></g><g fill="#ff4b05"><path d="m393.82 153.68h-71.36v-42.68a21 21 0 0 0 -20.95-21h-91a21 21 0 0 0 -21 21v42.73h-71.33a20.95 20.95 0 1 0 0 41.89h11.14v179.03a47.4 47.4 0 0 0 47.35 47.35h158.66a47.4 47.4 0 0 0 47.35-47.35v-179.08h11.14a20.95 20.95 0 1 0 0-41.89zm-162.39-21.79h49.14v21.79h-49.14zm109.36 242.76a5.47 5.47 0 0 1 -5.46 5.46h-158.66a5.47 5.47 0 0 1 -5.46-5.46v-179.08h169.58z" fill="#ff4b05" fill-opacity="1" data-original-color="#ff4b05ff" stroke="none" stroke-opacity="1"/><path d="m220.59 358.24a20.94 20.94 0 0 0 20.94-20.95v-102.18a20.95 20.95 0 1 0 -41.89 0v102.18a21 21 0 0 0 20.95 20.95z" fill="#ff4b05" fill-opacity="1" data-original-color="#ff4b05ff" stroke="none" stroke-opacity="1"/><path d="m291.41 358.24a21 21 0 0 0 20.95-20.95v-102.18a20.95 20.95 0 1 0 -41.89 0v102.18a20.94 20.94 0 0 0 20.94 20.95z" fill="#ff4b05" fill-opacity="1" data-original-color="#ff4b05ff" stroke="none" stroke-opacity="1"/></g></g></g></g></g></svg>