<svg id="Layer_1" height="300" viewBox="0 0 512 512" width="300" xmlns="http://www.w3.org/2000/svg" data-name="Layer 1" version="1.1" xmlns:xlink="http://www.w3.org/1999/xlink" xmlns:svgjs="http://svgjs.dev/svgjs"><g width="100%" height="100%" transform="matrix(1,0,0,1,0,0)"><path d="m256 0c-141.159 0-256 114.841-256 256s114.841 256 256 256 256-114.841 256-256-114.841-256-256-256zm0 492c-130.131 0-236-105.869-236-236s105.869-236 236-236 236 105.869 236 236-105.869 236-236 236zm89.626-380.57a10 10 0 0 0 -14.143 0l-145.083 145.082c-.088.089-.165.185-.25.277s-.184.158-.271.245l-46.2 46.2a10 10 0 0 0 -2.913 6.513l-3.253 58.2a10 10 0 0 0 9.987 10.553c.187 0 .373 0 .559-.015l58.2-3.253a10 10 0 0 0 6.514-2.914l46.2-46.2c.177-.177.339-.365.5-.553.183-.159.367-.316.542-.49l144.56-144.561a10 10 0 0 0 0-14.141zm-148.3 244.047-43.219 2.415 2.416-43.219 36.427-36.426 40.8 40.8zm50.569-50.57-40.8-40.8 131.46-131.464 40.8 40.8z" fill="#0051b1" fill-opacity="1" data-original-color="#000000ff" stroke="none" stroke-opacity="1"/></g></svg>