<svg xmlns="http://www.w3.org/2000/svg" viewBox="0 0 64 64" width="300" height="300" version="1.1" xmlns:xlink="http://www.w3.org/1999/xlink" xmlns:svgjs="http://svgjs.dev/svgjs"><g width="100%" height="100%" transform="matrix(1,0,0,1,0,0)"><g id="Layer_5" data-name="Layer 5"><path d="M53.38,38.21a3.08,3.08,0,0,0-1.69-1.69,3,3,0,0,0-2.35,0h0a9.83,9.83,0,0,0-13.43-7.77V27.33A11.72,11.72,0,0,0,47.1,15.71a.6.6,0,0,0-.6-.6,11.84,11.84,0,0,0-10.61,6.56v-3a6.51,6.51,0,0,0,2.51-5,6.59,6.59,0,0,0-2.75-5.2.63.63,0,0,0-.74,0,6.58,6.58,0,0,0-2.74,5.2,6.53,6.53,0,0,0,2.52,5v1.65a9.48,9.48,0,0,0-8.24-4.78.6.6,0,0,0-.6.6,9.37,9.37,0,0,0,8.84,9.28V29.2A9.84,9.84,0,0,0,18.76,33h-.3V30.33a.6.6,0,0,0-.6-.6H13a.6.6,0,0,0-.6.6v17.5a.6.6,0,0,0,.6.6h4.86a.6.6,0,0,0,.6-.6V46.08h1.83a16.74,16.74,0,0,1,4.19,1.07l5.95,1.77a6,6,0,0,0,2.79.68,5.94,5.94,0,0,0,2.7-.65l16-6.84A3.09,3.09,0,0,0,53.38,38.21ZM45.87,16.34a10.54,10.54,0,0,1-10,9.79A10.54,10.54,0,0,1,45.87,16.34Zm-12.5-2.61a5.29,5.29,0,0,1,1.91-3.94,5.26,5.26,0,0,1,1.92,3.94,5.26,5.26,0,0,1-1.92,3.93A5.28,5.28,0,0,1,33.37,13.73Zm-6.29,3.1a8.18,8.18,0,0,1,7.57,7.44A8.18,8.18,0,0,1,27.08,16.83ZM28,27.76a8.56,8.56,0,0,1,6.25,2.68,8.47,8.47,0,0,1,1.91,3,.6.6,0,1,0,1.12-.42,9.49,9.49,0,0,0-1.65-2.86,8.56,8.56,0,0,1,3.91-1,8.7,8.7,0,0,1,8.62,7.7l-8.11,2.85a3.29,3.29,0,0,0,.09-.71,3,3,0,0,0-2.94-2.95H32.06a1.77,1.77,0,0,1-.82-.2l-4.93-2.61A2.87,2.87,0,0,0,24.94,33H20.07A8.63,8.63,0,0,1,28,27.76ZM17.26,47.23H13.6V30.93h3.66ZM51.42,41l-16,6.84c-1.4.73-4.54-.06-4.58-.07L24.88,46a9.81,9.81,0,0,0-4.59-1.14H18.46V34.18h6.48a1.76,1.76,0,0,1,.81.2L30.68,37a3,3,0,0,0,1.38.34H37.2a1.74,1.74,0,0,1,1.74,1.75,1.71,1.71,0,0,1-.6,1.31l-1.24.44H29.27a.6.6,0,1,0,0,1.2H37.2c.64,0,12.58-4.39,12.58-4.39a1.88,1.88,0,0,1,2.48,1A1.86,1.86,0,0,1,51.42,41Z" fill="#0051b1" fill-opacity="1" data-original-color="#000000ff" stroke="none" stroke-opacity="1"/><path d="M50,60.6H14A10.62,10.62,0,0,1,3.4,50V14A10.62,10.62,0,0,1,14,3.4H50A10.62,10.62,0,0,1,60.6,14V50A10.62,10.62,0,0,1,50,60.6ZM14,4.6A9.41,9.41,0,0,0,4.6,14V50A9.41,9.41,0,0,0,14,59.4H50A9.41,9.41,0,0,0,59.4,50V14A9.41,9.41,0,0,0,50,4.6Z" fill="#0051b1" fill-opacity="1" data-original-color="#000000ff" stroke="none" stroke-opacity="1"/></g></g></svg>