<svg id="Ecology_Semi_Solid" enable-background="new 0 0 128 128" viewBox="0 0 128 128" xmlns="http://www.w3.org/2000/svg" width="300" height="300" version="1.1" xmlns:xlink="http://www.w3.org/1999/xlink" xmlns:svgjs="http://svgjs.dev/svgjs"><g width="100%" height="100%" transform="matrix(1,0,0,1,0,0)"><g><path d="m105.08 24.88c-.93.02-11.28.33-17.47 4.88-7.39 5.45-7.45 11.44-5.04 15.24.02.03.06.05.08.08-1.28 1.96-2.56 4.17-3.79 6.64-.73-.63-1.49-1.31-2.15-1.93 1.49-3.07 1.05-7.5-4.42-11.53-4.91-3.6-13.07-3.86-13.85-3.88-.59-.01-1.06.42-1.07.99 0 .19.05.36.14.51.05.25.13.84.21 1.37.4 2.82 1.22 8.7 3.57 12.29 1.95 2.96 4.29 4.73 6.79 5.11.34.06.7.08 1.04.08 1.45 0 2.9-.46 4.27-1.35.84 1.44 2.01 3.31 2.79 4.5-1.17 3.04-2.16 6.29-2.97 9.65-1.13.04-2.27.21-3.38.53l-.16.05c-.18-.21-.37-.41-.6-.58-1.45-1.13-3.58-1.47-6.49-1.03-1.35.2-2.63.75-3.7 1.59l-17.02 13.4h-5.13v-2.74c0-1.1-.9-2-2-2h-10.88c-1.1 0-2 .9-2 2v22.37c0 1.1.9 2 2 2h10.88c1.1 0 2-.9 2-2v-3.79l5.69 1.38c.08.02.16.03.24.03h31.53c.05 0 .1 0 .15-.01 4.05-.63 17.29-2.89 19.35-5.72l9.02-9.58c2.09-2.23 2.31-5.6.5-7.83-1.26-1.55-3.77-2.98-8.58-.95-.73.3-1.36.61-1.92.93-.25-.63-.53-1.2-.84-1.69-1.65-2.72-5.05-3.7-7.95-2.38l-2.31-1.57c-.23-.16-.47-.29-.71-.43-.44-7.51 2.04-14.95 5.1-21.09 1.76 1.19 3.62 1.8 5.47 1.8.43 0 .87-.03 1.3-.1 3.09-.47 6.01-2.68 8.44-6.38 2.95-4.51 4-11.95 4.5-15.53.1-.73.21-1.49.28-1.79.1-.16.16-.35.16-.55-.01-.57-.53-1-1.07-.99zm-29.91 23.44c-.35-.34-.69-.67-1.05-1.01-2.19-2.12-4.46-4.32-6.91-6.25-.22-.19-.45-.37-.68-.55-.43-.35-1.06-.27-1.4.16-.34.44-.27 1.07.17 1.41.21.16.42.33.62.5 2.73 2.35 4.66 5.73 6.49 9.06-1.32.88-2.7 1.24-4.03 1.03-1.92-.29-3.79-1.75-5.42-4.23-2.1-3.21-2.88-8.79-3.26-11.47-.03-.19-.05-.36-.08-.52 2.48.19 8.03.89 11.48 3.42 3.59 2.65 5.04 5.72 4.07 8.45zm20.24 28.17c2.94-1.24 5.04-1.12 6.24.37 1.19 1.46 1.02 3.7-.4 5.2l-9.06 9.64c-.04.04-.08.09-.11.14-.93 1.44-10.03 3.66-17.97 4.9h-31.34l-6.04-1.46v-11.79h5.48c.23 0 .44-.07.62-.21l17.29-13.62c.79-.63 1.74-1.04 2.75-1.19 2.32-.34 3.99-.12 4.98.64.67.52 1.06 1.32 1.18 2.45.21 1.89-.68 3.85-2.38 5.24-2.05 1.66-5.36 5.38-4.59 11.51.07.51.5.88.99.88.05 0 .09-.01.13-.01.55-.07.94-.57.87-1.12-.32-2.57.18-4.64 1.03-6.28 1.96.52 7.45 1.85 13.84 2.33 7.73.59 9.23-.89 11.03-3.34.99-1.34 2.1-2.86 5.46-4.28zm-5.24-1.55c.23.36.44.79.63 1.25l-4.72-3.21c1.52-.17 3.14.39 4.09 1.96zm13.56-47c-.48 3.43-1.48 10.57-4.19 14.7-2.11 3.22-4.56 5.12-7.08 5.51-1.83.27-3.73-.25-5.53-1.52 3.96-7.38 8.47-12.5 8.82-12.9.36-.41.33-1.04-.09-1.41-.34-.3-.82-.32-1.19-.08-.01 0-5.37 3.65-10.58 11.03-1.92-3.79-.13-8.18 4.91-11.89 4.6-3.39 12.09-4.23 15.07-4.44-.04.3-.09.62-.14 1z" fill="#0051b1" fill-opacity="1" data-original-color="#000000ff" stroke="none" stroke-opacity="1"/></g></g></svg>