<svg id="Bahan_copy_2" viewBox="0 0 64 64" xmlns="http://www.w3.org/2000/svg" data-name="Bahan copy 2" width="300" height="300" version="1.1" xmlns:xlink="http://www.w3.org/1999/xlink" xmlns:svgjs="http://svgjs.dev/svgjs"><g width="100%" height="100%" transform="matrix(1,0,0,1,0,0)"><g fill="rgb(0,0,0)"><path d="m44.11 12.82a1.00336 1.00336 0 0 1 1.21 1.6c-2.76 1.98613-9.33 8.42-9.33 8.42a3.17316 3.17316 0 0 0 2.11.36l4.59-.77a12.84786 12.84786 0 0 0 10.4-9.8l1.3-5.62a2.47392 2.47392 0 0 0 -2.8-2.98l-5.68.97a12.835 12.835 0 0 0 -10.41 9.79l-1.05 4.53a3.16483 3.16483 0 0 0 .2 2.04c.58532-.59059 7.06948-6.76812 9.46-8.54z" fill="#0051b1" fill-opacity="1" data-original-color="#000000ff" stroke="none" stroke-opacity="1"/><path d="m20.06 14.41a.99926.99926 0 0 1 1.2101-1.58995c2.32438 1.7152 7.95991 7.13 7.95991 7.13a3.02237 3.02237 0 0 1 .43.8 2.93368 2.93368 0 0 0 .28-2.06l-.94001-4.05005a11.57456 11.57456 0 0 0 -9.38-8.83l-5.08-.86a2.29936 2.29936 0 0 0 -2.06.69 2.27312 2.27312 0 0 0 -.56 2.1l1.16 5.01a11.57243 11.57243 0 0 0 9.38 8.84l4.1.69a2.91656 2.91656 0 0 0 1.53-.15l-.41-.91s-5.234-5.06323-7.62-6.81z" fill="#0051b1" fill-opacity="1" data-original-color="#000000ff" stroke="none" stroke-opacity="1"/><path d="m56.57 35.96h-10.35766a3.22739 3.22739 0 0 0 -2.98586-4.23922h-9.96647a10.89177 10.89177 0 0 0 -.57001-4.07078 10.65654 10.65654 0 0 1 3.3001-4.81 3.28871 3.28871 0 0 1 -1.34-1.48l-1.3501 1.37a10.04649 10.04649 0 0 0 -1.71 2.34l-1.93-4.32a2.90994 2.90994 0 0 1 -1.57 1.38l2.45 5.5a8.85854 8.85854 0 0 1 .72 4.09071h-10.20089a3.22982 3.22982 0 0 0 -2.98569 4.23929h-10.64342a1.99948 1.99948 0 0 0 -2 2v2.24a1.99947 1.99947 0 0 0 2 2h13.65813l.55787 4.4416a5.24433 5.24433 0 0 0 5.19873 4.585h10.59619a5.24556 5.24556 0 0 0 5.19922-4.585l.55731-4.4416h13.37255a1.99947 1.99947 0 0 0 2-2v-2.24a1.99948 1.99948 0 0 0 -2-2zm-36.28777-1.917a1.07172 1.07172 0 0 1 .77685-.32227h22.16748c1.18505.01214 1.3083 1.38688.88954 2.23927h-23.94667c-.22054-.61428-.42962-1.40183.1128-1.917zm20.37353 12.35055a3.24253 3.24253 0 0 1 -3.21484 2.833h-10.59619a3.24171 3.24171 0 0 1 -3.21436-2.834l-.52649-4.19255h18.07812z" fill="#0051b1" fill-opacity="1" data-original-color="#000000ff" stroke="none" stroke-opacity="1"/><path d="m14.88477 52.49219a1.90439 1.90439 0 0 1 -2.688 0 3.90277 3.90277 0 0 0 -5.51612 0 .99989.99989 0 0 0 1.41407 1.41406 1.90439 1.90439 0 0 1 2.688 0 3.90483 3.90483 0 0 0 5.51612 0 1.945 1.945 0 0 1 2.688 0 .99989.99989 0 0 0 1.41406-1.41406 3.90276 3.90276 0 0 0 -5.51613 0z" fill="#0051b1" fill-opacity="1" data-original-color="#000000ff" stroke="none" stroke-opacity="1"/><path d="m33.34375 57.44336a1.94435 1.94435 0 0 1 -2.6875 0 3.99393 3.99393 0 0 0 -5.51611 0 .99989.99989 0 1 0 1.41406 1.41406 1.945 1.945 0 0 1 2.688 0 3.91828 3.91828 0 0 0 5.51562 0 1.945 1.945 0 0 1 2.688 0 1.00009 1.00009 0 0 0 1.414-1.4141 3.99391 3.99391 0 0 0 -5.51607.00004z" fill="#0051b1" fill-opacity="1" data-original-color="#000000ff" stroke="none" stroke-opacity="1"/><path d="m51.80322 53.3418a1.9044 1.9044 0 0 1 -2.688 0 3.90276 3.90276 0 0 0 -5.51611 0 .99989.99989 0 0 0 1.41406 1.41406 1.945 1.945 0 0 1 2.688 0 3.90485 3.90485 0 0 0 5.51612 0 1.90437 1.90437 0 0 1 2.688 0 .99989.99989 0 0 0 1.41407-1.41406 3.90277 3.90277 0 0 0 -5.51614 0z" fill="#0051b1" fill-opacity="1" data-original-color="#000000ff" stroke="none" stroke-opacity="1"/></g></g></svg>