<svg viewBox="0 0 72 72" xmlns="http://www.w3.org/2000/svg" xmlns:xlink="http://www.w3.org/1999/xlink" width="300" height="300" version="1.1" xmlns:svgjs="http://svgjs.dev/svgjs"><g width="100%" height="100%" transform="matrix(1,0,0,1,0,0)"><linearGradient id="linear-gradient" gradientUnits="userSpaceOnUse" x1="35.639" x2="36.352" y1="2.577" y2="68.517"><stop offset="0" stop-color="#84a98c"/><stop offset="1" stop-color="#2f3e46"/></linearGradient><linearGradient id="linear-gradient-2" x1="34.074" x2="34.787" xlink:href="#linear-gradient" y1="2.594" y2="68.534"/><linearGradient id="linear-gradient-3" x1="38.509" x2="39.221" xlink:href="#linear-gradient" y1="2.546" y2="68.486"/><linearGradient id="linear-gradient-4" x1="30.031" x2="30.744" xlink:href="#linear-gradient" y1="2.637" y2="68.578"/><linearGradient id="linear-gradient-5" x1="31.955" x2="32.668" xlink:href="#linear-gradient" y1="2.617" y2="68.557"/><linearGradient id="linear-gradient-6" x1="38.411" x2="39.124" xlink:href="#linear-gradient" y1="2.547" y2="68.487"/><linearGradient id="linear-gradient-7" x1="39.965" x2="40.678" xlink:href="#linear-gradient" y1="2.53" y2="68.471"/><linearGradient id="linear-gradient-8" x1="31.836" x2="32.549" xlink:href="#linear-gradient" y1="2.618" y2="68.558"/><linearGradient id="linear-gradient-9" x1="42.357" x2="43.07" xlink:href="#linear-gradient" y1="2.504" y2="68.445"/><linearGradient id="linear-gradient-10" x1="57.833" x2="58.546" xlink:href="#linear-gradient" y1="2.337" y2="68.277"/><linearGradient id="linear-gradient-11" x1="59.571" x2="60.284" xlink:href="#linear-gradient" y1="2.318" y2="68.259"/><linearGradient id="linear-gradient-12" x1="11.087" x2="11.8" xlink:href="#linear-gradient" y1="2.842" y2="68.783"/><linearGradient id="linear-gradient-13" x1="8.99" x2="9.703" xlink:href="#linear-gradient" y1="2.865" y2="68.805"/><linearGradient id="linear-gradient-14" x1="10.35" x2="11.063" xlink:href="#linear-gradient" y1="2.85" y2="68.791"/><linearGradient id="linear-gradient-15" x1="21.827" x2="22.54" xlink:href="#linear-gradient" y1="2.726" y2="68.667"/><linearGradient id="linear-gradient-16" x1="60.952" x2="61.665" xlink:href="#linear-gradient" y1="2.303" y2="68.244"/><g id="Layer_25" data-name="Layer 25"><path d="m69 36a3.00328 3.00328 0 0 0 -3-3h-13v-22h3a7.00848 7.00848 0 0 0 7-7 .99943.99943 0 0 0 -1-1h-4a7.0085 7.0085 0 0 0 -7 7v8.69525a10.98828 10.98828 0 0 0 -9-4.69525h-6a.99974.99974 0 0 0 -1 1 11.01245 11.01245 0 0 0 11 11h5v7h-30v-22h3a7.00818 7.00818 0 0 0 7-7 .99974.99974 0 0 0 -1-1h-4a7.00818 7.00818 0 0 0 -7 7v8.69525a10.98828 10.98828 0 0 0 -9-4.69525h-6a.99974.99974 0 0 0 -1 1 11.01245 11.01245 0 0 0 11 11h5v7h-13a2.99253 2.99253 0 0 0 -1 5.81567v25.18433a5.00588 5.00588 0 0 0 5 5h52a5.00588 5.00588 0 0 0 5-5v-25.18427a2.99507 2.99507 0 0 0 2-2.81573zm-11-31h2.89941a5.00854 5.00854 0 0 1 -4.89941 4h-2.89941a5.00854 5.00854 0 0 1 4.89941-4zm-12 19a9.01211 9.01211 0 0 1 -8.94434-8h4.94434a9.01211 9.01211 0 0 1 8.94434 8zm-20-19h2.89941a5.00854 5.00854 0 0 1 -4.89941 4h-2.89941a5.00854 5.00854 0 0 1 4.89941-4zm-12 19a9.01293 9.01293 0 0 1 -8.94482-8h4.94482a9.01293 9.01293 0 0 1 8.94482 8zm51 40a3.00328 3.00328 0 0 1 -3 3h-52a3.00328 3.00328 0 0 1 -3-3v-25h12v3.46484l-5.55469 3.70316a1.00028 1.00028 0 0 0 -.44531.832v11a1 1 0 0 0 2 0v-5.58594l2 2v8.58594a1 1 0 0 0 2 0v-9a.99928.99928 0 0 0 -.293-.707l-3.707-3.70706v-2.05078l4.87268-3.24842 4.12732 4.12732v11.58594a1 1 0 0 0 2 0v-12a.99928.99928 0 0 0 -.293-.707l-4.707-4.70706v-3.58594h30v3.46484l-5.55469 3.70316a1.00028 1.00028 0 0 0 -.44531.832v11a1 1 0 0 0 2 0v-5.58594l2 2v8.58594a1 1 0 0 0 2 0v-9a.99928.99928 0 0 0 -.293-.707l-3.707-3.70706v-2.05078l4.87268-3.24842 4.12732 4.12732v11.58594a1 1 0 0 0 2 0v-12a.99928.99928 0 0 0 -.293-.707l-4.707-4.70706v-3.58594h12zm1-27h-60a1 1 0 0 1 0-2h60a1 1 0 0 1 0 2z" fill="#0051b1" data-original-color="linear-gradient" stroke="none" stroke-opacity="1" fill-opacity="1"/><path d="m29 43h11a1 1 0 0 0 0-2h-11a1 1 0 0 0 0 2z" fill="#0051b1" data-original-color="linear-gradient" stroke="none" stroke-opacity="1" fill-opacity="1"/><path d="m37 47a1 1 0 0 0 0 2h4a1 1 0 0 0 0-2z" fill="#0051b1" data-original-color="linear-gradient" stroke="none" stroke-opacity="1" fill-opacity="1"/><path d="m32 46a.99974.99974 0 0 0 -1-1h-1a1 1 0 0 0 0 2h1a.99974.99974 0 0 0 1-1z" fill="#0051b1" data-original-color="linear-gradient" stroke="none" stroke-opacity="1" fill-opacity="1"/><path d="m31 54h3a1 1 0 0 0 0-2h-3a1 1 0 0 0 0 2z" fill="#0051b1" data-original-color="linear-gradient" stroke="none" stroke-opacity="1" fill-opacity="1"/><path d="m36 56a1 1 0 0 0 0 2h6a1 1 0 0 0 0-2z" fill="#0051b1" data-original-color="linear-gradient" stroke="none" stroke-opacity="1" fill-opacity="1"/><path d="m41 53a1 1 0 0 0 0-2h-1a1 1 0 0 0 0 2z" fill="#0051b1" data-original-color="linear-gradient" stroke="none" stroke-opacity="1" fill-opacity="1"/><path d="m36 63h-7a1 1 0 0 0 0 2h7a1 1 0 0 0 0-2z" fill="#0051b1" data-original-color="linear-gradient" stroke="none" stroke-opacity="1" fill-opacity="1"/><path d="m45 61h-4a1 1 0 0 0 0 2h4a1 1 0 0 0 0-2z" fill="#0051b1" data-original-color="linear-gradient" stroke="none" stroke-opacity="1" fill-opacity="1"/><path d="m60 63h-3a1 1 0 0 0 0 2h3a1 1 0 0 0 0-2z" fill="#0051b1" data-original-color="linear-gradient" stroke="none" stroke-opacity="1" fill-opacity="1"/><path d="m58 43h4a1 1 0 0 0 0-2h-4a1 1 0 0 0 0 2z" fill="#0051b1" data-original-color="linear-gradient" stroke="none" stroke-opacity="1" fill-opacity="1"/><path d="m10 42h3a1 1 0 0 0 0-2h-3a1 1 0 0 0 0 2z" fill="#0051b1" data-original-color="linear-gradient" stroke="none" stroke-opacity="1" fill-opacity="1"/><path d="m10 51a1 1 0 0 0 0-2h-1a1 1 0 0 0 0 2z" fill="#0051b1" data-original-color="linear-gradient" stroke="none" stroke-opacity="1" fill-opacity="1"/><path d="m12 62h-2a1 1 0 0 0 0 2h2a1 1 0 0 0 0-2z" fill="#0051b1" data-original-color="linear-gradient" stroke="none" stroke-opacity="1" fill-opacity="1"/><path d="m23 64h-1a1 1 0 0 0 0 2h1a1 1 0 0 0 0-2z" fill="#0051b1" data-original-color="linear-gradient" stroke="none" stroke-opacity="1" fill-opacity="1"/><path d="m62 52h-1a1 1 0 0 0 0 2h1a1 1 0 0 0 0-2z" fill="#0051b1" data-original-color="linear-gradient" stroke="none" stroke-opacity="1" fill-opacity="1"/></g></g></svg>