<svg id="Capa_1" enable-background="new 0 0 512 512" height="300" viewBox="0 0 512 512" width="300" xmlns="http://www.w3.org/2000/svg" version="1.1" xmlns:xlink="http://www.w3.org/1999/xlink" xmlns:svgjs="http://svgjs.dev/svgjs"><g width="100%" height="100%" transform="matrix(1,0,0,1,0,0)"><g><path d="m504.5 330.167h-29.804v-46.304c0-16.561-13.513-30.034-30.121-30.034h-12.188c-4.143 0-7.5 3.358-7.5 7.5v17.444c0 .296-.301.586-.607.586h-28.358v-37.876l26.077-17.579c10.688 3.945 20.732 5.924 29.921 5.924 10.026 0 19.037-2.35 26.757-7.05 15.473-9.421 24.849-27.562 27.114-52.465.354-3.958 1.117-8.119-1.458-11.542-2.336-3.105-6.161-3.865-9.676-4.915-24.065-7.188-44.466-5.237-58.992 5.644-13.821 10.352-21.401 28.275-22.06 51.972l-17.683 11.921v-55.177c23.309-16.71 28.997-33.917 29.56-45.634.837-17.445-8.614-34.733-27.329-49.993-3.001-2.448-5.915-5.244-10.065-5.104-3.853.13-6.578 2.805-9.392 5.101-18.722 15.252-28.178 32.535-27.344 49.978.56 11.72 6.248 28.934 29.57 45.652v55.177l-17.679-11.918c-.817-29.764-12.321-44.671-22.074-51.974-14.53-10.882-34.927-12.834-58.966-5.649-3.491 1.033-7.318 1.783-9.646 4.857-2.622 3.461-1.894 7.596-1.532 11.614 2.281 24.906 11.665 43.046 27.136 52.461 7.718 4.697 16.724 7.044 26.751 7.044 9.19 0 19.241-1.979 29.932-5.924l26.077 17.579v37.876h-28.557c-.307 0-.607-.291-.607-.586v-17.444c0-4.142-3.357-7.5-7.5-7.5h-67.607c-4.143 0-7.5 3.358-7.5 7.5s3.357 7.5 7.5 7.5h60.106v9.944c0 8.594 7.001 15.586 15.607 15.586h28.557v22.803c-11.213-2.735-44.647-9.027-84.521.959-.125.031-.262.07-.385.107-.161.049-16.346 4.92-40.046 4.87-23.645.019-39.855-4.822-40.004-4.867-.13-.041-.261-.077-.394-.11-39.843-9.977-73.258-3.702-84.492-.966v-22.795h28.528c8.606 0 15.607-6.992 15.607-15.586v-9.944h66.825c4.142 0 7.5-3.358 7.5-7.5s-3.358-7.5-7.5-7.5h-74.325c-4.142 0-7.5 3.358-7.5 7.5v17.444c0 .296-.301.586-.607.586h-28.528v-37.877l26.069-17.581c10.69 3.947 20.737 5.927 29.929 5.927 10.026 0 19.038-2.35 26.757-7.05 15.473-9.42 24.848-27.562 27.113-52.464.36-3.956 1.114-8.124-1.459-11.545-2.334-3.103-6.162-3.866-9.675-4.913-24.067-7.189-44.466-5.236-58.992 5.644-13.82 10.352-21.399 28.271-22.06 51.964l-17.683 11.926v-55.174c23.31-16.711 28.996-33.918 29.556-45.635.833-17.448-8.627-34.736-27.324-49.968-2.946-2.428-5.817-5.199-9.899-5.131-3.933.066-6.694 2.767-9.558 5.103-18.723 15.253-28.178 32.535-27.345 49.979.56 11.72 6.249 28.934 29.57 45.652v55.177l-17.677-11.918c-.817-29.763-12.321-44.671-22.073-51.974-14.531-10.882-34.927-12.834-58.966-5.65-3.429 1.017-7.224 1.749-9.551 4.73-2.718 3.481-1.997 7.658-1.628 11.736 2.265 24.896 11.639 43.035 27.108 52.456 7.725 4.705 16.738 7.056 26.774 7.055 9.192 0 19.244-1.98 29.937-5.925l26.077 17.579v37.876h-28.357c-.323 0-.607-.274-.607-.586v-17.444c0-4.142-3.358-7.5-7.5-7.5h-12.218c-16.593 0-30.092 13.473-30.092 30.034v46.304h-29.804c-4.142 0-7.5 3.358-7.5 7.5v40.233c0 4.142 3.358 7.5 7.5 7.5h29.804v29.057c0 16.576 13.5 30.062 30.092 30.062h170.504c4.142 0 7.5-3.358 7.5-7.5s-3.358-7.5-7.5-7.5h-170.504c-8.322 0-15.092-6.757-15.092-15.062v-36.557-40.233-2.921c12.759 2.486 24.689 3.377 35.222 3.377 11.39 0 21.141-1.039 28.553-2.22v19.788c-2.516 2.265-4.458 2.192-8.188 2.045-5.422-.214-12.848-.507-21.168 7.153-3.047 2.806-3.243 7.55-.438 10.598 1.479 1.606 3.496 2.42 5.52 2.42 1.815 0 3.637-.656 5.078-1.982 3.761-3.462 6.127-3.369 10.416-3.2 2.562.101 5.542.217 8.78-.521v16.495c-5.557 3.335-9.03 3.234-13.906 3.077-6.269-.204-14.071-.458-25.764 6.141-3.607 2.036-4.881 6.61-2.845 10.218 1.378 2.442 3.92 3.815 6.538 3.815 1.249 0 2.515-.312 3.68-.97 8.031-4.533 12.605-4.383 17.903-4.211 5.956.192 12.611.401 21.893-5.084 9.28 5.485 15.926 5.277 21.879 5.084 5.289-.172 9.858-.321 17.89 4.211 1.165.658 2.431.97 3.68.97 2.618 0 5.16-1.373 6.538-3.815 2.036-3.607.762-8.182-2.845-10.218-11.691-6.599-19.486-6.344-25.751-6.141-4.868.158-8.336.258-13.891-3.076v-16.493c3.234.735 6.21.619 8.77.517 4.295-.17 6.666-.263 10.427 3.2 1.441 1.327 3.262 1.982 5.078 1.982 2.023 0 4.041-.814 5.52-2.42 2.806-3.047 2.61-7.792-.438-10.598-8.32-7.66-15.75-7.368-21.178-7.153-3.732.146-5.672.219-8.178-2.04v-23.01c.196-.058.33-.099.398-.12.361-.109 36.491-10.852 80.281.063 2.223.662 19.231 5.47 43.789 5.47h.423c24.813.092 42.005-4.802 44.247-5.47 43.788-10.914 79.919-.172 80.265-.067.07.022.234.071.44.131v22.999c-2.516 2.265-4.458 2.192-8.188 2.044-5.423-.212-12.848-.507-21.168 7.153-3.047 2.806-3.243 7.55-.438 10.598 1.479 1.606 3.496 2.42 5.52 2.42 1.815 0 3.637-.656 5.078-1.982 3.761-3.462 6.119-3.369 10.416-3.2 2.561.102 5.541.218 8.78-.521v16.495c-5.558 3.335-9.031 3.234-13.906 3.077-6.27-.206-14.073-.458-25.764 6.141-3.607 2.036-4.881 6.61-2.845 10.218 1.378 2.442 3.92 3.815 6.538 3.815 1.249 0 2.515-.312 3.68-.97 8.032-4.534 12.606-4.382 17.903-4.211 5.953.191 12.609.401 21.893-5.084 9.28 5.486 15.925 5.277 21.88 5.084 5.293-.17 9.859-.32 17.89 4.211 1.165.658 2.431.97 3.68.97 2.617 0 5.16-1.373 6.538-3.815 2.036-3.607.763-8.182-2.845-10.218-11.691-6.6-19.488-6.343-25.751-6.141-4.869.159-8.336.259-13.891-3.076v-16.492c3.233.735 6.209.619 8.77.517 4.299-.17 6.665-.263 10.427 3.2 1.441 1.327 3.263 1.982 5.078 1.982 2.023 0 4.041-.814 5.52-2.42 2.806-3.047 2.609-7.792-.438-10.598-8.32-7.66-15.75-7.367-21.178-7.153-3.732.147-5.672.22-8.179-2.04v-19.792c14.277 2.272 37.226 4.012 63.775-1.161v2.924 40.234 36.557c0 8.305-6.783 15.062-15.121 15.062h-172.036c-4.143 0-7.5 3.358-7.5 7.5s3.357 7.5 7.5 7.5h172.035c16.608 0 30.121-13.486 30.121-30.062v-29.057h29.804c4.143 0 7.5-3.358 7.5-7.5v-40.233c0-4.142-3.357-7.5-7.5-7.5zm-59.843-158.66c10.57-7.917 26.376-9.051 45.707-3.277.185.055.364.108.54.16-.018.185-.035.375-.053.569-1.817 19.978-8.726 34.158-19.977 41.008-8.503 5.178-19.706 6.22-32.877 3.152l24.49-16.509c3.435-2.315 4.342-6.977 2.026-10.411-2.314-3.435-6.975-4.341-10.411-2.026l-24.544 16.546c2.044-13.3 7.16-23.265 15.099-29.212zm-78.324-49.658c-.597-12.496 6.954-25.509 21.84-37.637.084-.068.167-.136.248-.203.082.067.165.135.25.204 14.879 12.132 22.426 25.151 21.826 37.65-.444 9.251-5.438 18.438-14.576 27.03v-28.45c0-4.142-3.357-7.5-7.5-7.5s-7.5 3.358-7.5 7.5v28.452c-9.148-8.598-14.145-17.79-14.588-27.046zm-60.375 88.122c-11.251-6.847-18.165-21.03-19.995-41.009-.018-.193-.035-.382-.053-.564.184-.054.373-.109.569-.167 19.321-5.774 35.121-4.641 45.697 3.279 7.943 5.948 13.061 15.913 15.106 29.209l-24.544-16.545c-3.435-2.316-8.097-1.408-10.411 2.026-2.315 3.435-1.408 8.096 2.026 10.411l24.486 16.507c-13.174 3.067-24.379 2.027-32.881-3.147zm-126.143-38.464c10.57-7.917 26.376-9.051 45.707-3.277.185.055.365.108.54.16-.017.184-.035.374-.053.569-1.817 19.977-8.725 34.157-19.976 41.007-8.506 5.18-19.714 6.22-32.891 3.148l24.475-16.506c3.434-2.316 4.341-6.978 2.025-10.412-2.316-3.435-6.978-4.341-10.412-2.025l-24.513 16.532c2.047-13.291 7.161-23.251 15.098-29.196zm-78.323-49.658c-.597-12.496 6.954-25.509 21.841-37.637.079-.064.157-.128.233-.191.077.064.156.129.237.195 14.891 12.131 22.446 25.151 21.849 37.651-.442 9.25-5.435 18.435-14.573 27.027v-28.45c0-4.142-3.358-7.5-7.5-7.5s-7.5 3.358-7.5 7.5v28.452c-9.147-8.599-14.145-17.791-14.587-27.047zm-60.399 88.114c-11.249-6.851-18.155-21.03-19.972-41-.017-.194-.035-.382-.052-.565.184-.054.374-.109.57-.167 19.32-5.775 35.122-4.641 45.696 3.279 7.943 5.948 13.061 15.913 15.106 29.21l-24.544-16.545c-3.434-2.316-8.096-1.408-10.411 2.026-2.315 3.435-1.408 8.096 2.026 10.411l24.486 16.507c-13.185 3.069-24.397 2.025-32.905-3.156zm-26.093 160.437v-25.233h22.304v25.233zm37.304-50.976v-35.561c0-8.29 6.771-15.034 15.092-15.034h4.717v9.944c0 8.594 7.001 15.586 15.607 15.586h28.358v26.286c-13.11 2.276-36.687 4.54-63.774-1.221zm343.617 1.225v-26.289h28.358c8.606 0 15.607-6.992 15.607-15.586v-9.944h4.688c8.338 0 15.121 6.744 15.121 15.034v35.561c-27.073 5.756-50.653 3.497-63.774 1.224zm101.079 49.751h-22.304v-25.233h22.304z" fill="#0051b1" fill-opacity="1" data-original-color="#000000ff" stroke="none" stroke-opacity="1"/></g></g></svg>