<svg version="1.1" id="svg5115" xml:space="preserve" width="300" height="300" viewBox="0 0 682.66669 682.66669" xmlns="http://www.w3.org/2000/svg" xmlns:svg="http://www.w3.org/2000/svg" xmlns:xlink="http://www.w3.org/1999/xlink" xmlns:svgjs="http://svgjs.dev/svgjs"><g width="100%" height="100%" transform="matrix(1,0,0,1,0,0)"><defs id="defs5119"><clipPath clipPathUnits="userSpaceOnUse" id="clipPath5129"><path d="M 0,512 H 512 V 0 H 0 Z" id="path5127" fill="#0051b1" fill-opacity="1" data-original-color="#000000ff" stroke="none" stroke-opacity="1"/></clipPath></defs><g id="g5121" transform="matrix(1.3333333,0,0,-1.3333333,0,682.66667)"><g id="g5123"><g id="g5125" clip-path="url(#clipPath5129)"><g id="g5131" transform="translate(326.4707,204.8428)"><path d="m 0,0 c 6.831,3.628 12.998,8.653 18.027,14.951 2.07,2.591 5.34,3.885 8.608,3.324 15.834,-2.717 32.386,4.454 40.887,19.181 7.02,12.158 6.834,26.492 0.777,38.075 -2.173,4.156 -0.611,9.294 3.477,11.591 5.97,3.355 11.144,8.305 14.816,14.665 8.832,15.297 6.262,34.038 -5.065,46.408 -2.671,2.916 -3.042,7.219 -1.04,10.63 0.046,0.079 0.092,0.157 0.138,0.237 4.362,7.556 5.944,15.956 5.063,24.011 -2.213,20.242 -24.872,31.184 -42.548,21.075 -9.996,-5.715 -22.595,-15.082 -36.46,-30.396" style="stroke-linecap: round; stroke-linejoin: round; stroke-miterlimit: 10; stroke-dasharray: none;" id="path5133" fill="none" fill-opacity="1" stroke="#0051b1" stroke-opacity="1" data-original-stroke-color="#000000ff" stroke-width="15" data-original-stroke-width="15"/></g><g id="g5135" transform="translate(178.1426,379.3711)"><path d="M 0,0 C -13.586,14.856 -25.927,24.001 -35.753,29.62 -53.43,39.729 -76.088,28.787 -78.302,8.545 c -0.881,-8.056 0.701,-16.455 5.064,-24.012 0.046,-0.079 0.092,-0.157 0.137,-0.236 2.002,-3.411 1.631,-7.714 -1.04,-10.63 -11.326,-12.37 -13.896,-31.111 -5.064,-46.408 3.672,-6.361 8.846,-11.311 14.815,-14.665 4.089,-2.297 5.651,-7.436 3.478,-11.591 -6.058,-11.583 -6.243,-25.917 0.776,-38.075 8.502,-14.727 25.054,-21.899 40.888,-19.181 3.268,0.561 6.538,-0.733 8.607,-3.324 4.969,-6.222 11.048,-11.202 17.782,-14.82" style="stroke-linecap: round; stroke-linejoin: round; stroke-miterlimit: 10; stroke-dasharray: none;" id="path5137" fill="none" fill-opacity="1" stroke="#0051b1" stroke-opacity="1" data-original-stroke-color="#000000ff" stroke-width="15" data-original-stroke-width="15"/></g><g id="g5139" transform="translate(291.416,204.9736)"><path d="m 0,0 c 13.938,9.607 23.78,24.729 26.379,42.215 0.52,3.501 2.961,6.36 6.279,7.592 11.287,4.187 20.31,13.027 24.748,24.188" style="stroke-linecap: round; stroke-linejoin: round; stroke-miterlimit: 10; stroke-dasharray: none;" id="path5141" fill="none" fill-opacity="1" stroke="#0051b1" stroke-opacity="1" data-original-stroke-color="#000000ff" stroke-width="15" data-original-stroke-width="15"/></g><g id="g5143" transform="translate(348.2852,311.6289)"><path d="m 0,0 c -3.383,7.766 -9,14.334 -16.061,18.864 -4.298,2.758 -5.79,8.411 -3.184,12.805 3.762,6.345 5.923,13.749 5.923,21.66 0,18.97 -12.417,35.029 -29.565,40.517 -4.123,1.319 -6.883,5.08 -6.852,9.408 10e-4,0.098 10e-4,0.195 10e-4,0.293 0,23.498 -19.049,42.547 -42.547,42.547 -23.498,0 -42.547,-19.049 -42.547,-42.547 0,-0.098 0,-0.195 0.001,-0.293 0.03,-4.328 -2.731,-8.089 -6.853,-9.408 -17.147,-5.488 -29.564,-21.547 -29.564,-40.517 0,-7.911 2.161,-15.316 5.923,-21.66 2.605,-4.394 1.114,-10.047 -3.185,-12.805 -11.786,-7.563 -19.597,-20.776 -19.597,-35.82 0,-18.293 11.546,-33.882 27.748,-39.893 3.318,-1.231 5.758,-4.09 6.279,-7.591 2.599,-17.486 12.441,-32.608 26.379,-42.216" style="stroke-linecap: round; stroke-linejoin: round; stroke-miterlimit: 10; stroke-dasharray: none;" id="path5145" fill="none" fill-opacity="1" stroke="#0051b1" stroke-opacity="1" data-original-stroke-color="#000000ff" stroke-width="15" data-original-stroke-width="15"/></g><g id="g5147" transform="translate(243.2705,204.9736)"><path d="m 0,0 c -2.532,19.575 -4.062,45.055 -4.062,72.914 0,61.742 7.517,111.794 16.791,111.794 9.275,0 16.792,-50.052 16.792,-111.794 0,-27.859 -1.53,-53.339 -4.062,-72.914" style="stroke-linecap: round; stroke-linejoin: round; stroke-miterlimit: 10; stroke-dasharray: none;" id="path5149" fill="none" fill-opacity="1" stroke="#0051b1" stroke-opacity="1" data-original-stroke-color="#000000ff" stroke-width="15" data-original-stroke-width="15"/></g><g id="g5151" transform="translate(180.8457,138.8984)"><path d="M 0,0 10.998,-29.669" style="stroke-linecap: round; stroke-linejoin: round; stroke-miterlimit: 10; stroke-dasharray: none;" id="path5153" fill="none" fill-opacity="1" stroke="#0051b1" stroke-opacity="1" data-original-stroke-color="#000000ff" stroke-width="15" data-original-stroke-width="15"/></g><g id="g5155" transform="translate(203.2031,78.5889)"><path d="m 0,0 6.596,-17.792 c 1.454,-3.922 5.194,-6.524 9.377,-6.524 h 73.648 c 4.183,0 7.923,2.602 9.377,6.524 l 28.954,78.102" style="stroke-linecap: round; stroke-linejoin: round; stroke-miterlimit: 10; stroke-dasharray: none;" id="path5157" fill="none" fill-opacity="1" stroke="#0051b1" stroke-opacity="1" data-original-stroke-color="#000000ff" stroke-width="15" data-original-stroke-width="15"/></g><g id="g5159" transform="translate(504.5,174.3613)"><path d="M 0,0 H -258.303" style="stroke-linecap: round; stroke-linejoin: round; stroke-miterlimit: 10; stroke-dasharray: none;" id="path5161" fill="none" fill-opacity="1" stroke="#0051b1" stroke-opacity="1" data-original-stroke-color="#000000ff" stroke-width="15" data-original-stroke-width="15"/></g><g id="g5163" transform="translate(7.5,140.1025)"><path d="M 0,0 H 497" style="stroke-linecap: round; stroke-linejoin: round; stroke-miterlimit: 10; stroke-dasharray: none;" id="path5165" fill="none" fill-opacity="1" stroke="#0051b1" stroke-opacity="1" data-original-stroke-color="#000000ff" stroke-width="15" data-original-stroke-width="15"/></g><g id="g5167" transform="translate(213.5371,174.3613)"><path d="M 0,0 H -206.037" style="stroke-linecap: round; stroke-linejoin: round; stroke-miterlimit: 10; stroke-dasharray: none;" id="path5169" fill="none" fill-opacity="1" stroke="#0051b1" stroke-opacity="1" data-original-stroke-color="#000000ff" stroke-width="15" data-original-stroke-width="15"/></g><g id="g5171" transform="translate(171.7959,174.3613)"><path d="m 0,0 c -8.311,0 -15.048,6.737 -15.048,15.048 0,8.31 6.737,15.048 15.048,15.048 h 168.408 c 8.311,0 15.048,-6.738 15.048,-15.048 C 183.456,6.737 176.719,0 168.408,0" style="stroke-linecap: round; stroke-linejoin: round; stroke-miterlimit: 10; stroke-dasharray: none;" id="path5173" fill="none" fill-opacity="1" stroke="#0051b1" stroke-opacity="1" data-original-stroke-color="#000000ff" stroke-width="15" data-original-stroke-width="15"/></g><g id="g5175" transform="translate(236.1416,115.3516)"><path d="M 0,0 3,-33.123" style="stroke-linecap: round; stroke-linejoin: round; stroke-miterlimit: 10; stroke-dasharray: none;" id="path5177" fill="none" fill-opacity="1" stroke="#0051b1" stroke-opacity="1" data-original-stroke-color="#000000ff" stroke-width="15" data-original-stroke-width="15"/></g><g id="g5179" transform="translate(275.8584,115.3516)"><path d="M 0,0 -3,-33.123" style="stroke-linecap: round; stroke-linejoin: round; stroke-miterlimit: 10; stroke-dasharray: none;" id="path5181" fill="none" fill-opacity="1" stroke="#0051b1" stroke-opacity="1" data-original-stroke-color="#000000ff" stroke-width="15" data-original-stroke-width="15"/></g></g></g></g></g></svg>