<svg id="Layer_1" viewBox="0 0 96 96" xmlns="http://www.w3.org/2000/svg" data-name="Layer 1" width="300" height="300" version="1.1" xmlns:xlink="http://www.w3.org/1999/xlink" xmlns:svgjs="http://svgjs.dev/svgjs"><g width="100%" height="100%" transform="matrix(1,0,0,1,0,0)"><path d="m57.83 23.06a1 1 0 0 0 -1.11.11s-1.45 1.13-5.48 1.48a3.91 3.91 0 0 0 -3.09 2.44 3.91 3.91 0 0 0 -3.09-2.44c-4-.35-5.46-1.47-5.46-1.47a1 1 0 0 0 -1.6.82c.07.64.75 6.23 3.57 7.87a5.31 5.31 0 0 0 2.69.62 12.33 12.33 0 0 0 3.19-.48 12.73 12.73 0 0 1 -.11 4.29 12.54 12.54 0 0 0 -.2 3.29 4.16 4.16 0 0 1 -.73-.32 1 1 0 1 0 -1 1.74 5.39 5.39 0 0 0 5.55 0 1 1 0 0 0 .37-1.36 1 1 0 0 0 -1.36-.38 4.39 4.39 0 0 1 -.84.37 10.65 10.65 0 0 1 .16-3 14.65 14.65 0 0 0 .18-4.46 11.77 11.77 0 0 0 2.66.34 5.36 5.36 0 0 0 2.69-.62c2.81-1.64 3.49-7.23 3.56-7.87a1 1 0 0 0 -.55-.97zm-15.3 7.12c-1.07-.62-1.84-2.64-2.26-4.47a18.42 18.42 0 0 0 4.62.93c1.09.09 1.72 1.64 2 2.9a9.93 9.93 0 0 1 -1.68-.38 5.76 5.76 0 0 1 -2.55-1.56 6.17 6.17 0 0 0 2.11 2.4c.19.15.41.26.61.39a4.73 4.73 0 0 1 -2.85-.21zm11.25 0a4.75 4.75 0 0 1 -2.86.25c.21-.13.42-.24.62-.39a6.33 6.33 0 0 0 2.08-2.44 5.81 5.81 0 0 1 -2.55 1.56 9.83 9.83 0 0 1 -1.69.38c.31-1.24.94-2.81 2-2.9a18.33 18.33 0 0 0 4.62-.93c-.39 1.83-1.15 3.85-2.22 4.47zm22.78 20.06c-.07-4 .86-5.51.86-5.51a1 1 0 0 0 -1-1.54c-.63.14-6.19 1.48-7.52 4.51-.78 1.74-.17 4.07.39 5.57a5.7 5.7 0 0 0 -4.29 2.07 6.74 6.74 0 0 1 2-5.19s0-.09.08-.14a.91.91 0 0 0 .09-.17.78.78 0 0 0 0-.21.79.79 0 0 0 0-.13v-23.5a.8.8 0 0 0 0-.15.65.65 0 0 0 0-.19 1.39 1.39 0 0 0 -.11-.21.53.53 0 0 0 -.06-.1 10.08 10.08 0 0 1 -1.19-1.69c1.14-1.92 2.6-2.67 4.53-2.32.76 1 2.67 3.28 4.89 3.28a3.31 3.31 0 0 0 1.24-.25c3.8-1.56 5.63-1.21 5.63-1.22a1 1 0 0 0 1.07-1.52c-.35-.52-3.41-5-6.62-5.41-.07-4 .86-5.51.86-5.51a1 1 0 0 0 -1-1.54c-.63.14-6.19 1.48-7.52 4.51-.78 1.74-.17 4.07.39 5.57a5.7 5.7 0 0 0 -4.28 2.09 6.74 6.74 0 0 1 2-5.19s0-.09.08-.14a.91.91 0 0 0 .09-.17.78.78 0 0 0 0-.21.79.79 0 0 0 0-.13v-.07a10 10 0 0 0 -9.94-9.86h-18.54a10 10 0 0 0 -9.94 9.86v.07a.79.79 0 0 0 0 .13.78.78 0 0 0 0 .21.91.91 0 0 0 .09.17s.05.1.08.14a6.74 6.74 0 0 1 2 5.2 5.69 5.69 0 0 0 -4.21-2.08c.56-1.5 1.17-3.83.4-5.57-1.34-3-6.9-4.37-7.53-4.51a1 1 0 0 0 -1 .41 1 1 0 0 0 0 1.11s.95 1.56.87 5.53c-3.21.39-6.27 4.89-6.62 5.41a1 1 0 0 0 1 1.53s1.84-.35 5.65 1.21a3.31 3.31 0 0 0 1.24.25c2.22 0 4.13-2.25 4.89-3.28 1.93-.35 3.39.4 4.53 2.32a10.08 10.08 0 0 1 -1.14 1.69.53.53 0 0 0 -.06.1 1.39 1.39 0 0 0 -.11.21.65.65 0 0 0 0 .19.8.8 0 0 0 0 .15v23.48a.79.79 0 0 0 0 .13.78.78 0 0 0 0 .21.91.91 0 0 0 .09.17c0 .05.05.1.08.14a6.74 6.74 0 0 1 2 5.2 5.69 5.69 0 0 0 -4.21-2.08c.56-1.5 1.17-3.83.4-5.57-1.34-3-6.9-4.37-7.53-4.51a1 1 0 0 0 -1 .41 1 1 0 0 0 0 1.11s.95 1.56.87 5.53c-3.21.39-6.27 4.89-6.62 5.41a1 1 0 0 0 1 1.53s1.84-.35 5.65 1.21a3.31 3.31 0 0 0 1.24.25c2.22 0 4.13-2.25 4.89-3.28 1.93-.35 3.39.4 4.53 2.32a10.08 10.08 0 0 1 -1.22 1.69.53.53 0 0 0 -.06.1 1.39 1.39 0 0 0 -.11.21.65.65 0 0 0 0 .19.8.8 0 0 0 0 .15v11.36a11.37 11.37 0 0 0 3.25 8v10.1a1 1 0 0 0 1 1h29.92a1 1 0 0 0 1-1v-10.14a11.37 11.37 0 0 0 3.25-8v-11.34a.8.8 0 0 0 0-.15.65.65 0 0 0 0-.19 1.39 1.39 0 0 0 -.11-.21.53.53 0 0 0 -.06-.1 10.08 10.08 0 0 1 -1.19-1.69c1.14-1.92 2.6-2.67 4.53-2.32.76 1 2.67 3.28 4.89 3.28a3.31 3.31 0 0 0 1.24-.25c3.8-1.56 5.63-1.22 5.63-1.22a1 1 0 0 0 1.07-1.52c-.42-.5-3.48-5-6.69-5.39zm3.79-29a19.21 19.21 0 0 0 -4.63 1.32c-1 .43-2.36-.69-3.23-1.7a10.2 10.2 0 0 1 1.73-.44 6 6 0 0 1 3 .23 6.42 6.42 0 0 0 -3-1.23c-.24 0-.48-.07-.73-.09a5 5 0 0 1 2.7-1.11c1.28.05 2.93 1.54 4.16 3zm-9.67-6.71c.51-1.17 2.49-2.19 4.29-2.83a18.93 18.93 0 0 0 -.41 4.79 9.59 9.59 0 0 0 -2.66 1.51 8.32 8.32 0 0 1 .13-.85 5.94 5.94 0 0 1 1.29-2.76 6.39 6.39 0 0 0 -2.22 2.39c-.12.22-.24.44-.34.66a4.7 4.7 0 0 1 -.08-2.93zm-45.35 0a4.79 4.79 0 0 1 -.09 2.91c-.1-.22-.22-.44-.34-.66a6.39 6.39 0 0 0 -2.22-2.39 5.94 5.94 0 0 1 1.32 2.74c.06.29.1.58.14.87a9.71 9.71 0 0 0 -2.67-1.52 18.47 18.47 0 0 0 -.47-4.79c1.7.59 3.78 1.58 4.33 2.82zm-5 8a19.21 19.21 0 0 0 -4.63-1.32c1.23-1.46 2.88-2.95 4.15-3a4.93 4.93 0 0 1 2.7 1.11c-.24 0-.49.05-.73.09a6.42 6.42 0 0 0 -3 1.23 6 6 0 0 1 3-.23 9.86 9.86 0 0 1 1.72.44c-.9.98-2.21 2.15-3.26 1.69zm5 26a4.79 4.79 0 0 1 -.09 2.91c-.1-.22-.22-.44-.34-.66a6.39 6.39 0 0 0 -2.22-2.39 5.94 5.94 0 0 1 1.32 2.74c.06.29.1.58.14.87a9.71 9.71 0 0 0 -2.67-1.52 18.47 18.47 0 0 0 -.47-4.79c1.7.59 3.78 1.58 4.33 2.82zm-5 8a19.21 19.21 0 0 0 -4.63-1.32c1.23-1.46 2.88-2.95 4.15-3a4.93 4.93 0 0 1 2.7 1.11c-.25 0-.49 0-.73.09a6.42 6.42 0 0 0 -3 1.23 6 6 0 0 1 3-.23 9.86 9.86 0 0 1 1.72.44c-.9.98-2.21 2.15-3.26 1.69zm18.41-49h18.57a8 8 0 0 1 7.87 6.94h-34.36a8 8 0 0 1 7.87-6.91zm-4.74 80.91v-7.44a11.34 11.34 0 0 0 6.19 1.84h15.62a11.34 11.34 0 0 0 6.19-1.84v7.47zm21.81-7.63h-15.62a9.45 9.45 0 0 1 -9.44-9.43v-11c3-3.69 3-7.55 0-11.22v-22.79c2.61-3.24 2.93-6.61 1-9.87h32.54c-2 3.26-1.65 6.63 1 9.87v22.78c-3 3.67-3 7.53 0 11.22v11a9.45 9.45 0 0 1 -9.48 9.44zm14.87-32.3c.51-1.17 2.49-2.19 4.29-2.83a18.93 18.93 0 0 0 -.41 4.79 9.59 9.59 0 0 0 -2.66 1.53 8.32 8.32 0 0 1 .13-.85 5.94 5.94 0 0 1 1.29-2.76 6.39 6.39 0 0 0 -2.22 2.39c-.12.22-.24.44-.34.66a4.7 4.7 0 0 1 -.08-2.93zm5 8c-1 .43-2.36-.69-3.23-1.7a10.2 10.2 0 0 1 1.73-.44 6 6 0 0 1 3 .23 6.42 6.42 0 0 0 -3-1.23c-.24 0-.48-.07-.73-.09a5 5 0 0 1 2.7-1.11c1.27.07 2.92 1.56 4.15 3a19.21 19.21 0 0 0 -4.58 1.37zm-17.89-.48a1 1 0 0 0 -1.11.11s-1.45 1.13-5.48 1.48a3.91 3.91 0 0 0 -3.09 2.44 3.91 3.91 0 0 0 -3.09-2.44c-4-.35-5.46-1.47-5.46-1.47a1 1 0 0 0 -1.56.85c.07.64.75 6.23 3.57 7.87a5.31 5.31 0 0 0 2.69.62 12.33 12.33 0 0 0 3.19-.48 12.73 12.73 0 0 1 -.11 4.29 12.54 12.54 0 0 0 -.2 3.29 4.16 4.16 0 0 1 -.73-.32 1 1 0 1 0 -1 1.74 5.39 5.39 0 0 0 5.55 0 1 1 0 0 0 .37-1.36 1 1 0 0 0 -1.36-.38 4.39 4.39 0 0 1 -.84.37 10.65 10.65 0 0 1 .16-3 14.65 14.65 0 0 0 .18-4.46 11.77 11.77 0 0 0 2.66.34 5.36 5.36 0 0 0 2.69-.62c2.81-1.64 3.49-7.23 3.56-7.87a1 1 0 0 0 -.55-.97zm-15.3 7.12c-1.07-.62-1.84-2.64-2.26-4.47a18.42 18.42 0 0 0 4.62.93c1.09.09 1.72 1.64 2 2.9a9.93 9.93 0 0 1 -1.68-.38 5.76 5.76 0 0 1 -2.55-1.56 6.17 6.17 0 0 0 2.15 2.43c.19.15.41.26.61.39a4.73 4.73 0 0 1 -2.85-.21zm11.25 0a4.75 4.75 0 0 1 -2.86.25c.21-.13.42-.24.62-.39a6.33 6.33 0 0 0 2.08-2.44 5.81 5.81 0 0 1 -2.55 1.56 9.83 9.83 0 0 1 -1.69.38c.31-1.24.94-2.81 2-2.9a18.33 18.33 0 0 0 4.66-.9c-.39 1.83-1.15 3.85-2.22 4.47z" fill="#0051b1" fill-opacity="1" data-original-color="#000000ff" stroke="none" stroke-opacity="1"/></g></svg>